<svg xmlns="http://www.w3.org/2000/svg" xmlns:xlink="http://www.w3.org/1999/xlink" width="188" height="50" viewBox="0 0 188 50">
  <defs>
    <rect id="bp-btn-donate-a" width="188" height="50" rx="4"/>
  </defs>
  <g fill="none" fill-rule="evenodd">
    <mask id="bp-btn-donate-b" fill="#fff">
      <use xlink:href="#bp-btn-donate-a"/>
    </mask>
    <use fill="#293C92" xlink:href="#bp-btn-donate-a"/>
    <g fill="#1A3B8B" mask="url(#bp-btn-donate-b)">
      <rect width="188" height="50"/>
    </g>
    <g transform="translate(24.231 11.667)">
      <g fill-rule="nonzero" transform="translate(8.383 3.314)">
        <g fill="#FFF" transform="translate(62.036)">
          <path d="M61.2468827 5.10893841L58.0620074 5.10893841 56.2189831 12.8855188 55.960313 13.9525755C55.7824772 14.0010781 55.6046414 14.0495807 55.4268062 14.0819157 55.1034681 14.1465858 54.7639638 14.1789209 54.4082922 14.1789209 54.0041204 14.1789209 53.6807828 14.1142508 53.4382795 14.0010781 53.2119435 13.8879054 53.0341077 13.7262301 52.9371062 13.4998848 52.8401052 13.2897069 52.8077712 13.0310265 52.8239379 12.740011 52.8401052 12.4489956 52.9047727 12.125645 52.985607 11.8022945L53.9556196 7.76041282 54.586128 5.07660339 51.3365852 5.07660339 49.8653991 11.2849336C49.6875634 12.0286398 49.5905618 12.740011 49.5582283 13.4190472 49.5258943 14.0980833 49.6390626 14.6801142 49.8653991 15.2136426 50.0917352 15.7310035 50.4959075 16.1351916 51.0455811 16.4423746 51.5952552 16.7495576 52.3874326 16.8950654 53.3897788 16.8950654 54.0849547 16.8950654 54.6992963 16.8303952 55.2166364 16.7172226 55.2328036 16.7172226 55.2651371 16.701055 55.2813039 16.701055 55.1358021 17.3477561 54.8447981 17.865117 54.3921255 18.2693052 53.9232861 18.6734933 53.244277 18.8836712 52.3389318 18.8836712 51.9509268 18.8836712 51.5952552 18.8675036 51.2719176 18.819001L50.6414093 21.4543079C51.0617484 21.5028105 51.5305877 21.5351455 52.0479278 21.5351455 53.017941 21.5351455 53.8586186 21.4219728 54.586128 21.211795 55.3136379 20.9854496 55.927979 20.6620991 56.4614863 20.2094083 56.9788264 19.7567176 57.4153323 19.1908541 57.7710038 18.5279856 58.1266749 17.8489494 58.4015122 17.0567406 58.6116815 16.1190241L60.8103774 6.87119884 61.2468827 5.10893841zM47.9092065 11.7537919C47.7152039 12.5621682 47.6505364 13.3867121 47.7313708 14.1950884 47.8122052 15.0196323 48.1355428 16.2645318 48.4427135 16.8950654L45.3710062 16.8950654C44.9991679 16.2645318 45.0153348 15.9573488 44.9345004 15.7633385 44.5303284 16.086689 44.0938226 16.361537 43.6088162 16.5717148 43.1238098 16.7818927 42.5903027 16.8950654 41.9759613 16.8950654 41.2646186 16.8950654 40.6502771 16.7657252 40.1491038 16.5232123 39.6479305 16.2806994 39.2275916 15.9411813 38.904254 15.5208256 38.5809164 15.1004699 38.35458 14.6154441 38.2090781 14.0495807 38.0635762 13.4837172 37.9989087 12.8855188 37.9989087 12.2388177 37.9989087 11.2525986 38.1767443 10.3310495 38.5162488 9.45800308 38.8719202 8.58495668 39.3569266 7.8250829 39.9712681 7.17838184 40.5856095 6.53168078 42.0891295 5.09277092 44.5464953 5.09277092L49.4773941 5.09277092 47.9092065 11.7537919zM45.6620101 7.79274784C44.174657 7.79274784 43.8998201 7.79274784 43.2854786 8.09993088 42.8489728 8.32627623 42.4933015 8.66579429 42.1861307 9.05381494 41.87896 9.4418356 41.6202899 9.89452633 41.4424542 10.4118872 41.2646186 10.929248 41.1676172 11.4627764 41.1676172 12.0124723 41.1676172 12.6915084 41.2807854 13.2412044 41.5071217 13.6453925 41.7334581 14.0495807 42.153797 14.243591 42.7681384 14.243591 43.091476 14.243591 43.3986468 14.1789209 43.6573168 14.0495807 43.9159869 13.9202405 44.2069908 13.7100626 44.4979946 13.4028796 44.5303284 13.047194 44.5788291 12.6753409 44.6434966 12.2873202 44.7081641 11.8992996 44.7889985 11.5274465 44.853666 11.204096L45.6620101 7.79274784zM37.1258971 9.78135361C37.1258971 10.8322429 36.9480614 11.7861269 36.6085569 12.6591734 36.2690524 13.5322198 35.784046 14.2759261 35.1697045 14.9064596 34.5553631 15.5369931 33.8278535 16.0220189 32.9710088 16.3777045 32.1141641 16.7333901 31.1926519 16.9112329 30.1903053 16.9112329 29.7052989 16.9112329 29.2202925 16.8627303 28.7191192 16.7818927L27.7491064 20.6782666 24.5642309 20.6782666 28.2664465 5.12510594 32.5183361 5.12510594C33.3266801 5.12510594 34.021856 5.25444619 34.5876968 5.49695906 35.1697045 5.73947198 35.6385441 6.07899005 36.0265492 6.49934572 36.3983875 6.91970143 36.6732245 7.42089476 36.8510601 7.98675817 37.0450627 8.53645409 37.1258971 9.13465255 37.1258971 9.78135361zM29.3172938 14.1950884C29.559797 14.2597585 29.8669677 14.2759261 30.2226391 14.2759261 30.7884799 14.2759261 31.2896532 14.1789209 31.7584928 13.968743 32.2111654 13.7585652 32.6153374 13.4675497 32.938675 13.0956966 33.2620126 12.7238435 33.5045158 12.2711528 33.6985184 11.7537919 33.8763541 11.236431 33.9733554 10.6544001 33.9733554 10.0238665 33.9733554 9.40950054 33.8440203 8.87597215 33.5691834 8.45561643 33.2943464 8.01909323 32.8255068 7.79274784 32.1464979 7.79274784L30.8854812 7.79274784 29.3172938 14.1950884zM22.6242052 14.1950884C22.2200332 14.1950884 21.8966956 14.1304183 21.6541923 14.0172456 21.4278561 13.9040729 21.2500204 13.7423977 21.1530191 13.5160523 21.0560178 13.3058744 21.023684 13.047194 21.0398509 12.7561786 21.0560178 12.465163 21.1206853 12.1418125 21.2015197 11.818462L22.1715325 7.77658031 25.7929138 7.77658031 26.4557559 5.09277092 22.8182078 5.09277092 23.6588856 1.6975903 20.2638406 2.23111868 18.1136455 11.3172687C17.9358098 12.0609749 17.8388085 12.7723461 17.8064748 13.4513822 17.774141 14.1304183 17.8873092 14.7124493 18.1136455 15.2459777 18.3399818 15.7633385 18.7441539 16.1675267 19.2938278 16.4747097 19.8435018 16.7818927 20.6356789 16.9274004 21.6380255 16.9274004 22.3332014 16.9274004 22.9475428 16.8627303 23.464883 16.7495576 23.5133836 16.7333901 23.5942181 16.7172226 23.6427187 16.701055L24.3055608 13.936408C24.0792244 14.0172456 23.8528881 14.0657482 23.6427187 14.0980833 23.3193811 14.1627534 22.9798766 14.1950884 22.6242052 14.1950884z"/>
          <polygon points="14.525 5.109 11.712 16.911 14.896 16.911 17.693 5.109"/>
          <polygon points="18.033 3.751 18.518 1.698 15.333 1.698 14.848 3.751"/>
          <path d="M7.47583809,5.12510594 C8.15484706,5.12510594 8.75302162,5.25444619 9.25419496,5.49695906 C9.75536825,5.73947198 10.1595402,6.06282251 10.4990447,6.48317818 C10.8223824,6.9035339 11.0648855,7.3885597 11.2265544,7.93825562 C11.3882232,8.48795149 11.4690576,9.08615001 11.4690576,9.73285107 C11.4690576,10.7190702 11.2912219,11.6406192 10.9193836,12.5298332 C10.5475454,13.4028796 10.062539,14.1789209 9.43203065,14.8256219 C8.80152228,15.472323 8.05784579,15.9896839 7.20100109,16.361537 C6.34415643,16.7333901 5.42264426,16.9274004 4.42029764,16.9274004 C4.29096259,16.9274004 4.06462627,16.9274004 3.74128865,16.9112329 C3.41795104,16.9112329 3.04611279,16.8788978 2.64194077,16.8142277 C2.22160188,16.7495576 1.7850961,16.66872 1.33242345,16.5555473 C0.863583904,16.4423746 0.42707813,16.2806994 0.0229061151,16.086689 L3.72512178,0.53352838 L7.03933231,0.0161675267 L5.72981496,5.52929413 C6.02081882,5.39995392 6.27948892,5.30294873 6.57049277,5.23827866 C6.84532972,5.157441 7.15250048,5.12510594 7.47583809,5.12510594 Z M4.69513461,14.2759261 C5.19630792,14.2759261 5.66514745,14.1627534 6.10165323,13.9040729 C6.53815901,13.66156 6.92616413,13.3382095 7.24950174,12.9340214 C7.57283935,12.5298332 7.83150945,12.0609749 8.00934513,11.5597816 C8.18718082,11.0424207 8.28418208,10.5088923 8.28418208,9.95919641 C8.28418208,9.28016029 8.17101396,8.74663194 7.94467762,8.35861129 C7.71834128,7.97059063 7.24950174,7.79274784 6.63516028,7.79274784 C6.4411577,7.79274784 6.23098826,7.80891537 5.90765065,7.88975303 C5.58431304,7.9544231 5.30947609,8.11609837 5.05080599,8.34244376 L3.66045425,14.2112559 C4.08079315,14.2759261 4.21012819,14.2920936 4.32329636,14.2920936 C4.40413076,14.2759261 4.5334658,14.2759261 4.69513461,14.2759261 Z"/>
        </g>
        <path fill="#97AAFF" d="M2.21430274,0.426000734 C2.90032698,0.426000734 3.50462983,0.574212029 4.02722944,0.870638981 C4.54982905,1.16706598 4.9556907,1.59040001 5.24482655,2.14065367 C5.53396245,2.69090738 5.67852822,3.33345207 5.67852822,4.068307 L5.67852822,4.53690783 C5.67852822,5.27886278 5.53396245,5.92406996 5.24482655,6.47254867 C4.9556907,7.02102732 4.54354357,7.44258634 4.00837287,7.73723833 C3.47320212,8.03189032 2.84465531,8.17921409 2.12271358,8.17921409 L0,8.17921409 L0,0.426000734 L2.21430274,0.426000734 Z M4.64410942,4.057657 C4.64410942,3.46835301 4.54982737,2.96514467 4.36126053,2.54801689 C4.17269365,2.13088906 3.89613307,1.81227923 3.53157043,1.59217776 C3.16700782,1.37207625 2.72792298,1.26202718 2.21430274,1.26202718 L1.045194,1.26202718 L1.045194,7.34851267 L2.12271358,7.34851267 C2.66865957,7.34851267 3.13019251,7.2340261 3.50732625,7.00504955 C3.88445999,6.77607304 4.16820399,6.4512507 4.3585667,6.03057291 C4.54892945,5.60989506 4.64410942,5.1120117 4.64410942,4.53690783 L4.64410942,4.057657 Z M6.62851882,5.239809 C6.62851882,4.68245526 6.73626969,4.18190941 6.95177469,3.73815646 C7.16727968,3.29440346 7.4752676,2.94561882 7.87574773,2.69179216 C8.27622782,2.43796545 8.74225042,2.31105396 9.27382938,2.31105396 C9.81259187,2.31105396 10.2831041,2.43796545 10.68538,2.69179216 C11.087656,2.94561882 11.3965419,3.29440346 11.6120469,3.73815646 C11.8275519,4.18190941 11.9353028,4.68245526 11.9353028,5.239809 L11.9353028,5.36228422 C11.9353028,5.91963797 11.8275519,6.41929634 11.6120469,6.86127433 C11.3965419,7.30325231 11.0885539,7.65114942 10.6880739,7.90497614 C10.2875937,8.1588028 9.8197753,8.28571429 9.2846046,8.28571429 C8.74943385,8.28571429 8.28161544,8.1588028 7.88113535,7.90497614 C7.48065521,7.65114942 7.17176934,7.30325231 6.95446847,6.86127433 C6.7371676,6.41929634 6.62851882,5.91963797 6.62851882,5.36228422 L6.62851882,5.239809 Z M7.63599961,5.36228422 C7.63599961,5.75278688 7.69795636,6.10955889 7.82187175,6.43261106 C7.94578713,6.75566327 8.13165741,7.01214863 8.37948813,7.20207491 C8.6273189,7.3920012 8.92902133,7.48696292 9.2846046,7.48696292 C9.63659608,7.48696292 9.93650269,7.3920012 10.1843334,7.20207491 C10.4321642,7.01214863 10.6180345,6.75566327 10.7419498,6.43261106 C10.8658652,6.10955889 10.9278219,5.75278688 10.9278219,5.36228422 L10.9278219,5.239809 C10.9278219,4.84930639 10.8649673,4.49253433 10.739256,4.16948217 C10.6135448,3.84643 10.4267766,3.58905716 10.1789459,3.39735587 C9.93111508,3.20565458 9.62941264,3.10980538 9.27382938,3.10980538 C8.9218379,3.10980538 8.6228292,3.20565458 8.37679434,3.39735587 C8.13075945,3.58905716 7.94578713,3.84643 7.82187175,4.16948217 C7.69795636,4.49253433 7.63599961,4.84930639 7.63599961,5.239809 L7.63599961,5.36228422 Z M15.7083947,2.31105396 C16.9547319,2.31105396 17.5778912,3.00862319 17.5778912,4.40378261 L17.5778912,8.17921409 L16.5704103,8.17921409 L16.5704103,4.39313256 C16.5704103,3.95292963 16.4743325,3.63343227 16.2821738,3.4346309 C16.0900152,3.23582957 15.7999858,3.13643041 15.4120768,3.13643041 C15.1031863,3.13643041 14.8257278,3.21985469 14.5796929,3.38670582 C14.3336581,3.55355695 14.1388085,3.77720512 13.9951385,4.057657 L13.9951385,8.17921409 L12.9876577,8.17921409 L12.9876577,2.41755416 L13.9412626,2.41755416 L13.9735882,3.12578041 C14.1855014,2.86662862 14.438716,2.66605533 14.7332395,2.52405435 C15.0277629,2.38205338 15.3528115,2.31105396 15.7083947,2.31105396 Z M23.3282315,6.92251194 C23.3282315,7.12486328 23.34619,7.33342404 23.3821075,7.54820053 C23.418025,7.76297697 23.4683087,7.94491294 23.5329602,8.09401394 L23.5329602,8.17921409 L22.4823786,8.17921409 C22.4213189,8.04076318 22.3746268,7.84018984 22.3423011,7.57748804 C22.1411631,7.79048947 21.8996215,7.96177559 21.6176692,8.09135146 C21.3357168,8.22092732 21.025933,8.28571429 20.6883085,8.28571429 C20.3003995,8.28571429 19.9564946,8.21027742 19.6565835,8.05940141 C19.3566724,7.90852535 19.125008,7.70351456 18.9615834,7.44436282 C18.7981588,7.18521108 18.7164477,6.89766348 18.7164477,6.58171135 C18.7164477,6.17345861 18.8233007,5.82733646 19.0370098,5.54333456 C19.2507189,5.25933262 19.5542172,5.04544693 19.9475138,4.90167095 C20.3408104,4.75789497 20.8050371,4.68600807 21.3402079,4.68600807 L22.3207507,4.68600807 L22.3207507,4.22805729 C22.3207507,3.8766049 22.2156936,3.60059469 22.0055762,3.40001836 C21.7954589,3.19944203 21.4928585,3.09915533 21.0977659,3.09915533 C20.8571187,3.09915533 20.641617,3.14086748 20.4512542,3.22429304 C20.2608915,3.30771861 20.112734,3.41954269 20.0067774,3.55976865 C19.9008207,3.69999457 19.8478432,3.85175583 19.8478432,4.0150569 L18.8403624,4.0150569 C18.8403624,3.73460502 18.9373382,3.46303226 19.1312927,3.2003305 C19.3252472,2.93762875 19.5982161,2.72374301 19.9502076,2.55866689 C20.3021991,2.39359082 20.704469,2.31105396 21.1570295,2.31105396 C21.5880395,2.31105396 21.9660655,2.38294086 22.2911189,2.52671684 C22.6161723,2.67049282 22.8702848,2.88704105 23.053464,3.17636797 C23.2366432,3.46569493 23.3282315,3.8198045 23.3282315,4.23870729 L23.3282315,6.92251194 Z M20.8337737,7.43371282 C21.0636456,7.43371282 21.2782495,7.39377564 21.4775916,7.31390009 C21.6769337,7.23402458 21.8484372,7.12841296 21.9921072,6.99706204 C22.1357772,6.86571116 22.2453239,6.72371237 22.3207507,6.5710613 L22.3207507,5.37825925 L21.5018358,5.37825925 C20.9271558,5.37825925 20.4871731,5.46789604 20.1818743,5.64717222 C19.8765756,5.82644841 19.7239285,6.09180872 19.7239285,6.44326111 C19.7239285,6.63141238 19.7670289,6.80003596 19.8532309,6.94913696 C19.9394329,7.09823797 20.0651422,7.2162745 20.2303627,7.30325009 C20.3955832,7.39022567 20.5967182,7.43371282 20.8337737,7.43371282 Z M27.1659746,8.17921409 C26.9361026,8.25021455 26.6792963,8.28571429 26.3955481,8.28571429 C25.9896803,8.28571429 25.6637339,8.16501526 25.417699,7.92361365 C25.1716642,7.68221204 25.0486486,7.28994025 25.0486486,6.74678662 L25.0486486,3.16838046 L23.9872918,3.16838046 L23.9872918,2.41755416 L25.0486486,2.41755416 L25.0486486,1.01707674 L26.0561294,1.01707674 L26.0561294,2.41755416 L27.1444242,2.41755416 L27.1444242,3.16838046 L26.0561294,3.16838046 L26.0561294,6.75211164 C26.0561294,7.02546349 26.1135966,7.20917447 26.2285326,7.30325009 C26.3434685,7.3973257 26.4997073,7.44436282 26.6972536,7.44436282 C26.7726803,7.44436282 26.8552893,7.43815036 26.9450831,7.42572531 C27.0348768,7.4133002 27.1067107,7.39998781 27.160587,7.38578774 L27.1659746,8.17921409 Z M32.8031754,5.56995959 L28.8594537,5.56995959 C28.870229,5.92851201 28.9456546,6.2533343 29.0857328,6.54443628 C29.2258111,6.83553825 29.4242523,7.06539882 29.6810624,7.23402496 C29.9378725,7.4026511 30.238677,7.48696292 30.583485,7.48696292 C30.9211095,7.48696292 31.2129349,7.41951347 31.4589697,7.28461253 C31.7050046,7.14971163 31.9249959,6.95623823 32.1189504,6.70418657 L32.727749,7.17278735 C32.512244,7.49938954 32.2249084,7.76652485 31.8657333,7.97420126 C31.5065583,8.18187762 31.061188,8.28571429 30.529609,8.28571429 C29.9980301,8.28571429 29.5293138,8.16679027 29.123446,7.92893867 C28.7175783,7.69108708 28.4042028,7.36093981 28.1833102,6.93848696 C27.9624176,6.51603411 27.8519729,6.03678807 27.8519729,5.50073447 L27.8519729,5.2717591 C27.8519729,4.67180507 27.9704989,4.14729687 28.2075544,3.69821885 C28.4446098,3.24914083 28.7579853,2.90568122 29.1476902,2.66782958 C29.5373951,2.42997798 29.9549297,2.31105396 30.4003067,2.31105396 C30.9426609,2.31105396 31.3925209,2.43086551 31.7499,2.67049211 C32.1072791,2.91011871 32.3721667,3.24115346 32.5445707,3.66360631 C32.7169747,4.08605916 32.8031754,4.5741801 32.8031754,5.12798383 L32.8031754,5.56995959 Z M31.7956946,4.69665807 C31.7669606,4.24580505 31.643945,3.86862066 31.4266441,3.56509363 C31.2093433,3.2615666 30.8672342,3.10980538 30.4003067,3.10980538 C29.9980307,3.10980538 29.6631051,3.25446666 29.3955197,3.54379363 C29.1279343,3.83312055 28.9600226,4.24225465 28.8917793,4.77120822 L31.7956946,4.77120822 L31.7956946,4.69665807 Z M43.5819179,2.41755416 L41.8902122,8.17921409 L41.0766849,8.17921409 L39.6651343,3.82868158 L38.2859092,8.17921409 L37.4723819,8.17921409 L35.7806762,2.41755416 L36.7827694,2.41755416 L37.9249401,6.69353652 L39.2772272,2.41755416 L40.0907545,2.41755416 L41.464592,6.78938672 L42.5852123,2.41755416 L43.5819179,2.41755416 Z M44.995242,0.319500539 C45.182013,0.319500539 45.3283746,0.372750115 45.4343312,0.479250832 C45.5402878,0.585751548 45.5932654,0.720650402 45.5932654,0.883951517 C45.5932654,1.04370262 45.5402878,1.17593898 45.4343312,1.28066469 C45.3283746,1.3853904 45.182013,1.43775249 44.995242,1.43775249 C44.808471,1.43775249 44.6639052,1.3853904 44.5615403,1.28066469 C44.4591755,1.17593898 44.4079938,1.04370262 44.4079938,0.883951517 C44.4079938,0.720650402 44.4591755,0.585751548 44.5615403,0.479250832 C44.6639052,0.372750115 44.808471,0.319500539 44.995242,0.319500539 Z M44.4834202,8.17921409 L44.4834202,2.41755416 L45.490901,2.41755416 L45.490901,8.17921409 L44.4834202,8.17921409 Z M49.3555819,8.17921409 C49.1257099,8.25021455 48.868904,8.28571429 48.5851554,8.28571429 C48.1792876,8.28571429 47.8533415,8.16501526 47.6073064,7.92361365 C47.3612719,7.68221204 47.238256,7.28994025 47.238256,6.74678662 L47.238256,3.16838046 L46.1768993,3.16838046 L46.1768993,2.41755416 L47.238256,2.41755416 L47.238256,1.01707674 L48.245737,1.01707674 L48.245737,2.41755416 L49.3340315,2.41755416 L49.3340315,3.16838046 L48.245737,3.16838046 L48.245737,6.75211164 C48.245737,7.02546349 48.3032039,7.20917447 48.4181401,7.30325009 C48.5330759,7.3973257 48.689315,7.44436282 48.8868613,7.44436282 C48.9622878,7.44436282 49.0448969,7.43815036 49.1346905,7.42572531 C49.2244845,7.4133002 49.2963184,7.39998781 49.3501945,7.38578774 L49.3555819,8.17921409 Z M53.0155343,2.31105396 C54.2618717,2.31105396 54.885031,3.00862319 54.885031,4.40378261 L54.885031,8.17921409 L53.87755,8.17921409 L53.87755,4.39313256 C53.87755,3.95292963 53.7814724,3.63343227 53.5893135,3.4346309 C53.3971551,3.23582957 53.1071254,3.13643041 52.7192163,3.13643041 C52.410326,3.13643041 52.1328677,3.21985469 51.8868327,3.38670582 C51.6407976,3.55355695 51.4459484,3.77720512 51.3022782,4.057657 L51.3022782,8.17921409 L50.2947977,8.17921409 L50.2947977,0 L51.3022782,0 L51.3022782,3.09915533 C51.5141915,2.84710363 51.76561,2.65274274 52.0565421,2.51606684 C52.3474737,2.37939089 52.6671349,2.31105396 53.0155343,2.31105396 Z" transform="translate(0 6.629)"/>
      </g>
    </g>
  </g>
</svg>
