<svg xmlns="http://www.w3.org/2000/svg" xmlns:xlink="http://www.w3.org/1999/xlink" version="1.1" width="184" height="135" enable-background="new 0 0 800 187.86" xml:space="preserve" style=""><rect id="backgroundrect" width="100%" height="100%" x="0" y="0" fill="none" stroke="none" class="" style=""/>
















<g class="currentLayer" style=""><title>Layer 1</title>
	
	
	
	
	
<g id="svg_14" class="">
</g><g id="svg_15" class="">
</g><g id="svg_16" class="">
</g><g id="svg_17" class="">
</g><g id="svg_18" class="">
</g><g id="svg_19" class="">
</g><g id="svg_20" class="">
</g><g id="svg_21" class="">
</g><g id="svg_22" class="">
</g><g id="svg_23" class="">
</g><g id="svg_24" class="">
</g><g id="svg_25" class="">
</g><g id="svg_26" class="">
</g><g id="svg_27" class="">
</g><g id="svg_28" class="">
</g><g class=""><path fill="#0075B2" d="M46.66200038743019,37.88639558410645 h17.156 c5.405,0 9.825,-4.417 9.825,-9.829 V10.888395584106448 c0,-5.409 -4.4190000000000005,-9.82 -9.825,-9.82 H46.66200038743019 c-5.424,0 -9.832,4.411 -9.832,9.82 v17.169 C36.831000387430194,33.47039558410644 41.23800038743019,37.88639558410645 46.66200038743019,37.88639558410645 z" id="svg_11" class=""/><path fill="#0075B2" d="M137.4720003874302,37.88639558410645 c5.398,0 9.831,-4.417 9.831,-9.829 V10.888395584106448 c0,-5.409 -4.433,-9.82 -9.831,-9.82 h-17.164 c-5.405,0 -9.841,4.411 -9.841,9.82 v17.169 c0,5.412 4.436,9.829 9.841,9.829 H137.4720003874302 z" id="svg_12" class=""/><path fill="#6AB31D" d="M174.3000003874302,60.90639558410645 h-17.164 c-5.398,0 -9.834,4.441 -9.834,9.847 v17.169 c0,5.398 -4.433,9.805 -9.831,9.805 h-90.81 c-5.424,0 -9.832,-4.406 -9.832,-9.805 v-17.169 c0,-5.405 -4.433,-9.847 -9.844,-9.847 H9.823000387430191 c-5.4,0 -9.823,4.441 -9.823,9.847 v17.169 c0,5.398 4.423,9.805 9.823,9.805 h17.164 c5.411,0 9.844,4.429 9.844,9.818 v17.185 c0,5.421 4.408,9.834 9.832,9.834 h90.81 c5.398,0 9.831,-4.413 9.831,-9.834 V107.54539558410644 c0,-5.39 4.436,-9.818 9.834,-9.818 H174.3000003874302 c5.398,0 9.836,-4.406 9.836,-9.805 v-17.169 C184.1370003874302,65.34739558410645 179.6980003874302,60.90639558410645 174.3000003874302,60.90639558410645 z" id="svg_13" class=""/></g></g></svg>