<svg xmlns="http://www.w3.org/2000/svg" width="256" height="256" viewBox="117 5 105 95" fill-rule="evenodd" clip-rule="evenodd" stroke-linejoin="round" stroke-miterlimit="1.414"><g fill="#35495c" fill-rule="nonzero"><path d="M206.613 15.378C197.114 5.876 183.985 0 169.488 0c-14.501 0-27.628 5.876-37.13 15.378-9.504 9.502-15.38 22.631-15.38 37.13 0 14.499 5.876 27.628 15.378 37.13 9.502 9.504 22.631 15.378 37.132 15.378 14.499 0 27.628-5.879 37.127-15.378 9.502-9.504 15.378-22.631 15.378-37.13 0-14.499-5.878-27.628-15.38-37.13zm-1.732 72.524c-9.057 9.058-21.572 14.661-35.395 14.661-13.823 0-26.339-5.603-35.397-14.661s-14.661-21.572-14.661-35.394c0-13.823 5.603-26.337 14.661-35.395 9.058-9.058 21.572-14.661 35.395-14.661 13.823 0 26.337 5.603 35.395 14.661 9.058 9.058 14.66 21.572 14.66 35.395.002 13.822-5.601 26.337-14.658 35.394z"/><path d="M214.656 52.07c-.236-24.746-20.367-44.734-45.168-44.734-24.803 0-44.936 19.99-45.168 44.736l20.712-20.712 6.946 6.946-15.157 15.157h65.333l-15.157-15.157 6.946-6.946 20.713 20.71zm-45.17-7.762L150.24 24.112h12.79v-9.955c0-2.584 2.906-4.702 6.456-4.702 3.55 0 6.456 2.116 6.456 4.702v9.955h12.79l-19.246 20.196zM175.1 77.93c-1.026-.667-2.326-1.267-3.894-1.788-1.199-.413-2.186-.803-2.956-1.179-.764-.372-1.328-.785-1.689-1.221-.37-.444-.543-.976-.543-1.586 0-.488.147-.952.462-1.391.309-.438.792-.803 1.448-1.079.663-.28 1.507-.431 2.555-.436.844.004 1.615.072 2.312.193.689.125 1.3.276 1.823.449.53.179.958.348 1.295.507l1.166-3.516c-.705-.354-1.588-.648-2.66-.886-.91-.201-1.952-.317-3.135-.357v-3.638h-3.205v3.82c-.514.083-1.007.195-1.473.33-1.179.348-2.192.831-3.03 1.462-.831.628-1.475 1.363-1.917 2.205-.444.842-.663 1.77-.672 2.768.006 1.155.309 2.173.906 3.052.597.88 1.448 1.643 2.547 2.297 1.094.652 2.4 1.214 3.91 1.687 1.133.363 2.057.742 2.761 1.131.705.387 1.221.814 1.542 1.28.328.466.49 1.006.484 1.61 0 .663-.195 1.238-.575 1.735-.376.49-.932.875-1.663 1.148-.731.276-1.623.411-2.669.42a15.281 15.281 0 0 1-2.481-.217 15.934 15.934 0 0 1-2.24-.562 11.92 11.92 0 0 1-1.838-.766l-1.127 3.662c.51.28 1.146.532 1.925.764.779.234 1.636.42 2.575.562.932.138 1.89.208 2.864.217l.171-.002v3.761h3.205v-4.063a12.43 12.43 0 0 0 1.162-.282c1.286-.387 2.354-.915 3.199-1.591.851-.67 1.481-1.446 1.899-2.321a6.4 6.4 0 0 0 .624-2.787c0-1.155-.247-2.177-.757-3.056-.515-.887-1.281-1.664-2.311-2.336z"/></g></svg>