<svg xmlns="http://www.w3.org/2000/svg" width="199.365" height="144.587" fill-rule="evenodd" clip-rule="evenodd" stroke-linejoin="round" stroke-miterlimit="1.414"><rect width="100%" height="100%" fill="none" class="selected"/><defs><linearGradient id="a" x2="1" gradientUnits="userSpaceOnUse" gradientTransform="matrix(0 -384.236 384.236 0 1250 386.5)"><stop offset="0" stop-color="#04b6f0"/><stop offset="1" stop-color="#3ecaf0"/></linearGradient></defs><g class="currentLayer"><title>Layer 1</title><path d="M-617.748 92.307c0 13.5-4.018 24.871-12.083 34.077-8.416 9.645-19.351 14.487-32.738 14.487-13.423 0-24.323-4.842-32.74-14.487-8.067-9.206-12.115-20.577-12.115-34.077 0-13.537 4.048-24.905 12.116-34.077 8.51-9.555 19.446-14.33 32.739-14.33 13.387 0 24.322 4.775 32.738 14.33 8.065 9.172 12.083 20.54 12.083 34.077zm-26.653 0c0-6.115-1.465-11.276-4.398-15.449-3.282-4.743-7.874-7.1-13.77-7.1-5.899 0-10.49 2.357-13.774 7.1-2.963 4.173-4.43 9.334-4.43 15.45 0 6.08 1.467 11.303 4.43 15.601 3.285 4.744 7.875 7.104 13.774 7.104 5.896 0 10.488-2.36 13.77-7.104 2.933-4.298 4.398-9.521 4.398-15.602zm123.023 0c0 12.61-3.634 23.629-10.936 33.055-7.81 10.317-17.883 15.509-30.125 15.509-8.64 0-15.97-2.516-21.964-7.483 0 1.144.128 3.915.384 8.346.254 4.454.38 8.084.38 10.951 0 15.832-4.718 23.728-14.152 23.728-3.86 0-7.013-1.37-9.533-4.078-2.486-2.736-3.73-6.023-3.73-9.903V59.472c0-3.757 1.275-7.007 3.825-9.743 2.55-2.708 5.708-4.074 9.47-4.074 5.671 0 9.817 2.828 12.432 8.47 5.578-6.816 13.198-10.225 22.856-10.225 12.274 0 22.315 5.093 30.157 15.319 7.27 9.46 10.936 20.478 10.936 33.088zm-26.653 0c0-6.115-1.495-11.276-4.428-15.449-3.287-4.743-7.876-7.1-13.774-7.1-5.896 0-10.487 2.357-13.772 7.1-2.933 4.173-4.398 9.334-4.398 15.45 0 6.08 1.465 11.303 4.398 15.601 3.285 4.744 7.876 7.104 13.772 7.104 5.898 0 10.487-2.36 13.774-7.104 2.933-4.298 4.428-9.521 4.428-15.602zm123.628-2.863c0 4.454-1.053 7.51-3.158 9.234-2.103 1.685-5.386 2.545-9.817 2.545h-48.107c0 5.096 2.393 9.011 7.174 11.747 3.857 2.138 8.575 3.224 14.154 3.224 4.338 0 9.533-1.439 15.622-4.269 6.089-2.868 10.008-4.272 11.701-4.272 3.09 0 5.704 1.116 7.872 3.41 2.134 2.262 3.221 5 3.221 8.154 0 7.289-5.45 12.964-16.357 17.038-8.319 3.055-16.767 4.616-25.404 4.616-13.9 0-25.122-4.616-33.697-13.818-8.577-9.206-12.878-20.766-12.878-34.746 0-13.315 4.462-24.682 13.387-34.169 8.893-9.495 19.959-14.238 33.155-14.238 12.273 0 22.537 4.491 30.764 13.47 8.222 8.984 12.368 19.682 12.368 32.074zm-26.65-6.692c-.13-4.078-2.01-7.77-5.644-11.117-3.635-3.342-7.49-4.995-11.572-4.995-4.207 0-8.13 1.653-11.763 4.995-3.633 3.347-5.453 7.04-5.453 11.117h34.432zm116.196 42.384c0 3.889-1.242 7.167-3.726 9.906-2.52 2.71-5.677 4.08-9.534 4.08-9.308 0-13.964-7.39-13.964-22.134 0-2.835.192-7.292.574-13.439.415-6.116.608-10.605.608-13.44 0-15.64-5.07-23.47-15.175-23.47-10.107 0-15.143 7.83-15.143 23.47 0 2.835.159 7.324.445 13.44.32 6.147.479 10.604.479 13.439 0 14.744-4.59 22.133-13.77 22.133-3.86 0-7.014-1.37-9.502-4.08-2.518-2.738-3.761-6.016-3.761-9.905V59.445c0-3.86 1.243-7.135 3.761-9.78 2.488-2.676 5.676-4.01 9.533-4.01 6.376 0 10.805 2.828 13.292 8.47 4.304-6.816 11.922-10.225 22.826-10.225 10.105 0 18.14 2.673 24.038 7.991 6.025 5.705 9.02 13.536 9.02 23.505v49.74zm83.618-2.83c0 6.018-3.915 10.793-11.761 14.3a47.408 47.408 0 0 1-19.796 4.265c-13.426 0-24.325-4.842-32.74-14.487-8.067-9.206-12.115-20.577-12.115-34.077 0-13.537 4.113-24.967 12.369-34.33 8.255-9.394 19.06-14.077 32.486-14.077 7.746 0 14.408 1.146 19.959 3.41 7.741 3.056 11.598 7.831 11.598 14.329 0 3.278-1.018 6.176-3.06 8.693-2.039 2.484-4.657 3.758-7.84 3.758-2.172 0-5.297-.732-9.374-2.162-4.08-1.469-7.329-2.17-9.718-2.17-6.348 0-11.29 2.262-14.828 6.782-3.284 4.078-4.942 9.301-4.942 15.767 0 6.081 1.466 11.242 4.435 15.414 3.277 4.873 7.905 7.292 13.8 7.292 2.617 0 6.184-.765 10.743-2.329 4.562-1.523 7.846-2.32 9.885-2.32 2.965 0 5.51 1.272 7.683 3.757 2.136 2.516 3.216 5.22 3.216 8.185zm96.88 2.83c0 3.889-1.242 7.167-3.73 9.906-2.516 2.71-5.702 4.08-9.566 4.08-5.8 0-9.943-2.837-12.43-8.474-5.577 6.818-13.199 10.223-22.855 10.223-12.366 0-22.504-5.192-30.35-15.509-7.141-9.426-10.737-20.445-10.737-33.055s3.596-23.629 10.736-33.088c7.973-10.226 18.076-15.319 30.35-15.319 9.657 0 17.28 3.41 22.856 10.224 2.487-5.641 6.63-8.47 12.43-8.47 3.766 0 6.923 1.367 9.476 4.075 2.545 2.736 3.82 5.954 3.82 9.716v65.69zm-26.65-32.829c0-6.115-1.463-11.276-4.4-15.449-3.41-4.743-8.001-7.1-13.77-7.1-5.898 0-10.485 2.357-13.773 7.1-2.962 4.173-4.425 9.334-4.425 15.45 0 6.08 1.427 11.303 4.262 15.601 3.385 4.744 8.038 7.104 13.937 7.104 5.894 0 10.486-2.36 13.77-7.104 2.936-4.298 4.4-9.521 4.4-15.602zm94.65-34.619c0 5.7-2.773 9.617-8.32 11.75a949.64 949.64 0 0 0-15.335 5.286c-5.583 3.188-8.353 9.11-8.353 17.71v32.702c0 3.889-1.278 7.167-3.759 9.906-2.524 2.71-5.71 4.08-9.566 4.08-3.885 0-7.079-1.37-9.56-4.08-2.523-2.74-3.765-6.017-3.765-9.906V59.445c0-3.86 1.242-7.135 3.73-9.78 2.516-2.676 5.71-4.01 9.566-4.01 6.373 0 10.801 2.828 13.292 8.47 5.707-6.816 11.83-10.225 18.427-10.225 3.758 0 6.98 1.367 9.657 4.074 2.643 2.74 3.986 5.988 3.986 9.714zM-16.83 58.9c0 5.922-2.329 9.649-6.945 11.244-2.27.795-7.025 1.208-14.26 1.208v53.785c0 3.889-1.274 7.167-3.754 9.906-2.524 2.71-5.71 4.08-9.567 4.08-3.758 0-6.952-1.37-9.504-4.08-2.546-2.74-3.82-6.017-3.82-9.906V71.35c-5.486 0-9.469-.701-11.986-2.067-3.44-1.912-5.141-5.384-5.141-10.385 0-4.997 1.756-8.406 5.294-10.224 2.393-1.338 6.347-2.035 11.833-2.035v-11.4c0-13.407 4.424-20.094 13.324-20.094 8.86 0 13.322 6.687 13.322 20.094v11.4c7.234 0 11.988.414 14.259 1.208 4.616 1.593 6.945 5.29 6.945 11.052zm214.106-16.17c-.072-8.175-15.193-11.886-54.335-11.886-91.84 0-115.14-3.919-140.074-30.13 10.49 15.739 16.23 45.258 113.302 43.79 101.28-1.56 39.493 26.087 21.515 57.322 32.421-28.907 59.495-47.96 59.592-58.978v-.119zM68.221 126.67c-.004 7.597-6.26 13.849-13.868 13.85-7.684 0-13.897-6.206-13.897-13.85v-.012c0-7.61 6.268-13.874 13.89-13.874h.007c7.658 0 13.868 6.208 13.868 13.885zm63.246 0c-.004 7.597-6.26 13.849-13.868 13.85-7.676 0-13.894-6.206-13.894-13.85v-.012c0-7.61 6.268-13.874 13.887-13.874h.007c7.658 0 13.868 6.208 13.868 13.885z" fill="url(#a)" fill-rule="nonzero"/></g></svg>