<svg xmlns="http://www.w3.org/2000/svg" width="233" height="128" viewBox="0 0 151 82" preserveAspectRatio="xMidYMid"><defs><clipPath id="a"><path d="M2.125 40.957c0 21.441 32.824 38.82 73.32 38.82 40.496 0 73.325-17.379 73.325-38.82 0-21.437-32.829-38.82-73.325-38.82S2.125 19.52 2.125 40.957"/></clipPath><radialGradient id="b" gradientUnits="userSpaceOnUse" cx="0" cy="0" fx="0" fy="0" r="1" gradientTransform="matrix(96.28463 0 0 96.90998 46.146 15.784)"><stop offset="0" stop-color="#aeb2d5"/><stop offset=".3" stop-color="#aeb2d5"/><stop offset=".75" stop-color="#484c89"/><stop offset="1" stop-color="#484c89"/></radialGradient></defs><g clip-path="url(#a)"><path d="M2.125 40.957c0 21.441 32.824 38.82 73.32 38.82 40.496 0 73.325-17.379 73.325-38.82 0-21.437-32.829-38.82-73.325-38.82S2.125 19.52 2.125 40.957" fill="url(#b)"/></g><path d="M75.445 76.895c38.914 0 70.461-16.09 70.461-35.938 0-19.848-31.547-35.937-70.46-35.937-38.91 0-70.458 16.09-70.458 35.937 0 19.848 31.547 35.938 70.457 35.938" fill="#777bb3"/><path d="M41.957 45.414c3.203 0 5.59-.594 7.102-1.766 1.496-1.16 2.527-3.168 3.07-5.968.504-2.614.312-4.446-.57-5.43-.907-1.008-2.86-1.52-5.809-1.52h-5.113l-2.832 14.684zM25.234 63.496a.794.794 0 0 1-.613-.289.803.803 0 0 1-.168-.664l7.516-38.906a.795.795 0 0 1 .777-.645h16.195c5.086 0 8.875 1.39 11.254 4.133 2.395 2.758 3.133 6.613 2.196 11.457-.38 1.973-1.036 3.805-1.946 5.445-.91 1.645-2.117 3.164-3.582 4.52-1.754 1.652-3.742 2.855-5.898 3.558-2.121.696-4.848 1.047-8.102 1.047H36.31l-1.871 9.696a.798.798 0 0 1-.782.648zm0 0"/><path d="M41.293 31.531h4.457c3.563 0 4.797.79 5.215 1.258.7.777.828 2.414.383 4.742-.504 2.602-1.438 4.45-2.774 5.485-1.367 1.058-3.594 1.597-6.617 1.597H38.77zm7.648-9.34H32.746a1.59 1.59 0 0 0-1.559 1.297l-7.515 38.903c-.09.472.031.953.332 1.324.305.367.758.582 1.23.582h8.422A1.59 1.59 0 0 0 35.215 63l1.75-9.047h5.898c3.34 0 6.149-.367 8.348-1.086 2.266-.742 4.352-1.996 6.195-3.734 1.524-1.414 2.785-2.996 3.735-4.715.953-1.711 1.636-3.625 2.035-5.684.984-5.097.183-9.183-2.38-12.136-2.538-2.926-6.53-4.407-11.855-4.407M36.84 46.215h5.117c3.398 0 5.926-.645 7.586-1.93 1.664-1.289 2.785-3.437 3.367-6.45.559-2.89.305-4.933-.762-6.12-1.066-1.192-3.199-1.785-6.398-1.785h-5.77l-3.14 16.285m12.1-22.422c4.871 0 8.422 1.285 10.657 3.86 2.23 2.574 2.906 6.163 2.011 10.777-.363 1.898-.984 3.636-1.859 5.21-.871 1.575-2.016 3.012-3.426 4.317-1.68 1.586-3.55 2.715-5.605 3.387-2.055.676-4.672 1.008-7.856 1.008h-7.21l-1.997 10.343h-8.422l7.512-38.902H48.94" fill="#fff"/><path d="M81.7 53.152a.794.794 0 0 1-.778-.953l3.32-17.215c.317-1.636.238-2.812-.219-3.304-.28-.305-1.12-.813-3.609-.813h-6.02l-4.18 21.637a.795.795 0 0 1-.78.648h-8.352a.802.802 0 0 1-.617-.289.797.797 0 0 1-.164-.664l7.511-38.902a.798.798 0 0 1 .782-.652h8.351a.803.803 0 0 1 .782.957l-1.813 9.39h6.477c4.933 0 8.28.875 10.226 2.676 1.988 1.836 2.61 4.777 1.848 8.734l-3.496 18.102a.799.799 0 0 1-.785.648zm0 0"/><path d="M76.945 11.844h-8.351c-.762 0-1.418.547-1.563 1.297l-7.515 38.906a1.63 1.63 0 0 0 .336 1.324c.3.371.753.582 1.23.582h8.352c.761 0 1.414-.543 1.562-1.293l4.05-20.992h5.368c2.484 0 3.004.531 3.027.555.149.164.348.918.02 2.609l-3.324 17.215c-.09.469.035.957.336 1.324.3.371.754.582 1.226.582h8.485c.765 0 1.418-.543 1.566-1.293l3.492-18.105c.82-4.25.117-7.438-2.086-9.477-2.101-1.945-5.62-2.887-10.765-2.887h-5.508l1.625-8.437a1.615 1.615 0 0 0-.332-1.324 1.59 1.59 0 0 0-1.23-.586m0 1.601l-1.997 10.348h7.442c4.683 0 7.914.82 9.691 2.465 1.777 1.644 2.313 4.308 1.602 7.992l-3.5 18.102h-8.485l3.324-17.211c.375-1.957.239-3.297-.418-4.008-.656-.711-2.054-1.067-4.19-1.067h-6.677l-4.304 22.286h-8.352l7.512-38.907h8.351" fill="#fff"/><path d="M107.684 45.414c3.195 0 5.586-.594 7.097-1.766 1.492-1.16 2.528-3.168 3.07-5.968.504-2.614.31-4.446-.574-5.43-.902-1.008-2.855-1.52-5.804-1.52h-5.114l-2.836 14.684zM90.957 63.496a.788.788 0 0 1-.613-.289.803.803 0 0 1-.168-.664l7.511-38.906a.802.802 0 0 1 .782-.645h16.191c5.09 0 8.88 1.39 11.258 4.133 2.394 2.758 3.133 6.613 2.2 11.457-.384 1.973-1.04 3.805-1.95 5.445-.91 1.645-2.117 3.164-3.582 4.52-1.758 1.652-3.742 2.855-5.898 3.558-2.122.696-4.848 1.047-8.102 1.047h-6.555l-1.875 9.696a.795.795 0 0 1-.781.648zm0 0"/><path d="M107.016 31.531h4.457c3.558 0 4.797.79 5.218 1.258.696.777.829 2.414.38 4.742-.505 2.602-1.438 4.45-2.778 5.485-1.367 1.058-3.59 1.597-6.61 1.597h-3.195zm7.644-9.34H98.47c-.758 0-1.418.543-1.563 1.297l-7.511 38.903a1.601 1.601 0 0 0 1.562 1.906h8.418A1.6 1.6 0 0 0 100.941 63l1.746-9.047h5.899c3.336 0 6.144-.367 8.348-1.086 2.265-.742 4.351-1.996 6.195-3.734 1.527-1.414 2.781-2.996 3.734-4.715.95-1.711 1.637-3.625 2.032-5.684.988-5.097.187-9.183-2.38-12.136-2.535-2.926-6.523-4.407-11.855-4.407m-12.1 24.024h5.125c3.39 0 5.921-.645 7.582-1.93 1.664-1.289 2.78-3.437 3.367-6.45.555-2.89.3-4.933-.762-6.12-1.07-1.192-3.2-1.785-6.398-1.785h-5.77l-3.144 16.285m12.101-22.422c4.871 0 8.426 1.285 10.656 3.86 2.239 2.574 2.91 6.163 2.02 10.777-.367 1.898-.992 3.636-1.86 5.21-.878 1.575-2.019 3.012-3.43 4.317-1.683 1.586-3.546 2.715-5.605 3.387-2.054.676-4.671 1.008-7.855 1.008h-7.211l-2 10.343h-8.418l7.512-38.902h16.191" fill="#fff"/></svg>