<svg xmlns="http://www.w3.org/2000/svg" width="274" height="256" viewBox="0 0 185 180"><rect id="backgroundrect" width="100%" height="100%" fill="none"/><style>.st0{fill:#7abf42}.st1{fill:#043855}.st2{fill:#d8dadb}</style><g class="currentLayer"><title>Layer 1</title><path class="st0" d="M84.33 135.196c-21.818 0-39.488-17.803-39.488-39.621 0-21.82 17.803-39.489 39.622-39.489 15.93 0 30.386 9.638 36.41 24.363h26.37c-.536-2.142-1.071-4.15-1.74-6.158l15.26-13.787-7.497-13.252-20.346 5.622a58.39 58.39 0 0 0-5.756-5.756l6.157-19.276-13.118-7.897L104.677 34c-2.677-.937-5.354-1.606-8.032-2.142l-4.819-19.677-15.26-.268-5.22 20.079c-2.81.535-5.622 1.339-8.433 2.276L48.59 19.409l-13.385 7.363 5.622 20.614c-1.874 1.74-3.748 3.48-5.489 5.488l-20.346-5.622-8.031 12.984 15.393 14.992c-.803 2.543-1.606 5.087-2.008 7.764L.402 88.614 0 103.874l20.48 5.488c.536 2.81 1.339 5.488 2.276 8.165l-15.662 13.52 7.229 13.386 21.15-5.756a48.06 48.06 0 0 0 5.22 5.22l-4.953 21.15 12.984 7.362 15.394-14.992c2.276.803 4.685 1.338 7.094 1.874l4.953 20.748h15.26l5.087-20.748c2.81-.536 5.488-1.339 8.165-2.142l14.055 15.126 13.52-7.496-5.622-20.079c2.141-1.874 4.15-3.748 6.023-5.89l19.677 5.89 7.764-13.118-12.315-12.047h-31.457c-7.496 9.906-19.409 15.795-31.992 15.661z" id="svg_1"/><path class="st2" d="M129.708 27.976c-14.189 0-25.7 11.512-25.567 25.835 0 14.189 11.512 25.7 25.835 25.567 14.189 0 25.567-11.512 25.567-25.701s-11.646-25.7-25.835-25.7zm41.362 34.268c-.401 1.74-.803 3.614-1.472 5.22l9.504 9.37-5.087 8.567L161.3 81.52a53.104 53.104 0 0 1-3.882 3.882l3.48 12.985-8.567 4.952-9.102-9.771c-1.74.535-3.48 1.07-5.354 1.472l-3.347 13.52h-9.905l-3.08-13.52c-1.605-.268-3.078-.67-4.684-1.205l-9.906 9.772-8.433-4.685 3.213-13.654a42.692 42.692 0 0 1-3.48-3.48l-13.654 3.748-4.417-8.433 10.173-8.834c-.67-1.74-1.07-3.48-1.472-5.355l-13.252-3.48.267-9.906 12.85-3.48c.268-1.74.804-3.346 1.34-5.086l-10.04-9.638 5.22-8.433 13.119 3.48a42.692 42.692 0 0 1 3.48-3.48l-3.48-13.386 8.7-4.685 9.37 9.638c1.74-.67 3.614-1.071 5.489-1.473L125.425 0l9.905.268 3.079 12.85c1.74.402 3.48.803 5.22 1.339l10.04-9.237 8.567 5.087-4.016 12.583a49.507 49.507 0 0 1 3.748 3.748l13.118-3.748 4.819 8.7-9.906 8.969a50.126 50.126 0 0 1 1.607 6.024l13.52 3.48v9.905l-13.52 2.945-.536-.67z" id="svg_6"/></g></svg>