<svg xmlns="http://www.w3.org/2000/svg" viewBox="0 0 332.54 129.41"><defs><style>.cls-1{fill:#010101;}.cls-2{fill:#fabd71;}.cls-3{fill:#ededed;}.cls-4{fill:#656565;}.cls-5{fill:#a0a0a0;}.cls-6{fill:#020202;}</style></defs><g id="Layer_2" data-name="Layer 2"><g id="Layer_1-2" data-name="Layer 1"><path class="cls-1" d="M165.71,0h6.38c.84.36.49,1,.34,1.56q-16,60.71-32,121.41c-.55,2.06-1.12,4.12-1.63,6l-2.17.45h-5.27a8.82,8.82,0,0,0-1.23-.3c-8.69-.78-15.49-4.49-18.93-12.83a99.91,99.91,0,0,1-4.46-13.62C101.27,81.2,96,59.7,90.58,38.23A13.16,13.16,0,0,0,89,34.43a2.77,2.77,0,0,0-5,0,16.13,16.13,0,0,0-1.75,4.32c-4.37,17.45-8.64,34.94-13,52.39-1.89,7.5-3.81,15-6.12,22.36-2.87,9.19-9.41,14.23-18.94,15.42-1.15.14-2.3.31-3.45.46h-5L34.22,129c-.11-.36-.25-.75-.36-1.14Q17.75,67.05,1.62,6.29C1.16,4.54.54,2.83,0,1.11V0H6.93a3.63,3.63,0,0,0,.83.26A23,23,0,0,1,28.5,18q8.76,33.83,17.59,67.64c.14.52.32,1,.57,1.81,4.45-18,8.85-35.77,13.18-53.52,1.51-6.2,3.32-12.26,6.63-17.78A18.22,18.22,0,0,1,74.34,8.6,26.67,26.67,0,0,1,93.05,6.78,19.31,19.31,0,0,1,105.42,16a49.44,49.44,0,0,1,5.13,12q6.72,25.38,13.33,50.77c.73,2.8,1.47,5.59,2.25,8.56.14-.3.19-.37.22-.45,6-23,12-46,18-69,2.29-8.87,7.77-14.42,16.53-16.82C162.44.69,164.09.38,165.71,0Z"/><path class="cls-1" d="M217.81,129.41l-2.48-.51.88-1.36q20.46-30.56,41-61.1a2.41,2.41,0,0,0,.06-3.21Q237.09,32.63,217.06,2c-.25-.38-.47-.78-.73-1.21L219.47,0h8.6c1,.18,2,.39,3,.54,5.68.86,10.75,2.88,14.51,7.48,1.51,1.86,3.21,3.59,4.59,5.54q10.43,14.82,20.72,29.74c2.46,3.55,4.36,3.64,6.8.1,2.95-4.29,5.83-8.63,8.82-12.91,4.61-6.61,9.17-13.27,14-19.75A24.16,24.16,0,0,1,316.92.65C318,.5,319,.22,320.07,0h6.65l1.13.23H329c.95.11,1.9.19,2.84.34.19,0,.34.35.5.54-.24.33-.51.65-.74,1Q312.79,29.91,294,57.7q-2.44,3.6-4.88,7.22l42.92,64-2.56.51h-6.37c-1.2-.18-2.4-.38-3.61-.53-6.5-.82-12.52-2.7-17.06-7.82a62.17,62.17,0,0,1-4.51-5.25q-10.5-14.93-20.84-30c-1.94-2.8-4.15-2.93-6.12-.15-1.86,2.63-3.64,5.33-5.48,8-5.19,7.5-10.32,15.06-15.63,22.48-5.06,7-11.7,11.68-20.58,12.6-1.7.17-3.4.44-5.1.66Z"/><path class="cls-2" d="M204,0a32.58,32.58,0,0,1,.22,3.68c-.24,4.85-.83,9.68-4.79,13.1a34.43,34.43,0,0,1-6.86,4.6c-3.79,1.94-7.92,3.24-11.32,6.47-.05-6.3.08-12.24,2.27-17.87,2.35-6.06,7.32-8.58,13.39-9.44C198,.38,199.19.18,200.35,0Z"/><path class="cls-3" d="M332.54,1.11h-.25c-.16-.19-.31-.51-.5-.54C330.85.42,329.9.34,329,.23a.87.87,0,0,1,0-.23h3.6Z"/><path class="cls-4" d="M327.85.23,326.72,0h1.11A1.79,1.79,0,0,0,327.85.23Z"/><path class="cls-5" d="M327.85.23a1.79,1.79,0,0,1,0-.23h1.11a.87.87,0,0,0,0,.23Z"/><path class="cls-6" d="M181,128.67V127c0-28.2.06-56.41-.06-84.61,0-5,2-8.36,6.34-10.52,1.61-.79,3.17-1.68,4.81-2.41,4.46-2,8.62-4.37,11.94-8.44.05.6.1.93.1,1.26q0,40.65,0,81.29c0,4.1-.32,8.21-.68,12.29-.55,6.09-4.26,9.69-9.79,11.63C189.56,128.94,185.34,129,181,128.67Z"/></g></g></svg>