<svg xmlns="http://www.w3.org/2000/svg" width="425" height="256" viewBox="0 0 245 146"><rect width="100%" height="100%" fill="none"/><g class="currentLayer"><title>Layer 1</title><path fill-rule="evenodd" clip-rule="evenodd" fill="#9B5C8F" d="M22.7 0h199.1c12.6 0 22.8 10.2 22.8 22.8v76c0 12.6-10.2 22.8-22.8 22.8h-71.4l9.8 24-43.1-24H22.8C10.2 121.6 0 111.4 0 98.8v-76C-.1 10.3 10.1 0 22.7 0z"/><path fill="#FFF" d="M12.2 20.7c1.4-1.9 3.5-2.9 6.3-3.1 5.1-.4 8 2 8.7 7.2 3.1 20.9 6.5 38.6 10.1 53.1l21.9-41.7c2-3.8 4.5-5.8 7.5-6 4.4-.3 7.1 2.5 8.2 8.4 2.5 13.3 5.7 24.6 9.5 34.2 2.6-25.4 7-43.7 13.2-55 1.5-2.8 3.7-4.2 6.6-4.4 2.3-.2 4.4.5 6.3 2 1.9 1.5 2.9 3.4 3.1 5.7.1 1.8-.2 3.3-1 4.8-3.9 7.2-7.1 19.3-9.7 36.1-2.5 16.3-3.4 29-2.8 38.1.2 2.5-.2 4.7-1.2 6.6-1.2 2.2-3 3.4-5.3 3.6-2.6.2-5.3-1-7.9-3.7C76.4 97.1 69 82.9 63.6 64c-6.5 12.8-11.3 22.4-14.4 28.8-5.9 11.3-10.9 17.1-15.1 17.4-2.7.2-5-2.1-7-6.9C22 90.2 16.5 64.9 10.6 27.4c-.3-2.6.2-4.9 1.6-6.7zm215 15.7c-3.6-6.3-8.9-10.1-16-11.6-1.9-.4-3.7-.6-5.4-.6-9.6 0-17.4 5-23.5 15-5.2 8.5-7.8 17.9-7.8 28.2 0 7.7 1.6 14.3 4.8 19.8 3.6 6.3 8.9 10.1 16 11.6 1.9.4 3.7.6 5.4.6 9.7 0 17.5-5 23.5-15 5.2-8.6 7.8-18 7.8-28.3 0-7.8-1.6-14.3-4.8-19.7zm-12.6 27.7c-1.4 6.6-3.9 11.5-7.6 14.8-2.9 2.6-5.6 3.7-8.1 3.2-2.4-.5-4.4-2.6-5.9-6.5-1.2-3.1-1.8-6.2-1.8-9.1 0-2.5.2-5 .7-7.3.9-4.1 2.6-8.1 5.3-11.9 3.3-4.9 6.8-6.9 10.4-6.2 2.4.5 4.4 2.6 5.9 6.5 1.2 3.1 1.8 6.2 1.8 9.1 0 2.6-.3 5.1-.7 7.4zm-50.1-27.7c-3.6-6.3-9-10.1-16-11.6-1.9-.4-3.7-.6-5.4-.6-9.6 0-17.4 5-23.5 15-5.2 8.5-7.8 17.9-7.8 28.2 0 7.7 1.6 14.3 4.8 19.8 3.6 6.3 8.9 10.1 16 11.6 1.9.4 3.7.6 5.4.6 9.7 0 17.5-5 23.5-15 5.2-8.6 7.8-18 7.8-28.3 0-7.8-1.6-14.3-4.8-19.7zm-12.6 27.7c-1.4 6.6-3.9 11.5-7.6 14.8-2.9 2.6-5.6 3.7-8.1 3.2-2.4-.5-4.4-2.6-5.9-6.5-1.2-3.1-1.8-6.2-1.8-9.1 0-2.5.2-5 .7-7.3.9-4.1 2.6-8.1 5.3-11.9 3.3-4.9 6.8-6.9 10.4-6.2 2.4.5 4.4 2.6 5.9 6.5 1.2 3.1 1.8 6.2 1.8 9.1 0 2.6-.2 5.1-.7 7.4z"/></g></svg>