<?xml version="1.0" encoding="UTF-8"?>
<svg width="25px" height="25px" viewBox="0 0 25 25" version="1.1" xmlns="http://www.w3.org/2000/svg" xmlns:xlink="http://www.w3.org/1999/xlink">
    <title>BitPay - About</title>
    <g id="Symbols" stroke="none" stroke-width="1" fill="none" fill-rule="evenodd">
        <g id="Components/Navigation/Company" transform="translate(-34.000000, -43.000000)">
            <g id="alert-circle-i" transform="translate(34.000000, 43.000000)">
                <path d="M12.5,0 C5.60727174,0 0,5.60753804 0,12.5 C0,19.392462 5.60727174,25 12.5,25 C19.3927283,25 25,19.392462 25,12.5 C25,5.60753804 19.3927283,0 12.5,0 Z" id="Path" fill="#DFE5FF"></path>
                <path d="M15,16.8571429 L13.4482759,16.8571429 L13.4482759,10.7610837 C13.4482759,10.4550339 13.2169293,10.2068966 12.9310345,10.2068966 L10.862069,10.2068966 C10.5761741,10.2068966 10.3448276,10.4550339 10.3448276,10.7610837 C10.3448276,11.0671336 10.5761741,11.3152709 10.862069,11.3152709 L12.4137931,11.3152709 L12.4137931,16.8571429 L10.862069,16.8571429 C10.5761741,16.8571429 10.3448276,17.1052802 10.3448276,17.41133 C10.3448276,17.7173799 10.5761741,17.9655172 10.862069,17.9655172 L15,17.9655172 C15.2858948,17.9655172 15.5172414,17.7173799 15.5172414,17.41133 C15.5172414,17.1052802 15.2858948,16.8571429 15,16.8571429 Z" id="Path" fill="#4F6EF7"></path>
                <circle  fill="#4F6EF7" cx="12.5" cy="7.18965517" r="1.29310345"></circle>
            </g>
        </g>
    </g>
</svg>
