<?xml version="1.0" encoding="UTF-8"?>
<svg width="1129px" height="150px" viewBox="0 0 1129 150" version="1.1" xmlns="http://www.w3.org/2000/svg" xmlns:xlink="http://www.w3.org/1999/xlink">
    <!-- Generator: Sketch 51.3 (57544) - http://www.bohemiancoding.com/sketch -->
    <title>logo</title>
    <desc>Created with Sketch.</desc>
    <defs></defs>
    <g id="Twitter" stroke="none" stroke-width="1" fill="none" fill-rule="evenodd">
        <g id="logo" fill="#000000" fill-rule="nonzero">
            <g  transform="translate(228.000000, 23.000000)">
                <path d="M105.9,113.2 C96.1,113.2 85.7,113.2 74.1,113.2 C75.7,112 76.4,111.3 77.3,110.9 C82.6,108.2 83.1,106.6 80.9,101 C78.8,95.7 76.6,90.4 74.8,84.9 C73.7,81.5 71.8,80 68.2,80 C54.3,80.1 40.4,80.1 26.5,80 C23.4,80 21.4,81.1 20.4,84.2 C18.9,88.9 16.9,93.5 15.3,98.1 C12.7,105.4 13.8,107.8 20.9,110.6 C22,111.1 23.2,111.6 24.2,112.9 C16.3,112.9 8.4,112.9 0.4,112.9 C0.4,112.6 0.3,112.1 0.3,112.1 C11.1,107.9 12.6,97.3 16.1,88.3 C26.6,61.4 36.9,34.4 47,7.4 C48.6,3.2 49.7,-0.8 55.3,0.7 C56.6,1 58.2,2.3 58.7,3.5 C67,25.1 75.1,46.7 83.3,68.3 C87.4,79 91.1,89.9 95.8,100.3 C98.1,105.1 102.4,108.8 105.9,113.2 Z M47.1,77.7 C53.2,77.7 59.3,77.7 65.3,77.7 C70.6,77.7 71.4,76.7 69.5,71.7 C63,54.2 56.5,36.7 49.8,19.3 C49.4,18.3 48.2,17.3 47.2,17.1 C46.6,17 45.3,18.2 45,19 C38.2,36.9 31.5,54.9 24.7,72.8 C23.2,76.7 24.8,77.7 28.3,77.7 C34.7,77.6 40.9,77.7 47.1,77.7 Z" id="Shape"></path>
                <path d="M344.3,2.9 C356.8,2.9 368.1,2.9 379.5,2.9 C379.4,3.6 379.4,3.9 379.3,3.9 C370.4,6.3 369.8,12.8 370,20.6 C370.4,39.8 370.1,59 370.1,78.2 C370.1,86.8 368.5,94.9 364,102.5 C357.6,113.4 339.9,117.7 329.1,115.1 C321,113.2 314.1,109.5 310,101.9 C303.8,90.1 307.7,74.9 321.4,72 C329.8,70.2 337.5,75.4 336.6,82.4 C336.1,86 334.1,87.3 331.2,85.9 C325,82.9 319.4,83.5 315.9,87.7 C312.3,92 312.3,99.7 316.3,104.7 C322.6,112.6 331,114.6 340.4,112.3 C349.6,110.1 352.2,102.3 353.9,94.3 C354.5,91.5 354.4,88.6 354.4,85.7 C354.4,62.7 354.4,39.7 354.4,16.6 C354.4,8.7 354,8.2 346.4,5 C346.1,4.5 345.7,4 344.3,2.9 Z" id="Shape"></path>
                <path d="M557.6,48.8 C563.3,48.8 568.5,48.8 574.4,48.8 C563,56.8 561.9,69.8 556.9,80.6 C552.1,91 548.2,101.8 543.7,112.4 C543.2,113.7 541.6,115.2 540.5,115.3 C539.6,115.4 538.1,113.6 537.6,112.3 C532.9,100.5 528.3,88.6 523.6,76.7 C522.9,75.1 521.5,73.7 520.5,72.3 C519.5,73.7 518.1,74.9 517.4,76.4 C512.5,88.2 507.7,100 502.7,111.7 C502.1,113.2 500.6,114.2 499.5,115.5 C498.3,114.2 496.6,113.2 496,111.7 C489.1,94.5 482.6,77.2 475.5,60.2 C473.8,56.1 470.5,52.6 468,49 C474.9,49 483,49 491.6,49 C485,54.2 485.1,54.1 488.2,62.3 C492.6,73.9 496.7,85.6 501.1,97.3 C501.5,98.4 502.9,99.2 503.8,100.2 C504.7,99.3 506,98.5 506.5,97.4 C510.5,88.2 514.3,78.9 518.2,69.6 C520.1,65.1 516.1,54.7 511.1,51.6 C510.1,51 509,50.4 508.1,49 C516.3,49 524.4,49 533.2,49 C526.5,54.1 526.6,54.1 529.5,61.9 C533.9,73.7 538.1,85.6 542.6,97.3 C543,98.5 544.4,99.2 545.4,100.2 C546.2,99.2 547.4,98.4 547.9,97.3 C552.3,86.5 556.4,75.6 560.9,64.9 C564.4,55.8 564.4,55.5 557.6,48.8 Z" id="Shape"></path>
                <path d="M688.3,113.1 C678.9,113.1 669.4,113.1 660,113.1 C660,112.5 660,112 660.1,112 C668.2,109.3 668.9,103.2 668.8,95.7 C668.4,70.9 668.6,46.2 668.7,21.4 C668.7,16.1 668.2,11.8 662,10.7 C661.5,10.6 661.1,9.9 660,9 C666.4,6.3 672.3,3.7 678.2,1.3 C678.7,1.1 680.2,2.3 680.6,3.2 C681,4.1 680.7,5.4 680.7,6.5 C680.7,37.8 680.7,69.1 680.6,100.4 C680.6,106.4 683.9,109.7 689.1,111.9 C688.8,112.4 688.6,112.8 688.3,113.1 Z" id="Shape"></path>
                <path d="M246.8,100.2 C243.1,105.8 238.2,110.4 231.9,113.2 C215.9,120.4 193.1,111.5 186.8,94.6 C181.4,79.9 184.4,59.4 198.6,50.5 C215.9,39.8 241,48.9 246.6,68.5 C247.6,71.9 246,72.9 243.3,73.3 C234.6,74.6 225.9,75.8 217.2,77 C212.3,77.7 207.4,78.4 202.5,79.1 C199.1,79.6 197.7,81.6 198.2,84.8 C199.7,94.8 205.8,107.1 218.4,110.3 C227.3,112.6 234.3,109.4 240.5,103.4 C242.1,101.8 243.8,100.2 245.4,98.6 C245.9,99.2 246.3,99.7 246.8,100.2 Z M197,67.7 C196.8,75 198.1,76.3 204.2,75.6 C211.8,74.7 219.4,73.6 227,72.6 C231,72.1 232.5,70 231.8,66 C230.7,59.6 227.5,54.6 222.4,51 C216.5,46.8 209.3,47.6 203.9,52.5 C199.2,56.9 197.6,62.7 197,67.7 Z" id="Shape"></path>
                <path d="M764.7,100 C764.3,101 764.1,102 763.6,102.9 C756.6,113 741.9,117.8 729.9,114.7 C719,111.9 710.6,106.3 706,95.9 C698.6,79.3 703.4,58.7 717.7,50.4 C733.4,41.2 755.3,47.4 763.4,63.7 C767.1,71 765.8,73.2 757.6,74.3 C745.9,75.8 734.2,77.5 722.5,79.2 C716.7,80 715.4,81.8 717.3,87.2 C718.9,91.8 720.5,96.7 723.2,100.7 C732.5,114.2 749.2,115 760,102.8 C761.1,101.5 761.6,99.7 762.4,98.2 C763.2,98.7 763.9,99.3 764.7,100 Z M715.8,68.5 C715.6,75.4 716.5,76.3 723.4,75.5 C730.8,74.6 738.2,73.6 745.7,72.6 C749.5,72.1 751.4,70.1 750.6,66.1 C749.2,59.4 746,53.9 740,50.4 C734,46.9 727.5,47.8 722.4,52.6 C717.9,57 716,62.4 715.8,68.5 Z" id="Shape"></path>
                <path d="M457.5,99.8 C453.8,105.6 449,110.2 442.7,113 C423,121.9 395,107.9 394.9,82.1 C394.8,69.2 397.6,58 409.3,50.7 C426.1,40.2 449.9,48.3 456.7,66.9 C458.1,70.6 457.7,73 453.1,73.6 C440.1,75.3 427.2,77.4 414.2,79 C409.6,79.6 408,81.7 409,86.1 C411.7,97.5 416.7,107.1 429.2,110.4 C437.3,112.6 443.9,109.9 449.8,104.6 C452,102.6 454,100.5 456.1,98.5 C456.7,98.9 457.1,99.4 457.5,99.8 Z M413.1,75.9 C421.5,74.8 429.9,73.8 438.2,72.5 C442,71.9 443.6,69.8 442.6,65.7 C441.2,60.1 438.6,55.3 434.1,51.7 C428,46.8 420.1,47.2 414.5,52.6 C409.3,57.6 407.7,64 407.7,70.9 C407.6,74.2 409.3,76.5 413.1,75.9 Z" id="Shape"></path>
                <path d="M644.5,100.3 C641.1,106.2 635.8,110.3 629.6,113.2 C614.2,120.2 591.9,112.2 585,95.2 C578.5,79.2 582.4,59.2 596.9,50.4 C613.9,40.1 639.2,49.2 644.2,67.5 C645.2,71.2 644.3,73 640.6,73.5 C629.7,75 618.8,76.5 607.9,78 C605.2,78.4 602.3,78.4 599.9,79.5 C598.2,80.3 596,83 596.2,84.4 C598.1,94.7 603.5,107 616.6,110.3 C625.7,112.6 632.9,109.4 639,103 C640.4,101.6 641.1,99.5 642.1,97.7 C642.8,98.6 643.6,99.5 644.5,100.3 Z M602.7,75.6 C609.6,74.7 617.2,73.8 624.7,72.7 C629.5,72 631.3,70.1 629.7,65.6 C628,60.8 625.3,56.1 621.8,52.4 C617.2,47.4 610.5,47 604.7,50.6 C597.8,54.8 595.3,61.5 595.1,69.2 C594.9,75.2 596,76.2 602.7,75.6 Z" id="Shape"></path>
                <path d="M893.4,62.6 C891.2,60.7 889,58.7 886.7,56.8 C881.2,52.3 875.1,48.7 867.8,48.5 C863.3,48.3 859.4,49.5 857.7,54.1 C856,58.8 858.7,62 862.3,64 C869.8,68.2 877.7,71.7 885.2,75.9 C891.8,79.5 898.2,83.4 900,91.8 C903,106.1 894,114.3 881.8,115.5 C877.8,115.9 873.6,114.9 869.5,114.3 C867.1,114 864.6,112.3 862.5,112.9 C857,114.4 855.1,111.2 853,107.4 C850.8,103.3 848.2,99.5 845.9,95.5 C845.3,94.5 845.1,93.3 844.6,92.2 C845,91.9 845.4,91.5 845.9,91.2 C847.4,92.8 849,94.3 850.4,95.9 C854.3,100.1 857.9,104.6 862.2,108.4 C866.9,112.5 872.8,113.4 878.9,112.7 C884.6,112.1 888.4,108.9 890.1,103.6 C891.8,98.4 889.9,92.3 885,89.2 C878,84.8 870.5,81.2 863.2,77.3 C860.4,75.8 857.5,74.4 854.9,72.5 C849.6,68.8 847,63.8 848.8,57.2 C850.6,50.5 855.9,47.8 861.9,46.9 C866.4,46.3 871.1,47 875.7,47.3 C877.8,47.4 880.1,48.5 881.8,47.9 C886.5,46.2 888.1,48.8 889.7,52.3 C891.2,55.5 893,58.6 894.6,61.7 C894.4,61.9 893.9,62.2 893.4,62.6 Z" id="Shape"></path>
                <path d="M809.7,113 C800.6,113 791.5,113 782.5,113 C782.5,112.4 782.4,111.8 782.5,111.8 C790.2,108.7 790.9,102.4 790.6,95.2 C790.2,86.1 790.4,77 790.6,67.9 C790.7,62.4 790.2,57.5 783.4,56.4 C783.1,56.4 782.8,56.1 782.7,55.8 C782.5,55.6 782.5,55.2 782.2,54.4 C788.6,51.7 795.1,49 803,45.6 C803,52.5 803,58.3 803,64.1 C803.6,64.2 804.1,64.3 804.7,64.4 C806.1,62.6 807.4,60.7 808.8,58.9 C814.1,52.1 819.8,45.8 829.5,46.2 C836,46.5 838.2,49.4 836.3,55.6 C835.3,58.7 834.2,61.7 832.8,65.9 C831.7,64.1 831,63.3 830.7,62.4 C828.3,53.6 821.6,51.2 814.4,57 C807.2,62.8 803.2,70.6 802.6,79.7 C802.1,87 802.1,94.4 802.7,101.7 C802.9,104.4 805.4,107 807.1,109.5 C807.8,110.5 809.1,111.1 810.2,111.9 C810,112.4 809.8,112.7 809.7,113 Z" id="Shape"></path>
                <path d="M161.2,66.6 C161.1,65.9 160.8,65.2 160.9,64.5 C161.6,57.8 159.5,52.2 153.2,49.5 C146.8,46.7 140.2,48 135.5,53 C132.2,56.4 129.4,61 128.1,65.5 C124.7,77.4 125.5,89.4 132.1,100.2 C140.2,113.5 158.3,114.9 167.3,101.9 C168.1,100.8 169,99.9 170.7,98 C171.4,103.3 169,106.1 166.3,108.3 C160,113.7 152.4,116.4 144.1,115.6 C132.1,114.5 121.9,110 116.5,98.1 C110.9,85.8 114.2,66.8 123.8,56.9 C134.2,46.2 149.5,43.3 163.5,49.5 C168.5,51.7 169.1,53.6 166.5,58.4 C165,61.2 163.5,64.1 162.1,67 C161.8,66.7 161.5,66.7 161.2,66.6 Z" id="Shape"></path>
            </g>
            <g >
                <path d="M89,98.5 C49.9,98.5 18.1,76.8 18.1,50.1 C18.1,23.4 49.9,1.7 89,1.7 C128.1,1.7 159.9,23.4 159.9,50.1 C159.9,76.8 128.1,98.5 89,98.5 Z M89,3.2 C50.7,3.2 19.6,24.2 19.6,50.1 C19.6,76 50.7,97 89,97 C127.3,97 158.4,76 158.4,50.1 C158.4,24.2 127.3,3.2 89,3.2 Z" id="Shape"></path>
                <path d="M89,118.2 C40.4,118.2 0.9,91.7 0.9,59.1 C0.9,26.5 40.4,0 89,0 C137.6,0 177.1,26.5 177.1,59.1 C177.1,91.7 137.6,118.2 89,118.2 Z M89,1.5 C41.3,1.5 2.4,27.3 2.4,59.1 C2.4,90.9 41.2,116.7 89,116.7 C136.8,116.7 175.6,90.9 175.6,59.1 C175.6,27.3 136.8,1.5 89,1.5 Z" id="Shape"></path>
                <polygon id="Shape" points="89 149.4 20.9 96.6 21.9 95.4 89 147.5 156.2 95.4 157.1 96.6"></polygon>
                <polygon id="Shape" points="38.8 17.3 37.3 17.3 37.3 11.7 38.1 11 46.9 11 48.8 6.8 50.1 7.4 48.1 12 47.4 12.5 38.8 12.5"></polygon>
                <polygon id="Shape" points="89.6 148.9 88.5 148.9 58.2 114.3 59.3 113.3 89 147.3 118.1 114.1 89 98.6 55.2 113.5 54.2 113.1 42.6 86.9 13.7 89.3 12.9 88.4 19.3 59.5 2.2 52.1 2 50.8 21.2 35.6 18.1 24.6 19.6 24.2 22.8 35.7 22.5 36.5 3.9 51.2 20.4 58.4 20.8 59.3 14.6 87.7 43 85.4 43.7 85.8 55.2 111.8 88.7 97.1 89.4 97.1 119.6 113.2 119.8 114.3"></polygon>
                <polygon id="Shape" points="121.9 113.7 120.6 113 135.9 84.8 136.7 84.4 164 87.1 157.2 59.3 157.7 58.4 174.8 53.1 156.2 37.9 156 37.1 159.9 26.6 148 25.1 147.6 23.8 152.7 19 153.7 20.1 149.8 23.8 161 25.2 161.6 26.2 157.5 37.1 176.8 52.9 176.6 54.2 158.8 59.6 165.7 87.7 164.9 88.7 137 85.9"></polygon>
                <polygon id="Shape" points="140.8 18.5 140.3 12.9 130.3 12.3 130.4 10.8 141 11.5 141.7 12.1 142.3 18.4"></polygon>
                <rect id="Rectangle-path" transform="translate(26.592000, 22.356879) rotate(1.689047) translate(-26.592000, -22.356879) " x="21.3918206" y="21.6068531" width="10.4003588" height="1.50005175"></rect>
                <path d="M89,98.5 C88.6,98.5 88.2,98.2 88.2,97.7 L88.2,88.4 C88.2,88 88.5,87.6 89,87.6 C89.5,87.6 89.8,87.9 89.8,88.4 L89.8,97.7 C89.8,98.2 89.4,98.5 89,98.5 Z" id="Shape"></path>
                <path d="M136.6,85.9 C136.4,85.9 136.2,85.8 136.1,85.7 L129.9,79.3 C129.6,79 129.6,78.5 129.9,78.2 C130.2,77.9 130.7,77.9 131,78.2 L137.2,84.6 C137.5,84.9 137.5,85.4 137.2,85.7 C137,85.8 136.8,85.9 136.6,85.9 Z" id="Shape"></path>
                <path d="M157.9,59.8 C157.8,59.8 157.7,59.8 157.6,59.7 L148.5,56 C148.1,55.8 147.9,55.4 148.1,55 C148.3,54.6 148.7,54.4 149.1,54.6 L158.2,58.3 C158.6,58.5 158.8,58.9 158.6,59.3 C158.5,59.7 158.2,59.8 157.9,59.8 Z" id="Shape"></path>
                <path d="M155.5,35.6 L150.7,35.6 C150.3,35.6 149.9,35.3 149.9,34.8 C149.9,34.3 150.2,34 150.7,34 L155.5,34 C155.9,34 156.3,34.3 156.3,34.8 C156.3,35.3 156,35.6 155.5,35.6 Z" id="Shape"></path>
                <path d="M43,86.8 C42.9,86.8 42.8,86.8 42.7,86.7 C42.3,86.5 42.2,86.1 42.3,85.7 L45.7,78.4 C45.9,78 46.3,77.9 46.7,78 C47.1,78.2 47.2,78.6 47.1,79 L43.7,86.3 C43.6,86.7 43.3,86.8 43,86.8 Z" id="Shape"></path>
                <path d="M20.1,59.8 C19.8,59.8 19.5,59.6 19.4,59.3 C19.3,58.9 19.5,58.5 19.9,58.4 L26.4,56.6 C26.8,56.5 27.2,56.7 27.3,57.1 C27.4,57.5 27.2,57.9 26.8,58 L20.3,59.8 C20.3,59.8 20.2,59.8 20.1,59.8 Z" id="Shape"></path>
                <path d="M26.6,35.6 L23.4,35.6 C23,35.6 22.6,35.3 22.6,34.8 C22.6,34.3 22.9,34 23.4,34 L26.6,34 C27,34 27.4,34.3 27.4,34.8 C27.4,35.3 27,35.6 26.6,35.6 Z" id="Shape"></path>
            </g>
            <g  transform="translate(31.000000, 10.000000)">
                <path d="M55.7,71.8 L49.1,56.7 C48.9,56.3 49.1,55.9 49.5,55.7 C49.9,55.5 50.3,55.7 50.5,56.1 L55.9,68.3 L62.2,56 C62.4,55.6 62.8,55.5 63.2,55.7 C63.6,55.9 63.7,56.3 63.5,56.7 L55.7,71.8 Z" id="Shape"></path>
                <path d="M70.4,70.8 C70,70.8 69.6,70.5 69.6,70 L69.6,56.3 C69.6,55.9 69.9,55.5 70.4,55.5 C70.9,55.5 71.2,55.8 71.2,56.3 L71.2,70 C71.2,70.5 70.9,70.8 70.4,70.8 Z" id="Shape"></path>
                <path d="M58,11.3 C57.8,11.3 57.6,11.2 57.4,11 L50.4,2 C50.1,1.7 50.2,1.2 50.5,0.9 C50.8,0.6 51.3,0.7 51.6,1 L58.6,10 C58.9,10.3 58.8,10.8 58.5,11.1 C58.4,11.3 58.2,11.3 58,11.3 Z" id="Shape"></path>
                <path d="M51,11.3 C50.8,11.3 50.7,11.2 50.5,11.1 C50.2,10.8 50.1,10.4 50.4,10 L57.4,1 C57.7,0.7 58.1,0.6 58.5,0.9 C58.8,1.2 58.9,1.6 58.6,2 L51.6,11 C51.5,11.3 51.3,11.3 51,11.3 Z" id="Shape"></path>
                <path d="M61.8,11.3 C61.4,11.3 61,11 61,10.5 L61,1.5 C61,1.1 61.3,0.7 61.8,0.7 C62.3,0.7 62.6,1 62.6,1.5 L62.6,10.5 C62.5,11 62.2,11.3 61.8,11.3 Z" id="Shape"></path>
                <path d="M66.5,11.3 C66.1,11.3 65.7,11 65.7,10.5 L65.7,1.5 C65.7,1.1 66,0.7 66.5,0.7 C67,0.7 67.3,1 67.3,1.5 L67.3,10.5 C67.3,11 66.9,11.3 66.5,11.3 Z" id="Shape"></path>
                <path d="M0.8,31.1 C0.8,31.1 0.8,31.1 0.8,31.1 C0.3,31 0,30.7 0.1,30.3 L1.3,20.8 C1.4,20.4 1.7,20.1 2.1,20.2 C2.5,20.3 2.8,20.6 2.7,21 L1.5,30.5 C1.5,30.8 1.2,31.1 0.8,31.1 Z" id="Shape"></path>
                <path d="M12,31.1 C11.7,31.1 11.5,31 11.3,30.7 L6.3,21.2 C6.1,20.8 6.3,20.4 6.6,20.2 C7,20 7.4,20.2 7.6,20.5 L12.6,30 C12.8,30.4 12.6,30.8 12.3,31 C12.3,31.1 12.2,31.1 12,31.1 Z" id="Shape"></path>
                <path d="M5.3,31.1 C5.1,31.1 4.9,31 4.8,30.9 C4.5,30.6 4.5,30.2 4.7,29.8 L13.2,20.3 C13.5,20 13.9,20 14.3,20.2 C14.6,20.5 14.6,20.9 14.4,21.3 L5.9,30.8 C5.7,31 5.5,31.1 5.3,31.1 Z" id="Shape"></path>
                <path d="M104.9,31.1 C104.6,31.1 104.3,30.9 104.2,30.5 L101.7,21 C101.6,20.6 101.8,20.2 102.2,20.1 C102.6,20 103,20.2 103.1,20.6 L105.6,30.1 C105.7,30.5 105.5,30.9 105.1,31 C105.1,31.1 105,31.1 104.9,31.1 Z" id="Shape"></path>
                <path d="M110.5,31.1 C110.2,31.1 109.9,30.9 109.8,30.5 L107.3,21 C107.2,20.6 107.4,20.2 107.8,20.1 C108.2,20 108.6,20.2 108.7,20.6 L111.2,30.1 C111.3,30.5 111.1,30.9 110.7,31 C110.6,31.1 110.6,31.1 110.5,31.1 Z" id="Shape"></path>
                <path d="M115.8,31.1 C115.5,31.1 115.2,30.9 115.1,30.5 L112.6,21 C112.5,20.6 112.7,20.2 113.1,20.1 C113.5,20 113.9,20.2 114,20.6 L116.5,30.1 C116.6,30.5 116.4,30.9 116,31 C116,31.1 115.9,31.1 115.8,31.1 Z" id="Shape"></path>
            </g>
        </g>
    </g>
</svg>
