<svg id="Layer_1" data-name="Layer 1" xmlns="http://www.w3.org/2000/svg" viewBox="0 0 240.01 29.01"><defs><style>.cls-1{fill:#4dbcf6;}</style></defs><path class="cls-1" d="M169.72,9.1a5.91,5.91,0,0,0-3.64,1.12,6.77,6.77,0,0,0-1.9,1.87,5.28,5.28,0,0,0-4.85-3,6,6,0,0,0-5.1,2.51L154.1,9.5h-4.45v.37c.09,1.41.14,3.05.14,5.34v13h4.93v-11a3.81,3.81,0,0,1,.23-1.38,3.1,3.1,0,0,1,2.77-2.35c2.35,0,2.6,2.77,2.6,4V28.22h4.93V17.07a6.65,6.65,0,0,1,.19-1.41,3,3,0,0,1,2.7-2.17c2.24,0,2.71,2.4,2.71,4.43v10.3h5v-11C175.81,9.67,171.17,9.1,169.72,9.1Z" transform="translate(0 0)"/><path class="cls-1" d="M186.79,9.34c-6.08,0-8.85,5.22-8.85,10.06,0,5.86,3.56,9.5,9.31,9.5a16.1,16.1,0,0,0,6.21-1.18l.27-.11L193,23.78l-.4.15a12.09,12.09,0,0,1-4.69.79c-2.91,0-4.75-1.48-5-4h11.56l.05-.28a11,11,0,0,0,.15-2C194.65,14.25,192.59,9.34,186.79,9.34Zm-.25,3.81a2.93,2.93,0,0,1,2.16.82,4.44,4.44,0,0,1,1.09,2.9H182.9c.25-1.54,1.24-3.72,3.64-3.72Z" transform="translate(0 0)"/><path class="cls-1" d="M213.61,23V1.11h-5.76v9.67a4.92,4.92,0,0,0-4.12-1.73,7.69,7.69,0,0,0-2.92.59,7.51,7.51,0,0,0-2.47,1.64,10.77,10.77,0,0,0-2.88,7.88c0,5.6,3.33,9.67,7.91,9.67a5.77,5.77,0,0,0,5.41-3.3h0l-.37,3h5.34v-.36C213.69,27,213.61,24.9,213.61,23ZM208,17.91v2.74a5.1,5.1,0,0,1-.14,1.29,2.78,2.78,0,0,1-3.05,2.54c-2.51,0-4.08-2.09-4.08-5.44s1.62-5.7,4.13-5.7c1.89,0,2.7,1.88,3,3.43a7.55,7.55,0,0,1,.09,1.16Z" transform="translate(0 0)"/><path class="cls-1" d="M219.55,1.62a3.15,3.15,0,0,0-1.25.19,3,3,0,0,0-2,2.93,3.11,3.11,0,0,0,.25,1.2,3.06,3.06,0,0,0,.7,1,3.25,3.25,0,0,0,1,.65,3.19,3.19,0,0,0,1.22.2,3.1,3.1,0,0,0,3.3-3.09,3,3,0,0,0-.25-1.21,3,3,0,0,0-.71-1,3.18,3.18,0,0,0-2.3-.86Z" transform="translate(0 0)"/><path class="cls-1" d="M222.26,9.51h-5.42v19h5.42Z" transform="translate(0 0)"/><path class="cls-1" d="M239.93,28.1a29.65,29.65,0,0,1-.25-4.32V17.21c0-5.15-2.74-8-7.73-8a13.19,13.19,0,0,0-6.65,1.66l-.21.13,1.08,3.66.38-.25a9,9,0,0,1,4.64-1.29c2.72,0,3.3,1.53,3.31,2.81-6.86.05-10.63,2.6-10.63,7.21a5.67,5.67,0,0,0,6,5.74A7,7,0,0,0,235,26.81l.24,1.67H240Zm-8.68-3.16A2.06,2.06,0,0,1,229,22.66c0-2.55,3-3.06,5.48-3.06h.09v2.18a3.08,3.08,0,0,1-.13.91,3.29,3.29,0,0,1-1.23,1.64A3.4,3.4,0,0,1,231.25,24.94Z" transform="translate(0 0)"/><path class="cls-1" d="M15.12,1.91H11L0,28.08H6l2.47-5.72h9.37l2.36,5.72h6ZM16.2,17.52h-6l2.84-6.91Z" transform="translate(0 0)"/><path class="cls-1" d="M43.21,10.56a8,8,0,0,0-2.72-2,8.16,8.16,0,0,0-3.31-.67,10.14,10.14,0,0,0-3.94.92A9.82,9.82,0,0,0,30,11.23a10.69,10.69,0,0,0-2.65,7.12,10.82,10.82,0,0,0,2.65,7,9.29,9.29,0,0,0,7,3.27,7.89,7.89,0,0,0,6.56-3.27V28H48V1.46H43.21ZM37.72,23.87a5.61,5.61,0,0,1-.08-11.21,5.73,5.73,0,0,1,4,1.62,5.55,5.55,0,0,1,0,7.92,5.71,5.71,0,0,1-4,1.66Z" transform="translate(0 0)"/><path class="cls-1" d="M104.92,11.74c-1.55-3-4.91-4.39-8.21-4.39-2.91,0-5.86,1-9,4.39A10.34,10.34,0,0,0,85.48,18a11,11,0,0,0,2.06,6.59A12.32,12.32,0,0,0,96.78,29a9.09,9.09,0,0,0,8.13-4.39V28.5h2.72V7.81h-2.71ZM96.79,26.32a8.34,8.34,0,0,1-8.48-8.06A8.34,8.34,0,0,1,89,15.1a8.13,8.13,0,0,1,1.82-2.67,8.49,8.49,0,0,1,2.72-1.78A8.58,8.58,0,0,1,96.7,10a8.47,8.47,0,0,1,3.19.62,8.27,8.27,0,0,1,2.68,1.8,8,8,0,0,1,2.35,5.83,8.09,8.09,0,0,1-2.43,5.63A8.32,8.32,0,0,1,96.79,26.32Z" transform="translate(0 0)"/><path class="cls-1" d="M70.93,15.55v2.54h9.36v1A12.37,12.37,0,0,1,69,26.31c-6.87,0-12.69-5.09-12.69-11.91a11.88,11.88,0,0,1,4-8.53,12.91,12.91,0,0,1,8.59-3.15c4,0,8,1.53,10.11,4.74l2.36-1.71a15.87,15.87,0,0,0-4-3.71,15.35,15.35,0,0,0-8.45-2,15.55,15.55,0,0,0-11,4.29,14.28,14.28,0,0,0-4.45,10.05C53.42,22.53,60.56,29,68.89,29A15.45,15.45,0,0,0,83,20V15.55Z" transform="translate(0 0)"/><path class="cls-1" d="M117.36.42h-2.85V7.71h-3.94v2.54h3.94V28.47h2.85V10.25h4.38V7.71h-4.38Z" transform="translate(0 0)"/><path class="cls-1" d="M134.14,7.29a11.09,11.09,0,0,0-7.77,3.2,10.76,10.76,0,0,0,0,15.36A11.07,11.07,0,0,0,134.21,29a11.33,11.33,0,0,0,5.56-1.61,11.16,11.16,0,0,0,4-4.14l-2.28-1.53a8.27,8.27,0,0,1-7.54,4.58,8.36,8.36,0,0,1-7-4.07,7,7,0,0,1-1-3.89h19v-.21a11.11,11.11,0,0,0-2.4-6.83,10.88,10.88,0,0,0-8.45-4Zm-7.78,8.45c.63-3,4.34-5.75,7.82-5.75s6.94,2.65,7.63,5.69Z" transform="translate(0 0)"/></svg>