<svg xmlns="http://www.w3.org/2000/svg" xmlns:xlink="http://www.w3.org/1999/xlink" width="263.185" height="193.252" viewBox="0 0 263.185 193.252"><defs><style>.a{fill:#0492d2;}.b{fill:#fff;}.c{clip-path:url(#a);}.d{fill:#c6c5c5;}.e{fill:#231f20;}.f{fill:#a9a7a8;}.g{fill:#9d9c9c;}.h{fill:#7d7a7b;}.i{clip-path:url(#b);}.j{fill:url(#c);}.k,.l{fill:none;}.k{stroke:#fff;stroke-width:4.107px;}.l{stroke:#c4122e;stroke-width:3.121px;}</style><clipPath id="a"><path d="M165.9-414.421c.139.075.29.145.429.22h0c2.4-4.965,8.985-10,23.812-10h0c.36,0,.719,0,1.091.006h0c2.442.046,4.942.058,7.477.058h0c13.411,0,27.837-.487,40.7-.974h0c12.448-.47,23.423-.946,30.587-.969h0c.238-.226.481-.447.737-.655h0c-15.731-1.357-51.028-2.117-79.01-5.018h0a58.545,58.545,0,0,0-6.05-.325h0c-23.046,0-22.86,16.062-19.769,17.657"/></clipPath><clipPath id="b"><path d="M322.355-417.664l5.786,27.223-23.472,4.989-5.786-27.223Z"/></clipPath><linearGradient id="c" x1="-17.11" y1="21.18" x2="-16.785" y2="21.18" gradientUnits="objectBoundingBox"><stop offset="0" stop-color="#231f20"/><stop offset="0.338" stop-color="#0c0a09"/><stop offset="1" stop-color="#c4122e"/></linearGradient></defs><g transform="translate(-6289.494 -9906.748)"><g transform="translate(6125.064 10357.277)"><g transform="translate(391.998 -272.078)"><path class="a" d="M0,0Q-2.393-.792-4.757-1.526-2.39-.795,0,0"/></g><g transform="translate(427.405 -257.277)"><path class="a" d="M0,0C.128-2.187.209-4.385.209-6.607A111.87,111.87,0,0,0-111.656-118.484,111.879,111.879,0,0,0-223.545-6.607c0,1.34.058,2.668.1,4,6.34-1.45,12.007-2.918,17.176-4.356a94.547,94.547,0,0,1,94.51-94.376A94.594,94.594,0,0,1-17.123-7.929"/></g><g transform="translate(305.285 -344.651)"><path class="a" d="M0,0C-3.637,4.02-7.187,10.238-10.18,18.1c-4.571,11.978-7.883,27.733-9.2,45.4,1.212-.18,2.442-.36,3.678-.528.255-.035.522-.064.783-.1,1.23-.168,2.477-.319,3.73-.47.371-.041.748-.087,1.12-.128,1.5-.168,3-.325,4.519-.464l.371-.035q2.08-.183,4.194-.336c.447-.029.893-.058,1.34-.093q1.975-.131,3.973-.226c.255-.012.51-.029.771-.041,1.05-.046,2.117-.075,3.185-.11V-5.5C5.667-4.913,2.9-3.2,0,0"/></g><g transform="translate(326.094 -344.645)"><path class="a" d="M0,0C-2.941-3.231-5.748-4.948-8.417-5.522V60.883c.76-.012,1.514-.023,2.28-.023.5,0,1.009-.006,1.514-.006q2.245.009,4.519.07c.6.012,1.207.035,1.81.058,1.085.035,2.175.075,3.272.128.615.029,1.224.058,1.839.093,1.543.087,3.1.186,4.664.307.545.041,1.1.093,1.647.139,1.195.1,2.4.215,3.608.336.592.058,1.178.116,1.775.18l.812.087a185.731,185.731,0,0,0-5.029-31.2C10.691,17.007,5.5,6.033,0,0"/></g><g transform="translate(391.998 -272.078)"><path class="a" d="M0,0,.267.087Z"/></g><g transform="translate(383.024 -293.236)"><path class="a" d="M0,0A122.43,122.43,0,0,1,3.045,19.27c.383.116.771.238,1.154.36l.017.006C5.754,20.111,4.327,11.694,0,0"/></g><g transform="translate(401.979 -268.545)"><path class="a" d="M0,0A86,86,0,0,0-25.192-56.562,86.771,86.771,0,0,0-42.71-70.077,81.15,81.15,0,0,1-35.848-61.9,103.946,103.946,0,0,1-18.956-24.693c4.327,11.7,5.76,20.111,4.217,19.635,1.578.487,3.167,1,4.757,1.526l.267.087C-6.5-2.378-3.266-1.241,0,0"/></g><g transform="translate(265.301 -330.446)"><path class="a" d="M0,0A82.6,82.6,0,0,1,6.885-8.22,86.808,86.808,0,0,0-10.667,5.337a86.077,86.077,0,0,0-25.221,58.47c5.777-1.74,10.946-3.4,15.83-4.919C-18.719,36.074-11.387,15.493,0,0"/></g><g transform="translate(277.585 -279.729)"><path class="a" d="M0,0A197.1,197.1,0,0,1,5.5-35.918c3.208-12.367,7.46-22.733,12.779-30.3-9,4.182-17.164,11.172-23.951,20.372C-15.523-32.472-22.245-14.473-23.939,5.667q2.715-.774,5.54-1.514l.3-.075c1.717-.452,3.469-.887,5.255-1.317.226-.058.452-.11.684-.168Q-6.534,1.253-.516.1L0,0C-.18.035-.087.017,0,0"/></g><g transform="translate(335.535 -345.935)"><path class="a" d="M0,0A75.712,75.712,0,0,1,8.44,16.456c4.983,13.063,8.428,29.67,9.768,48.174.481.075.975.162,1.456.244.592.093,1.183.191,1.775.29,1.381.232,2.767.47,4.159.731.708.128,1.421.273,2.135.412,1.241.244,2.488.493,3.736.76.9.191,1.8.394,2.709.6q1.627.365,3.26.76,1.523.365,3.057.76c.528.133,1.044.255,1.572.394-2-19.206-8.585-36.353-18.081-49.218C17.193,11.166,9.02,4.182,0,0"/></g><g transform="translate(245.244 -271.558)"><path class="b" d="M0,0Q2.593-.809,5.1-1.555,2.59-.806,0,0Z"/></g><g transform="translate(250.348 -273.111)"><path class="b" d="M0,0C1.079-.319,2.187-.638,3.3-.951h0Q1.63-.481,0,0"/></g><g transform="translate(381.066 -275.415)"><path class="b" d="M0,0C-.313-.087-.626-.168-.94-.255c.313.087.626.168.94.255M-65.414-83.2a94.552,94.552,0,0,0-94.516,94.376l6.711-1.937c.528-.157,1.044-.313,1.566-.464a86.071,86.071,0,0,1,25.215-58.47A86.969,86.969,0,0,1-108.884-63.25a82.546,82.546,0,0,0-6.88,8.22c-11.387,15.493-18.719,36.074-20.059,58.888q2.593-.809,5.1-1.555c1.079-.319,2.187-.638,3.3-.951,1.694-20.14,8.411-38.133,18.266-51.515,6.787-9.2,14.948-16.19,23.951-20.372-5.325,7.576-9.577,17.941-12.785,30.3a197.6,197.6,0,0,0-5.5,35.918c.093-.012.18-.029,0,.006,0,0,8.167-1.392,8.324-1.421,1.317-17.669,4.623-33.423,9.2-45.4,2.993-7.866,6.543-14.084,10.18-18.1,2.9-3.2,5.661-4.913,8.283-5.5v-3.55h4.107v3.533c2.668.574,5.476,2.291,8.417,5.522,5.5,6.033,10.691,17.013,14.293,31.051a185.829,185.829,0,0,1,5.029,31.2q4.124.461,8.33,1.091C-28.661-24.4-32.107-41-37.089-54.062a75.834,75.834,0,0,0-8.44-16.456c9.014,4.182,17.187,11.166,23.98,20.36C-12.054-37.292-5.464-20.151-3.463-.94c.1.029,8.3,2.314,8.469,2.384A122.464,122.464,0,0,0,1.955-17.82C-7.332-42.936-30-83.2-65.414-83.2"/></g><g transform="translate(277.585 -279.729)"><path class="b" d="M0,0H0C.18-.029.087-.017,0,0"/></g><g transform="translate(315.652 -358.617)"><path class="b" d="M0,0C35.413,0,58.082,40.268,67.369,65.379A103.847,103.847,0,0,0,50.477,28.168a81.876,81.876,0,0,0-6.856-8.173A86.9,86.9,0,0,1,61.133,33.51,86,86,0,0,1,86.325,90.072c2.749,1.044,5.516,2.169,8.3,3.335A94.589,94.589,0,0,0,0,0"/></g><g transform="translate(277.585 -279.728)"><path class="b" d="M0,0H0"/></g><g transform="translate(315.652 -350.403)"><path class="b" d="M0,0H-.041A9.266,9.266,0,0,0-2.082.249V66.731c.447-.012.887-.035,1.34-.046l1.636-.035c.371-.006.754-.006,1.131-.012V.238A9.441,9.441,0,0,0,0,0"/></g><g transform="translate(315.652 -350.403)"><path class="b" d="M0,0A9.442,9.442,0,0,1,2.024.238V-3.295H-2.082V.249A9.266,9.266,0,0,1-.041,0Z"/></g></g><g transform="translate(6125.064 10357.277)"><g class="c"><path class="d" d="M164.425-432.084h106.3V-414.2h-106.3Z"/></g></g><g transform="translate(6125.064 10357.277)"><g transform="translate(283.398 -423.858)"><path class="e" d="M0,0C2.8,5.627-14.583,19.995-38.853,32.072s-46.2,17.28-49,11.642c-2.819-5.632,14.594-19.983,38.847-32.06C-24.74-.412-2.8-5.644,0,0"/></g><g transform="translate(306.284 -404.644)"><path class="e" d="M0,0C-3.48,7.175-14.89,8.852-25.482,3.736S-41.869-11.358-38.389-18.55c3.463-7.187,14.879-8.863,25.471-3.747S3.469-7.187,0,0"/></g><g transform="translate(200.964 -396.975)"><path class="f" d="M0,0C-9.043,0-19.931-1.955-33.951-7.692c-.963-.394-1.781-2.088-1.845-4.327v-.574a11.429,11.429,0,0,1,1.16-4.629C-18.806-9.13-6.845-6.648,3.092-6.584H3.9a82.917,82.917,0,0,0,17.82-2.343C16.932-6.143,12.6-3.341,8.858-.638A61.445,61.445,0,0,1,0,0"/></g><g transform="translate(204.864 -403.557)"><path class="g" d="M0,0H-.812C-10.743-.064-22.7-2.546-38.539-10.644c2.407-4.965,8.985-10,23.812-10,.36,0,.725.006,1.091.012q3.672.052,7.477.052c13.411,0,27.843-.493,40.7-.975,12.442-.47,23.417-.946,30.587-.969a9.789,9.789,0,0,0-.847.922c-9.113,1.874-21.59,6.41-34.757,12.953C25.4-6.6,21.48-4.478,17.82-2.349A82.9,82.9,0,0,1,0,0"/></g><g transform="translate(209.822 -397.613)"><path class="h" d="M0,0C3.736-2.7,8.074-5.5,12.86-8.289c3.66-2.135,7.581-4.252,11.706-6.305C37.733-21.138,50.21-25.668,59.323-27.547a10.191,10.191,0,0,0-1.253,1.966,11.065,11.065,0,0,0-.58,7.732C47.507-13.539,33.2-9.084,22.211-5.917,15.348-3.944,8.475-1.218,0,0"/></g><g transform="translate(267.312 -415.46)"><path class="h" d="M0,0A11.1,11.1,0,0,1,.58-7.732,9.849,9.849,0,0,1,1.833-9.7a9.788,9.788,0,0,1,.847-.922c.2,0,.406-.006.6-.006,4.571,0,7.46.2,8,.731a2.005,2.005,0,0,1,.69,1.386v.116C11.909-6,7.025-3.034,0,0"/></g></g><g transform="translate(6125.064 10357.277)"><g class="i"><path class="j" d="M307.77-411.05a8.779,8.779,0,0,0-.168,12.419h0c3.156,3.248,5.685,4.513,7.7,4.617h.534c2.97-.151,4.751-2.9,5.783-5.226h0c1.961-4.432,1.943-8.167-1.433-11.636h0a8.768,8.768,0,0,0-6.3-2.663h0a8.755,8.755,0,0,0-6.12,2.489"/></g></g><g transform="translate(6125.064 10357.277)"><g transform="translate(361.239 -366.006)"><path class="e" d="M0,0C-12.466-9.8-21.033-21.944-27.443-36.312c-4.733-10.6-8.249-21.828-15.546-31.051-.354-.441-3.736-.534-3.973,0q-10.3,23.388-20.6,46.776h3.973q-1.4-6.117-2.8-12.239c-.145-.644-4-.122-3.973,0q1.4,6.125,2.8,12.239c.1.452,3.765.47,3.973,0q10.3-23.388,20.6-46.776h-3.973c7.645,9.664,11.329,21.6,16.282,32.7A90.192,90.192,0,0,0-3.828.145C-3.022.777-.191-.151,0,0"/></g></g><g transform="translate(6125.064 10357.277)"><g transform="translate(378.67 -356.322)"><path class="e" d="M0,0C-14.716-11.5-26.085-26.213-36.358-41.666-44.381-53.737-51.307-66.7-60.419-78.007c-.679-.841-3.7.348-3.973,0,9.53,11.827,16.8,25.424,25.2,38.052C-29.282-25.041-18.011-10.934-3.834.139-3.022.777-.191-.151,0,0"/></g><g transform="translate(227.575 -328.625)"><path class="e" d="M0,0C18.411-37.913,31.376-78.61,28.7-121.164l-3.9.191q13.835,30.14,27.663,60.286c.377.829,3.718.795,3.9-.186q1.062-5.664,2.117-11.323c.157-.824-3.759-1.125-3.973,0Q53.444-66.53,52.38-60.872c1.3-.064,2.6-.128,3.9-.186Q42.458-91.206,28.62-121.349c-.354-.771-3.962-.766-3.9.186C27.4-78.738,14.531-38.191-3.834-.371-4.292.574-.452.928,0,0"/></g></g><g transform="translate(6350.133 10033.906)"><path class="e" d="M0,0C11.619-23.684,20.238-48.865,20.43-75.478c.116-15.528-4.089-30.825-3.486-46.318-1.3.052-2.6.11-3.9.162Q29.815-96.818,46.591-72c.487.713,3.62.748,3.9-.168q1.357-4.359,2.715-8.724c.168-.551-3.643-1.073-3.973,0q-1.357,4.368-2.715,8.724c1.3-.052,2.6-.1,3.9-.162l-33.551-49.63c-.423-.626-3.869-.766-3.9.162-.586,14.995,3.272,29.873,3.486,44.885C16.833-50.025,7.877-24.183-3.828-.325-4.229.481-.423.858,0,0"/></g><g transform="translate(6444.608 9957.145)"><path class="b" d="M0,0C-1.015,2.39-3.214,3.736-4.919,3.011S-7.187-.226-6.172-2.616s3.214-3.73,4.919-3.011S1.009-2.384,0,0"/></g><g transform="translate(6369.609 10037.484)"><path class="k" d="M0,0A193.626,193.626,0,0,1,142.9.244M-14.966,27.9a233.916,233.916,0,0,1,172.488.244"/></g><g transform="translate(6440.86 9962.559)"><path class="l" d="M0,0,.006,36.086"/></g></g></svg>