<?xml version="1.0" encoding="UTF-8" standalone="no"?>
<!DOCTYPE svg PUBLIC "-//W3C//DTD SVG 1.1//EN" "http://www.w3.org/Graphics/SVG/1.1/DTD/svg11.dtd">
<svg width="100%" height="100%" viewBox="0 0 992 992" version="1.1" xmlns="http://www.w3.org/2000/svg" xmlns:xlink="http://www.w3.org/1999/xlink" xml:space="preserve" xmlns:serif="http://www.serif.com/" style="fill-rule:evenodd;clip-rule:evenodd;stroke-linejoin:round;stroke-miterlimit:2;">
    <g transform="matrix(4.16667,0,0,4.16667,0.0166667,297.933)">
        <g id="circle" transform="matrix(1.02574,0,0,1.02574,-220.538,-252.034)">
            <circle cx="331.018" cy="292.018" r="116.018" style="fill:rgb(190,215,48);"/>
        </g>
        <g id="logo" transform="matrix(1,0,0,1,0.575996,-0.847502)">
            <path d="M54.829,68.756L54.829,37.545L62.272,37.545L62.272,68.756L54.829,68.756ZM54.829,34.712L54.829,27.272L62.272,27.272L62.272,34.712L54.829,34.712Z" style="fill:rgb(16,22,94);fill-rule:nonzero;"/>
            <path d="M72.78,68.756L65.333,68.756L65.333,37.545L72.536,37.545L72.536,43.297C74.88,39.945 78.177,36.876 82.683,36.876C83.522,36.876 83.952,36.946 84.428,37.057L84.428,44.09C83.821,43.966 82.683,43.966 82.265,43.966C78.838,43.966 72.78,47.148 72.78,53.388L72.78,68.756Z" style="fill:rgb(16,22,94);fill-rule:nonzero;"/>
            <path d="M94.24,62.652L99.111,62.652C104.315,62.652 108.052,60.941 108.052,56.48C108.052,53.536 106.471,50.195 99.625,50.195L94.24,50.195L94.24,62.652ZM94.24,44.204L99.739,44.204C106.807,44.204 107.424,39.957 107.424,38.598C107.424,33.387 102.056,33.387 100.412,33.387L94.24,33.387L94.24,44.204ZM86.439,68.756L86.439,27.272L99.739,27.272C103.244,27.272 115.12,27.272 115.12,37.409C115.12,44.374 109.688,46.23 106.925,47.194C110.086,48.042 116.081,49.74 116.081,57.385C116.081,63.661 111.336,68.756 100.691,68.756L86.439,68.756Z" style="fill:rgb(16,22,94);fill-rule:nonzero;"/>
            <path d="M129.065,55.426C125.95,56.571 124.864,58.006 124.864,60.227C124.864,63.353 127.57,64.012 128.884,64.012C130.09,64.012 132.673,63.592 135.673,60.522L135.673,52.855C135.249,53.205 135.074,53.275 133.749,53.75L129.065,55.426ZM137.118,68.756L136.28,65.448C134.467,67.08 131.529,69.423 126.852,69.423C121.269,69.423 117.299,65.824 117.299,60.838C117.299,57.589 118.449,53.807 125.345,51.462L134.291,48.473C135.554,48.042 135.673,47.986 135.673,47.092L135.673,45.824C135.673,43.196 133.272,42.403 130.39,42.403C125.47,42.403 120.962,45.403 119.225,46.604L119.225,40.126C121.205,38.983 125.051,36.876 131.529,36.876C141.195,36.876 143.114,41.747 143.114,47.68L143.114,68.756L137.118,68.756Z" style="fill:rgb(16,22,94);fill-rule:nonzero;"/>
            <path d="M37.723,55.426C34.604,56.571 33.516,58.006 33.516,60.227C33.516,63.353 36.222,64.012 37.543,64.012C38.737,64.012 41.324,63.592 44.325,60.522L44.325,52.855C43.906,53.205 43.725,53.275 42.406,53.75L37.723,55.426ZM45.758,68.756L44.92,65.448C43.126,67.08 40.176,69.423 35.492,69.423C29.926,69.423 25.957,65.824 25.957,60.838C25.957,57.589 27.093,53.807 33.996,51.462L42.95,48.473C44.201,48.042 44.325,47.986 44.325,47.092L44.325,45.824C44.325,43.196 41.924,42.403 39.043,42.403C34.115,42.403 29.62,45.403 27.875,46.604L27.875,40.126C29.858,38.983 33.703,36.876 40.176,36.876C49.845,36.876 51.761,41.747 51.761,47.68L51.761,68.756L45.758,68.756Z" style="fill:rgb(16,22,94);fill-rule:nonzero;"/>
            <rect x="146.179" y="27.272" width="7.445" height="41.484" style="fill:rgb(16,22,94);fill-rule:nonzero;"/>
            <path d="M159.814,43.196L155.271,43.196L155.271,37.545L159.814,37.545L159.814,27.272L167.26,27.272L167.26,37.545L172.898,37.545L172.898,43.196L167.26,43.196L167.26,58.972C167.26,61.259 167.561,63.353 170.975,63.353C171.88,63.353 172.537,63.243 173.137,63.116L173.137,68.756C172.182,68.879 171.153,68.995 169.659,68.995C161.37,68.995 159.814,64.849 159.814,59.39L159.814,43.196Z" style="fill:rgb(16,22,94);fill-rule:nonzero;"/>
            <path d="M175.781,68.756L175.781,37.545L183.229,37.545L183.229,68.756L175.781,68.756ZM175.781,34.724L175.781,27.272L183.229,27.272L183.229,34.724L175.781,34.724Z" style="fill:rgb(16,22,94);fill-rule:nonzero;"/>
            <path d="M210.204,45.947C208.703,44.679 206.313,42.708 202.101,42.708C195.741,42.708 193.096,48.042 193.096,53.151C193.096,55.313 193.703,63.592 201.862,63.592C206.121,63.592 208.884,61.678 210.815,60.296L210.815,66.899C209.304,67.679 205.945,69.423 200.663,69.423C190.04,69.423 185.594,61.429 185.594,53.151C185.594,44.508 190.457,36.876 201.025,36.876C206.121,36.876 208.884,38.438 210.204,39.164L210.204,45.947Z" style="fill:rgb(16,22,94);fill-rule:nonzero;"/>
        </g>
    </g>
</svg>
