<?xml version="1.0" encoding="utf-8"?>
<!-- Generator: Adobe Illustrator 23.0.6, SVG Export Plug-In . SVG Version: 6.00 Build 0)  -->
<svg version="1.1" id="Layer_1" xmlns="http://www.w3.org/2000/svg" xmlns:xlink="http://www.w3.org/1999/xlink" x="0px" y="0px"
	 viewBox="0 0 50.7 50" style="enable-background:new 0 0 50.7 50;" xml:space="preserve">
<style type="text/css">
	.st0{fill:#231F20;}
	.st1{fill:#F48120;}
	.st2{fill:#02AEEF;}
	.st3{fill-rule:evenodd;clip-rule:evenodd;fill:#EC1944;}
	.st4{fill:#EC1944;}
	.st5{clip-path:url(#SVGID_10_);}
	.st6{fill:#09101E;}
	.st7{fill-rule:evenodd;clip-rule:evenodd;fill:#EF3340;}
	.st8{fill:#EF3340;}
</style>
<path class="st8" d="M18.7,9.5h-8.4v0l-10,34.2h7l2.2-8h9.8l2.1,8h6.9L18.7,9.5z M11,30.7l3.5-14.8L18,30.7H11z"/>
<g>
	<path d="M47.9,11.7c-1.8-1.4-4.2-2.1-7.3-2.1v0H29.4v34.1h7V31.2h4.3c1.4,0,2.7-0.2,3.9-0.5c1.1-0.3,2.2-0.8,3.1-1.5
		c0.9-0.7,1.6-1.5,2.1-2.5c0.5-1,0.7-2.2,0.7-3.5V18C50.5,15.2,49.7,13.1,47.9,11.7z M43.7,23.2c0,1-0.2,1.6-0.8,2
		c-0.6,0.3-1.3,0.5-2.4,0.5h-4.2V15.1h4.2c1.2,0,2,0.2,2.5,0.7c0.5,0.5,0.7,1.2,0.7,2.3V23.2z"/>
</g>
</svg>
