<?xml version="1.0" encoding="utf-8"?>
<!-- Generator: Adobe Illustrator 19.2.0, SVG Export Plug-In . SVG Version: 6.00 Build 0)  -->
<svg version="1.1" id="PMS" xmlns="http://www.w3.org/2000/svg" xmlns:xlink="http://www.w3.org/1999/xlink" x="0px" y="0px"
	 viewBox="0 0 205.1 123.3" style="enable-background:new 0 0 205.1 123.3;" xml:space="preserve">
<style type="text/css">
	.st0{fill:#0038A8;}
	.st1{fill:#C41E3A;}
	.st2{fill:#FFFFFF;}
</style>
<title>ACS-RGB</title>
<g id="Logo">
	<polygon class="st0" points="41.2,0 205.1,0 164.2,123.3 41.2,123.3 	"/>
	<rect class="st1" width="41.2" height="123.3"/>
	<path class="st2" d="M72.4,35.3h4.2v2.4l0,0c0.9-1.8,2.8-2.9,4.8-2.7c1.8-0.1,3.5,0.9,4.1,2.5c1-1.6,2.8-2.6,4.7-2.5
		c3.8,0,4.7,2.2,4.7,5.8v7.8h-4.5v-7.1c0-1.5-0.5-2.6-1.8-2.6C87,38.8,86,40.1,86,43v5.6h-4.6v-7.1c0-1.5-0.5-2.6-1.8-2.6
		c-1.6,0-2.6,1.3-2.6,4.2v5.6h-4.6L72.4,35.3L72.4,35.3z"/>
	<path class="st2" d="M101.3,43.3c0.2,1.8,1.6,2.6,3.9,2.6c1.4,0,2.8-0.3,4.1-1V48c-1.6,0.6-3.2,0.9-4.9,0.8c-4.4,0-7.7-2.6-7.7-7
		s3-6.9,7.1-6.9c4.9,0,6.7,3.5,6.7,7.4v0.8L101.3,43.3L101.3,43.3z M106.3,40.7c0-1.5-0.7-2.8-2.6-2.8c-1.7,0-2.4,1.2-2.6,2.8H106.3
		L106.3,40.7z"/>
	<path class="st2" d="M121.8,39c-0.5-0.1-1-0.2-1.6-0.2c-2.1,0-3.3,1.6-3.3,4.2v5.6h-4.6V35.3h4.2v2.4h0.1c0.6-1.7,2.2-2.8,3.9-2.7
		c0.5,0,1,0.1,1.6,0.1L121.8,39z"/>
	<path class="st2" d="M123.6,35.3h4.6v13.2h-4.6V35.3z M128.1,33.1h-4.6v-3.4h4.6V33.1z"/>
	<path class="st2" d="M140.4,39.1c-0.8-0.5-1.8-0.8-2.8-0.7c-1.9-0.1-3.5,1.4-3.5,3.3c0,0.1,0,0.3,0,0.4c0,2,1.7,3.6,3.7,3.5
		c0,0,0.1,0,0.1,0c1,0,2-0.2,2.8-0.6l0.1,3.4c-1.2,0.4-2.5,0.6-3.7,0.6c-4.4,0-7.7-2.6-7.7-6.9s3.3-6.9,7.7-6.9
		c1.3,0,2.5,0.2,3.6,0.7L140.4,39.1z"/>
	<path class="st2" d="M146.3,44.3c0-1.3,1.2-1.8,2.8-1.8c0.7,0,1.4,0.1,1.9,0.1c0.1,1.6-1.2,3-2.8,3.1
		C147.1,45.8,146.3,45.3,146.3,44.3 M155.6,48.5c-0.2-1-0.3-2.1-0.3-3.1v-4.9c0-4-2.9-5.5-6.3-5.5c-1.8,0-3.6,0.3-5.3,0.9l0.1,3.1
		c1.3-0.7,2.8-1,4.2-1c1.7,0,3,0.5,3,2.3c-0.7-0.1-1.4-0.2-2.1-0.2c-2.4,0-6.9,0.5-6.9,4.5c0,2.9,2.3,4.2,5,4.2
		c1.7,0.1,3.4-0.9,4.2-2.4l0,0c0,0.7,0.1,1.4,0.1,2.1H155.6L155.6,48.5z"/>
	<path class="st2" d="M157.8,35.3h4.2v2.4h0.1c0.9-1.8,2.8-2.9,4.8-2.7c3.6,0,5.1,2.5,5.1,5.3v8.3h-4.6v-6.4c0-2.5-0.9-3.3-2.1-3.3
		c-1.9,0-2.9,1.3-2.9,4.2v5.6h-4.6L157.8,35.3L157.8,35.3z"/>
	<path class="st2" d="M67.4,70c-1.7,0.5-3.5,0.7-5.3,0.7c-4.7,0-10.2-2.4-10.2-9.1c0-6.2,4.3-9.3,10.2-9.3c1.8,0,3.6,0.4,5.3,0.9
		L67,57.1c-1.4-0.8-3-1.2-4.6-1.2c-3-0.1-5.5,2.3-5.5,5.3c0,0.2,0,0.3,0,0.5c0,3.5,2.5,5.6,5.9,5.6c1.5,0,3-0.3,4.4-0.9L67.4,70z"/>
	<path class="st2" d="M72.9,66.2c0-1.3,1.2-1.7,2.8-1.7c0.7,0,1.4,0,1.9,0.1c0.1,1.6-1.2,3-2.8,3.1c-0.9,0.1-1.7-0.5-1.9-1.3
		C72.9,66.3,72.9,66.2,72.9,66.2 M82.1,70.4c-0.2-1-0.3-2.1-0.3-3.1v-4.9c0-4.1-2.9-5.5-6.3-5.5c-1.8,0-3.6,0.3-5.3,0.9l0.1,3.1
		c1.3-0.7,2.8-1,4.2-1c1.6,0,3,0.5,3,2.3C76.9,62,76.1,62,75.4,62c-2.4,0-6.9,0.5-6.9,4.5c0,2.9,2.3,4.2,5,4.2
		c1.7,0.1,3.4-0.9,4.2-2.4l0,0c0,0.7,0.1,1.4,0.1,2.1L82.1,70.4L82.1,70.4z"/>
	<path class="st2" d="M84.2,57.1h4.2v2.4h0.1c0.9-1.8,2.8-2.9,4.8-2.8c3.6,0,5.1,2.5,5.1,5.3v8.3h-4.6V64c0-2.5-0.9-3.3-2.1-3.3
		c-1.9,0-2.9,1.3-2.9,4.2v5.6h-4.6L84.2,57.1L84.2,57.1z"/>
	<path class="st2" d="M111.1,60.9c-0.8-0.5-1.8-0.8-2.8-0.7c-1.9-0.1-3.5,1.4-3.5,3.3c0,0.1,0,0.2,0,0.3c0,2,1.7,3.6,3.7,3.5
		c0,0,0.1,0,0.1,0c1,0,2-0.2,2.9-0.6l0.1,3.4c-1.2,0.4-2.5,0.6-3.7,0.6c-4.4,0-7.7-2.6-7.7-6.9s3.4-6.9,7.7-6.9
		c1.3,0,2.5,0.2,3.6,0.7L111.1,60.9z"/>
	<path class="st2" d="M117.5,62.5c0.1-1.5,0.9-2.8,2.6-2.8c1.8,0,2.6,1.2,2.6,2.8H117.5L117.5,62.5z M126.7,65.1v-0.8
		c0-4-1.8-7.4-6.7-7.4c-4.1,0-7.1,2.6-7.1,6.9s3.3,7,7.7,7c1.7,0,3.3-0.3,4.9-0.8v-3.2c-1.2,0.7-2.6,1-4,1c-2.2,0-3.6-0.7-3.9-2.5
		L126.7,65.1L126.7,65.1z"/>
	<path class="st2" d="M138,60.8c-0.5-0.1-1-0.2-1.6-0.2c-2.1,0-3.3,1.6-3.3,4.2v5.6h-4.6V57.1h4.2v2.4h0.1c0.6-1.7,2.2-2.8,3.9-2.8
		c0.5,0,1,0.1,1.5,0.2L138,60.8z"/>
	<path class="st2" d="M52.6,87.8c1.5,0.8,3.2,1.2,4.9,1.2c1.5,0,2.9-0.3,2.9-1.7c0-3.3-8.4-1.2-8.4-7.7c0-4.3,4.2-5.4,7.7-5.4
		c1.6,0,3.1,0.2,4.6,0.7L64,78.5c-1.2-0.5-2.6-0.8-3.9-0.8c-1.2,0-3.2,0.1-3.2,1.6c0,2.9,8.4,0.9,8.4,7.4c0,4.6-3.9,5.9-7.8,5.9
		c-1.8,0-3.6-0.3-5.3-0.8L52.6,87.8z"/>
	<path class="st2" d="M74,89.3c-2.1,0-3-1.8-3-3.7s0.9-3.7,3-3.7s3,1.8,3,3.7S76.1,89.3,74,89.3 M74,92.5c4.4,0,7.7-2.6,7.7-6.9
		s-3.3-6.9-7.7-6.9s-7.7,2.5-7.7,6.9C66.3,90,69.6,92.5,74,92.5"/>
	<path class="st2" d="M93.8,82.7C93,82.2,92,82,91,82c-1.9-0.1-3.5,1.4-3.5,3.3c0,0.1,0,0.2,0,0.4c0.1,2,1.7,3.5,3.7,3.5
		c0,0,0.1,0,0.1,0c1,0,2-0.2,2.9-0.6l0.1,3.4c-1.2,0.4-2.5,0.6-3.7,0.6c-4.4,0-7.7-2.6-7.7-6.9s3.3-6.9,7.7-6.9
		c1.3,0,2.5,0.2,3.6,0.7L93.8,82.7z"/>
	<path class="st2" d="M96.3,78.9h4.6v13.3h-4.6V78.9z M100.9,76.8h-4.6v-3.4h4.6V76.8z"/>
	<path class="st2" d="M107.5,84.3c0.1-1.5,0.9-2.8,2.6-2.8c1.8,0,2.6,1.2,2.6,2.8H107.5z M116.7,86.9v-0.8c0-3.9-1.8-7.4-6.7-7.4
		c-4.1,0-7.1,2.5-7.1,6.9c0,4.4,3.3,7,7.7,7c1.7,0,3.3-0.3,4.9-0.8v-3.2c-1.2,0.7-2.6,1-4,1c-2.2,0-3.6-0.7-3.9-2.6L116.7,86.9
		L116.7,86.9z"/>
	<path class="st2" d="M117.1,78.9h2.7v-3l4.5-1.4v4.4h3.2v3.2h-3.2V87c0,1.6,0.4,2.4,1.9,2.4c0.5,0,0.9-0.1,1.4-0.2l0.2,3
		c-0.9,0.2-1.9,0.2-2.9,0.3c-4.1,0-5.1-1.8-5.1-5v-5.4h-2.6L117.1,78.9L117.1,78.9z"/>
	<path class="st2" d="M130,94.1c0.6,0.2,1.2,0.3,1.8,0.3c1.1,0,2.1-0.7,2.3-1.8l-5.4-13.6h4.9l2.9,8.7h0l2.7-8.7h4.6L139,91.3
		c-1.3,3.3-2.3,6.6-6.5,6.6c-1,0-1.9-0.1-2.9-0.3L130,94.1z"/>
	<g>
		<path class="st2" d="M151.5,80.8c0,0,0-0.1,0-0.1c0-0.9-0.6-1.2-1.6-1.2h-1.5v3.9h0.8v-1.6h0.4l0.9,1.6h0.9l-1-1.7
			C151,81.8,151.4,81.4,151.5,80.8z M149.9,81.2h-0.7h0v-1h0.6c0.3,0,0.8,0,0.8,0.4C150.6,81,150.3,81.2,149.9,81.2z"/>
		<path class="st2" d="M149.8,77.4c-2.4,0-4.3,1.7-4.3,4.1c0,2.4,1.9,4.3,4.3,4.3c2.4,0,4.4-1.9,4.4-4.3
			C154.1,79.1,152.2,77.4,149.8,77.4z M149.8,85.1c-1.9,0-3.5-1.6-3.5-3.5s1.6-3.3,3.5-3.3s3.5,1.4,3.5,3.3S151.7,85.1,149.8,85.1z"
			/>
	</g>
	<path class="st2" d="M25.6,82.3c1-0.8,2.4-0.7,3.4,0.1c0.8,1,0.7,2.5-0.3,3.4c-1.1,1-9.2,7.5-10.8,8.7c-1,0.5-2.2,0.4-3.1-0.4
		c-0.7-1-0.6-2.3,0.2-3.2C15.8,90,24.7,83,25.6,82.3"/>
	<path class="st2" d="M24.1,91.3c1-0.7,2.3-0.7,3.2,0.1c0.9,1,0.7,2.5-0.2,3.4c-1.2,1.1-7.1,5.6-7.9,6.2c-1,0.5-2.2,0.4-3.1-0.4
		c-0.8-0.9-0.7-2.4,0.2-3.2C17.3,96.4,23.1,91.9,24.1,91.3"/>
	<path class="st2" d="M23.5,99.3v3.4c1.4,1.1,1.7,3.1,0.6,4.6c-0.1,0.1-0.2,0.3-0.3,0.4c-1.5,1.1-3.6,0.8-4.7-0.6
		c-0.2-0.2-0.3-0.5-0.4-0.8v-3.4C19.5,102.3,23.4,99.3,23.5,99.3"/>
	<polygon class="st2" points="21.1,12.1 23.5,18 23.5,74.8 21.1,76.7 18.7,74.8 18.7,18 	"/>
	<path class="st2" d="M30.4,65.2h-5.2l1.6,2.6L25,70.4c2.2,1.1,4.4-1,4.9-0.4c0.4,0.3,0.5,0.8,0.3,1.2c0,0,0,0,0,0L13.4,84.4
		c-0.8,1-0.5,2.5,0.5,3.2c0.8,0.6,1.9,0.6,2.7,0l17.2-13.5c1.3-1.6,1.7-3.7,0.9-5.6C34.1,66.6,32.4,65.3,30.4,65.2"/>
	<path class="st2" d="M11.7,65.2H17l-1.6,2.6l1.9,2.6c-2.2,1.1-4.6-1-5.2-0.4c-0.4,0.3-0.4,0.8-0.2,1.1c0,0,0,0,0,0l8.1,6.4
		l-3.7,2.9l-8-6.3c-1.3-1.5-1.7-3.7-0.9-5.6C8,66.7,9.7,65.3,11.7,65.2"/>
	<path class="st2" d="M63.4,41.4h-4.5l2.3-7l0,0L63.4,41.4z M51.6,48.6h4.8l1.4-3.8h6.7l1.4,3.8H71l-6.9-17.8h-5.8L51.6,48.6z"/>
</g>
</svg>
