<svg xmlns="http://www.w3.org/2000/svg" viewBox="0 0 239.662 42"><defs><style>.a{fill:#082538;}</style></defs><title>apmex</title><path class="a" d="M212.4,20.809c2.447-3.539,4.895-7.2,7.342-10.743h7.082V.041H213.667c-2.654,3.81-5.308,7.243-7.962,11.053-2.606-3.81-5.213-7.243-7.819-11.053h-49.6V31.329l-2.5.03V.041H132.505L119.284,24.473,106.2.041H92.8l.125,7.775A2.687,2.687,0,0,0,92.8,7.5v0A14.255,14.255,0,0,0,86.484,1.67a21.469,21.469,0,0,0-8.29-1.6c-8.578-.009-26.438,0-26.438,0v39.28l-.072.026C51.684,39.154,34.417,0,34.417,0H17.309S.4,41.45.169,42H13.1c.177-.353,2.074-4.952,2.232-5.239H37.2c.853,1.656,1.483,3.466,2.331,5.222H64.984V26.218h.658l13.4,0c5.319,0,10.026-2.116,12.971-6.316a9.156,9.156,0,0,0,.788-1.31c0,.2.136,23.4.136,23.4H106.29s-.072-15.067-.072-22.618l13.087,22.52,13.2-22.358s.117,22.376.187,22.467h65.152l7.865-11.571,8.026,11.562h13.232ZM20.561,23.641,26,10.83l5.437,12.811Zm61.007-8.457a2.524,2.524,0,0,1-.308.41,5.1,5.1,0,0,1-3.319,1.175c-1.556.167-4.679.175-4.679.175l-8.254.006V10.312h8.006s3,.006,4.486.159a6.743,6.743,0,0,1,3.785,1.22A2.789,2.789,0,0,1,81.568,15.184ZM186.757,39.173v-7.8h-25.3V26.1h11.618V15.6H161.507c.115.07-.043-5.267-.043-5.267h25.387V2.505c.839,1.218,11.759,18.307,11.815,18.45Z" transform="translate(-0.169)"/><path class="a" d="M239.831,5.106a5.086,5.086,0,1,1-5.07-4.949A4.973,4.973,0,0,1,239.831,5.106Zm-8.9,0a3.834,3.834,0,0,0,3.862,3.953,3.789,3.789,0,0,0,3.772-3.923,3.82,3.82,0,1,0-7.634-.03Zm3.048,2.6H232.83V2.752a9.981,9.981,0,0,1,1.9-.151,3.084,3.084,0,0,1,1.72.362,1.371,1.371,0,0,1,.483,1.086A1.268,1.268,0,0,1,235.908,5.2v.061a1.458,1.458,0,0,1,.905,1.207,3.769,3.769,0,0,0,.363,1.237h-1.238a4.276,4.276,0,0,1-.392-1.207c-.09-.543-.392-.785-1.026-.785h-.543Zm.03-2.807h.543c.634,0,1.147-.211,1.147-.724,0-.453-.332-.754-1.056-.754a2.765,2.765,0,0,0-.634.06Z" transform="translate(-0.169)"/></svg>