<?xml version="1.0" encoding="UTF-8" standalone="no"?>
<svg
   xmlns:dc="http://purl.org/dc/elements/1.1/"
   xmlns:cc="http://creativecommons.org/ns#"
   xmlns:rdf="http://www.w3.org/1999/02/22-rdf-syntax-ns#"
   xmlns:svg="http://www.w3.org/2000/svg"
   xmlns="http://www.w3.org/2000/svg"
   viewBox="0 0 1056 816"
   height="816"
   width="1056"
   xml:space="preserve"
   id="svg2"
   version="1.1"><metadata
     id="metadata8"><rdf:RDF><cc:Work
         rdf:about=""><dc:format>image/svg+xml</dc:format><dc:type
           rdf:resource="http://purl.org/dc/dcmitype/StillImage" /></cc:Work></rdf:RDF></metadata><defs
     id="defs6"><clipPath
       id="clipPath18"
       clipPathUnits="userSpaceOnUse"><path
         id="path16"
         d="M 90.048,173.88 H 714.697 V 508.903 H 90.048 Z" /></clipPath></defs><g
     transform="matrix(1.3333333,0,0,-1.3333333,0,816)"
     id="g10"><g
       id="g12"><g
         clip-path="url(#clipPath18)"
         id="g14"><g
           transform="translate(282.3828,220.2686)"
           id="g20"><path
             id="path22"
             style="fill:#373535;fill-opacity:1;fill-rule:nonzero;stroke:none"
             d="m 0,0 c -0.915,2.986 -2.075,5.812 -3.776,8.278 -2.87,4.255 -6.507,7.369 -10.912,9.342 -4.404,1.973 -9.354,2.959 -14.85,2.959 -9.254,0 -16.782,-2.918 -22.58,-8.755 -5.8,-5.838 -8.7,-14.225 -8.7,-25.163 0,-11.675 3.213,-20.101 9.636,-25.28 6.425,-5.18 13.839,-7.771 22.243,-7.771 4.924,0 9.295,0.754 13.161,2.192 l 6.58,18.432 h -6.721 c -0.983,-1.854 -2.116,-3.3 -3.397,-4.344 -2.351,-1.932 -5.408,-2.897 -9.169,-2.897 -3.547,0 -6.58,0.791 -9.102,2.375 -4.147,2.55 -6.348,6.989 -6.604,13.324 h 38.013 z m -15.342,-6.416 h -28.443 c 0.599,4.111 2.065,7.368 4.398,9.773 2.332,2.406 5.617,3.608 9.855,3.608 3.896,0 7.161,-1.134 9.792,-3.403 2.633,-2.27 4.099,-5.596 4.398,-9.978 m -64.571,-37.829 h 16.857 v 37.109 c 0,5.642 -0.193,9.711 -0.577,12.204 -0.386,2.494 -1.442,4.919 -3.172,7.278 -2.038,2.782 -4.644,4.85 -7.815,6.204 -3.174,1.353 -6.703,2.029 -10.587,2.029 -3.461,0 -6.759,-0.724 -9.891,-2.172 -3.135,-1.449 -5.893,-4.008 -8.278,-7.676 v 30.123 h -16.51 v -85.099 h 16.51 v 34.218 c 0,5.413 1.121,9.579 3.364,12.497 2.244,2.92 5.531,4.38 9.863,4.38 4.178,0 7.015,-1.47 8.51,-4.408 1.149,-2.088 1.726,-4.834 1.726,-8.236 z m -68.8,70.27 h 25.547 v 15.12 h -69.169 v -15.12 h 25.664 v -70.27 h 17.958 z" /></g><g
           transform="translate(310.8521,241.8916)"
           id="g24"><path
             id="path26"
             style="fill:#373535;fill-opacity:1;fill-rule:nonzero;stroke:none"
             d="m 0,0 10.787,-33.601 h -21.87 z m -40.388,-65.868 h 18.664 l 5.789,17.554 H 15.51 l 5.635,-17.554 h 19.348 l -30.21,85.39 H -9.906 Z M 77.2,-1.218 c -4.944,0 -8.96,-1.294 -12.05,-3.881 -1.892,-1.544 -4.113,-4.422 -6.662,-8.63 V -2.723 H 42.73 v -63.145 h 16.627 v 30.182 c 0,5.06 0.638,8.806 1.912,11.239 2.279,4.325 6.739,6.488 13.383,6.488 0.501,0 1.157,-0.02 1.968,-0.058 0.811,-0.039 1.739,-0.116 2.781,-0.232 v 16.916 c -0.733,0.038 -1.207,0.067 -1.419,0.088 -0.212,0.017 -0.473,0.027 -0.782,0.027 m 2.004,-44.49 c 0,-6.488 2.37,-11.828 7.111,-16.018 4.741,-4.189 12.084,-6.286 22.029,-6.286 9.752,0 16.959,1.98 21.622,5.939 4.664,3.958 6.995,9.066 6.995,15.322 0,4.751 -1.622,8.709 -4.866,11.876 -3.283,3.129 -8.214,5.465 -14.791,7.01 -9.866,2.162 -15.611,3.688 -17.237,4.577 -1.628,0.849 -2.441,2.221 -2.441,4.112 0,1.507 0.766,2.819 2.295,3.94 1.53,1.12 4.096,1.68 7.698,1.68 4.375,0 7.472,-1.121 9.294,-3.361 0.968,-1.236 1.567,-2.915 1.8,-5.04 h 16.511 c -0.735,7.724 -3.591,13.16 -8.564,16.309 -4.973,3.146 -11.408,4.721 -19.303,4.721 -8.32,0 -14.775,-2.096 -19.361,-6.286 -4.587,-4.19 -6.88,-9.201 -6.88,-15.033 0,-4.944 1.467,-8.728 4.403,-11.355 2.935,-2.664 7.989,-4.885 15.165,-6.662 9.967,-2.356 15.725,-4.017 17.273,-4.981 1.547,-0.966 2.321,-2.375 2.321,-4.23 0,-1.931 -0.961,-3.38 -2.881,-4.344 -1.921,-0.967 -4.513,-1.449 -7.772,-1.449 -5.548,0 -9.352,1.101 -11.409,3.302 -1.163,1.236 -1.921,3.322 -2.269,6.257 z m 90.296,31.051 c 3.895,0 7.159,-1.135 9.792,-3.404 2.631,-2.27 4.097,-5.595 4.397,-9.978 h -28.444 c 0.599,4.111 2.064,7.369 4.398,9.774 2.333,2.405 5.617,3.608 9.857,3.608 m -0.008,13.613 c -9.253,0 -16.782,-2.918 -22.58,-8.755 -5.799,-5.836 -8.7,-14.224 -8.7,-25.162 0,-11.675 3.213,-20.102 9.637,-25.281 6.424,-5.18 13.838,-7.77 22.242,-7.77 10.181,0 18.1,3.071 23.756,9.212 3.636,3.861 5.676,7.665 6.121,11.412 h -16.856 c -0.983,-1.853 -2.116,-3.302 -3.399,-4.344 -2.35,-1.933 -5.406,-2.897 -9.167,-2.897 -3.546,0 -6.582,0.79 -9.104,2.375 -4.145,2.548 -6.347,6.99 -6.603,13.324 h 45.991 c 0.081,5.453 -0.101,9.631 -0.544,12.532 -0.768,4.951 -2.446,9.302 -5.032,13.055 -2.869,4.253 -6.506,7.367 -10.912,9.341 -4.404,1.973 -9.354,2.958 -14.85,2.958 m 68.724,-0.174 c -5.192,0 -9.481,-1.274 -12.865,-3.822 -1.885,-1.429 -3.885,-3.767 -5.999,-7.011 v 9.211 h -15.99 v -63.028 h 16.512 v 34.179 c 0,3.901 0.536,7.106 1.609,9.617 2.069,4.751 5.884,7.126 11.444,7.126 4.524,0 7.591,-1.622 9.201,-4.866 0.882,-1.778 1.323,-4.326 1.323,-7.648 v -38.408 h 16.916 v 42.521 c 0,7.917 -2.068,13.585 -6.201,17.003 -4.136,3.418 -9.453,5.126 -15.95,5.126 m 63.116,-40.087 c -0.117,-5.524 -1.695,-9.327 -4.735,-11.413 -3.039,-2.085 -6.362,-3.129 -9.97,-3.129 -2.275,0 -4.207,0.628 -5.794,1.884 -1.588,1.254 -2.382,3.292 -2.382,6.111 0,3.166 1.299,5.504 3.9,7.01 1.536,0.888 4.066,1.641 7.589,2.26 l 3.758,0.695 c 1.879,0.347 3.356,0.724 4.433,1.13 1.077,0.404 2.144,0.935 3.201,1.593 z m -15.756,13.151 c -6.419,-0.812 -11.284,-2.164 -14.59,-4.056 -6.03,-3.476 -9.046,-9.095 -9.046,-16.858 0,-5.987 1.874,-10.611 5.623,-13.874 3.748,-3.264 8.497,-4.896 14.247,-4.896 4.505,0 8.547,1.024 12.119,3.07 2.991,1.739 5.634,3.843 7.926,6.315 0.115,-1.429 0.27,-2.703 0.463,-3.823 0.193,-1.121 0.54,-2.318 1.044,-3.592 h 17.958 v 2.433 c -1.082,0.501 -1.894,1.139 -2.434,1.912 -0.541,0.772 -0.869,2.239 -0.984,4.403 -0.078,2.857 -0.116,5.29 -0.116,7.299 v 28.966 c 0,7.607 -2.696,12.782 -8.087,15.525 -5.392,2.742 -11.559,4.112 -18.502,4.112 -10.667,0 -18.192,-2.779 -22.575,-8.341 -2.754,-3.554 -4.306,-8.09 -4.654,-13.614 h 15.931 c 0.391,2.434 1.174,4.364 2.349,5.793 1.644,1.931 4.443,2.897 8.397,2.897 3.522,0 6.195,-0.493 8.016,-1.478 1.82,-0.984 2.73,-2.771 2.73,-5.358 0,-2.124 -1.186,-3.689 -3.559,-4.693 -1.324,-0.579 -3.522,-1.062 -6.595,-1.448 z m 54.001,47.676 h -16.51 v -85.391 h 16.51 z m 32.917,-34.179 c 3.896,0 7.16,-1.135 9.792,-3.404 2.632,-2.27 4.097,-5.595 4.398,-9.978 h -28.443 c 0.598,4.111 2.064,7.369 4.398,9.774 2.332,2.405 5.617,3.608 9.855,3.608 m -0.006,13.613 c -9.255,0 -16.782,-2.918 -22.58,-8.755 -5.8,-5.836 -8.7,-14.224 -8.7,-25.162 0,-11.675 3.212,-20.102 9.636,-25.281 6.424,-5.18 13.839,-7.77 22.242,-7.77 10.181,0 18.099,3.071 23.756,9.212 3.636,3.861 5.676,7.665 6.121,11.412 h -16.856 c -0.983,-1.853 -2.116,-3.302 -3.398,-4.344 -2.35,-1.933 -5.407,-2.897 -9.168,-2.897 -3.547,0 -6.581,0.79 -9.103,2.375 -4.146,2.548 -6.347,6.99 -6.604,13.324 h 45.992 c 0.081,5.453 -0.101,9.631 -0.545,12.532 -0.768,4.951 -2.445,9.302 -5.031,13.055 -2.87,4.253 -6.507,7.367 -10.912,9.341 -4.405,1.973 -9.355,2.958 -14.85,2.958" /></g><g
           transform="translate(306.1943,467.4355)"
           id="g28"><path
             id="path30"
             style="fill:#373535;fill-opacity:1;fill-rule:nonzero;stroke:none"
             d="m 0,0 c -22.664,25.435 -55.654,41.47 -92.402,41.47 -68.342,0 -123.744,-55.404 -123.744,-123.746 0,-68.342 55.402,-123.745 123.744,-123.745 32.144,0 61.419,12.26 83.42,32.355 -4.195,5.422 -7.991,11.161 -11.324,17.2 -12.566,-12.199 -28.201,-21.255 -45.659,-25.854 13.773,11.638 24.958,27.83 32.333,46.901 h 4.013 c -4.669,13.601 -7.24,28.176 -7.24,43.361 0,0.351 0.025,0.7 0.027,1.052 -0.655,-11.352 -2.568,-22.215 -5.6,-32.323 H -86.44 v 34.567 h 49.665 c 0.369,15.169 3.237,29.714 8.259,43.223 -0.654,2.589 -1.359,5.149 -2.145,7.66 h 5.292 c 1.843,4.146 3.892,8.178 6.134,12.09 H -35.008 C -42.456,-8.056 -53.312,6.942 -66.423,17.885 -45.216,12.396 -26.662,0.358 -13.018,-15.945 -9.089,-10.295 -4.732,-4.968 0,0 m -86.44,-135.419 h 39.705 c -8.835,-21.405 -22.805,-38.404 -39.705,-47.854 z m -94.78,0 h 30.248 c 7.397,-19.123 18.624,-35.344 32.447,-46.992 -26.537,6.903 -48.937,24.049 -62.695,46.992 m -14.46,46.657 h 35.192 c 0.496,-12.088 2.354,-23.696 5.444,-34.567 h -32.378 c -4.632,10.707 -7.501,22.348 -8.258,34.567 m 41.739,50.883 c -3.785,-12.084 -6.063,-25.126 -6.567,-38.792 h -35.239 c 0.739,13.826 4.194,26.929 9.836,38.792 z m 35.868,55.849 c -13.159,-10.953 -24.054,-25.978 -31.521,-43.759 h -29.518 c 13.961,21.386 35.62,37.266 61.039,43.759 m 19.543,-43.759 h -37.816 c 8.812,19.562 22.03,35.091 37.816,44.043 z m 0,-50.882 h -49.389 c 0.528,13.765 2.922,26.843 6.883,38.792 h 42.506 z m 0,-46.658 h -43.64 c -3.233,10.774 -5.211,22.398 -5.73,34.567 h 49.37 z m 0,-59.726 c -16.734,9.489 -30.567,26.388 -39.337,47.636 h 39.337 z m 12.09,145.176 h 42.874 c 3.961,-11.949 6.354,-25.027 6.882,-38.792 H -86.44 Z m 38.184,12.09 H -86.44 v 44.26 c 15.948,-8.917 29.302,-24.544 38.184,-44.26" /></g><g
           transform="translate(498.7969,467.7202)"
           id="g32"><path
             id="path34"
             style="fill:#373535;fill-opacity:1;fill-rule:nonzero;stroke:none"
             d="m 0,0 c -24.305,25.364 -58.493,41.183 -96.396,41.183 -73.747,0 -133.526,-59.781 -133.527,-133.528 0,-48.206 25.551,-90.436 63.844,-113.909 v 26.724 c -2.713,2.173 -5.324,4.469 -7.822,6.88 l 53.988,39.435 c -9.328,5.379 -16.62,13.843 -20.517,24.012 l -49.12,-44.688 c -11.687,17.65 -18.529,38.792 -18.53,61.546 0.001,13.769 2.612,26.901 7.169,39.078 5.71,1.021 14.985,9.065 23.146,20.719 7.513,10.733 11.894,21.376 11.766,27.458 15.945,12.737 35.429,21.192 56.769,23.636 l -3.323,-66.6 c 5.048,1.843 10.472,2.898 16.157,2.898 5.324,0 10.423,-0.922 15.199,-2.548 l -3.828,66.469 c 20.863,-2.11 39.952,-10.061 55.818,-22.049 -1.195,-5.092 2.457,-15.411 9.515,-26.302 C -14.559,-18.767 -7.902,-8.815 0,0 m -62.277,-99.924 -0.317,0.288 c 0.539,2.438 0.845,4.964 0.845,7.561 0,10.041 -4.243,19.083 -11.023,25.457 -0.047,0.043 -0.095,0.085 -0.142,0.128 -0.889,0.826 -1.849,1.577 -2.82,2.309 -0.362,0.266 -0.706,0.556 -1.079,0.807 -0.159,0.112 -0.334,0.197 -0.496,0.307 -5.491,3.586 -12.04,5.689 -19.087,5.689 -19.312,0 -34.968,-15.655 -34.968,-34.967 0,-14.969 9.425,-27.704 22.65,-32.691 l 0.138,0.102 c 3.709,-1.339 7.69,-2.107 11.859,-2.107 4.401,0 8.596,0.849 12.475,2.333 l 0.352,-0.258 c 10.831,4.156 19.063,13.517 21.613,25.042 m 34.923,-79.503 h -138.725 v -26.877 h 138.725 c 13.983,8.464 26.277,19.386 36.289,32.16 -10.307,9.371 -19.021,20.462 -25.701,32.815 l -35.526,32.322 c -3.856,-10.198 -11.121,-18.695 -20.433,-24.115 l 53.96,-39.412 c -2.726,-2.637 -5.609,-4.538 -8.589,-6.893" /></g><g
           transform="translate(714.6963,385.1597)"
           id="g36"><path
             id="path38"
             style="fill:#373535;fill-opacity:1;fill-rule:nonzero;stroke:none"
             d="m 0,0 c 0,67.502 -54.057,122.34 -121.235,123.682 l 20.737,-35.92 V 13.544 l 35.289,-20.374 -35.159,60.897 14.493,8.369 35.182,-60.938 -14.47,-8.355 28.94,-16.709 20.869,-36.145 C -5.579,-42.005 0,-21.657 0,0 m -120.982,1.171 -0.348,0.187 -0.125,23.892 v 98.437 c -0.765,0.014 -1.523,0.06 -2.29,0.06 -0.774,0 -1.534,-0.046 -2.304,-0.06 V 25.25 l -0.125,-23.892 -0.348,-0.187 -105.574,-60.954 c 0.831,-1.501 1.676,-2.99 2.567,-4.453 l 105.372,60.837 0.336,0.207 20.755,-11.836 85.139,-49.156 c 0.876,1.441 1.709,2.913 2.53,4.396 z m -26.024,86.591 20.736,35.92 C -193.441,122.333 -247.489,67.497 -247.489,0 c 0,-21.652 5.575,-41.995 15.345,-59.698 l 20.862,36.132 28.941,16.709 -14.471,8.355 35.183,60.938 14.493,-8.369 -35.159,-60.897 35.289,20.374 z m -40.953,-152.198 h -41.443 c 21.738,-35.566 60.923,-59.309 105.657,-59.309 44.735,0 83.92,23.743 105.656,59.309 h -41.319 l -64.275,37.11 -35.289,-20.375 h 70.319 v -16.735 h -70.366 v 16.71 z m 15.349,-18.223 h -1.878 v 8.992 h 1.878 z m 9.117,0 h -1.878 l -3.669,6.41 h -0.025 v -6.41 h -1.754 v 8.992 h 1.978 l 3.57,-6.262 h 0.025 v 6.262 h 1.753 z m 8.466,7.4 h -2.718 v -7.4 h -1.879 v 7.4 h -2.716 v 1.592 h 7.313 z m 8.065,-7.4 h -6.825 v 8.992 h 6.612 v -1.592 h -4.771 v -1.889 h 4.383 v -1.592 h -4.383 v -2.33 h 4.984 z m 34.564,7.4 h -2.718 v -7.4 h -1.879 v 7.4 h -2.718 v 1.592 h 7.315 z m 31.719,-7.4 h -2.041 l -0.576,1.853 h -3.318 l -0.627,-1.853 h -1.978 l 3.205,8.992 h 2.167 z m 7.677,0 h -6.35 v 8.992 h 1.878 v -7.365 h 4.472 z m 2.43,-4.438 h 2.216 l 1.867,-3.907 1.777,3.907 h 2.129 l -3.006,-5.624 v -3.366 h -1.878 v 3.393 z m -7.664,0 h 7.313 v -1.592 h -2.718 v -7.398 h -1.879 v 7.398 h -2.716 z m -2.856,0 h 1.879 v -8.992 h -1.879 z m -8.89,0 h 4.544 c 2.393,0 2.832,-1.767 2.832,-2.544 0,-0.987 -0.501,-1.84 -1.391,-2.139 0.738,-0.326 1.14,-0.601 1.14,-2.28 0,-1.316 0,-1.642 0.401,-1.791 v -0.236 h -2.079 c -0.125,0.423 -0.201,0.886 -0.201,1.813 0,1.229 -0.076,1.705 -1.465,1.705 h -1.941 v -3.518 h -1.84 z m -0.464,4.438 h -1.879 l -3.669,6.41 h -0.025 v -6.41 h -1.753 v 8.992 h 1.978 l 3.569,-6.262 h 0.026 v 6.262 h 1.753 z m -9.68,-8.933 c 0,4.22 3.13,4.732 4.32,4.732 1.189,0 4.321,-0.512 4.321,-4.732 0,-4.221 -3.132,-4.734 -4.321,-4.734 -1.19,0 -4.32,0.513 -4.32,4.734 m -3.507,8.693 c -1.19,0 -4.32,0.516 -4.32,4.736 0,4.22 3.13,4.733 4.32,4.733 1.19,0 4.32,-0.513 4.32,-4.733 0,-4.22 -3.13,-4.736 -4.32,-4.736 m -5.197,-4.198 h 1.879 v -3.406 h 3.507 v 3.406 h 1.879 v -8.99 h -1.879 v 4.031 h -3.507 v -4.031 h -1.879 z m -0.602,4.438 h -1.879 v 8.992 h 1.879 z m -7.763,-4.438 h 7.313 v -1.592 h -2.718 v -7.398 h -1.879 v 7.398 h -2.716 z m -8.316,0 h 1.917 v -5.835 c 0,-1.254 0.726,-1.805 1.603,-1.805 1.29,0 1.815,0.627 1.815,1.717 v 5.923 h 1.916 v -5.849 c 0,-2.366 -1.428,-3.38 -3.694,-3.38 -0.826,0 -2.054,0.2 -2.855,1.088 -0.489,0.551 -0.677,1.279 -0.702,2.18 z m -0.188,4.438 h -1.978 l 3.205,8.992 h 2.167 l 3.168,-8.992 h -2.041 l -0.576,1.853 h -3.318 z m -8.878,-13.428 3.206,8.99 h 2.167 l 3.167,-8.99 h -2.04 l -0.576,1.851 h -3.319 l -0.626,-1.851 z m -1.653,22.42 h 1.978 l 3.569,-6.262 h 0.026 v 6.262 h 1.753 v -8.992 h -1.878 l -3.67,6.41 h -0.025 v -6.41 h -1.753 z m -1.553,-8.992 h -2.079 c -0.125,0.426 -0.2,0.889 -0.2,1.816 0,1.226 -0.075,1.702 -1.466,1.702 h -1.941 v -3.518 h -1.841 v 8.992 h 4.547 c 2.392,0 2.829,-1.767 2.829,-2.544 0,-0.987 -0.501,-1.839 -1.389,-2.14 0.739,-0.327 1.138,-0.603 1.138,-2.279 0,-1.317 0,-1.641 0.402,-1.79 z m -7.827,-4.438 h 1.978 l 3.57,-6.262 h 0.025 v 6.262 h 1.753 v -8.99 h -1.878 l -3.67,6.411 h -0.024 v -6.411 h -1.754 z m -9.805,-4.495 c 0,4.22 3.131,4.732 4.32,4.732 1.189,0 4.321,-0.512 4.321,-4.732 0,-4.221 -3.132,-4.734 -4.321,-4.734 -1.189,0 -4.32,0.513 -4.32,4.734 m -2.981,4.495 h 1.879 v -8.992 h -1.879 z m -5.31,-1.592 h -2.717 v 1.592 h 7.314 v -1.592 h -2.718 v -7.398 h -1.879 z m -11.333,-2.903 c 0,4.22 3.131,4.732 4.32,4.732 1.191,0 4.32,-0.512 4.32,-4.732 0,-4.221 -3.129,-4.734 -4.32,-4.734 -1.189,0 -4.32,0.513 -4.32,4.734 m -9.868,4.495 h 2.742 l 1.628,-7.089 h 0.026 l 1.603,7.089 h 2.717 v -8.99 h -1.753 v 7.512 h -0.026 l -1.677,-7.512 h -1.842 l -1.64,7.512 h -0.025 v -7.512 h -1.753 z m 11.746,-4.495 c 0,-2.518 1.428,-3.145 2.442,-3.145 1.015,0 2.443,0.627 2.443,3.145 0,2.516 -1.428,3.141 -2.443,3.141 -1.014,0 -2.442,-0.625 -2.442,-3.141 m 19.624,0 c 0,-2.518 1.428,-3.145 2.442,-3.145 1.014,0 2.442,0.627 2.442,3.145 0,2.516 -1.428,3.141 -2.442,3.141 -1.014,0 -2.442,-0.625 -2.442,-3.141 m 13.725,15.194 c 0,0.477 -0.213,1.178 -1.315,1.178 h -2.342 v -2.406 h 2.205 c 0.976,0 1.452,0.339 1.452,1.228 m 9.493,-12.727 -1.152,-3.558 h 2.291 l -1.114,3.558 z m 6.899,13.427 -1.151,-3.555 h 2.292 l -1.116,3.555 z m 19.787,-5.609 c 1.014,0 2.442,0.627 2.442,3.144 0,2.517 -1.428,3.142 -2.442,3.142 -1.014,0 -2.441,-0.625 -2.441,-3.142 0,-2.517 1.427,-3.144 2.441,-3.144 m 5.385,-10.285 c 0,-2.518 1.428,-3.145 2.442,-3.145 1.014,0 2.442,0.627 2.442,3.145 0,2.516 -1.428,3.141 -2.442,3.141 -1.014,0 -2.442,-0.625 -2.442,-3.141 m 12.448,2.942 h -2.342 v -2.404 h 2.204 c 0.977,0 1.453,0.339 1.453,1.225 0,0.479 -0.213,1.179 -1.315,1.179 m -0.313,9.397 h 2.292 l -1.116,3.555 h -0.024 z" /></g></g></g></g></svg>