<?xml version="1.0" encoding="utf-8"?>
<!-- Generator: Adobe Illustrator 24.0.1, SVG Export Plug-In . SVG Version: 6.00 Build 0)  -->
<svg version="1.1" baseProfile="basic" xmlns="http://www.w3.org/2000/svg" xmlns:xlink="http://www.w3.org/1999/xlink" x="0px"
	 y="0px" viewBox="0 0 1165.8 427" xml:space="preserve">
<style type="text/css">
	.st0{display:none;}
	.st1{display:inline;}
	.st2{display:inline;fill:#E31837;}
	.st3{display:inline;fill:#00467F;}
	.st4{display:inline;fill:#BEC0C2;}
	.st5{display:inline;fill:#FFDD00;}
	.st6{display:inline;fill:#FFFFFF;}
	.st7{fill:#BEC0C2;}
	.st8{fill:#00467F;}
	.st9{fill:#E31837;}
	.st10{fill:#FFDD00;}
	.st11{fill:#FFFFFF;}
</style>
<g id="Layer_2" class="st0">
	<g id="Layer_3">
	</g>
	<g class="st1">
		
			<image style="overflow:visible;" width="821" height="1000" id="Vector_Smart_Object_1_" xlink:href="4FDC5673322643B3.html"  transform="matrix(0.4191 0 0 0.4191 512.5418 -11.2901)">
		</image>
	</g>
</g>
<g id="Layer_1" class="st0">
	<path class="st2" d="M400.8-198.3h5.3l14.5-33.3h-5.4v-7.8h16.3l17.2,41.1h5.2v7.8h-20.7v-6.9h5.4l0,0l-2.9-7.3h-17.3l-2.9,7.3l0,0
		h5.3v6.9h-20V-198.3z M420.9-212h12.4l-6.1-16.6l0,0L420.9-212z"/>
	<path class="st2" d="M457.9-190.5v-7.8h5.4v-33.3h-5.4v-7.8h18.4l13.1,34.5l0,0l13.7-34.5h18.4v7.8h-5.4v33.3h5.4v7.8h-20v-7.8h5.3
		v-28.5l0,0L493-190.5h-6.6l-13.7-36.3l0,0v28.5h5.7v7.8H457.9z"/>
	<path class="st2" d="M563.8-239.3v15h-9.3v-6.8h-12.1v12.3h14.2v7.3h-14.2v12.9h12.1v-6.8h9.3v15h-36.2v-7.7h5.4v-33.3h-5.4v-7.8
		H563.8z"/>
	<path class="st2" d="M570.1-190.5v-7.8h5.2v-33.3h-5.2v-7.8h22.2c6.1,0,10.6,1.5,13.6,4.6c5.5,6.1,6,15.2,1.2,21.8
		c-2,2.9-5.3,4.7-8.9,4.9l7.6,9.7h5.5v7.8h-11.4l-15.4-21.9v14.1h4.2v7.8H570.1z M584.7-230.9v17.6h6.4c3.2,0,5.7-0.9,7.4-2.6
		c1.8-1.7,2.7-4.1,2.6-6.6c0-2.8-0.8-4.9-2.4-6.3c-1.6-1.4-4-2.1-7.1-2.1H584.7z"/>
	<path class="st2" d="M616.8-190.5v-7.8h5.4v-33.3h-5.4v-7.8h20v7.8h-5.2v33.3h5.2v7.8H616.8z"/>
	<path class="st2" d="M678.9-206.7h10c-1.6,5-4.8,9.4-9.2,12.4c-4.3,3.1-9.4,4.8-14.7,4.8c-6.8,0.1-13.2-2.6-17.9-7.6
		c-4.8-4.8-7.4-11.4-7.3-18.2c-0.1-6.7,2.5-13.2,7.3-17.9c4.6-4.9,11.1-7.6,17.8-7.4c6.2,0,11.2,2,15.1,5.9v-4.9h7.8v15.6H679
		c-1.4-2.3-3.4-4.1-5.8-5.3c-6.3-3.4-14.1-2.4-19.3,2.6c-3.1,3-4.7,7.2-4.6,11.5c-0.1,4.2,1.6,8.3,4.6,11.3c2.9,3.1,7,4.8,11.2,4.7
		C670.6-199,676-201.8,678.9-206.7z"/>
	<path class="st2" d="M690.4-198.3h5.2l14.5-33.3h-5.4v-7.8h16.3l17.2,41.1h5.3v7.8h-20.7v-6.9h5.4l0,0l-2.9-7.3H708l-2.9,7.3l0,0
		h5.3v6.9h-20L690.4-198.3z M710.5-212H723l-6.1-16.6l0,0L710.5-212z"/>
	<path class="st3" d="M401.1-134.3h11c-0.1,2.6,0.8,5.1,2.6,7c1.8,1.9,4.3,2.9,6.9,2.8c2.4,0.1,4.7-0.8,6.5-2.4
		c1.8-1.5,2.7-3.8,2.7-6.1c0.1-2.1-0.7-4.2-2.3-5.6c-1.5-1.4-5.4-3-11.6-4.8c-11-3.2-16.5-9.3-16.5-18.4c-0.1-5,2-9.8,5.6-13.1
		c3.7-3.6,8.7-5.5,13.9-5.4c4.8,0,8.4,1.6,10.9,4.9v-3.6h9.3v16.8h-11c0-4.4-3.6-8-8-8c0,0-0.1,0-0.1,0c-2.2-0.1-4.4,0.7-6.1,2.2
		c-1.6,1.4-2.5,3.6-2.4,5.7c0,2.7,0.9,4.7,2.7,5.9c2.7,1.5,5.5,2.7,8.5,3.4c7.2,2,12.2,4.4,15,7.3c2.8,2.9,4.2,6.7,4.2,11.5
		c0.2,5.4-1.9,10.6-5.7,14.4c-3.7,3.8-8.9,5.8-14.2,5.7c-5.2,0-9.3-1.8-12.2-5.4v4.2h-9.7V-134.3z"/>
	<path class="st3" d="M497.3-136.4h13.1c-2.1,6.5-6.3,12.2-12,16.1c-5.5,4-12.2,6.2-19.1,6.2c-8.8,0.2-17.2-3.4-23.2-9.8
		c-6.2-6.3-9.6-14.8-9.5-23.6c-0.1-8.7,3.3-17.1,9.5-23.2c6-6.3,14.4-9.8,23.1-9.7c8,0,14.5,2.6,19.6,7.7v-6.4H509v20.3h-11.5
		c-1.9-2.9-4.5-5.3-7.5-6.9c-8.2-4.4-18.3-3.1-25.1,3.4c-4,3.9-6.2,9.3-6,14.8c-0.1,5.5,2,10.8,5.9,14.7c3.8,4,9.1,6.2,14.5,6.1
		C487.1-126.8,493.1-130,497.3-136.4z"/>
	<path class="st3" d="M514.4-147.3c-0.1-8.9,3.4-17.4,9.8-23.5c6.3-6.3,14.9-9.8,23.8-9.7c8.8-0.1,17.3,3.4,23.4,9.7
		c6.3,6,9.9,14.5,9.7,23.2c0.4,18.4-14.3,33.7-32.7,34.1c-18.4,0.4-33.7-14.3-34.1-32.7C514.4-146.5,514.4-146.9,514.4-147.3z
		 M526.9-147.5c-0.1,5.6,2,11,5.9,15c3.9,4.1,9.2,6.3,14.9,6.2c5.6,0.1,11.1-2.1,15-6.1c4.1-4.1,6.3-9.6,6.1-15.4
		c0.1-5.5-2.2-10.7-6.1-14.4c-3.8-4-9.1-6.2-14.7-6.1c-5.6-0.1-11.1,2.1-15,6.1C529-158.3,526.8-153,526.9-147.5L526.9-147.5z"/>
	<path class="st3" d="M585.6-115.4v-10.1h6.8v-43.2h-6.8v-10.1h28.8c7.9,0,13.8,2,17.7,6c3.9,4,5.9,9.1,5.9,15.5
		c0,4.6-1.4,9.1-4.2,12.9c-2.6,3.8-6.9,6.1-11.5,6.4l9.8,12.5l0,0h7.2v10.1h-14.8l-20-28.4v18.3h5.5v10.1L585.6-115.4z M604.6-167.9
		v22.9h8.2c4.2,0,7.4-1.1,9.7-3.4c2.3-2.3,3.5-5.4,3.4-8.6c0-3.7-1-6.4-3.1-8.2c-2.1-1.8-5.1-2.7-9.2-2.7H604.6z"/>
	<path class="st3" d="M695-178.8v19.5h-12.1v-8.9h-15.7v15.9h18.3v9.5h-18.4v16.8h15.7v-8.9H695v19.5h-47v-10.1h7v-43.2h-7v-10.1
		H695z"/>
	<path class="st3" d="M704.6-134.3h11c-0.1,2.6,0.8,5.1,2.6,7c1.8,1.9,4.3,2.9,6.9,2.8c2.4,0.1,4.7-0.8,6.5-2.4
		c1.8-1.5,2.7-3.8,2.7-6.1c0.1-2.1-0.7-4.2-2.3-5.6c-1.5-1.4-5.4-3-11.6-4.8c-11-3.2-16.4-9.3-16.4-18.4c-0.1-5,1.9-9.8,5.6-13.1
		c3.7-3.6,8.7-5.5,13.9-5.4c4.8,0,8.4,1.6,10.9,4.9v-3.6h9.3v16.8h-11c0-4.4-3.6-8-8-8c0,0-0.1,0-0.1,0c-2.2-0.1-4.4,0.7-6.1,2.2
		c-1.6,1.4-2.5,3.6-2.4,5.7c0,2.7,0.9,4.7,2.7,5.9c2.7,1.5,5.5,2.7,8.5,3.4c7.2,2,12.2,4.4,14.9,7.3s4.2,6.7,4.2,11.5
		c0.2,5.4-1.9,10.6-5.7,14.4c-3.8,3.8-8.9,5.8-14.2,5.7c-5.2,0-9.3-1.8-12.2-5.4v4.2h-9.7V-134.3z"/>
	<path class="st3" d="M461.1-75.2h3.6v-22.9h-3.6v-5.4h15c2.5,0,5,0.2,7,1.8c2.1,1.6,3.3,4.1,3.2,6.7c0.1,3.1-1.6,5.9-4.4,7.2
		c3.6,1.3,6,4.8,5.9,8.7c0,2.7-1.1,5.3-3.2,7.1c-2.3,2-4.9,2.3-7.8,2.3h-15.7V-75.2z M471.2-75.5h3.6c1.5,0,3.4,0,4.7-0.9
		c1.2-0.8,1.9-2.2,1.9-3.7c0-1.5-0.6-2.9-1.8-3.8c-1.4-1-3-1-4.7-1h-3.6L471.2-75.5z M471.2-90.1h3.3c1.6,0,3,0.1,4.3-0.9
		c1.8-1.4,2-4,0.6-5.8c-0.2-0.3-0.5-0.6-0.8-0.8c-1.2-0.8-2.7-0.7-4.1-0.7h-3.3V-90.1z"/>
	<path class="st3" d="M510.6-73.2c-1.8,2.7-4.9,4.2-8.1,4.1c-7.2-0.1-13-5.9-13-13.1c0-7.3,5.9-13.3,13.2-13.4
		c3.2-0.1,6.2,1.6,7.8,4.2v-3.6h9v5.4h-3.2v14.5h3.2v5.4h-9L510.6-73.2z M510.7-82.6c0-4.2-3.4-7.5-7.6-7.5c-4.2,0-7.6,3.5-7.6,7.7
		c0,0,0,0,0,0.1c0,4.1,3.4,7.5,7.5,7.5c4.3,0,7.7-3.4,7.8-7.6C510.8-82.5,510.8-82.6,510.7-82.6L510.7-82.6z"/>
	<path class="st3" d="M538.8-66h3.3v5.4h-12.3V-66h3.2l1.7-4.1L527-89.7h-3.3v-5.4h11.9v5.4h-2.5l4.5,12.3l4.8-12.3h-2.5v-5.4h11.8
		v5.4h-3.2L538.8-66z"/>
	<path class="st3" d="M588.4-74.6h3.7l-2-5.1h-11.8l-1.9,5.1h3.6v4.7h-13.8v-5.4h3.6l9.8-23h-3.7v-5.4h11.3L599-75.3h3.6v5.4h-14.2
		V-74.6z M584.3-96.2L584.3-96.2l-4.3,11.6h8.6L584.3-96.2z"/>
	<path class="st3" d="M615.2-90.8c1.4-2.8,4.4-4.6,7.6-4.6v5.9c-1.8,0-3.6,0.7-5,1.8c-1.9,1.6-2.2,3.6-2.2,6v6.4h3.3v5.4h-12.2v-5.4
		h3.2v-14.5h-3.3v-5.4h8.6L615.2-90.8z"/>
	<path class="st3" d="M650.5-77.3c-2,4.9-6.7,8-11.9,8.1c-7.4-0.2-13.2-6.3-13-13.6c0.2-7.1,5.8-12.8,12.9-13c3.6,0.1,7,1.5,9.5,4.1
		c2.4,2.6,3.7,6,3.5,9.4l-0.2,2h-20.4c0.8,3.5,4,6,7.6,6c2.4,0.1,4.7-1,6.1-3L650.5-77.3z M646.1-84.7c-0.9-3.6-4.2-6.1-7.9-6
		c-3.5,0.1-6.5,2.6-7.4,6H646.1z"/>
	<path class="st3" d="M676.1-73.2c-1.8,2.7-4.9,4.2-8.1,4.1c-7.2,0-13-5.9-13-13.1c0,0,0,0,0,0c0-7.4,5.9-13.3,13.2-13.4
		c3.2-0.1,6.2,1.6,7.8,4.2v-3.6h9v5.4h-3.2v14.5h3.2v5.4h-9L676.1-73.2z M676.2-82.6c0-4.2-3.4-7.5-7.6-7.5c-4.2,0-7.7,3.4-7.7,7.6
		c0,4.2,3.4,7.7,7.6,7.7c4.2,0,7.7-3.4,7.7-7.6C676.2-82.5,676.2-82.5,676.2-82.6z"/>
	<path class="st4" d="M159.8-244.8l-3.5,2.9l-0.3,4.6c-0.1,2.1-2.9,51.2,27.7,104.2c34.2,59.2,73.2,75,77.5,76.6l3.7,1.4l3.7-1.4
		c4.3-1.6,43.3-17.3,77.5-76.6c30.7-53.1,27.8-102.2,27.7-104.3l-0.4-5.1l-4.2-2.9c-4.2-2.9-42.6-28.2-104.3-28.2
		C196.5-273.7,163.4-247.8,159.8-244.8z"/>
	<path class="st4" d="M363.1-236.7c-3.4-2.4-39.4-26.4-98.2-26.4c-65,0-95.5,24.1-98.3,26.4c0,0-3.1,47.4,26.3,98.2
		c32.5,56.2,68.6,70.6,72,71.9l0,0c3.4-1.2,39.5-15.7,72-71.9C366.2-189.3,363.1-236.7,363.1-236.7z"/>
	<path class="st3" d="M264.9-263c-65,0-95.5,24.1-98.3,26.4c0,0-3.1,47.4,26.3,98.2c6.1,10.6,12.9,20.6,20.6,30.1l111-145.9
		C305.1-260.1,285-263.1,264.9-263z"/>
	<path class="st2" d="M264.8-66.5L264.8-66.5c3.4-1.2,39.5-15.7,72-71.9c29.4-50.9,26.2-98.2,26.2-98.2c-2-1.4-15.6-10.4-38.6-17.5
		l-111,145.9C239.1-76.7,262.2-67.5,264.8-66.5z"/>
	<path class="st4" d="M336.6-294.8L318-270.4h0.1c-1.8,2.2-4,5.1-7.1,9.1l-10.1,13.2c0,0-5.1,6.7-35.5,46.3
		c-13.8,18-32.8,42.8-59,77c-5.2,6.8-10.6,13.8-16.3,21.4l-0.5,0.6l-19.5,51.4l42.7-33.9l11.5-15.1l41.1-53.7l57-74.4
		c0,0,4-5.2,11.3-14.7l25.8-34.1L336.6-294.8z"/>
	<path class="st4" d="M182.3-109.4l-0.1,0.1l-0.3,0.3l-0.8,1c-0.2,0.4-14.8,39.8-19.3,51.8c-1.8,5.3-1,9.6,2.2,11.9
		c3.9,2.7,10.2,1.6,15.7-2.8l39.5-31.5C219.6-78.8,373.1-279,373.1-279l-38-29.2L182.3-109.4z"/>
	<path class="st3" d="M336.6-294.8L318-270.4h0.1c-1.8,2.2-4,5.1-7.1,9.1l-10.1,13.2c0,0-5.1,6.7-35.5,46.3v47.7l57-74.4
		c0,0,4-5.2,11.3-14.7l25.8-34.1L336.6-294.8z"/>
	<path class="st3" d="M206.5-124.8c-5.2,6.8-10.6,13.8-16.3,21.4l-0.5,0.6l-19.6,51.4l42.7-33.9l11.5-15.1l41.1-53.7v-47.7
		C251.6-183.7,232.6-158.9,206.5-124.8z"/>
	<polygon class="st5" points="208.8,-89.1 189.7,-73.9 185.8,-77 194.5,-100 310.8,-252 325,-241.1 	"/>
	<polygon class="st6" points="327.4,-244 313.1,-255 329.1,-275.8 343.3,-264.9 	"/>
	<polygon class="st2" points="345.7,-267.9 331.4,-278.8 337.8,-287.1 352,-276.2 	"/>
	<polygon class="st6" points="207.9,-92.4 203.9,-95.5 317.6,-244 321.5,-240.9 	"/>
	<path class="st3" d="M327.9-175.5c0,34.3-27.8,62.2-62.1,62.2c-34.3,0-62.2-27.8-62.2-62.1c0-34.3,27.8-62.2,62.1-62.2c0,0,0,0,0,0
		C300-237.6,327.8-209.8,327.9-175.5z"/>
	<path class="st6" d="M319.5-180.5c0,29.8-24.1,53.9-53.8,53.9s-53.9-24.1-53.9-53.8s24.1-53.9,53.8-53.9c0,0,0,0,0,0
		C295.3-234.3,319.5-210.3,319.5-180.5z"/>
	<path class="st3" d="M314.5-196.6c-1.5-4.7-3.7-9.1-6.5-13.1c-3.5-1.4-7.1-2.3-10.7-2.7c1.4,4.5,2.2,9.1,2.3,13.8
		c0,2.4-0.2,4.8-0.6,7.2c1.7,1.7,3.3,3.5,4.8,5.4c2.8,3.8,4.9,8,6.3,12.4c2.7-2.5,5.1-5.4,7-8.6C316.8-187.1,316-191.9,314.5-196.6"
		/>
	<path class="st3" d="M265.8-231.6c-4.9,0-9.8,0.8-14.5,2.2c-2.4,2.9-4.4,6-5.9,9.4c4.7-0.1,9.4,0.7,13.8,2.1
		c2.3,0.7,4.5,1.6,6.6,2.7c6.3-3.3,13.3-5,20.5-5c-1.6-3.3-3.6-6.5-6-9.4C275.5-231,270.7-231.6,265.8-231.6"/>
	<path class="st3" d="M217.4-196.2c-1.5,4.7-2.3,9.6-2.4,14.5c2,3.1,4.4,6,7.1,8.6c1.4-4.5,3.5-8.7,6.2-12.5c1.4-1.9,3-3.8,4.7-5.5
		c-0.4-2.4-0.6-4.8-0.6-7.2c-0.1-4.7,0.7-9.4,2.2-13.8c-3.7,0.5-7.3,1.5-10.7,2.9C221.1-205.2,218.9-200.8,217.4-196.2"/>
	<path class="st3" d="M236.8-139c4,2.8,8.5,5,13.1,6.4c3.6-1,7-2.5,10.2-4.4c-3.9-2.6-7.3-5.9-10.2-9.6c-1.5-1.9-2.8-3.9-3.9-6
		c-2.4-0.3-4.8-0.8-7.1-1.5c-4.5-1.3-8.8-3.4-12.6-6.1c-0.6,3.7-0.7,7.4-0.3,11.1C229.1-145.1,232.7-141.7,236.8-139"/>
	<path class="st3" d="M296.7-140.7c3.9-3,7.3-6.6,10.2-10.6c0.1-3.7-0.3-7.4-1-11.1c-3.7,2.9-7.8,5.2-12.3,6.8
		c-2.3,0.8-4.6,1.5-7,1.9c-1,2.2-2.2,4.3-3.6,6.3c-2.6,3.9-5.9,7.3-9.6,10.1c3.3,1.7,6.8,3,10.5,3.8
		C288.5-135.3,292.8-137.7,296.7-140.7"/>
	<path class="st2" d="M286.4-186.8c-5.4-6.8-12.3-12.2-20.1-16.1c-7.8,3.9-14.6,9.4-20,16.2c0.5,2.8,1.2,5.6,2.1,8.3
		c1.7,4.9,3.9,9.7,6.6,14.1c3.8,0.7,7.6,1,11.4,1c3.8,0,7.7-0.3,11.5-1c2.7-4.5,4.9-9.2,6.4-14.2
		C285.1-181.2,285.8-183.9,286.4-186.8"/>
	<polygon class="st3" points="211,-87.4 192.7,-101.3 195,-104.3 213.2,-90.4 	"/>
</g>
<g id="Layer_4">
	<path class="st7" d="M9.5,102.1l-5.7,4.7l-0.5,7.4c-0.2,3.3-4.7,82.6,44.6,168.1c55.2,95.5,118,120.9,125,123.4l5.9,2.2l6-2.2
		c7-2.6,69.8-27.9,124.9-123.4c49.5-85.6,44.8-164.8,44.6-168.1l-0.6-8.3l-6.8-4.7c-6.7-4.7-68.7-45.5-168.1-45.5
		C68.7,55.6,15.3,97.3,9.5,102.1z"/>
	<path class="st7" d="M337.2,115.3c-5.5-3.8-63.6-42.5-158.3-42.5c-104.8,0-153.9,38.8-158.4,42.5c0,0-5,76.4,42.4,158.4
		c52.3,90.6,110.6,113.9,116.1,115.9l0,0c5.4-2,63.7-25.3,116.1-115.9C342.3,191.6,337.2,115.3,337.2,115.3z"/>
	<path class="st8" d="M178.9,72.8c-104.8,0-153.9,38.8-158.4,42.5c0,0-5,76.4,42.4,158.4c9.8,17,20.9,33.3,33.2,48.5L274.9,87.1
		C243.8,77.5,211.4,72.7,178.9,72.8z"/>
	<path class="st9" d="M178.9,389.6L178.9,389.6c5.4-2,63.7-25.3,116.1-115.9c47.4-82.1,42.3-158.4,42.3-158.4
		C334,113,312,98.5,275,87L96,322.2C137.3,373.1,174.6,388,178.9,389.6z"/>
	<path class="st7" d="M294.6,21.5l-30.1,39.4h0.2c-2.8,3.5-6.4,8.3-11.4,14.7L237,96.9c0,0-8.3,10.8-57.2,74.7
		c-22.3,29-52.9,69.1-95.1,124.1c-8.3,10.9-17.1,22.3-26.3,34.4l-0.8,1l-31.5,82.9l68.8-54.7l18.6-24.3l66.3-86.6l91.9-119.9
		c0,0,6.4-8.3,18.2-23.6l41.7-55L294.6,21.5z"/>
	<path class="st7" d="M45.8,320.4l-0.1,0.2l-0.5,0.5l-1.3,1.6c-0.4,0.7-23.9,64.1-31.1,83.5c-3,8.6-1.6,15.5,3.5,19.2
		c6.3,4.4,16.5,2.6,25.3-4.5l63.7-50.8C106,369.7,353.3,47,353.3,47L292.1,0L45.8,320.4z"/>
	<path class="st8" d="M294.6,21.5l-30.1,39.4h0.2c-2.8,3.5-6.4,8.3-11.4,14.7L237,96.9c0,0-8.3,10.8-57.2,74.7v77l91.9-119.9
		c0,0,6.4-8.3,18.2-23.6l41.6-55L294.6,21.5z"/>
	<path class="st8" d="M84.8,295.7c-8.3,10.9-17.1,22.3-26.3,34.4l-0.8,1l-31.5,82.9l68.8-54.7l18.6-24.3l66.3-86.6v-77
		C157.6,200.6,126.9,240.7,84.8,295.7z"/>
	<polygon class="st10" points="88.5,353.1 57.7,377.6 51.5,372.7 65.5,335.6 253,90.6 275.9,108.2 	"/>
	<polygon class="st11" points="279.7,103.4 256.7,85.8 282.5,52.1 305.4,69.7 	"/>
	<polygon class="st9" points="309.2,64.9 286.2,47.3 296.5,33.9 319.4,51.5 	"/>
	<polygon class="st11" points="87.1,347.8 80.7,342.9 263.9,103.5 270.2,108.4 	"/>
	<path class="st8" d="M280.5,213.9c0,55.3-44.8,100.2-100.1,100.3c-55.3,0-100.2-44.8-100.3-100.1c0-55.3,44.8-100.2,100.1-100.3
		c0,0,0,0,0,0C235.5,113.8,280.4,158.6,280.5,213.9z"/>
	<path class="st11" d="M267,205.8c0.1,48-38.8,86.9-86.8,87S93.4,254,93.3,206c-0.1-48,38.8-86.9,86.8-87c0,0,0,0,0,0
		C228.1,119,267,157.8,267,205.8z"/>
	<path class="st8" d="M258.9,179.9c-2.5-7.5-6-14.7-10.5-21.2c-5.6-2.2-11.4-3.7-17.3-4.4c2.3,7.2,3.6,14.7,3.7,22.2
		c0,3.9-0.3,7.7-0.9,11.6c2.8,2.7,5.4,5.6,7.7,8.8c4.4,6.1,7.9,12.9,10.1,20c4.4-4.1,8.2-8.7,11.3-13.8
		C262.7,195.2,261.3,187.4,258.9,179.9"/>
	<path class="st8" d="M180.4,123.4c-7.9,0-15.8,1.2-23.4,3.5c-3.8,4.6-7,9.7-9.5,15.1c7.6-0.1,15.1,1.1,22.3,3.4
		c3.7,1.2,7.3,2.6,10.7,4.4c10.2-5.3,21.5-8.1,33-8.1c-2.6-5.4-5.9-10.5-9.7-15.1C196.1,124.5,188.2,123.4,180.4,123.4"/>
	<path class="st8" d="M102.4,180.6c-2.4,7.6-3.6,15.4-3.8,23.3c3.3,5,7.1,9.6,11.4,13.8c2.2-7.2,5.6-14,10.1-20.2
		c2.3-3.1,4.8-6.1,7.6-8.8c-0.6-3.8-1-7.7-1-11.6c-0.1-7.6,1.1-15.1,3.5-22.3c-5.9,0.8-11.8,2.4-17.3,4.6
		C108.3,165.9,104.8,173,102.4,180.6"/>
	<path class="st8" d="M133.6,272.8c6.5,4.5,13.6,8,21.2,10.4c5.7-1.7,11.3-4,16.4-7c-6.2-4.2-11.8-9.4-16.4-15.4
		c-2.4-3-4.5-6.3-6.3-9.7c-3.9-0.5-7.7-1.3-11.4-2.4c-7.3-2.1-14.1-5.4-20.3-9.8c-1,5.9-1.2,12-0.5,18
		C121.3,263,127.1,268.3,133.6,272.8"/>
	<path class="st8" d="M230.3,270c6.3-4.9,11.8-10.6,16.5-17c0.1-6-0.5-12-1.6-17.8c-6,4.7-12.7,8.4-19.8,10.9
		c-3.7,1.3-7.4,2.3-11.3,3c-1.6,3.5-3.5,6.9-5.7,10.1c-4.2,6.3-9.5,11.8-15.5,16.3c5.3,2.7,11,4.8,16.8,6.1
		C217,278.7,223.9,274.8,230.3,270"/>
	<path class="st9" d="M213.6,195.7c-8.8-10.9-19.8-19.7-32.4-25.9C168.7,176,157.7,185,149,196c0.8,4.5,1.9,9,3.4,13.3
		c2.7,8,6.3,15.6,10.7,22.7c6.1,1.1,12.2,1.6,18.4,1.6c6.2,0,12.4-0.5,18.5-1.6c4.3-7.2,7.8-14.9,10.4-22.9
		C211.6,204.7,212.7,200.3,213.6,195.7"/>
	<polygon class="st8" points="92,355.9 62.6,333.5 66.3,328.7 95.7,351.1 	"/>
	<path class="st9" d="M366.9,108.6h11.9l32.9-75.4h-12.2V15.5h37l39,93.1h11.9v17.6h-47v-15.6h12.3l0,0L446,94h-39.2l-6.6,16.7l0,0
		h12v15.6h-45.3V108.6z M412.5,77.5h28.2l-13.9-37.6l0,0L412.5,77.5z"/>
	<path class="st9" d="M496.4,126.2v-17.6h12.2V33.1h-12.2V15.5H538l29.8,78.2l0,0l31-78.2h41.7v17.6h-12.3v75.5h12.3v17.6h-45.3
		v-17.6H607V44l0,0l-31.1,82.2h-15L529.8,44l0,0v64.6h13v17.6H496.4z"/>
	<path class="st9" d="M736.4,15.5v34h-21.2V34h-27.4v27.8h32.1v16.5h-32.1v29.2h27.5V92.1h21.1v34h-82v-17.5h12.3V33.1h-12.3V15.5
		H736.4z"/>
	<path class="st9" d="M750.7,126.2v-17.6h11.9V33.1h-11.9V15.5H801c13.8,0,24.1,3.5,30.9,10.5c12.5,13.7,13.7,34.4,2.8,49.5
		c-4.6,6.6-12,10.7-20.1,11.2l17.3,22h12.5v17.6h-25.8l-34.9-49.6v32h9.6v17.6H750.7z M783.8,34.7v39.9h14.4c7.3,0,12.9-2,16.8-5.9
		c4-4,6.1-9.4,6-15c0-6.4-1.8-11.2-5.4-14.3c-3.6-3.1-9.1-4.7-16.2-4.7H783.8z"/>
	<path class="st9" d="M856.5,126.2v-17.6h12.2V33.1h-12.2V15.5h45.3v17.6H890v75.5h11.9v17.6H856.5z"/>
	<path class="st9" d="M997.4,89.6h22.8c-3.6,11.4-11,21.3-20.9,28.1c-9.7,7.1-21.4,10.9-33.4,10.9c-15.3,0.2-30-6-40.5-17.1
		c-10.8-11-16.8-25.9-16.5-41.3c-0.3-15.2,5.7-29.9,16.6-40.6c10.5-11,25.2-17.1,40.4-16.9c13.9,0,25.3,4.5,34.2,13.4V15h17.6v35.3
		h-20.1c-3.3-5.1-7.8-9.3-13.2-12.1c-14.4-7.7-32.1-5.3-43.9,5.9c-6.9,6.8-10.7,16.3-10.5,26c-0.2,9.6,3.6,18.9,10.3,25.7
		c6.6,7,15.8,10.8,25.4,10.7C978.6,107,990.7,100.5,997.4,89.6z"/>
	<path class="st9" d="M1023.4,108.6h11.9l32.9-75.4H1056V15.5h37l38.9,93.1h11.9v17.6h-47v-15.6h12.2l0,0l-6.6-16.7h-39.1l-6.6,16.7
		l0,0h11.9v15.6h-45.3L1023.4,108.6z M1069,77.5h28.2l-13.8-37.6l0,0L1069,77.5z"/>
	<path class="st8" d="M367.5,253.5h24.8c-0.2,5.8,1.9,11.5,5.8,15.9c4.1,4.2,9.8,6.5,15.7,6.3c5.4,0.1,10.7-1.8,14.8-5.5
		c4-3.5,6.2-8.6,6.1-13.9c0.2-4.8-1.7-9.4-5.1-12.7c-3.4-3.1-12.2-6.8-26.4-10.9c-24.9-7.2-37.3-21.1-37.3-41.7
		c-0.2-11.3,4.4-22.1,12.7-29.8c8.5-8.1,19.8-12.4,31.5-12.2c10.9,0,19.1,3.7,24.8,11.1v-8.1h21v38H431c0-10-8.1-18.1-18.1-18.1
		c-0.1,0-0.2,0-0.3,0c-5-0.1-9.9,1.6-13.7,5c-3.7,3.3-5.8,8.1-5.5,13c0,6.2,2.1,10.7,6.2,13.4c6,3.4,12.5,6.1,19.2,7.8
		c16.3,4.5,27.6,10,33.9,16.5c6.3,6.5,9.5,15.1,9.5,26.1c0.4,12.2-4.3,24-12.9,32.7c-8.5,8.6-20.1,13.2-32.2,12.9
		c-11.9,0-21.1-4.1-27.6-12.2v9.6h-21.9V253.5z"/>
	<path class="st8" d="M585.7,248.9h29.7c-4.8,14.8-14.4,27.6-27.2,36.4c-12.6,9.1-27.7,14-43.2,14c-19.8,0.4-38.9-7.7-52.5-22.2
		c-14.1-14.3-21.8-33.6-21.4-53.6c-0.3-19.8,7.5-38.8,21.6-52.7c13.7-14.3,32.6-22.2,52.4-21.9c18.1,0,32.9,5.8,44.4,17.5V152h22.8
		v46H586c-4.2-6.6-10.1-12-17.1-15.6c-18.6-10.1-41.6-6.9-56.8,7.7c-9,8.8-14,21-13.6,33.6c-0.2,12.4,4.6,24.4,13.4,33.2
		c8.6,9,20.5,14,33,13.8C562.7,270.7,576.3,263.4,585.7,248.9z"/>
	<path class="st8" d="M624.5,224.2c-0.3-20.1,7.7-39.4,22.3-53.3c14.3-14.3,33.8-22.3,54-21.9c20-0.3,39.2,7.6,53.1,21.9
		c14.4,13.7,22.4,32.8,22.1,52.7c0.9,41.8-32.3,76.4-74.1,77.3c-41.8,0.9-76.4-32.3-77.3-74.1C624.4,225.9,624.4,225,624.5,224.2z
		 M652.7,223.8c-0.2,12.7,4.6,24.9,13.4,34c8.7,9.2,21,14.3,33.7,14c12.8,0.3,25.1-4.7,34-13.9c9.2-9.2,14.2-21.8,13.9-34.8
		c0.1-12.4-4.9-24.2-13.8-32.7c-8.7-9-20.7-14-33.3-13.8c-12.8-0.3-25.1,4.8-34,13.9C657.6,199.2,652.6,211.2,652.7,223.8
		L652.7,223.8z"/>
	<path class="st8" d="M785.9,296.4v-22.9h15.4v-98h-15.4v-22.9h65.4c17.9,0,31.2,4.5,40.1,13.6c8.9,9.1,13.3,20.7,13.3,35.1
		c0.1,10.5-3.3,20.7-9.5,29.2c-6,8.6-15.5,13.9-26,14.5l22.3,28.4l0,0h16.3v22.9h-33.6L828.8,232v41.5h12.4v22.9L785.9,296.4z
		 M828.9,177.5v51.9h18.5c9.5,0,16.8-2.6,21.9-7.7c5.2-5.2,7.9-12.2,7.7-19.5c0-8.4-2.3-14.6-7-18.6c-4.7-4.1-11.6-6.1-20.9-6.1
		H828.9z"/>
	<path class="st8" d="M1033.9,152.7v44.2h-27.5v-20.1h-35.6v36.1h41.6v21.5h-41.6v38h35.6v-20.1h27.6v44.2H927.4v-22.9h15.9v-98
		h-15.9v-22.9H1033.9z"/>
	<path class="st8" d="M1055.5,253.5h24.9c-0.2,5.8,1.9,11.5,5.8,15.9c4.1,4.2,9.8,6.5,15.7,6.3c5.4,0.1,10.7-1.8,14.8-5.5
		c4-3.5,6.2-8.6,6-13.9c0.2-4.8-1.6-9.5-5.1-12.7c-3.4-3.1-12.2-6.8-26.4-10.9c-24.8-7.2-37.3-21.1-37.3-41.7
		c-0.2-11.3,4.4-22.1,12.7-29.8c8.5-8.1,19.8-12.4,31.5-12.2c10.9,0,19.1,3.7,24.8,11.1v-8.1h21v38h-24.9c0-10-8.1-18.1-18.1-18.1
		c-0.1,0-0.2,0-0.3,0c-5-0.1-9.9,1.7-13.7,5c-3.7,3.3-5.7,8.1-5.5,13c0,6.2,2.1,10.7,6.2,13.4c6,3.4,12.5,6.1,19.2,7.8
		c16.3,4.5,27.6,10,33.8,16.5c6.2,6.5,9.5,15.1,9.5,26.1c0.4,12.2-4.3,24.1-12.9,32.7c-8.5,8.6-20.2,13.2-32.3,12.9
		c-11.9,0-21.1-4.1-27.6-12.2v9.6h-21.9V253.5z"/>
	<path class="st8" d="M503.7,387.5h8.3v-52h-8.2v-12.2h34c5.7,0,11.3,0.5,15.9,4c4.7,3.6,7.4,9.3,7.2,15.2c0.2,6.9-3.7,13.3-10,16.3
		c8.2,3,13.5,11,13.3,19.7c0,6.2-2.6,12.1-7.2,16.2c-5.1,4.5-11,5.1-17.6,5.1h-35.7V387.5z M526.5,387h8.1c3.4,0,7.6,0,10.6-1.9
		c2.7-1.9,4.3-5,4.3-8.4c0.1-3.4-1.4-6.6-4.2-8.7c-3.1-2.3-6.8-2.3-10.6-2.3h-8.1L526.5,387z M526.5,353.8h7.4
		c3.5,0,6.8,0.2,9.8-1.9c4-3.3,4.6-9.1,1.4-13.1c-0.5-0.7-1.2-1.3-1.9-1.8c-2.7-1.7-6.1-1.5-9.2-1.5h-7.5V353.8z"/>
	<path class="st8" d="M615.9,392c-4.1,6-11.1,9.5-18.4,9.2c-16.3-0.1-29.4-13.5-29.4-29.8c-0.1-16.6,13.3-30.2,29.9-30.4
		c7.2-0.1,13.9,3.5,17.8,9.6v-8.1h20.4v12.2h-7.2v32.8h7.2v12.2h-20.4L615.9,392z M616.1,370.8c-0.1-9.5-7.8-17.1-17.3-17
		c-9.6,0.1-17.3,7.9-17.3,17.5c0,0,0,0.1,0,0.1c0.1,9.4,7.7,16.9,17,17c9.6,0.1,17.5-7.7,17.6-17.3
		C616.2,371,616.2,370.9,616.1,370.8L616.1,370.8z"/>
	<path class="st8" d="M679.7,408.4h7.5v12.2h-27.9v-12.2h7.2l3.9-9.4L653,354.7h-7.5v-12.2h27v12.2h-5.6l10.2,28l10.8-28h-5.6v-12.2
		H709v12.2h-7.2L679.7,408.4z"/>
	<path class="st8" d="M792.1,389h8.5l-4.5-11.4h-26.9l-4.4,11.4h8.3v10.7h-31.2v-12.2h8.1l22.3-52.1h-8.5v-12.2h25.6l26.8,64.3h8.1
		v12.2h-32.2V389z M782.8,340.1h-0.1l-9.7,26.3h19.5L782.8,340.1z"/>
	<path class="st8" d="M852.8,352.3c3.3-6.4,9.9-10.5,17.1-10.4v13.4c-4.2,0-8.2,1.5-11.3,4.2c-4.3,3.6-4.9,8.3-4.9,13.6v14.5h7.4
		v12.2h-27.8v-12.2h7.3v-32.8h-7.4v-12.2h19.5L852.8,352.3z"/>
	<path class="st8" d="M933.1,382.9c-4.5,11-15.1,18.2-27,18.4c-16.7-0.4-29.9-14.2-29.6-30.9c0.3-16.1,13.2-29,29.2-29.5
		c8.1,0.1,15.8,3.4,21.4,9.2c5.4,5.8,8.3,13.5,8,21.4l-0.4,4.5h-46.3c1.9,8,9,13.6,17.1,13.6c5.5,0.3,10.7-2.3,13.8-6.8L933.1,382.9
		z M923.1,366c-2.2-8.1-9.6-13.8-18-13.6c-8,0.2-14.8,5.8-16.7,13.6H923.1z"/>
	<path class="st8" d="M991,392c-4.1,6.1-11.1,9.6-18.4,9.2c-16.4-0.1-29.6-13.4-29.5-29.8c0,0,0,0,0,0c-0.1-16.7,13.3-30.3,30-30.4
		c7.2-0.1,14,3.5,17.8,9.6v-8.1h20.4v12.2h-7.2v32.8h7.2v12.2h-20.4L991,392z M991.2,370.8c-0.1-9.5-7.8-17.1-17.3-17
		c-9.6-0.1-17.4,7.7-17.5,17.3c-0.1,9.6,7.7,17.4,17.3,17.5c9.6,0.1,17.4-7.7,17.5-17.3C991.2,371.1,991.2,371,991.2,370.8z"/>
</g>
</svg>
