<svg width="617" height="700" viewBox="0 0 617 700" fill="none" xmlns="http://www.w3.org/2000/svg">
<path d="M347.65 481.07L347.6 497.21L298.14 525.95L298.19 509.81L347.65 481.07V481.07Z" fill="#0E1744"/>
<path d="M392.79 507.13L392.74 523.28L343.28 552.01L343.33 535.87L392.79 507.13V507.13Z" fill="#0E1744"/>
<path d="M223.65 375.38C223.39 375.27 223.14 375.16 222.88 375.07V375.07C223.14 375.15 223.39 375.26 223.65 375.38Z" fill="#0E1744"/>
<path d="M219.47 373.9C219.68 373.96 219.89 374.02 220.1 374.1C219.887 374.027 219.677 373.967 219.47 373.92V373.9Z" fill="#0E1744"/>
<path d="M222.88 375.05V375.05L222.49 374.89L222.88 375.05Z" fill="#0E1744"/>
<path d="M217.23 373.35C217.003 373.288 216.772 373.238 216.54 373.2V373.2L217.23 373.35Z" fill="#0E1744"/>
<path d="M219.47 373.9V373.9C219.27 373.829 219.066 373.769 218.86 373.72L219.47 373.9Z" fill="#0E1744"/>
<path d="M213.76 372.7C214.62 372.82 215.47 372.97 216.32 373.15C215.48 372.98 214.62 372.83 213.76 372.71V372.7Z" fill="#0E1744"/>
<path d="M216.54 373.19V373.19L216.32 373.14L216.54 373.19Z" fill="#0E1744"/>
<path d="M211 372.4V372.4C210.12 372.33 209.24 372.28 208.36 372.26C209.26 372.28 210.14 372.32 211 372.4Z" fill="#0E1744"/>
<path d="M202.24 372.46L203 372.4L202.24 372.47V372.46Z" fill="#0E1744"/>
<path d="M205.36 372.26V372.26C204.57 372.26 203.79 372.33 203 372.39C203.79 372.34 204.58 372.29 205.36 372.26Z" fill="#0E1744"/>
<path d="M198.67 373C198.8 373 198.91 372.95 199.04 372.94L198.67 373.01V373Z" fill="#0E1744"/>
<path d="M193.35 374.29C193.56 374.22 193.77 374.15 193.99 374.1C193.77 374.16 193.56 374.23 193.35 374.31V374.29Z" fill="#0E1744"/>
<path d="M198.67 373V373L197.76 373.17C198.05 373.08 198.36 373 198.67 373Z" fill="#0E1744"/>
<path d="M187.22 377L186.87 377.21V377.21L187.22 377Z" fill="#0E1744"/>
<path d="M193.35 374.29V374.29L192.83 374.45C193 374.4 193.18 374.35 193.35 374.29Z" fill="#0E1744"/>
<path d="M186.87 377.19V377.19L186.37 377.5L186.87 377.19Z" fill="#0E1744"/>
<path d="M183.34 379.81V379.81C183.194 379.926 183.057 380.053 182.93 380.19L183.34 379.81Z" fill="#0E1744"/>
<path d="M179.83 384.67C179.781 384.773 179.741 384.88 179.71 384.99V384.99C179.75 384.86 179.78 384.76 179.83 384.67Z" fill="#0E1744"/>
<path d="M179.71 385V385C179.661 385.103 179.621 385.21 179.59 385.32L179.71 385Z" fill="#0E1744"/>
<path d="M179.08 388.15C179.07 387.987 179.07 387.823 179.08 387.66C179.08 387.9 179.08 388.15 179.08 388.4V388.15Z" fill="#0E1744"/>
<path d="M235.19 388.56V404.71C235.191 404.089 235.13 403.469 235.01 402.86C234.53 400.26 232.7 396.48 226.91 393.13C226.59 392.95 226.28 392.78 225.91 392.61C225.73 392.5 225.54 392.41 225.36 392.32C225.18 392.23 224.95 392.11 224.74 392.02L223.84 391.62C223.51 391.47 223.18 391.33 222.84 391.2C222.5 391.07 222.33 391 222.08 390.91C221.22 390.59 220.33 390.3 219.43 390.05H219.3C218.95 389.95 218.58 389.85 218.21 389.77L217.86 389.68L216.86 389.45L216.51 389.37C215.6 389.18 214.67 389.02 213.73 388.88C212.79 388.74 211.94 388.66 211.05 388.59H211L209.71 388.51L208.36 388.45H207H205.31C204.96 388.45 204.63 388.45 204.31 388.45C203.99 388.45 203.46 388.45 203.03 388.54C202.76 388.54 202.48 388.54 202.21 388.61H202.04C201.5 388.66 200.95 388.72 200.41 388.8C199.87 388.88 199.48 388.93 199.01 389.02C198.88 389.02 198.76 389.02 198.63 389.08C198.32 389.14 198.01 389.19 197.72 389.26C197.43 389.33 196.89 389.43 196.49 389.53H196.42C196 389.62 195.6 389.72 195.19 389.83C194.78 389.94 194.36 390.06 193.95 390.19L193.03 390.49L192.16 390.78C191.34 391.08 190.55 391.4 189.78 391.78C189.53 391.89 189.28 392 189.03 392.13L188.38 392.46C187.97 392.67 187.57 392.88 187.18 393.11L186.84 393.31C186.62 393.44 186.41 393.58 186.2 393.72C185.897 393.897 185.606 394.094 185.33 394.31L185.24 394.37L184.57 394.86L184.33 395.05C184.1 395.23 183.88 395.42 183.67 395.61C183.635 395.631 183.605 395.658 183.58 395.69C183.49 395.77 183.39 395.84 183.3 395.93L182.96 396.25L182.82 396.39C182.61 396.6 182.42 396.81 182.23 397.01C182.04 397.21 181.81 397.49 181.62 397.73L181.55 397.81L181.3 398.16C181.024 398.521 180.77 398.898 180.54 399.29C180.5 399.351 180.463 399.415 180.43 399.48C180.43 399.56 180.34 399.65 180.3 399.73C180.229 399.849 180.165 399.973 180.11 400.1C180.045 400.216 179.988 400.336 179.94 400.46C179.865 400.616 179.798 400.777 179.74 400.94L179.68 401.08C179.676 401.12 179.676 401.16 179.68 401.2C179.599 401.401 179.535 401.608 179.49 401.82C179.486 401.846 179.486 401.873 179.49 401.9C179.426 402.107 179.373 402.317 179.33 402.53V402.66C179.325 402.7 179.325 402.74 179.33 402.78C179.3 402.912 179.28 403.045 179.27 403.18C179.232 403.368 179.209 403.558 179.2 403.75C179.2 403.92 179.2 404.09 179.2 404.26L179.25 388.38C179.25 388.13 179.25 387.88 179.25 387.64C179.25 387.4 179.25 387.16 179.34 386.92C179.35 386.826 179.367 386.732 179.39 386.64C179.385 386.607 179.385 386.573 179.39 386.54V386.54C179.39 386.35 179.47 386.16 179.52 385.97C179.568 385.746 179.632 385.525 179.71 385.31C179.741 385.2 179.781 385.093 179.83 384.99C179.861 384.88 179.901 384.773 179.95 384.67C180 384.544 180.057 384.42 180.12 384.3C180.145 384.22 180.178 384.143 180.22 384.07C180.31 383.872 180.41 383.678 180.52 383.49C180.54 383.448 180.563 383.408 180.59 383.37V383.37C180.66 383.221 180.74 383.078 180.83 382.94C180.96 382.73 181.1 382.54 181.24 382.33L181.71 381.69C181.92 381.43 182.15 381.16 182.39 380.9C182.63 380.64 182.81 380.44 183.05 380.21C183.177 380.073 183.314 379.946 183.46 379.83V379.83C183.613 379.682 183.773 379.542 183.94 379.41C184.12 379.25 184.3 379.09 184.49 378.94L184.72 378.76C184.93 378.59 185.16 378.44 185.38 378.28C185.426 378.233 185.48 378.196 185.54 378.17C185.77 377.99 186.01 377.83 186.26 377.67C186.33 377.613 186.407 377.566 186.49 377.53L186.99 377.22L187.34 377.01C187.73 376.78 188.13 376.56 188.54 376.36C188.79 376.22 189.05 376.09 189.31 375.97C189.403 375.918 189.5 375.875 189.6 375.84C189.92 375.68 190.25 375.53 190.6 375.4C191.374 375.055 192.165 374.752 192.97 374.49L193.49 374.33C193.7 374.25 193.91 374.18 194.13 374.12C194.52 374 194.9 373.88 195.29 373.78H195.45C195.83 373.67 196.2 373.58 196.59 373.49H196.67L197.9 373.23L198.81 373.06L199.18 372.99C200.23 372.8 201.3 372.66 202.38 372.54V372.54L203.14 372.47C203.93 372.41 204.71 372.37 205.5 372.34H205.83C206.31 372.34 206.83 372.34 207.27 372.34H208.38H208.52C209.4 372.34 210.28 372.41 211.16 372.48V372.48C212.05 372.55 212.93 372.65 213.81 372.78V372.78C214.67 372.9 215.53 373.05 216.37 373.22L216.59 373.27C216.822 373.308 217.053 373.358 217.28 373.42C217.83 373.53 218.37 373.66 218.91 373.81C219.116 373.859 219.32 373.919 219.52 373.99C219.733 374.037 219.943 374.097 220.15 374.17C220.97 374.41 221.77 374.68 222.54 374.98L222.93 375.14C223.19 375.23 223.44 375.34 223.7 375.45C223.96 375.56 224.45 375.77 224.82 375.95C225.19 376.13 225.55 376.3 225.91 376.49C226.27 376.68 226.61 376.86 226.91 377.06C232.71 380.41 234.53 384.19 235.02 386.78C235.132 387.367 235.189 387.963 235.19 388.56V388.56Z" fill="#0E1744"/>
<path d="M268.42 408.84C268.453 408.725 268.476 408.608 268.49 408.49C268.49 408.62 268.49 408.76 268.42 408.89V408.84Z" fill="#0E1744"/>
<path d="M268.8 406C268.8 405.69 268.8 405.37 268.8 405.06V405.34C268.82 405.57 268.82 405.79 268.8 406Z" fill="#0E1744"/>
<path d="M267.43 412.33C267.43 412.24 267.5 412.16 267.53 412.08C267.53 412.18 267.47 412.26 267.43 412.36V412.33Z" fill="#0E1744"/>
<path d="M268.42 408.84V408.89C268.37 409.14 268.31 409.4 268.25 409.66C268.31 409.39 268.38 409.12 268.42 408.84Z" fill="#0E1744"/>
<path d="M267.08 413.24C267.21 412.95 267.32 412.64 267.43 412.33V412.33C267.32 412.66 267.21 413 267.08 413.24Z" fill="#0E1744"/>
<path d="M268.89 388.66L268.84 404.8C268.845 404.89 268.845 404.98 268.84 405.07C268.84 405.38 268.84 405.7 268.84 406.01V406.01C268.84 406.35 268.79 406.7 268.75 407.01C268.756 407.026 268.756 407.044 268.75 407.06C268.75 407.2 268.75 407.33 268.7 407.46C268.7 407.76 268.62 408.06 268.56 408.36C268.564 408.387 268.564 408.414 268.56 408.44C268.546 408.558 268.523 408.675 268.49 408.79C268.49 409.07 268.38 409.34 268.32 409.61C268.26 409.88 268.12 410.42 268 410.82C267.88 411.22 267.75 411.62 267.6 412.03C267.6 412.11 267.54 412.19 267.5 412.28C267.39 412.59 267.28 412.9 267.15 413.19C267.02 413.48 266.88 413.82 266.73 414.13L266.47 414.65C266.34 414.91 266.22 415.18 266.07 415.43C265.92 415.68 265.93 415.69 265.85 415.82V415.82L265.3 416.75C265.067 417.13 264.817 417.51 264.55 417.89C264.33 418.21 264.12 418.52 263.88 418.83C263.64 419.14 263.56 419.26 263.38 419.47C263.29 419.598 263.193 419.722 263.09 419.84C262.058 421.125 260.931 422.332 259.72 423.45V407.31C260.54 406.55 261.3 405.77 262.01 404.98C262.29 404.67 262.56 404.36 262.82 404.04V403.97C263.01 403.76 263.17 403.55 263.34 403.33L263.55 403.05C263.64 402.95 263.71 402.85 263.79 402.75C264.04 402.41 264.28 402.08 264.5 401.75C264.72 401.42 265.02 400.98 265.25 400.6C265.48 400.22 265.63 399.98 265.81 399.67L265.92 399.47C266.17 399.02 266.39 398.58 266.61 398.13C266.71 397.91 266.81 397.71 266.9 397.5C267.11 397.05 267.28 396.61 267.45 396.15C267.53 395.94 267.61 395.73 267.68 395.52L267.86 394.98L268.01 394.49C268.1 394.18 268.19 393.86 268.25 393.56C268.25 393.42 268.32 393.28 268.35 393.13C268.38 392.98 268.42 392.83 268.45 392.69C268.48 392.55 268.45 392.42 268.52 392.29C268.524 392.264 268.524 392.237 268.52 392.21C268.57 391.91 268.62 391.61 268.66 391.31C268.66 391.18 268.66 391.04 268.71 390.91C268.71 390.63 268.77 390.33 268.79 390.03C268.8 389.847 268.8 389.663 268.79 389.48C268.79 389.37 268.79 389.25 268.79 389.14C268.79 389.03 268.89 388.84 268.89 388.66Z" fill="#0E1744"/>
<path d="M263.31 419.53V419.53C263.21 419.65 263.13 419.77 263.02 419.89C263.123 419.775 263.219 419.655 263.31 419.53V419.53Z" fill="#0E1744"/>
<path d="M435.03 508.6L434.99 524.74L415.2 536.25L415.25 520.1L435.03 508.6V508.6Z" fill="#0E1744"/>
<path d="M219.82 423.51C219.16 423.6 218.48 423.67 217.82 423.74V423.74L219.82 423.51Z" fill="#0E1744"/>
<path d="M225.73 422.63C223.843 422.983 221.933 423.27 220 423.49C221.933 423.263 223.843 422.977 225.73 422.63Z" fill="#0E1744"/>
<path d="M210.94 440.33C211.77 440.33 212.61 440.27 213.44 440.22C212.61 440.22 211.77 440.31 210.94 440.34V440.33Z" fill="#0E1744"/>
<path d="M217.82 423.73V423.73L216.12 423.88L217.82 423.73Z" fill="#0E1744"/>
<path d="M198.58 423.89L199.93 424L198.58 423.9V423.89Z" fill="#0E1744"/>
<path d="M204.65 424.22V424.22C203.65 424.22 202.65 424.15 201.65 424.09C202.62 424.15 203.64 424.19 204.65 424.22Z" fill="#0E1744"/>
<path d="M192.59 423.23C193.08 423.3 193.59 423.37 194.07 423.42L192.59 423.24V423.23Z" fill="#0E1744"/>
<path d="M198.58 423.89V423.89C198.16 423.89 197.75 423.82 197.34 423.77L198.58 423.89Z" fill="#0E1744"/>
<path d="M186.42 438.3L186.84 438.39L186.42 438.31V438.3Z" fill="#0E1744"/>
<path d="M185.43 438.09C185.75 438.17 186.09 438.24 186.43 438.3V438.3L185.43 438.09Z" fill="#0E1744"/>
<path d="M239.9 418.87V435.01L238.12 435.63L237.28 435.9C236.36 436.2 235.42 436.49 234.47 436.75L233.26 437.09L232.87 437.19C232.46 437.31 232.03 437.42 231.6 437.52C230.48 437.8 229.35 438.06 228.2 438.29C227.68 438.41 227.2 438.51 226.62 438.61C226.33 438.67 226.03 438.73 225.73 438.77C223.843 439.123 221.933 439.413 220 439.64C219.29 439.73 218.6 439.8 217.9 439.87H217.82L216.12 440.02L214.68 440.13L213.48 440.21C212.86 440.21 212.22 440.28 211.6 440.3H210.98L209.44 440.35H207.37H207.22H205.12H204.36L201.6 440.23H201.4C200.52 440.18 199.65 440.12 198.77 440.05H198.57C196.57 439.877 194.57 439.653 192.57 439.38C190.66 439.11 188.74 438.78 186.87 438.38H186.63L186.45 438.33C186.12 438.27 185.78 438.2 185.45 438.12L184.05 437.8C183.22 437.62 182.39 437.41 181.56 437.18L179.97 436.74C179.35 436.57 178.73 436.39 178.12 436.2L176.92 435.81L175.92 435.48C174.77 435.08 173.63 434.67 172.52 434.23L170.74 433.5L169.8 433.09C169.09 432.77 168.39 432.46 167.7 432.09C167.01 431.72 166.5 431.5 165.91 431.19L165.27 430.85C164.71 430.55 164.15 430.24 163.6 429.92C151.43 422.92 145.34 413.67 145.37 404.45V388.74V388.38C145.37 388.6 145.37 388.81 145.37 389.03C145.355 389.31 145.355 389.59 145.37 389.87C145.37 390.23 145.42 390.58 145.47 390.93C145.823 393.698 146.677 396.378 147.99 398.84C148.17 399.17 148.36 399.52 148.57 399.84C148.78 400.16 149.02 400.61 149.28 400.99C149.54 401.37 149.79 401.76 150.07 402.14C150.35 402.52 150.62 402.91 150.92 403.28C151.22 403.65 151.53 404.02 151.85 404.4C152.17 404.78 152.49 405.12 152.85 405.48C152.85 405.48 152.85 405.48 152.85 405.53C153.19 405.89 153.54 406.25 153.9 406.6C154.26 406.95 154.84 407.49 155.33 407.93L156.08 408.57C156.34 408.8 156.6 409.02 156.87 409.22C157.14 409.42 157.4 409.65 157.68 409.86C158.22 410.28 158.79 410.7 159.37 411.11C160.67 412.02 162.04 412.9 163.52 413.75C164.06 414.07 164.63 414.37 165.19 414.68L165.83 415.02L167.62 415.92L168.22 416.21L169.35 416.72L169.72 416.89C170.03 417.03 170.34 417.17 170.66 417.29L172.44 418.03L172.6 418.09L173.6 418.48L173.85 418.58L174.54 418.83C175.05 419.02 175.54 419.2 176.08 419.36L177.4 419.8L177.84 419.94L178.02 420L178.57 420.17L179.81 420.53H180L180.43 420.65C180.82 420.77 181.21 420.87 181.59 420.97C182.66 421.26 183.74 421.51 184.83 421.76L185.49 421.91C185.723 421.97 185.963 422.02 186.21 422.06H186.45V422.06H186.59C187.05 422.16 187.51 422.25 187.96 422.32L188.33 422.4L189.33 422.57L189.75 422.65L190.9 422.84L192.61 423.1V423.1L194.09 423.28C195.177 423.42 196.267 423.54 197.36 423.64C197.75 423.69 198.15 423.72 198.55 423.75H198.6L199.95 423.85L201.63 423.95C202.63 424.01 203.63 424.05 204.63 424.08H205.82C206.93 424.08 208.04 424.08 209.15 424.08H210H210.84H211L213 423.99L214.1 423.93H214.3H214.68H214.98L216.12 423.84H216.59L217.82 423.73C218.45 423.66 219.1 423.6 219.73 423.51H219.82H220C220.64 423.44 221.28 423.36 221.91 423.27C222.54 423.18 223.38 423.06 224.11 422.93L225.73 422.65L226.73 422.45C227.38 422.34 228.03 422.21 228.67 422.06L229 422L229.52 421.89C230.2 421.74 230.87 421.58 231.52 421.41C232.17 421.24 232.85 421.08 233.52 420.9L234.47 420.63L235.08 420.45L235.48 420.34L237.28 419.78H237.4C238.25 419.45 239.08 419.17 239.9 418.87Z" fill="#0E1744"/>
<path d="M323.75 467.28L309.79 475.39L239.86 435.01L239.9 418.87L323.75 467.28V467.28Z" fill="#0E1744"/>
<path d="M368.89 493.34L354.94 501.45L347.6 497.21L347.65 481.07L368.89 493.34V493.34Z" fill="#0E1744"/>
<path d="M298.19 509.81L298.14 525.95L274.25 512.16L274.3 496.01L298.19 509.81V509.81Z" fill="#0E1744"/>
<path d="M415.25 520.1L415.2 536.25L392.74 523.28L392.79 507.13L415.25 520.1V520.1Z" fill="#0E1744"/>
<path d="M343.33 535.87L343.28 552.01L319.38 538.22L319.43 522.08L343.33 535.87V535.87Z" fill="#0E1744"/>
<path fill-rule="evenodd" clip-rule="evenodd" d="M267.58 411.93L259.69 407.37C260.51 406.61 261.27 405.83 261.98 405.04C262.26 404.73 262.53 404.42 262.79 404.1V404.03C262.951 403.853 263.102 403.666 263.24 403.47L263.3 403.38C263.345 403.342 263.386 403.298 263.42 403.25L263.52 403.11C263.58 403.043 263.631 402.977 263.682 402.91C263.708 402.877 263.733 402.843 263.76 402.81C264.01 402.47 264.25 402.14 264.47 401.81C264.508 401.752 264.549 401.691 264.592 401.628C264.793 401.328 265.03 400.974 265.22 400.66C265.266 400.584 265.309 400.514 265.349 400.447L265.406 400.354C265.541 400.132 265.653 399.948 265.78 399.73L265.89 399.53C266.12 399.11 266.33 398.7 266.53 398.28C266.65 398.04 266.76 397.8 266.87 397.56L266.87 397.56L266.894 397.507L266.895 397.506C266.982 397.316 266.994 397.29 267.04 397.17C267.18 396.86 267.3 396.53 267.42 396.17C267.464 396.059 267.503 395.948 267.541 395.841L267.541 395.841C267.554 395.803 267.567 395.766 267.58 395.73C267.848 394.98 268.072 394.216 268.25 393.44C268.44 392.635 268.587 391.821 268.69 391C268.695 390.977 268.695 390.953 268.69 390.93C268.69 390.708 268.714 390.482 268.738 390.257C268.755 390.097 268.772 389.938 268.78 389.78C269.35 380.19 263.28 370.47 250.6 363.14C226.4 349.14 187.3 349.14 163.26 363.14C151.26 370.14 145.26 379.29 145.33 388.45V388.68C145.325 388.777 145.325 388.873 145.33 388.97V389.81V390.08C145.33 390.35 145.33 390.62 145.41 390.87C145.763 393.638 146.617 396.318 147.93 398.78C148.11 399.12 148.31 399.46 148.51 399.78C148.583 399.897 148.664 400.031 148.749 400.172C148.898 400.419 149.061 400.689 149.22 400.93C149.47 401.31 149.73 401.7 150.01 402.08C150.074 402.167 150.138 402.255 150.203 402.342L150.203 402.343C150.419 402.638 150.636 402.935 150.86 403.22C151.15 403.59 151.47 403.97 151.79 404.34C152.11 404.71 152.43 405.06 152.79 405.42V405.47C153.13 405.83 153.48 406.18 153.84 406.54L153.84 406.54L153.84 406.54C154.2 406.9 154.78 407.43 155.27 407.87L156.02 408.51L156.81 409.16L157.62 409.8C158.16 410.21 158.73 410.64 159.31 411.05C160.61 411.96 161.98 412.84 163.46 413.69C163.839 413.915 164.233 414.129 164.627 414.344C164.795 414.436 164.963 414.528 165.13 414.62L165.77 414.96L167.56 415.86L168.16 416.15L169.29 416.66C169.73 416.86 170.16 417.05 170.6 417.23L172.38 417.97L172.54 418.03L173.54 418.42L174.48 418.77C174.99 418.96 175.48 419.14 176.02 419.3L177.34 419.74L177.78 419.88L178.51 420.11L179.75 420.47H180L180.43 420.59L181.59 420.91C182.66 421.2 183.74 421.45 184.83 421.7L185.49 421.85C185.72 421.91 185.97 421.96 186.21 422H186.45H186.59L188.33 422.34L189.33 422.51L189.75 422.59L190.9 422.78L192.61 423.04C193.1 423.11 193.61 423.18 194.09 423.23C195.177 423.37 196.267 423.49 197.36 423.59C197.75 423.64 198.15 423.67 198.55 423.7H198.6L199.95 423.8L201.63 423.9C202.63 423.96 203.63 424 204.63 424.03H205.82H209.15H210H211L213 423.94L214.1 423.88H214.68H214.98L216.12 423.79H216.59L217.82 423.68C217.993 423.661 218.167 423.642 218.341 423.624C218.805 423.575 219.273 423.525 219.73 423.46H219.82H220C220.64 423.39 221.28 423.31 221.91 423.22L222.47 423.13L223.06 423.04L224.11 422.88L225.73 422.6L226.73 422.4C227.38 422.29 228.03 422.15 228.67 422.01L229 422L229.52 421.89C230.075 421.768 230.623 421.632 231.16 421.499L231.161 421.499C231.281 421.469 231.401 421.439 231.52 421.41C232.17 421.25 232.85 421.08 233.52 420.9L235.08 420.45L235.48 420.34L235.48 420.34L235.48 420.34C236.08 420.16 236.68 419.98 237.28 419.78H237.4C238.24 419.51 239.07 419.23 239.89 418.93L323.74 467.34L309.74 475.45L274.3 496L298.19 509.8L347.65 481.06L368.89 493.33L354.94 501.44L319.43 522.07L343.33 535.86L392.78 507.13L415.24 520.13L435 508.6L267.58 411.93ZM231.49 396.62L231.03 397.06C229.813 398.181 228.471 399.157 227.03 399.97C225.438 400.9 223.764 401.684 222.03 402.31C216.295 404.268 210.226 405.064 204.18 404.65C198.299 404.376 192.556 402.776 187.38 399.97C185.687 399.029 184.135 397.854 182.77 396.48C180.591 394.444 179.28 391.647 179.11 388.67C179.1 388.503 179.1 388.337 179.11 388.17V388.11C179.122 387.623 179.179 387.137 179.28 386.66C179.271 386.61 179.271 386.56 179.28 386.51C179.306 386.327 179.346 386.147 179.4 385.97C179.433 385.825 179.473 385.681 179.52 385.54C179.553 385.393 179.6 385.249 179.66 385.11C179.672 385.062 179.689 385.015 179.71 384.97C179.721 384.917 179.741 384.866 179.77 384.82C179.808 384.71 179.855 384.603 179.91 384.5C179.943 384.418 179.979 384.338 180.02 384.26C180.038 384.197 180.065 384.136 180.1 384.08C180.584 383.079 181.196 382.144 181.92 381.3C182.08 381.11 182.25 380.91 182.43 380.72L182.93 380.21L183.12 380.03L183.32 379.85C183.95 379.276 184.618 378.745 185.32 378.26L185.4 378.2C185.44 378.168 185.483 378.141 185.53 378.12C185.729 377.966 185.936 377.823 186.15 377.69C186.271 377.607 186.398 377.534 186.53 377.47L186.88 377.24L187.23 377.03L187.368 376.952C187.62 376.808 187.868 376.667 188.13 376.54C188.888 376.123 189.669 375.749 190.47 375.42C191.06 375.16 191.67 374.92 192.28 374.71C192.443 374.641 192.606 374.587 192.763 374.536L192.84 374.51C192.869 374.501 192.901 374.501 192.93 374.51H193.07C193.163 374.47 193.26 374.439 193.36 374.42C193.57 374.34 193.78 374.27 194 374.21L194.138 374.168C194.48 374.062 194.816 373.958 195.16 373.87C196.16 373.59 197.16 373.37 198.22 373.17L198.68 373.09H198.86C199.8 372.92 200.74 372.78 201.69 372.68L202.25 372.62L203.01 372.55C203.8 372.49 204.58 372.45 205.37 372.42H205.59H207.14H208.25H208.39C209.143 372.42 209.893 372.46 210.64 372.54C210.77 372.53 210.9 372.53 211.03 372.54C211.92 372.61 212.8 372.71 213.68 372.84L214.12 372.91C214.84 373.02 215.54 373.13 216.24 373.28L216.46 373.33L217.13 373.47C217.69 373.58 218.24 373.72 218.78 373.87C218.986 373.919 219.19 373.979 219.39 374.05C219.603 374.097 219.813 374.157 220.02 374.23C220.84 374.47 221.63 374.74 222.41 375.04L222.8 375.2C222.934 375.238 223.065 375.288 223.19 375.35C224.441 375.859 225.657 376.45 226.83 377.12C232.63 380.47 234.45 384.25 234.94 386.84C235.061 387.449 235.118 388.069 235.11 388.69C234.981 391.704 233.683 394.548 231.49 396.62ZM183.12 380.02L183.23 379.91L183.32 379.84L183.12 380.02Z" fill="#FDB455"/>
<path d="M220.52 0L616.63 230.19L396.11 357.51L0 127.32L220.52 0V0Z" fill="#4F6EF7"/>
<path d="M616.63 230.19L616.74 269.54L396.22 396.86L396.11 357.51L616.63 230.19V230.19Z" fill="#0E1744"/>
<path d="M396.11 357.51L396.22 396.86L0.11 166.67L0 127.32L396.11 357.51V357.51Z" fill="#3753E3"/>
<path d="M565.52 227.43L393.25 326.88L51.86 129.78L224.13 30.32L565.52 227.43V227.43Z" fill="#FAFCFF"/>
<path d="M501.81 243.33L420.81 290.1L415.15 286.83L496.15 240.07L501.81 243.33V243.33Z" fill="#0E1744"/>
<path d="M369.21 166.78L288.22 213.54L231.47 180.78L312.47 134.02L369.21 166.78V166.78Z" fill="#4F6EF7"/>
<path d="M335.17 217.86L326.79 213L326.49 213.18L329.36 216.09L327.28 217.29L327.08 217.18L323.62 213.58L327.88 211.12L337.35 216.59L340.22 214.93L342.3 216.13L334 221L331.92 219.8L335.17 217.86Z" fill="#0C204E"/>
<path d="M338.44 202.66L340.91 201.92L351.06 213.47L348.57 214.22L338.44 202.66Z" fill="#0C204E"/>
<path d="M360.32 203.35L351.94 198.5L351.64 198.68L354.51 201.59L352.43 202.79L352.23 202.68L348.77 199.08L353.03 196.62L362.5 202.09L365.37 200.43L367.45 201.63L359.13 206.43L357.05 205.23L360.32 203.35Z" fill="#0C204E"/>
<path d="M377.73 193.29L379.81 194.49L371.69 199.18L369.41 197.87C368.914 197.614 368.481 197.252 368.14 196.81C367.902 196.506 367.788 196.124 367.82 195.74C367.879 195.328 368.044 194.938 368.3 194.61C368.63 194.175 369.002 193.773 369.41 193.41C369.691 193.167 369.943 192.892 370.16 192.59C370.292 192.4 370.375 192.18 370.4 191.95C370.4 191.766 370.333 191.588 370.21 191.45C370.043 191.278 369.851 191.133 369.64 191.02C369.135 190.746 368.564 190.618 367.99 190.65C367.333 190.662 366.691 190.848 366.13 191.19C365.5 191.55 365.19 191.95 365.2 192.38C365.21 192.81 365.54 193.23 366.2 193.61L366.93 194.03L364.75 195.29L363.83 194.76C363.342 194.496 362.913 194.135 362.57 193.7C362.293 193.351 362.132 192.925 362.11 192.48C362.108 192.022 362.263 191.577 362.55 191.22C362.941 190.715 363.436 190.299 364 190C364.667 189.614 365.383 189.321 366.13 189.13C366.813 188.954 367.515 188.856 368.22 188.84C368.87 188.83 369.519 188.904 370.15 189.06C370.707 189.193 371.243 189.405 371.74 189.69L371.94 189.8C372.734 190.139 373.323 190.832 373.53 191.67C373.63 192.35 373.2 193.13 372.26 194C371.93 194.308 371.626 194.643 371.35 195C371.176 195.198 371.053 195.434 370.99 195.69C370.948 195.871 370.988 196.061 371.1 196.21C371.241 196.381 371.415 196.524 371.61 196.63L371.81 196.74L377.73 193.29Z" fill="#0C204E"/>
<path d="M339.77 167.43L289.34 196.54L284.76 193.9L335.18 164.78L339.77 167.43V167.43Z" fill="#60EACD"/>
<ellipse cx="578.854" cy="271.095" rx="3.2913" ry="1.89651" transform="rotate(-60.1135 578.854 271.095)" fill="#3753E3"/>
<ellipse cx="568.765" cy="278.589" rx="3.28" ry="1.89" transform="rotate(-60 568.765 278.589)" fill="#3753E3"/>
<ellipse cx="559.612" cy="283.873" rx="3.28" ry="1.89" transform="rotate(-60 559.612 283.873)" fill="#3753E3"/>
<ellipse cx="550.466" cy="289.154" rx="3.28" ry="1.89" transform="rotate(-60 550.466 289.154)" fill="#3753E3"/>
<ellipse cx="482.915" cy="328.149" rx="3.28" ry="1.89" transform="rotate(-60 482.915 328.149)" fill="#3753E3"/>
<ellipse cx="473.898" cy="333.361" rx="3.28" ry="1.89" transform="rotate(-60 473.898 333.361)" fill="#3753E3"/>
<ellipse cx="464.761" cy="338.636" rx="3.28" ry="1.89" transform="rotate(-60 464.761 338.636)" fill="#3753E3"/>
<ellipse cx="455.608" cy="343.92" rx="3.28" ry="1.89" transform="rotate(-60 455.608 343.92)" fill="#3753E3"/>
<path d="M504.38 318.91L529 304.7C530.465 303.657 531.346 301.978 531.37 300.18V300.18C531.37 298.44 530.31 297.64 529 298.4L504.38 312.61C502.923 313.659 502.048 315.335 502.02 317.13V317.13C502 318.87 503.08 319.67 504.38 318.91Z" fill="#3753E3"/>
<path d="M82.67 199.37L64.58 188.93C63.0622 187.841 62.1497 186.098 62.12 184.23V184.23C62.12 182.41 63.22 181.58 64.58 182.37L82.67 192.81C84.1903 193.897 85.1035 195.641 85.13 197.51V197.51C85.13 199.32 84 200.15 82.67 199.37Z" fill="#4F6EF7"/>
<path d="M118.76 220.31L100.68 209.86C99.1597 208.773 98.2465 207.029 98.22 205.16V205.16C98.22 203.35 99.32 202.52 100.68 203.3L118.76 213.74C120.281 214.831 121.193 216.579 121.22 218.45V218.45C121.22 220.26 120.12 221.09 118.76 220.31Z" fill="#4F6EF7"/>
<path d="M396.22 396.86V699.54L55.92 501.83L0 166.67L396.22 396.86V396.86Z" fill="url(#paint0_linear_0_3)"/>
<path d="M396.22 396.86V699.54L559.57 605.19L616.74 269.54L396.22 396.86V396.86Z" fill="url(#paint1_linear_0_3)"/>
<path d="M565.52 227.43L393.25 326.88L51.86 129.78L224.13 30.32L565.52 227.43V227.43Z" fill="url(#paint2_linear_0_3)"/>
<defs>
<linearGradient id="paint0_linear_0_3" x1="196.448" y1="196.828" x2="5.50686" y2="374.095" gradientUnits="userSpaceOnUse">
<stop stop-color="#84ECD3"/>
<stop offset="1" stop-color="#84ECD3" stop-opacity="0.01"/>
</linearGradient>
<linearGradient id="paint1_linear_0_3" x1="316.854" y1="472.456" x2="571.476" y2="580.046" gradientUnits="userSpaceOnUse">
<stop stop-color="#84ECD3"/>
<stop offset="1" stop-color="#84ECD3" stop-opacity="0.01"/>
</linearGradient>
<linearGradient id="paint2_linear_0_3" x1="-470.6" y1="415.145" x2="348.82" y2="415.145" gradientUnits="userSpaceOnUse">
<stop stop-color="#3753E3"/>
<stop offset="1" stop-color="#3753E3" stop-opacity="0.01"/>
</linearGradient>
</defs>
</svg>
