<svg id="Layer_1" data-name="Layer 1" xmlns="http://www.w3.org/2000/svg" viewBox="0 0 595.27551 841.88977"><defs><style>.cls-1,.cls-7{fill:#264fa8;}.cls-1,.cls-10,.cls-11,.cls-2,.cls-3,.cls-4,.cls-5,.cls-6,.cls-8,.cls-9{fill-rule:evenodd;}.cls-2{fill:#3166cb;}.cls-3{fill:#14296e;}.cls-4{fill:#1d3c8a;}.cls-5{fill:#214497;}.cls-6{fill:#23499f;}.cls-8{fill:#22469a;}.cls-9{fill:#254ca4;}.cls-10{fill:#3165c9;}.cls-11{fill:#2d5ebf;}</style></defs><title>05-Blue</title><polygon class="cls-1" points="0 744.035 347.592 744.035 347.592 841.89 0 841.89 0 744.035 0 744.035"/><polygon class="cls-2" points="347.592 595.216 595.276 595.216 595.276 841.89 347.592 841.89 347.592 595.216 347.592 595.216"/><polygon class="cls-3" points="297.638 595.216 446.457 744.035 297.638 744.035 148.819 744.035 50.964 841.89 0 841.89 0 744.035 0 595.216 297.638 595.216 297.638 595.216"/><polygon class="cls-4" points="446.457 744.035 544.312 841.89 348.602 841.89 446.457 744.035 446.457 744.035"/><polygon class="cls-5" points="347.607 595.231 347.592 645.171 297.668 595.246 347.607 595.231 347.607 595.231"/><polygon class="cls-6" points="148.818 607.757 285.096 607.757 297.638 595.215 148.818 595.215 148.818 607.757 148.818 607.757"/><polygon class="cls-6" points="148.818 631.458 261.395 631.458 273.936 618.917 148.818 618.917 148.818 631.458 148.818 631.458"/><polygon class="cls-6" points="148.818 655.159 237.694 655.159 250.235 642.618 148.818 642.618 148.818 655.159 148.818 655.159"/><polygon class="cls-6" points="148.818 678.861 213.992 678.861 226.534 666.319 148.818 666.319 148.818 678.861 148.818 678.861"/><polygon class="cls-6" points="148.818 702.562 190.291 702.562 202.833 690.021 148.818 690.021 148.818 702.562 148.818 702.562"/><polygon class="cls-6" points="148.818 726.263 166.59 726.263 179.131 713.722 148.818 713.722 148.818 726.263 148.818 726.263"/><polygon class="cls-6" points="155.43 737.423 148.818 737.423 148.818 744.035 155.43 737.423 155.43 737.423"/><path class="cls-2" d="M378.3186,827.86192a1.78428,1.78428,0,1,1-1.78412,1.78443,1.78432,1.78432,0,0,1,1.78412-1.78443Zm15.17328,0a1.78428,1.78428,0,1,1-1.78412,1.78443,1.78447,1.78447,0,0,1,1.78412-1.78443Zm15.17331,0a1.78428,1.78428,0,1,1-1.78412,1.78443,1.7843,1.7843,0,0,1,1.78412-1.78443Zm15.17328,0a1.78428,1.78428,0,1,1-1.78415,1.78443,1.78429,1.78429,0,0,1,1.78415-1.78443Zm15.17331,0a1.78428,1.78428,0,1,1-1.78412,1.78443,1.78431,1.78431,0,0,1,1.78412-1.78443Zm15.17325,0a1.78428,1.78428,0,1,1-1.78412,1.78443,1.78432,1.78432,0,0,1,1.78412-1.78443Zm15.17331,0a1.78428,1.78428,0,1,1-1.78412,1.78443,1.7843,1.7843,0,0,1,1.78412-1.78443Zm15.17331,0a1.78428,1.78428,0,1,1-1.78412,1.78443,1.78427,1.78427,0,0,1,1.78412-1.78443Zm15.17325,0a1.78428,1.78428,0,1,1-1.78412,1.78443,1.7843,1.7843,0,0,1,1.78412-1.78443Zm15.17333,0a1.78428,1.78428,0,1,1-1.78411,1.78443,1.78432,1.78432,0,0,1,1.78411-1.78443Z" transform="translate(0 0.11)"/><polygon class="cls-3" points="565.866 718.674 565.866 718.674 565.866 748.084 595.276 748.084 595.276 777.493 565.866 777.493 565.866 748.084 536.457 748.084 536.457 718.835 536.457 718.835 536.457 689.426 565.866 689.426 565.866 660.016 595.276 660.016 595.276 689.426 565.866 689.426 565.866 718.674 565.866 718.674"/><path class="cls-7" d="M64.9953,702.93623a33.42273,33.42273,0,1,1,23.63187-9.78912,33.31755,33.31755,0,0,1-23.63187,9.78912ZM53.17851,681.33174a16.71233,16.71233,0,1,0-4.894-11.81653,16.65937,16.65937,0,0,0,4.894,11.81653Z" transform="translate(0 0.11)"/><polygon class="cls-3" points="0 0 297.638 0 297.638 297.638 0 297.638 0 0 0 0"/><polygon class="cls-2" points="148.819 297.638 446.457 297.638 446.457 595.276 0 595.276 0 297.638 0 148.819 148.819 297.638 148.819 297.638"/><polygon class="cls-8" points="297.638 0 446.457 0 446.457 297.638 297.638 297.638 148.819 297.638 297.638 148.819 297.638 0 297.638 0"/><polygon class="cls-3" points="446.457 0 595.276 0 595.276 446.457 446.457 446.457 446.457 297.638 297.638 297.638 446.457 148.819 446.457 0 446.457 0"/><polygon class="cls-9" points="595.276 595.276 446.457 595.276 446.457 446.457 595.276 297.638 595.276 595.276 595.276 595.276"/><path class="cls-2" d="M28.89154,32.79967a1.13074,1.13074,0,1,1-1.13074,1.13074,1.13075,1.13075,0,0,1,1.13074-1.13074Zm9.61542,0a1.13074,1.13074,0,1,1-1.1305,1.13074,1.131,1.131,0,0,1,1.1305-1.13074Zm9.61566,0a1.13074,1.13074,0,1,1-1.13074,1.13074,1.13071,1.13071,0,0,1,1.13074-1.13074Zm9.61571,0a1.13074,1.13074,0,1,1-1.13074,1.13074,1.13075,1.13075,0,0,1,1.13074-1.13074Zm9.61538,0A1.13074,1.13074,0,1,1,66.223,33.93041a1.13072,1.13072,0,0,1,1.13075-1.13074Zm9.61571,0a1.13074,1.13074,0,1,1-1.13075,1.13074,1.13075,1.13075,0,0,1,1.13075-1.13074Zm9.61539,0a1.13074,1.13074,0,1,1-1.13046,1.13074,1.13073,1.13073,0,0,1,1.13046-1.13074Zm9.61568,0a1.13074,1.13074,0,1,1-1.13073,1.13074,1.13072,1.13072,0,0,1,1.13073-1.13074Zm9.61541,0a1.13074,1.13074,0,1,1-1.13048,1.13074,1.13073,1.13073,0,0,1,1.13048-1.13074Zm9.61568,0a1.13074,1.13074,0,1,1-1.13074,1.13074,1.13074,1.13074,0,0,1,1.13074-1.13074Zm-86.54,11.45019A1.13074,1.13074,0,1,1,27.7608,45.3806a1.13083,1.13083,0,0,1,1.13074-1.13074Zm9.61542,0a1.13074,1.13074,0,1,1-1.1305,1.13074,1.13106,1.13106,0,0,1,1.1305-1.13074Zm9.61566,0a1.13074,1.13074,0,1,1-1.13074,1.13074,1.13079,1.13079,0,0,1,1.13074-1.13074Zm9.61571,0a1.13074,1.13074,0,1,1-1.13074,1.13074,1.13083,1.13083,0,0,1,1.13074-1.13074Zm9.61538,0A1.13074,1.13074,0,1,1,66.223,45.3806a1.1308,1.1308,0,0,1,1.13075-1.13074Zm9.61571,0a1.13074,1.13074,0,1,1-1.13075,1.13074,1.13083,1.13083,0,0,1,1.13075-1.13074Zm9.61539,0a1.13074,1.13074,0,1,1-1.13046,1.13074,1.13081,1.13081,0,0,1,1.13046-1.13074Zm9.61568,0a1.13074,1.13074,0,1,1-1.13073,1.13074,1.1308,1.1308,0,0,1,1.13073-1.13074Zm9.61541,0a1.13074,1.13074,0,1,1-1.13048,1.13074,1.13082,1.13082,0,0,1,1.13048-1.13074Zm9.61568,0a1.13074,1.13074,0,1,1-1.13074,1.13074,1.13083,1.13083,0,0,1,1.13074-1.13074Zm-86.54,11.45032A1.13077,1.13077,0,1,1,27.7608,56.831a1.1308,1.1308,0,0,1,1.13074-1.1308Zm9.61542,0a1.13077,1.13077,0,1,1-1.1305,1.1308,1.131,1.131,0,0,1,1.1305-1.1308Zm9.61566,0a1.13077,1.13077,0,1,1-1.13074,1.1308,1.13077,1.13077,0,0,1,1.13074-1.1308Zm9.61571,0a1.13077,1.13077,0,1,1-1.13074,1.1308,1.13081,1.13081,0,0,1,1.13074-1.1308Zm9.61538,0A1.13077,1.13077,0,1,1,66.223,56.831a1.13078,1.13078,0,0,1,1.13075-1.1308Zm9.61571,0a1.13077,1.13077,0,1,1-1.13075,1.1308,1.1308,1.1308,0,0,1,1.13075-1.1308Zm9.61539,0a1.13077,1.13077,0,1,1-1.13046,1.1308,1.13079,1.13079,0,0,1,1.13046-1.1308Zm9.61568,0a1.13077,1.13077,0,1,1-1.13073,1.1308,1.13078,1.13078,0,0,1,1.13073-1.1308Zm9.61541,0a1.13077,1.13077,0,1,1-1.13048,1.1308,1.13079,1.13079,0,0,1,1.13048-1.1308Zm9.61568,0a1.13077,1.13077,0,1,1-1.13074,1.1308,1.1308,1.1308,0,0,1,1.13074-1.1308Zm-86.54,11.45032A1.13062,1.13062,0,1,1,27.7608,68.281a1.13054,1.13054,0,0,1,1.13074-1.13049Zm9.61542,0a1.13062,1.13062,0,1,1-1.1305,1.13049A1.13077,1.13077,0,0,1,38.507,67.1505Zm9.61566,0A1.13062,1.13062,0,1,1,46.99188,68.281a1.1305,1.1305,0,0,1,1.13074-1.13049Zm9.61571,0A1.13062,1.13062,0,1,1,56.60759,68.281a1.13054,1.13054,0,0,1,1.13074-1.13049Zm9.61538,0A1.13062,1.13062,0,1,1,66.223,68.281a1.13051,1.13051,0,0,1,1.13075-1.13049Zm9.61571,0A1.13062,1.13062,0,1,1,75.83867,68.281a1.13054,1.13054,0,0,1,1.13075-1.13049Zm9.61539,0A1.13062,1.13062,0,1,1,85.45435,68.281a1.13052,1.13052,0,0,1,1.13046-1.13049Zm9.61568,0A1.13062,1.13062,0,1,1,95.06976,68.281a1.13051,1.13051,0,0,1,1.13073-1.13049Zm9.61541,0a1.13062,1.13062,0,1,1-1.13048,1.13049,1.13053,1.13053,0,0,1,1.13048-1.13049Zm9.61568,0a1.13062,1.13062,0,1,1-1.13074,1.13049,1.13054,1.13054,0,0,1,1.13074-1.13049Zm-86.54,11.45032a1.13055,1.13055,0,1,1-1.13074,1.13037,1.13048,1.13048,0,0,1,1.13074-1.13037Zm9.61542,0a1.13055,1.13055,0,1,1-1.1305,1.13037,1.13071,1.13071,0,0,1,1.1305-1.13037Zm9.61566,0a1.13055,1.13055,0,1,1-1.13074,1.13037,1.13044,1.13044,0,0,1,1.13074-1.13037Zm9.61571,0a1.13055,1.13055,0,1,1-1.13074,1.13037,1.13048,1.13048,0,0,1,1.13074-1.13037Zm9.61538,0A1.13055,1.13055,0,1,1,66.223,79.73119a1.13045,1.13045,0,0,1,1.13075-1.13037Zm9.61571,0a1.13055,1.13055,0,1,1-1.13075,1.13037,1.13048,1.13048,0,0,1,1.13075-1.13037Zm9.61539,0a1.13055,1.13055,0,1,1-1.13046,1.13037,1.13046,1.13046,0,0,1,1.13046-1.13037Zm9.61568,0a1.13055,1.13055,0,1,1-1.13073,1.13037,1.13045,1.13045,0,0,1,1.13073-1.13037Zm9.61541,0a1.13055,1.13055,0,1,1-1.13048,1.13037,1.13046,1.13046,0,0,1,1.13048-1.13037Zm9.61568,0a1.13055,1.13055,0,1,1-1.13074,1.13037,1.13047,1.13047,0,0,1,1.13074-1.13037Zm-86.54,11.44989a1.13074,1.13074,0,1,1-1.13074,1.13073,1.13078,1.13078,0,0,1,1.13074-1.13073Zm9.61542,0a1.13074,1.13074,0,1,1-1.1305,1.13073,1.131,1.131,0,0,1,1.1305-1.13073Zm9.61566,0a1.13074,1.13074,0,1,1-1.13074,1.13073,1.13074,1.13074,0,0,1,1.13074-1.13073Zm9.61571,0a1.13074,1.13074,0,1,1-1.13074,1.13073,1.13079,1.13079,0,0,1,1.13074-1.13073Zm9.61538,0A1.13074,1.13074,0,1,1,66.223,91.18144a1.13076,1.13076,0,0,1,1.13075-1.13073Zm9.61571,0a1.13074,1.13074,0,1,1-1.13075,1.13073,1.13078,1.13078,0,0,1,1.13075-1.13073Zm9.61539,0a1.13074,1.13074,0,1,1-1.13046,1.13073,1.13076,1.13076,0,0,1,1.13046-1.13073Zm9.61568,0a1.13074,1.13074,0,1,1-1.13073,1.13073,1.13076,1.13076,0,0,1,1.13073-1.13073Zm9.61541,0a1.13074,1.13074,0,1,1-1.13048,1.13073,1.13077,1.13077,0,0,1,1.13048-1.13073Zm9.61568,0a1.13074,1.13074,0,1,1-1.13074,1.13073,1.13078,1.13078,0,0,1,1.13074-1.13073Zm-86.54,11.45031a1.13074,1.13074,0,1,1-1.13074,1.13074,1.13071,1.13071,0,0,1,1.13074-1.13074Zm9.61542,0a1.13074,1.13074,0,1,1-1.1305,1.13074A1.13095,1.13095,0,0,1,38.507,101.501Zm9.61566,0a1.13074,1.13074,0,1,1-1.13074,1.13074,1.13068,1.13068,0,0,1,1.13074-1.13074Zm9.61571,0a1.13074,1.13074,0,1,1-1.13074,1.13074,1.13072,1.13072,0,0,1,1.13074-1.13074Zm9.61538,0a1.13074,1.13074,0,1,1-1.13075,1.13074,1.13069,1.13069,0,0,1,1.13075-1.13074Zm9.61571,0a1.13074,1.13074,0,1,1-1.13075,1.13074,1.13071,1.13071,0,0,1,1.13075-1.13074Zm9.61539,0a1.13074,1.13074,0,1,1-1.13046,1.13074,1.1307,1.1307,0,0,1,1.13046-1.13074Zm9.61568,0a1.13074,1.13074,0,1,1-1.13073,1.13074,1.13069,1.13069,0,0,1,1.13073-1.13074Zm9.61541,0a1.13074,1.13074,0,1,1-1.13048,1.13074,1.1307,1.1307,0,0,1,1.13048-1.13074Zm9.61568,0a1.13074,1.13074,0,1,1-1.13074,1.13074,1.13071,1.13071,0,0,1,1.13074-1.13074Zm-86.54,11.45026A1.13074,1.13074,0,1,1,27.7608,114.082a1.13075,1.13075,0,0,1,1.13074-1.13074Zm9.61542,0a1.13074,1.13074,0,1,1-1.1305,1.13074,1.131,1.131,0,0,1,1.1305-1.13074Zm9.61566,0a1.13074,1.13074,0,1,1-1.13074,1.13074,1.13071,1.13071,0,0,1,1.13074-1.13074Zm9.61571,0a1.13074,1.13074,0,1,1-1.13074,1.13074,1.13075,1.13075,0,0,1,1.13074-1.13074Zm9.61538,0A1.13074,1.13074,0,1,1,66.223,114.082a1.13072,1.13072,0,0,1,1.13075-1.13074Zm9.61571,0a1.13074,1.13074,0,1,1-1.13075,1.13074,1.13075,1.13075,0,0,1,1.13075-1.13074Zm9.61539,0a1.13074,1.13074,0,1,1-1.13046,1.13074,1.13073,1.13073,0,0,1,1.13046-1.13074Zm9.61568,0a1.13074,1.13074,0,1,1-1.13073,1.13074,1.13072,1.13072,0,0,1,1.13073-1.13074Zm9.61541,0a1.13074,1.13074,0,1,1-1.13048,1.13074,1.13073,1.13073,0,0,1,1.13048-1.13074Zm9.61568,0a1.13074,1.13074,0,1,1-1.13074,1.13074,1.13074,1.13074,0,0,1,1.13074-1.13074Z" transform="translate(0 0.11)"/><polygon class="cls-10" points="554.613 492.52 526.266 492.52 526.266 520.866 497.92 520.866 497.92 549.213 526.266 549.213 526.266 520.866 554.613 520.866 554.613 492.52 554.613 492.52"/><polygon class="cls-11" points="446.457 446.457 446.457 595.276 297.638 446.457 446.457 297.638 446.457 446.457 446.457 446.457"/><path class="cls-3" d="M31.94247,581.5349H116.877a74.2582,74.2582,0,0,1-16.524,8.65559H48.46649a74.25732,74.25732,0,0,1-16.524-8.65559Z" transform="translate(0 0.11)"/><path class="cls-3" d="M14.95471,565.17732h118.91a74.86038,74.86038,0,0,1-7.64364,8.65558H22.59833a74.86209,74.86209,0,0,1-7.64362-8.65558Z" transform="translate(0 0.11)"/><path class="cls-3" d="M5.6123,548.81969H143.20715a74.15381,74.15381,0,0,1-4.24943,8.65561H9.86172a74.149,74.149,0,0,1-4.24942-8.65561Z" transform="translate(0 0.11)"/><path class="cls-3" d="M.97311,532.46211H147.84633a73.94933,73.94933,0,0,1-1.94345,8.65555H2.91656a73.95136,73.95136,0,0,1-1.94345-8.65555Z" transform="translate(0 0.11)"/><path class="cls-3" d="M.12839,516.10448H148.691c.0822,1.43265.1284,2.87463.1284,4.32766,0,1.45334-.0462,2.89533-.1284,4.32795H.12839C.04874,523.37224.00284,521.9756,0,520.5685v-.27243c.00284-1.40711.04874-2.80374.12839-4.19159Z" transform="translate(0 0.11)"/><path class="cls-3" d="M2.91656,499.7469H145.90288a74.09554,74.09554,0,0,1,1.94345,8.65555H.97311a74.09758,74.09758,0,0,1,1.94345-8.65555Z" transform="translate(0 0.11)"/><path class="cls-3" d="M9.86172,483.38927h129.096a74.10783,74.10783,0,0,1,4.24943,8.65561H5.6123a74.10459,74.10459,0,0,1,4.24942-8.65561Z" transform="translate(0 0.11)"/><path class="cls-3" d="M22.59863,467.03166H126.22108a74.90688,74.90688,0,0,1,7.64364,8.65561h-118.91a74.88384,74.88384,0,0,1,7.64392-8.65561Z" transform="translate(0 0.11)"/><path class="cls-3" d="M48.46649,450.67406H100.353a74.20459,74.20459,0,0,1,16.524,8.65561H31.94247a74.20393,74.20393,0,0,1,16.524-8.65561Z" transform="translate(0 0.11)"/><polygon class="cls-4" points="148.819 297.638 223.229 297.638 223.229 595.276 148.819 595.276 148.819 297.638 148.819 297.638"/><polygon class="cls-3" points="222.644 297.638 253.849 297.638 253.849 595.276 222.644 595.276 222.644 297.638 222.644 297.638"/><polygon class="cls-2" points="446.457 285.096 582.734 285.096 595.276 297.637 595.276 297.638 446.457 297.638 446.457 285.096 446.457 285.096"/><polygon class="cls-2" points="446.457 261.395 559.033 261.395 571.575 273.937 446.457 273.937 446.457 261.395 446.457 261.395"/><polygon class="cls-2" points="446.457 237.694 535.332 237.694 547.874 250.235 446.457 250.235 446.457 237.694 446.457 237.694"/><polygon class="cls-2" points="446.457 213.993 511.631 213.993 524.172 226.534 446.457 226.534 446.457 213.993 446.457 213.993"/><polygon class="cls-2" points="446.457 190.292 487.93 190.292 500.471 202.833 446.457 202.833 446.457 190.292 446.457 190.292"/><polygon class="cls-2" points="446.457 166.591 464.229 166.591 476.77 179.132 446.457 179.132 446.457 166.591 446.457 166.591"/><polygon class="cls-2" points="453.069 155.431 446.457 155.431 446.457 148.819 453.069 155.431 453.069 155.431"/><path class="cls-4" d="M186.22375,109.21635h63.2551a46.565,46.565,0,0,1-11.92026,8.0481h-39.414a46.57294,46.57294,0,0,1-11.92081-8.0481Z" transform="translate(0 0.11)"/><path class="cls-4" d="M175.35457,94.00707h28.89807a23.24994,23.24994,0,0,0,27.19759,0h28.89834a46.41758,46.41758,0,0,1-4.58729,8.04785h-75.82a46.43443,46.43443,0,0,1-4.58673-8.04785Z" transform="translate(0 0.11)"/><path class="cls-4" d="M171.51308,78.79747h23.38211a23.09108,23.09108,0,0,0,2.86413,8.04816h-24.9049a46.34015,46.34015,0,0,1-1.34134-8.04816Zm69.29487,0h23.38187a46.34493,46.34493,0,0,1-1.34137,8.04816H237.94382a23.08987,23.08987,0,0,0,2.86413-8.04816Z" transform="translate(0 0.11)"/><path class="cls-4" d="M172.82437,63.58818h24.86748a23.08446,23.08446,0,0,0-2.8145,8.04816H171.504a46.36034,46.36034,0,0,1,1.32039-8.04816Zm65.18723,0h24.86688a46.35559,46.35559,0,0,1,1.3204,8.04816H240.8261a23.07941,23.07941,0,0,0-2.8145-8.04816Z" transform="translate(0 0.11)"/><path class="cls-4" d="M179.86,48.37859h75.983a46.4417,46.4417,0,0,1,4.55725,8.04815H231.60953a23.24921,23.24921,0,0,0-27.5159,0H175.30269A46.42412,46.42412,0,0,1,179.86,48.37859Z" transform="translate(0 0.11)"/><path class="cls-4" d="M197.90021,33.1693H237.803A46.57712,46.57712,0,0,1,249.603,41.21739H186.09985a46.57875,46.57875,0,0,1,11.80036-8.04809Z" transform="translate(0 0.11)"/><polygon class="cls-3" points="446.457 12.541 310.18 12.541 297.638 0 446.457 0 446.457 12.541 446.457 12.541"/><polygon class="cls-3" points="446.457 36.243 333.881 36.243 321.339 23.701 446.457 23.701 446.457 36.243 446.457 36.243"/><polygon class="cls-3" points="446.457 59.944 357.582 59.944 345.04 47.402 446.457 47.402 446.457 59.944 446.457 59.944"/><polygon class="cls-3" points="446.457 83.645 381.283 83.645 368.741 71.103 446.457 71.103 446.457 83.645 446.457 83.645"/><polygon class="cls-3" points="446.457 107.346 404.984 107.346 392.443 94.804 446.457 94.804 446.457 107.346 446.457 107.346"/><polygon class="cls-3" points="446.457 131.047 428.685 131.047 416.144 118.506 446.457 118.506 446.457 131.047 446.457 131.047"/><polygon class="cls-3" points="439.845 142.207 446.457 142.207 446.457 148.819 439.845 142.207 439.845 142.207"/><path class="cls-9" d="M237.93051,493.39049a3.688,3.688,0,1,1,3.68787,3.68786,3.68784,3.68784,0,0,1-3.68787-3.68786Zm0-31.36225a3.688,3.688,0,1,1,3.68787,3.68787,3.68807,3.68807,0,0,1-3.68787-3.68787Zm0-31.36251a3.688,3.688,0,1,1,3.68787,3.68786,3.68808,3.68808,0,0,1-3.68787-3.68786Zm0-31.36252a3.688,3.688,0,1,1,3.68787,3.68786,3.68782,3.68782,0,0,1-3.68787-3.68786ZM275.277,524.753a3.688,3.688,0,1,1,3.68789,3.68786A3.68806,3.68806,0,0,1,275.277,524.753Zm0-31.36249a3.688,3.688,0,1,1,3.68789,3.68786,3.68783,3.68783,0,0,1-3.68789-3.68786Zm0-31.36225a3.688,3.688,0,1,1,3.68789,3.68787,3.68807,3.68807,0,0,1-3.68789-3.68787Zm0-31.36251a3.688,3.688,0,1,1,3.68789,3.68786,3.68807,3.68807,0,0,1-3.68789-3.68786Zm0-31.36252a3.688,3.688,0,1,1,3.68789,3.68786,3.68781,3.68781,0,0,1-3.68789-3.68786Zm0-31.36225a3.688,3.688,0,1,1,3.68789,3.68757A3.68807,3.68807,0,0,1,275.277,367.941Zm37.34649,156.812a3.68786,3.68786,0,1,1,3.68787,3.68786,3.68806,3.68806,0,0,1-3.68787-3.68786Zm0-31.36249a3.68786,3.68786,0,1,1,3.68787,3.68786,3.68782,3.68782,0,0,1-3.68787-3.68786Zm0-31.36225a3.68786,3.68786,0,1,1,3.68787,3.68787,3.68806,3.68806,0,0,1-3.68787-3.68787Zm0-31.36251a3.68786,3.68786,0,1,1,3.68787,3.68786,3.68806,3.68806,0,0,1-3.68787-3.68786Zm0-31.36252a3.68786,3.68786,0,1,1,3.68787,3.68786,3.68781,3.68781,0,0,1-3.68787-3.68786Zm0-31.36225a3.68786,3.68786,0,1,1,3.68787,3.68757,3.68806,3.68806,0,0,1-3.68787-3.68757Zm37.34641,125.44953a3.68788,3.68788,0,1,1,3.68786,3.68786,3.68786,3.68786,0,0,1-3.68786-3.68786Zm0-31.36225a3.68788,3.68788,0,1,1,3.68786,3.68787,3.6881,3.6881,0,0,1-3.68786-3.68787Zm0-31.36251a3.68788,3.68788,0,1,1,3.68786,3.68786,3.6881,3.6881,0,0,1-3.68786-3.68786Zm0-31.36252a3.68788,3.68788,0,1,1,3.68786,3.68786,3.68784,3.68784,0,0,1-3.68786-3.68786Z" transform="translate(0 0.11)"/><polygon class="cls-9" points="29.41 295.167 29.409 295.167 29.409 324.576 0 324.576 0 353.986 29.41 353.986 29.41 324.576 58.819 324.576 58.819 295.328 58.819 295.328 58.819 265.918 29.41 265.918 29.41 236.509 0 236.509 0 265.918 29.41 265.918 29.41 295.167 29.41 295.167"/><polygon class="cls-2" points="595.275 595.217 595.276 595.217 595.276 841.89 595.275 841.89 595.275 595.217 595.275 595.217"/><polygon class="cls-3" points="595.275 756.577 595.276 756.577 595.276 744.035 595.275 744.035 595.275 756.577 595.275 756.577"/><polygon class="cls-3" points="595.275 780.278 595.276 780.278 595.276 767.736 595.275 767.736 595.275 780.278 595.275 780.278"/><polygon class="cls-3" points="595.275 803.979 595.276 803.979 595.276 791.437 595.275 791.437 595.275 803.979 595.275 803.979"/><polygon class="cls-3" points="595.275 827.68 595.276 827.68 595.276 815.139 595.275 815.139 595.275 827.68 595.275 827.68"/><polygon class="cls-3" points="595.276 838.84 595.275 838.84 595.275 841.89 595.276 841.89 595.276 838.84 595.276 838.84"/><polygon class="cls-2" points="231.051 841.89 231.051 744.035 238.303 744.035 238.303 841.89 231.051 841.89 231.051 841.89"/><polygon class="cls-2" points="217.345 841.89 217.345 744.035 224.597 744.035 224.597 841.89 217.345 841.89 217.345 841.89"/><polygon class="cls-2" points="203.64 841.89 203.64 744.035 210.892 744.035 210.892 841.89 203.64 841.89 203.64 841.89"/><polygon class="cls-2" points="189.935 841.89 189.935 744.035 197.187 744.035 197.187 841.89 189.935 841.89 189.935 841.89"/><polygon class="cls-2" points="176.229 841.89 176.229 744.035 183.481 744.035 183.481 841.89 176.229 841.89 176.229 841.89"/><polygon class="cls-2" points="162.524 841.89 162.524 744.035 169.776 744.035 169.776 841.89 162.524 841.89 162.524 841.89"/><polygon class="cls-2" points="148.818 841.89 148.818 744.035 156.07 744.035 156.07 841.89 148.818 841.89 148.818 841.89"/><path class="cls-3" d="M397.57886,556.74056a1.92415,1.92415,0,1,1-1.92414,1.92416,1.92437,1.92437,0,0,1,1.92414-1.92416Zm0,19.48535a1.92416,1.92416,0,1,1-1.92414,1.92416,1.92437,1.92437,0,0,1,1.92414-1.92416Zm16.36331,0a1.92416,1.92416,0,1,1-1.9242,1.92416,1.92436,1.92436,0,0,1,1.9242-1.92416Zm-16.36331,19.48564a1.92416,1.92416,0,1,1-1.92414,1.92416,1.92419,1.92419,0,0,1,1.92414-1.92416Zm16.36331,0a1.92416,1.92416,0,1,1-1.9242,1.92416,1.92417,1.92417,0,0,1,1.9242-1.92416Zm16.36356,0a1.92416,1.92416,0,1,1-1.9242,1.92416,1.92393,1.92393,0,0,1,1.9242-1.92416Zm-32.72687,19.48533a1.92418,1.92418,0,1,1-1.92414,1.92418,1.92439,1.92439,0,0,1,1.92414-1.92418Zm16.36331,0a1.92418,1.92418,0,1,1-1.9242,1.92418,1.92438,1.92438,0,0,1,1.9242-1.92418Zm16.36356,0a1.92418,1.92418,0,1,1-1.9242,1.92418,1.92414,1.92414,0,0,1,1.9242-1.92418Zm16.363,0a1.92418,1.92418,0,1,1-1.92389,1.92418,1.92423,1.92423,0,0,1,1.92389-1.92418Zm-49.08984,19.48566a1.92415,1.92415,0,1,1-1.92414,1.92386,1.92414,1.92414,0,0,1,1.92414-1.92386Zm16.36331,0a1.92415,1.92415,0,1,1-1.9242,1.92386,1.92412,1.92412,0,0,1,1.9242-1.92386Zm16.36356,0a1.92415,1.92415,0,1,1-1.9242,1.92386,1.92388,1.92388,0,0,1,1.9242-1.92386Zm16.363,0a1.92415,1.92415,0,1,1-1.92389,1.92386,1.924,1.924,0,0,1,1.92389-1.92386Zm16.36359,0a1.92415,1.92415,0,1,1-1.92417,1.92386,1.92413,1.92413,0,0,1,1.92417-1.92386Zm-65.45343,19.48535a1.92415,1.92415,0,1,1-1.92414,1.92415,1.92436,1.92436,0,0,1,1.92414-1.92415Zm16.36331,0a1.92415,1.92415,0,1,1-1.9242,1.92415,1.92435,1.92435,0,0,1,1.9242-1.92415Zm16.36356,0a1.92415,1.92415,0,1,1-1.9242,1.92415,1.92411,1.92411,0,0,1,1.9242-1.92415Zm16.363,0a1.92415,1.92415,0,1,1-1.92389,1.92415,1.9242,1.9242,0,0,1,1.92389-1.92415Zm16.36359,0a1.92415,1.92415,0,1,1-1.92417,1.92415,1.92436,1.92436,0,0,1,1.92417-1.92415Zm16.36328,0a1.92415,1.92415,0,1,1-1.9242,1.92415,1.92438,1.92438,0,0,1,1.9242-1.92415Zm-81.81671,19.48537a1.9243,1.9243,0,1,1-1.92414,1.92415,1.92436,1.92436,0,0,1,1.92414-1.92415Zm16.36331,0a1.9243,1.9243,0,1,1-1.9242,1.92415,1.92434,1.92434,0,0,1,1.9242-1.92415Zm16.36356,0a1.9243,1.9243,0,1,1-1.9242,1.92415,1.92411,1.92411,0,0,1,1.9242-1.92415Zm16.363,0a1.9243,1.9243,0,1,1-1.92389,1.92415,1.9242,1.9242,0,0,1,1.92389-1.92415Zm16.36359,0a1.9243,1.9243,0,1,1-1.92417,1.92415,1.92435,1.92435,0,0,1,1.92417-1.92415Zm16.36328,0a1.9243,1.9243,0,1,1-1.9242,1.92415,1.92437,1.92437,0,0,1,1.9242-1.92415Zm16.36322,0a1.9243,1.9243,0,1,1-1.92407,1.92415,1.92433,1.92433,0,0,1,1.92407-1.92415Z" transform="translate(0 0.11)"/></svg>