<?xml version="1.0" encoding="UTF-8"?>
<svg width="206px" height="59px" viewBox="0 0 14169 4030.5" version="1.1" xmlns="http://www.w3.org/2000/svg" xmlns:xlink="http://www.w3.org/1999/xlink">
    <path d="m0 137.7h859.5c113.4 0 217.6 12.8 312.6 38.3s176.4 61.3 244.4 107.2c67.9 46 120.8 101.1 158.6 165.5 37.8 64.3 56.7 135.4 56.7 213 0 58.2-6.1 110.3-18.4 156.3s-33.2 88.6-62.8 127.9-69.5 76.6-119.5 111.8c-50.1 35.2-112.9 70.8-188.5 106.5v6.1c75.6 12.3 144.3 32.9 206.1 62s114.4 66.1 157.8 111.1 76.8 96.8 100.4 155.5c23.5 58.7 35.2 123.9 35.2 195.3 0 80.7-17.6 156.3-52.9 226.8-35.2 70.5-85.3 131.8-150.1 183.9-64.9 52.1-143.3 93-235.2 122.6s-194.6 44.4-308 44.4h-995.9zm358.5 960.7h456.6c71.5 0 135.3-10.2 191.5-30.7 56.2-20.4 103.4-48.8 141.7-85s67.4-78.9 87.3-127.9 29.9-102.6 29.9-160.9c0-62.3-11.8-119-35.2-170.1-23.5-51.1-60.3-94.7-110.3-131-50.1-36.2-113.4-64.1-190-83.5s-168.5-29.1-275.8-29.1h-295.7zm0 1017.3h387.6c104.2 0 194.6-10 271.2-29.9s139.9-47.7 190-83.5c50-35.7 87.1-78.9 111.1-129.5s36-105.9 36-166.2c0-67.4-10.7-130.2-32.2-188.5-21.4-58.2-56.7-108.5-105.7-150.9s-112.9-75.8-191.5-100.3c-78.7-24.5-175.2-36.8-289.6-36.8h-376.9z"/><path d="m3285.2 88.7 1005.1 2183.3h-364.6l-326.3-712.4h-914.7l-337.1 712.4h-179.3l1028.1-2183.3zm-537.7 1332.9h786l-387.6-844.2z"/><path d="m4810.2 137.7h358.5v1385c0 90.9 15.6 176.5 46.7 256.6 31.1 80.2 75.8 150.4 134.1 210.7 58.2 60.3 128.2 107.8 209.9 142.5s173.1 52.1 274.3 52.1c102.1 0 194-17.3 275.8-52.1 81.7-34.7 151.2-82.2 208.4-142.5 57.2-60.2 101.1-130.5 131.8-210.7 30.6-80.2 46-165.7 46-256.6v-1385h157.8v1385c0 109.3-17.6 212.2-52.9 308.7-35.2 96.5-90.7 181.3-166.2 254.3-75.6 73-172.4 130.8-290.3 173.1-118 42.4-259.7 63.6-425.2 63.6-147.1 0-277.3-21.2-390.7-63.6s-208.4-100.3-285-173.9c-76.6-73.5-134.6-159.3-173.9-257.4-39.3-98-59-202.2-59-312.5v-1377.3z"/><path d="m7496.4 137.7h200.7l1398.9 1559.7h13.8v-1559.7h157.8v2184.8h-82.7l-1515.3-1735.9h-12.3v1685.4h-160.9z"/><path d="m11033.7 88.7 1005 2183.3h-364.6l-326.3-712.4h-914.7l-337.1 712.4h-179.3l1028.1-2183.3zm-537.8 1332.9h786l-387.6-844.2z"/><path d="m14169 137.7v137.9h-772.2v1996.4h-358.5v-1996.4h-773.7v-137.9z"/><path d="m3099.1 3906.1c13.9 0 27.6-1.9 41.1-5.6s25.5-9.4 36.1-16.8c10.6-7.5 19.1-16.6 25.5-27.5 6.4-10.8 9.6-23.3 9.6-37.5 0-17.1-4.4-32.3-13.2-45.5s-20.4-25.5-34.7-36.7-30.7-21.7-49.1-31.5-37.2-19.6-56.3-29.5-37.9-20.3-56.4-31.1c-18.4-10.8-34.8-22.9-49.1-36.1s-25.9-28.1-34.7-44.5-13.2-35.4-13.2-56.7c0-21.4 4-41.2 12-59.6 8-18.3 19.8-34.2 35.3-47.5 15.5-13.4 34.6-23.9 57.2-31.5s48.6-11.4 78-11.4c52.9 0 94.7 11.1 125.3 33.3s52.7 54.3 66.4 96.3l-48.1 22.1c-5.6-17.1-12.8-32.7-21.5-46.9s-19.1-26.3-31.3-36.5-26.1-18-41.9-23.5-33.6-8.2-53.3-8.2c-17.6 0-33.1 2.5-46.3 7.4-13.2 5-24.2 11.4-32.9 19.3s-15.2 16.8-19.7 26.9c-4.4 10-6.6 20.3-6.6 30.7 0 14.7 4.5 28.1 13.6 40.3s21 23.7 35.7 34.7 31.5 21.5 50.5 31.5 38.3 20.3 58 30.7 39 21.3 58 32.5 35.8 23.5 50.5 36.9 26.6 28 35.7 43.9 13.6 33.6 13.6 53.1c0 22.2-4.2 43-12.6 62.4s-21.1 36.4-37.9 50.9c-16.8 14.6-37.8 26.1-62.8 34.5s-54.1 12.6-87.2 12.6c-26.7 0-50.7-2.9-71.8-8.8s-39.8-14.4-55.9-25.7c-16.2-11.2-30-25-41.5-41.3s-21-34.8-28.5-55.3l50.5-20.9c5.9 18.2 13.8 34.5 23.7 48.9s21.5 26.7 34.7 36.7 27.9 17.6 44.1 22.9c16 5 33.2 7.6 51.4 7.6z"/><path d="m3513.7 3369.9h95.9l217.4 428.7h4.4l213.4-428.7h94.2v558.7h-94.2v-457.6h-3.2l-229 457.6h-19.3l-231.8-454.4h-6.4v454.4h-41.3v-558.7z"/><path d="m4618.5 3357.1 263.1 571.5h-95.5l-85.4-186.5h-239.4l-88.2 186.5h-46.9l269.1-571.5zm-140.8 348.9h205.7l-101.4-221z"/><path d="m5068.8 3369.9h193.3c33.7 0 63.2 3.6 88.4 10.8 25.3 7.2 46.3 17.3 63.2 30.3 16.8 13 29.5 28.3 38.1 46.1s12.8 37.2 12.8 58.4c0 17.4-3.3 33.6-9.8 48.7-6.6 15.1-15.8 28.7-27.9 40.9-12 12.2-26.5 22.7-43.3 31.7s-35.4 15.8-55.7 20.7l203.3 271.1h-108.7l-194.1-262.7h-65.8v262.7h-93.8zm93.8 267.9h54.1c21.1 0 40.6-2.8 58.4-8.4s33.2-13.6 46.3-23.9 23.3-22.8 30.7-37.5 11-31.1 11-49.3c0-16.6-2.9-31.9-8.8-45.9s-14-26.1-24.5-36.1c-10.4-10-22.9-17.8-37.3-23.5-14.4-5.6-30.2-8.4-47.3-8.4h-82.6z"/><path d="m6124.7 3369.9v36.1h-202.1v522.6h-93.9v-522.6h-202.5v-36.1z"/><path d="m6681.5 3369.9h93.8v522.6h281.1v36.1h-375v-558.7z"/><path d="m7239.7 3369.9h93.8v362.6c0 23.8 4.1 46.2 12.2 67.2 8.2 21 19.9 39.4 35.1 55.1 15.2 15.8 33.6 28.2 54.9 37.3 21.4 9.1 45.3 13.6 71.8 13.6 26.7 0 50.8-4.5 72.2-13.6s39.6-21.5 54.5-37.3c15-15.8 26.5-34.2 34.5-55.1 8-21 12-43.4 12-67.2v-362.6h41.3v362.6c0 28.6-4.6 55.5-13.8 80.8s-23.7 47.5-43.5 66.6-45.1 34.2-76 45.3-68 16.6-111.3 16.6c-38.5 0-72.6-5.6-102.3-16.6-29.7-11.1-54.5-26.3-74.6-45.5-20.1-19.3-35.2-41.7-45.5-67.4s-15.4-52.9-15.4-81.8v-360.6z"/><path d="m7946.7 3928.6h-49.3l235.4-275.5-214.6-283.2h111.5l162 214.6 182.9-214.6h49.7l-209.8 245.5 237.8 313.2h-111.9l-184.9-244.6z"/><path d="m8628.8 3369.9h93.8v362.6c0 23.8 4.1 46.2 12.2 67.2 8.2 21 19.9 39.4 35.1 55.1 15.2 15.8 33.6 28.2 54.9 37.3 21.4 9.1 45.3 13.6 71.8 13.6 26.7 0 50.8-4.5 72.2-13.6s39.6-21.5 54.5-37.3c15-15.8 26.5-34.2 34.5-55.1 8-21 12-43.4 12-67.2v-362.6h41.3v362.6c0 28.6-4.6 55.5-13.8 80.8s-23.7 47.5-43.5 66.6-45.1 34.2-76 45.3-68 16.6-111.3 16.6c-38.5 0-72.6-5.6-102.3-16.6-29.7-11.1-54.5-26.3-74.6-45.5-20.1-19.3-35.2-41.7-45.5-67.4s-15.4-52.9-15.4-81.8v-360.6z"/><path d="m9356.6 3369.9h193.3c33.7 0 63.2 3.6 88.4 10.8 25.3 7.2 46.3 17.3 63.2 30.3 16.8 13 29.5 28.3 38.1 46.1s12.8 37.2 12.8 58.4c0 17.4-3.3 33.6-9.8 48.7-6.6 15.1-15.8 28.7-27.9 40.9-12 12.2-26.5 22.7-43.3 31.7s-35.4 15.8-55.7 20.7l203.3 271.1h-108.7l-194.1-262.7h-65.8v262.7h-93.8zm93.9 267.9h54.1c21.1 0 40.6-2.8 58.4-8.4s33.2-13.6 46.3-23.9 23.3-22.8 30.7-37.5 11-31.1 11-49.3c0-16.6-2.9-31.9-8.8-45.9s-14-26.1-24.5-36.1c-10.4-10-22.9-17.8-37.3-23.5-14.4-5.6-30.2-8.4-47.3-8.4h-82.6z"/><path d="m9991.4 3369.9 193.7 283.2 192.9-283.2h50.9l-216.6 317.2v241.4h-93.8v-232.5l-223.4-326.1z"/>
</svg>