<?xml version="1.0" encoding="UTF-8" standalone="no"?>
<svg
   xmlns:dc="http://purl.org/dc/elements/1.1/"
   xmlns:cc="http://creativecommons.org/ns#"
   xmlns:rdf="http://www.w3.org/1999/02/22-rdf-syntax-ns#"
   xmlns:svg="http://www.w3.org/2000/svg"
   xmlns="http://www.w3.org/2000/svg"
   viewBox="0 0 139.74667 35.306667"
   height="35.306667"
   width="139.74667"
   xml:space="preserve"
   id="svg2"
   version="1.1"><metadata
     id="metadata8"><rdf:RDF><cc:Work
         rdf:about=""><dc:format>image/svg+xml</dc:format><dc:type
           rdf:resource="http://purl.org/dc/dcmitype/StillImage" /></cc:Work></rdf:RDF></metadata><defs
     id="defs6" /><g
     transform="matrix(1.3333333,0,0,-1.3333333,0,35.306667)"
     id="g10"><g
       transform="scale(0.1)"
       id="g12"><path
         id="path14"
         style="fill:#211d1d;fill-opacity:1;fill-rule:nonzero;stroke:none"
         d="M 1048.09,0 H 0 V 264.773 H 1048.09 V 0" /><path
         id="path16"
         style="fill:#ec1d27;fill-opacity:1;fill-rule:nonzero;stroke:none"
         d="M 316.902,0 H 0 V 264.773 H 316.902 V 0" /><path
         id="path18"
         style="fill:#ffffff;fill-opacity:1;fill-rule:nonzero;stroke:none"
         d="m 120.023,83.3477 c 0,10.7617 -4.558,18.6953 -13.671,23.8083 -7.3051,4.192 -16.7856,6.289 -28.4614,6.289 H 64.4883 V 57.3633 h 14.7734 c 11.1211,0.5586 19.9727,2.6367 26.5393,6.2969 8.75,3.6445 13.496,10.207 14.222,19.6875 z m -4.371,87.5543 c 0,8.754 -3.101,15.137 -9.3,19.153 -6.207,4.008 -15.8676,6.015 -29.0043,6.015 l -12.8594,-0.269 v -53.078 l 13.9531,0.824 c 22.6136,-0.734 35.0196,8.383 37.2106,27.355 z M 155.875,81.7109 C 155.875,62.5586 147.75,47.793 131.52,37.3906 117.844,28.6406 100.785,24.2578 80.3555,24.2578 H 28.6484 V 226.441 l 50.8868,0.274 c 18.9726,0 35.3868,-3.281 49.2498,-9.852 17.508,-12.406 25.164,-26.996 22.973,-43.773 -2.184,-13.863 -5.465,-23.524 -9.844,-29 -4.379,-5.473 -11.676,-10.762 -21.891,-15.867 10.946,-3.653 19.657,-9.582 26.129,-17.785 6.477,-8.204 9.723,-17.7817 9.723,-28.7271" /><path
         id="path20"
         style="fill:#ffffff;fill-opacity:1;fill-rule:nonzero;stroke:none"
         d="M 293.203,25.3516 H 196.637 V 227.535 l 96.566,0.278 0.824,-36.118 h -61.289 v -41.582 h 56.91 v -35.027 h -56.91 V 62.5586 h 61.289 l -0.824,-37.207" /><path
         id="path22"
         style="fill:#ffffff;fill-opacity:1;fill-rule:nonzero;stroke:none"
         d="M 432.184,25.3516 H 335.605 V 227.535 h 35.844 V 57.6367 h 60.735 V 25.3516" /><path
         id="path24"
         style="fill:#ffffff;fill-opacity:1;fill-rule:nonzero;stroke:none"
         d="M 513.715,25.3516 H 477.871 V 227.535 h 35.844 V 25.3516" /><path
         id="path26"
         style="fill:#ffffff;fill-opacity:1;fill-rule:nonzero;stroke:none"
         d="M 686.895,83.3477 649.961,160.781 610.293,83.3477 Z M 754.188,25.3516 H 715.625 L 702.219,51.6211 H 597.156 L 585.117,25.3516 H 545.996 L 649.961,236.289 754.188,25.3516" /><path
         id="path28"
         style="fill:#ffffff;fill-opacity:1;fill-rule:nonzero;stroke:none"
         d="M 941.875,22.0703 824.785,139.172 V 23.1641 H 785.383 V 234.375 L 901.387,118.379 v 111.617 h 40.488 V 22.0703" /><path
         id="path30"
         style="fill:#ffffff;fill-opacity:1;fill-rule:nonzero;stroke:none"
         d="M 1024.22,25.3516 H 987.781 V 230.902 h 36.439 V 25.3516" /></g></g></svg>