<?xml version="1.0" encoding="UTF-8"?>
<svg width="190px" height="235px" viewBox="0 0 190 235" version="1.1" xmlns="http://www.w3.org/2000/svg" xmlns:xlink="http://www.w3.org/1999/xlink">
    <!-- Generator: Sketch 63.1 (92452) - https://sketch.com -->
    <title>Group 47</title>
    <desc>Created with Sketch.</desc>
    <defs>
        <rect id="billing--create-bill-path-1" x="0" y="0" width="172" height="175" rx="5.34"></rect>
        <filter x="-7.8%" y="-7.7%" width="115.7%" height="115.4%" filterUnits="objectBoundingBox" id="filter-2">
            <feMorphology radius="1" operator="dilate" in="SourceAlpha" result="shadowSpreadOuter1"></feMorphology>
            <feOffset dx="0" dy="0" in="shadowSpreadOuter1" result="shadowOffsetOuter1"></feOffset>
            <feGaussianBlur stdDeviation="3.5" in="shadowOffsetOuter1" result="shadowBlurOuter1"></feGaussianBlur>
            <feColorMatrix values="0 0 0 0 0   0 0 0 0 0   0 0 0 0 0  0 0 0 0.05 0" type="matrix" in="shadowBlurOuter1"></feColorMatrix>
        </filter>
        <rect id="path-3" x="0" y="0" width="172" height="25" rx="5.34"></rect>
        <filter x="-7.8%" y="-54.0%" width="115.7%" height="208.0%" filterUnits="objectBoundingBox" id="filter-4">
            <feMorphology radius="1" operator="dilate" in="SourceAlpha" result="shadowSpreadOuter1"></feMorphology>
            <feOffset dx="0" dy="0" in="shadowSpreadOuter1" result="shadowOffsetOuter1"></feOffset>
            <feGaussianBlur stdDeviation="3.5" in="shadowOffsetOuter1" result="shadowBlurOuter1"></feGaussianBlur>
            <feColorMatrix values="0 0 0 0 0   0 0 0 0 0   0 0 0 0 0  0 0 0 0.05 0" type="matrix" in="shadowBlurOuter1"></feColorMatrix>
        </filter>
    </defs>
    <g id="Page-1" stroke="none" stroke-width="1" fill="none" fill-rule="evenodd">
        <g id="Group-47" transform="translate(9.000000, 9.000000)">
            <g id="Group-45">
                <g id="Rectangle-5">
                    <g id="Rectangle">
                        <use fill="black" fill-opacity="1" filter="url(#filter-2)" xlink:href="#billing--create-bill-path-1"></use>
                        <use fill="#FFFFFF" fill-rule="evenodd" xlink:href="#billing--create-bill-path-1"></use>
                    </g>
                </g>
                <g id="Group-46" transform="translate(0.000000, 157.000000)">
                    <g id="Group-40" transform="translate(0.000000, 0.743164)">
                        <rect id="Rectangle" fill="#2A4998" x="0" y="1.25683594" width="172" height="25" rx="6"></rect>
                        <rect id="Rectangle" fill="#2A4998" x="0" y="0.256835938" width="172" height="13"></rect>
                        <path d="M17.622932,17.2568359 L17.622932,11.1679688 L19.834846,11.1679688 L19.834846,10.1474609 L14.1756664,10.1474609 L14.1756664,11.1679688 L16.3631664,11.1679688 L16.3631664,17.2568359 L17.622932,17.2568359 Z M23.7329389,17.3544922 C24.3188764,17.3544922 24.8348269,17.2145182 25.2807904,16.9345703 C25.726754,16.6546224 26.0726199,16.253418 26.3183881,15.730957 C26.5641563,15.2084961 26.6870404,14.5924479 26.6870404,13.8828125 L26.6870404,13.8828125 L26.6870404,13.5263672 C26.6870404,12.8167318 26.5633425,12.1998698 26.3159467,11.6757812 C26.0685509,11.1516927 25.7210574,10.7496745 25.2734662,10.4697266 C24.8258751,10.1897786 24.3091108,10.0498047 23.7231733,10.0498047 C23.1437462,10.0498047 22.6302371,10.1905924 22.1826459,10.472168 C21.7350548,10.7537435 21.3867475,11.1565755 21.137724,11.6806641 C20.8887006,12.2047526 20.7641889,12.819987 20.7641889,13.5263672 L20.7641889,13.5263672 L20.7641889,13.8828125 C20.7641889,14.5891927 20.8895144,15.2044271 21.1401654,15.7285156 C21.3908165,16.2526042 21.7407514,16.6546224 22.1899701,16.9345703 C22.6391889,17.2145182 23.1535118,17.3544922 23.7329389,17.3544922 Z M23.7329389,16.3144531 C23.3846316,16.3144531 23.082711,16.2208659 22.8271772,16.0336914 C22.5716433,15.8465169 22.375517,15.570638 22.2387983,15.2060547 C22.1020795,14.8414714 22.0337201,14.4003906 22.0337201,13.8828125 L22.0337201,13.8828125 L22.0337201,13.5166016 C22.0337201,12.9990234 22.1012657,12.5587565 22.2363568,12.1958008 C22.371448,11.8328451 22.5659467,11.5585938 22.8198529,11.3730469 C23.0737592,11.1875 23.374866,11.0947266 23.7231733,11.0947266 C24.2635378,11.0947266 24.6810183,11.3022461 24.9756147,11.7172852 C25.270211,12.1323242 25.4175092,12.7320964 25.4175092,13.5166016 L25.4175092,13.5166016 L25.4175092,13.8828125 C25.4175092,14.6705729 25.2718386,15.2727865 24.9804975,15.6894531 C24.6891563,16.1061198 24.2733035,16.3144531 23.7329389,16.3144531 Z M30.9122817,17.2568359 L30.9122817,11.1679688 L33.1241958,11.1679688 L33.1241958,10.1474609 L27.4650161,10.1474609 L27.4650161,11.1679688 L29.6525161,11.1679688 L29.6525161,17.2568359 L30.9122817,17.2568359 Z M34.5467027,17.2568359 L35.1131089,15.6259766 L37.8426011,15.6259766 L38.4090074,17.2568359 L39.7322495,17.2568359 L37.0418199,10.1474609 L35.9041245,10.1474609 L33.2234605,17.2568359 L34.5467027,17.2568359 Z M37.4861558,14.6054688 L35.4646714,14.6054688 L36.4754136,11.6904297 L37.4861558,14.6054688 Z M45.4076861,17.2568359 L45.4076861,16.2412109 L42.1947955,16.2412109 L42.1947955,10.1474609 L40.9301471,10.1474609 L40.9301471,17.2568359 L45.4076861,17.2568359 Z" id="TOTAL" fill="#FFFFFF" fill-rule="nonzero"></path>
                        <path d="M96.7318761,18.2919922 L96.7318761,17.3398438 C97.3275793,17.2747396 97.7955155,17.0737305 98.1356847,16.7368164 C98.475854,16.3999023 98.6459386,15.9498698 98.6459386,15.3867188 C98.6459386,14.9960938 98.566186,14.6648763 98.4066808,14.3930664 C98.2471756,14.1212565 98.0209386,13.8925781 97.7279699,13.7070312 C97.4350011,13.5214844 97.0590246,13.3457031 96.6000402,13.1796875 C96.300561,13.0690104 96.066186,12.9591471 95.8969152,12.8500977 C95.7276444,12.7410482 95.6063879,12.6206055 95.5331457,12.4887695 C95.4599035,12.3569336 95.4232824,12.1982422 95.4232824,12.0126953 C95.4232824,11.7164714 95.5046626,11.4812826 95.667423,11.3071289 C95.8301834,11.1329753 96.0743241,11.0458984 96.3998449,11.0458984 C96.7156001,11.0458984 96.9621821,11.1614583 97.139591,11.3925781 C97.3169998,11.6236979 97.4057043,11.9427083 97.4057043,12.3496094 L97.4057043,12.3496094 L98.6215246,12.3496094 C98.6215246,11.6985677 98.463647,11.1761068 98.1478918,10.7822266 C97.8321366,10.3883464 97.394311,10.1523438 96.8344152,10.0742188 L96.8344152,10.0742188 L96.8344152,9 L96.0531652,9 L96.0531652,10.0644531 C95.6820715,10.1067708 95.3581782,10.2125651 95.0814855,10.3818359 C94.8047928,10.5511068 94.5907629,10.7757161 94.4393957,11.0556641 C94.2880285,11.335612 94.2123449,11.65625 94.2123449,12.0175781 C94.2123449,12.4114583 94.2945389,12.7451172 94.4589269,13.0185547 C94.623315,13.2919922 94.8536209,13.5214844 95.1498449,13.7070312 C95.4460689,13.8925781 95.8220454,14.0634766 96.2777746,14.2197266 C96.6976965,14.3662109 96.995548,14.5297852 97.1713293,14.7104492 C97.3471105,14.8911133 97.4350011,15.1197917 97.4350011,15.3964844 C97.4350011,15.6927083 97.3381587,15.9270833 97.1444738,16.0996094 C96.9507889,16.2721354 96.6765376,16.3583984 96.3217199,16.3583984 C95.9929439,16.3583984 95.7162511,16.2599284 95.4916418,16.0629883 C95.2670324,15.8660482 95.1547277,15.5397135 95.1547277,15.0839844 L95.1547277,15.0839844 L93.9389074,15.0839844 C93.9389074,15.5690104 94.030867,15.9734701 94.2147863,16.2973633 C94.3987056,16.6212565 94.6420324,16.8662109 94.9447668,17.0322266 C95.2475011,17.1982422 95.5844152,17.3007812 95.955509,17.3398438 L95.955509,17.3398438 L95.955509,18.2919922 L96.7318761,18.2919922 Z M103.325281,17.2568359 L103.325281,10.1230469 L103.173914,10.1230469 L100.376063,11.1484375 L100.376063,12.1640625 L102.109461,11.5830078 L102.109461,17.2568359 L103.325281,17.2568359 Z M108.380601,17.3544922 C108.839585,17.3544922 109.251369,17.2722982 109.615952,17.1079102 C109.980536,16.9435221 110.266994,16.7034505 110.475327,16.3876953 C110.683661,16.0719401 110.787827,15.6975911 110.787827,15.2646484 C110.787827,14.8837891 110.690171,14.546875 110.494859,14.2539062 C110.299546,13.9609375 109.998439,13.7444661 109.591538,13.6044922 C109.939846,13.4482422 110.2084,13.2285156 110.397202,12.9453125 C110.586005,12.6621094 110.680406,12.3707682 110.680406,12.0712891 C110.680406,11.6350911 110.585191,11.265625 110.394761,10.9628906 C110.204331,10.6601562 109.93659,10.4322917 109.591538,10.2792969 C109.246486,10.1263021 108.84284,10.0498047 108.380601,10.0498047 C107.950913,10.0498047 107.56273,10.1336263 107.21605,10.3012695 C106.86937,10.4689128 106.598374,10.7008464 106.403062,10.9970703 C106.207749,11.2932943 106.110093,11.6269531 106.110093,11.9980469 L106.110093,11.9980469 L107.325913,11.9980469 C107.325913,11.8027344 107.3723,11.6318359 107.465074,11.4853516 C107.557847,11.3388672 107.685614,11.2257487 107.848374,11.1459961 C108.011135,11.0662435 108.195054,11.0263672 108.400132,11.0263672 C108.751695,11.0263672 109.016994,11.117513 109.196031,11.2998047 C109.375067,11.4820964 109.464585,11.7392578 109.464585,12.0712891 C109.464585,12.4000651 109.363674,12.6621094 109.161851,12.8574219 C108.960028,13.0527344 108.665432,13.1503906 108.278062,13.1503906 L108.278062,13.1503906 L107.570054,13.1503906 L107.570054,14.1074219 L108.278062,14.1074219 C108.688218,14.1074219 109.006415,14.2018229 109.232652,14.390625 C109.458889,14.5794271 109.572007,14.8691406 109.572007,15.2597656 C109.572007,15.6145833 109.468654,15.8896484 109.261949,16.0849609 C109.055243,16.2802734 108.767971,16.3779297 108.400132,16.3779297 C108.172268,16.3779297 107.972072,16.3347982 107.799546,16.2485352 C107.62702,16.1622721 107.493557,16.0402018 107.399156,15.8823242 C107.304755,15.7244466 107.257554,15.5445964 107.257554,15.3427734 L107.257554,15.3427734 L106.041734,15.3427734 C106.041734,15.7692057 106.148342,16.1337891 106.361558,16.4365234 C106.574774,16.7392578 106.859605,16.9679362 107.21605,17.1225586 C107.572495,17.277181 107.960679,17.3544922 108.380601,17.3544922 Z M114.734748,17.3544922 C115.210009,17.3544922 115.622606,17.2486979 115.972541,17.0371094 C116.322476,16.8255208 116.590217,16.5349935 116.775764,16.1655273 C116.961311,15.7960612 117.054084,15.3818359 117.054084,14.9228516 C117.054084,14.4931641 116.979215,14.0976562 116.829475,13.7363281 C116.679735,13.375 116.451871,13.0852865 116.145881,12.8671875 C115.839892,12.6490885 115.465543,12.5400391 115.022834,12.5400391 C114.729866,12.5400391 114.459683,12.5904948 114.212287,12.6914062 C113.964892,12.7923177 113.751675,12.9388021 113.572639,13.1308594 C113.618212,12.7369792 113.73133,12.3894857 113.911994,12.0883789 C114.092659,11.7872721 114.350634,11.5488281 114.68592,11.3730469 C115.021207,11.1972656 115.432991,11.109375 115.921272,11.109375 L115.921272,11.109375 L116.00428,11.109375 L116.00428,10.1083984 L115.857795,10.1083984 C115.047248,10.1083984 114.378303,10.2858073 113.850959,10.640625 C113.323616,10.9954427 112.937873,11.4715169 112.693733,12.0688477 C112.449592,12.6661784 112.327522,13.3391927 112.327522,14.0878906 L112.327522,14.0878906 L112.327522,14.5615234 C112.327522,15.0693359 112.422737,15.5356445 112.613166,15.9604492 C112.803596,16.3852539 113.081103,16.7237956 113.445686,16.9760742 C113.810269,17.2283529 114.239957,17.3544922 114.734748,17.3544922 Z M114.7201,16.3730469 C114.502001,16.3730469 114.304247,16.3079427 114.126838,16.1777344 C113.949429,16.047526 113.808642,15.8546549 113.704475,15.5991211 C113.600308,15.3435872 113.548225,15.0351562 113.548225,14.6738281 L113.548225,14.6738281 L113.548225,14.2978516 C113.639371,14.0732422 113.790738,13.8876953 114.002327,13.7412109 C114.213915,13.5947266 114.451545,13.5214844 114.715217,13.5214844 C114.952847,13.5214844 115.157112,13.5849609 115.32801,13.7119141 C115.498909,13.8388672 115.628303,14.0105794 115.716194,14.2270508 C115.804084,14.4435221 115.84803,14.6852214 115.84803,14.9521484 C115.84803,15.2288411 115.802457,15.4746094 115.711311,15.6894531 C115.620165,15.9042969 115.489957,16.0719401 115.320686,16.1923828 C115.151415,16.3128255 114.95122,16.3730469 114.7201,16.3730469 Z M119.233427,17.3154297 C119.448271,17.3154297 119.619169,17.2527669 119.746122,17.1274414 C119.873076,17.0021159 119.936552,16.8434245 119.936552,16.6513672 C119.936552,16.4560547 119.873076,16.2949219 119.746122,16.1679688 C119.619169,16.0410156 119.448271,15.9775391 119.233427,15.9775391 C119.015328,15.9775391 118.842802,16.0410156 118.715849,16.1679688 C118.588896,16.2949219 118.525419,16.4560547 118.525419,16.6513672 C118.525419,16.8434245 118.588896,17.0021159 118.715849,17.1274414 C118.842802,17.2527669 119.015328,17.3154297 119.233427,17.3154297 Z M124.860036,17.2568359 L124.860036,10.1230469 L124.708668,10.1230469 L121.910817,11.1484375 L121.910817,12.1640625 L123.644215,11.5830078 L123.644215,17.2568359 L124.860036,17.2568359 Z M132.517894,17.2568359 L132.517894,16.2802734 L129.24641,16.2802734 L130.789378,14.6298828 C131.264639,14.1318359 131.625967,13.675293 131.873363,13.2602539 C132.120759,12.8452148 132.244457,12.429362 132.244457,12.0126953 C132.244457,11.6123047 132.156566,11.2648112 131.980785,10.9702148 C131.805003,10.6756185 131.54947,10.4485677 131.214183,10.2890625 C130.878897,10.1295573 130.475251,10.0498047 130.003246,10.0498047 C129.505199,10.0498047 129.073884,10.1507161 128.7093,10.3525391 C128.344717,10.554362 128.066397,10.8277995 127.874339,11.1728516 C127.682282,11.5179036 127.586253,11.9003906 127.586253,12.3203125 L127.586253,12.3203125 L128.802074,12.3203125 C128.802074,11.9296875 128.903799,11.6163737 129.10725,11.3803711 C129.3107,11.1443685 129.604483,11.0263672 129.988597,11.0263672 C130.314118,11.0263672 130.568838,11.1289062 130.752757,11.3339844 C130.936677,11.5390625 131.028636,11.8076172 131.028636,12.1396484 C131.028636,12.3024089 130.998526,12.4651693 130.938304,12.6279297 C130.878083,12.7906901 130.776358,12.9737956 130.633128,13.1772461 C130.489899,13.3806966 130.291332,13.6240234 130.037425,13.9072266 L130.037425,13.9072266 L127.722972,16.4169922 L127.722972,17.2568359 L132.517894,17.2568359 Z M139.474236,17.3544922 C139.978793,17.3544922 140.432895,17.2609049 140.836541,17.0737305 C141.240187,16.886556 141.558383,16.6074219 141.791131,16.2363281 C142.023878,15.8652344 142.140252,15.4160156 142.140252,14.8886719 L142.140252,14.8886719 L142.140252,10.1474609 L140.875603,10.1474609 L140.875603,14.8886719 C140.875603,15.3802083 140.754347,15.7447917 140.511834,15.9824219 C140.269321,16.2200521 139.923455,16.3388672 139.474236,16.3388672 C139.031528,16.3388672 138.687289,16.2192383 138.441521,15.9799805 C138.195753,15.7407227 138.072869,15.3769531 138.072869,14.8886719 L138.072869,14.8886719 L138.072869,10.1474609 L136.813103,10.1474609 L136.813103,14.8886719 C136.813103,15.4192708 136.926222,15.8693034 137.152459,16.2387695 C137.378696,16.6082357 137.692823,16.886556 138.094841,17.0737305 C138.49686,17.2609049 138.956658,17.3544922 139.474236,17.3544922 Z M146.297134,17.3544922 C146.808201,17.3544922 147.254979,17.2755534 147.637466,17.1176758 C148.019953,16.9597982 148.315363,16.734375 148.523696,16.4414062 C148.732029,16.1484375 148.836196,15.8033854 148.836196,15.40625 C148.836196,15.031901 148.751561,14.7047526 148.58229,14.4248047 C148.413019,14.1448568 148.156671,13.9023438 147.813247,13.6972656 C147.469822,13.4921875 147.027928,13.3098958 146.487563,13.1503906 C145.969985,13.000651 145.590753,12.8378906 145.349868,12.6621094 C145.108982,12.4863281 144.98854,12.2714844 144.98854,12.0175781 C144.98854,11.7311198 145.095148,11.4991862 145.308364,11.3217773 C145.52158,11.1443685 145.833266,11.0556641 146.243423,11.0556641 C146.67962,11.0556641 147.00921,11.1614583 147.232192,11.3730469 C147.455174,11.5846354 147.566665,11.8678385 147.566665,12.2226562 L147.566665,12.2226562 L148.82643,12.2226562 C148.82643,11.8222656 148.722264,11.4568685 148.51393,11.1264648 C148.305597,10.7960612 148.006932,10.5340169 147.617934,10.340332 C147.228937,10.1466471 146.775649,10.0498047 146.258071,10.0498047 C145.763279,10.0498047 145.323826,10.1336263 144.939712,10.3012695 C144.555597,10.4689128 144.256932,10.702474 144.043716,11.0019531 C143.830499,11.3014323 143.723891,11.6416016 143.723891,12.0224609 C143.723891,12.5660807 143.927342,13.0071615 144.334243,13.3457031 C144.741144,13.6842448 145.318943,13.9690755 146.067641,14.2001953 C146.477798,14.3238932 146.789484,14.4427083 147.0027,14.5566406 C147.215916,14.6705729 147.363214,14.793457 147.444594,14.925293 C147.525975,15.0571289 147.566665,15.2207031 147.566665,15.4160156 C147.566665,15.702474 147.457615,15.9303385 147.239516,16.0996094 C147.021417,16.2688802 146.70729,16.3535156 146.297134,16.3535156 C145.834894,16.3535156 145.464614,16.2501628 145.186294,16.043457 C144.907973,15.8367513 144.768813,15.5201823 144.768813,15.09375 L144.768813,15.09375 L143.504165,15.09375 C143.504165,15.5755208 143.636814,15.9873047 143.902114,16.3291016 C144.167413,16.6708984 144.514093,16.9272461 144.942153,17.0981445 C145.370213,17.269043 145.821873,17.3544922 146.297134,17.3544922 Z M152.382726,17.2568359 C153.033768,17.2568359 153.605057,17.1176758 154.096594,16.8393555 C154.58813,16.5610352 154.968176,16.1671549 155.23673,15.6577148 C155.505285,15.1482747 155.639562,14.555013 155.639562,13.8779297 L155.639562,13.8779297 L155.639562,13.53125 C155.639562,12.8574219 155.505285,12.264974 155.23673,11.7539062 C154.968176,11.2428385 154.591385,10.8473307 154.106359,10.5673828 C153.621333,10.2874349 153.063065,10.1474609 152.431554,10.1474609 L152.431554,10.1474609 L150.322179,10.1474609 L150.322179,17.2568359 L152.382726,17.2568359 Z M152.382726,16.2412109 L151.586828,16.2412109 L151.586828,11.1679688 L152.431554,11.1679688 C153.05981,11.1679688 153.539953,11.3697917 153.871984,11.7734375 C154.204015,12.1770833 154.370031,12.7597656 154.370031,13.5214844 L154.370031,13.5214844 L154.370031,13.8779297 C154.370031,14.6298828 154.201574,15.2117513 153.86466,15.6235352 C153.527746,16.035319 153.033768,16.2412109 152.382726,16.2412109 L152.382726,16.2412109 Z" id="$136.12USD" fill="#FFFFFF" fill-rule="nonzero"></path>
                    </g>
                </g>
                <g id="Group-44" transform="translate(13.000000, 13.601562)">
                    <path d="M5.21513097,6.3984375 L5.21513097,5.484375 L2.15653722,5.484375 L2.15653722,3.55078125 L4.77128332,3.55078125 L4.77128332,2.65429688 L2.15653722,2.65429688 L2.15653722,0.918457031 L5.18876379,0.918457031 L5.18876379,0 L1.01835363,0 L1.01835363,6.3984375 L5.21513097,6.3984375 Z M7.61599265,6.3984375 L7.61599265,4.33300781 L7.50173483,1.49414062 L9.36501608,6.3984375 L10.1780044,6.3984375 L12.0412856,1.48974609 L11.9314223,4.33300781 L11.9314223,6.3984375 L13.0652114,6.3984375 L13.0652114,0 L11.5886489,0 L9.77370749,4.86914062 L7.95437155,0 L6.47780905,0 L6.47780905,6.3984375 L7.61599265,6.3984375 Z M15.3518153,6.3984375 L15.8615809,4.93066406 L18.3181239,4.93066406 L18.8278895,6.3984375 L20.0188074,6.3984375 L17.5974207,0 L16.5734949,0 L14.1608973,6.3984375 L15.3518153,6.3984375 Z M17.9973231,4.01220703 L16.1779871,4.01220703 L17.0876551,1.38867188 L17.9973231,4.01220703 Z M22.3010168,6.3984375 L22.3010168,0 L21.1672277,0 L21.1672277,6.3984375 L22.3010168,6.3984375 Z M28.0505113,6.3984375 L28.0505113,5.484375 L25.1589097,5.484375 L25.1589097,0 L24.0207261,0 L24.0207261,6.3984375 L28.0505113,6.3984375 Z" id="EMAIL" fill="#535668" fill-rule="nonzero"></path>
                    <g id="Group-2" transform="translate(6.000000, 16.898438)">
                        <rect id="Rectangle" fill="#E0E0E0" x="0" y="0" width="73.7884" height="13.6458" rx="6.8229"></rect>
                        <path d="M9.12692165,8.78312344 C9.39557399,8.78312344 9.62731227,8.7108334 9.82213649,8.56625332 C10.0169607,8.42167324 10.1651297,8.22172207 10.2666433,7.9663998 C10.368157,7.71107754 10.4189138,7.4203793 10.4189138,7.09430508 L10.4189138,7.09430508 L10.4189138,7.02970547 C10.4189138,6.68927578 10.368157,6.3913998 10.2666433,6.13607754 C10.1651297,5.88075527 10.0169607,5.68285488 9.82213649,5.54237637 C9.62731227,5.40189785 9.39352321,5.33165859 9.1207693,5.33165859 C8.7167654,5.33165859 8.40094508,5.47111172 8.17330837,5.75001797 L8.17330837,5.75001797 L8.17330837,3.9966 L7.59806422,3.9966 L7.59806422,8.7216 L8.12408962,8.7216 L8.15177516,8.34323086 C8.38146266,8.63649258 8.70651149,8.78312344 9.12692165,8.78312344 Z M8.98234157,8.30324062 C8.78956813,8.30324062 8.62601833,8.25607266 8.49169215,8.16173672 C8.35736598,8.06740078 8.25123805,7.94127773 8.17330837,7.78336758 L8.17330837,7.78336758 L8.17330837,6.32833828 C8.24918727,6.16837734 8.35326442,6.0417416 8.48553981,5.94843105 C8.6178152,5.85512051 8.78136501,5.80846523 8.97618922,5.80846523 C9.27765407,5.80846523 9.49760036,5.92074551 9.63602809,6.14530605 C9.77445583,6.3698666 9.84366969,6.66466641 9.84366969,7.02970547 L9.84366969,7.02970547 L9.84366969,7.09430508 C9.84366969,7.45114102 9.77240504,7.74183926 9.62987575,7.9663998 C9.48734645,8.19096035 9.27150172,8.30324062 8.98234157,8.30324062 Z M11.7365287,4.82716641 C11.8431693,4.82716641 11.9267387,4.79691738 11.9872367,4.73641934 C12.0477348,4.67592129 12.0779838,4.59952969 12.0779838,4.50724453 C12.0779838,4.41290859 12.0477348,4.33497891 11.9872367,4.27345547 C11.9267387,4.21193203 11.8431693,4.18117031 11.7365287,4.18117031 C11.6298881,4.18117031 11.5473441,4.21193203 11.4888969,4.27345547 C11.4304496,4.33497891 11.401226,4.41290859 11.401226,4.50724453 C11.401226,4.59952969 11.4304496,4.67592129 11.4888969,4.73641934 C11.5473441,4.79691738 11.6298881,4.82716641 11.7365287,4.82716641 Z M12.0195365,8.7216 L12.0195365,5.39318203 L11.4442924,5.39318203 L11.4442924,8.7216 L12.0195365,8.7216 Z M13.8108819,8.7216 L13.8108819,3.9966 L13.2356377,3.9966 L13.2356377,8.7216 L13.8108819,8.7216 Z M15.6022272,8.7216 L15.6022272,3.9966 L15.0269831,3.9966 L15.0269831,8.7216 L15.6022272,8.7216 Z M19.0823909,10.1151059 C19.287469,10.1151059 19.496136,10.0915219 19.7083919,10.0443539 C19.9206477,9.99718594 20.0944515,9.92951016 20.229803,9.84132656 L20.229803,9.84132656 L20.1129085,9.49371914 C19.98576,9.56754727 19.8299007,9.62599453 19.6453304,9.66906094 C19.46076,9.71212734 19.2772151,9.73366055 19.0946956,9.73366055 C18.6824886,9.73366055 18.3297542,9.64240078 18.0364925,9.45988125 C17.7432308,9.27736172 17.5196956,9.01537441 17.365887,8.67391934 C17.2120784,8.33246426 17.1351741,7.92589687 17.1351741,7.45421719 C17.1351741,7.41320156 17.1372249,7.34552578 17.1413265,7.25118984 C17.1618343,6.75079922 17.2623225,6.30988125 17.4427913,5.92843594 C17.62326,5.54699062 17.8729427,5.25065273 18.1918392,5.03942227 C18.5107356,4.8281918 18.8814143,4.72257656 19.3038753,4.72257656 C19.9662776,4.72257656 20.4615413,4.91432461 20.7896663,5.2978207 C21.1177913,5.6813168 21.2818538,6.22990078 21.2818538,6.94357266 C21.2818538,6.99074062 21.279803,7.06764492 21.2757015,7.17428555 C21.2654475,7.41012539 21.2285335,7.62238125 21.1649593,7.81105312 C21.101385,7.999725 21.0116634,8.14840664 20.8957942,8.25709805 C20.7799251,8.36578945 20.64201,8.42013516 20.4820491,8.42013516 C20.3692561,8.42013516 20.2749202,8.38014492 20.1990413,8.30016445 C20.1231624,8.22018398 20.0852229,8.07560391 20.0852229,7.86642422 C20.0852229,7.79874844 20.0872737,7.74645352 20.0913753,7.70953945 L20.0913753,7.70953945 L20.24826,6.00534023 C20.1518733,5.93151211 20.0662532,5.87255215 19.9913997,5.82846035 C19.9165462,5.78436855 19.8273372,5.74796719 19.7237727,5.71925625 C19.6202083,5.69054531 19.4986995,5.67618984 19.3592464,5.67618984 C19.1480159,5.67618984 18.9465267,5.74847988 18.7547786,5.89305996 C18.5630306,6.03764004 18.4020442,6.24374355 18.2718196,6.51137051 C18.141595,6.77899746 18.0611018,7.08712734 18.0303401,7.43576016 C18.022137,7.54650234 18.0180354,7.62545742 18.0180354,7.67262539 C18.0180354,8.01715664 18.0908382,8.28888516 18.2364436,8.48781094 C18.3820491,8.68673672 18.589178,8.78619961 18.8578304,8.78619961 C19.011639,8.78619961 19.1603206,8.74159512 19.3038753,8.65238613 C19.44743,8.56317715 19.5725276,8.43449062 19.6791683,8.26632656 C19.7304378,8.43243984 19.8191341,8.56061367 19.9452571,8.65084805 C20.0713802,8.74108242 20.2287776,8.78619961 20.4174495,8.78619961 C20.6984065,8.78619961 20.9311702,8.70826992 21.1157405,8.55241055 C21.3003108,8.39655117 21.4372005,8.1966 21.5264095,7.95255703 C21.6156184,7.70851406 21.6653499,7.44909023 21.6756038,7.17428555 C21.6776546,7.12916836 21.67868,7.06251797 21.67868,6.97433437 C21.67868,6.43087734 21.5869075,5.95971035 21.4033626,5.5608334 C21.2198177,5.16195645 20.9506526,4.85536465 20.5958675,4.64105801 C20.2410823,4.42675137 19.8145198,4.31959805 19.31618,4.31959805 C18.8116878,4.31959805 18.3656429,4.44572109 17.9780452,4.69796719 C17.5904475,4.95021328 17.2853938,5.2983334 17.0628841,5.74232754 C16.8403743,6.18632168 16.7168147,6.68927578 16.6922054,7.25118984 C16.6901546,7.29425625 16.6891292,7.35783047 16.6891292,7.4419125 C16.6891292,7.99152187 16.7844905,8.46679043 16.9752132,8.86771816 C17.1659358,9.2686459 17.4407405,9.57677578 17.7996272,9.79210781 C18.158514,10.0074398 18.5861018,10.1151059 19.0823909,10.1151059 Z M18.9993343,8.34630703 C18.8414241,8.34630703 18.7209407,8.28529629 18.6378841,8.1632748 C18.5548274,8.04125332 18.5132991,7.86642422 18.5132991,7.6387875 C18.5132991,7.5731625 18.5163753,7.50548672 18.5225276,7.43576016 C18.5491878,7.14249844 18.6035335,6.89332852 18.6855647,6.68825039 C18.767596,6.48317227 18.8711604,6.32885098 18.9962581,6.22528652 C19.1213558,6.12172207 19.2587581,6.06993984 19.4084651,6.06993984 C19.5397151,6.06993984 19.662762,6.09967617 19.7776058,6.15914883 L19.7776058,6.15914883 L19.6361018,7.70953945 L19.6330257,7.73414883 C19.5571468,7.93922695 19.4617854,8.09252285 19.3469417,8.19403652 C19.2320979,8.2955502 19.1162288,8.34630703 18.9993343,8.34630703 Z M24.2113827,8.78312344 C24.4800351,8.78312344 24.7117734,8.7108334 24.9065976,8.56625332 C25.1014218,8.42167324 25.2495907,8.22172207 25.3511044,7.9663998 C25.4526181,7.71107754 25.5033749,7.4203793 25.5033749,7.09430508 L25.5033749,7.09430508 L25.5033749,7.02970547 C25.5033749,6.68927578 25.4526181,6.3913998 25.3511044,6.13607754 C25.2495907,5.88075527 25.1014218,5.68285488 24.9065976,5.54237637 C24.7117734,5.40189785 24.4779843,5.33165859 24.2052304,5.33165859 C23.8012265,5.33165859 23.4854062,5.47111172 23.2577695,5.75001797 L23.2577695,5.75001797 L23.2577695,3.9966 L22.6825253,3.9966 L22.6825253,8.7216 L23.2085507,8.7216 L23.2362363,8.34323086 C23.4659238,8.63649258 23.7909726,8.78312344 24.2113827,8.78312344 Z M24.0668027,8.30324062 C23.8740292,8.30324062 23.7104794,8.25607266 23.5761532,8.16173672 C23.4418271,8.06740078 23.3356991,7.94127773 23.2577695,7.78336758 L23.2577695,7.78336758 L23.2577695,6.32833828 C23.3336484,6.16837734 23.4377255,6.0417416 23.5700009,5.94843105 C23.7022763,5.85512051 23.8658261,5.80846523 24.0606503,5.80846523 C24.3621152,5.80846523 24.5820614,5.92074551 24.7204892,6.14530605 C24.8589169,6.3698666 24.9281308,6.66466641 24.9281308,7.02970547 L24.9281308,7.02970547 L24.9281308,7.09430508 C24.9281308,7.45114102 24.8568661,7.74183926 24.7143368,7.9663998 C24.5718075,8.19096035 24.3559628,8.30324062 24.0668027,8.30324062 Z M26.8209898,4.82716641 C26.9276304,4.82716641 27.0111998,4.79691738 27.0716978,4.73641934 C27.1321959,4.67592129 27.1624449,4.59952969 27.1624449,4.50724453 C27.1624449,4.41290859 27.1321959,4.33497891 27.0716978,4.27345547 C27.0111998,4.21193203 26.9276304,4.18117031 26.8209898,4.18117031 C26.7143492,4.18117031 26.6318052,4.21193203 26.573358,4.27345547 C26.5149107,4.33497891 26.4856871,4.41290859 26.4856871,4.50724453 C26.4856871,4.59952969 26.5149107,4.67592129 26.573358,4.73641934 C26.6318052,4.79691738 26.7143492,4.82716641 26.8209898,4.82716641 Z M27.1039976,8.7216 L27.1039976,5.39318203 L26.5287535,5.39318203 L26.5287535,8.7216 L27.1039976,8.7216 Z M29.2429504,8.78312344 C29.4049621,8.78312344 29.551593,8.76261562 29.682843,8.7216 L29.682843,8.7216 L29.6797668,8.26325039 C29.6490051,8.27145352 29.6079894,8.27914395 29.5567199,8.28632168 C29.5054504,8.29349941 29.4582824,8.29708828 29.415216,8.29708828 C29.302423,8.29708828 29.213214,8.26991543 29.147589,8.21556973 C29.081964,8.16122402 29.0491515,8.05509609 29.0491515,7.89718594 L29.0491515,7.89718594 L29.0491515,5.82692227 L29.6705383,5.82692227 L29.6705383,5.39318203 L29.0491515,5.39318203 L29.0491515,4.58414883 L28.4739074,4.58414883 L28.4739074,5.39318203 L27.8679015,5.39318203 L27.8679015,5.82692227 L28.4739074,5.82692227 L28.4739074,7.89410977 C28.4739074,8.2078793 28.5441467,8.43449062 28.6846252,8.57394375 C28.8251037,8.71339687 29.0112121,8.78312344 29.2429504,8.78312344 Z M31.1665711,10.0012875 L31.1665711,8.40167812 C31.3983094,8.655975 31.7151551,8.78312344 32.1171082,8.78312344 C32.3857606,8.78312344 32.6169861,8.7108334 32.810785,8.56625332 C33.0045838,8.42167324 33.1522401,8.22172207 33.2537537,7.9663998 C33.3552674,7.71107754 33.4060242,7.4203793 33.4060242,7.09430508 L33.4060242,7.09430508 L33.4060242,7.02970547 C33.4060242,6.68927578 33.3557801,6.3913998 33.2552918,6.13607754 C33.1548035,5.88075527 33.0071473,5.68285488 32.8123231,5.54237637 C32.6174988,5.40189785 32.3826844,5.33165859 32.1078797,5.33165859 C31.6977235,5.33165859 31.3767762,5.4731625 31.1450379,5.75617031 L31.1450379,5.75617031 L31.1142762,5.39318203 L30.591327,5.39318203 L30.591327,10.0012875 L31.1665711,10.0012875 Z M31.9417664,8.32169766 C31.5951844,8.32169766 31.336786,8.17096523 31.1665711,7.86950039 L31.1665711,7.86950039 L31.1665711,6.26681484 C31.2445008,6.12531094 31.3470399,6.01354336 31.4741883,5.93151211 C31.6013367,5.84948086 31.7551453,5.80846523 31.9356141,5.80846523 C32.1345399,5.80846523 32.3011658,5.86281094 32.435492,5.97150234 C32.5698182,6.08019375 32.6692811,6.22631191 32.7338807,6.40985684 C32.7984803,6.59340176 32.8307801,6.80001797 32.8307801,7.02970547 L32.8307801,7.02970547 L32.8307801,7.09430508 C32.8307801,7.32399258 32.7984803,7.53112148 32.7338807,7.7156918 C32.6692811,7.90026211 32.5703309,8.04740566 32.4370301,8.15712246 C32.3037293,8.26683926 32.1386414,8.32169766 31.9417664,8.32169766 Z M35.418854,8.78312344 C35.6116274,8.78312344 35.7885073,8.74569668 35.9494936,8.67084316 C36.1104799,8.59598965 36.248395,8.49703945 36.3632387,8.37399258 C36.3816957,8.52575039 36.4083559,8.64161953 36.4432192,8.7216 L36.4432192,8.7216 L37.0430727,8.7216 L37.0430727,8.67238125 C37.0061586,8.58624844 36.9774477,8.4811459 36.9569399,8.35707363 C36.9364321,8.23300137 36.9261782,8.11251797 36.9261782,7.99562344 L36.9261782,7.99562344 L36.9261782,6.44523281 C36.9261782,6.20324062 36.8738832,5.9986752 36.7692934,5.83153652 C36.6647036,5.66439785 36.5196108,5.5393002 36.3340151,5.45624355 C36.1484194,5.37318691 35.9325747,5.33165859 35.6864809,5.33165859 C35.4280825,5.33165859 35.198395,5.37933926 34.9974184,5.47470059 C34.7964418,5.57006191 34.6405825,5.69362148 34.5298403,5.8453793 C34.4190981,5.99713711 34.363727,6.15402187 34.363727,6.31603359 L34.363727,6.31603359 L34.9389711,6.31603359 C34.9389711,6.22169766 34.9692202,6.13402676 35.0297182,6.0530209 C35.0902163,5.97201504 35.174811,5.90741543 35.2835024,5.85922207 C35.3921938,5.81102871 35.5152407,5.78693203 35.652643,5.78693203 C35.878229,5.78693203 36.0510073,5.8448666 36.170978,5.96073574 C36.2909487,6.07660488 36.350934,6.23605312 36.350934,6.43908047 L36.350934,6.43908047 L36.350934,6.70363125 L35.7910707,6.70363125 C35.4855043,6.70363125 35.2204409,6.74515957 34.9958803,6.82821621 C34.7713198,6.91127285 34.5980288,7.03483242 34.4760073,7.19889492 C34.3539858,7.36295742 34.292975,7.56290859 34.292975,7.79874844 C34.292975,7.98126797 34.3396303,8.14738125 34.4329409,8.29708828 C34.5262514,8.44679531 34.6585268,8.56522793 34.829767,8.65238613 C35.0010073,8.73954434 35.1973696,8.78312344 35.418854,8.78312344 Z M35.5019106,8.29093594 C35.366559,8.29093594 35.2517153,8.26581387 35.1573793,8.21556973 C35.0630434,8.16532559 34.9912661,8.09713711 34.9420473,8.0110043 C34.8928286,7.92487148 34.8682192,7.82745937 34.8682192,7.71876797 C34.8682192,7.51574062 34.9553774,7.36244473 35.1296938,7.25888027 C35.3040102,7.15531582 35.5552309,7.10353359 35.8833559,7.10353359 L35.8833559,7.10353359 L36.350934,7.10353359 L36.350934,7.79259609 C36.3078676,7.88077969 36.2453188,7.96281094 36.1632875,8.03868984 C36.0812563,8.11456875 35.9833315,8.17557949 35.8695131,8.22172207 C35.7556948,8.26786465 35.6331606,8.29093594 35.5019106,8.29093594 Z M38.2284122,10.0658871 C38.4950137,10.0658871 38.7057315,9.98334316 38.8605655,9.81825527 C39.0153995,9.65316738 39.1338321,9.45885586 39.2158634,9.2353207 L39.2158634,9.2353207 L40.550922,5.39318203 L39.9387637,5.39318203 L39.1666446,7.88488125 L38.3422305,5.39318203 L37.7146915,5.39318203 L38.9020938,8.68468594 L38.7759708,9.02614102 C38.708295,9.22916836 38.6206241,9.37118496 38.5129581,9.45219082 C38.4052921,9.53319668 38.254047,9.57369961 38.0592227,9.57369961 C38.0366641,9.57369961 38.0110294,9.57216152 37.9823184,9.56908535 C37.9536075,9.56600918 37.9279727,9.56242031 37.9054141,9.55831875 L37.9054141,9.55831875 L37.9054141,10.0166684 C37.9402774,10.0269223 37.9920596,10.0376889 38.0607608,10.0489682 C38.129462,10.0602475 38.1853458,10.0658871 38.2284122,10.0658871 Z M41.6839665,8.75543789 C41.7967595,8.75543789 41.8844304,8.72467617 41.9469792,8.66315273 C42.009528,8.6016293 42.0408025,8.52164883 42.0408025,8.42321133 C42.0408025,8.32272305 42.009528,8.2401791 41.9469792,8.17557949 C41.8844304,8.11097988 41.7967595,8.07868008 41.6839665,8.07868008 C41.5732243,8.07868008 41.4865788,8.11097988 41.42403,8.17557949 C41.3614812,8.2401791 41.3302067,8.32272305 41.3302067,8.42321133 C41.3302067,8.51959805 41.3614812,8.59906582 41.42403,8.66161465 C41.4865788,8.72416348 41.5732243,8.75543789 41.6839665,8.75543789 Z M44.5765814,8.78312344 C44.8062689,8.78312344 45.0210882,8.73185391 45.2210394,8.62931484 C45.4209906,8.52677578 45.5824896,8.38988613 45.7055365,8.2186459 C45.8285833,8.04740566 45.8952337,7.86437344 45.9054876,7.66954922 L45.9054876,7.66954922 L45.3610052,7.66954922 C45.3507513,7.79259609 45.3087103,7.90385098 45.2348822,8.00331387 C45.161054,8.10277676 45.0662054,8.18070645 44.9503363,8.23710293 C44.8344671,8.29349941 44.7098822,8.32169766 44.5765814,8.32169766 C44.2525579,8.32169766 44.020307,8.20685391 43.8798285,7.97716641 C43.7393499,7.74747891 43.6691107,7.46242031 43.6691107,7.12199062 L43.6691107,7.12199062 L43.6691107,6.99279141 C43.6691107,6.77951016 43.6978216,6.58314785 43.7552435,6.40370449 C43.8126654,6.22426113 43.9090521,6.07763027 44.0444037,5.96381191 C44.1797552,5.84999355 44.3571478,5.79308437 44.5765814,5.79308437 C44.7242376,5.79308437 44.8554876,5.82589687 44.9703314,5.89152187 C45.0851751,5.95714687 45.1764349,6.04686855 45.2441107,6.16068691 C45.3117865,6.27450527 45.3507513,6.40011562 45.3610052,6.53751797 L45.3610052,6.53751797 L45.9054876,6.53751797 C45.8952337,6.30988125 45.8337103,6.10429043 45.7209173,5.92074551 C45.6081244,5.73720059 45.4527777,5.5931332 45.2548773,5.48854336 C45.0569769,5.38395352 44.8308783,5.33165859 44.5765814,5.33165859 C44.2546087,5.33165859 43.9823675,5.40599941 43.7598578,5.55468105 C43.537348,5.7033627 43.370722,5.90331387 43.2599798,6.15453457 C43.1492376,6.40575527 43.0938665,6.68517422 43.0938665,6.99279141 L43.0938665,6.99279141 L43.0938665,7.12199062 C43.0938665,7.42960781 43.1492376,7.70902676 43.2599798,7.96024746 C43.370722,8.21146816 43.537348,8.41141934 43.7598578,8.56010098 C43.9823675,8.70878262 44.2546087,8.78312344 44.5765814,8.78312344 Z M48.1705634,8.78312344 C48.4761299,8.78312344 48.7432441,8.70980801 48.9719062,8.56317715 C49.2005683,8.41654629 49.3764228,8.21556973 49.4994697,7.96024746 C49.6225166,7.7049252 49.68404,7.41627773 49.68404,7.09430508 L49.68404,7.09430508 L49.68404,7.02355312 C49.68404,6.70158047 49.6225166,6.41242031 49.4994697,6.15607266 C49.3764228,5.899725 49.2000556,5.69823574 48.9703681,5.55160488 C48.7406806,5.40497402 48.4720283,5.33165859 48.1644111,5.33165859 C47.8608955,5.33165859 47.5948066,5.40497402 47.3661445,5.55160488 C47.1374824,5.69823574 46.9616279,5.899725 46.838581,6.15607266 C46.7155342,6.41242031 46.6540107,6.70158047 46.6540107,7.02355312 L46.6540107,7.02355312 L46.6540107,7.09430508 C46.6540107,7.41627773 46.7160468,7.7049252 46.8401191,7.96024746 C46.9641914,8.21556973 47.1405586,8.41654629 47.3692207,8.56317715 C47.5978828,8.70980801 47.864997,8.78312344 48.1705634,8.78312344 Z M48.1705634,8.32169766 C47.9675361,8.32169766 47.7952705,8.26683926 47.6537666,8.15712246 C47.5122627,8.04740566 47.4061347,7.89923672 47.3353828,7.71261562 C47.2646308,7.52599453 47.2292549,7.31989102 47.2292549,7.09430508 L47.2292549,7.09430508 L47.2292549,7.02355312 C47.2292549,6.79796719 47.2646308,6.59186367 47.3353828,6.40524258 C47.4061347,6.21862148 47.51175,6.06993984 47.6522285,5.95919766 C47.792707,5.84845547 47.9634345,5.79308437 48.1644111,5.79308437 C48.3674384,5.79308437 48.5397041,5.84845547 48.681208,5.95919766 C48.8227119,6.06993984 48.9293525,6.21862148 49.0011299,6.40524258 C49.0729072,6.59186367 49.1087959,6.79796719 49.1087959,7.02355312 L49.1087959,7.02355312 L49.1087959,7.09430508 C49.1087959,7.31989102 49.0734199,7.52599453 49.0026679,7.71261562 C48.931916,7.89923672 48.8257881,8.04740566 48.6842842,8.15712246 C48.5427802,8.26683926 48.37154,8.32169766 48.1705634,8.32169766 Z M51.2292916,8.7216 L51.2292916,6.27911953 C51.2949166,6.13146328 51.3902779,6.01610684 51.5153756,5.9330502 C51.6404732,5.84999355 51.7983834,5.80846523 51.9891061,5.80846523 C52.4628365,5.80846523 52.6997018,6.04943203 52.6997018,6.53136562 L52.6997018,6.53136562 L52.6997018,8.7216 L53.2749459,8.7216 L53.2749459,6.51598477 C53.2893014,6.38268398 53.3277535,6.26271328 53.3903023,6.15607266 C53.4528512,6.04943203 53.5394967,5.9648373 53.6502389,5.90228848 C53.7609811,5.83973965 53.8901803,5.80846523 54.0378365,5.80846523 C54.2695748,5.80846523 54.4454293,5.86229824 54.5654,5.96996426 C54.6853707,6.07763027 54.7453561,6.26373867 54.7453561,6.52828945 L54.7453561,6.52828945 L54.7453561,8.7216 L55.3206002,8.7216 L55.3206002,6.5344418 C55.3206002,6.12223477 55.2262643,5.81871914 55.0375924,5.62389492 C54.8489205,5.4290707 54.572065,5.33165859 54.207026,5.33165859 C53.9752877,5.33165859 53.7696969,5.37882656 53.5902535,5.4731625 C53.4108102,5.56749844 53.2636666,5.69669766 53.1488229,5.86076016 C53.0647408,5.68234219 52.9401559,5.5495541 52.775068,5.4623959 C52.6099801,5.3752377 52.4177193,5.33165859 52.1982857,5.33165859 C51.9870553,5.33165859 51.7994088,5.36805996 51.6353463,5.4408627 C51.4712838,5.51366543 51.3318307,5.61774258 51.2169869,5.75309414 L51.2169869,5.75309414 L51.1985299,5.39318203 L50.6540475,5.39318203 L50.6540475,8.7216 L51.2292916,8.7216 Z" id="bill@bitpay.com" fill="#535668" fill-rule="nonzero"></path>
                        <g  transform="translate(61.600000, 3.500000)" stroke="#4F6EF7" stroke-width="0.5">
                            <circle  cx="3.63888" cy="3.63888" r="3.63888"></circle>
                            <line x1="1.61352172" y1="2.17808192" x2="5.35015476" y2="5.49438966" id="billing--create-bill-path-15"></line>
                            <line x1="5.35015476" y1="2.17808192" x2="1.61352172" y2="5.49438966" id="billing--create-bill-path-16"></line>
                        </g>
                    </g>
                    <rect id="Rectangle" stroke="#CED4DA" x="0" y="14.3984375" width="146" height="19" rx="3"></rect>
                </g>
                <g id="Group-41" transform="translate(13.000000, 61.601562)">
                    <path d="M3.10379423,6.3984375 L3.10379423,0 L1.97000517,0 L1.97000517,6.3984375 L3.10379423,6.3984375 Z M7.48219497,6.3984375 L7.48219497,0.918457031 L9.47291762,0.918457031 L9.47291762,0 L4.37965591,0 L4.37965591,0.918457031 L6.34840591,0.918457031 L6.34840591,6.3984375 L7.48219497,6.3984375 Z M14.8708496,6.3984375 L14.8708496,5.484375 L11.8122559,5.484375 L11.8122559,3.55078125 L14.427002,3.55078125 L14.427002,2.65429688 L11.8122559,2.65429688 L11.8122559,0.918457031 L14.8444824,0.918457031 L14.8444824,0 L10.6740723,0 L10.6740723,6.3984375 L14.8708496,6.3984375 Z M17.2717113,6.3984375 L17.2717113,4.33300781 L17.1574535,1.49414062 L19.0207347,6.3984375 L19.833723,6.3984375 L21.6970043,1.48974609 L21.587141,4.33300781 L21.587141,6.3984375 L22.72093,6.3984375 L22.72093,0 L21.2443675,0 L19.4294261,4.86914062 L17.6100902,0 L16.1335277,0 L16.1335277,6.3984375 L17.2717113,6.3984375 Z" id="ITEM" fill="#535668" fill-rule="nonzero"></path>
                    <path d="M8.97957835,26.3984375 L8.97957835,23.8056641 L10.4693244,23.8056641 L11.8579963,26.3984375 L12.7720588,26.3984375 L12.7720588,26.3457031 L11.2691291,23.6298828 C11.6529182,23.4804688 11.9524787,23.2570801 12.1678108,22.9597168 C12.3831428,22.6623535 12.4908088,22.315918 12.4908088,21.9204102 C12.4908088,21.2993164 12.2974494,20.8239746 11.9107307,20.4943848 C11.5240119,20.1647949 10.9688362,20 10.2452034,20 L10.2452034,20 L8.12703929,20 L8.12703929,26.3984375 L8.97957835,26.3984375 Z M10.267176,23.1201172 L8.97957835,23.1201172 L8.97957835,20.6899414 L10.2452034,20.6899414 C10.7139534,20.6899414 11.0625862,20.7983398 11.2911018,21.0151367 C11.5196174,21.2319336 11.6338752,21.5336914 11.6338752,21.9204102 C11.6338752,22.1459961 11.5818733,22.3496094 11.4778694,22.53125 C11.3738655,22.7128906 11.2193244,22.8564453 11.0142463,22.9619141 C10.8091682,23.0673828 10.5601448,23.1201172 10.267176,23.1201172 L10.267176,23.1201172 Z M15.8672564,26.4863281 C16.3037799,26.4863281 16.6853717,26.3815918 17.0120318,26.1721191 C17.338692,25.9626465 17.5899127,25.6755371 17.7656939,25.310791 C17.9414752,24.9460449 18.0293658,24.5336914 18.0293658,24.0737305 L18.0293658,24.0737305 L18.0293658,23.9726562 C18.0293658,23.5126953 17.9414752,23.0996094 17.7656939,22.7333984 C17.5899127,22.3671875 17.3379596,22.0793457 17.0098346,21.869873 C16.6817096,21.6604004 16.2979205,21.5556641 15.8584674,21.5556641 C15.4248736,21.5556641 15.0447467,21.6604004 14.7180865,21.869873 C14.3914264,22.0793457 14.1402057,22.3671875 13.9644244,22.7333984 C13.7886432,23.0996094 13.7007525,23.5126953 13.7007525,23.9726562 L13.7007525,23.9726562 L13.7007525,24.0737305 C13.7007525,24.5336914 13.7893756,24.9460449 13.9666217,25.310791 C14.1438678,25.6755371 14.3958209,25.9626465 14.722481,26.1721191 C15.0491412,26.3815918 15.430733,26.4863281 15.8672564,26.4863281 Z M15.8672564,25.8271484 C15.5772174,25.8271484 15.3311236,25.7487793 15.1289752,25.592041 C14.9268267,25.4353027 14.7752154,25.2236328 14.6741412,24.9570312 C14.573067,24.6904297 14.5225299,24.3959961 14.5225299,24.0737305 L14.5225299,24.0737305 L14.5225299,23.9726562 C14.5225299,23.6503906 14.573067,23.355957 14.6741412,23.0893555 C14.7752154,22.8227539 14.9260943,22.6103516 15.1267779,22.4521484 C15.3274615,22.2939453 15.571358,22.2148438 15.8584674,22.2148438 C16.1485064,22.2148438 16.3946002,22.2939453 16.5967486,22.4521484 C16.7988971,22.6103516 16.9512408,22.8227539 17.0537799,23.0893555 C17.1563189,23.355957 17.2075885,23.6503906 17.2075885,23.9726562 L17.2075885,23.9726562 L17.2075885,24.0737305 C17.2075885,24.3959961 17.1570514,24.6904297 17.0559771,24.9570312 C16.9549029,25.2236328 16.8032916,25.4353027 16.6011432,25.592041 C16.3989947,25.7487793 16.1543658,25.8271484 15.8672564,25.8271484 Z M21.3267119,26.4863281 C21.6548369,26.4863281 21.9617216,26.4130859 22.2473662,26.2666016 C22.5330107,26.1201172 22.7637236,25.9245605 22.9395048,25.6799316 C23.1152861,25.4353027 23.2105009,25.1738281 23.2251494,24.8955078 L23.2251494,24.8955078 L22.4473173,24.8955078 C22.4326689,25.0712891 22.3726103,25.2302246 22.2671415,25.3723145 C22.1616728,25.5144043 22.0261747,25.6257324 21.8606474,25.7062988 C21.6951201,25.7868652 21.5171415,25.8271484 21.3267119,25.8271484 C20.8638212,25.8271484 20.5320341,25.6630859 20.3313505,25.3349609 C20.1306669,25.0068359 20.0303251,24.5996094 20.0303251,24.1132812 L20.0303251,24.1132812 L20.0303251,23.9287109 C20.0303251,23.6240234 20.0713408,23.3435059 20.153372,23.0871582 C20.2354033,22.8308105 20.3730986,22.6213379 20.566458,22.4587402 C20.7598173,22.2961426 21.0132353,22.2148438 21.3267119,22.2148438 C21.5376494,22.2148438 21.7251494,22.2617188 21.8892119,22.3554688 C22.0532744,22.4492188 22.1836455,22.5773926 22.2803251,22.7399902 C22.3770048,22.9025879 22.4326689,23.0820312 22.4473173,23.2783203 L22.4473173,23.2783203 L23.2251494,23.2783203 C23.2105009,22.953125 23.1226103,22.6594238 22.9614775,22.3972168 C22.8003447,22.1350098 22.5784208,21.9291992 22.295706,21.7797852 C22.0129912,21.6303711 21.6899931,21.5556641 21.3267119,21.5556641 C20.8667509,21.5556641 20.4778349,21.6618652 20.1599638,21.8742676 C19.8420927,22.0866699 19.6040556,22.3723145 19.4458525,22.7312012 C19.2876494,23.0900879 19.2085478,23.4892578 19.2085478,23.9287109 L19.2085478,23.9287109 L19.2085478,24.1132812 C19.2085478,24.5527344 19.2876494,24.9519043 19.4458525,25.310791 C19.6040556,25.6696777 19.8420927,25.9553223 20.1599638,26.1677246 C20.4778349,26.380127 20.8667509,26.4863281 21.3267119,26.4863281 Z M25.3315774,26.3984375 L25.3315774,24.7197266 L25.8413431,24.1923828 L27.4848977,26.3984375 L28.4516946,26.3984375 L26.3818704,23.6254883 L28.2319681,21.6435547 L27.2344095,21.6435547 L25.766636,23.2124023 L25.3315774,23.7265625 L25.3315774,19.6484375 L24.5098001,19.6484375 L24.5098001,26.3984375 L25.3315774,26.3984375 Z M31.4194508,26.4863281 C31.8530446,26.4863281 32.2163258,26.4006348 32.5092946,26.229248 C32.8022633,26.0578613 33.0366383,25.8374023 33.2124196,25.5678711 L33.2124196,25.5678711 L32.7158375,25.1811523 C32.5576344,25.3891602 32.3781911,25.5488281 32.1775075,25.6601562 C31.9768239,25.7714844 31.7387868,25.8271484 31.4633961,25.8271484 C31.1821461,25.8271484 30.9367848,25.7575684 30.7273122,25.6184082 C30.5178395,25.479248 30.3559743,25.2895508 30.2417165,25.0493164 C30.1274586,24.809082 30.0659352,24.5410156 30.0571461,24.2451172 L30.0571461,24.2451172 L33.273943,24.2451172 L33.273943,23.8803711 C33.273943,23.4233398 33.2036305,23.0205078 33.0630055,22.671875 C32.9223805,22.3232422 32.7063161,22.0500488 32.4148122,21.8522949 C32.1233082,21.654541 31.7563649,21.5556641 31.3139821,21.5556641 C30.9507008,21.5556641 30.6101247,21.6538086 30.2922536,21.8500977 C29.9743825,22.0463867 29.7187672,22.329834 29.5254079,22.7004395 C29.3320485,23.0710449 29.2353688,23.5039062 29.2353688,23.9990234 L29.2353688,23.9990234 L29.2353688,24.1879883 C29.2353688,24.6303711 29.3254567,25.0258789 29.5056325,25.3745117 C29.6858082,25.7231445 29.9414235,25.9956055 30.2724782,26.1918945 C30.6035329,26.3881836 30.9858571,26.4863281 31.4194508,26.4863281 Z M32.4521657,23.5859375 L30.0835133,23.5859375 C30.1391774,23.1494141 30.2761403,22.8117676 30.494402,22.572998 C30.7126637,22.3342285 30.9858571,22.2148438 31.3139821,22.2148438 C31.6948415,22.2148438 31.9738942,22.3400879 32.1511403,22.5905762 C32.3283864,22.8410645 32.4287282,23.1523438 32.4521657,23.5244141 L32.4521657,23.5244141 L32.4521657,23.5859375 Z M35.9780273,26.4863281 C36.2094727,26.4863281 36.4189453,26.4570312 36.6064453,26.3984375 L36.6064453,26.3984375 L36.6020508,25.7436523 C36.5581055,25.7553711 36.4995117,25.7663574 36.4262695,25.7766113 C36.3530273,25.7868652 36.2856445,25.7919922 36.2241211,25.7919922 C36.0629883,25.7919922 35.9355469,25.7531738 35.8417969,25.6755371 C35.7480469,25.5979004 35.7011719,25.4462891 35.7011719,25.2207031 L35.7011719,25.2207031 L35.7011719,22.2631836 L36.5888672,22.2631836 L36.5888672,21.6435547 L35.7011719,21.6435547 L35.7011719,20.487793 L34.8793945,20.487793 L34.8793945,21.6435547 L34.0136719,21.6435547 L34.0136719,22.2631836 L34.8793945,22.2631836 L34.8793945,25.2163086 C34.8793945,25.6645508 34.9797363,25.9882812 35.1804199,26.1875 C35.3811035,26.3867188 35.6469727,26.4863281 35.9780273,26.4863281 Z M39.6533031,26.4863281 C40.019514,26.4863281 40.3417796,26.427002 40.6201,26.3083496 C40.8984203,26.1896973 41.1137523,26.0241699 41.266096,25.8117676 C41.4184398,25.5993652 41.4946117,25.3554688 41.4946117,25.0800781 C41.4946117,24.8251953 41.4338207,24.6083984 41.3122386,24.4296875 C41.1906566,24.2509766 41.0053539,24.1000977 40.7563304,23.9770508 C40.507307,23.8540039 40.1835765,23.7470703 39.785139,23.65625 C39.4892406,23.5917969 39.2629222,23.5258789 39.1061839,23.4584961 C38.9494457,23.3911133 38.8410472,23.3156738 38.7809886,23.2321777 C38.72093,23.1486816 38.6909007,23.0439453 38.6909007,22.9179688 C38.6909007,22.7949219 38.7238597,22.6799316 38.7897777,22.572998 C38.8556957,22.4660645 38.9589671,22.3796387 39.0995921,22.3137207 C39.2402171,22.2478027 39.4174632,22.2148438 39.6313304,22.2148438 C39.8334789,22.2148438 40.0099925,22.255127 40.1608714,22.3356934 C40.3117503,22.4162598 40.4267406,22.5195312 40.5058421,22.6455078 C40.5849437,22.7714844 40.6244945,22.9018555 40.6244945,23.0366211 L40.6244945,23.0366211 L41.4462718,23.0366211 C41.4462718,22.7612305 41.3737621,22.5114746 41.2287425,22.2873535 C41.083723,22.0632324 40.8735179,21.8852539 40.5981273,21.753418 C40.3227367,21.621582 40.000471,21.5556641 39.6313304,21.5556641 C39.2856273,21.5556641 38.9787425,21.6186523 38.7106761,21.7446289 C38.4426097,21.8706055 38.2353343,22.0390625 38.08885,22.25 C37.9423656,22.4609375 37.8691234,22.6923828 37.8691234,22.9443359 C37.8691234,23.3164062 38.0134105,23.6079102 38.3019847,23.8188477 C38.5905589,24.0297852 39.0175609,24.1938477 39.5829906,24.3110352 C39.8818187,24.3725586 40.1103343,24.4443359 40.2685375,24.5263672 C40.4267406,24.6083984 40.5336742,24.6977539 40.5893382,24.7944336 C40.6450023,24.8911133 40.6728343,25.0053711 40.6728343,25.137207 C40.6728343,25.269043 40.6332835,25.3869629 40.554182,25.4909668 C40.4750804,25.5949707 40.3586253,25.677002 40.2048168,25.7370605 C40.0510082,25.7971191 39.8671703,25.8271484 39.6533031,25.8271484 C39.4687328,25.8271484 39.2936839,25.7978516 39.1281566,25.7392578 C38.9626293,25.6806641 38.8242015,25.5847168 38.7128734,25.451416 C38.6015453,25.3181152 38.5400218,25.1459961 38.5283031,24.9350586 L38.5283031,24.9350586 L37.7065257,24.9350586 C37.7065257,25.2045898 37.7826976,25.4580078 37.9350414,25.6953125 C38.0873851,25.9326172 38.3107738,26.1237793 38.6052074,26.2687988 C38.899641,26.4138184 39.2490062,26.4863281 39.6533031,26.4863281 Z M43.7416648,26.3984375 L43.7416648,22.9970703 C43.8588523,22.765625 44.0177878,22.5810547 44.2184714,22.4433594 C44.419155,22.3056641 44.6454733,22.2368164 44.8974265,22.2368164 C45.2138327,22.2368164 45.450405,22.3188477 45.6071433,22.4829102 C45.7638815,22.6469727 45.8422507,22.9106445 45.8422507,23.2739258 L45.8422507,23.2739258 L45.8422507,26.3984375 L46.664028,26.3984375 L46.664028,23.2827148 C46.664028,22.1313477 46.1557273,21.5556641 45.1391257,21.5556641 C44.854946,21.5556641 44.5942038,21.6120605 44.3568991,21.7248535 C44.1195944,21.8376465 43.9145163,21.9980469 43.7416648,22.2060547 L43.7416648,22.2060547 L43.7416648,19.6484375 L42.9198874,19.6484375 L42.9198874,26.3984375 L43.7416648,26.3984375 Z M48.7352999,20.8349609 C48.8876436,20.8349609 49.0070284,20.791748 49.0934542,20.7053223 C49.1798799,20.6188965 49.2230928,20.5097656 49.2230928,20.3779297 C49.2230928,20.2431641 49.1798799,20.1318359 49.0934542,20.0439453 C49.0070284,19.9560547 48.8876436,19.9121094 48.7352999,19.9121094 C48.5829561,19.9121094 48.4650362,19.9560547 48.3815401,20.0439453 C48.298044,20.1318359 48.256296,20.2431641 48.256296,20.3779297 C48.256296,20.5097656 48.298044,20.6188965 48.3815401,20.7053223 C48.4650362,20.791748 48.5829561,20.8349609 48.7352999,20.8349609 Z M49.1395967,26.3984375 L49.1395967,21.6435547 L48.3178194,21.6435547 L48.3178194,26.3984375 L49.1395967,26.3984375 Z M51.628349,28.2265625 L51.628349,25.9414062 C51.9594037,26.3046875 52.4120404,26.4863281 52.9862592,26.4863281 C53.3700483,26.4863281 53.7003705,26.3830566 53.977226,26.1765137 C54.2540815,25.9699707 54.465019,25.6843262 54.6100385,25.3195801 C54.755058,24.954834 54.8275678,24.5395508 54.8275678,24.0737305 L54.8275678,24.0737305 L54.8275678,23.9814453 C54.8275678,23.4951172 54.7557904,23.0695801 54.6122358,22.704834 C54.4686811,22.3400879 54.2577436,22.057373 53.9794233,21.8566895 C53.7011029,21.6560059 53.3656537,21.5556641 52.9730756,21.5556641 C52.3871381,21.5556641 51.928642,21.7578125 51.5975873,22.1621094 L51.5975873,22.1621094 L51.553642,21.6435547 L50.8065717,21.6435547 L50.8065717,28.2265625 L51.628349,28.2265625 Z M52.7357709,25.8271484 C52.2406537,25.8271484 51.8715131,25.6118164 51.628349,25.1811523 L51.628349,25.1811523 L51.628349,22.8916016 C51.7396772,22.6894531 51.8861615,22.5297852 52.0678022,22.4125977 C52.2494428,22.2954102 52.4691693,22.2368164 52.7269818,22.2368164 C53.0111615,22.2368164 53.2491986,22.3144531 53.4410932,22.4697266 C53.6329877,22.625 53.7750776,22.8337402 53.8673627,23.0959473 C53.9596479,23.3581543 54.0057904,23.6533203 54.0057904,23.9814453 L54.0057904,23.9814453 L54.0057904,24.0737305 C54.0057904,24.4018555 53.9596479,24.6977539 53.8673627,24.9614258 C53.7750776,25.2250977 53.6337201,25.4353027 53.4432904,25.592041 C53.2528608,25.7487793 53.0170209,25.8271484 52.7357709,25.8271484 Z" id="Rocketship" fill="#535668" fill-rule="nonzero"></path>
                    <rect id="Rectangle" stroke="#CED4DA" x="0" y="14.3984375" width="146" height="19" rx="3"></rect>
                </g>
                <g id="Group-43" transform="translate(13.000000, 110.000000)">
                    <g id="Group-42" transform="translate(0.000000, 15.000000)">
                        <rect id="Rectangle" stroke="#CED4DA" x="0" y="0" width="146" height="19" rx="3"></rect>
                        <polygon id="1" fill="#535668" fill-rule="nonzero" points="10.493661 12 10.493661 5.56640625 10.3662196 5.56640625 8.03711799 6.44091797 8.03711799 7.17480469 9.67188362 6.57275391 9.67188362 12"></polygon>
                    </g>
                    <path d="M5.29645565,8.11181641 L6.0347369,7.45263672 L4.94049862,6.59570312 C5.28913143,6.32910156 5.55866268,5.97167969 5.74909237,5.5234375 C5.93952206,5.07519531 6.0347369,4.55517578 6.0347369,3.96337891 L6.0347369,3.96337891 L6.0347369,3.64257812 C6.0347369,3.00390625 5.92340878,2.44873047 5.70075253,1.97705078 C5.47809628,1.50537109 5.16535214,1.14355469 4.76252011,0.891601562 C4.35968807,0.639648438 3.89313534,0.513671875 3.3628619,0.513671875 C2.84137753,0.513671875 2.37995175,0.640380859 1.97858456,0.893798828 C1.57721737,1.1472168 1.26447323,1.50976562 1.04035214,1.98144531 C0.816231043,2.453125 0.704170496,3.00683594 0.704170496,3.64257812 L0.704170496,3.64257812 L0.704170496,3.96337891 C0.704170496,4.59912109 0.816963465,5.15283203 1.0425494,5.62451172 C1.26813534,6.09619141 1.58234432,6.45800781 1.98517636,6.70996094 C2.38800839,6.96191406 2.85016659,7.08789062 3.37165097,7.08789062 C3.57086972,7.08789062 3.75983456,7.0703125 3.9385455,7.03515625 L3.9385455,7.03515625 L5.29645565,8.11181641 Z M3.37165097,6.15185547 C3.0581744,6.15185547 2.78717831,6.06762695 2.55866268,5.89916992 C2.33014706,5.73071289 2.15436581,5.48242188 2.03131893,5.15429688 C1.90827206,4.82617188 1.84674862,4.42919922 1.84674862,3.96337891 L1.84674862,3.96337891 L1.84674862,3.63378906 C1.84674862,3.16796875 1.90753964,2.77172852 2.02912167,2.44506836 C2.1507037,2.1184082 2.32502011,1.87158203 2.55207089,1.70458984 C2.77912167,1.53759766 3.04938534,1.45410156 3.3628619,1.45410156 C3.85211972,1.45410156 4.22931698,1.64086914 4.4944537,2.0144043 C4.75959042,2.38793945 4.89215878,2.92773438 4.89215878,3.63378906 L4.89215878,3.63378906 L4.89215878,3.96337891 C4.89215878,4.66943359 4.76032284,5.21069336 4.49665097,5.5871582 C4.23297909,5.96362305 3.85797909,6.15185547 3.37165097,6.15185547 Z M9.81548139,7.08789062 C10.269583,7.08789062 10.6782744,7.00366211 11.0415556,6.83520508 C11.4048369,6.66674805 11.6912138,6.41552734 11.9006865,6.08154297 C12.1101591,5.74755859 12.2148955,5.34326172 12.2148955,4.86865234 L12.2148955,4.86865234 L12.2148955,0.6015625 L11.0767119,0.6015625 L11.0767119,4.86865234 C11.0767119,5.31103516 10.967581,5.63916016 10.7493193,5.85302734 C10.5310576,6.06689453 10.2197783,6.17382812 9.81548139,6.17382812 C9.41704389,6.17382812 9.10722943,6.06616211 8.88603803,5.85083008 C8.66484662,5.63549805 8.55425092,5.30810547 8.55425092,4.86865234 L8.55425092,4.86865234 L8.55425092,0.6015625 L7.42046186,0.6015625 L7.42046186,4.86865234 C7.42046186,5.34619141 7.5222685,5.7512207 7.72588178,6.08374023 C7.92949506,6.41625977 8.2122099,6.66674805 8.57402631,6.83520508 C8.93584272,7.00366211 9.34966108,7.08789062 9.81548139,7.08789062 Z M14.2773782,7 L14.7871438,5.53222656 L17.2436868,5.53222656 L17.7534524,7 L18.9443704,7 L16.5229837,0.6015625 L15.4990579,0.6015625 L13.0864602,7 L14.2773782,7 Z M16.922886,4.61376953 L15.1035501,4.61376953 L16.0132181,1.99023438 L16.922886,4.61376953 Z M21.1606618,7 L21.1606618,2.5 L23.9775563,7 L25.1157399,7 L25.1157399,0.6015625 L23.9863454,0.6015625 L23.9863454,5.11035156 L21.1606618,0.6015625 L20.0224782,0.6015625 L20.0224782,7 L21.1606618,7 Z M29.4414062,7 L29.4414062,1.52001953 L31.4321289,1.52001953 L31.4321289,0.6015625 L26.3388672,0.6015625 L26.3388672,1.52001953 L28.3076172,1.52001953 L28.3076172,7 L29.4414062,7 Z M33.8373851,7 L33.8373851,0.6015625 L32.703596,0.6015625 L32.703596,7 L33.8373851,7 Z M38.2157858,7 L38.2157858,1.52001953 L40.2065085,1.52001953 L40.2065085,0.6015625 L35.1132468,0.6015625 L35.1132468,1.52001953 L37.0819968,1.52001953 L37.0819968,7 L38.2157858,7 Z M44.1630342,7 L44.1630342,4.64892578 L46.303171,0.6015625 L45.0419405,0.6015625 L43.5873506,3.61181641 L42.1371553,0.6015625 L40.8759249,0.6015625 L43.0160616,4.64892578 L43.0160616,7 L44.1630342,7 Z" id="QUANTITY" fill="#535668" fill-rule="nonzero"></path>
                </g>
            </g>
            <g id="Group-39" transform="translate(0.000000, 192.000000)">
                <g id="Rectangle">
                    <use fill="black" fill-opacity="1" filter="url(#filter-4)" xlink:href="#path-3"></use>
                    <use fill="#4F6EF7" fill-rule="evenodd" xlink:href="#path-3"></use>
                </g>
                <path d="M63.8926643,16.0976562 C64.403732,16.0976562 64.8505093,16.0187174 65.2329963,15.8608398 C65.6154833,15.7029622 65.9108935,15.4775391 66.1192268,15.1845703 C66.3275601,14.8916016 66.4317268,14.5465495 66.4317268,14.1494141 C66.4317268,13.7750651 66.3470914,13.4479167 66.1778205,13.1679688 C66.0085497,12.8880208 65.7522021,12.6455078 65.4087776,12.4404297 C65.0653531,12.2353516 64.6234586,12.0530599 64.083094,11.8935547 C63.5655159,11.7438151 63.1862841,11.5810547 62.9453987,11.4052734 C62.7045133,11.2294922 62.5840705,11.0146484 62.5840705,10.7607422 C62.5840705,10.4742839 62.6906786,10.2423503 62.9038948,10.0649414 C63.1171109,9.88753255 63.4287971,9.79882812 63.8389534,9.79882812 C64.2751513,9.79882812 64.6047411,9.9046224 64.8277229,10.1162109 C65.0507047,10.3277995 65.1621955,10.6110026 65.1621955,10.9658203 L65.1621955,10.9658203 L66.4219612,10.9658203 C66.4219612,10.5654297 66.3177945,10.2000326 66.1094612,9.86962891 C65.9011278,9.53922526 65.6024625,9.27718099 65.2134651,9.08349609 C64.8244677,8.8898112 64.3711799,8.79296875 63.8536018,8.79296875 C63.3588101,8.79296875 62.919357,8.87679036 62.5352424,9.04443359 C62.1511278,9.21207682 61.8524625,9.44563802 61.6392463,9.74511719 C61.4260302,10.0445964 61.3194221,10.3847656 61.3194221,10.765625 C61.3194221,11.3092448 61.5228726,11.7503255 61.9297737,12.0888672 C62.3366747,12.4274089 62.9144742,12.7122396 63.6631721,12.9433594 C64.0733284,13.0670573 64.3850146,13.1858724 64.5982307,13.2998047 C64.8114468,13.413737 64.958745,13.5366211 65.0401252,13.668457 C65.1215054,13.800293 65.1621955,13.9638672 65.1621955,14.1591797 C65.1621955,14.445638 65.0531461,14.6735026 64.8350471,14.8427734 C64.6169481,15.0120443 64.3028205,15.0966797 63.8926643,15.0966797 C63.4304247,15.0966797 63.0601448,14.9933268 62.7818244,14.7866211 C62.5035041,14.5799154 62.364344,14.2633464 62.364344,13.8369141 L62.364344,13.8369141 L61.0996955,13.8369141 C61.0996955,14.3186849 61.2323453,14.7304688 61.4976448,15.0722656 C61.7629442,15.4140625 62.1096239,15.6704102 62.5376838,15.8413086 C62.9657437,16.012207 63.4174039,16.0976562 63.8926643,16.0976562 Z M72.5807962,16 L72.5807962,14.984375 L69.1823587,14.984375 L69.1823587,12.8359375 L72.0876321,12.8359375 L72.0876321,11.8398438 L69.1823587,11.8398438 L69.1823587,9.91113281 L72.5514993,9.91113281 L72.5514993,8.890625 L67.9177102,8.890625 L67.9177102,16 L72.5807962,16 Z M75.2484203,16 L75.2484203,11 L78.3783031,16 L79.6429515,16 L79.6429515,8.890625 L78.3880687,8.890625 L78.3880687,13.9003906 L75.2484203,8.890625 L73.9837718,8.890625 L73.9837718,16 L75.2484203,16 Z M83.5556928,16 C84.2067345,16 84.7780235,15.8608398 85.26956,15.5825195 C85.7610964,15.3041992 86.141142,14.910319 86.4096967,14.4008789 C86.6782514,13.8914388 86.8125287,13.2981771 86.8125287,12.6210938 L86.8125287,12.6210938 L86.8125287,12.2744141 C86.8125287,11.6005859 86.6782514,11.008138 86.4096967,10.4970703 C86.141142,9.9860026 85.7643516,9.59049479 85.2793256,9.31054688 C84.7942996,9.03059896 84.2360313,8.890625 83.6045209,8.890625 L83.6045209,8.890625 L81.4951459,8.890625 L81.4951459,16 L83.5556928,16 Z M83.5556928,14.984375 L82.7597943,14.984375 L82.7597943,9.91113281 L83.6045209,9.91113281 C84.2327761,9.91113281 84.7129193,10.1129557 85.0449506,10.5166016 C85.3769818,10.9202474 85.5429975,11.5029297 85.5429975,12.2646484 L85.5429975,12.2646484 L85.5429975,12.6210938 C85.5429975,13.3730469 85.3745404,13.9549154 85.0376264,14.3666992 C84.7007123,14.7784831 84.2067345,14.984375 83.5556928,14.984375 L83.5556928,14.984375 Z M93.9593003,16 C94.7438055,16 95.3525295,15.8217773 95.7854722,15.465332 C96.2184149,15.1088867 96.4348863,14.59375 96.4348863,13.9199219 C96.4348863,13.5325521 96.3339748,13.191569 96.1321519,12.8969727 C95.930329,12.6023763 95.6324774,12.4029948 95.2385972,12.2988281 C95.5706284,12.1621094 95.8253485,11.9635417 96.0027574,11.703125 C96.1801662,11.4427083 96.2688706,11.1464844 96.2688706,10.8144531 C96.2688706,10.1666667 96.0540269,9.68408203 95.6243394,9.36669922 C95.1946519,9.04931641 94.5794175,8.890625 93.7786363,8.890625 L93.7786363,8.890625 L91.33723,8.890625 L91.33723,16 L93.9593003,16 Z M93.7884019,11.8789062 L92.6018784,11.8789062 L92.6018784,9.91113281 L93.7786363,9.91113281 C94.2018133,9.91113281 94.5126857,9.98844401 94.7112534,10.1430664 C94.9098212,10.2976888 95.009105,10.547526 95.009105,10.8925781 C95.009105,11.2050781 94.9024969,11.4475911 94.6892808,11.6201172 C94.4760646,11.7926432 94.1757717,11.8789062 93.7884019,11.8789062 L93.7884019,11.8789062 Z M93.9593003,14.984375 L92.6018784,14.984375 L92.6018784,12.8066406 L94.0130113,12.8066406 C94.7877508,12.8066406 95.1751206,13.1777344 95.1751206,13.9199219 C95.1751206,14.2421875 95.0701402,14.5001628 94.8601792,14.6938477 C94.6502183,14.8875326 94.3499253,14.984375 93.9593003,14.984375 L93.9593003,14.984375 Z M99.4101275,16 L99.4101275,8.890625 L98.1503619,8.890625 L98.1503619,16 L99.4101275,16 Z M105.798455,16 L105.798455,14.984375 L102.585564,14.984375 L102.585564,8.890625 L101.320916,8.890625 L101.320916,16 L105.798455,16 Z M111.625259,16 L111.625259,14.984375 L108.412368,14.984375 L108.412368,8.890625 L107.147719,8.890625 L107.147719,16 L111.625259,16 Z" id="SENDBILL" fill="#FFFFFF" fill-rule="nonzero"></path>
            </g>
        </g>
    </g>
</svg>
