<svg xmlns="http://www.w3.org/2000/svg" width="238.541" height="238.541" viewBox="0 0 238.541 238.541"><defs><style>.a,.b{fill-rule:evenodd;}.b{fill:none;}</style></defs><g transform="translate(-105.873 -1.364)"><path class="a" d="M105.875,119.821c.342-.417.65-.867,1.03-1.247q26.889-26.907,53.79-53.806L216.222,9.243q3.428-3.426,6.861-6.848c.382-.377.829-.689,1.247-1.031h1.629c1.745,1.7,3.51,3.38,5.232,5.1q35.141,35.127,70.271,70.265,20.88,20.877,41.751,41.763a17.159,17.159,0,0,1,1.2,1.488v1.139a11.813,11.813,0,0,1-1.1,1.482Q288.236,177.71,233.14,232.794c-1.824,1.824-3.632,3.664-5.469,5.475-.59.582-1.248,1.092-1.876,1.636h-1.3a19.216,19.216,0,0,1-1.544-1.26Q192.41,208.128,161.888,177.6q-27.474-27.473-54.947-54.948c-.378-.378-.713-.8-1.068-1.2Q105.876,120.636,105.875,119.821ZM225.025,9.74,113.975,120.789Q169.586,176.4,225.234,232.048,280.722,176.557,336.283,121,280.675,65.39,225.025,9.74Z"/><path class="b" d="M225.025,9.74Q280.642,65.356,336.283,121q-55.512,55.511-111.049,111.048-55.595-55.593-111.259-111.259ZM172.3,120.414l.006.016a19.239,19.239,0,0,0,5.08-2.862c3.725-3.153,3.049-9.488-1.922-11.154a12.408,12.408,0,0,0-3.731-.711c-7.248-.076-14.5-.052-21.746-.06a3.069,3.069,0,0,0-.4.051v.893c.823.131,1.6.225,2.371.386a1.775,1.775,0,0,1,1.52,1.592,15.263,15.263,0,0,1,.154,1.943q.017,10.384.005,20.77a11.541,11.541,0,0,1-.073,1.464,2.181,2.181,0,0,1-2.163,2.223c-.662.108-1.33.178-2.005.266v.876c.254.016.466.042.677.042q10.752,0,21.5,0a12.943,12.943,0,0,0,5.532-1.167,7.609,7.609,0,0,0,3.314-10.72c-1.263-2.125-3.325-3.026-5.642-3.466C173.961,120.638,173.129,120.539,172.3,120.414Zm47.61,14.827c-.791-.121-1.539-.223-2.281-.355a2.034,2.034,0,0,1-1.76-1.956,16.953,16.953,0,0,1-.137-1.947q-.014-10.792,0-21.586c0-.243,0-.489.024-.731.119-1.213.5-1.673,1.738-1.709a52.5,52.5,0,0,1,6.1.05,5.252,5.252,0,0,1,5.041,3.928,8.794,8.794,0,0,1,.316,2.165,5.937,5.937,0,0,1-3.136,5.824,11.357,11.357,0,0,1-4.443,1.219c-1.182.114-2.369.167-3.576.25v1.06c1.219.109,2.377.266,3.539.307a3.579,3.579,0,0,1,3.248,2.066c1.205,2.247,2.376,4.518,3.7,6.7a19.788,19.788,0,0,0,2.812,3.66c1.592,1.6,3.757,1.9,5.9,1.917,6.162.06,12.324.039,18.487.046a2.863,2.863,0,0,0,.505-.1c-.019-.29-.038-.548-.057-.811-.815-.115-1.571-.181-2.311-.336a2.108,2.108,0,0,1-1.934-2.084,12.255,12.255,0,0,1-.122-1.7q-.014-10.1,0-20.2a17.174,17.174,0,0,1,.147-2.025,2.09,2.09,0,0,1,1.857-1.968c.712-.125,1.428-.232,2.145-.348V105.7H241.146v.871c.809.125,1.586.225,2.354.369a1.913,1.913,0,0,1,1.631,1.7,12.958,12.958,0,0,1,.173,2.023q.02,10.305,0,20.608a6.283,6.283,0,0,1-.183,1.854,2.834,2.834,0,0,1-.914,1.45,4.935,4.935,0,0,1-5.693-.646A40.358,40.358,0,0,1,232.3,125.6c-.944-1.64-1.85-3.3-2.791-4.992l.729-.379a11.527,11.527,0,0,0,3.692-2.758,6.9,6.9,0,0,0-3.454-11.333,16.016,16.016,0,0,0-4.021-.479c-6.706-.047-13.412-.022-20.118-.022h-.879v.974c.509.065.966.125,1.422.18,1.928.232,2.5.833,2.609,2.754.01.163.009.325.009.489q.017,10.221.028,20.444a18.984,18.984,0,0,1-.1,2.276,2.174,2.174,0,0,1-2.174,2.21c-.661.1-1.329.176-2.012.264v.861h14.676C219.912,135.773,219.912,135.516,219.912,135.241Zm79.527-22.529a1.826,1.826,0,0,0,.013-.333c-.289-1.877-.6-3.749-.861-5.63-.079-.587-.47-.663-.89-.75a33.284,33.284,0,0,0-8.733-.765,16.333,16.333,0,0,0-7.5,1.89,7.28,7.28,0,0,0-3.328,8.626,8.559,8.559,0,0,0,3.834,4.5c1.539.958,3.188,1.74,4.785,2.6,2.2,1.182,4.41,2.326,6.574,3.563a4.093,4.093,0,0,1,1.854,2.3,4.558,4.558,0,0,1-2.361,5.36,8.784,8.784,0,0,1-7.619.609,12.5,12.5,0,0,1-6.336-5.727c-.419-.718-.74-1.489-1.126-2.277l-1.114.311c.318,1.813.726,3.536.895,5.283a2.43,2.43,0,0,0,1.66,2.233c.1.042.2.1.292.143a20.649,20.649,0,0,0,12.125,1.859,11.293,11.293,0,0,0,6.974-3.157c2.573-2.671,3.65-7.544-.119-10.968a16,16,0,0,0-3.44-2.43c-2.535-1.287-5.173-2.376-7.753-3.578a8.748,8.748,0,0,1-3.451-2.523,3.6,3.6,0,0,1-.4-4.047,5.767,5.767,0,0,1,3.52-2.835c4.157-1.438,9.245.919,11.145,5.2C298.376,112.852,298.675,113.136,299.439,112.712Zm-113.606-6.13c.857.128,1.637.223,2.407.366a1.944,1.944,0,0,1,1.705,1.811,19.16,19.16,0,0,1,.155,2.27q.018,9.893,0,19.785a16.128,16.128,0,0,1-.124,2.027,2.1,2.1,0,0,1-2.074,2.112c-.664.11-1.334.176-2.049.268v.882h14.789v-.88c-.759-.1-1.461-.157-2.152-.278a2.09,2.09,0,0,1-2.016-2.162c-.08-.836-.129-1.679-.131-2.519q-.017-9.282,0-18.564c0-.757.032-1.518.1-2.274.157-1.85.705-2.4,2.564-2.628.556-.069,1.111-.13,1.666-.194v-.914h-14.84C185.833,106,185.833,106.266,185.833,106.582ZM261.2,118.964c.541-.649,1.025-1.232,1.514-1.813,1.888-2.241,3.7-4.553,5.688-6.7a10.164,10.164,0,0,1,6.207-3.615c.558-.067,1.114-.151,1.671-.227v-.923H262.7v.928c.661.1,1.279.175,1.889.3,1.23.254,1.464.755.709,1.719-2.208,2.821-4.4,5.656-6.719,8.386-1.329,1.565-2.813,3.047-5.032,3.373v1.092a4.4,4.4,0,0,1,3.872,2.108c.353.48.756.925,1.132,1.39q4.3,5.314,8.6,10.637a1.347,1.347,0,0,0,1.18.539c2.688-.023,5.375-.009,8.064-.013.235,0,.472-.033.759-.055-.023-.344-.043-.624-.065-.931a6.727,6.727,0,0,1-4.789-2.484c-1.793-2.034-3.557-4.1-5.26-6.208C265.068,124.021,263.173,121.508,261.2,118.964ZM198.146,80.475c-.725-.968-1.452-1.842-2.066-2.791a1.4,1.4,0,0,0-1.8-.6v8.22h1.253v-6.2c.94,1.245,1.752,2.32,2.609,3.453l2.476-3.281.188.062v5.954h1.167V77.075a1.455,1.455,0,0,0-1.835.708C199.559,78.693,198.856,79.524,198.146,80.475Zm56.614-3.436v6.033c-.282-.339-.424-.492-.548-.659-1.156-1.572-2.343-3.125-3.451-4.732a1.383,1.383,0,0,0-1.749-.6v8.233h1.234V79.271c.293.369.463.567.616.777q1.68,2.3,3.355,4.6c.606.831.73.871,1.744.587v-8.2Zm-10.95,4.092a4.153,4.153,0,0,0-3-4.163,3.951,3.951,0,0,0-4.74,2.454,4.54,4.54,0,0,0,1.747,5.569C240.6,86.575,243.807,84.511,243.81,81.131Zm-36.9,4.059c.034.062.069.122.1.183.452-.149,1.181.351,1.336-.432.308-1.542,1.285-1.782,2.592-1.585a1.248,1.248,0,0,0,.162,0c1.626.034,1.224-.238,1.837,1.232.37.887.623.99,1.621.591-1.054-2.579-2.1-5.164-3.182-7.729a.959.959,0,0,0-.724-.422.827.827,0,0,0-.65.4C208.952,80.009,207.937,82.6,206.91,85.19Zm27.874,74.459c-1.488,1.358-1.718,2.8-.623,3.91a2.8,2.8,0,0,0,3.827-.065c1.022-1.119.745-2.6-.713-3.825,1.077-1.154,1.2-2.279.347-3.12a2.419,2.419,0,0,0-3.189.027C233.618,157.4,233.748,158.534,234.784,159.649Zm-40.616-3.489v7.963h4.873v-1.1h-3.647v-2.672h2.969v-1.162h-2.976v-1.943h3.5v-1.08Zm31.749-72.545a2.672,2.672,0,0,0,2.909,1.877,2.441,2.441,0,0,0,2.2-1.964,2.608,2.608,0,0,0-1.474-3.033c-.52-.293-1.053-.563-1.558-.877a.806.806,0,0,1-.36-1.175.976.976,0,0,1,1.369-.228,6.165,6.165,0,0,1,.624.552l.856-.562a2.231,2.231,0,0,0-3.016-1.188,1.851,1.851,0,0,0-1.171,2.432,3.33,3.33,0,0,0,1.106,1.316c.567.45,1.273.723,1.855,1.159a1.329,1.329,0,0,1,.174,1.95,1.3,1.3,0,0,1-1.89.041,7.551,7.551,0,0,1-.731-.9ZM254.081,160.9c.057.071.114.142.17.214q-1.2,1.488-2.4,2.976c.029.074.06.15.089.226.589-.162,1.337-.154,1.735-.521a6.914,6.914,0,0,0,2.019-3.461,4.062,4.062,0,0,0-.25-3.08,2.544,2.544,0,0,0-4.661,1.976,2.459,2.459,0,0,0,2.829,1.752C253.772,160.954,253.926,160.924,254.081,160.9Zm-47.307-3.65a2.158,2.158,0,0,0-2.465-1.252,1.907,1.907,0,0,0-1.662,1.453,2.044,2.044,0,0,0,1.183,2.352c.534.316,1.09.6,1.61.941a1.134,1.134,0,0,1,.559,1.394,1.914,1.914,0,0,1-.884.943c-.552.252-1.044-.079-1.42-.518-.168-.2-.311-.416-.491-.663l-.945.671a10.633,10.633,0,0,0,.778,1.022,2.464,2.464,0,0,0,2.628.594,2.291,2.291,0,0,0,1.644-1.933,2.461,2.461,0,0,0-1.206-2.628c-.576-.354-1.183-.656-1.76-1.009a.768.768,0,0,1-.354-1.1.958.958,0,0,1,1.3-.263,5.442,5.442,0,0,1,.635.553Zm5.759-.038v6.929h1.247v-6.922h2.348v-1.032h-5.965v1.025Zm30.148,6.853c1.281.236,1.281.236,1.75-.791q1.449-3.179,2.9-6.357c.1-.227.184-.463.283-.72h-5c.018.386.032.694.05,1.08h3.2C244.765,159.608,243.729,161.824,242.681,164.062Zm-15.042-6.27v6.328h1.167v-8.106c-.481.188-.869.372-1.277.49-.758.219-.974.676-.688,1.434Zm-6.975-72.484V77.044h-1.181v8.264Zm-.851,78.991c.406-.426.733-.769,1.111-1.164l-1.087-1.1-1.122,1.165C219.07,163.555,219.406,163.891,219.813,164.3Z"/><path class="a" d="M219.912,135.241v.85H205.236v-.861c.683-.088,1.351-.159,2.012-.264a2.174,2.174,0,0,0,2.174-2.21,18.994,18.994,0,0,0,.1-2.276q0-10.223-.028-20.444c0-.164,0-.326-.009-.489-.111-1.921-.682-2.522-2.609-2.754-.456-.056-.913-.115-1.422-.18v-.974h.879c6.706,0,13.412-.024,20.118.022a15.919,15.919,0,0,1,4.021.479,6.9,6.9,0,0,1,3.454,11.333,11.549,11.549,0,0,1-3.692,2.758l-.729.379c.941,1.689,1.847,3.352,2.791,4.992a40.323,40.323,0,0,0,6.219,8.328,4.936,4.936,0,0,0,5.693.646,2.834,2.834,0,0,0,.914-1.45,6.276,6.276,0,0,0,.183-1.854q.017-10.3,0-20.608a12.816,12.816,0,0,0-.173-2.023,1.912,1.912,0,0,0-1.631-1.7c-.769-.145-1.546-.244-2.354-.369V105.7H255.7v.871c-.717.116-1.433.223-2.145.348a2.088,2.088,0,0,0-1.857,1.968,17.192,17.192,0,0,0-.147,2.025q-.018,10.1,0,20.2a12.244,12.244,0,0,0,.122,1.7,2.108,2.108,0,0,0,1.934,2.084c.739.155,1.495.221,2.311.336.019.263.038.521.057.811a2.864,2.864,0,0,1-.505.1c-6.163-.007-12.325.014-18.487-.046-2.138-.022-4.3-.313-5.9-1.917a19.864,19.864,0,0,1-2.812-3.66c-1.323-2.178-2.494-4.448-3.7-6.695a3.578,3.578,0,0,0-3.248-2.066c-1.162-.041-2.32-.2-3.539-.307v-1.06c1.207-.083,2.4-.136,3.576-.25a11.352,11.352,0,0,0,4.443-1.219,5.937,5.937,0,0,0,3.136-5.824,8.843,8.843,0,0,0-.316-2.165,5.252,5.252,0,0,0-5.041-3.928,52.494,52.494,0,0,0-6.1-.05c-1.238.036-1.619.5-1.738,1.709-.023.242-.024.488-.024.731q0,10.792,0,21.586a16.96,16.96,0,0,0,.137,1.947,2.034,2.034,0,0,0,1.76,1.956C218.373,135.019,219.121,135.12,219.912,135.241Z"/><path class="a" d="M172.3,120.414c.827.125,1.659.225,2.48.379,2.316.439,4.379,1.341,5.642,3.466a7.61,7.61,0,0,1-3.314,10.72,12.943,12.943,0,0,1-5.532,1.167q-10.75.018-21.5,0c-.211,0-.423-.026-.677-.042v-.876c.675-.088,1.343-.157,2.005-.266a2.179,2.179,0,0,0,2.163-2.223,11.349,11.349,0,0,0,.073-1.464q.006-10.384-.005-20.77a15.263,15.263,0,0,0-.154-1.943,1.774,1.774,0,0,0-1.52-1.592c-.767-.161-1.548-.254-2.371-.386v-.893a3.115,3.115,0,0,1,.4-.051c7.249.008,14.5-.016,21.746.06a12.408,12.408,0,0,1,3.731.711c4.971,1.666,5.646,8,1.922,11.154a19.2,19.2,0,0,1-5.08,2.862l.024.042Zm-10.4.031c1.705-.167,3.334-.246,4.936-.5,4.232-.671,6.329-3.046,6.255-6.96-.059-3.087-1.537-5.171-4.354-5.793a23.8,23.8,0,0,0-7.449-.223,1.411,1.411,0,0,0-1.356,1.466,8.354,8.354,0,0,0-.042.895q0,10.745.006,21.491a3.294,3.294,0,0,0,2.476,3.5,12.691,12.691,0,0,0,2.939.566,11.59,11.59,0,0,0,5.531-.547,6.236,6.236,0,0,0,3.9-6.1c-.166-3.033-1.638-5.056-4.453-5.793a37.482,37.482,0,0,0-4.88-.807c-1.148-.143-2.315-.135-3.5-.195a4.364,4.364,0,0,1-.07-.517A3.884,3.884,0,0,1,161.9,120.445Z"/><path class="a" d="M299.439,112.712c-.765.424-1.063.139-1.368-.547-1.9-4.276-6.987-6.633-11.145-5.2a5.769,5.769,0,0,0-3.52,2.835,3.6,3.6,0,0,0,.4,4.047,8.762,8.762,0,0,0,3.451,2.523c2.58,1.2,5.218,2.291,7.753,3.578a15.962,15.962,0,0,1,3.44,2.43c3.77,3.424,2.692,8.3.119,10.968a11.288,11.288,0,0,1-6.974,3.157,20.665,20.665,0,0,1-12.125-1.859c-.1-.048-.191-.1-.292-.143a2.431,2.431,0,0,1-1.66-2.233c-.169-1.747-.576-3.47-.895-5.283l1.114-.311c.386.788.707,1.56,1.126,2.277a12.51,12.51,0,0,0,6.336,5.727,8.788,8.788,0,0,0,7.619-.609,4.558,4.558,0,0,0,2.361-5.36,4.1,4.1,0,0,0-1.854-2.3c-2.164-1.237-4.379-2.382-6.574-3.563-1.6-.86-3.246-1.642-4.785-2.6a8.555,8.555,0,0,1-3.834-4.5,7.28,7.28,0,0,1,3.328-8.626,16.345,16.345,0,0,1,7.5-1.89A33.242,33.242,0,0,1,297.7,106c.42.088.811.164.89.75.257,1.881.572,3.753.861,5.63A1.507,1.507,0,0,1,299.439,112.712Z"/><path class="a" d="M185.833,106.582v-.893h14.84v.914c-.555.064-1.11.125-1.666.194-1.859.23-2.407.778-2.564,2.628-.064.756-.1,1.517-.1,2.274q-.012,9.282,0,18.564c0,.84.051,1.683.131,2.519a2.09,2.09,0,0,0,2.016,2.162c.691.121,1.394.183,2.152.278v.88H185.857v-.882c.715-.092,1.385-.157,2.049-.268a2.1,2.1,0,0,0,2.074-2.112,16.137,16.137,0,0,0,.124-2.027q.014-9.893,0-19.785a19.163,19.163,0,0,0-.155-2.27,1.944,1.944,0,0,0-1.705-1.811C187.47,106.805,186.69,106.71,185.833,106.582Z"/><path class="a" d="M261.2,118.964c1.976,2.544,3.871,5.058,5.847,7.506,1.7,2.11,3.467,4.174,5.26,6.208a6.727,6.727,0,0,0,4.789,2.484c.022.307.042.587.065.931-.287.021-.523.054-.759.055-2.689,0-5.377-.011-8.064.013a1.348,1.348,0,0,1-1.18-.539q-4.285-5.329-8.6-10.637c-.376-.465-.779-.909-1.132-1.39a4.4,4.4,0,0,0-3.872-2.108v-1.092c2.22-.326,3.7-1.808,5.032-3.373,2.317-2.729,4.511-5.565,6.719-8.386.755-.963.521-1.464-.709-1.719-.609-.127-1.228-.2-1.889-.3v-.928h13.572v.923c-.557.076-1.113.159-1.671.227a10.169,10.169,0,0,0-6.207,3.615c-1.989,2.146-3.8,4.458-5.688,6.7C262.223,117.731,261.738,118.315,261.2,118.964Z"/><path class="a" d="M198.146,80.475c.711-.951,1.413-1.782,1.99-2.693a1.455,1.455,0,0,1,1.835-.708v8.219H200.8V79.339l-.188-.062-2.476,3.281c-.857-1.133-1.669-2.208-2.609-3.453v6.2h-1.253v-8.22a1.4,1.4,0,0,1,1.8.6C196.693,78.633,197.421,79.507,198.146,80.475Z"/><path class="a" d="M254.76,77.039h1.2v8.2c-1.014.284-1.138.243-1.744-.587q-1.679-2.3-3.355-4.6c-.153-.21-.323-.408-.616-.777v6.045h-1.234V77.083a1.383,1.383,0,0,1,1.749.6c1.108,1.606,2.295,3.16,3.451,4.732.124.167.266.32.548.659C254.76,80.936,254.76,79.008,254.76,77.039Z"/><path class="a" d="M243.81,81.131c0,3.38-3.209,5.443-6,3.859a4.54,4.54,0,0,1-1.747-5.569,3.952,3.952,0,0,1,4.74-2.454A4.157,4.157,0,0,1,243.81,81.131Zm-6.781.036c0,2.225,1.945,3.7,3.8,2.888a3.161,3.161,0,0,0,1.712-3.006,2.987,2.987,0,0,0-1.865-2.807C238.841,77.551,237.024,79.007,237.029,81.167Z"/><path class="a" d="M206.91,85.19c1.026-2.589,2.042-5.181,3.1-7.758a.826.826,0,0,1,.65-.4.959.959,0,0,1,.724.422c1.086,2.566,2.128,5.15,3.182,7.729-1,.4-1.251.3-1.621-.591-.613-1.47-.211-1.2-1.837-1.232a1.248,1.248,0,0,1-.162,0c-1.307-.2-2.284.043-2.592,1.585-.155.783-.884.283-1.336.432Q206.961,85.283,206.91,85.19Zm3.887-6-.185-.016c-.365.962-.729,1.925-1.112,2.934h2.431C211.532,81.083,211.165,80.135,210.8,79.189Z"/><path class="a" d="M234.784,159.649c-1.036-1.115-1.166-2.251-.352-3.073a2.418,2.418,0,0,1,3.189-.027c.855.841.73,1.966-.347,3.12,1.458,1.22,1.735,2.706.713,3.825a2.8,2.8,0,0,1-3.827.065C233.066,162.447,233.3,161.008,234.784,159.649Zm2.569,2.164a1.509,1.509,0,0,0-1.334-1.41,1.447,1.447,0,0,0-1.284,1.35,1.31,1.31,0,1,0,2.618.06Zm-.414-3.833a.889.889,0,0,0-.94-.891c-.521.033-.971.341-.847.847a1.808,1.808,0,0,0,.887.979C236.356,159.085,236.938,158.417,236.939,157.98Z"/><path class="a" d="M194.168,156.16h4.721v1.08h-3.5v1.943h2.976v1.162h-2.969v2.672h3.647v1.1h-4.873Z"/><path class="a" d="M225.917,83.615l.9-.6a7.488,7.488,0,0,0,.731.9,1.3,1.3,0,0,0,1.89-.041,1.329,1.329,0,0,0-.174-1.95c-.582-.436-1.288-.709-1.855-1.159a3.321,3.321,0,0,1-1.106-1.316,1.851,1.851,0,0,1,1.171-2.432,2.231,2.231,0,0,1,3.016,1.188c-.27.176-.558.365-.856.562a6.166,6.166,0,0,0-.624-.552.975.975,0,0,0-1.369.228.807.807,0,0,0,.36,1.175c.505.314,1.038.583,1.558.877a2.609,2.609,0,0,1,1.474,3.033,2.441,2.441,0,0,1-2.2,1.964A2.672,2.672,0,0,1,225.917,83.615Z"/><path class="a" d="M254.081,160.9c-.155.026-.309.057-.464.08a2.459,2.459,0,0,1-2.829-1.752,2.544,2.544,0,0,1,4.661-1.976,4.062,4.062,0,0,1,.25,3.08,6.914,6.914,0,0,1-2.019,3.461c-.4.367-1.146.359-1.735.521-.029-.075-.06-.151-.089-.226q1.2-1.488,2.4-2.976Zm.55-2.168a1.5,1.5,0,0,0-1.473-1.584,1.326,1.326,0,0,0-1.251,1.33,1.416,1.416,0,0,0,1.481,1.385C254.238,159.8,254.663,159.41,254.631,158.729Z"/><path class="a" d="M206.774,157.247c-.312.2-.578.376-.854.556a5.36,5.36,0,0,0-.635-.553.957.957,0,0,0-1.3.263.767.767,0,0,0,.354,1.1c.577.353,1.184.655,1.76,1.009a2.46,2.46,0,0,1,1.206,2.628,2.29,2.29,0,0,1-1.644,1.933,2.464,2.464,0,0,1-2.628-.594,10.758,10.758,0,0,1-.778-1.022l.945-.671c.181.247.323.466.491.663.376.438.868.77,1.42.518a1.919,1.919,0,0,0,.884-.943,1.133,1.133,0,0,0-.559-1.394c-.521-.339-1.076-.625-1.61-.941a2.044,2.044,0,0,1-1.183-2.352A1.907,1.907,0,0,1,204.308,156,2.155,2.155,0,0,1,206.774,157.247Z"/><path class="a" d="M212.533,157.209h-2.37v-1.025h5.965v1.032H213.78v6.922h-1.247Z"/><path class="a" d="M242.681,164.062c1.048-2.237,2.084-4.453,3.178-6.788h-3.2c-.018-.386-.032-.694-.05-1.08h5c-.1.257-.179.493-.283.72q-1.446,3.18-2.9,6.357C243.962,164.3,243.962,164.3,242.681,164.062Z"/><path class="a" d="M227.639,157.792l-.8.146c-.286-.758-.07-1.215.688-1.434.408-.118.8-.3,1.277-.49v8.106h-1.167C227.639,162.02,227.639,159.928,227.639,157.792Z"/><path class="a" d="M220.664,85.308h-1.181V77.044h1.181Z"/><path class="a" d="M219.813,164.3c-.407-.408-.743-.744-1.1-1.1l1.122-1.165c.364.367.7.705,1.087,1.1Z"/><path class="b" d="M161.9,120.445a3.7,3.7,0,0,0-.057.479,4.361,4.361,0,0,0,.07.517c1.184.061,2.351.053,3.5.195a37.482,37.482,0,0,1,4.88.807c2.815.737,4.287,2.76,4.453,5.793a6.237,6.237,0,0,1-3.9,6.1,11.59,11.59,0,0,1-5.531.547,12.744,12.744,0,0,1-2.939-.566,3.294,3.294,0,0,1-2.476-3.5q-.014-10.746-.006-21.491a8.374,8.374,0,0,1,.042-.895,1.411,1.411,0,0,1,1.356-1.466,23.8,23.8,0,0,1,7.449.223c2.816.622,4.295,2.706,4.354,5.793.074,3.914-2.022,6.289-6.255,6.96C165.234,120.2,163.6,120.278,161.9,120.445Z"/><path class="b" d="M172.3,120.414l.03.057-.024-.041Z"/><path class="b" d="M237.029,81.167c-.005-2.16,1.812-3.616,3.646-2.925a2.986,2.986,0,0,1,1.865,2.807,3.16,3.16,0,0,1-1.712,3.006C238.975,84.869,237.032,83.392,237.029,81.167Z"/><path class="b" d="M210.8,79.189c.368.946.735,1.894,1.134,2.918H209.5c.383-1.009.747-1.972,1.112-2.934Z"/><path class="b" d="M237.353,161.813a1.31,1.31,0,1,1-2.618-.06,1.447,1.447,0,0,1,1.284-1.35A1.508,1.508,0,0,1,237.353,161.813Z"/><path class="b" d="M236.939,157.98c0,.437-.583,1.1-.9.936a1.811,1.811,0,0,1-.887-.979c-.124-.506.325-.813.847-.847A.888.888,0,0,1,236.939,157.98Z"/><path class="b" d="M254.631,158.729c.032.682-.393,1.067-1.242,1.131a1.415,1.415,0,0,1-1.481-1.385,1.325,1.325,0,0,1,1.251-1.33A1.5,1.5,0,0,1,254.631,158.729Z"/></g></svg>