<svg width="158" height="158" viewBox="0 0 158 158" fill="none" xmlns="http://www.w3.org/2000/svg">
<path d="M144.051 110.982V106.293L144.534 105.161C145.61 102.67 146.535 100.117 147.305 97.5159L147.382 97.2597C148.788 96.8045 150.044 95.977 151.018 94.8651C151.991 93.7532 152.645 92.3984 152.91 90.9447C153.175 89.491 153.042 87.9925 152.524 86.6086C152.006 85.2246 151.123 84.0068 149.968 83.0845V82.8462C150.123 80.8322 150.2 79.0506 150.2 77.4002C150.2 75.7497 150.141 74.1707 150.022 72.4904V72.2819C151.213 71.3719 152.131 70.1519 152.676 68.7553C153.22 67.3587 153.37 65.8392 153.11 64.363C152.849 62.8868 152.187 61.5107 151.197 60.3853C150.207 59.2598 148.926 58.4283 147.495 57.9816L147.442 57.7969C146.541 54.6588 145.424 51.5868 144.099 48.603L144.016 48.4064C144.811 47.1709 145.258 45.7441 145.312 44.2759C145.365 42.8076 145.022 41.3521 144.318 40.0623C143.615 38.7724 142.577 37.6958 141.314 36.9455C140.051 36.1952 138.609 35.799 137.14 35.7983C137.008 35.7983 136.877 35.7983 136.752 35.7983L136.627 35.6255C134.635 32.8952 132.455 30.307 130.103 27.8796L129.823 27.5935L133.993 22.8625C120.504 8.83041 100.859 0 78.9851 0C57.1117 0 37.4607 8.83637 23.947 22.8625L28.1179 27.5935L27.8498 27.8676C25.4861 30.2928 23.2959 32.8812 21.2955 35.6136L21.1703 35.7864C21.0452 35.7864 20.9141 35.7864 20.783 35.7864C19.3174 35.7945 17.8808 36.1962 16.6235 36.9495C15.3662 37.7028 14.3344 38.78 13.6359 40.0686C12.9375 41.3571 12.598 42.8097 12.653 44.2743C12.708 45.739 13.1555 47.1619 13.9487 48.3945L13.8653 48.5911C12.5419 51.5756 11.425 54.6474 10.5226 57.785L10.469 57.9697C9.03802 58.4164 7.75742 59.2479 6.76723 60.3734C5.77703 61.4988 5.11536 62.8749 4.85456 64.3511C4.59377 65.8273 4.74389 67.3468 5.28852 68.7434C5.83315 70.14 6.75131 71.36 7.9426 72.2699V72.4725C7.82343 74.1528 7.76385 75.8093 7.76385 77.3823C7.76385 79.0507 7.84131 80.7786 7.99623 82.8283V83.0666C6.84164 83.9889 5.95842 85.2067 5.44038 86.5907C4.92234 87.9746 4.78884 89.4731 5.05404 90.9268C5.31925 92.3806 5.97326 93.7353 6.94661 94.8472C7.91997 95.9591 9.17631 96.7866 10.5822 97.2418L10.6597 97.498C11.4354 100.107 12.3645 102.667 13.4422 105.167L13.9249 106.293V110.982H0L7.35868 138.581H34.6722L32.2888 148.604L34.4755 149.646C35.2629 150.03 36.0902 150.326 36.9423 150.528C37.5859 150.677 38.1996 150.784 38.7299 150.88L39.1112 150.939C39.7326 151.034 40.3597 151.085 40.9881 151.094C41.4886 151.124 41.8521 151.124 42.0547 151.124C43.8086 151.144 45.5476 150.799 47.1611 150.111C47.8706 149.813 48.5508 149.45 49.1929 149.027L48.6983 151.094H59.4235L60.0194 148.663C60.5575 149.245 61.1876 149.734 61.8844 150.111C63.3632 150.843 65.0024 151.191 66.6511 151.124C67.247 151.124 67.7773 151.094 68.3135 151.041L67.0086 156.51H77.6981L79.0387 151.148C80.7245 151.133 82.3915 150.793 83.9485 150.147C85.5016 149.513 86.9073 148.566 88.0777 147.364C88.1492 147.293 88.2088 147.209 88.2803 147.132C88.4436 147.415 88.6268 147.685 88.8285 147.942C89.5687 148.933 90.5405 149.726 91.6587 150.254C92.8795 150.838 94.2206 151.126 95.5734 151.094C96.551 151.102 97.5233 150.949 98.4513 150.641L98.7254 151.094H105.733L104.297 157.053L107.604 157.488C108.394 157.584 109.19 157.628 109.987 157.619C111.501 157.636 113.01 157.436 114.468 157.023H114.533C115.888 156.599 117.147 155.915 118.239 155.009C119.266 154.098 120.123 153.013 120.772 151.803L120.807 151.744C121.471 150.431 121.966 149.04 122.279 147.603L124.424 138.575H150.641L158 110.976L144.051 110.982Z" fill="#172751"/>
<path d="M49.8358 67.0618C49.8358 54.8172 55.7942 44.0682 64.7319 37.9131V33.7422H41.8455L35.9824 56.6226H41.8455V100.018C49.4366 98.9653 57.0634 98.2344 64.7259 97.8252V96.1867C55.7764 90.0316 49.8358 79.3004 49.8358 67.0618Z" fill="#FEBF46"/>
<path d="M116.886 67.1164C116.886 80.7434 105.381 93.1369 98.7847 98.148C101.462 98.3466 104.135 98.5829 106.805 98.857C117.864 93.554 125.61 81.3452 125.61 67.1164C125.61 48.0494 111.673 32.6528 94.4827 32.5574C92.1887 32.5574 85.3008 32.4502 85.3008 32.4502L85.4557 32.5813C102.896 33.0818 116.886 48.3473 116.886 67.1164Z" fill="#F68B1F"/>
<path d="M69.3443 97.599C72.5678 97.4858 75.7913 97.4203 79.0148 97.4203C85.6089 97.4203 92.2009 97.6626 98.7909 98.1472C109.516 92.5105 116.887 80.7128 116.887 67.062C116.887 47.9354 102.414 32.4375 84.5562 32.4375C66.6987 32.4375 52.2197 47.9294 52.2197 67.062C52.2197 80.2897 59.1613 91.7717 69.3443 97.599Z" fill="#FEBF46"/>
<path d="M88.2082 57.8443C89.7187 57.8084 91.2165 58.1268 92.5818 58.7738C93.7775 59.3273 94.822 60.1613 95.6265 61.2048C96.4487 62.2692 97.0559 63.4835 97.414 64.7799C97.8223 66.2177 98.023 67.7065 98.0099 69.2011C98.0307 71.5533 97.564 73.8843 96.6394 76.0473C95.7768 78.1294 94.5342 80.0328 92.975 81.6602C91.4236 83.273 89.5579 84.5506 87.4932 85.414C85.3481 86.342 83.0318 86.8089 80.6947 86.7844C80.3848 86.7844 79.8068 86.7844 79.0144 86.7427C78.1108 86.7273 77.2093 86.6537 76.3152 86.5222C75.3023 86.3435 74.2 86.1647 73.0917 85.9264C71.9787 85.661 70.8978 85.2755 69.8682 84.7764L78.9667 46.6424L87.1 45.3613L83.8705 58.881C84.534 58.5653 85.2318 58.3274 85.95 58.172C86.6833 57.9557 87.4437 57.8454 88.2082 57.8443ZM81.368 80.2897C82.5836 80.3201 83.782 79.9972 84.8179 79.3602C85.9137 78.7691 86.8753 77.9577 87.6422 76.9768C88.4487 75.9707 89.0775 74.8341 89.5012 73.6163C89.9418 72.3521 90.1654 71.0225 90.1626 69.6837C90.2359 68.3216 89.946 66.9644 89.3225 65.7511C88.7266 64.7799 87.6005 64.3866 86.099 64.3866C85.4964 64.3877 84.8962 64.4617 84.3114 64.6071C83.5272 64.8017 82.8002 65.1795 82.1902 65.7094L78.788 80.111C79.6417 80.24 80.5045 80.2998 81.368 80.2897Z" fill="white"/>
<path d="M123.28 131.295H118.71L116.083 142.437L115.719 143.962C115.463 144.04 115.201 144.088 114.944 144.141C114.46 144.237 113.967 144.281 113.473 144.272C112.995 144.279 112.521 144.19 112.078 144.01C111.757 143.868 111.5 143.611 111.357 143.289C111.226 142.944 111.173 142.573 111.203 142.205C111.238 141.752 111.316 141.303 111.435 140.864L112.829 135.084L113.735 131.241H109.087L106.99 140.143C106.751 141.143 106.604 142.162 106.549 143.188C106.492 144.071 106.643 144.954 106.99 145.768C107.345 146.527 107.945 147.144 108.694 147.52C109.742 148.008 110.895 148.229 112.049 148.163C112.923 148.169 113.796 148.083 114.653 147.907H114.754C114.591 148.774 114.147 149.563 113.491 150.153C112.646 150.773 111.61 151.075 110.565 151.005C110.054 151.012 109.544 150.976 109.04 150.898L108.14 154.67C108.806 154.746 109.477 154.78 110.148 154.771C111.378 154.793 112.604 154.637 113.789 154.306C114.767 154.004 115.678 153.514 116.47 152.864C117.233 152.187 117.87 151.38 118.353 150.481C118.897 149.385 119.298 148.224 119.544 147.025L122.69 133.785L123.28 131.295Z" fill="white"/>
<path d="M104.16 140.808C103.879 141.956 103.793 143.142 103.903 144.318C104.044 145.652 104.383 146.957 104.91 148.191H100.495C100.202 147.688 100.001 147.137 99.8994 146.564C99.3188 147.035 98.6775 147.426 97.9927 147.726C97.2032 148.046 96.3577 148.203 95.5061 148.19C94.6546 148.177 93.8144 147.993 93.0353 147.649C92.3273 147.324 91.7125 146.826 91.2478 146.201C90.7628 145.577 90.4192 144.855 90.2408 144.085C90.0287 143.234 89.9246 142.359 89.9309 141.482C89.925 140.122 90.1777 138.773 90.6757 137.507C91.1699 136.298 91.8784 135.188 92.7672 134.23C93.5934 133.306 94.6027 132.564 95.7311 132.051C96.8594 131.539 98.0821 131.266 99.3214 131.251H106.394L104.16 140.808ZM100.96 135.136C98.8209 135.136 98.4336 135.136 97.5577 135.571C96.9426 135.914 96.4051 136.381 95.9788 136.941C95.04 138.151 94.5325 139.64 94.5368 141.172C94.497 141.983 94.6652 142.791 95.0254 143.519C95.2172 143.811 95.4852 144.045 95.8003 144.195C96.1154 144.345 96.4656 144.406 96.8129 144.371C97.2507 144.377 97.6835 144.279 98.0761 144.085C98.5246 143.848 98.928 143.533 99.2678 143.156C99.3214 142.644 99.3691 142.125 99.4764 141.559C99.5836 140.993 99.679 140.475 99.7862 140.01L100.918 135.136" fill="white"/>
<path d="M88.734 137.998C88.7433 139.409 88.4887 140.809 87.9833 142.127C87.5175 143.328 86.8166 144.424 85.9217 145.351C85.0276 146.266 83.9547 146.988 82.7697 147.472C81.5112 147.99 80.1621 148.251 78.8013 148.24C78.091 148.23 77.3822 148.17 76.6801 148.062L75.2918 153.633H70.7217L76.0366 131.372H82.1261C83.1456 131.343 84.1599 131.526 85.1054 131.908C85.893 132.229 86.5978 132.724 87.167 133.356C87.7146 133.974 88.1212 134.704 88.3587 135.495C88.6254 136.302 88.7523 137.148 88.734 137.998ZM77.5322 144.32C77.9561 144.415 78.3913 144.451 78.8252 144.427C79.5796 144.443 80.3282 144.292 81.0179 143.986C81.661 143.688 82.2398 143.267 82.722 142.747C83.187 142.176 83.5535 141.531 83.8064 140.84C84.0717 140.041 84.2025 139.203 84.1937 138.361C84.216 137.571 84.009 136.791 83.5979 136.115C83.3746 135.788 83.0678 135.527 82.7093 135.36C82.3509 135.192 81.954 135.124 81.5601 135.162H79.7726L77.5322 144.32Z" fill="white"/>
<path d="M67.9623 144.319C67.4851 144.327 67.011 144.24 66.568 144.063C66.2467 143.92 65.9897 143.663 65.8471 143.342C65.71 142.998 65.6569 142.626 65.6922 142.257C65.7218 141.803 65.7997 141.354 65.9245 140.917L67.3188 135.137H72.5027L73.456 131.294H68.2602L69.4519 126.438L64.5779 127.164L61.4795 140.19C61.2412 141.189 61.0936 142.208 61.0386 143.234C60.9802 144.117 61.1313 145.001 61.4795 145.814C61.834 146.575 62.4343 147.194 63.1837 147.572C64.2317 148.06 65.3841 148.281 66.5383 148.216C67.4128 148.221 68.2855 148.136 69.1421 147.959L69.3983 147.882L70.3576 143.931C69.5833 144.163 68.7821 144.293 67.9742 144.319H67.9623Z" fill="white"/>
<path d="M56.3432 131.295L52.3213 148.193H56.8855L60.8836 131.295H56.3432Z" fill="white"/>
<path d="M61.3842 129.359L62.0813 126.415H57.535L56.8379 129.359H61.3842Z" fill="white"/>
<path d="M50.5998 133.278C50.1263 132.669 49.5132 132.183 48.8122 131.86C48.0147 131.481 47.1389 131.295 46.256 131.318C45.803 131.314 45.3517 131.375 44.9154 131.497C44.5045 131.591 44.105 131.728 43.7237 131.908L45.5112 124.46C43.9382 124.657 42.3652 124.853 40.7922 125.056L35.5547 147.013C36.1454 147.32 36.769 147.56 37.4137 147.728C38.0572 147.883 38.7007 147.984 39.2966 148.085C39.8175 148.163 40.343 148.207 40.8696 148.216C41.3344 148.216 41.668 148.216 41.8528 148.216C43.2188 148.231 44.5727 147.959 45.827 147.418C47.0299 146.912 48.1167 146.166 49.0208 145.225C49.9333 144.276 50.6607 143.164 51.1658 141.948C51.7047 140.685 51.9766 139.323 51.9642 137.95C51.9763 137.078 51.8639 136.21 51.6306 135.37C51.4252 134.613 51.0751 133.903 50.5998 133.278ZM47.0247 140.53C46.7762 141.24 46.4095 141.902 45.9403 142.49C45.4897 143.061 44.9283 143.536 44.2898 143.884C43.6845 144.255 42.9853 144.443 42.2758 144.427C41.7752 144.432 41.275 144.396 40.7802 144.319L42.7644 135.912C43.122 135.603 43.5461 135.381 44.0038 135.263C44.3414 135.181 44.6873 135.139 45.0346 135.137C45.9164 135.137 46.5838 135.37 46.9174 135.936C47.2862 136.642 47.4571 137.435 47.412 138.23C47.4089 139.014 47.2739 139.791 47.0128 140.53H47.0247Z" fill="white"/>
<path d="M16.9229 106.871V127.958C57.7491 118.424 100.223 118.424 141.049 127.958V106.871C100.223 97.3373 57.7491 97.3373 16.9229 106.871Z" fill="#FEBF46"/>
<path d="M22.9287 113.048L23.5246 111.958L25.4074 111.57V120.055L24.4064 120.258V112.744L22.9287 113.048Z" fill="#172751"/>
<path d="M27.3428 115.433C27.3428 113.687 28.0995 110.857 30.2803 110.463C32.4611 110.07 33.2297 112.62 33.2297 114.366C33.2297 116.112 32.4551 118.913 30.2803 119.3C28.1055 119.687 27.3428 117.167 27.3428 115.433ZM28.3497 115.23C28.3497 116.422 28.7728 118.632 30.2803 118.358C31.7878 118.084 32.2168 115.695 32.2168 114.527C32.2168 113.359 31.7937 111.089 30.2803 111.363C28.7668 111.637 28.3378 114.056 28.3378 115.23H28.3497Z" fill="#172751"/>
<path d="M36.4887 118.066L35.4818 118.227V113.913L34.9336 114.003V113.055L35.4818 112.966V110.952L36.4887 110.791V112.805L37.4778 112.65V113.597L36.4887 113.752V118.066Z" fill="#172751"/>
<path d="M40.1657 107.752V112.96C40.3249 112.666 40.5515 112.413 40.827 112.224C41.1025 112.034 41.4191 111.913 41.7506 111.869C43.2343 111.667 43.6156 112.62 43.6156 113.901V117.041L42.6027 117.172V114.157C42.6027 113.258 42.4776 112.668 41.4467 112.811C40.1418 112.989 40.1418 114.139 40.1418 115.099V117.518L39.1289 117.661V107.901L40.1657 107.752Z" fill="#172751"/>
<path d="M51.8681 113.966L50.8969 116.189L49.7588 116.308C51.1094 113.218 52.4619 110.135 53.8165 107.061C55.175 109.885 56.5316 112.717 57.8861 115.557L56.7421 115.647C56.4203 114.967 56.0986 114.282 55.7709 113.603C54.4719 113.716 53.167 113.835 51.8681 113.966ZM53.8165 109.378L52.309 112.953L55.3299 112.673C54.8294 111.577 54.323 110.475 53.8165 109.378Z" fill="#172751"/>
<path d="M59.626 106.542C61.7591 108.616 63.8922 110.713 66.0253 112.835V106.566L67.0919 106.519V115.349C64.9588 113.216 62.8257 111.111 60.6925 109.033V115.355L59.626 115.426V106.542Z" fill="#172751"/>
<path d="M69.6426 106.019C71.7757 108.164 73.9108 110.338 76.0479 112.543V106.275H77.1145V115.099C74.9774 112.895 72.8403 110.71 70.7032 108.545V114.867L69.6426 114.903V106.019Z" fill="#172751"/>
<path d="M80.7726 114.748H79.7061V106.264H80.7726V114.748Z" fill="#172751"/>
<path d="M86.3436 112.64C87.1896 110.566 88.0357 108.501 88.8818 106.443L90.0735 106.485C88.8342 109.408 87.5988 112.344 86.3674 115.291C85.136 112.28 83.8986 109.279 82.6553 106.288H83.847C84.6613 108.401 85.4935 110.519 86.3436 112.64Z" fill="#172751"/>
<path d="M91.9023 106.565C93.4317 106.637 94.959 106.722 96.4844 106.822V107.805C95.2927 107.733 94.1427 107.662 92.9689 107.602V109.986C94.105 110.045 95.243 110.111 96.3831 110.182V111.153C95.243 111.082 94.105 111.016 92.9689 110.957V114.162C94.1606 114.222 95.3106 114.288 96.4844 114.365V115.33C94.959 115.235 93.4337 115.146 91.9023 115.074V106.565Z" fill="#172751"/>
<path d="M104.226 115.909L102.939 115.796C102.105 114.529 101.268 113.262 100.43 111.994L99.9953 111.965V115.54L98.9287 115.456V106.989L100.216 107.085C101.004 107.092 101.779 107.297 102.468 107.68C102.811 107.918 103.091 108.235 103.285 108.605C103.479 108.974 103.581 109.385 103.582 109.802C103.598 110.081 103.556 110.361 103.461 110.624C103.365 110.887 103.218 111.128 103.027 111.333C102.836 111.538 102.606 111.702 102.35 111.815C102.094 111.929 101.818 111.99 101.539 111.994C102.44 113.293 103.336 114.598 104.226 115.909ZM99.9953 111.083L100.329 111.112C101.413 111.196 102.587 111.112 102.587 109.748C102.587 108.384 101.324 108.115 100.275 108.038H99.9953V111.083Z" fill="#172751"/>
<path d="M109.97 109.634C109.846 109.37 109.654 109.143 109.415 108.975C109.175 108.808 108.896 108.707 108.605 108.681C108.442 108.649 108.274 108.651 108.111 108.687C107.949 108.724 107.796 108.794 107.662 108.894C107.529 108.993 107.417 109.119 107.335 109.264C107.254 109.409 107.203 109.57 107.187 109.736C107.187 110.397 107.837 110.814 108.379 111.076L108.975 111.374C110.166 111.97 111.084 112.757 111.084 114.169C111.095 114.512 111.029 114.854 110.891 115.169C110.752 115.483 110.545 115.763 110.285 115.987C110.024 116.211 109.716 116.374 109.384 116.463C109.053 116.553 108.705 116.567 108.367 116.504C107.696 116.421 107.073 116.115 106.596 115.635C106.12 115.156 105.818 114.53 105.739 113.859L106.812 113.746C106.81 114.196 106.979 114.63 107.284 114.962C107.589 115.293 108.007 115.497 108.456 115.533C108.66 115.558 108.867 115.538 109.063 115.474C109.258 115.409 109.437 115.303 109.587 115.162C109.736 115.021 109.853 114.849 109.928 114.657C110.004 114.466 110.036 114.261 110.023 114.055C110.023 113.144 109.29 112.667 108.558 112.268L107.962 111.958C106.991 111.44 106.115 110.802 106.115 109.622C106.115 108.246 107.306 107.549 108.617 107.686C109.081 107.738 109.524 107.905 109.906 108.173C110.288 108.44 110.597 108.799 110.804 109.217L109.97 109.634Z" fill="#172751"/>
<path d="M114.575 114.955L113.61 116.957L112.472 116.814C113.826 114.033 115.177 111.265 116.523 108.508C117.87 111.638 119.217 114.782 120.563 117.94L119.431 117.767L118.466 115.497C117.171 115.298 115.874 115.118 114.575 114.955ZM116.523 110.784C116.017 111.862 115.516 112.935 115.016 114.013C116.017 114.145 117.024 114.288 118.031 114.431C117.526 113.231 117.024 112.015 116.523 110.784Z" fill="#172751"/>
<path d="M127.648 119.127L126.373 118.9C125.544 117.554 124.716 116.219 123.888 114.884L123.453 114.813V118.388L122.398 118.215V109.736L123.674 109.945C124.468 110.019 125.233 110.285 125.902 110.719C126.242 110.982 126.518 111.317 126.71 111.701C126.902 112.085 127.004 112.507 127.01 112.936C127.033 113.208 126.996 113.481 126.902 113.737C126.808 113.992 126.66 114.224 126.467 114.417C126.274 114.609 126.041 114.757 125.785 114.85C125.529 114.943 125.256 114.979 124.984 114.956C125.872 116.338 126.76 117.721 127.648 119.127ZM123.477 113.931L123.811 113.991C124.889 114.169 126.051 114.169 126.051 112.799C126.051 111.429 124.8 111.059 123.757 110.886L123.477 110.839V113.931Z" fill="#172751"/>
<path d="M128.499 110.786L129.691 111.013C130.382 112.347 131.067 113.688 131.758 115.029L133.82 111.823L135.012 112.073L132.271 116.304V119.992L131.222 119.789V116.095C130.324 114.323 129.417 112.554 128.499 110.786Z" fill="#172751"/>
<path d="M130.258 127.345V134.972L139.446 129.257C136.391 128.574 133.328 127.937 130.258 127.345Z" fill="#F68B1F"/>
<path d="M142.698 114.033V128.751C142.699 128.893 142.663 129.032 142.594 129.156C142.525 129.281 142.426 129.385 142.305 129.46L132.36 135.633H148.299L154.061 114.033H142.698Z" fill="#FEBF46"/>
<path d="M15.6652 129.46C15.5444 129.385 15.4447 129.281 15.3759 129.156C15.307 129.032 15.2712 128.893 15.2719 128.751V114.033H3.90918L9.67099 135.633H25.6098L15.6652 129.46Z" fill="#FEBF46"/>
<path d="M27.7426 127.345C24.672 127.937 21.6094 128.578 18.5547 129.269L27.7426 134.972V127.345Z" fill="#F68B1F"/>
<path d="M31.6397 31.7993L30.019 30.0117C27.7651 32.3399 25.6765 34.8227 23.7686 37.4419C24.5074 37.7741 25.1843 38.2295 25.7706 38.7885C27.5645 36.3271 29.5255 33.9918 31.6397 31.7993Z" fill="white"/>
<path d="M12.727 82.3404C12.9415 82.3404 13.156 82.3404 13.3646 82.3404C13.2454 80.7256 13.168 79.1049 13.168 77.4604C13.168 75.9708 13.2196 74.4931 13.3229 73.0273C13.1799 73.0273 13.0428 73.0273 12.8998 73.0273C12.232 73.0226 11.5681 72.9243 10.9276 72.7354C10.8203 74.2905 10.7607 75.8576 10.7607 77.4425C10.7607 79.2003 10.8442 80.9342 10.9752 82.6562C11.5442 82.4801 12.1324 82.3741 12.727 82.3404Z" fill="white"/>
<path d="M15.1228 58.9817C15.3373 59.0532 15.5458 59.1307 15.7544 59.2201C16.5816 56.3854 17.6009 53.6103 18.8051 50.914L18.6323 50.8723C17.9195 50.6377 17.2465 50.2961 16.6362 49.8594C15.3692 52.7182 14.3002 55.6606 13.4365 58.666C14.0094 58.702 14.5757 58.808 15.1228 58.9817Z" fill="white"/>
<path d="M14.4963 60.9076C13.5224 60.5912 12.4764 60.5708 11.4908 60.8488C10.5052 61.1268 9.62418 61.6909 8.95914 62.4697C8.2941 63.2484 7.87492 64.2069 7.75461 65.2239C7.6343 66.2409 7.81826 67.2707 8.28323 68.1831C8.7482 69.0956 9.47329 69.8496 10.3668 70.35C11.2603 70.8503 12.2822 71.0745 13.3031 70.9941C14.324 70.9137 15.2982 70.5324 16.1024 69.8984C16.9066 69.2643 17.5047 68.4061 17.8211 67.4321C18.0321 66.7854 18.1134 66.1035 18.0604 65.4253C18.0073 64.7472 17.8211 64.0862 17.5123 63.4801C17.2034 62.8741 16.7781 62.3349 16.2605 61.8934C15.743 61.452 15.1435 61.117 14.4963 60.9076Z" fill="#2E71A6"/>
<path d="M22.4278 39.0996C21.4536 38.7827 20.4073 38.762 19.4214 39.04C18.4354 39.3179 17.554 39.8821 16.8888 40.6611C16.2236 41.4401 15.8043 42.3989 15.6842 43.4162C15.564 44.4336 15.7483 45.4637 16.2138 46.3762C16.6792 47.2888 17.4049 48.0428 18.299 48.5428C19.1931 49.0428 20.2154 49.2664 21.2366 49.1852C22.2577 49.104 23.2319 48.7218 24.0358 48.0868C24.8397 47.4519 25.4371 46.5927 25.7526 45.6181C26.1751 44.3128 26.0623 42.8931 25.4389 41.6709C24.8155 40.4487 23.7325 39.5239 22.4278 39.0996Z" fill="#89C040"/>
<path d="M18.2748 89.2593C18.2179 88.1657 17.8161 87.1182 17.1271 86.267C16.4381 85.4159 15.4973 84.8047 14.4395 84.5213C13.3817 84.2379 12.2613 84.2968 11.2391 84.6895C10.2168 85.0822 9.34514 85.7885 8.74911 86.7072C8.15309 87.6259 7.86332 88.7097 7.92135 89.8033C7.97938 90.8968 8.38223 91.9439 9.07213 92.7944C9.76204 93.6448 10.7035 94.2549 11.7616 94.5372C12.8197 94.8195 13.94 94.7595 14.9619 94.3657C15.9825 93.9734 16.8528 93.268 17.4479 92.3507C18.043 91.4334 18.3325 90.3513 18.2748 89.2593Z" fill="#F7941D"/>
<path d="M16.7737 103.904L18.5613 103.499C17.52 101.112 16.6246 98.6649 15.88 96.1699L15.6714 96.2593C14.9844 96.5222 14.2608 96.677 13.5264 96.7181C14.2667 99.2095 15.154 101.655 16.1838 104.041L16.7737 103.904Z" fill="white"/>
<path d="M126.33 31.7993L127.951 30.0117C130.205 32.3419 132.293 34.8266 134.201 37.4479C133.462 37.7801 132.785 38.2354 132.199 38.7945C130.405 36.331 128.444 33.9937 126.33 31.7993Z" fill="white"/>
<path d="M145.243 82.3404C145.029 82.3404 144.814 82.3404 144.605 82.3404C144.725 80.7256 144.802 79.1049 144.802 77.4604C144.802 75.9708 144.75 74.4931 144.647 73.0273C144.79 73.0273 144.927 73.0273 145.07 73.0273C145.738 73.0226 146.402 72.9243 147.042 72.7354C147.15 74.2905 147.215 75.8576 147.215 77.4425C147.215 79.2003 147.126 80.9342 146.995 82.6562C146.426 82.4801 145.838 82.3741 145.243 82.3404Z" fill="white"/>
<path d="M142.848 58.9817C142.633 59.0532 142.425 59.1307 142.216 59.2201C141.399 56.3861 140.389 53.611 139.195 50.914L139.368 50.8723C140.081 50.6377 140.754 50.2961 141.364 49.8594C142.631 52.7182 143.7 55.6606 144.564 58.666C143.981 58.6996 143.405 58.8056 142.848 58.9817Z" fill="white"/>
<path d="M141.209 103.904L141.775 104.035C142.801 101.65 143.687 99.2068 144.426 96.7181C143.692 96.677 142.968 96.5222 142.281 96.2593L142.079 96.1699C141.329 98.6621 140.432 101.107 139.392 103.493C139.999 103.636 140.607 103.761 141.209 103.904Z" fill="white"/>
<path d="M143.473 60.9076C144.447 60.5912 145.493 60.5708 146.479 60.8488C147.464 61.1268 148.345 61.6909 149.011 62.4697C149.676 63.2484 150.095 64.2069 150.215 65.2239C150.335 66.2409 150.151 67.2707 149.686 68.1831C149.221 69.0956 148.496 69.8496 147.603 70.35C146.709 70.8503 145.687 71.0745 144.667 70.9941C143.646 70.9137 142.671 70.5324 141.867 69.8984C141.063 69.2643 140.465 68.4061 140.148 67.4321C139.938 66.7854 139.856 66.1035 139.909 65.4253C139.962 64.7472 140.149 64.0862 140.457 63.4801C140.766 62.8741 141.192 62.3349 141.709 61.8934C142.227 61.452 142.826 61.117 143.473 60.9076Z" fill="#FEBF46"/>
<path d="M135.542 39.0996C136.516 38.7827 137.563 38.762 138.549 39.04C139.535 39.3179 140.416 39.8821 141.081 40.6611C141.746 41.4401 142.166 42.3989 142.286 43.4162C142.406 44.4336 142.222 45.4637 141.756 46.3762C141.291 47.2888 140.565 48.0428 139.671 48.5428C138.777 49.0428 137.755 49.2664 136.733 49.1852C135.712 49.104 134.738 48.7218 133.934 48.0868C133.13 47.4519 132.533 46.5927 132.217 45.6181C131.795 44.3128 131.908 42.8931 132.531 41.6709C133.155 40.4487 134.238 39.5239 135.542 39.0996Z" fill="#2990CF"/>
<path d="M139.696 89.2593C139.753 88.1657 140.154 87.1182 140.843 86.267C141.532 85.4159 142.473 84.8047 143.531 84.5213C144.589 84.2379 145.709 84.2968 146.731 84.6895C147.754 85.0822 148.625 85.7885 149.221 86.7072C149.817 87.6259 150.107 88.7097 150.049 89.8033C149.991 90.8968 149.588 91.9439 148.898 92.7944C148.208 93.6448 147.267 94.2549 146.209 94.5372C145.151 94.8195 144.03 94.7595 143.009 94.3657C141.988 93.9734 141.118 93.268 140.523 92.3507C139.927 91.4334 139.638 90.3513 139.696 89.2593Z" fill="#F47F74"/>
<path d="M36.2031 29.9706L36.501 22.7132C36.5314 22.4419 36.5314 22.1681 36.501 21.8969C36.4682 21.7178 36.3948 21.5486 36.2865 21.4023C36.1851 21.2547 36.032 21.1505 35.8575 21.1104C35.7722 21.0961 35.685 21.0993 35.601 21.1197C35.517 21.1402 35.438 21.1776 35.3689 21.2295C35.2803 21.2865 35.2105 21.3683 35.1681 21.4648C35.1257 21.5612 35.1127 21.668 35.1306 21.7718C35.2033 22.0753 35.3439 22.3585 35.5417 22.6L32.7472 24.6259L32.6757 24.5246C32.2978 24.0805 32.0116 23.5659 31.8336 23.0106C31.6557 22.4552 31.5895 21.8702 31.6389 21.2891C31.7268 20.7337 31.9316 20.2032 32.2398 19.7328C32.5479 19.2624 32.9524 18.8627 33.4265 18.5602C34.3059 17.8707 35.4198 17.5521 36.5308 17.6724C37.057 17.7422 37.5628 17.9208 38.0162 18.1967C38.4696 18.4726 38.8607 18.8399 39.1644 19.2752C39.5146 19.7363 39.7458 20.2765 39.8377 20.8482C39.914 21.5308 39.8635 22.2217 39.6888 22.886L39.4385 23.9943L41.5478 22.4868L43.3353 24.8702L36.2031 29.9706Z" fill="white"/>
<path d="M54.5557 11.7024L53.084 12.185L54.0314 8.44906L57.0106 7.45996L60.5142 17.488L56.9808 18.6797L54.5557 11.7024Z" fill="white"/>
<path d="M61.9379 9.61172L60.4482 10.0348L61.5506 6.34054L64.5834 5.47656L67.6639 15.6476L64.0889 16.6606L61.9379 9.61172Z" fill="white"/>
<path d="M121.427 21.7129L120.235 20.7298L123.894 19.5381L126.331 21.5342L119.717 29.8402L116.839 27.4569L121.427 21.7129Z" fill="white"/>
<path d="M75.5234 12.4999L75.5771 9.44922L80.4272 9.52668L80.3736 12.5774L75.5234 12.4999Z" fill="white"/>
<path d="M86.9746 14.7463L92.9331 10.3966C93.1611 10.2397 93.371 10.0579 93.5587 9.85439C93.6779 9.7207 93.7655 9.56184 93.8149 9.38963C93.8662 9.21968 93.8513 9.03662 93.7732 8.87721C93.7315 8.80101 93.6736 8.73487 93.6036 8.6834C93.5336 8.63194 93.4532 8.5964 93.368 8.57928C93.264 8.54317 93.1516 8.53921 93.0453 8.5679C92.939 8.5966 92.8439 8.65662 92.7722 8.74016C92.5756 8.99658 92.4392 9.29388 92.373 9.6101L89.0243 8.75804L89.0541 8.63887C89.2902 7.48037 89.9759 6.46265 90.9608 5.80861C91.4584 5.52634 92.0088 5.34947 92.5777 5.289C93.1466 5.22852 93.7219 5.28572 94.2677 5.45706C95.3577 5.67933 96.3165 6.3214 96.9371 7.24459C97.2149 7.6885 97.3938 8.18702 97.4616 8.70625C97.5295 9.22548 97.4847 9.75323 97.3304 10.2536C97.19 10.8152 96.9091 11.3319 96.5141 11.7551C96.02 12.2516 95.4408 12.6553 94.804 12.9468L93.7672 13.4592L96.2996 14.1028L95.5488 16.939L86.9746 14.7463Z" fill="white"/>
<path d="M107.348 21.3607L114.313 18.8522C114.579 18.7671 114.835 18.6532 115.076 18.5126C115.23 18.4153 115.36 18.2851 115.457 18.1313C115.507 18.0591 115.543 17.9777 115.561 17.8918C115.58 17.8059 115.581 17.7171 115.564 17.6308C115.546 17.5467 115.511 17.4674 115.459 17.3985C115.408 17.3296 115.342 17.2726 115.266 17.2315C115.176 17.1792 115.073 17.1517 114.968 17.1517C114.864 17.1517 114.761 17.1792 114.671 17.2315C114.406 17.4225 114.188 17.671 114.033 17.9585L111.054 16.1709L111.119 16.0637C111.686 15.0188 112.64 14.2379 113.777 13.8889C114.879 13.6871 116.017 13.883 116.988 14.4417C117.959 15.0004 118.7 15.8855 119.08 16.9396C119.215 17.443 119.241 17.9696 119.154 18.4837C119.068 18.9979 118.872 19.4873 118.579 19.9188C118.274 20.4088 117.855 20.8177 117.358 21.1105C116.739 21.4379 116.067 21.6537 115.374 21.748L114.23 21.9506L116.47 23.2794L114.915 25.7938L107.348 21.3607Z" fill="white"/>
<path d="M103.403 20.6569C106.624 20.6569 109.236 18.0452 109.236 14.8235C109.236 11.6019 106.624 8.99023 103.403 8.99023C100.181 8.99023 97.5693 11.6019 97.5693 14.8235C97.5693 18.0452 100.181 20.6569 103.403 20.6569Z" fill="white"/>
<path d="M47.1439 22.7858C50.3655 22.7858 52.9772 20.1741 52.9772 16.9525C52.9772 13.7308 50.3655 11.1191 47.1439 11.1191C43.9222 11.1191 41.3105 13.7308 41.3105 16.9525C41.3105 20.1741 43.9222 22.7858 47.1439 22.7858Z" fill="white"/>
<path d="M103.402 17.5233C104.893 17.5233 106.101 16.3149 106.101 14.8242C106.101 13.3335 104.893 12.125 103.402 12.125C101.912 12.125 100.703 13.3335 100.703 14.8242C100.703 16.3149 101.912 17.5233 103.402 17.5233Z" fill="#172751"/>
<path d="M47.1435 19.6513C48.6342 19.6513 49.8427 18.4428 49.8427 16.9521C49.8427 15.4614 48.6342 14.2529 47.1435 14.2529C45.6528 14.2529 44.4443 15.4614 44.4443 16.9521C44.4443 18.4428 45.6528 19.6513 47.1435 19.6513Z" fill="#172751"/>
</svg>
