<svg xmlns="http://www.w3.org/2000/svg" viewBox="0 0 806.28 310.24"><g id="Layer_2" data-name="Layer 2"><g id="Layer_1-2" data-name="Layer 1"><path d="M762.14,0c2.16,1,4.31,2,6.49,2.91,8.82,3.72,17.65,7.41,26.6,11.17v71L761.78,88c-.85-6.52-1.67-12.87-2.55-19.66L746.79,79.43c2.62,10.08,5.22,20,7.89,30.28l49.15-9.79c0,.92.09,1.68.1,2.43q.52,25.52,1,51,.49,24,1,47.93c.15,7.59.23,15.18.35,22.77,0,.71,0,1.43,0,2.5-1-.36-1.8-.61-2.58-.92C778.8,215.76,753.92,205.8,729,196c-2.72-1.07-4.13-2.34-4.6-5.41-1.57-10.34-3.52-20.61-5.32-30.91a6.27,6.27,0,0,1,.07-.8L752,153.09c.19.68.43,1.32.55,2,.81,4.48,1.59,9,2.37,13.44.14.8.2,1.51,1.16,1.88,5.12,2,10.21,4,15.69,6.24-.24-12-.47-23.67-.72-35.73-15.52,2.93-30.75,6.16-46.31,9.15-3.51-36.15-7-72.13-10.54-108.4l47.46-8.34c0-11.16,0-22.24,0-33.32Z"/><path d="M0,39.05,172.74,12.9V94.49l-27.62,18,27.65,12.45V219L43.9,229.36v-163l-24.66,4ZM75.81,194.67c4.49.19,63.66-4.81,65.19-5.47V145.67c-.37-.21-.63-.38-.92-.51-8.43-3.8-16.89-7.55-25.29-11.42-1.38-.64-2.23-.1-3.25.56q-16.86,11-33.75,21.92a3.77,3.77,0,0,0-2,3.61c.09,10.78,0,21.57,0,32.35Zm.13-75.2L141,77.14V50.39L75.94,61.11Z"/><path d="M408.94,127.69c2,23.71,3.92,47.42,5.9,71.47L381.21,202q-6.43-77.86-12.85-155.46c1.79-.51,40.86-.69,45.05-.22q22.17,55.64,44.44,111.45l.46-.12q-4.74-61.68-9.48-123.49l33.49-20.9c.17,1.25.37,2.22.43,3.19.88,13.31,1.72,26.63,2.6,40q1.42,21.53,2.88,43l2.88,43.05Q492.55,164,494,185.49c.38,5.66.82,11.32,1.21,17,.05.64,0,1.27,0,1.89-1.95.53-47,.76-55,.27l-30.76-77.1Z"/><path d="M596,207.73,562.56,212c-3.83-30.22-7.63-60.28-11.48-90.67l-14.56,6.86v67.54c-.75-.53-1.27-.83-1.72-1.22q-15.22-13.18-30.46-26.37a4.12,4.12,0,0,1-1.61-3.47q.06-75.42,0-150.83c0-.71.08-1.42.13-2.26h33.62V53.41l.52.2L582.91.39l25.57,22-49,56.87.3.47c3.21-1.17,6.22-2.84,9.33-4.26s6.2-2.89,9.61-4.48C584.52,116.62,590.25,162,596,207.73Z"/><path d="M367.87,206.48c-1.1-.4-1.77-.62-2.41-.89-9.7-4.11-19.38-8.26-29.09-12.32a3.26,3.26,0,0,1-2.27-3c-1.47-11.4-3.06-22.79-4.61-34.18q-2-14.83-4-29.67c-.17-1.26-.38-2.52-.6-4L277.5,109.75c-2.54,11.82-5.05,23.57-7.61,35.5l-34,3c10.05-45.8,20-91.28,30-136.85h78C351.89,76.42,359.86,141.27,367.87,206.48ZM284.53,76.69c6,1.64,11.83,3.29,17.68,4.79S313.73,84.8,320,86.05c-1.89-13.91-3.72-27.39-5.56-40.9H291.25C289,55.64,286.79,66.06,284.53,76.69Z"/><path d="M605.92,189q6.17-75.65,12.32-151c1.77-.54,74.55-.7,77.82-.19a8,8,0,0,1,.27,1.28c.69,11.08,1.35,22.16,2,33.24q1.56,24.52,3.16,49c.56,8.77,1.05,17.54,1.6,26.31q1.1,17.22,2.22,34.43c.14,2.22.2,4.45.31,6.85Zm65.74-31.68c.34-2.79-5-86.2-5.65-87.73h-20.5c-.66,2.64-5.77,86.1-5.39,87.73Z"/><path d="M193.36,27.6l33.53,1c-1.42,44.6-2.82,89-4.23,133.67,20.46-1.7,40.62-3.58,61.13-5.32,1.1,11.11,2,22.12,2.94,33.06-2,1-94.41,8.8-98.58,9C187.4,197.38,193.08,31.27,193.36,27.6Z"/><path d="M258.65,285.34a71.08,71.08,0,0,1-1.06,7.31c-2.39,9.63-9.39,15.56-19.33,17.15a31.2,31.2,0,0,1-14.21-.88c-9-2.73-14.19-8.85-16.05-17.89a29.41,29.41,0,0,1,.36-13.29c2.29-9,9.25-15.72,19.87-17.25a31.76,31.76,0,0,1,13.74.93,22.39,22.39,0,0,1,16.32,20.3c.09,1.19,0,2.39,0,3.58Zm-38.1-.28c.09,8,4.23,13,11.61,13.54,6.05.44,10.52-2.66,12.27-7.91a17.74,17.74,0,0,0,.47-9.45c-1.23-5.84-5.49-9.54-11.46-9.67-6.78-.15-10.91,3.65-12.19,9C220.9,282.05,220.78,283.57,220.55,285.06Z"/><path d="M144,284.85c.81.36,1.37.63,1.94.86,3.85,1.56,6.38,4.22,6.79,8.49.47,4.85-.7,9.05-5,11.93a15.65,15.65,0,0,1-8.35,2.65c-7.11.17-14.23.07-21.34.07a2.5,2.5,0,0,1-.59-.22v-47c.81-.06,1.5-.15,2.2-.15,5.28,0,10.55,0,15.83,0a23.15,23.15,0,0,1,8.89,1.65c4,1.71,6.43,4.72,6.78,9.1.36,4.59-.95,8.54-5,11.24C145.59,283.92,144.92,284.31,144,284.85Zm-13.81,14c2,0,3.83.13,5.64,0a4.7,4.7,0,0,0,.81-9.17c-2.09-.66-4.22-.43-6.45-.31Zm0-18.29c.77,0,1.39.08,2,.08a15.38,15.38,0,0,0,1.92,0,4.5,4.5,0,0,0,4.2-4.42c.13-2.63-1-4.34-3.57-4.87a34.36,34.36,0,0,0-4.56-.37Z"/><path d="M584.34,308.84H570.66c-.32-.86-.66-1.74-1-2.62-1.29-3.61-2.52-7.23-3.88-10.81-1.46-3.87-3.12-4.87-7.57-4.64v18H545.49v-47c.83-.05,1.6-.13,2.38-.13,5.35,0,10.7,0,16,0a18.9,18.9,0,0,1,9,2,12.3,12.3,0,0,1,0,21.72c-.54.28-1.1.54-1.65.81.14.26.18.48.28.52a12.2,12.2,0,0,1,7.53,7.83c1.55,4.19,3.12,8.37,4.68,12.55C584,307.55,584.11,308.08,584.34,308.84Zm-26.08-27.28c1.55,0,2.83.11,4.09,0a4.81,4.81,0,0,0,4.35-4.66,4.75,4.75,0,0,0-3.52-5.05,10,10,0,0,0-4.92-.14Z"/><path d="M339.35,288.35v20.4H326.66v-47.1h12.58v20.27l.41.18c.49-.56,1-1.09,1.47-1.68,4.33-5.64,8.7-11.26,12.93-17a4.46,4.46,0,0,1,4.19-2c3.74.14,7.49,0,11.79,0-6,7.84-12.09,15.09-18,22.72l18.88,24.72h-2.3c-3.83,0-7.67-.07-11.51,0a3.39,3.39,0,0,1-3.16-1.59c-4.17-5.76-8.41-11.47-12.63-17.19-.48-.64-1-1.26-1.45-1.9Z"/><path d="M502.06,261.66h12.36l18.82,47.16H519.35l-3.13-8.06H498.83c-1,2.6-2.08,5.25-3.18,8H483.19C489.51,293,495.79,277.32,502.06,261.66Zm.4,29.35h10.05c-1.66-4.74-3.26-9.3-5-14.34C505.73,281.7,504.11,286.31,502.46,291Z"/><path d="M442.81,261.64c.76-.05,1.38-.13,2-.13,4.8,0,9.59-.12,14.38,0a26.59,26.59,0,0,1,6.82,1.07c7.44,2.26,11.66,8.35,11.53,16.28a15.92,15.92,0,0,1-12.27,15.51,45.64,45.64,0,0,1-6.62.91,28.43,28.43,0,0,1-3.09,0v13.38H442.81Zm12.79,22.74c3.14.26,6.12.34,8-2.63a5.75,5.75,0,0,0,0-6.57c-1.92-2.85-4.91-2.83-8-2.64Z"/><path d="M311.89,306.39a23.24,23.24,0,0,1-9.83,3.27c-5.86.63-11.64.27-17.13-2.19-7.36-3.29-11.61-9-13.15-16.82a28.41,28.41,0,0,1,.16-11.9c2-8.58,7.19-14.28,15.62-16.87a32.45,32.45,0,0,1,23.87,1.63v12c-.74-.32-1.38-.55-2-.85a24,24,0,0,0-12-2.71c-5.16.21-9.44,2.13-11.54,7.09-2.23,5.29-1.88,10.51,1.83,15.12,2.29,2.83,5.52,4,9.08,4.21a24.69,24.69,0,0,0,12.52-2.57c.78-.37,1.55-.76,2.55-1.26Z"/><path d="M639.25,261.59h14.81l9.36,18.21c.39-.69.7-1.19,1-1.71,2.52-5,5.09-10,7.53-15a2.58,2.58,0,0,1,2.77-1.68c3.67.09,7.35,0,11.47,0-.49,1-.82,1.73-1.22,2.44-4.87,8.72-9.73,17.44-14.66,26.12a8.17,8.17,0,0,0-1.12,4.31c.07,4,0,8,0,12,0,.78-.07,1.56-.11,2.45H656.64c-.06-.67-.14-1.28-.14-1.89,0-4.24,0-8.48,0-12.71a7.23,7.23,0,0,0-1-3.85q-7.44-13-14.8-26C640.22,263.47,639.8,262.63,639.25,261.59Z"/><path d="M617.14,308.8H604.36V273.35H591.75c-.65-2.1-.29-4-.35-5.88s0-3.66,0-5.44c1.85-.58,35.78-.68,38.48-.14v11.34H617.14V308.8Z"/><path d="M166.8,308.67V261.89c1.7-.52,8.78-.65,12.71-.22,0,3.9,0,7.86,0,11.82s0,7.82,0,11.74v12.15h17.73v11.16C195.65,309,170.31,309.13,166.8,308.67Z"/><path d="M403.11,296.27l-9.93-9.92c3.31-3.32,6.78-6.78,10-10l10,9.89Z"/></g></g></svg>