<svg xmlns="http://www.w3.org/2000/svg" viewBox="0 0 183.68 53.04"><defs><style>.cls-1,.cls-2{fill:#262261;}.cls-2{font-size:2.23px;font-family:Arial-BoldMT, Arial;font-weight:700;}</style></defs><g id="Layer_2" data-name="Layer 2"><g id="Layer_1-2" data-name="Layer 1"><path class="cls-1" d="M12.07,0c4.28,0,8.49,0,12.7,0,.95,0,2.11,1.29,2.2,2.59A12.84,12.84,0,0,1,26.77,6c-.45,2.23-1.06,4.43-1.63,6.64a8.06,8.06,0,0,1-4.66,5.85,1.15,1.15,0,0,0-.2.16c2.45,1.34,2.43,3.55,1.94,5.8-.62,2.83-1.34,5.64-2.09,8.44a7.67,7.67,0,0,1-4.57,5.49,2.52,2.52,0,0,1-.89.21H.39c-.1,0-.19,0-.39,0Q6,19.29,12.07,0ZM9.53,32.16a20.75,20.75,0,0,0,2.63,0,1.29,1.29,0,0,0,.85-.81c.78-2.64,1.5-5.3,2.22-8,.13-.49-.07-.83-.64-.83s-1.15,0-1.72,0-.66.16-.77.61c-.27,1.08-.62,2.14-.92,3.21C10.63,28.26,10.09,30.17,9.53,32.16Zm4.6-16.1c.29,0,.49.05.7.05,2.47,0,2.34.24,3-2.25.58-2.15,1.17-4.3,1.75-6.45.18-.69,0-1-.66-1s-1,0-1.5,0-.62.17-.73.57c-.41,1.51-.86,3-1.28,4.51S14.58,14.5,14.13,16.06Z"/><path class="cls-1" d="M50.25,35c-1.29,0-2.58-.1-3.86,0a3.44,3.44,0,0,1-3.64-3.52A37.05,37.05,0,0,1,43.22,27Q44.87,17,46.6,6.92a19.63,19.63,0,0,1,1-3.78A6.88,6.88,0,0,1,49.09,1a3.28,3.28,0,0,1,2.56-1c2.26.07,4.52,0,6.78,0a2.89,2.89,0,0,1,3.11,2.34A11.16,11.16,0,0,1,61.76,6C61.22,11.54,60.59,17.12,60,22.7c-.27,2.48-.53,5-.86,7.44a5.71,5.71,0,0,1-1.81,3.63A4.1,4.1,0,0,1,54.24,35C52.92,34.93,51.58,35,50.25,35Zm.94-6.3c1,.1,1.52-.18,1.62-1.34.14-1.61.42-3.21.63-4.81.64-4.85,1.27-9.71,1.92-14.56.22-1.62.2-1.67-1.42-1.66-.9,0-1.11.22-1.24,1.11-.59,4.18-1.2,8.37-1.8,12.56q-.55,3.89-1.09,7.77c-.09.66.13.91.81.93Z"/><path class="cls-1" d="M101.94,35c-2,0-4,0-6,0-.17,0-.41-.4-.48-.64q-1.6-5.8-3.17-11.63c-.12-.43-.24-.87-.33-1.31s-.29-.65-.8-.45V35H84.36q.27-17.42.55-34.88h6V13.55h.92c.47-2.12,1-4.24,1.43-6.37s.93-4.42,1.43-6.62c0-.21.31-.51.48-.51,1.66,0,3.32,0,5.06,0,0,.77,0,1.51.15,2.22.48,3.18-.66,6.1-1.33,9.1-.4,1.76-.93,3.49-1.33,5.25a3,3,0,0,0,0,1.58c1.2,3.65,2.48,7.29,3.67,11a10.37,10.37,0,0,1,.3,2.31C101.85,32.6,101.88,33.75,101.94,35Z"/><path class="cls-1" d="M152.67,0H159c2.24,0,4.47,0,6.71,0,.24,0,.64.17.7.35.83,2.5,1.62,5,2.45,7.64h-7.3l2,7c2.07,0,4.11.05,6.16,0,.74,0,1,.23,1.2.91.69,2.34,1.45,4.66,2.22,7.12h-7.26c.19.68.34,1.22.5,1.76.49,1.73,1,3.47,1.48,5.21a.69.69,0,0,0,.79.59c2.31,0,4.62,0,6.93,0a.71.71,0,0,1,.84.6c.7,2.28,1.43,4.53,2.15,6.8,0,.17.08.36.15.64h-.84c-4.81,0-9.62,0-14.42,0a.86.86,0,0,1-1-.77Q157.67,19.27,152.81.68C152.76.5,152.73.31,152.67,0Z"/><path class="cls-1" d="M80.58,14.25H74.2c.06-1.08.11-2.16.17-3.24.07-1.26.15-2.51.22-3.77,0-.61-.22-1-.87-.92h-.57c-1.11,0-1.24.14-1.31,1.27q-.6,9-1.23,18.08c0,.71-.1,1.42-.14,2.13a.75.75,0,0,0,.85.89c1.76,0,2.13.33,2.17-2,0-1.69.18-3.37.28-5.06,0-.25.06-.51.09-.8h6.38c0,1.18,0,2.31,0,3.44-.06,2-.06,4-.28,5.91a7.34,7.34,0,0,1-1,3A3.76,3.76,0,0,1,75.49,35c-2.62-.07-5.24,0-7.86,0a3.66,3.66,0,0,1-3.88-3.36,18.2,18.2,0,0,1,0-3.69q1-10.9,2-21.81a16,16,0,0,1,.7-3.19,4.77,4.77,0,0,1,1-1.68A3.34,3.34,0,0,1,70.23,0c2.28.08,4.57.08,6.85,0a2.88,2.88,0,0,1,2.81,1.58,6.35,6.35,0,0,1,.86,2.81C80.79,7.66,80.65,10.94,80.58,14.25Z"/><path class="cls-1" d="M129.18,27.72h7.33c.43,2.42.84,4.8,1.27,7.23h-14.4c-1.44-11.61-2.87-23.21-4.32-34.87h12.42c.41,2.36.83,4.74,1.26,7.2h-6.58c.16,1.13.31,2.18.46,3.22.12.8.28,1.6.35,2.4,0,.54.22.72.78.71,1.62,0,3.24,0,4.86,0h.83c.42,2.42.83,4.8,1.26,7.26h-6.53C128.51,23.17,128.84,25.4,129.18,27.72Z"/><path class="cls-1" d="M153.2,35h-6.87l-1.17-5.69Q143,18.63,140.79,8c-.12-.58-.35-.72-.89-.7-1.21,0-2.43,0-3.72,0-.45-2.41-.9-4.8-1.36-7.23H149.5c.59,2.39,1.18,4.76,1.79,7.22h-4.46C149,16.55,151.08,25.73,153.2,35Z"/><path class="cls-1" d="M103.49.05h6c.78,9.2,1.56,18.4,2.35,27.66h6.91c.27,2.43.53,4.81.8,7.23h-14C104.89,23.32,104.19,11.73,103.49.05Z"/><path class="cls-1" d="M38.09,35h-14q4-17.51,8.06-34.9h6c-1.9,9.22-3.8,18.39-5.71,27.65h6.91C39,30.16,38.52,32.53,38.09,35Z"/><path class="cls-1" d="M93.2,48.86c.42-1.08,1.32-1.92,1.32-3.19h3.3a31,31,0,0,0,.1,7.29H95.51V47.61l-2.39,5.18-2.34-5.16-.18,0c.06,1.75-.1,3.52.11,5.29H88.78A7.06,7.06,0,0,0,89,51.83c0-1.73,0-3.47,0-5.2a5,5,0,0,0-.17-1H92C91.92,46.88,92.75,47.78,93.2,48.86Z"/><path class="cls-1" d="M60.69,50.37H58.45V48.85h4.29v3.27a8.72,8.72,0,0,1-6.75.42,3.34,3.34,0,0,1-2.12-3.45A3.46,3.46,0,0,1,56.3,45.9a7.07,7.07,0,0,1,4.82.12,4,4,0,0,0,.4.15,3.45,3.45,0,0,0,.52,0L61.18,48a2.81,2.81,0,0,0-2.4-.82,4.18,4.18,0,0,0-2.07.54A2,2,0,0,0,56.79,51a4.13,4.13,0,0,0,3.51.31C60.48,51.22,60.54,50.73,60.69,50.37Z"/><path class="cls-1" d="M109.8,47.37v1h3.12V50.1H109.8v1.2a31.29,31.29,0,0,0,4.84-.17V53h-7.25c.4-.74.41-6.72,0-7.47h7.28v1.81Z"/><path class="cls-1" d="M131,46.13l-.8,1.59a8.19,8.19,0,0,0-1.56-.59A14.47,14.47,0,0,0,126,47c-.23,0-.45.35-.67.53.22.18.43.46.67.5,1,.17,2,.22,3,.4,1.74.32,2.5,1.57,1.86,3a2.55,2.55,0,0,1-2,1.4,9.88,9.88,0,0,1-4.8-.25,7.5,7.5,0,0,0-1-.16l.86-2.08a9,9,0,0,0,1.36.78,4.59,4.59,0,0,0,3.08.15c.3-.1.5-.49.75-.74-.26-.16-.5-.42-.77-.47-.91-.16-1.84-.22-2.76-.36a4.8,4.8,0,0,1-1.22-.38,1.67,1.67,0,0,1-.55-2.68,2.8,2.8,0,0,1,2.27-1c1.2,0,2.4.22,3.59.35C130.11,46,130.49,46.06,131,46.13Z"/><path class="cls-1" d="M73.9,45.65h2.93c.86,2.51,1.93,4.88,2.92,7.3H77.27a1.14,1.14,0,0,0-1.15-1.56H74.48c-1,0-1.4.58-1.18,1.58H71.12C72,50.56,73,48.15,73.9,45.65Zm2.67,4.61-1.36-3.32L74,50.26Z"/><path class="cls-1" d="M151.35,49.33,144,50.68V47.79l7.41,1.35Z"/><path class="cls-1" d="M41,47.79v2.89l-7.45-1.36v-.17Z"/><text class="cls-2" transform="translate(180.46 38.62)">TM</text></g></g></svg>