<?xml version="1.0" encoding="UTF-8"?>
<svg width="25px" height="25px" viewBox="0 0 25 25" version="1.1" xmlns="http://www.w3.org/2000/svg" xmlns:xlink="http://www.w3.org/1999/xlink">
    <title>BitPay - Blog</title>
    <g id="Symbols" stroke="none" stroke-width="1" fill="none" fill-rule="evenodd">
        <g id="Navigation/Menu/Company" transform="translate(-34.000000, -302.000000)">
            <g id="Components/Navigation/Dropnav/Company">
                <g id="Product-(Payment)-Copy-5" transform="translate(31.000000, 301.000000)">
                    <g id="beaker" transform="translate(3.000000, 1.000000)">
                        <path d="M21.1564429,14.936405 L20.2958615,17.6318267 L4.93089792,17.6318267 L4.64409722,13.9146932 L8.06843425,9.30244281 L8.06843425,3.66843194 C8.06843425,3.25969856 8.46280762,2.93863779 8.96487319,2.93863779 L16.1304085,2.93863779 C16.6324741,2.93863779 17.0268475,3.25969856 17.0268475,3.66843194 L17.0268475,9.30244281 L17.7081411,10.2365793 L21.1564429,14.936405 Z" id="Path" fill="#DFE5FF"></path>
                        <path d="M20.3240687,24.7685185 L4.44192584,24.7685185 C0.995465307,24.7685185 -1.13636595,21.6793059 0.640160098,19.2457738 L4.6018724,13.7716502 C5.54337199,13.4073562 6.53822657,13.0139674 7.94162293,13.0139674 C9.96686262,13.0139674 11.2638451,13.6696965 12.436293,14.3545205 C13.7686876,15.1123005 14.9411356,15.9283189 16.8242532,15.9283189 C18.4765408,15.9283189 19.524632,15.2143028 20.9636181,14.7916732 L24.1258936,19.2457738 C25.9024197,21.6793059 23.7883537,24.7685185 20.3240687,24.7685185 Z" id="Path" fill="#4F6EF7"></path>
                        <path d="M15.9167218,4.19805399 L8.84589947,4.19805399 C7.38255181,4.19805399 6.19212963,3.25647712 6.19212963,2.09902699 C6.19212963,0.941576864 7.38255181,0 8.84589947,0 L15.922619,0 C17.3859667,0 18.5763889,0.941576864 18.5763889,2.09902699 C18.5763889,3.25647712 17.3801284,4.19805399 15.9167218,4.19805399 Z" id="Path" fill="#214497"></path>
                        <g  transform="translate(12.900270, 5.877276)" fill="#214497">
                            <path d="M4.11548339,0 L4.11548339,1.39935133 L1.241101,1.39935133 C0.732823383,1.39935133 0.299729938,1.09144739 0.299729938,0.699675664 C0.299729938,0.307810647 0.732823383,0 1.241101,0 L4.11548339,0 Z" id="Path"></path>
                            <path d="M4.68092539,4.19805399 L1.091101,4.19805399 C0.582823383,4.19805399 0.149729938,3.89015005 0.149729938,3.49837832 C0.149729938,3.1065133 0.582823383,2.79870266 1.091101,2.79870266 L4.09972994,2.79870266 L4.09972994,3.26416579 L4.68092539,4.19805399 Z" id="Path"></path>
                        </g>
                        <ellipse  fill="#E6EEFF" cx="7.125" cy="18.123875" rx="1.125" ry="1.123875"></ellipse>
                        <ellipse  fill="#DAE2F2" cx="18.15" cy="20.14885" rx="1.15" ry="1.14885"></ellipse>
                        <path d="M12.4522377,22.7682645 C11.8447443,22.7682645 11.3522377,22.2762504 11.3522377,21.6693645 C11.3522377,21.0624787 11.8447443,20.5704645 12.4522377,20.5704645 C13.059731,20.5704645 13.5522377,21.0624787 13.5522377,21.6693645 C13.5522377,22.2762504 13.059731,22.7682645 12.4522377,22.7682645 Z" id="Path" fill="#E6EEFF"></path>
                        <path d="" id="Path-2" stroke="#979797"></path>
                    </g>
                </g>
            </g>
        </g>
    </g>
</svg>
