<svg xmlns="http://www.w3.org/2000/svg" viewBox="0 0 506.74 245.37"><defs><style>.cls-1{fill:#dad9d9;}.cls-2{fill:#231f20;}</style></defs><title>Asset 1@200x</title><g id="Layer_2" data-name="Layer 2"><g id="svg2"><g id="g10"><g id="g12"><path id="path14" class="cls-1" d="M176.89,15.73c-.12-.47-.25-.93-.37-1.39l-1.62.22c.66,2.47,1.33,4.94,2,7.42V15.73"/><path id="path16" class="cls-1" d="M142.47,29.55q-5.92,1.21-11.83,2.56l-1.79,2.2v6.25l1.79-2.2q5.91-1.35,11.83-2.56l1.8,1.42V31l-1.8-1.42"/><path id="path18" class="cls-1" d="M192.67,20c.61-2.64,1.21-5.27,1.82-7.9l-1.48.17c-.11.49-.23,1-.34,1.48V20"/><path id="path20" class="cls-1" d="M246.48,97.09l0,0c.66-2.47,1.31-5,2-7.42l-1.67,0L246.48,91v6.09"/><path id="path22" class="cls-1" d="M52,36c-.1-.38-.21-.75-.32-1.13l-1.58.61c.64,2.26,1.27,4.51,1.9,6.77V36"/><path id="path24" class="cls-1" d="M80.43,33.65q-5.79,1.92-11.55,4L67.13,40v6.25l1.75-2.41c3.84-1.37,7.69-2.68,11.55-4l1.75,1.22V34.87l-1.75-1.22"/><path id="path26" class="cls-1" d="M80.43,87.77q-5.79,1.91-11.55,4c-.58.8-1.16,1.61-1.75,2.41v6.26L68.88,98q5.76-2,11.55-4l1.75,1.22V89l-1.75-1.22"/><path id="path28" class="cls-1" d="M260.34,72.55l1.83,1.82V68.12l-1.83-1.82q-10.86-.14-21.71.16-4-3.75-8-7.43v6.25q4,3.69,8,7.43,10.85-.28,21.71-.16"/><path id="path30" class="cls-1" d="M455.59,90.68c-2.47,1.6-5,3.21-7.44,4.85l.75,5.75q3.36-2.19,6.69-4.34V90.68"/><path id="path32" class="cls-1" d="M410.3,20.82l-.36-1.54c-.53-.16-1.05-.33-1.58-.48.65,2.76,1.3,5.51,1.94,8.27V20.82"/><path id="path34" class="cls-1" d="M438.93,38q-5.85-2.09-11.72-4l-1.76,1.22v6.25l1.76-1.21q5.88,1.93,11.72,4l1.74,2.42V40.45L438.93,38"/><path id="path36" class="cls-1" d="M51.67,152.46c-.51,2.28-1,4.56-1.54,6.85q19.6-7.77,39.61-14,3.8-5,7.59-10v-6.25q-3.8,5-7.59,10-19.21,6-38.07,13.37"/><path id="path38" class="cls-1" d="M262.17,20.13l-1.83-1.82q-6-.07-12,0l-1.82,1.82v6.25c.6-.61,1.21-1.21,1.82-1.81q6-.06,12,0c.6.6,1.2,1.19,1.79,1.79l0-.13V20.13"/><path id="path40" class="cls-1" d="M352,19c-.11-.44-.23-.87-.34-1.31L350,17.41q1,3.94,2,7.89V19"/><path id="path42" class="cls-1" d="M367.47,86l1.8-1.41q3,.65,6.09,1.34c2.57,1.24,5.13,2.49,7.69,3.77V83.44c-2.56-1.28-5.12-2.53-7.69-3.77q-3-.69-6.09-1.34l-1.8,1.41V86"/><path id="path44" class="cls-1" d="M396.41,133q-22.21-5.94-44.78-10c-.54,2-1.07,4-1.61,5.95q23.36,4.14,46.39,10.3,1.43-8.31,2.84-16.61l-1.06,0q-.88,5.2-1.78,10.41"/><path id="path46" class="cls-1" d="M391.25,35.52q-11-2.82-22-5.18l-1.8,1.41V38l1.8-1.41q11,2.37,22,5.18,4,1.92,8,3.92-.53-3.39-1.07-6.78c-2.3-1.14-4.61-2.28-6.93-3.39"/><path id="path48" class="cls-1" d="M334.52,24.23q-5.06-.75-10.14-1.41l-1.81,1.57v6.25l1.81-1.56q5.08.65,10.14,1.4,4.08,1.5,8.14,3.06l-1.08-6.66c-2.35-.89-4.7-1.78-7.06-2.65"/><path id="path50" class="cls-1" d="M410,136.86c-.54,1.92-1.07,3.84-1.61,5.77q9.56,2.77,19,5.92c-.53-2.25-1.06-4.51-1.6-6.76q-7.87-2.59-15.81-4.93"/><path id="path52" class="cls-1" d="M439.41,146.45l-1.18,5.82q9.42,3.34,18.75,7l-1.92-7q-7.79-3-15.65-5.86"/><path id="path54" class="cls-1" d="M306.61,116.81c-.55,2-1.11,4.06-1.66,6.08q9.82.93,19.61,2.19l-1.65-6.45q-8.15-1-16.3-1.82"/><path id="path56" class="cls-1" d="M439.62,139.17q-3.22-23.82-6.46-47.6c-.4-.62-.81-1.24-1.22-1.86l-4.73-1.59-1.76,1.22v6.25l1.76-1.21c1.58.52,3.15,1.05,4.73,1.59.41.61.82,1.23,1.22,1.85q3,21.9,6,43.85c.16-.83.33-1.67.5-2.5"/><path id="path58" class="cls-1" d="M261.85,33.75c-.5,2.08-1,4.15-1.51,6.22q9.86.12,19.7.6c-.56-2.11-1.11-4.21-1.66-6.32q-8.26-.37-16.53-.5"/><path id="path60" class="cls-1" d="M307,28.9V22.65c-.61-.66-1.21-1.32-1.82-2-3.45-.32-6.91-.62-10.37-.87q-3.56.51-7.11,1.07l-1.09,6.42q4.11-.66,8.2-1.24,5.19.39,10.37.87l1.82,2"/><path id="path62" class="cls-1" d="M230.6,91.43l-.3-1.25-1.52,0c.61,2.48,1.22,5,1.82,7.45V91.43"/><path id="path64" class="cls-1" d="M121.17,130.34q-3.84-2.91-7.66-5.76v6.25q3.83,2.85,7.66,5.76,15.44-3.81,31-6.72,3.87-4.58,7.75-9.09v-6.25q-3.88,4.52-7.75,9.09-15.58,2.91-31,6.72"/><path id="path66" class="cls-1" d="M219.89,115.27q-21.73,1.33-43.34,4.38l-1.65,6.47q22.41-3.21,45-4.59l2.91-17.38-1.1.31q-.9,5.42-1.81,10.81"/><path id="path68" class="cls-1" d="M238.63,114.45q-4-3.75-8-7.43v6.25q4,3.69,8,7.43,15.78-.42,31.56,0,3.93-3.73,7.84-7.41v-6.26q-3.91,3.69-7.84,7.42-15.78-.48-31.56,0"/><path id="path70" class="cls-1" d="M92.72,79.31c1.54-2,3.07-4,4.61-6V67.08q-3.89,5-7.76,10.06c1.05.71,2.1,1.45,3.15,2.17"/><path id="path72" class="cls-2" d="M82.18,86.31l-1.75-1.22Q74.64,87,68.88,89c-.58.81-1.16,1.61-1.75,2.41v35.13l1.75,1.17q5.76-2,11.55-4l1.75-2.37V86.31Zm-15.05-49V72.46l1.75,1.17q5.76-2,11.55-3.95l1.75-2.37V32.19L80.43,31q-5.79,1.92-11.55,4l-1.75,2.42Zm-15.1-4c-.63-2.26-1.26-4.51-1.9-6.77q19.6-7.77,39.61-14,3.8,2.67,7.59,5.41V64.4q-3.89,5-7.76,10.06,3.87,2.64,7.76,5.35V126.4q-3.8,5-7.59,10-20,6.19-39.61,14,1-4.23,1.9-8.45V33.32"/><path id="path74" class="cls-2" d="M144.27,28.29l-1.8-1.42q-5.92,1.21-11.83,2.56l-1.79,2.2v77l1.79,1.38q5.91-1.35,11.83-2.56l1.8-2.16v-77Zm7.92-18.91q3.87,3.12,7.75,6.31v96.16q-3.88,4.52-7.75,9.09-15.58,2.91-31,6.72-3.84-2.91-7.66-5.76V25.74q3.83-4.84,7.66-9.65,15.44-3.81,31-6.71"/><path id="path76" class="cls-2" d="M222.8,95.22l-2.91,17.37q-22.56,1.38-45,4.6c.66-2.6,1.33-5.2,2-7.81V13.05c-.66-2.48-1.33-5-2-7.42q9.78-1.41,19.59-2.46c-.61,2.63-1.21,5.26-1.82,7.9V97.73l1.82,1.59q10-1.08,20.12-1.79,4.09-1.19,8.19-2.31"/><path id="path78" class="cls-2" d="M278,24q1,3.8,2,7.62-9.84-.48-19.7-.6l1.83-7.5V17.45l-1.83-1.82q-6-.08-12,0l-1.82,1.82v29l1.82,1.77q10.95-.11,21.89.23,3.93,4,7.84,8v48q-3.91,3.69-7.84,7.42-15.78-.48-31.56,0-4-3.75-8-7.43V88.75c-.6-2.48-1.21-5-1.82-7.45q9.84-.43,19.7-.53-1,3.77-2,7.55v6.09l1.82,1.77q6,0,12,0l1.83-1.77v-29l-1.83-1.82q-10.86-.13-21.71.16-4-3.75-8-7.43V8.18q4-4,8-8,15.78-.42,31.56,0,3.93,4,7.84,8V24"/><path id="path80" class="cls-2" d="M339.77,6.77q1.44,8.91,2.89,17.84-4.07-1.56-8.14-3.06-5.06-.75-10.14-1.4c-.6.51-1.21,1-1.81,1.56v86.66c.66,2.59,1.33,5.18,2,7.78q-9.8-1.28-19.61-2.19c.67-2.44,1.33-4.89,2-7.33V20c-.61-.66-1.21-1.32-1.82-2q-5.17-.48-10.37-.87-4.1.59-8.2,1.24,1.45-8.61,2.92-17.2,25.23,1.63,50.29,5.6"/><path id="path82" class="cls-2" d="M396.41,130.35q-23-6.15-46.39-10.3,1-3.67,2-7.35V16.36q-1-3.93-2-7.88,23.36,4.14,46.39,10.3,1.43,9,2.84,18c-2.66-1.32-5.33-2.63-8-3.91q-11-2.82-22-5.18l-1.8,1.41v29l1.8,2.18q3,.65,6.09,1.34,3.86-.12,7.69-.18V80.76c-2.56-1.28-5.12-2.53-7.69-3.77q-3-.69-6.09-1.34l-1.8,1.41v29l1.8,2.18q11,2.35,22,5.18,4,.14,8,.33-1.41,8.3-2.84,16.61"/><path id="path84" class="cls-2" d="M427.21,70q5.88,1.95,11.72,4l1.74-1.17V37.77l-1.74-2.42q-5.85-2.09-11.72-4l-1.76,1.21V67.66L427.21,70Zm.17,69.59q-9.47-3.13-19-5.93,1-3.48,1.94-7V18.14q-1-4.14-1.94-8.27,20.07,5.85,39.79,13.27,3.72,5.25,7.44,10.57V88c-2.47,1.6-5,3.21-7.44,4.85q3.21,24.32,6.41,48.69c.8,2.94,1.61,5.89,2.42,8.83q-9.33-3.69-18.75-7c.47-2.28.93-4.57,1.39-6.85q-3.22-23.82-6.46-47.6c-.4-.62-.81-1.24-1.22-1.86l-4.73-1.58-1.76,1.21v44.8q1,4.08,1.93,8.16"/><path id="path86" class="cls-2" d="M81.47,213.9l.62,2.36H76l.56-2.36V212l-.56-.56H72.31l-.57.56v11l.57.57h6.74L81.47,226v17l-2.42,2.41H69.33L66.85,243v-4.89l-.56-2.36h6.07l-.62,2.36V240l.57.56H76l.56-.56V229L76,228.4H69.33L66.85,226V209l2.48-2.41h9.72L81.47,209v5"/><path id="path88" class="cls-2" d="M111.88,240l-.9,5.39H96.42L97,243V209l-.62-2.41h6.07l-.56,2.41v31l.56.56h6.86l2.53-.56"/><path id="path90" class="cls-2" d="M139.93,245.37H125.37L126,243V208.9l-.62-2.36h14.56l.9,5.39-2.53-.56h-6.92l-.56.56v11l.56.56h1.91l2.42-.62V229l-2.42-.62h-1.91l-.56.56v11l.56.56h6.92l2.53-.56-.9,5.45"/><path id="path92" class="cls-2" d="M168.87,245.37H154.32l.62-2.41V208.9l-.62-2.36h14.55l.9,5.39-2.53-.56h-6.91l-.56.56v11l.56.56h1.91l2.42-.62V229l-2.42-.62h-1.91l-.56.56v11l.56.56h6.91l2.53-.56-.9,5.45"/><path id="path94" class="cls-2" d="M188.72,223l.56.57H193l.56-.57V212l-.56-.56h-3.71l-.56.56Zm0,20,.62,2.36h-6.07l.61-2.36V209l-.61-2.41H196l2.42,2.41v17L196,228.4h-6.74l-.56.56v14"/><path id="path96" class="cls-2" d="M237.4,245.37,235,243V209l2.42-2.41h9.72l2.42,2.41v4.89l.61,2.37h-6.07l.62-2.37v-1.91l-.56-.56h-3.76l-.57.56v28l.57.56h3.76l.56-.56V238l-.62-2.36h6.07l-.61,2.36v5l-2.42,2.41H237.4"/><path id="path98" class="cls-2" d="M274,212l-.56-.56h-3.71l-.56.56v28l.56.56h3.71L274,240Zm2.48-5.45,2.41,2.41v34l-2.41,2.41h-9.73L264.38,243V209l2.41-2.41h9.73"/><path id="path100" class="cls-2" d="M311.54,220.7l-5,14.84h-2.48L299,220.7V243l.62,2.36h-6.07l.62-2.36V209l-.62-2.41H299l6.3,18.6,6.24-18.6H317l-.62,2.41V243l.62,2.36h-6.07l.62-2.36V220.7"/><path id="path102" class="cls-2" d="M337.06,223l.56.57h3.71l.56-.57V212l-.56-.56h-3.71l-.56.56Zm0,20,.62,2.36h-6.07l.62-2.36V209l-.62-2.41h12.76l2.41,2.41v17l-2.41,2.42h-6.75l-.56.56v14"/><path id="path104" class="cls-2" d="M366.45,230.37l.51.39h2.59l.5-.28-1.35-8-.45-4.33-.45,4.33ZM376.85,242l1.18,3.37H372l.4-1.63-1.3-7.42-.67-.67h-4.22l-.67.62-1.24,7.47.4,1.63h-6.07l1.12-3.31,5.73-33.33-.5-2.19h6.63l-.51,2.19L376.85,242"/><path id="path106" class="cls-2" d="M396.7,243l.61,2.36h-6.07l.62-2.36V209l-.62-2.41h5.46L402.09,227l.85,3.43-.23-3.43V209l-.62-2.41h6.07l-.62,2.41V243l.62,2.36h-5.45l-5.4-20.46-.84-3.42.23,3.42V243"/><path id="path108" class="cls-2" d="M433.51,228.79V243l.62,2.41h-6.07l.62-2.41V228.57l-6.07-20.12-1.24-1.91h7.08l-.56,1.68,3,11.41.23,1.74.22-1.74,3-11.41-.62-1.68h7.14l-1.24,2.13-6.07,20.12"/><path  class="cls-2" d="M189.28,165.44c-.79,0-1.58-.13-1.58-.39s.79-.4,1.58-.4L242.23,162c1.05,1.31,4.74,2.63,8.43,2.63a2.91,2.91,0,0,1,5.79,0c3.69,0,7.38-1.32,8.43-2.63l52.95,2.63c.79,0,1.58.13,1.58.4s-.79.39-1.58.39l-52.95,2.63c-1.05-1-4.74-2.37-8.43-2.37a2.91,2.91,0,0,1-5.79,0c-3.69,0-7.38,1.32-8.43,2.37l-52.95-2.63"/><path  class="cls-2" d="M479.84,93.43c2.71-1,8.25-2.84,12.71-11.9,1.22,1.36,3.38,3.52,4.33,4.46a29,29,0,0,1-13.39,8.11v.14c2.17,0,5.14.07,7.3-.14a12.82,12.82,0,0,0,6.49-2.56,17.57,17.57,0,0,0,9.46,2.7v1a17.48,17.48,0,0,0-9.46,2.7,12.82,12.82,0,0,0-6.49-2.57c-2.16-.2-5.13-.13-7.3-.13v.13a29.09,29.09,0,0,1,13.39,8.11c-.95.95-3.11,3.11-4.33,4.46-4.46-9-10-11-12.71-11.89V93.43"/><path  class="cls-2" d="M26.9,96c-2.7.94-8.24,2.84-12.71,11.89-1.21-1.35-3.37-3.51-4.32-4.46a29,29,0,0,1,13.38-8.11v-.13c-2.16,0-5.14-.07-7.3.13a12.86,12.86,0,0,0-6.49,2.57A17.48,17.48,0,0,0,0,95.19v-1a17.57,17.57,0,0,0,9.46-2.7A12.85,12.85,0,0,0,16,94.1c2.16.21,5.14.14,7.3.14V94.1A28.92,28.92,0,0,1,9.87,86c1-.94,3.11-3.1,4.32-4.46,4.47,9.06,10,11,12.71,11.9V96"/></g></g></g></g></svg>
