<?xml version="1.0" encoding="UTF-8" standalone="no"?>
<svg
   xmlns:dc="http://purl.org/dc/elements/1.1/"
   xmlns:cc="http://creativecommons.org/ns#"
   xmlns:rdf="http://www.w3.org/1999/02/22-rdf-syntax-ns#"
   xmlns:svg="http://www.w3.org/2000/svg"
   xmlns="http://www.w3.org/2000/svg"
   xmlns:sodipodi="http://sodipodi.sourceforge.net/DTD/sodipodi-0.dtd"
   xmlns:inkscape="http://www.inkscape.org/namespaces/inkscape"
   version="1.1"
   id="svg2"
   xml:space="preserve"
   width="1315.5067"
   height="344.33334"
   viewBox="0 0 1315.5067 344.33334"
   sodipodi:docname="BB-Logo-Black.html"><metadata
     id="metadata8"><rdf:RDF><cc:Work
         rdf:about=""><dc:format>image/svg+xml</dc:format><dc:type
           rdf:resource="http://purl.org/dc/dcmitype/StillImage" /></cc:Work></rdf:RDF></metadata><defs
     id="defs6" /><sodipodi:namedview
     pagecolor="#ffffff"
     bordercolor="#666666"
     borderopacity="1"
     objecttolerance="10"
     gridtolerance="10"
     guidetolerance="10"
     inkscape:pageopacity="0"
     inkscape:pageshadow="2"
     inkscape:window-width="640"
     inkscape:window-height="480"
     id="namedview4" /><g
     id="g10"
     inkscape:groupmode="layer"
     inkscape:label="ink_ext_XXXXXX"
     transform="matrix(1.3333333,0,0,-1.3333333,0,344.33333)"><g
       id="g12"
       transform="scale(0.1)"><path
         d="m 1972.19,125.961 c -249.95,0 -412.22,144.519 -412.22,330.309 0,185.691 162.27,330.109 412.22,330.109 252.16,0 414.42,-146.508 414.42,-330.109 0,-183.719 -160.07,-330.309 -414.42,-330.309 z m 0,784.16 c -335.47,0 -559.13,-198 -559.13,-453.851 C 1413.06,202.359 1636.72,0 1972.19,0 c 337.69,0 561.32,200.281 561.32,456.27 0,257.878 -223.63,453.851 -561.32,453.851 z m 1506.31,-494.762 -349.92,469.77 -146.15,0.332 V 25 l 147.52,-0.3398 V 674.289 L 3478.5,198.609 3826.78,673.969 3826.6,25 h 0.18 V 24.6602 L 3969.13,25 V 885.461 H 3828.64 Z M 7405.06,526.84 v 233.269 l 572.61,-0.187 c 98.71,0 151.33,-41.274 151.33,-115.543 0,-76.359 -52.62,-117.578 -151.33,-117.578 z m 870.83,117.539 c 0,145.98 -105.26,233.551 -281.44,238.82 H 7262.68 V 26.4688 h 142.38 V 400.738 l 482.21,0.203 245.66,-374.4722 h 170.55 L 8050.06,402.969 c 138.1,20.633 225.83,121.742 225.83,241.41 z M 9863.46,485.191 9300.94,484.898 V 361.32 h 400.83 c 0.71,-94.011 -170.51,-234.422 -413.19,-235.359 -260.91,0 -427.54,146.59 -427.54,330.309 0,183.601 168.8,330.109 427.54,330.109 267.15,-0.141 372.71,-152.981 372.71,-152.981 h 158.77 c -12.36,26.122 -123.17,272.551 -531.48,276.774 -344.23,0 -574.47,-200.141 -574.47,-455.992 C 8714.11,198.25 8942.14,0 9288.58,0 c 212.05,0 375.75,69.1992 482.05,198.988 60.26,69.594 95.72,152.563 95.72,242.043 0,14.899 -0.99,29.617 -2.89,44.16 z M 5165.58,149.73 4569.76,150.289 V 432.5 l 595.82,0.051 c 103.15,0 157.96,-53.629 157.96,-140.352 0,-88.75 -57.05,-142.469 -157.96,-142.469 z m -595.82,611.329 547.59,-0.418 c 94.34,0 140.38,-33.051 140.38,-101.121 0,-66.02 -46.04,-101.098 -138.21,-101.098 l -549.76,-0.57 z m 747.2,-247.989 c 56.99,32.989 87.71,88.711 87.71,158.852 0,138.219 -94.29,212.398 -282.91,212.398 l -694.44,-0.621 V 25.8398 h 722.92 c 206.21,0 320.19,103.2502 320.19,258.0822 0,97.09 -52.6,175.469 -153.47,229.148 z M 738.277,149.73 142.434,150.332 v 282.219 h 595.843 c 103.047,0 157.86,-53.629 157.86,-140.352 0,-88.75 -57.012,-142.469 -157.86,-142.469 z m -595.843,611.372 547.609,-0.461 c 94.27,0 140.324,-33.051 140.324,-101.121 0,-66.02 -46.054,-101.098 -138.144,-101.098 l -549.789,-0.57 z M 889.555,513.07 c 57.023,32.989 87.715,88.711 87.715,158.852 0,138.219 -94.29,212.398 -282.844,212.398 L 0,883.75 V 25.8398 h 722.914 c 206.125,0 320.126,103.2502 320.126,258.0822 0,97.09 -52.61,175.469 -153.485,229.148 z m 5118.125,-92.3 752.67,0.039 v 123.863 l -752.67,-0.121 v 214.558 l 753.96,-0.168 V 885.398 L 5865.16,884.93 V 24.3398 h 896.75 V 148.199 h -754.23 z m -2401.31,1650.05 970.52,-0.04 154.78,-319.8 -1125.3,-0.1 c -107.46,0 -168.18,60.69 -168.18,161.13 0,98.13 58.35,158.81 168.18,158.81 z m 51.42,371.54 h 739.25 l 110.78,-228.92 -852.36,-0.05 c -98.16,0 -147.23,39.77 -147.23,114.47 0,77.15 49.07,114.5 149.56,114.5 z m 1631.58,-371.58 970.55,0.04 c 109.87,0 168.2,-60.68 168.2,-158.81 0,-100.44 -60.65,-161.13 -168.2,-161.13 l -1125.35,0.24 z m 179.92,371.58 h 739.27 c 100.45,0 149.54,-37.35 149.54,-114.5 0,-74.7 -49.09,-114.47 -147.22,-114.47 l -852.44,0.05 z m -2187.6,-539.67 c 0,-175.28 121.43,-292.06 341.04,-292.06 l 1176.91,-0.05 132.98,-274.77 h 0.88 l 133.1,274.87 1176.99,-0.05 c 219.64,0 341.06,116.78 341.06,292.06 0,109.81 -56.06,198.57 -163.51,259.35 60.78,37.35 93.49,100.4 93.49,179.87 0,156.49 -100.44,240.61 -301.42,240.61 0,0 -1053.26,-0.14 -1078.64,-0.1 -32.13,0 -32.13,-29.34 0,-32.56 10.9,-1.48 57.52,0.28 100.78,-18.51 43.04,-27.84 55.44,-47.53 36.59,-92.35 -42.27,-89.14 -338.32,-709.84 -338.32,-709.84 0,0 -321.6,672.59 -339.6,711.02 -18.03,38.48 -2.2,66.6 35.73,91.17 43.21,18.79 89.91,17.03 100.77,18.51 32.14,3.22 32.14,32.56 0,32.56 -25.2,-0.04 -1077.43,0.1 -1077.43,0.1 -200.94,0 -301.37,-84.12 -301.37,-240.61 0,-79.47 32.74,-142.52 93.47,-179.87 -107.48,-60.78 -163.5,-149.54 -163.5,-259.35"
         style="fill:#231f20;fill-opacity:1;fill-rule:nonzero;stroke:none"
         id="path14" /></g></g></svg>
