<svg xmlns="http://www.w3.org/2000/svg" width="278.199" height="172.753" viewBox="0 0 278.199 172.753"><defs><style>.a,.b{fill:#e7e7e7;}.a{fill-rule:evenodd;opacity:0.379;}.c{fill:#fa645a;}.d{fill:#444;}</style></defs><path class="a" d="M278.2,105.735C278.2,62.8,215.923,28,139.1,28S0,62.8,0,105.735,278.2,148.667,278.2,105.735Z" transform="translate(0 34.819)"/><g transform="translate(85.255)"><path class="b" d="M89.691,141.343,70.927,130.236,53.664,141.343l-19.89-11.107L15.76,141.343c-1.9,0-15.76-12.373-15.76-13.938V42.468C0,19.051,23.147,0,51.6,0s51.6,19.051,51.6,42.468v84.937Q103.2,128.97,89.691,141.343Z"/><path class="c" d="M16.323,39V53.3a14.15,14.15,0,1,0,28.3,0V39Z" transform="translate(20.298 48.498)"/><path class="d" d="M56.7,45.913H15.319c-1.906,0-3.448-1.882-3.448-4.207S13.413,37.5,15.319,37.5H56.7c1.906,0,3.448,1.882,3.448,4.207S58.6,45.913,56.7,45.913Z" transform="translate(14.762 46.633)"/><ellipse class="d" cx="9.988" cy="10.096" rx="9.988" ry="10.096" transform="translate(16.645 42.066)"/><ellipse class="d" cx="9.988" cy="10.096" rx="9.988" ry="10.096" transform="translate(63.252 42.066)"/></g></svg>