<svg xmlns="http://www.w3.org/2000/svg" xmlns:xlink="http://www.w3.org/1999/xlink" viewBox="0 0 155.51 35.46"><defs><style>.cls-1{fill:none;}.cls-2{fill:#979797;}.cls-3{fill:#231f20;}.cls-16,.cls-3,.cls-4,.cls-6{fill-rule:evenodd;}.cls-4{fill:#eb902d;}.cls-5{fill:#f94617;}.cls-6,.cls-8{fill:#fff;}.cls-7{fill:#de773b;}.cls-9{fill:#4a9734;}.cls-10{clip-path:url(#clip-path);}.cls-11{fill:#f8d849;}.cls-12{fill:#e0464f;}.cls-13{fill:#6ce882;}.cls-14{fill:#5dd0f9;}.cls-15{clip-path:url(#clip-path-2);}.cls-16{fill:#65d26d;}.cls-17{fill:#64a6f0;}.cls-18{fill:#f2ba51;}</style><clipPath id="clip-path"><rect class="cls-1" x="83.42" y="0.39" width="35" height="35"/></clipPath><clipPath id="clip-path-2"><rect class="cls-1" x="100.85" y="0.31" width="35.15" height="35.15"/></clipPath></defs><g id="Layer_2" data-name="Layer 2"><g id="Layer_1-2" data-name="Layer 1"><path class="cls-2" d="M17.5,35.39A17.5,17.5,0,1,0,0,17.89,17.5,17.5,0,0,0,17.5,35.39Z"/><path class="cls-3" d="M15,19.26c0,1.28.66,2.13,1.79,2.13A2.43,2.43,0,0,0,18,21a2.48,2.48,0,0,0,.84-1,5.75,5.75,0,0,0,.56-3.12V16.3c-2.14,0-4.39.46-4.39,3Zm-3.38-6.58a.68.68,0,0,1-.2-.07.54.54,0,0,1-.15-.15.46.46,0,0,1-.08-.19.5.5,0,0,1,0-.21c.66-3.45,3.79-4.5,6.6-4.5A6.68,6.68,0,0,1,22.26,9c1.44,1.34,1.3,3.12,1.3,5.06v4.58a4,4,0,0,0,1.12,2.72c.18.27.23.59,0,.78-.6.5-1.68,1.43-2.26,1.95l0,0a.59.59,0,0,1-.34.13.56.56,0,0,1-.35-.09,6.92,6.92,0,0,1-1.69-2,5.85,5.85,0,0,1-4.87,2.14c-2.48,0-4.41-1.52-4.41-4.57A5,5,0,0,1,13.88,15a20.38,20.38,0,0,1,5.55-1v-.38a3.77,3.77,0,0,0-.36-2.13,2,2,0,0,0-.74-.58,2.07,2.07,0,0,0-.92-.18,2.3,2.3,0,0,0-1.52.43A2.27,2.27,0,0,0,15,12.44a.71.71,0,0,1-.17.36.63.63,0,0,1-.34.18Z"/><path class="cls-4" d="M23.37,27a10.71,10.71,0,0,1-6.27,2A11,11,0,0,1,9.45,26c-.16-.15,0-.35.18-.24a14.82,14.82,0,0,0,7.65,2.15,14.54,14.54,0,0,0,5.84-1.27.32.32,0,0,1,.09,0h.1l.09,0,.06.07a.17.17,0,0,1,0,.1.14.14,0,0,1,0,.09.18.18,0,0,1,0,.09l-.07.06"/><path class="cls-4" d="M24.11,26.42c-.2-.26-1.33-.13-1.83-.07-.15,0-.18-.11,0-.21a2.76,2.76,0,0,1,2.54-.24,2.85,2.85,0,0,1-.89,2.43c-.13.11-.25.05-.19-.1.19-.48.61-1.55.41-1.81"/><path class="cls-5" d="M58.15,17.89a17.75,17.75,0,0,0-18-17.5,17.75,17.75,0,0,0-18,17.5,17.76,17.76,0,0,0,18,17.5A17.76,17.76,0,0,0,58.15,17.89Z"/><path class="cls-6" d="M34.52,21.79c-2.15.86-5.54,1.86-7-.29-.79-1.19-.29-3.05.87-4.74a25.75,25.75,0,0,1,2.64-3.07c-.53.81-2,3.52-.07,4.88.76.52,2.09.57,3.75.16l19.79-5Z"/><circle class="cls-7" cx="59.49" cy="17.5" r="17.5"/><path class="cls-8" d="M52.35,24.31l-.62.64-.41-.42.62-.64-1.6-1.65c-.26-.27-.3-.32-.62-.14a.3.3,0,0,1-.18,0,.34.34,0,0,1-.17-.08c-.2-.21,0-.46,0-.49l2-2.06s.27-.25.47,0a.25.25,0,0,1,.08.17.26.26,0,0,1,0,.19c-.17.33-.12.37.14.63l3.7,3.81c.26.27.3.32.62.15a.29.29,0,0,1,.18-.05.38.38,0,0,1,.17.08c.2.22,0,.47,0,.5l-2,2.05s-.27.25-.48,0a.3.3,0,0,1-.08-.17.29.29,0,0,1,0-.18c.17-.34.12-.37-.14-.64Zm0,5.13h-.81v0c.17-.33.12-.37-.14-.63L47.67,25c-.26-.27-.29-.32-.62-.15h0V24l1.69-1.75s.28-.25.48,0a.23.23,0,0,1,.08.17.28.28,0,0,1,0,.18c-.17.34-.12.37.14.64L53.1,27c.26.27.3.32.62.15a.29.29,0,0,1,.18-.05.38.38,0,0,1,.17.08c.2.22,0,.47,0,.5Z"/><path class="cls-8" d="M62.47,8.12l1.86-1.91,5.28,5.43-1.86,1.91s-.27.26-.48,0a.38.38,0,0,1-.08-.17.32.32,0,0,1,0-.19c.17-.33.12-.37-.14-.64L63.4,8.8c-.26-.27-.3-.33-.62-.15a.24.24,0,0,1-.18,0,.23.23,0,0,1-.17-.08C62.23,8.4,62.45,8.15,62.47,8.12Zm3.2-3.29h1.1l.88.91s.16.18-.05.4-.22.08-.36,0a1.89,1.89,0,0,0-1.11-.27,1.83,1.83,0,0,0-1.07.42l-.41-.42ZM71,9v1.23l-1,1.05-.41-.42a2.12,2.12,0,0,0,.41-1.11,2.06,2.06,0,0,0-.24-1.17c0-.16-.13-.32,0-.45l.11-.08a.25.25,0,0,1,.12,0,.16.16,0,0,1,.12,0,.28.28,0,0,1,.1.09ZM67,8.31a1.2,1.2,0,0,0,.09-.59,1.1,1.1,0,0,0-.22-.56c-.09-.16-.16-.32,0-.47s.44.07.49.13l1.53,1.57c0,.06.34.28.13.51s-.31.08-.46,0A1,1,0,0,0,68,8.66a1.05,1.05,0,0,0-.58.1Z"/><path class="cls-8" d="M60.46,28.54l-.88.9h-.46l0-.09c.06-.1-.06-.21-.12-.27L57,26.94c-.06-.06-.15-.18-.25-.12s-.2.12-.3,0,0-.22.07-.3l1-1Z"/><path class="cls-8" d="M67.1,15.59l1-1,2.52,2.59c.15.15.17.18.35.09v.47l-1,1s-.16.14-.27,0a.16.16,0,0,1,0-.09.23.23,0,0,1,0-.11c.09-.18.06-.2-.08-.35Zm2.65-.82a.09.09,0,0,1,0,.06s0,0,0,.07,0,0,0,.06,0,0,0,.06-.23,0-.33,0a1.24,1.24,0,0,0-.91-.33l-.23-.24.57-.59Zm-3.4,1.59.58-.59.23.24a1.3,1.3,0,0,0,.32.94c.07.1.15.23,0,.34a.12.12,0,0,1,0,.05l-.06,0h-.07l-.06,0Z"/><path class="cls-8" d="M54.24,17.22a.7.7,0,0,0-.08.47.68.68,0,0,0,.23.42l3.66,3.76a.6.6,0,0,0,.4.24.65.65,0,0,0,.47-.09l.4.43c-1.62,1.39-3.53.87-4.93-.58s-1.91-3.4-.55-5.08Zm5,4.48a.69.69,0,0,0-.15-.89L55.43,17A.67.67,0,0,0,55,16.8a.62.62,0,0,0-.46.09l-.41-.42c1.63-1.4,3.53-.88,4.94.57s1.91,3.4.55,5.08Z"/><path class="cls-8" d="M67,13.87a.26.26,0,0,0-.16-.09.27.27,0,0,0-.18.05c-.33.17-.36.12-.62-.15l-3.7-3.8c-.26-.27-.31-.31-.14-.64a.31.31,0,0,0,0-.19.3.3,0,0,0-.08-.17c-.2-.21-.45,0-.48,0l-1.86,1.92,1.52,2.89v0L58.42,12.3l-1.79,1.84c-.08.08-.29.3-.08.53s.38,0,.47-.09.24-.06.41,0a1.78,1.78,0,0,1,.43.18l5.84,3,.2-.21L61,12.09l3.28,3.37c.26.26.31.3.14.64a.29.29,0,0,0,0,.35c.2.21.45,0,.48,0l2-2.05S67.22,14.08,67,13.87Z"/><path class="cls-8" d="M61.5,17.7l-1.21-1.25-1.56-.8,0,0,2.38,2.45c.77,1,0,1.2.35,1.51s.49-.08.57-.16l.8-.83c.08-.08.38-.36.16-.59S62.49,18.49,61.5,17.7Z"/><path class="cls-8" d="M57.67,25.3c.66-.7,1.69-.8,2.77.21a1.84,1.84,0,0,1,.49.61,2.05,2.05,0,0,1,.21.77,2,2,0,0,1-.1.79,2.06,2.06,0,0,1-.41.68l-.23-.24c.21-.28,0-.53-.15-.68L58.56,25.7c-.15-.16-.39-.38-.66-.16Z"/><path class="cls-8" d="M59.15,23.78l1-1.08,3,3.06-1,1.08s-.16.14-.27,0a.12.12,0,0,1-.05-.09.2.2,0,0,1,0-.11c.09-.19.06-.21-.08-.36l-2.08-2.14c-.15-.15-.17-.18-.35-.08a.19.19,0,0,1-.1,0,.19.19,0,0,1-.1-.05C59,23.94,59.13,23.8,59.15,23.78Zm1.22-1.26.89-.91.8.82s.09.11,0,.23-.12.05-.2,0a1.08,1.08,0,0,0-.63-.16,1.1,1.1,0,0,0-.6.24Zm2.74,2.82a1.21,1.21,0,0,0,.23-.63,1.24,1.24,0,0,0-.13-.66c0-.09-.07-.18,0-.25a.1.1,0,0,1,.06-.05h.07l.07,0s0,0,.05.05l.79.81-.91.94ZM61.7,23.88a.74.74,0,0,0,0-.33.61.61,0,0,0-.13-.31c0-.09-.08-.18,0-.27s.25,0,.28.07l.86.89s.19.16.07.28-.17.05-.26,0a.58.58,0,0,0-.3-.13.63.63,0,0,0-.33.06Z"/><path class="cls-8" d="M62.79,20a2.12,2.12,0,0,1,.93-.66,1.22,1.22,0,0,1,.63,0,1.29,1.29,0,0,1,.55.33,1.51,1.51,0,0,1,.33.56,1.48,1.48,0,0,1,0,.66,2.32,2.32,0,0,1-.64,1l-.23-.24c.19-.29,0-.46-.16-.67l-.6-.61c-.17-.19-.37-.32-.61-.13Zm-.71,1.64c-.15-.15-.17-.18-.35-.08a.17.17,0,0,1-.1,0,.16.16,0,0,1-.09-.05c-.12-.12,0-.26,0-.28l1-1.07,2.52,2.59c.15.15.17.18.35.08a.18.18,0,0,1,.1,0,.18.18,0,0,1,.1,0,.2.2,0,0,1,0,.28l-1.12,1.16-.06,0h-.06l-.07,0a.1.1,0,0,1,0,0,.13.13,0,0,1-.05-.09.18.18,0,0,1,0-.1c.1-.19,0-.18-.1-.34Z"/><path class="cls-8" d="M65.3,17.79a.42.42,0,0,0,0,.27.44.44,0,0,0,.13.24l2.06,2.11a.43.43,0,0,0,.23.14.4.4,0,0,0,.26-.05l.23.23a1.92,1.92,0,0,1-2.78-.32,2.05,2.05,0,0,1-.31-2.85Zm2.81,2.52a.47.47,0,0,0,0-.26.42.42,0,0,0-.14-.24L66,17.7a.37.37,0,0,0-.23-.14.34.34,0,0,0-.26.05l-.23-.24a1.94,1.94,0,0,1,2.78.32,2.07,2.07,0,0,1,.31,2.86Z"/><path class="cls-8" d="M49.91,14.15l.91-.94,2.37,2.44c.14.14.16.17.33.08a.17.17,0,0,1,.1,0,.2.2,0,0,1,.09.05c.1.11,0,.24,0,.26l-1,1.08s-.15.14-.26,0a.3.3,0,0,1,0-.1.16.16,0,0,1,0-.09c.09-.18.06-.2-.08-.34Zm2.49-.77,0,0a.2.2,0,0,1,0,.07.14.14,0,0,1,0,.06l0,.06c-.1.1-.22,0-.31,0a1.16,1.16,0,0,0-.86-.31L51,13l.54-.56Zm-3.2,1.49.54-.55.22.22a1.24,1.24,0,0,0,.3.89c.07.1.15.22.05.32l-.05.05h-.13s0,0-.06,0Z"/><path class="cls-8" d="M55.13,13.66c.14.14.16.16.33.07a.16.16,0,0,1,.1,0,.18.18,0,0,1,.09,0,.19.19,0,0,1,0,.26l-1,1.09s-.15.13-.26,0a.25.25,0,0,1,0-.09.19.19,0,0,1,0-.1c.09-.17.06-.19-.08-.34l-1.95-2c-.14-.14-.16-.17-.33-.07a.16.16,0,0,1-.1,0,.12.12,0,0,1-.08,0,.18.18,0,0,1,0-.26l1-1.09s.15-.13.26,0a.13.13,0,0,1,0,.09.24.24,0,0,1,0,.09c-.09.18-.07.2.07.34Zm-.39-1.43-.33.34-.22-.23.33-.34-.84-.87c-.14-.14-.16-.17-.33-.07a.16.16,0,0,1-.1,0,.12.12,0,0,1-.08,0,.18.18,0,0,1,0-.26l1.05-1.09s.15-.13.26,0a.19.19,0,0,1,0,.09.36.36,0,0,1,0,.1c-.09.17-.07.19.07.33l1.95,2c.14.15.16.17.33.08a.12.12,0,0,1,.1,0,.18.18,0,0,1,.09,0,.19.19,0,0,1,0,.26L56,13.65s-.15.13-.26,0a.19.19,0,0,1,0-.09.36.36,0,0,1,0-.1c.09-.17.07-.19-.07-.33Z"/><path class="cls-8" d="M54.59,9.33l1-1,2.79,2.87-1,1s-.14.13-.25,0a.15.15,0,0,1,0-.09.12.12,0,0,1,0-.1c.09-.17.06-.19-.07-.33l-2-2c-.14-.14-.15-.17-.33-.07a.13.13,0,0,1-.09,0,.15.15,0,0,1-.09,0A.19.19,0,0,1,54.59,9.33Zm1.16-1.19.83-.86.76.78s.08.1,0,.21-.12.05-.19,0A1,1,0,0,0,56,8.36Zm2.57,2.65a1.15,1.15,0,0,0,.22-.59,1.11,1.11,0,0,0-.13-.62c0-.08-.07-.17,0-.24l.06,0h.06l.07,0,0,0,.74.77-.85.88ZM57,9.42a.6.6,0,0,0-.07-.61c0-.08-.08-.17,0-.25s.23,0,.26.07l.81.83s.18.15.06.27-.16,0-.24,0a.5.5,0,0,0-.28-.12.48.48,0,0,0-.31.05Z"/><path class="cls-6" d="M69.36,28.44a.66.66,0,0,1,.13-.36.62.62,0,0,1,.29-.24.67.67,0,0,1,.37,0,.6.6,0,0,1,.33.18.76.76,0,0,1,.17.35.71.71,0,0,1,0,.38.68.68,0,0,1-.24.29.66.66,0,0,1-.36.11.74.74,0,0,1-.25-.05.8.8,0,0,1-.21-.15.79.79,0,0,1-.14-.23A.75.75,0,0,1,69.36,28.44ZM70,29a.51.51,0,0,0,.32-.08.61.61,0,0,0,.23-.25.64.64,0,0,0,0-.34.57.57,0,0,0-.15-.3.46.46,0,0,0-.28-.17.53.53,0,0,0-.33,0,.54.54,0,0,0-.26.21.64.64,0,0,0-.1.33.83.83,0,0,0,0,.22.67.67,0,0,0,.11.18.52.52,0,0,0,.17.13A.54.54,0,0,0,70,29Zm-.13-.18h-.11V28h.28c.17,0,.26.07.26.23a.22.22,0,0,1,0,.08.16.16,0,0,1,0,.07.18.18,0,0,1-.07,0l-.07,0,.21.35H70.2L70,28.49h-.13Zm.13-.45c.1,0,.18,0,.18-.13s-.08-.12-.16-.12h-.15v.25Z"/><path class="cls-9" d="M95.54,17.89A17.54,17.54,0,1,0,78,35.39,17.51,17.51,0,0,0,95.54,17.89Z"/><path class="cls-8" d="M77,28.63a10.33,10.33,0,0,1-4.65-1.7c-1.17-.79-1.44-1.11-1.44-1.76,0-1.3,1.39-3.58,3.77-6.18a19.11,19.11,0,0,1,3.43-3.16,33.63,33.63,0,0,1,4.74,4.76c1.88,2.37,2.74,4.3,2.3,5.17-.33.65-2.4,1.93-3.91,2.42A11.06,11.06,0,0,1,77,28.63Zm-7.68-4.81a11.52,11.52,0,0,1-1.71-5.26,8.93,8.93,0,0,1,.18-2.63,10.91,10.91,0,0,1,2.55-5.33c.53-.56.57-.58,1.21-.35a8.83,8.83,0,0,1,2.9,2.06l.75.7-.41.52a33.48,33.48,0,0,0-4.67,7.94,5.16,5.16,0,0,0-.4,2.78C69.78,24.57,69.68,24.45,69.27,23.82Zm17.15.26a5.53,5.53,0,0,0-.31-2.28,33.28,33.28,0,0,0-4.59-8l-.6-.78.65-.61a13.26,13.26,0,0,1,2.06-1.68,3.91,3.91,0,0,1,1.53-.61,4.74,4.74,0,0,1,1.39,1.49,11.51,11.51,0,0,1,1.76,4.19,14.53,14.53,0,0,1,0,4.06,13.44,13.44,0,0,1-.79,2.55,12.57,12.57,0,0,1-1.07,1.89c-.13.17-.13.17-.06-.2ZM77.12,9.73a13,13,0,0,0-3-1.08,5.6,5.6,0,0,0-1-.06c-.62,0-.59,0,.4-.48A10.68,10.68,0,0,1,76,7.27a12.23,12.23,0,0,1,4.05,0,11,11,0,0,1,3.17,1.21l.21.14-.5,0a9,9,0,0,0-4,1.15,7.5,7.5,0,0,1-.91.42S77.57,10,77.12,9.73Z"/><g class="cls-10"><path d="M100.93,35.39a17.5,17.5,0,1,0-17.51-17.5A17.51,17.51,0,0,0,100.93,35.39Z"/><path class="cls-11" d="M107.1,21c2.37-1.31,4.19-2.3,4.34-2.38.5-.26,1-1,0-1.5l-4.34-2.38L104,17.86Z"/><path class="cls-12" d="M104,17.86l-10,10a1.36,1.36,0,0,0,.81-.2L107.1,21Z"/><path class="cls-13" d="M104,17.86l3.12-3.14S95.52,8.4,94.82,8A1.18,1.18,0,0,0,94,7.88Z"/><path class="cls-14" d="M104,17.86l-10-10c-.41.09-.75.45-.75,1.18V26.72c0,.67.26,1.15.76,1.2Z"/></g><g class="cls-15"><path d="M136,17.89a17.58,17.58,0,1,0-17.58,17.57A17.58,17.58,0,0,0,136,17.89Z"/><path class="cls-16" d="M128.82,15.89c-5.66-3.36-15-3.67-20.42-2a1.52,1.52,0,0,1-.64.07,1.48,1.48,0,0,1-.62-.18,1.68,1.68,0,0,1-.51-.4,1.8,1.8,0,0,1-.31-.58,1.74,1.74,0,0,1-.06-.64,1.66,1.66,0,0,1,.19-.62,1.83,1.83,0,0,1,.42-.5,1.61,1.61,0,0,1,.58-.3c6.21-1.88,16.53-1.52,23,2.36a1.63,1.63,0,0,1,.74,1,1.68,1.68,0,0,1-.18,1.24,1.65,1.65,0,0,1-2.24.58Zm-.19,5a1.33,1.33,0,0,1-.84.61,1.35,1.35,0,0,1-1-.16,23,23,0,0,0-17.51-2,1.42,1.42,0,0,1-1-.1,1.65,1.65,0,0,1-.41-.34,1.36,1.36,0,0,1-.3-1,1.36,1.36,0,0,1,.15-.51,1.33,1.33,0,0,1,.81-.66A25.63,25.63,0,0,1,128.18,19a1.36,1.36,0,0,1,.45,1.89Zm-2.15,4.78a1.1,1.1,0,0,1-.29.32,1.21,1.21,0,0,1-.38.18,1,1,0,0,1-.43,0A1.12,1.12,0,0,1,125,26c-4.13-2.53-9.32-3.1-15.44-1.7a1.08,1.08,0,0,1-.82-.15,1,1,0,0,1-.48-.68,1.08,1.08,0,0,1,.13-.82,1.16,1.16,0,0,1,.68-.49c6.7-1.53,12.44-.87,17.07,2a1.47,1.47,0,0,1,.32.29,1.38,1.38,0,0,1,.18.39,1,1,0,0,1,0,.43,1,1,0,0,1-.15.4ZM118.42.31a17.58,17.58,0,1,0,12.43,5.15A17.58,17.58,0,0,0,118.42.31Z"/></g><circle class="cls-17" cx="138" cy="17.88" r="17.51"/><path class="cls-18" d="M127.89,12.86a1.57,1.57,0,0,1,2.61-1.22c1.26.88,2.5,1.8,3.78,2.66.61.41.94.87.55,1.57s-.94.72-1.62.38c-1.46-.71-2.93-1.38-4.4-2.05C128.22,13.93,127.81,13.57,127.89,12.86Z"/><path class="cls-18" d="M148.12,13.17c0,.4-.28.73-.8,1l-4.61,2.15a1,1,0,0,1-1.51-.4,1,1,0,0,1,.41-1.51c1.34-.92,2.66-1.85,4-2.79.47-.32.93-.65,1.51-.28A2.13,2.13,0,0,1,148.12,13.17Z"/><path class="cls-18" d="M139.52,8.46c-.15,1.49-.32,3-.43,4.47-.06.72-.34,1.11-1.09,1.1s-1.07-.47-1.12-1.22c-.11-1.57-.28-3.14-.42-4.71-.11-1.15.41-1.71,1.54-1.72s1.55.46,1.52,1.6l0,.47Z"/><path class="cls-18" d="M127.87,22.5a1.19,1.19,0,0,1,.73-1.13l4.75-2.2a1,1,0,0,1,1.43.37,1,1,0,0,1-.35,1.53c-1.34.92-2.67,1.86-4,2.8a1.35,1.35,0,0,1-1.53.28A2.1,2.1,0,0,1,127.87,22.5Z"/><path class="cls-18" d="M139.48,26.7c.08,2-.41,2.51-1.75,2.35-.88-.11-1.38-.54-1.29-1.5.16-1.7.32-3.4.45-5.1a1,1,0,0,1,1.08-1,1,1,0,0,1,1.1,1C139.21,24,139.37,25.56,139.48,26.7Z"/><path class="cls-18" d="M148.1,22.4a1.92,1.92,0,0,1-1,1.75c-.55.33-1,.05-1.52-.3-1.32-.94-2.65-1.88-4-2.8a1,1,0,0,1-.39-1.41,1,1,0,0,1,1.49-.48c1.54.73,3.09,1.45,4.63,2.16C147.82,21.56,148.15,21.9,148.1,22.4Z"/></g></g></svg>