<svg xmlns="http://www.w3.org/2000/svg" viewBox="0 0 246.93 247.08"><defs><style>.cls-1{fill:#a56817;}.cls-2{fill:#fcd028;}.cls-3{fill:#fdfdfd;}.cls-4{fill:#5a5a5a;}.cls-5{fill:#676767;}.cls-6{fill:#fefefe;}.cls-7{fill:#9f9f9f;}.cls-8{fill:#3a3a3a;}</style></defs><g id="Layer_2" data-name="Layer 2"><g id="Layer_1-2" data-name="Layer 1"><path class="cls-1" d="M246.92,125.33A123.47,123.47,0,1,1,125.63,0,123.49,123.49,0,0,1,246.92,125.33Z"/><path class="cls-2" d="M123.52,5a118.52,118.52,0,1,1-2.15,237C57.52,241.07,5,188.89,5,123.35,5.06,58.11,58.13,4.91,123.52,5Z"/><path class="cls-3" d="M237,123.57c.18,62.68-51.26,114.42-115.11,113.6A113.64,113.64,0,1,1,237,123.57Z"/><path d="M148.29,165.62a7.09,7.09,0,0,0-1.75-1.87,1.94,1.94,0,0,1-.58-2.44c.9-2.35.88-2.37-1-3.95a16.53,16.53,0,0,1-5.42-8.25c-.21-.69-.4-.68-1-.42-5.42,2.4-7.45,8.41-6.63,12.92a4.22,4.22,0,0,1-1.28,4.41,3.41,3.41,0,0,0-.88,3.46c.21,1,.5,1.88.79,2.81a1,1,0,0,1-.69,1.39c-2,.71-3.86.87-5.63-.51-.49-.38-.71-.74-.31-1.4a9.17,9.17,0,0,0,1.35-4.89,7.15,7.15,0,0,1,1.25-3.92,8.38,8.38,0,0,0,1.29-4.71c0-2-.08-3.91-.09-5.87,0-.45-.15-.68-.62-.75-3.83-.62-7.54-1.74-11.34-2.47a2.32,2.32,0,0,0-2.6.83c-2.08,2.53-5,3.91-7.88,5.28-1.12.53-2.2,1.15-3.3,1.72-2.64,1.37-3.54,3.82-4,6.53a1.81,1.81,0,0,0,.5,1.46,26.74,26.74,0,0,1,1.69,2.16c1,1.5.5,2.38-1.24,2.41a15.2,15.2,0,0,1-4.15-.16c-1.13-.29-1.27-.5-1-1.6.06-.2.1-.4.17-.59a1.58,1.58,0,0,0-.47-2c-.87-.79-.83-.95,0-1.77a13.79,13.79,0,0,0,2.06-2.32,4.35,4.35,0,0,0,.6-1.38c.08-.4.28-.9,0-1.18s-.69.16-1,.3a23.42,23.42,0,0,0-4.93,2.59c-2.3,1.76-2.92,4.2-2.71,6.94a3.65,3.65,0,0,0,1.32,2.25,8.22,8.22,0,0,1,1.55,1.93c.48.94.24,1.65-.75,2a8.29,8.29,0,0,1-6.06-.23c-1-.42-1.15-.81-.72-1.74a2.46,2.46,0,0,0-.47-2.92c-.78-.9-.73-1.15.23-1.84A6.26,6.26,0,0,0,85,163.51c.27-1.55.44-3.11.69-4.65.21-1.25.39-1.33,1.59-.92A3.75,3.75,0,0,0,92,156.11c.13-.29.29-.56.06-.91a7.73,7.73,0,0,1-1-4.33,45.25,45.25,0,0,1,.6-7c.06-.38.11-.76.17-1.22a6.8,6.8,0,0,0-2,1.09c-3,2.05-6,4-9.58,4.86a15.32,15.32,0,0,1-8.49-.19c-6.15-2-6.33-9.3-2.53-12.69a17.81,17.81,0,0,1,4.88-2.84,16.17,16.17,0,0,0,4.27-2.3,3.52,3.52,0,0,0,1.34-2.6,1.44,1.44,0,0,0-1.65-1.7,23.37,23.37,0,0,0-2.86.58c-.21,0-.49.24-.54-.18.55-.21,1.37-.48,1.27-1s-1-.23-1.49-.26a4.55,4.55,0,0,1-2.92-.66c.59,0,1,0,1.42,0,.24,0,.54,0,.65-.2s-.21-.38-.35-.53a6.74,6.74,0,0,1-1.69-7,8.66,8.66,0,0,0,1,3.24A4.71,4.71,0,0,0,74,121.8a1.21,1.21,0,0,0,1.49.09c.54-.42.41-1,.2-1.54a3.82,3.82,0,0,0-.79-1c1.26-.16,2.31.8,2.61,2.4a5.28,5.28,0,0,0,.35,1.46.55.55,0,0,0,.55.37c.3,0,.33-.28.38-.52a4.22,4.22,0,0,0-.06-1.65,2,2,0,0,1,1.06,1.54,38.3,38.3,0,0,1,.74,4.1c.25,2.35-1,3.88-2.94,4.95-1.46.83-3,1.48-4.51,2.26a9.26,9.26,0,0,0-3.94,3.34c-2.53,4.35,0,9.18,5.18,9.73a17.57,17.57,0,0,0,14.52-5c2.26-2.14,4.34-4.46,6.46-6.73a27.12,27.12,0,0,1,13.22-7.86,69.48,69.48,0,0,0,7.17-2.29,13.57,13.57,0,0,0,7.71-7.05,61.78,61.78,0,0,1,7.1-11.94,39.38,39.38,0,0,1,4.49-4.91c.48-.43.6-.68.06-1.19a10,10,0,0,1-1.93-2.65,6.43,6.43,0,0,1-.11-6.14c2.26-4.38,6.19-6.54,10.71-7.88-1.27,1-2.6,2-3.78,3.17a11.16,11.16,0,0,0-2.74,3.78c-1.23,3-.36,5.38,2.53,6.92a2.55,2.55,0,0,0,2.69.18,8,8,0,0,1,5.11-.63,4.34,4.34,0,0,0,3.68-.75,2.87,2.87,0,0,1,2.73-.15,8.42,8.42,0,0,1,3,1.64c.35.29.58.35,1,0a21.15,21.15,0,0,0,2.84-2.41c2.58-3,2.7-6-.31-8.61a17.15,17.15,0,0,0-4.08-2.51c.38,0,.76.07,1.13.14a10.77,10.77,0,0,1,1.13.23,14.61,14.61,0,0,1,6.15,3.21,6,6,0,0,1,.93,8.36,11,11,0,0,1-5.75,4.09c-.59.2-.68.43-.43,1,.48,1.09.79,1.31,2,1.32s2.52-.19,3.8-.1c2.95.22,4,1.44,3.66,4.8a3.4,3.4,0,0,1-2.93,3.12c-1.53.36-3,.75-4.58,1.06a9.7,9.7,0,0,0-6,3.86,57.33,57.33,0,0,0-4.25,6.33,14.16,14.16,0,0,0-1.7,6.55,71,71,0,0,1-1.15,9.06A42.23,42.23,0,0,0,150.3,159c1.21,3.4,2.65,6.7,4.08,10,.49,1.13.32,1.54-.88,1.69a17.91,17.91,0,0,1-4.51,0c-1.09-.13-1.35-.58-1.14-1.66.14-.66.3-1.32.46-2,.55.12.26.7.53,1a1.12,1.12,0,0,0,1.83-.88,4.31,4.31,0,0,0-.32-2.35c-.2-.49-.39-.91.34-1.2.57-.23.31-.77.13-1.16-.35-.78-.79-1.51-1.12-2.31a37.61,37.61,0,0,1-2.35-9.45,68.66,68.66,0,0,1-.37-9.93,2.89,2.89,0,0,1,.13-1.05,14.35,14.35,0,0,1-5,6.57c-1.63,1.17-1.67.69-1.1,3.1a11.42,11.42,0,0,0,4.77,7,7.77,7.77,0,0,1,1.4,1.23,1.92,1.92,0,0,1,.23,2.66,2.11,2.11,0,0,0,.07,2.75,4.3,4.3,0,0,1,1.12,2.37C148.54,165.54,148.47,165.66,148.29,165.62Z"/><path d="M49.75,80.65A7.06,7.06,0,0,1,54,78.41a7.71,7.71,0,0,1,8.43,8.28A19.21,19.21,0,0,1,60.2,93.2c-1.5,3.1-3,6.23-4.42,9.36-.25.54-.42.66-1,.38Q43.16,97.38,31.51,91.88c-.58-.27-.64-.46-.37-1,1.81-3.75,3.57-7.52,5.37-11.27a12.63,12.63,0,0,1,2.56-3.71,5.62,5.62,0,0,1,6.3-1.24,5.89,5.89,0,0,1,4.29,5.22C49.68,80.06,49.71,80.26,49.75,80.65Z"/><path d="M199.28,78.54c-1,.49-1.94.95-2.89,1.44q-6.16,3.12-12.3,6.28c-.53.27-.78.27-1.05-.33-.58-1.3-1.23-2.56-1.92-3.8-.26-.48-.19-.65.29-.89,3.93-2,7.84-4,11.77-6,3.76-1.91,7.53-3.81,11.28-5.75.57-.3.77-.2,1,.34.67,1.41,1.39,2.8,2.12,4.18a.78.78,0,0,1,0,.89q-5.38,8.86-10.75,17.74c.35.19.61-.11.88-.24q7.26-3.68,14.52-7.39c.55-.28.81-.32,1.1.34.56,1.27,1.22,2.49,1.89,3.71.28.51.19.72-.33,1q-9.45,4.76-18.88,9.57c-1.4.71-2.8,1.4-4.18,2.15-.48.26-.69.2-.93-.3-.67-1.42-1.38-2.81-2.11-4.19a1.09,1.09,0,0,1,.06-1.22q5.13-8.4,10.21-16.83C199.2,79.08,199.44,78.93,199.28,78.54Z"/><path d="M160.87,58.46c-.1-6.84,6.3-15.09,14.43-15.32a11.21,11.21,0,0,1,5.48,1.21c5,2.56,8.16,6.4,8.1,12.28-.07,6.85-6,13.78-12.75,14.86a12.62,12.62,0,0,1-9.81-2.68A12.86,12.86,0,0,1,160.87,58.46Z"/><path d="M70.31,74.13a9.35,9.35,0,0,1-7.08-3.47c-3.87-4.37-7.61-8.84-11.41-13.26-.34-.39-.26-.6.1-.9,1.21-1,2.42-2,3.58-3.06.45-.41.67-.31,1,.11,3.42,4,6.87,8.07,10.31,12.1a10.82,10.82,0,0,0,2,2,4,4,0,0,0,4.36.37,9.27,9.27,0,0,0,3.58-3.11c1.17-1.71.81-3.37-.3-4.95-1.29-1.85-2.85-3.47-4.3-5.19Q68.62,50.49,65,46.3c-.38-.44-.38-.66.08-1,1.24-1,2.45-2.06,3.65-3.12.3-.26.46-.3.75,0C73.2,46.61,77,50.93,80.66,55.42c3.84,4.74,3.27,10.15-1.28,14.32a15.59,15.59,0,0,1-7.09,4.18A9.17,9.17,0,0,1,70.31,74.13Z"/><path d="M91,31.63c.39,0,.3.43.37.65q2.45,7.55,4.86,15.09c.49,1.55,1,3.09,1.46,4.65.16.55.39.64.93.46,3.73-1.23,7.47-2.41,11.19-3.64.58-.19.81-.1,1,.49.34,1.22.73,2.43,1.15,3.63.15.43,0,.54-.36.67q-8.69,2.77-17.35,5.6c-.53.17-.57-.13-.69-.49q-1.68-5.27-3.38-10.54-2.27-7-4.54-14.07c-.15-.47-.22-.77.42-1,1.5-.42,3-.94,4.47-1.41C90.63,31.72,90.77,31.69,91,31.63Z"/><path d="M118.72,39.37c.2-4.26.41-8.51.58-12.77,0-.61.14-.82.79-.77,1.5.11,3,.17,4.52.19.61,0,.78.18.75.81-.26,4.79-.47,9.58-.7,14.37-.1,2.13-.17,4.26-.3,6.38,0,.56.09.67.64.69,3.93.15,7.86.37,11.79.52.64,0,.85.14.77.85-.13,1.17-.12,2.36-.15,3.55,0,.52-.17.76-.78.73q-8.91-.47-17.81-.85c-.6,0-.76-.18-.73-.75.23-4.32.43-8.63.64-13Z"/><path d="M207,116.68c.95,2.71,1.89,5.26,2.71,7.84a1.31,1.31,0,0,0,1.52,1.12c2.71-.08,5.42,0,8.13,0l0,.32c-2.15,1.63-4.28,3.3-6.47,4.88a1.31,1.31,0,0,0-.6,1.79c.77,2.33,1.44,4.69,2.14,7,.06.22.09.45.14.68-.34.1-.48-.14-.65-.26-2-1.4-4.06-2.76-6-4.21a1.31,1.31,0,0,0-1.88,0c-2.18,1.62-4.44,3.13-6.85,4.81.39-1.33.72-2.47,1.07-3.61.49-1.63,1-3.27,1.5-4.91a.74.74,0,0,0-.31-.95c-2.32-1.72-4.61-3.47-6.91-5.22l0-.29h5.62c1,0,2-.06,3,0,.53,0,.71-.19.86-.64.83-2.46,1.68-4.91,2.53-7.37C206.71,117.35,206.84,117.08,207,116.68Z"/><path d="M27.37,125.61c2.82,0,5.65,0,8.48,0,.63,0,.84-.21,1-.76.81-2.44,1.66-4.86,2.51-7.28a1.48,1.48,0,0,1,.42-.81c.94,2.72,1.9,5.41,2.8,8.11a.92.92,0,0,0,1.07.74c2.81,0,5.61,0,8.58,0a1.74,1.74,0,0,1-.78.84c-2,1.55-4,3.1-6.09,4.6A1,1,0,0,0,45,132.3c.76,2.39,1.46,4.8,2.19,7.2a1.13,1.13,0,0,1,.07.93l-5.6-3.89c-.63-.43-1.26-1.2-1.9-1.21s-1.28.75-1.91,1.18L32,140.62c.69-2.28,1.31-4.36,1.93-6.45.26-.87.87-1.85.65-2.59s-1.27-1.14-2-1.67l-5.23-4Z"/><path d="M141.6,203.71c.82,2.94,1.62,5.81,2.41,8.68.22.77.4,1.54.65,2.3.14.42,0,.59-.38.69-.8.2-1.61.39-2.39.66s-.89.07-1.07-.6c-1.16-4.3-2.36-8.6-3.55-12.9-.33-1.2-.65-2.4-1-3.58-.15-.5,0-.68.47-.8a20.55,20.55,0,0,0,2.55-.72,1.22,1.22,0,0,1,1.4.37q4.51,4.2,9.07,8.36c.23.2.38.55.77.52.19-.3,0-.57-.07-.84-.91-3.31-1.79-6.62-2.75-9.91-.21-.7,0-.86.6-1a12.94,12.94,0,0,0,2.13-.6c.72-.29.88,0,1,.63q2.24,8.16,4.52,16.32c.16.58.12.83-.53,1a17.33,17.33,0,0,0-2.56.71,1.08,1.08,0,0,1-1.25-.32q-4.6-4.29-9.26-8.55C142.19,203.91,142,203.56,141.6,203.71Z"/><path d="M172.72,189.07c-1,.61-2,1.22-3,1.85-.27.16-.42.07-.62-.1a3.63,3.63,0,0,0-4.58-.38,4.3,4.3,0,0,0-2.32,4.44,8.59,8.59,0,0,0,3.56,6.1,4.84,4.84,0,0,0,7-1.55,3.87,3.87,0,0,0,.12-3.43c-.16-.42-.3-.47-.68-.22-1,.63-2,1.23-3,1.85-.45-.73-.86-1.46-1.32-2.14-.29-.41-.16-.59.22-.81,1.9-1.14,3.79-2.29,5.67-3.47.38-.23.57-.24.82.18,1.54,2.56,3.1,5.1,4.66,7.65.2.32.24.5-.15.76-1.71,1.12-1.7,1.14-3.16-.3-.31.26-.21.66-.31,1-1,3.13-3.44,4.52-6.43,5-4.46.66-8.53-2.2-10.26-7a8.88,8.88,0,0,1,6.76-12.11A6.84,6.84,0,0,1,172.72,189.07Z"/><path d="M98.33,205.93c-.5-.09-.39.37-.45.58-.57,2.11-1.14,4.22-1.65,6.34-.13.56-.32.74-.88.57-.91-.27-1.82-.51-2.74-.72-.45-.1-.56-.29-.44-.74q2.22-8.43,4.41-16.89c.1-.39.26-.52.68-.4,1,.29,1.93.56,2.91.77.49.11.53.31.41.74-.49,1.83-.94,3.66-1.45,5.48-.15.58-.17.86.55,1,1.9.43,3.78,1,5.66,1.48.56.16.85.15,1-.55.42-1.84,1-3.65,1.4-5.49.12-.5.27-.68.81-.5.9.28,1.82.5,2.74.72.46.1.61.26.48.78q-2.22,8.34-4.37,16.71c-.14.55-.33.69-.89.49a22,22,0,0,0-2.65-.7c-.59-.11-.61-.35-.47-.85.58-2.11,1.11-4.23,1.68-6.34.14-.5.15-.75-.49-.9-2-.45-3.89-1-5.83-1.52C98.62,206,98.47,206,98.33,205.93Z"/><path d="M196.55,183.09l-.4.46c-3,3.1-5.93,6.19-8.88,9.31-.39.41-.59.41-1,0q-6.16-6-12.37-11.85c-.42-.4-.5-.6,0-1.07,2.89-3,5.74-6,8.59-9,.4-.43.71-.55,1.09,0,.11.14.26.25.38.38.49.53,1.46,1,1.39,1.57s-.91,1.1-1.42,1.63c-1.59,1.67-3.18,3.34-4.79,5-.29.3-.34.47,0,.74s.54.54.83.79c.55.48,1,1.44,1.63,1.36s1.07-.94,1.58-1.47c1.37-1.42,2.75-2.85,4.1-4.3.37-.39.6-.54,1-.05.54.64,1.66,1.12,1.62,1.82s-1,1.22-1.58,1.82c-1.33,1.4-2.64,2.8-4,4.16-.37.38-.33.56,0,.89.81.73,1.6,1.5,2.36,2.28.33.35.49.3.81,0,2-2.1,4-4.15,5.94-6.24.43-.46.7-.56,1.15-.05a21.15,21.15,0,0,0,1.58,1.56C196.29,182.91,196.42,183,196.55,183.09Z"/><path d="M39.19,165.71c5.19-3.08,10.35-6.13,15.5-9.21.45-.26.59-.11.8.25q3.21,5.46,6.46,10.91c.25.41.27.62-.2.86a15.1,15.1,0,0,0-1.9,1.13c-.46.33-.67.22-.94-.24-1.39-2.4-2.85-4.77-4.22-7.18-.35-.62-.61-.61-1.12-.26a19.29,19.29,0,0,1-2.13,1.27c-.48.24-.46.45-.21.86,1.32,2.2,2.61,4.43,4,6.62.29.47.22.69-.25.91-.76.37-1.52,1.3-2.18,1.1s-.91-1.29-1.33-2c-1-1.68-2-3.35-3-5-.23-.4-.41-.45-.8-.2-.92.59-1.86,1.16-2.82,1.68-.44.23-.5.4-.23.84,1.48,2.45,2.9,4.94,4.41,7.38.36.6.29.85-.31,1.12-.8.36-1.57,1.36-2.28,1.13s-.94-1.34-1.38-2.07Z"/><path d="M206.93,165.57c0,4-3.26,8.41-6.73,9.19a5.8,5.8,0,0,1-4-.54c-.47-.23-.41-.43-.18-.78s.52-.92.79-1.38a5.2,5.2,0,0,1,.83-1.35c.44-.38.88.24,1.37.27a3.22,3.22,0,0,0,2.1-.53,5.91,5.91,0,0,0,2.38-4,1.89,1.89,0,0,0-.91-2,1.78,1.78,0,0,0-2,0,10.51,10.51,0,0,0-2.14,1.85,30.32,30.32,0,0,1-3,2.89,4.71,4.71,0,0,1-5.45.69,4.93,4.93,0,0,1-2.76-5.05,9.26,9.26,0,0,1,4.6-7.49,5.08,5.08,0,0,1,4.93-.16c.43.19.59.34.29.81-.51.79-1,1.63-1.41,2.46-.2.35-.35.51-.81.32a2.35,2.35,0,0,0-2.81.69,5.4,5.4,0,0,0-1.39,2.43,1.94,1.94,0,0,0,.77,2.19,1.55,1.55,0,0,0,2.15-.28c1.21-1.14,2.36-2.34,3.54-3.5a12,12,0,0,1,1.25-1.12,4.94,4.94,0,0,1,5.49-.67A5.37,5.37,0,0,1,206.93,165.57Z"/><path d="M148.9,58.06c-.13-.05-.27-.11-.41-.15-1.48-.51-3-1-4.44-1.5-.48-.16-.63-.32-.43-.87q4.24-12.3,8.44-24.61c.14-.41.29-.54.75-.38,1.49.55,3,1.05,4.52,1.55.46.15.63.31.44.87-2.83,8.17-5.62,16.34-8.43,24.51C149.26,57.71,149.28,58,148.9,58.06Z"/><path d="M80.11,206.6a8.9,8.9,0,0,1-7.72-12.45c1.28-3.34,3.51-5.83,7.12-6.72a9.07,9.07,0,0,1,10.57,6.3,7.41,7.41,0,0,1-.3,4.19c-.14.41-.31.48-.68.23s-.86-.52-1.3-.76c-.93-.52-1.6-.87-1.5-2.37.22-3.05-3.6-5.2-6.34-3.69a8.1,8.1,0,0,0-4.35,7.15,4.42,4.42,0,0,0,3,4.18,3.82,3.82,0,0,0,4.48-1.18c.44-.49.74-.57,1.28-.2a22.15,22.15,0,0,0,2.21,1.31c.42.22.47.41.17.78A8.14,8.14,0,0,1,80.11,206.6Z"/><path d="M133.11,217.46c-1.22,0-2.43,0-3.64,0-.48,0-.65-.19-.79-.62-.31-1-.69-1.95-1-2.92-.13-.37-.29-.58-.74-.57-1.84.06-3.67.09-5.5.09-.59,0-1,.13-1.12.8a18.9,18.9,0,0,1-.63,1.93c-.47,1.45-.47,1.46-1.94,1.51-.88,0-1.76,0-2.73,0l2.52-7c1.33-3.69,2.67-7.38,4-11.08.16-.45.34-.67.86-.65,1,0,2,0,3,0a.7.7,0,0,1,.8.5q3.45,8.86,6.93,17.72A1,1,0,0,1,133.11,217.46Z"/><path d="M61.19,185.15c-2.26.48-4.39.92-6.52,1.4a1.43,1.43,0,0,1-1.56-.42c-.83-.88-1.77-1.65-2.66-2.47l.16-.26,5.44-1.06c1.76-.35,3.53-.72,5.3-1,.52-.09.66-.3.75-.78.58-3.08,1.2-6.15,1.81-9.23a4.09,4.09,0,0,1,.15-.51l3.16,3.11c.27.27.09.56,0,.83-.48,2-1,4-1.48,6.08l3.86-.81c1-.2,2.05-.75,2.91-.51s1.42,1.27,2.13,1.95c.33.32.68.64,1.17,1.09l-5.23,1c-1.54.3-3.07.63-4.62.87a.89.89,0,0,0-.88.87c-.65,3.3-1.32,6.6-2,9.91,0,.22-.13.43-.2.66l-3.24-3.17c-.29-.29-.1-.63,0-.92C60.14,189.61,60.65,187.46,61.19,185.15Z"/><path class="cls-4" d="M148.6,168.13c-.37-.28,0-.77-.29-1.07l0-1.44.19-.2A2.46,2.46,0,0,1,148.6,168.13Z"/><path class="cls-5" d="M74.72,126.7c.11.26.38.07.54.18a1.71,1.71,0,0,1-1.2.13A.6.6,0,0,1,74.72,126.7Z"/><path class="cls-6" d="M125.68,167.37a9,9,0,0,1,1.66-4.89c1.69-2.21,2-4.73,1.95-7.38,0-1.77,0-3.54-.06-5.32a3.59,3.59,0,0,1,.92-2.43,11.44,11.44,0,0,0,1.51-2.07,4.23,4.23,0,0,0-.48-4.73c-.15-.17-.27-.41-.6-.33a5.79,5.79,0,0,1-1.84,6.81,3.21,3.21,0,0,0-1.22,2.38c0,.49-.21.55-.65.5a29,29,0,0,1-5.79-1.25,19.52,19.52,0,0,0-13.67.83l-.69.28c.21-1.39.39-2.73.62-4.06a3.07,3.07,0,0,1,1.65-2.08,32.48,32.48,0,0,1,3.92-1.84c0-.07.17-.16.15-.18a.51.51,0,0,0-.53,0c-3.26.4-6.3,1.29-8.47,4,.07,0,.13.09.16.08,1.61-.39,2.1,0,2,1.72a9.19,9.19,0,0,1-2.44,5.22,17.3,17.3,0,0,1-5.81,4.12c-2.08,1-4.11,2.09-6.21,3a8.26,8.26,0,0,0-4.91,6.59,34.69,34.69,0,0,0-.74,5.26c0,.32,0,.71-.36.84s-.61-.14-.84-.37a9,9,0,0,1-1.76-2.75,1.23,1.23,0,0,1,.35-1.53c2-1.71,2.67-4,3-6.53.18-1.5.66-1.95,2.1-1.68,1.92.35,3-.53,3.85-2.09.11-.21.21-.43.32-.64.71-1.42,1.09-1.61,2.71-1.33,1.41.25,1.72.08,2.22-1.27a4.57,4.57,0,0,0-.5-4.32,4.51,4.51,0,0,0-.4-.47s-.15-.06-.34-.12a4.84,4.84,0,0,1,.61,3,2.74,2.74,0,0,1-2.58,2.17,2.25,2.25,0,0,1-2.11-2,17.14,17.14,0,0,1,.6-8.41c1.73-5.92,5.6-10,11-12.82a71.31,71.31,0,0,1,10.65-4,19.45,19.45,0,0,0,11-8.77,82.3,82.3,0,0,1,11.11-14.92c1.11-1.15,1.09-1.16,2.53-.63a9.14,9.14,0,0,0,3.46.66,3,3,0,0,0,2.53-1.41,2.22,2.22,0,0,0-.32-3.11l-.72-.64h4a4.89,4.89,0,0,0,2.89-1,3.32,3.32,0,0,1,3.6-.3,9,9,0,0,1,4.51,4.56c.79,1.73,1.23,1.93,3.11,1.73a12,12,0,0,1,4-.09A2.2,2.2,0,0,1,168,105a5.62,5.62,0,0,1,.11,2.64c-.33,1.63-1.31,2.39-3.31,2.67-1.32.18-2.63.38-3.94.59a11.38,11.38,0,0,0-6.85,4.28,23.89,23.89,0,0,0-5.3,11.17c-.33,1.77,0,3.6-.25,5.4a14.57,14.57,0,0,1-2.24,6.41,8.23,8.23,0,0,0-1.28-3.85,1,1,0,0,1,.05-.86,15.27,15.27,0,0,1,1.2-2.75c.13-.24.42-.45.24-.86a12.08,12.08,0,0,0-3.25,4.48c-.17.32.07.41.26.54a5.14,5.14,0,0,1,1.27,1.1,2.84,2.84,0,0,1,.71,2,8.41,8.41,0,0,1-5.94,7,8.82,8.82,0,0,0,1.15-5,8.58,8.58,0,0,0-.68-3c-1-2.26-.6-4.45.23-6.62a12.56,12.56,0,0,1,2-3.33c.16-.21.5-.35.39-.79a10.18,10.18,0,0,0-4.09,4.41A31.33,31.33,0,0,0,137,135a.47.47,0,0,0,.31.68,3.42,3.42,0,0,1,2,2.74,14,14,0,0,1,.26,3.53,6.13,6.13,0,0,1-2.26,4.28c-1.23,1.11-2.48,2.19-3.63,3.39A11.11,11.11,0,0,0,130.77,161c.14.48.22,1,.34,1.47a2.55,2.55,0,0,1-.48,2.34,6.37,6.37,0,0,0-1.28,5.18c0,.25.23.59,0,.73s-.64,0-.89-.26a2.76,2.76,0,0,1-.73-1.58c-.1-.46-.14-.93-.21-1.46a5.88,5.88,0,0,0-1.61,1.57C125.38,168.5,125.7,167.91,125.68,167.37Z"/><path class="cls-6" d="M148.6,168.13a7.72,7.72,0,0,0-.12-2.71,6.68,6.68,0,0,0-1.34-2.47,2,2,0,0,1,0-2.6c.87-1.24.74-1.87-.42-2.9-1-.85-2-1.62-3-2.51-2.11-2-2.76-4.68-3.33-7.39-.07-.32.13-.43.32-.55a15.67,15.67,0,0,0,6.43-7.69c0-.05.08-.08.19-.17a70.46,70.46,0,0,0-.08,7.11,39.92,39.92,0,0,0,3,14.59c.29.65.68,1.25.93,1.91.32.88.06,1.18-.95,1.14a6.32,6.32,0,0,1,.73,3.05,1.67,1.67,0,0,1-1.43,1.67C149.15,168.64,148.76,168.59,148.6,168.13Z"/><path class="cls-6" d="M97,168a1.52,1.52,0,0,1-1.19-.77c-.52-.68-1-1.41-1.47-2.11a1.39,1.39,0,0,1,.06-1.85c.49-.63,1-1.28,1.43-1.92a4.56,4.56,0,0,0,1.13-3.18c0-.39.17-.52.45-.65a23.38,23.38,0,0,0,8.21-5.76,4.34,4.34,0,0,1,1.49-.94,18.59,18.59,0,0,1,5.2-1.45,9.49,9.49,0,0,1-2.76,2.87,50.82,50.82,0,0,1-6.72,3.76,30.47,30.47,0,0,0-3.24,2,3.08,3.08,0,0,0-1,1.63A22.05,22.05,0,0,0,97,168Z"/><path class="cls-2" d="M137.53,87.76c-.44.92-1,1.76-1.34,2.7a6.2,6.2,0,0,0,4.69,8.65c.52.1,1,.21,1.55.33a.86.86,0,0,1,.79.91,1,1,0,0,1-.84,1.1,4.41,4.41,0,0,1-2.44-.17,12.44,12.44,0,0,1-4.4-2.57,5.48,5.48,0,0,1-1.64-6A9,9,0,0,1,137.53,87.76Z"/><path class="cls-2" d="M163,87.69a5.75,5.75,0,0,1,2.76,6.65,7.14,7.14,0,0,1-2.55,3.54,14,14,0,0,1-3.89,2.07.67.67,0,0,1-.94-.29c-.44-.67-.39-1,.36-1.33a11.84,11.84,0,0,0,2-1.29C164.3,94.42,165,91.71,163,87.69Z"/><path class="cls-7" d="M125.68,167.37c.19.52-.14,1.11.19,1.62-.09.13-.27.49-.31.08A3.29,3.29,0,0,1,125.68,167.37Z"/><path class="cls-8" d="M112.53,141.6a1.54,1.54,0,0,1,1-.14.8.8,0,0,1-.66.33Z"/><path class="cls-6" d="M57.2,87.41a5.56,5.56,0,0,1-.56,2.3c-.86,1.84-1.74,3.67-2.59,5.52-.17.36-.29.56-.77.32q-2.81-1.39-5.66-2.69c-.49-.23-.47-.45-.27-.86.89-1.83,1.72-3.68,2.64-5.5,1.36-2.68,3.63-3.24,6-1.52A2.89,2.89,0,0,1,57.2,87.41Z"/><path class="cls-6" d="M46.45,83.19A4.72,4.72,0,0,1,46,85.32c-.78,1.65-1.59,3.29-2.33,5-.23.51-.46.46-.85.27-1.51-.73-3-1.46-4.55-2.16-.44-.2-.54-.4-.31-.86.78-1.58,1.52-3.18,2.29-4.78a5.73,5.73,0,0,1,1-1.45,2.6,2.6,0,0,1,3.14-.7A2.85,2.85,0,0,1,46.45,83.19Z"/><path class="cls-6" d="M176.28,48.58A7,7,0,0,1,183,57.26a12.87,12.87,0,0,1-5.92,7.88,6.45,6.45,0,0,1-7.77-.43,6.38,6.38,0,0,1-2.55-7.36c1.29-4.16,3.83-7.27,8.16-8.62A5.29,5.29,0,0,1,176.28,48.58Z"/><path class="cls-3" d="M126.31,210.31h-4.69c.73-2.15,1.46-4.34,2.25-6.71Z"/></g></g></svg>