<?xml version="1.0" encoding="UTF-8"?>
<svg width="25px" height="23px" viewBox="0 0 25 23" version="1.1" xmlns="http://www.w3.org/2000/svg" xmlns:xlink="http://www.w3.org/1999/xlink">
    <title>BitPay - Careers</title>
    <g id="Symbols" stroke="none" stroke-width="1" fill="none" fill-rule="evenodd">
        <g id="Components/Navigation/Company" transform="translate(-34.000000, -87.000000)">
            <g id="Components/Navigation/Dropnav/Company">
                <g id="briefcase" transform="translate(34.000000, 87.000000)">
                    <path d="M22.826087,15.7608696 L2.17391304,15.7608696 C1.57360326,15.7608696 1.08695652,16.2475163 1.08695652,16.8478261 L1.08695652,21.7391304 C1.08695652,22.3394402 1.57360326,22.826087 2.17391304,22.826087 L22.826087,22.826087 C23.4263967,22.826087 23.9130435,22.3394402 23.9130435,21.7391304 L23.9130435,16.8478261 C23.9130435,16.2475163 23.4263967,15.7608696 22.826087,15.7608696 Z" id="Path" fill="#A1B2FF"></path>
                    <path d="M16.8478261,4.34782609 C16.5474293,4.34782609 16.3043478,4.1044837 16.3043478,3.80434783 L16.3043478,1.08695652 L8.69565217,1.08695652 L8.69565217,3.80434783 C8.69565217,4.1044837 8.45257065,4.34782609 8.15217391,4.34782609 C7.85177717,4.34782609 7.60869565,4.1044837 7.60869565,3.80434783 L7.60869565,0.543478261 C7.60869565,0.243342391 7.85177717,0 8.15217391,0 L16.8478261,0 C17.1482228,0 17.3913043,0.243342391 17.3913043,0.543478261 L17.3913043,3.80434783 C17.3913043,4.1044837 17.1482228,4.34782609 16.8478261,4.34782609 Z" id="Path" fill="#4F6EF7"></path>
                    <path d="M23.9130435,3.26086957 L1.08695652,3.26086957 C0.486646739,3.26086957 0,3.7475163 0,4.34782609 L0,15.7608696 C0,16.3611793 0.486646739,16.8478261 1.08695652,16.8478261 L23.9130435,16.8478261 C24.5133533,16.8478261 25,16.3611793 25,15.7608696 L25,4.34782609 C25,3.7475163 24.5133533,3.26086957 23.9130435,3.26086957 Z" id="Path" fill="#4F6EF7"></path>
                    <rect id="Rectangle" fill="#DFE5FF" x="4.89130435" y="3.26086957" width="2.17391304" height="12.5"></rect>
                    <rect id="Rectangle" fill="#DFE5FF" x="17.9347826" y="3.26086957" width="2.17391304" height="12.5"></rect>
                    <rect id="Rectangle" fill="#DFE5FF" x="17.9347826" y="17.9347826" width="2.17391304" height="4.89130435"></rect>
                    <rect id="Rectangle" fill="#DFE5FF" x="4.89130435" y="17.9347826" width="2.17391304" height="4.89130435"></rect>
                    <path d="M7.60869565,18.4782609 L4.34782609,18.4782609 C4.04766848,18.4782609 3.80434783,18.2349348 3.80434783,17.9347826 L3.80434783,15.7608696 C3.80434783,15.4607174 4.04766848,15.2173913 4.34782609,15.2173913 L7.60869565,15.2173913 C7.90885326,15.2173913 8.15217391,15.4607174 8.15217391,15.7608696 L8.15217391,17.9347826 C8.15217391,18.2349348 7.90885326,18.4782609 7.60869565,18.4782609 Z" id="Path" fill="#214497"></path>
                    <path d="M20.6521739,18.4782609 L17.3913043,18.4782609 C17.0911522,18.4782609 16.8478261,18.2349348 16.8478261,17.9347826 L16.8478261,15.7608696 C16.8478261,15.4607174 17.0911522,15.2173913 17.3913043,15.2173913 L20.6521739,15.2173913 C20.9523261,15.2173913 21.1956522,15.4607174 21.1956522,15.7608696 L21.1956522,17.9347826 C21.1956522,18.2349348 20.9523261,18.4782609 20.6521739,18.4782609 Z" id="Path" fill="#214497"></path>
                    <rect id="Rectangle" fill="#4F6EF7" x="4.89130435" y="18.4782609" width="2.17391304" height="1.08695652"></rect>
                    <rect id="Rectangle" fill="#4F6EF7" x="17.9347826" y="18.4782609" width="2.17391304" height="1.08695652"></rect>
                </g>
            </g>
        </g>
    </g>
</svg>
