<svg xmlns="http://www.w3.org/2000/svg" viewBox="0 0 554.9 100.89"><g id="Layer_2" data-name="Layer 2"><g id="Layer_1-2" data-name="Layer 1"><path d="M269.87,100.87c-25.47.69-50.81-20.38-50.86-50.34C219,21.14,243.86-.14,270.2,0,295.76.14,321,20.55,320.87,50.67,320.79,80.61,295.57,101.58,269.87,100.87Z"/><path d="M355.39,60.64c-.71,4.54-1.43,9.08-2.12,13.62-.59,3.85-.84,4.17-4.72,4.1-3.44-.06-6.92.44-10.73-.47.16-1.81.2-3.52.47-5.2q3.6-22.29,7.28-44.57a14.07,14.07,0,0,1,.35-1.83A4.38,4.38,0,0,1,349.58,23,4.18,4.18,0,0,1,354,25.09c1,1.59,1.85,3.25,2.73,4.9Q362.89,41.53,369,53.08c.22.42.52.82,1,1.55,1.49-2.72,2.87-5.18,4.19-7.66q5.27-9.9,10.49-19.81c.12-.22.26-.43.37-.65,1-2.18,2.5-3.79,5.13-3.58,2.18.18,3.66,2,4.16,5.07q3.78,23,7.47,46.06a36.6,36.6,0,0,1,.2,3.67c-2.94,1.15-5.69.6-8.38.63-6.48.07-6.34.6-7.22-6-.54-4.07-1.32-8.1-2.1-12.76l-7.56,12.45c-.71,1.17-1.35,2.39-2.13,3.51-2.7,3.9-6.82,3.9-9.4-.11s-4.76-7.9-7.15-11.84c-.63-1-1.31-2.07-2-3.1Z"/><path d="M177.92,36.21c0,2.63,0,4.61,0,6.59a20.5,20.5,0,0,0,.31,2.16H190.6c5.26,0,5.26,0,5.26,5.41,0,6,0,6-5.91,6H178.18V65c1.12.09,2.2.24,3.27.24,5.74,0,11.48,0,17.21,0,3.22,0,3.64.44,3.74,3.67.07,2.12.1,4.24,0,6.35-.16,2.54-.66,3-3.21,3.07-4.49.08-9,0-13.47,0-6.36,0-12.72,0-19.08,0-3.36,0-3.74-.36-3.74-3.59q-.06-24.09,0-48.19c0-3.41.43-3.8,3.95-3.81q15.7-.06,31.42,0c3.61,0,4.1.53,4.18,4.08.05,1.74.05,3.49,0,5.23-.09,3.47-.65,4-4.25,4-5.36.05-10.73,0-16.09,0Z"/><path d="M530.89,56.35v8.94h6.48c4.74,0,9.49,0,14.23,0,2.92,0,3.19.34,3.27,3.23,0,2,0,4,0,6,0,3.75-.17,3.88-4.13,3.9-4.87,0-9.73,0-14.6,0-5.62,0-11.23,0-16.85,0-3.39,0-3.66-.28-3.67-3.61q0-24.12,0-48.24c0-3.28.43-3.73,3.65-3.74q15.9-.06,31.82,0c3.46,0,3.74.37,3.78,4q0,2.8,0,5.61c-.06,3.39-.42,3.77-4,3.8-5.36,0-10.73,0-16.1,0-1.22,0-2.44.1-3.89.17V45h12.47c5.23,0,5.23,0,5.24,5.08,0,6.3,0,6.3-6.45,6.3Z"/><path d="M131.69,21.84a24.64,24.64,0,0,1,17,5.92c2.76,2.25,2.82,3.11.51,5.72-1.48,1.68-3,3.29-4.6,4.92a2.42,2.42,0,0,1-3.64.2,47.23,47.23,0,0,0-4-2.79,9,9,0,0,0-7.58-.85,4.62,4.62,0,0,0-2.71,2.66c-.24.82.71,2.35,1.56,3a17.77,17.77,0,0,0,4.35,2.07c3.71,1.48,7.51,2.73,11.14,4.36,13.72,6.17,10.9,22.41,1.67,28.16a26,26,0,0,1-19.77,3.29,27.09,27.09,0,0,1-14.43-8.17c-2.28-2.43-2.3-2.94,0-5.2,1.31-1.33,2.68-2.61,4.06-3.87,2.68-2.42,2.86-2.44,5.61-.17,2.42,2,4.9,4,8.07,4.49a13.31,13.31,0,0,0,5.83-.29c3.39-1.07,3.9-5,1-7a31.09,31.09,0,0,0-5-2.42c-3.52-1.58-7.21-2.85-10.54-4.77-5.27-3-8.49-7.48-8.42-14a13.68,13.68,0,0,1,7.11-12.3A22.75,22.75,0,0,1,131.69,21.84Z"/><path d="M79.18,52.51c-1,1.9-1.68,3.29-2.35,4.72C74.1,63.1,71.32,69,68.71,74.88c-1.1,2.51-2.69,3.7-5.47,3.5-2.11-.16-4.24,0-6.36,0-4.23-.09-5.43-1.9-3.71-5.69,2.31-5.11,4.69-10.18,7.07-15.25Q67.31,42.34,74.4,27.31c.26-.56.52-1.13.79-1.69.81-1.7,2-2.88,4-2.82a4.38,4.38,0,0,1,4,2.95c2.48,5.3,5,10.59,7.46,15.89l13.92,29.79a23.06,23.06,0,0,1,1.07,2.38c.76,2.28-.19,4.24-2.5,4.4a91.79,91.79,0,0,1-10.09,0c-1.86-.09-2.64-1.66-3.34-3.17q-4-8.65-8-17.3C81,56.19,80.21,54.65,79.18,52.51Z"/><path d="M436.06,52.54C433.48,58.06,431.18,63,428.88,68c-1.11,2.37-2.28,4.71-3.29,7.12s-2.53,3.54-5.17,3.38c-2.36-.13-4.74,0-7.11,0-3.75-.13-4.9-2-3.3-5.43,3.8-8.26,7.7-16.47,11.55-24.7q4.92-10.5,9.83-21A17.62,17.62,0,0,1,432.56,25c1.81-2.68,4.92-2.79,6.85-.24a10.33,10.33,0,0,1,1.08,2q10.71,22.83,21.39,45.68a9.24,9.24,0,0,1,.78,2.09c.44,2.22-.56,3.77-2.82,3.89-3.23.17-6.49.09-9.73,0-1.88-.06-2.72-1.47-3.43-3q-4.11-9-8.29-18C437.72,55.9,437,54.48,436.06,52.54Z"/><path d="M38.57,39.82c-4.49-3.11-8.93-4.4-13.83-3a12.71,12.71,0,0,0-7,4.77A15.16,15.16,0,0,0,17.91,60c4.63,5.71,10.42,6.3,20.53,2a11.54,11.54,0,0,1,1.76,1.62c1.84,2.52,3.59,5.1,5.37,7.65A2,2,0,0,1,45,74.4a16.22,16.22,0,0,1-1.57,1C27.27,84.6,5.11,77.06.72,56.8-3.26,38.42,9.93,25,23.6,22.57A28.92,28.92,0,0,1,43.1,25.8c3.47,1.91,3.62,2.56,1.45,5.69C42.72,34.13,40.8,36.72,38.57,39.82Z"/><path d="M491,36.4v24c0,4.73,0,9.47,0,14.2,0,3.27-.47,3.71-3.63,3.78-2.49,0-5,0-7.48,0-3.45-.06-3.9-.47-3.92-3.89,0-8.22,0-16.44,0-24.66V36.58c-1.18-.14-2.12-.34-3.07-.36-2.24,0-4.49,0-6.73,0-4.5,0-4.64-.17-4.67-4.62,0-2,0-4,0-6s.93-2.72,2.74-2.76c.74,0,1.49,0,2.24,0h34.05c.88,0,1.75,0,2.62,0a2.32,2.32,0,0,1,2.51,2.26c.11,2.86.13,5.73,0,8.58-.07,1.85-1.39,2.49-3.1,2.49-2.5,0-5,0-7.49,0C493.88,36.23,492.67,36.32,491,36.4Z"/></g></g></svg>