<svg xmlns="http://www.w3.org/2000/svg" width="215.3" height="215.2" viewBox="0 0 215.3 215.2"><defs><style>.a{fill:#fefefe;}.b{fill:#455d72;}.c{fill:#ec9126;}</style></defs><g transform="translate(0 -1)"><path class="a" d="M120.3,187.2c-2.4.2-4.8.5-7.3.7a92.916,92.916,0,0,1-17.5-.8,54.372,54.372,0,0,1-12.4,25.2,8.175,8.175,0,0,1-.8.9,107.414,107.414,0,0,0,25.3,3,19.268,19.268,0,0,0,2.4-.1c.9-2.3,3.6-6.2,4.8-9.1a78.6,78.6,0,0,0,5.5-19.8"/></g><path class="a" d="M38.1,120.8a47.206,47.206,0,0,1,18.3,1.7,2.769,2.769,0,0,1,.9.1c19.2,6,31.6,18.7,37.5,37.9a49.659,49.659,0,0,0,25.1.6c-5.5-32.4-31.3-58.4-63.4-64-.4-.1-.7-.2-1-.3-2.5-.2-5.1-.5-7.6-.7a81.654,81.654,0,0,0-17.1.7c-1.7.3-3.3.6-5,1C17.3,99.6,4.1,107.5,0,109a106.075,106.075,0,0,0,4,27.8,53.77,53.77,0,0,1,27-15,34.7,34.7,0,0,1,7.1-1m92.3-46.4a49.972,49.972,0,0,1-9.3-19.6,28.668,28.668,0,0,0-7.1-1.3c-6-.5-12-.5-17.9,1.3,4.6,24.3,17.3,43,38.8,55.5a74.216,74.216,0,0,0,43.2,10.1,76.651,76.651,0,0,0,37.2-12.1v-.6a110.913,110.913,0,0,0-3.6-27.8c-9.3,9.3-20.4,14.8-33.5,15.8-19.6,1.4-35.7-5.8-47.8-21.3M106.6,28.6a108.5,108.5,0,0,1,14,.8A53.855,53.855,0,0,1,134.4,3.3,109.887,109.887,0,0,0,107.6,0h-.7c-1.4,6.7-9.6,18.7-11.1,29.5,3.6-.2,7.2-.8,10.8-.9"/><path class="b" d="M215.3,108.2a76.991,76.991,0,0,1-37.2,12.1,75.774,75.774,0,0,1-43.2-10.1C113.4,97.7,100.7,79,96,54.7h-.5C75.9,59.1,59,76.9,55.4,96.8c.3.1.7.2,1,.3,32.1,5.6,57.8,31.6,63.4,64,.7-.2,1.4-.3,2.1-.5,15.7-4.3,27.2-13.8,34.6-28.2.6-1.2,1-1.2,2.2-.7,6.3,3.1,12.7,6.1,19.1,9.1,1.3.6,1.3,1.1.7,2.3a79.354,79.354,0,0,1-58.3,43,81.746,81.746,0,0,1-5.5,19.9c-1.2,2.9-3.9,6.9-4.8,9.1A107.493,107.493,0,0,0,215.3,108.2"/><g transform="translate(0 -1)"><path class="b" d="M30.7,97.7c.1-.7.2-1.4.3-2.2,5.6-28.9,21.8-49.2,49-60.7a95.1,95.1,0,0,1,15.8-4.5C97.4,19.7,105.6,7.7,107,1A107.635,107.635,0,0,0,0,108.6V110c4-1.5,17.3-9.5,25.7-11.3,1.7-.3,3.4-.6,5-1"/></g><path class="c" d="M113.9,53.5a28.668,28.668,0,0,1,7.1,1.3c16.1,4,27.7,13.6,35.5,28.1.5.9.6,1.7,2,1,6.4-3.2,12.9-6.2,19.4-9.3,1-.5,1.3-.9.7-2a78.32,78.32,0,0,0-37.8-36.9,81,81,0,0,0-20.3-6.3,109.535,109.535,0,0,0-14-.8c-3.6.1-7.2.6-10.7.9A86.1,86.1,0,0,0,80,33.9C52.8,45.4,36.6,65.7,31,94.6c-.2.7-.2,1.4-.4,2.2a81.6,81.6,0,0,1,17.1-.6c2.5.2,5.1.5,7.6.7,3.7-20,20.6-37.8,40.2-42.1H96a45.168,45.168,0,0,1,17.9-1.3M94.7,160.6a1.7,1.7,0,0,1-.7-.1c-19.3-6-31.9-18.6-37.6-38a47.205,47.205,0,0,0-18.3-1.7,32.947,32.947,0,0,0-7,1.1l.3,1.2c6.1,27.9,22.3,47.6,48.7,58.6,5,2.1,10.2,3.2,15.4,4.4a102.125,102.125,0,0,0,17.5.8c2.4-.2,4.8-.4,7.3-.7a78.611,78.611,0,0,0,35.2-15.1,79.922,79.922,0,0,0,23.1-27.9c.6-1.2.5-1.7-.8-2.3-6.4-3-12.8-6-19.1-9.1-1.1-.6-1.6-.5-2.2.7q-11.25,21.6-34.6,28.2c-.7.2-1.4.3-2.1.5a50.8,50.8,0,0,1-25.1-.6"/><path class="b" d="M140.9,35.7c16.9,7.9,29.4,20.3,37.8,36.9.6,1.1.3,1.5-.7,2-6.5,3.1-13,6.1-19.4,9.3-1.4.7-1.6-.2-2-1-7.7-14.5-19.4-24.1-35.5-28.1a47.594,47.594,0,0,0,9.4,19.6c12.1,15.5,28.2,22.7,47.7,21.2,13.1-1,24.2-6.5,33.5-15.8A107.856,107.856,0,0,0,134.4,3.4a55.577,55.577,0,0,0-13.8,26.1,85.086,85.086,0,0,1,20.3,6.2M95.6,186.1c-5.2-1.2-10.4-2.3-15.4-4.4C53.8,170.6,37.6,151,31.5,123.1l-.3-1.2a53.035,53.035,0,0,0-27,15,107.709,107.709,0,0,0,78.3,75.4,6.469,6.469,0,0,1,.8-.9,57.061,57.061,0,0,0,12.3-25.3M94,160.5a1.7,1.7,0,0,0,.7.1c-5.8-19.2-18.3-31.9-37.5-37.9a2.769,2.769,0,0,0-.9-.1c5.8,19.2,18.4,31.9,37.7,37.9"/></svg>