<svg xmlns="http://www.w3.org/2000/svg" viewBox="0 0 68.91 68.91"><defs><style>.cls-1{fill:#253e89;}.cls-2{fill:#576bb3;}.cls-3{fill:#458cc5;}.cls-4{fill:#b9e2f8;}</style></defs><g id="Layer_2" data-name="Layer 2"><g id="Layer_1-2" data-name="Layer 1"><circle class="cls-1" cx="34.46" cy="34.46" r="34.46"/><path class="cls-2" d="M25.84,17.08a13,13,0,0,1,18.38,0,1,1,0,0,1,0,1.42,1,1,0,0,1-1.41,0,11,11,0,0,0-15.56,0,1,1,0,0,1-1.41,0A1,1,0,0,1,25.84,17.08Z"/><path class="cls-2" d="M23.08,11.68a16.92,16.92,0,0,1,23.9,0,1.3,1.3,0,0,1,0,1.84,1.32,1.32,0,0,1-1.84,0,14.3,14.3,0,0,0-20.22,0,1.32,1.32,0,0,1-1.84,0A1.3,1.3,0,0,1,23.08,11.68Z"/><path class="cls-2" d="M28.6,22a9.11,9.11,0,0,1,12.87,0,.7.7,0,0,1-1,1,7.7,7.7,0,0,0-10.89,0,.71.71,0,0,1-1,0A.69.69,0,0,1,28.6,22Z"/><path class="cls-3" d="M47,27.28H23c-2.65,0-4.8,2.42-4.8,5.41V64.86c.88.47,1.78.9,2.71,1.3V33.48c0-.88.52-1.6,1.17-1.6H48c.65,0,1.18.72,1.18,1.6V65.64c.92-.44,1.82-.92,2.7-1.43V32.69C51.83,29.7,49.68,27.28,47,27.28Z"/><path class="cls-4" d="M48,31.88H22.11c-.65,0-1.17.72-1.17,1.6V66.16a34.57,34.57,0,0,0,28.19-.52V33.48C49.13,32.6,48.6,31.88,48,31.88Z"/></g></g></svg>