<svg xmlns="http://www.w3.org/2000/svg" xmlns:xlink="http://www.w3.org/1999/xlink" width="426" height="526" viewBox="0 0 426 526">
  <defs>
    <path id="checkout-a" d="M8.960625,14.0546875 C8.960625,14.945317 8.69239852,15.6562473 8.1559375,16.1875 C7.61947648,16.7187527 6.88250469,17.0338537 5.945,17.1328125 L5.945,18.625 L4.7809375,18.625 L4.7809375,17.140625 C4.20801797,17.0781247 3.68979398,16.9192721 3.22625,16.6640625 C2.76270602,16.4088529 2.38901184,16.0312525 2.10515625,15.53125 C1.82130066,15.0312475 1.679375,14.4036496 1.679375,13.6484375 L3.1403125,13.6484375 C3.1403125,14.4557332 3.35124789,15.0351545 3.773125,15.3867188 C4.19500211,15.738283 4.70801781,15.9140625 5.3121875,15.9140625 C5.99969094,15.9140625 6.53614391,15.7486996 6.9215625,15.4179688 C7.30698109,15.0872379 7.4996875,14.6380237 7.4996875,14.0703125 C7.4996875,13.5911434 7.33172043,13.1848975 6.99578125,12.8515625 C6.65984207,12.5182275 6.09604563,12.2187513 5.304375,11.953125 C4.25749477,11.6354151 3.46453395,11.2109402 2.92546875,10.6796875 C2.38640355,10.1484348 2.116875,9.44271273 2.116875,8.5625 C2.116875,7.98958047 2.23015512,7.48437719 2.45671875,7.046875 C2.68328238,6.60937281 3.00619582,6.25781383 3.42546875,5.9921875 C3.84474168,5.72656117 4.34083047,5.55989617 4.91375,5.4921875 L4.91375,3.78125 L6.0934375,3.78125 L6.0934375,5.5 C6.97365023,5.61458391 7.65463301,5.9830698 8.13640625,6.60546875 C8.61817949,7.2278677 8.8590625,8.06509891 8.8590625,9.1171875 L7.4059375,9.1171875 C7.4059375,8.64843516 7.33171949,8.23307473 7.18328125,7.87109375 C7.03484301,7.50911277 6.8160952,7.22526145 6.52703125,7.01953125 C6.2379673,6.81380105 5.89031453,6.7109375 5.4840625,6.7109375 C4.85385102,6.7109375 4.37859535,6.87499836 4.05828125,7.203125 C3.73796715,7.53125164 3.5778125,7.97655969 3.5778125,8.5390625 C3.5778125,8.88281422 3.64552016,9.17838418 3.7809375,9.42578125 C3.91635484,9.67317832 4.14551922,9.89583234 4.4684375,10.09375 C4.79135578,10.2916677 5.23926797,10.4869782 5.8121875,10.6796875 C6.51531602,10.9088553 7.09603938,11.1679673 7.554375,11.4570312 C8.01271063,11.7460952 8.36166547,12.1015604 8.60125,12.5234375 C8.84083453,12.9453146 8.960625,13.4557262 8.960625,14.0546875 Z M14.054375,17 L14.054375,7.3515625 L11.148125,8.421875 L11.148125,7.1171875 L15.28875,5.5625 L15.5153125,5.5625 L15.5153125,17 L14.054375,17 Z M24.7965625,11.15625 C25.4944827,11.3802095 25.9957797,11.7330705 26.3004688,12.2148438 C26.6051578,12.696617 26.7575,13.234372 26.7575,13.828125 C26.7575,14.5208368 26.6012516,15.117185 26.28875,15.6171875 C25.9762484,16.11719 25.5478673,16.4986966 25.0035938,16.7617188 C24.4593202,17.0247409 23.8434409,17.15625 23.1559375,17.15625 C22.4840591,17.15625 21.8746902,17.0312513 21.3278125,16.78125 C20.7809348,16.5312487 20.3473454,16.1679711 20.0270313,15.6914062 C19.7067171,15.2148414 19.5465625,14.6484408 19.5465625,13.9921875 L21.0075,13.9921875 C21.0075,14.3880228 21.0947387,14.7369777 21.2692188,15.0390625 C21.4436988,15.3411473 21.6923942,15.5742179 22.0153125,15.7382812 C22.3382308,15.9023446 22.7184353,15.984375 23.1559375,15.984375 C23.8278159,15.984375 24.3525502,15.8046893 24.7301563,15.4453125 C25.1077623,15.0859357 25.2965625,14.5572952 25.2965625,13.859375 C25.2965625,13.1666632 25.084325,12.6471371 24.6598438,12.3007812 C24.2353625,11.9544254 23.6455246,11.78125 22.8903125,11.78125 L21.8590625,11.78125 L21.8590625,10.609375 L22.8903125,10.609375 C23.3746899,10.609375 23.7848421,10.5260425 24.1207813,10.359375 C24.4567204,10.1927075 24.70802,9.96093898 24.8746875,9.6640625 C25.041355,9.36718602 25.1246875,9.02864773 25.1246875,8.6484375 C25.1246875,7.99218422 24.9593246,7.49349129 24.6285938,7.15234375 C24.2978629,6.81119621 23.8043783,6.640625 23.148125,6.640625 C22.741873,6.640625 22.3851057,6.72135336 22.0778125,6.8828125 C21.7705193,7.04427164 21.5309384,7.27213395 21.3590625,7.56640625 C21.1871866,7.86067855 21.10125,8.20572719 21.10125,8.6015625 L19.6403125,8.6015625 C19.6403125,8.02343461 19.7874464,7.49479406 20.0817188,7.015625 C20.3759911,6.53645594 20.7887473,6.15885555 21.32,5.8828125 C21.8512527,5.60676945 22.4606216,5.46875 23.148125,5.46875 C23.8408368,5.46875 24.4449974,5.59114461 24.960625,5.8359375 C25.4762526,6.08073039 25.8759882,6.44400801 26.1598438,6.92578125 C26.4436993,7.40755449 26.585625,7.99218406 26.585625,8.6796875 C26.585625,8.97656398 26.5205215,9.28385258 26.3903125,9.6015625 C26.2601035,9.91927242 26.0608868,10.2161445 25.7926563,10.4921875 C25.5244257,10.7682305 25.1923978,10.9895825 24.7965625,11.15625 Z M35.8825,12.1484375 C35.8825,13.9296964 35.5765135,15.2096315 34.9645313,15.9882812 C34.352549,16.766931 33.4658391,17.15625 32.304375,17.15625 C31.1481192,17.15625 30.2575031,16.7656289 29.6325,15.984375 C29.0074969,15.2031211 28.695,13.924488 28.695,12.1484375 L28.695,10.40625 C28.695,8.63540781 29.0035907,7.36979547 29.6207813,6.609375 C30.2379718,5.84895453 31.1272859,5.46875 32.28875,5.46875 C33.4554225,5.46875 34.3460386,5.84895453 34.960625,6.609375 C35.5752114,7.36979547 35.8825,8.63540781 35.8825,10.40625 L35.8825,12.1484375 Z M34.4215625,10.1640625 C34.4215625,8.91405625 34.245783,8.01432566 33.8942188,7.46484375 C33.5426545,6.91536184 33.0075036,6.640625 32.28875,6.640625 C31.5804131,6.640625 31.0478664,6.91666391 30.6910938,7.46875 C30.3343211,8.02083609 30.1559375,8.91926461 30.1559375,10.1640625 L30.1559375,12.375 C30.1559375,13.6197979 30.3382273,14.5325492 30.7028125,15.1132812 C31.0673977,15.6940133 31.6012465,15.984375 32.304375,15.984375 C33.0179202,15.984375 33.5491649,15.6966175 33.898125,15.1210938 C34.2470851,14.54557 34.4215625,13.6302146 34.4215625,12.375 L34.4215625,10.1640625 Z M38.8121875,15.3671875 C39.0986473,15.3671875 39.3213013,15.4492179 39.4801563,15.6132812 C39.6390112,15.7773446 39.7184375,15.9869779 39.7184375,16.2421875 C39.7184375,16.4921888 39.6390112,16.6953117 39.4801563,16.8515625 C39.3213013,17.0078133 39.0986473,17.0859375 38.8121875,17.0859375 C38.5309361,17.0859375 38.3108862,17.0065112 38.1520313,16.8476562 C37.9931763,16.6888013 37.91375,16.4869804 37.91375,16.2421875 C37.91375,15.9869779 37.9931763,15.7773446 38.1520313,15.6132812 C38.3108862,15.4492179 38.5309361,15.3671875 38.8121875,15.3671875 Z M49.10125,12.1484375 C49.10125,13.9296964 48.7952635,15.2096315 48.1832813,15.9882812 C47.571299,16.766931 46.6845891,17.15625 45.523125,17.15625 C44.3668692,17.15625 43.4762531,16.7656289 42.85125,15.984375 C42.2262469,15.2031211 41.91375,13.924488 41.91375,12.1484375 L41.91375,10.40625 C41.91375,8.63540781 42.2223407,7.36979547 42.8395313,6.609375 C43.4567218,5.84895453 44.3460359,5.46875 45.5075,5.46875 C46.6741725,5.46875 47.5647886,5.84895453 48.179375,6.609375 C48.7939614,7.36979547 49.10125,8.63540781 49.10125,10.40625 L49.10125,12.1484375 Z M47.6403125,10.1640625 C47.6403125,8.91405625 47.464533,8.01432566 47.1129688,7.46484375 C46.7614045,6.91536184 46.2262536,6.640625 45.5075,6.640625 C44.7991631,6.640625 44.2666164,6.91666391 43.9098438,7.46875 C43.5530711,8.02083609 43.3746875,8.91926461 43.3746875,10.1640625 L43.3746875,12.375 C43.3746875,13.6197979 43.5569773,14.5325492 43.9215625,15.1132812 C44.2861477,15.6940133 44.8199965,15.984375 45.523125,15.984375 C46.2366702,15.984375 46.7679149,15.6966175 47.116875,15.1210938 C47.4658351,14.54557 47.6403125,13.6302146 47.6403125,12.375 L47.6403125,10.1640625 Z M58.0934375,12.1484375 C58.0934375,13.9296964 57.787451,15.2096315 57.1754688,15.9882812 C56.5634865,16.766931 55.6767766,17.15625 54.5153125,17.15625 C53.3590567,17.15625 52.4684406,16.7656289 51.8434375,15.984375 C51.2184344,15.2031211 50.9059375,13.924488 50.9059375,12.1484375 L50.9059375,10.40625 C50.9059375,8.63540781 51.2145282,7.36979547 51.8317188,6.609375 C52.4489093,5.84895453 53.3382234,5.46875 54.4996875,5.46875 C55.66636,5.46875 56.5569761,5.84895453 57.1715625,6.609375 C57.7861489,7.36979547 58.0934375,8.63540781 58.0934375,10.40625 L58.0934375,12.1484375 Z M56.6325,10.1640625 C56.6325,8.91405625 56.4567205,8.01432566 56.1051563,7.46484375 C55.753592,6.91536184 55.2184411,6.640625 54.4996875,6.640625 C53.7913506,6.640625 53.2588039,6.91666391 52.9020313,7.46875 C52.5452586,8.02083609 52.366875,8.91926461 52.366875,10.1640625 L52.366875,12.375 C52.366875,13.6197979 52.5491648,14.5325492 52.91375,15.1132812 C53.2783352,15.6940133 53.812184,15.984375 54.5153125,15.984375 C55.2288577,15.984375 55.7601024,15.6966175 56.1090625,15.1210938 C56.4580226,14.54557 56.6325,13.6302146 56.6325,12.375 L56.6325,10.1640625 Z"/>
    <path id="checkout-b" d="M9.8095625,15.6337891 C9.8095625,16.647466 9.50341322,17.4575165 8.89110547,18.0639648 C8.27879772,18.6704132 7.43652099,19.032226 6.36425,19.1494141 L6.36425,20.8632812 L4.96678906,20.8632812 L4.96678906,19.1494141 C4.29881697,19.0791012 3.69237772,18.8945327 3.14745312,18.5957031 C2.60252853,18.2968735 2.16454462,17.8559599 1.83348828,17.2729492 C1.50243194,16.6899385 1.33690625,15.9619184 1.33690625,15.0888672 L3.52538281,15.0888672 C3.52538281,15.9091838 3.72752923,16.4965803 4.13182812,16.8510742 C4.53612702,17.2055682 5.03416892,17.3828125 5.62596875,17.3828125 C6.26464382,17.3828125 6.75829123,17.2275406 7.10692578,16.9169922 C7.45556034,16.6064438 7.629875,16.184573 7.629875,15.6513672 C7.629875,15.1533178 7.47167346,14.7417008 7.15526562,14.4165039 C6.83885779,14.091307 6.30273034,13.7968763 5.54686719,13.5332031 C4.72655059,13.2519517 4.04979954,12.9443376 3.51659375,12.6103516 C2.98338796,12.2763655 2.56884132,11.8632837 2.27294141,11.3710938 C1.97704149,10.8789038 1.82909375,10.2783239 1.82909375,9.56933594 C1.82909375,8.91894206 1.96532286,8.34179939 2.23778516,7.83789062 C2.51024746,7.33398186 2.89549751,6.92968902 3.39354687,6.625 C3.89159624,6.32031098 4.47459822,6.12988319 5.14257031,6.05371094 L5.14257031,4.13769531 L6.54882031,4.13769531 L6.54882031,6.07128906 C7.55663785,6.21191477 8.34471591,6.63671521 8.91307812,7.34570312 C9.48144034,8.05469104 9.76561719,8.99511133 9.76561719,10.1669922 L7.57714062,10.1669922 C7.57714062,9.43456665 7.41747425,8.86035364 7.09813672,8.44433594 C6.77879918,8.02831823 6.33495597,7.8203125 5.76659375,7.8203125 C5.18065332,7.8203125 4.74120459,7.97704921 4.44823437,8.29052734 C4.15526416,8.60400547 4.00878125,9.02734108 4.00878125,9.56054688 C4.00878125,9.89453292 4.07469856,10.1801746 4.20653516,10.4174805 C4.33837175,10.6547863 4.55663129,10.871581 4.86132031,11.0678711 C5.16600934,11.2641611 5.58788012,11.4619131 6.12694531,11.6611328 C6.95312132,11.9599624 7.62987236,12.2763655 8.15721875,12.6103516 C8.68456514,12.9443376 9.09178763,13.3559546 9.37889844,13.8452148 C9.66600925,14.3344751 9.8095625,14.9306605 9.8095625,15.6337891 Z M15.3027266,19 L15.3027266,8.78710938 L12.1826094,9.83300781 L12.1826094,8.00488281 L17.2187422,6.15917969 L17.4912031,6.15917969 L17.4912031,19 L15.3027266,19 Z M28.0292891,12.4257812 C28.7617146,12.6777356 29.3037014,13.0673802 29.6552656,13.5947266 C30.0068299,14.1220729 30.1826094,14.7285122 30.1826094,15.4140625 C30.1826094,16.1933633 29.9951112,16.8671847 29.6201094,17.4355469 C29.2451075,18.0039091 28.7294877,18.4360337 28.0732344,18.7319336 C27.4169811,19.0278335 26.6757776,19.1757812 25.8496016,19.1757812 C25.0937384,19.1757812 24.3950149,19.0366225 23.7534102,18.7583008 C23.1118054,18.4799791 22.5991152,18.0683621 22.2153242,17.5234375 C21.8315332,16.9785129 21.6396406,16.3222695 21.6396406,15.5546875 L23.8281172,15.5546875 C23.8281172,15.9179706 23.9130773,16.2416978 24.083,16.5258789 C24.2529227,16.81006 24.4931547,17.0297844 24.8037031,17.1850586 C25.1142516,17.3403328 25.4745995,17.4179688 25.8847578,17.4179688 C26.5468705,17.4179688 27.0639552,17.2421893 27.4360273,16.890625 C27.8080995,16.5390607 27.9941328,16.0439485 27.9941328,15.4052734 C27.9941328,14.7021449 27.7905216,14.1806658 27.383293,13.8408203 C26.9760644,13.5009749 26.4033162,13.3310547 25.6650312,13.3310547 L24.3906172,13.3310547 L24.3906172,11.6083984 L25.6650312,11.6083984 C26.3623004,11.6083984 26.8925685,11.4326189 27.2558516,11.0810547 C27.6191346,10.7294904 27.8007734,10.2578155 27.8007734,9.66601562 C27.8007734,9.06835639 27.6396422,8.60547039 27.317375,8.27734375 C26.9951078,7.94921711 26.5175735,7.78515625 25.8847578,7.78515625 C25.5156153,7.78515625 25.184564,7.85693288 24.8915937,8.00048828 C24.5986235,8.14404369 24.3686454,8.34765493 24.2016523,8.61132812 C24.0346593,8.87500132 23.9511641,9.18261543 23.9511641,9.53417969 L21.7626875,9.53417969 C21.7626875,8.8662076 21.938467,8.26562767 22.2900312,7.73242188 C22.6415955,7.19921608 23.1293836,6.78173979 23.7534102,6.47998047 C24.3774367,6.17822115 25.0761602,6.02734375 25.8496016,6.02734375 C26.681637,6.02734375 27.4081922,6.16503769 28.0292891,6.44042969 C28.6503859,6.71582169 29.1323147,7.12597384 29.4750898,7.67089844 C29.817865,8.21582304 29.98925,8.88085545 29.98925,9.66601562 C29.98925,10.2050808 29.8193298,10.7294896 29.4794844,11.2392578 C29.1396389,11.749026 28.6562453,12.1445298 28.0292891,12.4257812 Z M33.3994062,6.203125 L40.3076094,6.203125 L40.3076094,8.07519531 L35.2099531,8.07519531 L34.8671797,11.0986328 C35.1132747,10.9638665 35.4077053,10.8466802 35.7504805,10.7470703 C36.0932556,10.6474604 36.4638574,10.5976562 36.8622969,10.5976562 C37.6650353,10.5976562 38.3549698,10.7705061 38.9321211,11.1162109 C39.5092724,11.4619158 39.9516508,11.9584929 40.2592695,12.605957 C40.5668883,13.2534212 40.7206953,14.0195268 40.7206953,14.9042969 C40.7206953,15.7128947 40.5639586,16.4394499 40.2504805,17.0839844 C39.9370023,17.7285188 39.4638625,18.2382794 38.8310469,18.6132812 C38.1982312,18.9882831 37.4218718,19.1757812 36.5019453,19.1757812 C35.7695198,19.1757812 35.0927687,19.0336928 34.4716719,18.7495117 C33.850575,18.4653306 33.3466738,18.0493191 32.9599531,17.5014648 C32.5732324,16.9536105 32.3564377,16.2959023 32.3095625,15.5283203 L34.4365156,15.5283203 C34.5126879,16.131839 34.7294826,16.5976546 35.0869062,16.9257812 C35.4443299,17.2539079 35.9130752,17.4179688 36.4931562,17.4179688 C37.1611283,17.4179688 37.669424,17.1835961 38.0180586,16.7148438 C38.3666931,16.2460914 38.5410078,15.6191446 38.5410078,14.8339844 C38.5410078,14.0839806 38.3461855,13.4819359 37.9565352,13.027832 C37.5668848,12.5737282 37.0117145,12.3466797 36.2910078,12.3466797 C35.9804594,12.3466797 35.7153253,12.3774411 35.4955977,12.4389648 C35.27587,12.5004886 35.0913015,12.582519 34.9418867,12.6850586 C34.7924719,12.7875982 34.6269462,12.9238273 34.4453047,13.09375 L32.6962812,12.6542969 L33.3994062,6.203125 Z M43.9023359,16.6972656 C44.2890566,16.6972656 44.5966707,16.8115223 44.8251875,17.0400391 C45.0537043,17.2685558 45.1679609,17.558592 45.1679609,17.9101562 C45.1679609,18.2558611 45.0537043,18.5415028 44.8251875,18.7670898 C44.5966707,18.9926769 44.2890566,19.1054688 43.9023359,19.1054688 C43.5097558,19.1054688 43.1992121,18.9926769 42.9706953,18.7670898 C42.7421785,18.5415028 42.6279219,18.2558611 42.6279219,17.9101562 C42.6279219,17.558592 42.7421785,17.2685558 42.9706953,17.0400391 C43.1992121,16.8115223 43.5097558,16.6972656 43.9023359,16.6972656 Z M55.8290937,13.6210938 C55.8290937,17.3242373 54.4316468,19.1757812 51.6367109,19.1757812 C50.3066262,19.1757812 49.270992,18.7334029 48.5297773,17.8486328 C47.7885627,16.9638628 47.4179609,15.5546972 47.4179609,13.6210938 L47.4179609,11.5292969 C47.4179609,9.60155286 47.7841682,8.20264107 48.5165937,7.33251953 C49.2490193,6.46239799 50.2831886,6.02734375 51.6191328,6.02734375 C52.955077,6.02734375 53.9907112,6.46239799 54.7260664,7.33251953 C55.4614216,8.20264107 55.8290937,9.60155286 55.8290937,11.5292969 L55.8290937,13.6210938 Z M53.6406172,11.2041016 C53.6406172,9.97362666 53.4736267,9.09619403 53.1396406,8.57177734 C52.8056546,8.04736066 52.2988237,7.78515625 51.6191328,7.78515625 C50.9511607,7.78515625 50.4487243,8.04736066 50.1118086,8.57177734 C49.7748928,9.09619403 49.6064375,9.97362666 49.6064375,11.2041016 L49.6064375,13.9287109 C49.6064375,15.1591858 49.7778225,16.0483371 50.1205977,16.5961914 C50.4633728,17.1440457 50.9687388,17.4179688 51.6367109,17.4179688 C52.3105424,17.4179688 52.8129788,17.1469754 53.1440352,16.6049805 C53.4750915,16.0629856 53.6406172,15.1709046 53.6406172,13.9287109 L53.6406172,11.2041016 Z M66.0771406,13.6210938 C66.0771406,17.3242373 64.6796937,19.1757812 61.8847578,19.1757812 C60.554673,19.1757812 59.5190389,18.7334029 58.7778242,17.8486328 C58.0366096,16.9638628 57.6660078,15.5546972 57.6660078,13.6210938 L57.6660078,11.5292969 C57.6660078,9.60155286 58.0322151,8.20264107 58.7646406,7.33251953 C59.4970662,6.46239799 60.5312355,6.02734375 61.8671797,6.02734375 C63.2031239,6.02734375 64.238758,6.46239799 64.9741133,7.33251953 C65.7094685,8.20264107 66.0771406,9.60155286 66.0771406,11.5292969 L66.0771406,13.6210938 Z M63.8886641,11.2041016 C63.8886641,9.97362666 63.7216735,9.09619403 63.3876875,8.57177734 C63.0537015,8.04736066 62.5468706,7.78515625 61.8671797,7.78515625 C61.1992076,7.78515625 60.6967712,8.04736066 60.3598555,8.57177734 C60.0229397,9.09619403 59.8544844,9.97362666 59.8544844,11.2041016 L59.8544844,13.9287109 C59.8544844,15.1591858 60.0258694,16.0483371 60.3686445,16.5961914 C60.7114197,17.1440457 61.2167857,17.4179688 61.8847578,17.4179688 C62.5585893,17.4179688 63.0610257,17.1469754 63.392082,16.6049805 C63.7231384,16.0629856 63.8886641,15.1709046 63.8886641,13.9287109 L63.8886641,11.2041016 Z"/>
  </defs>
  <g fill="none" fill-rule="evenodd">
    <path fill="#FFF" stroke="#000" stroke-opacity=".17" stroke-width=".5" d="M7.5,0.25 L418.5,0.25 C422.504064,0.25 425.75,3.49593556 425.75,7.5 L425.75,518.5 C425.75,522.504064 422.504064,525.75 418.5,525.75 L7.5,525.75 C3.49593556,525.75 0.25,522.504064 0.25,518.5 L0.25,7.5 C0.25,3.49593556 3.49593556,0.25 7.5,0.25 Z"/>
    <path stroke="#979797" stroke-linecap="square" stroke-opacity=".2" d="M4.5,60.5 L424.165,60.5"/>
    <g transform="translate(43.5 91.5)">
      <path fill="#000" fill-rule="nonzero" d="M15.028 10.565C15.0660443 12.1542286 14.7511501 13.7321145 14.106 15.185 13.5536193 16.4197249 12.651871 17.465739 11.512 18.194 10.3494539 18.9071899 9.00659449 19.2716258 7.643 19.244 6.28325266 19.2685091 4.94478002 18.904228 3.785 18.194 2.63624321 17.4649809 1.72449862 16.4173781 1.161 15.179.505143612 13.7311073.183858435 12.1540756.221 10.565L.221 9.674C.18395625 8.08555757.503098528 6.50898105 1.155 5.06 1.71471412 3.82102014 2.62210825 2.77119431 3.767 2.038 4.92273344 1.32374291 6.25959441.957156263 7.618.982 8.98374193.954826589 10.3287211 1.31917852 11.494 2.032 12.6384712 2.76093068 13.5444201 3.80906413 14.1 5.047 14.7486121 6.50143762 15.0655996 8.08193444 15.028 9.674L15.028 10.565zM11.854 9.649C11.9553345 8.07122169 11.5696081 6.50039018 10.749 5.149 10.0408747 4.12891802 8.85851161 3.54396739 7.618 3.6 6.80926302 3.58175562 6.01659837 3.82748868 5.36 4.3 4.68135956 4.82269539 4.17321618 5.53514026 3.9 6.347 3.5378548 7.40850611 3.36654331 8.52575493 3.394 9.647L3.394 10.563C3.36630673 11.6873586 3.53969706 12.8076227 3.906 13.871 4.1814213 14.6915306 4.69361339 15.4121487 5.378 15.942 6.03675374 16.4155053 6.83195583 16.6612631 7.643 16.642 8.88290116 16.6973595 10.0629253 16.1062121 10.761 15.08 11.5734185 13.7193789 11.9544939 12.1445229 11.854 10.563L11.854 9.649zM23.707 5.548C23.9012887 5.54976179 24.0951695 5.56614136 24.287 5.597 24.451025 5.61697636 24.6125484 5.65383856 24.769 5.707L24.745 8.575C24.34528 8.50973609 23.9410109 8.47629779 23.536 8.475 22.3925784 8.35018861 21.2952045 8.96184621 20.8 10L20.8 19 17.76 19 17.76 5.792 20.653 5.792 20.739 7.281C21.0430538 6.75799178 21.4713581 6.31800954 21.986 6 22.5063042 5.69182257 23.1024113 5.5352622 23.707 5.548L23.707 5.548zM37.66.25L37.66 19 34.913 19 34.767 17.621C33.9148535 18.6907796 32.6058149 19.2929819 31.239 19.244 30.2557932 19.262036 29.2937438 18.9575099 28.5 18.377 27.6864799 17.7625145 27.0592503 16.934516 26.688 15.985 26.2497922 14.8908898 26.033925 13.7204479 26.053 12.542L26.053 12.286C26.0293267 11.0802257 26.2426981 9.88154063 26.681 8.758 27.0457561 7.81281403 27.6726275 6.99132459 28.488 6.39 29.300212 5.82041963 30.2732343 5.52539451 31.265 5.548 32.5446412 5.5035948 33.7764736 6.0367157 34.62 7L34.62.25 37.66.25zM32.008 16.75C33.1204234 16.8059763 34.1548579 16.1790583 34.62 15.167L34.62 9.576C34.1533217 8.58065242 33.1297697 7.96762858 32.032 8.026 31.130676 7.97687782 30.2768737 8.43326697 29.817 9.21 29.2949166 10.148391 29.0432604 11.21317 29.09 12.286L29.09 12.542C29.041618 13.6033458 29.2873181 14.657434 29.8 15.588 30.2599588 16.3590777 31.1118389 16.8089383 32.008 16.754L32.008 16.75zM51.893 13.348L43.287 13.348C43.3302289 13.9772419 43.5093413 14.5896359 43.812 15.143 44.0911063 15.6490837 44.5015118 16.0705439 45 16.363 45.5337721 16.6646349 46.1390481 16.8166448 46.752 16.803 48.0497354 16.8390838 49.2827388 16.2367803 50.052 15.191L51.675 16.766C51.1587511 17.5068079 50.4730708 18.113635 49.675 18.536 48.7188333 19.0321776 47.6517686 19.2758814 46.575 19.244 45.3954671 19.2722983 44.2299464 18.9835945 43.2 18.408 42.2596161 17.872014 41.4926405 17.0776216 40.99 16.119 40.4680868 15.1129818 40.2038641 13.9932133 40.221 12.86L40.221 12.36C40.193838 11.1208847 40.4608036 9.89298015 41 8.777 41.4776693 7.79511593 42.2224955 6.96780081 43.149 6.39 44.0744106 5.82486567 45.1407788 5.53296646 46.225 5.548 47.3279928 5.50954773 48.4182305 5.79383667 49.362 6.366 50.2145278 6.91672819 50.8776705 7.71564065 51.262 8.655 51.7011549 9.73747989 51.9151737 10.8980807 51.891 12.066L51.893 13.348zM48.893 10.919C48.8842431 10.161305 48.6395654 9.42517459 48.193 8.813 47.7059604 8.23487899 46.9694584 7.92791001 46.216 7.989 45.4809864 7.96196015 44.7727388 8.26670118 44.287 8.819 43.7508448 9.48679757 43.4238364 10.2980568 43.347 11.151L48.89 11.151 48.893 10.919zM60.1 5.548C60.2942889 5.54975801 60.4881699 5.56613761 60.68 5.597 60.844025 5.61697636 61.0055484 5.65383856 61.162 5.707L61.138 8.575C60.73828 8.50973609 60.3340109 8.47629779 59.929 8.475 58.7848847 8.34929475 57.6864547 8.96109377 57.191 10L57.191 19 54.151 19 54.151 5.792 57.044 5.792 57.13 7.281C57.4341481 6.75872563 57.8616053 6.31890827 58.375 6 58.8964652 5.69109926 59.4940596 5.5345122 60.1 5.548zM75.025 11.358C73.4559133 10.9334691 71.984295 10.2080187 70.692 9.222 69.6944833 8.41827729 69.129953 7.19451173 69.166 5.914 69.1540641 5.00015027 69.4343525 4.10638059 69.966 3.363 70.5368912 2.58368118 71.3121086 1.97735045 72.206 1.611 73.2489534 1.17551441 74.3709681.961327076 75.501.982 76.6754967.956117002 77.8397897 1.20507025 78.901 1.709 79.8162622 2.14235389 80.5921338 2.82297335 81.141 3.674 81.6598906 4.4933781 81.9310907 5.44518288 81.922 6.415L78.773 6.415C78.8099527 5.62018181 78.5057883 4.84740036 77.937 4.291 77.2469992 3.71604294 76.3607517 3.43138253 75.465 3.497 74.6319343 3.43895637 73.804815 3.67421483 73.127 4.162 72.6032344 4.58523892 72.3073017 5.2288926 72.327 5.902 72.3365853 6.55629048 72.6748645 7.1618102 73.227 7.513 74.1012575 8.07390453 75.0622058 8.48646354 76.071 8.734 77.2291272 9.05068149 78.3436008 9.50950337 79.389 10.1 80.1703537 10.5387015 80.8309923 11.1639549 81.312 11.92 81.7467422 12.6634506 81.9665703 13.5129909 81.947 14.374 81.9677026 15.2973504 81.694185 16.2033556 81.166 16.961 80.6043273 17.7250674 79.8352356 18.311951 78.95 18.652 77.8829436 19.06705 76.7446791 19.2682001 75.6 19.244 74.4397905 19.2488822 73.2895018 19.0302323 72.212 18.6 71.1873099 18.2065371 70.2886771 17.5422401 69.612 16.678 68.9360775 15.7925414 68.5832278 14.7025889 68.612 13.589L71.773 13.589C71.7051291 14.5048942 72.0962906 15.3947491 72.817 15.964 73.6343667 16.5161333 74.6088453 16.788089 75.594 16.739 76.4279515 16.7937499 77.2565195 16.5704304 77.95 16.104 78.485494 15.7039461 78.7925754 15.068142 78.773 14.4 78.7879532 13.9705385 78.682294 13.5454767 78.468 13.173 78.1854102 12.7757006 77.8047084 12.4583917 77.363 12.252 76.6131344 11.8820091 75.830416 11.5827147 75.025 11.358L75.025 11.358zM95.289 5.792L95.289 19 92.42 19 92.347 17.694C91.420555 18.7561946 90.0539051 19.3287102 88.647 19.244 87.4562693 19.3104985 86.2921061 18.8752973 85.437 18.044 84.5804312 17.0013209 84.1642789 15.6656872 84.277 14.321L84.277 5.788 87.317 5.788 87.317 14.345C87.250633 15.0144125 87.4552047 15.6825121 87.885 16.2 88.2887604 16.5813238 88.8302455 16.7820344 89.385 16.756 90.5539314 16.8858281 91.684418 16.2920851 92.241 15.256L92.241 5.796 95.289 5.792zM112.672 5.548C113.860646 5.46762473 115.027502 5.89583525 115.882 6.726 116.711714 7.78318883 117.108835 9.11609874 116.993 10.455L116.993 19 113.954 19 113.954 10.443C114.028392 9.76130946 113.818589 9.07908867 113.374 8.557 112.881268 8.16776292 112.260104 7.97820082 111.634 8.026 111.059494 8.00650212 110.496165 8.18791311 110.041 8.539 109.604101 8.89488676 109.28684 9.37618784 109.132 9.918L109.144 10.199 109.144 19 106.1 19 106.1 10.479C106.168613 9.79402401 105.954805 9.1107037 105.508 8.587 105.023083 8.18144353 104.3995 7.98027621 103.769 8.026 102.729456 7.95376313 101.749729 8.51835193 101.291 9.454L101.291 19 98.251 19 98.251 5.792 101.108 5.792 101.208 7.184C101.650551 6.65891512 102.208375 6.24311372 102.838 5.969 103.527018 5.67821672 104.269253 5.53481106 105.017 5.548 105.771029 5.53054544 106.517626 5.70027345 107.19 6.042 107.817399 6.38149512 108.318287 6.91465301 108.618 7.562 109.055354 6.93652269 109.638953 6.42741801 110.318 6.079 111.048253 5.71444468 111.85596 5.53224731 112.672 5.548zM134.413 5.548C135.601646 5.46762473 136.768502 5.89583525 137.623 6.726 138.452714 7.78318883 138.849835 9.11609874 138.734 10.455L138.734 19 135.694 19 135.694 10.443C135.768666 9.76145128 135.559231 9.07924785 135.115 8.557 134.622268 8.16776292 134.001104 7.97820082 133.375 8.026 132.800447 8.00616481 132.237007 8.18761172 131.782 8.539 131.345149 8.89493034 131.027899 9.37621497 130.873 9.918L130.885 10.199 130.885 19 127.845 19 127.845 10.479C127.913613 9.79402401 127.699805 9.1107037 127.253 8.587 126.767979 8.18163065 126.144474 7.9804884 125.514 8.026 124.474456 7.95376313 123.494729 8.51835193 123.036 9.454L123.036 19 120 19 120 5.792 122.857 5.792 122.957 7.184C123.399576 6.65894152 123.957393 6.24314509 124.587 5.969 125.276018 5.67821672 126.018253 5.53481106 126.766 5.548 127.520029 5.53054544 128.266626 5.70027345 128.939 6.042 129.566399 6.38149512 130.067287 6.91465301 130.367 7.562 130.804111 6.93630449 131.38777 6.42714768 132.067 6.079 132.794804 5.71559222 133.599642 5.53342308 134.413 5.548L134.413 5.548zM152.2 15.924C152.158112 16.9048567 152.328671 17.8831826 152.7 18.792L152.7 19 149.6 19C149.438174 18.6037888 149.323389 18.1899603 149.258 17.767 148.837093 18.2194008 148.331109 18.5843624 147.769 18.841 147.151386 19.1172167 146.480446 19.2537949 145.804 19.241 145.001124 19.254439 144.206358 19.0786998 143.484 18.728 142.8299 18.4131678 142.276012 17.9229766 141.884 17.312 141.500828 16.7064078 141.301767 16.0025734 141.311 15.286 141.246018 14.0104691 141.837476 12.7902089 142.879 12.051 144.210282 11.2249514 145.765172 10.83256 147.329 10.928L149.16 10.928 149.16 10.074C149.195059 9.47205384 148.988444 8.88100642 148.586 8.432 148.125891 8.00755279 147.510229 7.79315741 146.886 7.84 146.47928 7.83173365 146.075523 7.91084828 145.702 8.072 145.384577 8.20669626 145.110261 8.42601071 144.909 8.706 144.723543 8.96924353 144.625269 9.28399977 144.628 9.606L141.588 9.606C141.591531 8.88351518 141.829449 8.18169112 142.266 7.606 142.766216 6.94537383 143.431501 6.42804436 144.195 6.106 145.097344 5.71408657 146.073391 5.52071884 147.057 5.539 147.974091 5.5209487 148.88475 5.69572147 149.73 6.052 150.475977 6.36950163 151.108128 6.905767 151.543 7.59 151.997364 8.3428549 152.224153 9.21111164 152.196 10.09L152.2 15.924zM146.39 16.815C146.984545 16.8255644 147.570109 16.6689522 148.08 16.363 148.531183 16.1044655 148.90455 15.7293712 149.161 15.277L149.161 12.811 147.574 12.811C146.734444 12.7561995 145.897912 12.95627 145.174 13.385 144.63666 13.7430554 144.324174 14.3547703 144.349 15 144.3312 15.4941718 144.526825 15.9721235 144.886 16.312 145.301815 16.6692989 145.84087 16.8498213 146.388 16.815L146.39 16.815zM161.2 5.548C161.394289 5.54975801 161.58817 5.56613761 161.78 5.597 161.94401 5.61706032 162.105525 5.65392057 162.262 5.707L162.237 8.575C161.837621 8.50969678 161.433681 8.47625804 161.029 8.475 159.884475 8.3485362 158.785348 8.96049994 158.29 10L158.29 19 155.25 19 155.25 5.792 158.143 5.792 158.229 7.281C158.532459 6.75820301 158.960063 6.31823437 159.474 6 159.995755 5.69091815 160.593722 5.53432441 161.2 5.548L161.2 5.548zM174.647 5.792L169.386 21C169.075051 21.8740095 168.586456 22.6741468 167.951 23.35 167.240888 24.0397853 166.271873 24.3965805 165.284 24.332 164.792863 24.3186748 164.305218 24.245125 163.832 24.113L163.832 21.783 164.393 21.808C164.970142 21.8444449 165.545279 21.710571 166.047 21.423 166.485583 21.0830454 166.801515 20.6094981 166.947 20.074L167.362 18.951 162.724 5.792 166 5.792 168.747 14.654 171.408 5.792 174.647 5.792z" transform="translate(1)"/>
      <g fill="#000" fill-rule="nonzero" transform="translate(1 261)">
        <path d="M5.2 1.2C6.06583087 1.17813508 6.92495635 1.35714808 7.71 1.723 8.37798962 2.03766087 8.93861093 2.54194183 9.322 3.173 9.69761029 3.81329044 9.88930847 4.54478856 9.876 5.287 9.8961314 6.03630564 9.70594497 6.77626595 9.327 7.423 8.94599768 8.03545918 8.38608856 8.51612929 7.723 8.8 6.92482334 9.13382882 6.06485926 9.29436908 5.2 9.271L2.56 9.271 2.56 14 .283 14 .283 1.2 5.2 1.2zM5.2 7.44C5.85124201 7.49378936 6.49758119 7.28983344 7 6.872 7.4043626 6.45492567 7.61639193 5.88806436 7.585 5.308 7.58938253 4.91659117 7.50205134 4.52959411 7.33 4.178 7.15476386 3.82983369 6.8792578 3.54213709 6.539 3.352 6.12805642 3.13156392 5.66605569 3.02391327 5.2 3.04L2.56 3.04 2.56 7.44 5.2 7.44zM19.03 11.785C18.9998138 12.4916498 19.1229678 13.196459 19.391 13.851L19.391 14 17.158 14C17.0410634 13.7148069 16.9584827 13.4167107 16.912 13.112 16.6087595 13.4376649 16.2445402 13.7006366 15.84 13.886 15.3952717 14.0851535 14.9122155 14.1841545 14.425 14.176 13.8470944 14.1857072 13.2750127 14.0593011 12.755 13.807 12.2828312 13.5807311 11.8829213 13.2275639 11.6 12.787 11.3232915 12.3511684 11.1794393 11.844211 11.186 11.328 11.1408645 10.4091043 11.568643 9.53091354 12.32 9 13.2772203 8.40562008 14.3953099 8.12295304 15.52 8.191L16.839 8.191 16.839 7.576C16.8644061 7.14269806 16.7157306 6.71719073 16.426 6.394 16.0949664 6.08935184 15.6526823 5.93516768 15.204 5.968 14.9109849 5.9618998 14.6200816 6.01885273 14.351 6.135 14.1223232 6.23202735 13.924772 6.3901375 13.78 6.592 13.6468443 6.78234436 13.576881 7.00972495 13.58 7.242L11.393 7.242C11.3945843 6.7212268 11.5655164 6.21509915 11.88 5.8 12.240561 5.32445934 12.7194769 4.95173934 13.269 4.719 13.9188056 4.43671773 14.6216443 4.29724126 15.33 4.31 15.9905272 4.29681478 16.6464269 4.42288381 17.255 4.68 17.7923297 4.90986234 18.2473427 5.29723359 18.56 5.791 18.886997 6.33311019 19.050222 6.95822707 19.03 7.591L19.03 11.785zM14.847 12.427C15.2752449 12.433798 15.6968339 12.3205198 16.064 12.1 16.3885141 11.913044 16.6571267 11.6427051 16.842 11.317L16.842 9.544 15.7 9.544C15.0945675 9.50411585 14.4912091 9.64807138 13.969 9.957 13.5846482 10.2152365 13.3617024 10.6543148 13.38 11.117 13.3671564 11.472986 13.5081522 11.8172781 13.767 12.062 14.0656405 12.3198265 14.45318 12.4508005 14.847 12.427zM28.83 4.49L25.042 15.441C24.8189404 16.0706342 24.4671301 16.6468811 24.009 17.133 23.4978719 17.6298227 22.8003117 17.887048 22.089 17.841 21.735195 17.8311827 21.3839195 17.778122 21.043 17.683L21.043 16 21.443 16.017C21.8584552 16.0435351 22.2725642 15.9475703 22.634 15.741 22.9488365 15.4954363 23.1755153 15.1543654 23.28 14.769L23.58 13.961 20.243 4.49 22.607 4.49 24.585 10.871 26.5 4.49 28.83 4.49zM40.4 4.314C41.2562226 4.25612008 42.0967139 4.56476072 42.712 5.163 43.3095428 5.92414875 43.5955112 6.88393012 43.512 7.848L43.512 14 41.328 14 41.328 7.839C41.3818992 7.34822711 41.2310422 6.856947 40.911 6.481 40.5559904 6.20117208 40.1086903 6.06516145 39.658 6.1 39.2443845 6.0858394 38.8387732 6.21632813 38.511 6.469 38.1966238 6.72556106 37.9680982 7.07201287 37.856 7.462L37.865 7.662 37.865 14 35.677 14 35.677 7.865C35.7273743 7.37074688 35.5730566 6.87743627 35.25 6.5 34.9009502 6.20964994 34.4527677 6.06623154 34 6.1 33.2515165 6.04757061 32.5459667 6.45413183 32.216 7.128L32.216 14 30.025 14 30.025 4.49 32.082 4.49 32.152 5.49C32.4708087 5.11214859 32.8725847 4.81304111 33.326 4.616 33.8224116 4.40786094 34.356818 4.30567999 34.895 4.316 35.4377534 4.30348433 35.975135 4.42580392 36.459 4.672 36.9116705 4.91776547 37.2723934 5.30375297 37.487 5.772 37.8011822 5.32068614 38.2206164 4.95273733 38.709 4.7 39.2332613 4.43676704 39.8134439 4.30433032 40.4 4.314L40.4 4.314zM53.721 9.931L47.521 9.931C47.5524881 10.3839938 47.68179 10.8247799 47.9 11.223 48.1012768 11.5878447 48.3973732 11.8915421 48.757 12.102 49.1417424 12.318536 49.5776148 12.4276768 50.019 12.418 50.9521003 12.4426541 51.838288 12.0094566 52.392 11.258L53.561 12.392C53.1887653 12.9248014 52.6951951 13.361474 52.121 13.666 51.4326171 14.0234266 50.6643042 14.1989819 49.889 14.176 49.0412633 14.1962264 48.2035785 13.9890496 47.463 13.576 46.7862443 13.1897782 46.2341709 12.6179259 45.872 11.928 45.4962859 11.2034443 45.3059483 10.3970863 45.318 9.581L45.318 9.221C45.2988928 8.32856839 45.4918461 7.44434206 45.881 6.641 46.2246709 5.93413088 46.7608983 5.3386308 47.428 4.923 48.094269 4.5157211 48.8621828 4.30528152 49.643 4.316 50.4360576 4.28758606 51.2202536 4.49049722 51.9 4.9 52.513162 5.29696564 52.9901813 5.87204083 53.267 6.548 53.5831612 7.32777541 53.7372901 8.16374577 53.72 9.005L53.721 9.931zM51.559 8.182C51.5532913 7.6370907 51.3785871 7.10738741 51.059 6.666 50.7082952 6.24940512 50.1777882 6.02811217 49.635 6.072 49.1053237 6.05291075 48.5951927 6.27326971 48.246 6.672 47.8601337 7.15291427 47.6246467 7.73693583 47.569 8.351L51.56 8.351 51.559 8.182zM60.207 4.314C61.0384225 4.26160077 61.8525571 4.56731069 62.444 5.154 63.036712 5.92711764 63.3172546 6.89473968 63.23 7.865L63.23 14 61.042 14 61.042 7.848C61.0904355 7.36214749 60.9432433 6.87702489 60.633 6.5 60.2847521 6.20676692 59.8347544 6.06299768 59.381 6.1 58.9933349 6.09391472 58.6118989 6.19794271 58.281 6.4 57.9539874 6.60503091 57.6872422 6.89317087 57.508 7.235L57.508 14 55.32 14 55.32 4.49 57.377 4.49 57.447 5.59C57.7758599 5.18854312 58.1902973 4.86567142 58.66 4.645 59.144745 4.42132545 59.6731694 4.30826244 60.207 4.314zM69.075 12.365C69.3264807 12.3632614 69.5769998 12.3337491 69.822 12.277L69.822 13.965C69.3623499 14.1109954 68.8822385 14.1822356 68.4 14.176 67.7289397 14.2135711 67.0705087 13.9825805 66.57 13.534 66.0758213 12.9717817 65.8336682 12.2315884 65.9 11.486L65.9 6.107 64.355 6.107 64.355 4.49 65.9 4.49 65.9 2.17 68.089 2.17 68.089 4.49 69.759 4.49 69.759 6.107 68.089 6.107 68.089 11.337C68.0538402 11.6304648 68.1430396 11.9252579 68.335 12.15 68.5476736 12.3085493 68.8104783 12.3849047 69.075 12.365z"/>
        <polygon points="89.229 14 86.961 14 86.961 9.869 87.181 4.183 83.454 14 81.828 14 78.1 4.191 78.328 9.869 78.328 14 76.054 14 76.054 1.2 79.007 1.2 82.646 10.938 86.275 1.2 89.229 1.2"/>
        <path d="M99.652 9.931L93.452 9.931C93.4831793 10.3839178 93.6121387 10.8246997 93.83 11.223 94.0312768 11.5878447 94.3273732 11.8915421 94.687 12.102 95.0713754 12.318546 95.5069301 12.4276937 95.948 12.418 96.8812124 12.4431701 97.7676263 12.009862 98.321 11.258L99.49 12.392C99.1186135 12.9244412 98.6261041 13.3610849 98.053 13.666 97.3642575 14.0234254 96.5956231 14.1989755 95.82 14.176 94.9725952 14.1960958 94.1352664 13.9889217 93.395 13.576 92.7164872 13.1898424 92.162942 12.6172094 91.8 11.926 91.4242859 11.2014443 91.2339483 10.3950863 91.246 9.579L91.246 9.219C91.2268928 8.32656839 91.4198461 7.44234206 91.809 6.639 92.1526259 5.93241465 92.6884432 5.3369851 93.355 4.921 94.0213781 4.51397345 94.7892176 4.30355422 95.57 4.314 96.3642248 4.28675647 97.1491906 4.49142441 97.829 4.903 98.44339 5.29964111 98.9217835 5.8746903 99.2 6.551 99.5152287 7.33101863 99.6689944 8.16686421 99.652 9.008L99.652 9.931zM97.49 8.182C97.4852176 7.63693731 97.3104229 7.10695962 96.99 6.666 96.6394985 6.24912824 96.1088419 6.02777293 95.566 6.072 95.0365876 6.05278259 94.5267093 6.27319108 94.178 6.672 93.7917226 7.15199846 93.5558521 7.73541279 93.5 8.349L97.49 8.349 97.49 8.182zM104.987 12.365C105.238481 12.3632614 105.489 12.3337491 105.734 12.277L105.734 13.965C105.27405 14.1111862 104.793579 14.1824296 104.311 14.176 103.640295 14.2131902 102.982316 13.9822321 102.482 13.534 101.988542 12.9714613 101.747123 12.2313041 101.814 11.486L101.814 6.107 100.268 6.107 100.268 4.49 101.814 4.49 101.814 2.17 104 2.17 104 4.49 105.67 4.49 105.67 6.107 104 6.107 104 11.337C103.96484 11.6304648 104.05404 11.9252579 104.246 12.15 104.45894 12.3087825 104.722143 12.3851505 104.987 12.365zM112.063 4.314C114.129667 4.314 115.163 5.50666667 115.163 7.892L115.163 14 112.975 14 112.975 7.874C113.022516 7.38239651 112.875709 6.89172369 112.566 6.507 112.219723 6.20887006 111.768427 6.06191982 111.313 6.099 110.922917 6.09057937 110.538202 6.19100015 110.202 6.389 109.878867 6.58576739 109.613554 6.86453549 109.433 7.197L109.433 14 107.244 14 107.244.5 109.433.5 109.433 5.527C109.751418 5.1464245 110.148532 4.8393774 110.597 4.627 111.056219 4.41467399 111.557109 4.30773098 112.063 4.314L112.063 4.314zM116.9 9.157C116.885706 8.29831142 117.067663 7.44769486 117.432 6.67 117.767251 5.95921286 118.29972 5.35975198 118.966 4.943 119.674771 4.51261309 120.492024 4.2943319 121.321 4.314 122.157345 4.29333066 122.982251 4.51152466 123.699 4.943 124.367091 5.35877004 124.901096 5.95839757 125.237 6.67 125.601337 7.44769486 125.783294 8.29831142 125.769 9.157L125.769 9.342C125.783294 10.2006886 125.601337 11.0513051 125.237 11.829 124.90159 12.5395667 124.367806 13.1379468 123.7 13.552 122.987206 13.9801775 122.167256 14.1966109 121.336 14.176 120.503184 14.1964596 119.681672 13.9800713 118.967 13.552 118.298453 13.1385379 117.764198 12.5400196 117.429 11.829 117.064663 11.0513051 116.882706 10.2006886 116.897 9.342L116.9 9.157zM119.089 9.342C119.056021 10.1193716 119.251392 10.8893864 119.651 11.557 120.017603 12.1269898 120.662352 12.4558575 121.339 12.418 121.791455 12.4332079 122.234782 12.2883831 122.591 12.009 122.939242 11.7205609 123.198312 11.3390664 123.338 10.909 123.506209 10.405025 123.588028 9.8762445 123.58 9.345L123.58 9.16C123.587311 8.63011373 123.505504 8.10276749 123.338 7.6 123.198486 7.1654684 122.937969 6.779723 122.587 6.488 122.226619 6.20588857 121.778413 6.05967305 121.321 6.075 120.86911 6.05978723 120.426607 6.20622452 120.073 6.488 119.726688 6.78211313 119.469651 7.16732212 119.331 7.6 119.163974 8.1028833 119.08218 8.6301483 119.089 9.16L119.089 9.342zM135.494.5L135.494 14 133.517 14 133.411 13.007C132.798124 13.7780545 131.855301 14.2119757 130.871 14.176 130.163475 14.1888922 129.471196 13.969723 128.9 13.552 128.315822 13.1087832 127.865849 12.5123953 127.6 11.829 127.284677 11.0415278 127.129323 10.1991474 127.143 9.351L127.143 9.166C127.12618 8.29792673 127.279744 7.43497934 127.595 6.626 127.857124 5.94546422 128.308141 5.3539375 128.895 4.921 129.479935 4.5106814 130.180679 4.29800577 130.895 4.314 131.816845 4.28212185 132.704226 4.66615201 133.312 5.36L133.312.5 135.494.5zM131.425 12.383C132.226791 12.422694 132.971879 11.9699369 133.306 11.24L133.306 7.215C132.969814 6.4983231 132.232455 6.05725263 131.442 6.1 130.791421 6.06298093 130.174419 6.39153465 129.842 6.952 129.467132 7.62812749 129.286153 8.39460388 129.319 9.167L129.319 9.352C129.285438 10.1160369 129.463295 10.8745249 129.833 11.544 130.165172 12.0992072 130.779239 12.4228271 131.425 12.383z"/>
      </g>
      <g transform="translate(0 39)">
        <g fill="#565D6D" fill-rule="nonzero" transform="translate(0 5.837)">
          <path d="M4.672 6.914C3.67872826 6.66801729 2.74583501 6.22266454 1.93 5.605 1.31633781 5.10715725.969572769 4.35188968.992 3.562.984845116 2.99667741 1.15286925 2.44300121 1.473 1.977 1.81497982 1.48972863 2.28542005 1.10686851 2.832.871 3.4685438.593347941 4.15768058.456885212 4.852.471 5.5958432.45248303 6.33302928.61515817 7 .945 7.57477043 1.22940109 8.059399 1.66764378 8.4 2.211 8.71543281 2.71996341 8.8817353 3.30721907 8.88 3.906L7.352 3.906C7.37862906 3.3050675 7.14848269 2.72115744 6.719 2.3 6.19975104 1.86181829 5.529608 1.64429999 4.852 1.694 4.22926068 1.64952432 3.61111744 1.82897382 3.109 2.2 2.7171998 2.53104602 2.4986798 3.02336087 2.516 3.536 2.51061774 3.84232535 2.60659127 4.14184712 2.789 4.388 3.01924755 4.67079813 3.31052688 4.89780456 3.641 5.052 4.12917316 5.28843734 4.63925797 5.47666299 5.164 5.614 5.90615414 5.80524071 6.62139994 6.08878578 7.293 6.458 7.78236932 6.72670555 8.19716909 7.1129814 8.5 7.582 8.77349065 8.04358565 8.91206975 8.57261137 8.9 9.109 8.91088075 9.6827185 8.73930294 10.2450735 8.41 10.715 8.05918221 11.1957199 7.57780338 11.565691 7.023 11.781 6.35708199 12.0434804 5.64562503 12.1709511 4.93 12.156 4.21887738 12.1591422 3.51399657 12.0232616 2.855 11.756 2.22505765 11.5086073 1.6714591 11.0995307 1.25 10.57.834241191 10.0367895.616194104 9.37593369.633 8.7L2.148 8.7C2.13188042 9.14721082 2.26523754 9.58704301 2.527 9.95 2.78488831 10.2907225 3.13454658 10.550885 3.535 10.7 3.98098077 10.8664348 4.45401977 10.948496 4.93 10.942 5.56663654 10.9803884 6.1984679 10.8104959 6.73 10.458 7.15049398 10.1488749 7.3905539 9.65152769 7.371 9.13 7.38254248 8.80588729 7.30285165 8.48504506 7.141 8.204 6.93515242 7.91272539 6.65609269 7.68092298 6.332 7.532 5.7993524 7.27420882 5.24355211 7.0672904 4.672 6.914zM17.227 3.547L17.227 12 15.836 12 15.813 11.164C15.1816216 11.8548234 14.2696888 12.2200383 13.336 12.156 12.5799437 12.1987145 11.8408611 11.9210141 11.3 11.391 10.754943 10.7189943 10.4908607 9.86224978 10.563 9L10.563 3.547 12.023 3.547 12.023 9.016C11.9700304 9.54820434 12.1256144 10.0802014 12.457 10.5 12.7524717 10.7915534 13.1551805 10.9482227 13.57 10.933 14.4898559 11.0358582 15.3735629 10.5433925 15.77 9.707L15.77 3.547 17.227 3.547zM23.281 3.391C23.9170261 3.3734439 24.5418199 3.56102229 25.063 3.926 25.5772437 4.30868155 25.9691461 4.83260778 26.191 5.434 26.4621397 6.15806301 26.5934613 6.9269897 26.578 7.7L26.578 7.864C26.5908781 8.62021358 26.4595356 9.37195442 26.191 10.079 25.9660877 10.6822992 25.5750161 11.2096219 25.063 11.6 24.5524979 11.9742282 23.9328291 12.1696541 23.3 12.156 22.341208 12.2073333 21.4169484 11.7910438 20.82 11.039L20.75 12 19.414 12 19.414 0 20.875 0 20.875 4.453C21.4646436 3.73937906 22.3563985 3.34576155 23.281 3.391zM25.117 7.7C25.1523009 6.91701457 24.9698811 6.13956739 24.59 5.454 24.2326759 4.88083266 23.5877336 4.55220451 22.914 4.6 22.4716904 4.58453397 22.0357411 4.70874103 21.668 4.955 21.3240048 5.20197511 21.050618 5.53465896 20.875 5.92L20.875 9.62C21.0581796 10.0041606 21.3366951 10.3350053 21.684 10.581 22.051327 10.8285462 22.4872721 10.9541516 22.93 10.94 23.593117 10.9770662 24.2235758 10.6491817 24.574 10.085 24.9621792 9.41341708 25.1505612 8.64497118 25.117 7.87L25.117 7.7zM31.984 12C31.6217062 12.1082251 31.2450823 12.1608243 30.867 12.156 30.3416617 12.1800125 29.8293508 11.9881669 29.449 11.625 29.0489015 11.143735 28.8564468 10.5232034 28.914 9.9L28.914 4.65 27.375 4.65 27.375 3.55 28.914 3.55 28.914 1.495 30.375 1.495 30.375 3.55 31.953 3.55 31.953 4.65 30.375 4.65 30.375 9.908C30.3375816 10.2011171 30.428737 10.496096 30.625 10.717 30.8200829 10.8641893 31.0609936 10.9375254 31.305 10.924 31.4251421 10.9231919 31.5450885 10.9141708 31.664 10.897 31.7693275 10.8830327 31.8738157 10.8633369 31.977 10.838L31.984 12zM33.031 7.687C33.0194595 6.92768515 33.179792 6.17559209 33.5 5.487 33.7927793 4.85907869 34.2573639 4.3268867 34.84 3.952 35.4469111 3.57257651 36.1514112 3.37863912 36.867 3.394 37.5890049 3.37757887 38.3002075 3.57144844 38.914 3.952 39.498294 4.32610094 39.964365 4.8584067 40.258 5.487 40.578208 6.17559209 40.7385405 6.92768515 40.727 7.687L40.727 7.867C40.7395853 8.62641658 40.5792034 9.37874108 40.258 10.067 39.9647225 10.6940663 39.5002061 11.225487 38.918 11.6 38.3084199 11.9800672 37.6011805 12.1739933 36.883 12.158 36.164798 12.1741682 35.4575094 11.9802286 34.848 11.6 34.2636608 11.2252455 33.7965337 10.6936631 33.5 10.066 33.1760717 9.37852012 33.014251 8.62586549 33.027 7.866L33.031 7.687zM34.492 7.867C34.4853856 8.40242905 34.5768954 8.93454173 34.762 9.437 34.9200197 9.88171625 35.2000317 10.2729706 35.57 10.566 35.9473505 10.8506828 36.4105194 10.998135 36.883 10.984 37.352886 10.9971855 37.8132203 10.8497374 38.188 10.566 38.559166 10.2732416 38.8405396 9.88202143 39 9.437 39.1851046 8.93454173 39.2766144 8.40242905 39.27 7.867L39.27 7.687C39.2761551 7.15125663 39.1832623 6.61898771 38.996 6.117 38.8344619 5.67195962 38.5535332 5.27997411 38.184 4.984 37.8075137 4.69723802 37.3440605 4.54828352 36.871 4.562 36.4020336 4.54899894 35.9429174 4.69803512 35.571 4.984 35.2053099 5.28099986 34.9285154 5.67301009 34.771 6.117 34.5860701 6.61950504 34.4945659 7.15158523 34.501 7.687L34.492 7.867zM46.125 12C45.7626897 12.1081494 45.3860774 12.160747 45.008 12.156 44.4826431 12.1801303 43.9702875 11.9882679 43.59 11.625 43.1899015 11.143735 42.9974468 10.5232034 43.055 9.9L43.055 4.65 41.516 4.65 41.516 3.55 43.055 3.55 43.055 1.495 44.516 1.495 44.516 3.55 46.094 3.55 46.094 4.65 44.516 4.65 44.516 9.908C44.4785816 10.2011171 44.569737 10.496096 44.766 10.717 44.9606958 10.8641973 45.2012995 10.9375478 45.445 10.924 45.5654742 10.9231938 45.6857533 10.9141729 45.805 10.897 45.9100153 10.8831446 46.0141768 10.8634474 46.117 10.838L46.125 12zM54.219 10.156C54.2198949 10.4636163 54.2459821 10.7706425 54.297 11.074 54.3378931 11.3484339 54.4114136 11.6170022 54.516 11.874L54.516 12 52.992 12C52.8854337 11.7161478 52.8181449 11.4190677 52.792 11.117 52.4940099 11.4342624 52.1370152 11.6903747 51.741 11.871 51.3184257 12.0639122 50.8584964 12.1612246 50.394 12.156 49.8746141 12.1671899 49.3601525 12.0533224 48.894 11.824 48.4811689 11.6230894 48.1322136 11.3115222 47.886 10.924 47.6490091 10.5445942 47.5254843 10.1053177 47.53 9.658 47.5142246 9.11174797 47.6794632 8.57560171 48 8.133 48.3376571 7.69588591 48.7968507 7.36818871 49.32 7.191 49.9694367 6.96739671 50.6533022 6.86041577 51.34 6.875L52.762 6.875 52.762 6.2C52.7843753 5.74915163 52.6168068 5.30955618 52.3 4.988 51.9363884 4.67297893 51.4629927 4.51446146 50.983 4.547 50.6612892 4.54161327 50.3420433 4.60396332 50.046 4.73 49.7920081 4.83583161 49.5697826 5.00568772 49.401 5.223 49.2529687 5.41431974 49.1721309 5.64910078 49.171 5.891L47.711 5.891C47.7179046 5.45583731 47.8660053 5.03469766 48.133 4.691 48.443212 4.28247873 48.8514773 3.95882444 49.32 3.75 49.8689285 3.49990154 50.4668849 3.37586829 51.07 3.387 51.6344902 3.37505351 52.1951145 3.4827479 52.715 3.703 53.1695982 3.90212615 53.5531365 4.23440982 53.815 4.656 54.0937317 5.12711381 54.2324801 5.66788571 54.215 6.215L54.219 10.156zM50.602 10.906C50.9215149 10.9088875 51.2384953 10.8490927 51.535 10.73 51.809742 10.621842 52.062522 10.4646169 52.281 10.266 52.4774229 10.0890869 52.6391806 9.87714015 52.758 9.641L52.758 7.891 51.57 7.891C50.9085283 7.85277082 50.2485919 7.9886198 49.656 8.285 49.2311907 8.51702433 48.9740818 8.96928817 48.992 9.453 48.9878991 9.71261225 49.0527742 9.96866191 49.18 10.195 49.3084772 10.4173735 49.4984132 10.5979342 49.727 10.715 49.9979649 10.8492055 50.2977488 10.9147939 50.6 10.906L50.602 10.906z"/>
          <rect width="1.461" height="12" x="56.609"/>
        </g>
        <path stroke="#979797" stroke-linecap="square" d="M0,38.959 L324.477,38.959"/>
        <g fill-rule="nonzero" transform="translate(267.75 .75)">
          <use fill="#000" xlink:href="#checkout-a"/>
          <use fill="#565D6D" xlink:href="#checkout-a"/>
        </g>
        <g transform="translate(0 54)">
          <path fill="#565D6D" fill-rule="nonzero" d="M4.672 6.914C3.67872826 6.66801729 2.74583501 6.22266454 1.93 5.605 1.31633781 5.10715725.969572769 4.35188968.992 3.562.984845116 2.99667741 1.15286925 2.44300121 1.473 1.977 1.81497982 1.48972863 2.28542005 1.10686851 2.832.871 3.4685438.593347941 4.15768058.456885212 4.852.471 5.5958432.45248303 6.33302928.61515817 7 .945 7.57477043 1.22940109 8.059399 1.66764378 8.4 2.211 8.71543281 2.71996341 8.8817353 3.30721907 8.88 3.906L7.352 3.906C7.37862906 3.3050675 7.14848269 2.72115744 6.719 2.3 6.19975104 1.86181829 5.529608 1.64429999 4.852 1.694 4.22926068 1.64952432 3.61111744 1.82897382 3.109 2.2 2.7171998 2.53104602 2.4986798 3.02336087 2.516 3.536 2.51061774 3.84232535 2.60659127 4.14184712 2.789 4.388 3.01924755 4.67079813 3.31052688 4.89780456 3.641 5.052 4.12917316 5.28843734 4.63925797 5.47666299 5.164 5.614 5.90615414 5.80524071 6.62139994 6.08878578 7.293 6.458 7.78236932 6.72670555 8.19716909 7.1129814 8.5 7.582 8.77349065 8.04358565 8.91206975 8.57261137 8.9 9.109 8.91088075 9.6827185 8.73930294 10.2450735 8.41 10.715 8.05918221 11.1957199 7.57780338 11.565691 7.023 11.781 6.35708199 12.0434804 5.64562503 12.1709511 4.93 12.156 4.21887738 12.1591422 3.51399657 12.0232616 2.855 11.756 2.22505765 11.5086073 1.6714591 11.0995307 1.25 10.57.834241191 10.0367895.616194104 9.37593369.633 8.7L2.148 8.7C2.13188042 9.14721082 2.26523754 9.58704301 2.527 9.95 2.78488831 10.2907225 3.13454658 10.550885 3.535 10.7 3.98098077 10.8664348 4.45401977 10.948496 4.93 10.942 5.56663654 10.9803884 6.1984679 10.8104959 6.73 10.458 7.15049398 10.1488749 7.3905539 9.65152769 7.371 9.13 7.38254248 8.80588729 7.30285165 8.48504506 7.141 8.204 6.93515242 7.91272539 6.65609269 7.68092298 6.332 7.532 5.7993524 7.27420882 5.24355211 7.0672904 4.672 6.914zM14.539 3.391C16.3463333 3.391 17.25 4.41433333 17.25 6.461L17.25 12 15.789 12 15.789 6.445C15.8343922 5.94014407 15.684827 5.43706105 15.371 5.039 15.0299471 4.72310136 14.5724766 4.56396544 14.109 4.6 13.6783938 4.59456151 13.256696 4.72278282 12.902 4.967 12.5406718 5.21773454 12.2491728 5.55638275 12.055 5.951L12.055 12 10.594 12 10.594 0 12.055 0 12.055 4.547C12.3523025 4.18512036 12.7254156 3.89291105 13.148 3.691 13.5833509 3.48809668 14.0587181 3.38557319 14.539 3.391zM20.273.469C20.5085758.455424046 20.739232.540154884 20.91.703 21.0649343.861115374 21.1484044 1.07575291 21.141 1.297 21.1475727 1.5145578 21.0639804 1.72516689 20.91 1.879 20.7381875 2.03976977 20.5078885 2.12292324 20.273 2.109 20.040693 2.12367089 19.8128822 2.040237 19.645 1.879 19.4950455 1.72312326 19.4145992 1.51316922 19.422 1.297 19.4141797 1.07718988 19.4944569.863357191 19.645.703 19.8117963.539658849 20.0399874.454632232 20.273.469zM19.531 12L19.531 3.547 20.992 3.547 20.992 12 19.531 12zM27.148 3.391C27.7865975 3.37278396 28.4141352 3.56034411 28.938 3.926 29.4516301 4.30860705 29.8425792 4.83265261 30.063 5.434 30.3309491 6.15879036 30.4605243 6.92742198 30.445 7.7L30.445 7.864C30.4577097 8.62011122 30.3267228 9.37175872 30.059 10.079 29.8341426 10.6815148 29.444286 11.208601 28.934 11.6 28.423689 11.9733238 27.8040833 12.1670824 27.172 12.151 26.264182 12.1975498 25.3816789 11.8433056 24.758 11.182L24.758 15.25 23.3 15.25 23.3 3.55 24.628 3.55 24.706 4.472C25.3046297 3.74758532 26.2092725 3.34712716 27.148 3.391L27.148 3.391zM28.984 7.7C28.9917171 7.16518888 28.908534 6.63295229 28.738 6.126 28.5955232 5.69085576 28.3327143 5.30496364 27.98 5.013 27.6186566 4.73052293 27.1693841 4.5843058 26.711 4.6 26.298286 4.58764947 25.8909478 4.69608761 25.539 4.912 25.2109881 5.12559988 24.9423249 5.41868701 24.758 5.764L24.758 9.834C25.1347488 10.5674757 25.9031025 11.0154544 26.727 10.982 27.1824612 10.9971676 27.6283232 10.8489016 27.984 10.564 28.334984 10.2679858 28.5961593 9.87968682 28.738 9.443 28.908454 8.93464922 28.9916289 8.40111274 28.984 7.865L28.984 7.7zM36.133 3.391C36.771296 3.37271522 37.3985371 3.56029152 37.922 3.926 38.436212 4.30802434 38.8273035 4.83226082 39.047 5.434 39.3152898 6.15872506 39.4452045 6.92735865 39.43 7.7L39.43 7.864C39.4428781 8.62021358 39.3115356 9.37195442 39.043 10.079 38.8181426 10.6815148 38.428286 11.208601 37.918 11.6 37.4078269 11.9735969 36.7881256 12.1673854 36.156 12.151 35.248182 12.1975498 34.3656789 11.8433056 33.742 11.182L33.742 15.25 32.281 15.25 32.281 3.55 33.609 3.55 33.688 4.472C34.2869806 3.74633 35.1931481 3.34568911 36.133 3.391zM37.969 7.7C37.9767171 7.16518888 37.893534 6.63295229 37.723 6.126 37.5801286 5.69104995 37.3173891 5.30525963 36.965 5.013 36.6034856 4.73001781 36.1538349 4.58343876 35.695 4.599 35.282286 4.58664947 34.8749478 4.69508761 34.523 4.911 34.1952414 5.12489865 33.9266445 5.41791345 33.742 5.763L33.742 9.833C34.1189368 10.5662974 34.887165 11.014203 35.711 10.981 36.16675 10.9960536 36.6128879 10.8478138 36.969 10.563 37.3197046 10.2667353 37.5808219 9.87852248 37.723 9.442 37.893454 8.93364922 37.9766289 8.40011274 37.969 7.864L37.969 7.7zM42.133.469C42.3685398.455666342 42.5991025.540362866 42.77.703 42.9249342.862268094 43.0080275 1.07794933 43 1.3 43.0064783 1.5173477 42.9233103 1.72779898 42.77 1.882 42.5980623 2.04256515 42.3678541 2.12568584 42.133 2.112 41.9003713 2.12683172 41.6721897 2.04339487 41.504 1.882 41.3540455 1.72612326 41.2735992 1.51616922 41.281 1.3 41.2704781 1.07870786 41.3494003.862482768 41.5.7 41.6685725.536523377 41.898757.452522377 42.133.469L42.133.469zM41.391 12L41.391 3.547 42.852 3.547 42.852 12 41.391 12zM49.1 3.391C50.9066667 3.391 51.8103333 4.41433333 51.811 6.461L51.811 12 50.352 12 50.352 6.445C50.3968788 5.94019553 50.2473688 5.43729843 49.934 5.039 49.5928189 4.72331474 49.1354447 4.56421229 48.672 4.6 48.2413938 4.59456151 47.819696 4.72278282 47.465 4.967 47.1033943 5.21770556 46.8115635 5.55633937 46.617 5.951L46.617 12 45.156 12 45.156 3.547 46.539 3.547 46.586 4.586C46.882567 4.21365403 47.2583275 3.91202088 47.686 3.703 48.1271156 3.49178189 48.6109598 3.38502135 49.1 3.391zM60.8 3.547L60.8 11.82C60.8190594 12.4821857 60.6627834 13.1376479 60.347 13.72 60.0553288 14.2385743 59.6160481 14.6587105 59.085 14.927 58.5034171 15.2126442 57.8618008 15.354616 57.214 15.341 56.8499699 15.3358895 56.4879381 15.2861857 56.136 15.193 55.7336293 15.0891471 55.3480941 14.9285355 54.991 14.716 54.6286114 14.5059281 54.3177114 14.2175769 54.081 13.872L54.839 13.021C55.3710397 13.7362952 56.2085435 14.1596773 57.1 14.164 57.7027423 14.1970811 58.293111 13.9841731 58.736 13.574 59.1589969 13.1194204 59.3760272 12.5106505 59.336 11.891L59.336 11.164C58.7410558 11.8356666 57.8731599 12.2006317 56.977 12.156 56.3472978 12.1672257 55.7312419 11.9719423 55.223 11.6 54.7021777 11.2070879 54.2994851 10.6784674 54.059 10.072 53.7749921 9.37145357 53.6352046 8.62081881 53.648 7.865L53.648 7.7C53.6329992 6.92782352 53.7713361 6.16034275 54.055 5.442 54.2913055 4.83755503 54.6950979 4.31304118 55.219 3.93 55.7375129 3.56609148 56.3586785 3.37725435 56.992 3.391 57.9240825 3.34588414 58.8214575 3.74959134 59.406 4.477L59.469 3.547 60.8 3.547zM57.339 10.937C58.1960607 10.9676927 58.9865114 10.4768228 59.339 9.695L59.339 5.812C59.1561043 5.4540474 58.8844474 5.14899288 58.55 4.926 58.191999 4.70055313 57.7748749 4.58704525 57.352 4.6 56.8960971 4.58321601 56.4489875 4.72847348 56.09 5.01 55.7411389 5.30224667 55.4835888 5.68857183 55.348 6.123 55.1827385 6.63208538 55.1020024 7.16480813 55.109 7.7L55.109 7.864C55.1010693 8.39598302 55.1818422 8.9255691 55.348 9.431 55.4844995 9.86033351 55.7404911 10.2418928 56.086 10.531 56.4417671 10.8094766 56.8844974 10.9532754 57.336 10.937L57.339 10.937z" transform="translate(0 2.837)"/>
          <path stroke="#979797" stroke-linecap="square" d="M0,35.959 L324.477,35.959"/>
          <path fill="#565D6D" fill-rule="nonzero" d="M8.141 11.055C8.18009948 11.8456346 7.89056218 12.6172516 7.341 13.187 6.73474231 13.7503183 5.95116876 14.0848222 5.125 14.133L5.125 15.625 3.961 15.625 3.961 14.141C3.41617217 14.0866485 2.88758985 13.9245046 2.406 13.664 1.93322238 13.3992654 1.54468571 13.0065696 1.285 12.531.98192777 11.9509632.835111265 11.3020067.859 10.648L2.32 10.648C2.25723031 11.2935566 2.48993411 11.9328487 2.953 12.387 3.38593749 12.7420165 3.93231871 12.9291139 4.492 12.914 5.07147207 12.9475061 5.64345292 12.7698723 6.102 12.414 6.48913044 12.0772845 6.70186991 11.58261 6.68 11.07 6.68955598 10.6122102 6.50844973 10.1710354 6.18 9.852 5.68851697 9.43200111 5.11097336 9.12479707 4.488 8.952 3.6034784 8.72440282 2.78634552 8.28823286 2.105 7.68 1.5544587 7.11624841 1.26288622 6.34910491 1.3 5.562 1.28898595 5.03691901 1.40566324 4.51701876 1.64 4.047 1.86151515 3.61439911 2.19601385 3.24983699 2.608 2.992 3.06051328 2.71568544 3.5694293 2.54479356 4.097 2.492L4.097.781 5.273.781 5.273 2.5C6.07594018 2.57129465 6.81445652 2.96892949 7.316 3.6 7.83151602 4.33273689 8.08611735 5.21732684 8.039 6.112L6.586 6.112C6.594022 5.68606744 6.51825272 5.26271084 6.363 4.866 6.23117024 4.52489755 6.00331344 4.22930893 5.707 4.015 5.40098667 3.80381586 5.03566441 3.6955852 4.664 3.706 4.14099203 3.66781703 3.62530678 3.84646255 3.238 4.2 2.90494648 4.5627231 2.73194119 5.04425451 2.758 5.536 2.74889488 5.8437925 2.81768971 6.14889756 2.958 6.423 3.12509565 6.70155524 3.36186912 6.93178039 3.645 7.091 4.07051769 7.33430701 4.52114807 7.53078722 4.989 7.677 5.59917573 7.86400355 6.18418647 8.12494118 6.731 8.454 7.1650584 8.71670504 7.52612054 9.08430068 7.781 9.523 8.03277225 9.99344918 8.15689324 10.5216529 8.141 11.055zM11.18 2.625L17.016 2.625 17.016 3.945 12.416 3.945 12.08 7.062C12.3415446 6.91062876 12.6210654 6.79270593 12.912 6.711 13.2564561 6.61367273 13.6130781 6.56619047 13.971 6.57 14.6026026 6.55428888 15.2260344 6.71534208 15.771 7.035 16.2836955 7.35079809 16.6912122 7.81155995 16.942 8.359 17.2285649 8.99163799 17.3690374 9.68067076 17.353 10.375 17.3668558 11.0515421 17.2302309 11.7227122 16.953 12.34 16.6940669 12.8990472 16.2700288 13.3653146 15.738 13.676 15.1310172 14.0130481 14.443904 14.1789507 13.75 14.156 13.1596891 14.1642705 12.5745964 14.0445226 12.035 13.805 11.5266485 13.5737866 11.0915094 13.207481 10.777 12.746 10.4355981 12.2269236 10.235036 11.6279941 10.195 11.008L11.578 11.008C11.6240005 11.5659567 11.8697007 12.0886022 12.27 12.48 12.6818546 12.828712 13.2110488 13.0074938 13.75 12.98 14.1558054 12.9924613 14.5561364 12.8838498 14.9 12.668 15.2286708 12.4473517 15.4844691 12.1341292 15.635 11.768 15.8135564 11.3306796 15.9000232 10.8612394 15.889 10.389 15.8963242 9.94144186 15.8055301 9.49771103 15.623 9.089 15.4566953 8.72003809 15.1867487 8.40735863 14.846 8.189 14.4787497 7.96342013 14.0538433 7.84946324 13.623 7.861 13.3616136 7.85628057 13.1006431 7.88382186 12.846 7.943 12.6536505 7.98998342 12.4702457 8.06800647 12.303 8.174 12.1168575 8.30029115 11.9391472 8.43858447 11.771 8.588L10.6 8.288 11.18 2.625zM20.008 12.367C20.2552291 12.3522575 20.4973817 12.4414335 20.676 12.613 20.8368301 12.7820428 20.9226423 13.0088325 20.914 13.242 20.9229354 13.469581 20.8367 13.6906046 20.676 13.852 20.4937974 14.0165497 20.253057 14.1008809 20.008 14.086 19.7647262 14.1001496 19.5262547 14.0141554 19.348 13.848 19.1881741 13.6876014 19.10169 13.4683152 19.109 13.242 19.1007394 13.008708 19.1869034 12.7819417 19.348 12.613 19.5238918 12.4422697 19.7632714 12.3530463 20.008 12.367zM30.3 9.148C30.4150739 10.4934268 30.0931373 11.8400894 29.382 12.988 28.7346464 13.7840192 27.743087 14.2189202 26.719 14.156 25.6923417 14.2141006 24.6996146 13.778668 24.047 12.984 23.3232196 11.8423303 22.9937239 10.4948404 23.109 9.148L23.109 7.406C22.9907046 6.07191614 23.3162214 4.73610216 24.035 3.606 24.694802 2.82653336 25.683655 2.40400996 26.703 2.466 27.7237726 2.40239977 28.7145294 2.8251029 29.375 3.606 30.0909886 4.73717655 30.4149748 6.07247759 30.297 7.406L30.3 9.148zM28.836 7.164C28.9054525 6.23303628 28.7234383 5.3005154 28.309 4.464 27.9637088 3.91731915 27.3484573 3.60164838 26.703 3.64 26.0589649 3.60537319 25.4466801 3.9222306 25.103 4.468 24.6829579 5.30277575 24.4980161 6.23612651 24.568 7.168L24.568 9.379C24.5023327 10.3241526 24.6912209 11.2696294 25.115 12.117 25.4474736 12.6795843 26.0620402 13.014139 26.715 12.988 27.3661517 13.0221191 27.9816198 12.6889015 28.309 12.125 28.7169138 11.2699834 28.8970657 10.3240998 28.832 9.379L28.836 7.164zM39.289 9.148C39.4040739 10.4934268 39.0821373 11.8400894 38.371 12.988 37.7242777 13.7831282 36.7340557 14.2179325 35.711 14.156 34.6843417 14.2141006 33.6916146 13.778668 33.039 12.984 32.3149384 11.8424213 31.985095 10.4949462 32.1 9.148L32.1 7.406C31.9814838 6.07203406 32.3066411 4.73625293 33.025 3.606 33.6849948 2.82679448 34.6737105 2.40432977 35.693 2.466 36.7138003 2.40223892 37.7046264 2.8249716 38.365 3.606 39.0809886 4.73717655 39.4049748 6.07247759 39.287 7.406L39.289 9.148zM37.828 7.164C37.897502 6.23303335 37.7154852 5.30049953 37.301 4.464 36.9557088 3.91731915 36.3404573 3.60164838 35.695 3.64 35.0508719 3.60494062 34.4383806 3.92190486 34.095 4.468 33.6745246 5.30262686 33.4895589 6.23609895 33.56 7.168L33.56 9.379C33.4940236 10.3240621 33.6825655 11.2695341 34.106 12.117 34.4383151 12.6797485 35.0529883 13.0143612 35.706 12.988 36.3571517 13.0221191 36.9726198 12.6889015 37.3 12.125 37.7083918 11.2701401 37.8885678 10.3241297 37.823 9.379L37.828 7.164z" transform="translate(286.805 .837)"/>
        </g>
        <g transform="translate(0 106)">
          <g fill="#565D6D" fill-rule="nonzero" transform="translate(0 2.837)">
            <polygon points="9.18 1.852 5.531 1.852 5.531 12 4.031 12 4.031 1.852 .391 1.852 .391 .625 9.18 .625"/>
            <path d="M15.813,10.156 C15.8138949,10.4636163 15.8399821,10.7706425 15.891,11.074 C15.9320684,11.3482876 16.0052371,11.6167967 16.109,11.874 L16.109,12 L14.586,12 C14.47896,11.7162898 14.4116562,11.4191437 14.386,11.117 C14.0880099,11.4342624 13.7310152,11.6903747 13.335,11.871 C12.9121093,12.0640248 12.4518297,12.1613391 11.987,12.156 C11.4676372,12.166955 10.9532307,12.0530997 10.487,11.824 C10.0741689,11.6230894 9.72521361,11.3115222 9.479,10.924 C9.24230893,10.5445105 9.11912886,10.1052261 9.124,9.658 C9.10698972,9.1121973 9.27081599,8.57607054 9.59,8.133 C9.92765713,7.69588591 10.3868507,7.36818871 10.91,7.191 C11.5594164,6.96731473 12.2432966,6.86033149 12.93,6.875 L14.352,6.875 L14.352,6.2 C14.3770188,5.75063317 14.213156,5.31124881 13.9,4.988 C13.5363884,4.67297893 13.0629927,4.51446146 12.583,4.547 C12.2612892,4.54161327 11.9420433,4.60396332 11.646,4.73 C11.3916446,4.83568307 11.1690599,5.00555038 11,5.223 C10.8512294,5.41391976 10.770302,5.64896082 10.77,5.891 L9.305,5.891 C9.31132453,5.45573375 9.45948816,5.03441537 9.727,4.691 C10.037212,4.28247873 10.4454773,3.95882444 10.914,3.75 C11.4628967,3.49980434 12.0608754,3.37576647 12.664,3.387 C13.2284902,3.37505351 13.7891145,3.4827479 14.309,3.703 C14.7633952,3.90244745 15.1468475,4.23465657 15.409,4.656 C15.6877317,5.12711381 15.8264801,5.66788571 15.809,6.215 L15.813,10.156 Z M12.195,10.906 C12.5148486,10.9089925 12.8321763,10.8491963 13.129,10.73 C13.403742,10.621842 13.656522,10.4646169 13.875,10.266 C14.0711323,10.0888192 14.2328458,9.8769305 14.352,9.641 L14.352,7.891 L13.164,7.891 C12.5025283,7.85277082 11.8425919,7.9886198 11.25,8.285 C10.8248483,8.51667588 10.5676073,8.96917219 10.586,9.453 C10.5815462,9.71252669 10.6460779,9.96858289 10.773,10.195 C10.9017908,10.4171262 11.0916442,10.5976085 11.32,10.715 C11.5916347,10.8493319 11.8920959,10.9149183 12.195,10.906 Z"/>
            <polygon points="22.781 3.547 24.481 3.547 21.727 7.719 24.57 12 22.891 12 20.945 8.82 19.008 12 17.308 12 20.159 7.719 17.391 3.547 19.078 3.547 20.922 6.633"/>
          </g>
          <path stroke="#979797" stroke-linecap="square" d="M0,35.959 L324.477,35.959"/>
          <path fill="#565D6D" fill-rule="nonzero" d="M8.141 11.055C8.18009948 11.8456346 7.89056218 12.6172516 7.341 13.187 6.73474231 13.7503183 5.95116876 14.0848222 5.125 14.133L5.125 15.625 3.961 15.625 3.961 14.141C3.41617217 14.0866485 2.88758985 13.9245046 2.406 13.664 1.93322238 13.3992654 1.54468571 13.0065696 1.285 12.531.98192777 11.9509632.835111265 11.3020067.859 10.648L2.32 10.648C2.25723031 11.2935566 2.48993411 11.9328487 2.953 12.387 3.38593749 12.7420165 3.93231871 12.9291139 4.492 12.914 5.07147207 12.9475061 5.64345292 12.7698723 6.102 12.414 6.48913044 12.0772845 6.70186991 11.58261 6.68 11.07 6.68955598 10.6122102 6.50844973 10.1710354 6.18 9.852 5.68851697 9.43200111 5.11097336 9.12479707 4.488 8.952 3.6034784 8.72440282 2.78634552 8.28823286 2.105 7.68 1.5544587 7.11624841 1.26288622 6.34910491 1.3 5.562 1.28898595 5.03691901 1.40566324 4.51701876 1.64 4.047 1.86151515 3.61439911 2.19601385 3.24983699 2.608 2.992 3.06051328 2.71568544 3.5694293 2.54479356 4.097 2.492L4.097.781 5.273.781 5.273 2.5C6.07594018 2.57129465 6.81445652 2.96892949 7.316 3.6 7.83151602 4.33273689 8.08611735 5.21732684 8.039 6.112L6.586 6.112C6.594022 5.68606744 6.51825272 5.26271084 6.363 4.866 6.23117024 4.52489755 6.00331344 4.22930893 5.707 4.015 5.40098667 3.80381586 5.03566441 3.6955852 4.664 3.706 4.14099203 3.66781703 3.62530678 3.84646255 3.238 4.2 2.90494648 4.5627231 2.73194119 5.04425451 2.758 5.536 2.74889488 5.8437925 2.81768971 6.14889756 2.958 6.423 3.12509565 6.70155524 3.36186912 6.93178039 3.645 7.091 4.07051769 7.33430701 4.52114807 7.53078722 4.989 7.677 5.59917573 7.86400355 6.18418647 8.12494118 6.731 8.454 7.1650584 8.71670504 7.52612054 9.08430068 7.781 9.523 8.03277225 9.99344918 8.15689324 10.5216529 8.141 11.055zM17.078 9.148C17.1930739 10.4934268 16.8711373 11.8400894 16.16 12.988 15.5132777 13.7831282 14.5230557 14.2179325 13.5 14.156 12.4733417 14.2141006 11.4806146 13.778668 10.828 12.984 10.1046383 11.8421809 9.7755017 10.4947232 9.891 9.148L9.891 7.406C9.77248383 6.07203406 10.0976411 4.73625293 10.816 3.606 11.4759948 2.82679448 12.4647105 2.40432977 13.484 2.466 14.5048003 2.40223892 15.4956264 2.8249716 16.156 3.606 16.8719886 4.73717655 17.1959748 6.07247759 17.078 7.406L17.078 9.148zM15.617 7.164C15.6864525 6.23303628 15.5044383 5.3005154 15.09 4.464 14.7447088 3.91731915 14.1294573 3.60164838 13.484 3.64 12.8398719 3.60494062 12.2273806 3.92190486 11.884 4.468 11.4634764 5.30261028 11.278508 6.23609588 11.349 7.168L11.349 9.379C11.2852916 10.3231816 11.4755457 11.2672009 11.9 12.113 12.2324736 12.6755843 12.8470402 13.010139 13.5 12.984 14.1512042 13.0183516 14.7667858 12.6850725 15.094 12.121 15.5023918 11.2661401 15.6825678 10.3201297 15.617 9.375L15.617 7.164zM20.008 12.367C20.2552291 12.3522575 20.4973817 12.4414335 20.676 12.613 20.8368301 12.7820428 20.9226423 13.0088325 20.914 13.242 20.9229354 13.469581 20.8367 13.6906046 20.676 13.852 20.4937974 14.0165497 20.253057 14.1008809 20.008 14.086 19.7647262 14.1001496 19.5262547 14.0141554 19.348 13.848 19.1881741 13.6876014 19.10169 13.4683152 19.109 13.242 19.1007394 13.008708 19.1869034 12.7819417 19.348 12.613 19.5238918 12.4422697 19.7632714 12.3530463 20.008 12.367zM30.3 9.148C30.4150739 10.4934268 30.0931373 11.8400894 29.382 12.988 28.7346464 13.7840192 27.743087 14.2189202 26.719 14.156 25.6923417 14.2141006 24.6996146 13.778668 24.047 12.984 23.3232196 11.8423303 22.9937239 10.4948404 23.109 9.148L23.109 7.406C22.9907046 6.07191614 23.3162214 4.73610216 24.035 3.606 24.694802 2.82653336 25.683655 2.40400996 26.703 2.466 27.7237726 2.40239977 28.7145294 2.8251029 29.375 3.606 30.0909886 4.73717655 30.4149748 6.07247759 30.297 7.406L30.3 9.148zM28.836 7.164C28.9054525 6.23303628 28.7234383 5.3005154 28.309 4.464 27.9637088 3.91731915 27.3484573 3.60164838 26.703 3.64 26.0589649 3.60537319 25.4466801 3.9222306 25.103 4.468 24.6829579 5.30277575 24.4980161 6.23612651 24.568 7.168L24.568 9.379C24.5023327 10.3241526 24.6912209 11.2696294 25.115 12.117 25.4474736 12.6795843 26.0620402 13.014139 26.715 12.988 27.3661517 13.0221191 27.9816198 12.6889015 28.309 12.125 28.7169138 11.2699834 28.8970657 10.3240998 28.832 9.379L28.836 7.164zM39.289 9.148C39.4040739 10.4934268 39.0821373 11.8400894 38.371 12.988 37.7242777 13.7831282 36.7340557 14.2179325 35.711 14.156 34.6843417 14.2141006 33.6916146 13.778668 33.039 12.984 32.3149384 11.8424213 31.985095 10.4949462 32.1 9.148L32.1 7.406C31.9814838 6.07203406 32.3066411 4.73625293 33.025 3.606 33.6849948 2.82679448 34.6737105 2.40432977 35.693 2.466 36.7138003 2.40223892 37.7046264 2.8249716 38.365 3.606 39.0809886 4.73717655 39.4049748 6.07247759 39.287 7.406L39.289 9.148zM37.828 7.164C37.897502 6.23303335 37.7154852 5.30049953 37.301 4.464 36.9557088 3.91731915 36.3404573 3.60164838 35.695 3.64 35.0508719 3.60494062 34.4383806 3.92190486 34.095 4.468 33.6745246 5.30262686 33.4895589 6.23609895 33.56 7.168L33.56 9.379C33.4940236 10.3240621 33.6825655 11.2695341 34.106 12.117 34.4383151 12.6797485 35.0529883 13.0143612 35.706 12.988 36.3571517 13.0221191 36.9726198 12.6889015 37.3 12.125 37.7083918 11.2701401 37.8885678 10.3241297 37.823 9.379L37.828 7.164z" transform="translate(286.805 .837)"/>
        </g>
        <g transform="translate(0 155)">
          <g fill="#000" fill-rule="nonzero" transform="translate(0 4.884)">
            <polygon points="10.582 3.04 6.6 3.04 6.6 14 4.333 14 4.333 3.04 .4 3.04 .4 1.2 10.582 1.2"/>
            <path d="M10.2 9.157C10.1852107 8.29826327 10.3671918 7.44753615 10.732 6.67 11.068333 5.95868126 11.6022408 5.35916326 12.27 4.943 12.9787706 4.51261309 13.7960237 4.2943319 14.625 4.314 15.4603841 4.29345959 16.2842915 4.51166497 17 4.943 17.6691261 5.35841436 18.2041897 5.95806058 18.541 6.67 18.904992 7.44777621 19.0866065 8.29838912 19.072 9.157L19.072 9.342C19.0866065 10.2006109 18.904992 11.0512238 18.541 11.829 18.2064001 12.5391656 17.6736963 13.1375024 17.007 13.552 16.2942058 13.9801775 15.4742561 14.1966109 14.643 14.176 13.8101842 14.1964596 12.9886718 13.9800713 12.274 13.552 11.6051915 13.1388493 11.0708588 12.5402438 10.736 11.829 10.3698132 11.0517903 10.1864607 10.2010485 10.2 9.342L10.2 9.157zM12.389 9.342C12.3560206 10.1193716 12.5513923 10.8893864 12.951 11.557 13.317603 12.1269898 13.9623517 12.4558575 14.639 12.418 15.0945124 12.4353523 15.5413897 12.2904095 15.9 12.009 16.2482424 11.7205609 16.5073118 11.3390664 16.647 10.909 16.8147257 10.4049079 16.8965319 9.87620997 16.889 9.345L16.889 9.16C16.8958198 8.6301483 16.8140261 8.1028833 16.647 7.6 16.5069855 7.1657119 16.2465565 6.78009651 15.896 6.488 15.5356185 6.20588857 15.0874131 6.05967305 14.63 6.075 14.1781104 6.05978723 13.7356074 6.20622452 13.382 6.488 13.0335637 6.78140588 12.7744142 7.16666558 12.634 7.6 12.4673316 8.10294547 12.3858766 8.63020594 12.393 9.16L12.389 9.342zM24.513 12.365C24.7644736 12.3631476 25.0149803 12.3336368 25.26 12.277L25.26 13.965C24.7996922 14.1111228 24.3189023 14.1823634 23.836 14.176 23.1655872 14.213254 22.507895 13.9822702 22.008 13.534 21.5145419 12.9714613 21.2731234 12.2313041 21.34 11.486L21.34 6.107 19.793 6.107 19.793 4.49 21.34 4.49 21.34 2.17 23.528 2.17 23.528 4.49 25.2 4.49 25.2 6.107 23.53 6.107 23.53 11.337C23.4948402 11.6304648 23.5840396 11.9252579 23.776 12.15 23.9878737 12.3078517 24.249485 12.3841698 24.513 12.365zM34.339 11.785C34.309446 12.4916085 34.4325765 13.1962835 34.7 13.851L34.7 14 32.467 14C32.3500724 13.7148038 32.267492 13.4167087 32.221 13.112 31.9174653 13.4377711 31.5528977 13.700749 31.148 13.886 30.7033019 14.0852473 30.2202246 14.1842525 29.733 14.176 29.1551058 14.1855947 28.5830498 14.0591944 28.063 13.807 27.5925047 13.57981 27.1941158 13.2267633 26.912 12.787 26.6363668 12.3507856 26.4932457 11.8439564 26.5 11.328 26.4533236 10.4101971 26.8787663 9.53215571 27.628 9 28.5852463 8.40568142 29.7033162 8.12301939 30.828 8.191L32.15 8.191 32.15 7.576C32.1758561 7.14263532 32.0271217 6.71695957 31.737 6.394 31.4064623 6.089195 30.9644082 5.93496484 30.516 5.968 30.2229659 5.96168039 29.9320164 6.01864238 29.663 6.135 29.4343232 6.23202735 29.236772 6.3901375 29.092 6.592 28.9588443 6.78234436 28.888881 7.00972495 28.892 7.242L26.7 7.242C26.7021599 6.72099756 26.8738017 6.21484728 27.189 5.8 27.5493262 5.32422753 28.0283099 4.95145478 28.578 4.719 29.2277496 4.43653839 29.9306276 4.2970541 30.639 4.31 31.2992043 4.29680575 31.9547796 4.42287793 32.563 4.68 33.0998167 4.90916207 33.5549897 5.2949787 33.869 5.787 34.1955207 6.32931095 34.3587083 6.95428481 34.339 7.587L34.339 11.785zM30.155 12.427C30.583537 12.4336116 31.005397 12.3203537 31.373 12.1 31.6973565 11.9131752 31.9656758 11.6427839 32.15 11.317L32.15 9.544 31.008 9.544C30.4022542 9.50416286 29.7985904 9.64810811 29.276 9.957 28.892328 10.2157361 28.6698728 10.6545933 28.688 11.117 28.6748987 11.4728316 28.8155205 11.8170999 29.074 12.062 29.3729473 12.319981 29.7608557 12.4509584 30.155 12.427L30.155 12.427z"/>
            <rect width="2.188" height="13.5" x="36.677" y=".5"/>
          </g>
          <path stroke="#979797" stroke-linecap="square" d="M0,37.959 L324.477,37.959"/>
          <g fill="#000" fill-rule="nonzero" transform="translate(258.88 .02)">
            <use xlink:href="#checkout-b"/>
            <use xlink:href="#checkout-b"/>
          </g>
        </g>
      </g>
    </g>
    <g transform="translate(43.5 398.5)">
      <path fill="#2A3F90" d="M227,6 C227,2.6862915 224.313708,2.02906125e-16 221,0 L6,0 C2.6862915,-2.02906125e-16 4.05812251e-16,2.6862915 0,6 L0,53 C4.05812251e-16,56.3137085 2.6862915,59 6,59 L221,59 C224.313708,59 227,56.3137085 227,53 L227,6 Z"/>
      <g transform="translate(53 20)">
        <g fill="#FFF" transform="translate(52)">
          <path d="M62.3 5.455L59.057 5.455 57.182 13.755 56.919 14.9C56.738 14.952 56.557 15 56.377 15.038 56.0360421 15.10699 55.6888587 15.1405019 55.341 15.138 55.0018793 15.1499373 54.6644534 15.084982 54.354 14.948 54.1250476 14.8370012 53.9439234 14.6469984 53.844 14.413 53.7440585 14.1550424 53.7047133 13.8775732 53.729 13.602 53.7545201 13.2644672 53.8097336 12.9298397 53.894 12.602L54.88 8.286 55.521 5.421 52.216 5.421 50.716 12.049C50.5438375 12.7977988 50.4390857 13.5605123 50.403 14.328 50.3659028 14.9818743 50.4727491 15.6359236 50.716 16.244 50.9594918 16.8022713 51.3816134 17.2637909 51.916 17.556 52.6563144 17.9191899 53.4777098 18.0855354 54.301 18.039 54.9254837 18.0452142 55.5486997 17.9814839 56.159 17.849 56.175 17.849 56.208 17.832 56.225 17.832 56.107673 18.4704691 55.7928733 19.0559966 55.325 19.506 54.7364429 19.9798036 53.9907755 20.2140746 53.237 20.162 52.8737615 20.16707 52.5106759 20.144001 52.151 20.093L51.51 22.906C51.9848014 22.9639152 52.4626794 22.9929686 52.941 22.993 53.8136026 23.0052912 54.6832606 22.8890448 55.522 22.648 56.226208 22.4290762 56.8763471 22.0641396 57.43 21.577 57.9777463 21.0611958 58.4288456 20.4516021 58.762 19.777 59.1541918 18.9591002 59.441467 18.0949228 59.617 17.205L61.853 7.332 62.3 5.455zM48.73 12.549C48.5312259 13.4024779 48.4701221 14.2822378 48.549 15.155 48.6557779 16.1448697 48.8994362 17.1151276 49.273 18.038L46.148 18.038C45.9390128 17.6600414 45.7879941 17.2528302 45.7 16.83 45.2919167 17.1775129 44.8384184 17.467846 44.352 17.693 43.8299732 17.9273076 43.263156 18.045039 42.691 18.038 42.0488211 18.0527122 41.4122345 17.9156645 40.833 17.638 40.3325816 17.3860745 39.8987905 17.0194422 39.567 16.568 39.2311086 16.0970641 38.9921478 15.564076 38.864 15 38.7150618 14.3666395 38.6432076 13.7176013 38.65 13.067 38.6462404 12.0538298 38.8243995 11.0482132 39.176 10.098 39.5153698 9.20251492 40.0171076 8.37735963 40.656 7.664 41.8126146 6.28399416 43.5097346 5.4719 45.31 5.437L50.325 5.437 48.73 12.549zM46.444 8.32C44.932 8.32 44.652 8.32 44.027 8.648 43.5856649 8.90326339 43.20438 9.25044406 42.909 9.666 42.5784968 10.1041679 42.3230242 10.5941616 42.153 11.116 41.9693265 11.6671391 41.8748041 12.2440637 41.873 12.825 41.846196 13.4252873 41.9645409 14.0231865 42.218 14.568 42.4819834 15.0156418 42.9846781 15.2660096 43.501 15.207 43.8129224 15.2110152 44.1212432 15.1400225 44.4 15 44.7231374 14.8213217 45.0125042 14.5874592 45.255 14.309 45.2883333 13.9303333 45.3376667 13.5333333 45.403 13.118 45.469 12.704 45.551 12.307 45.617 11.962L46.444 8.32zM37.762 10.443C37.7716395 11.4902041 37.593489 12.5306571 37.236 13.515 36.912843 14.4045822 36.4150872 15.2205752 35.772 15.915 35.1448197 16.5891245 34.3830424 17.1240039 33.536 17.485 32.6432931 17.8698006 31.6800684 18.0639442 30.708 18.055 30.205014 18.0511618 29.7032432 18.0049989 29.208 17.917L28.222 22.077 24.982 22.077 28.748 5.477 33.073 5.477C33.7933425 5.46114463 34.5089259 5.59744621 35.173 5.877 35.7345088 6.12034022 36.2346568 6.48588552 36.637 6.947 37.0227544 7.41309826 37.3083564 7.95366561 37.476 8.535 37.6737871 9.15137215 37.7703726 9.7957255 37.762 10.443zM29.82 15.155C31.1704432 15.5067692 32.6027587 15.0498294 33.5 13.981 33.8392975 13.5524592 34.1009166 13.0678038 34.273 12.549 34.4628939 11.9519161 34.5570596 11.3285328 34.552 10.702 34.5743761 10.1165309 34.4319756 9.53653509 34.141 9.028 33.8304693 8.54153302 33.274831 8.26853373 32.7 8.32L31.415 8.32 29.82 15.155zM23.012 15.155C22.6728901 15.1667987 22.3354948 15.1018493 22.025 14.965 21.7958306 14.8542988 21.6146158 14.6642009 21.515 14.43 21.4148494 14.172097 21.3754972 13.8945788 21.4 13.619 21.4260117 13.2815264 21.4812182 12.9469415 21.565 12.619L22.551 8.3 26.235 8.3 26.909 5.434 23.209 5.434 24.064 1.809 20.611 2.379 18.424 12.079C18.2516645 12.8273979 18.1472407 13.5898253 18.112 14.357 18.0739954 15.0108312 18.1805207 15.6650054 18.424 16.273 18.6672335 16.8314391 19.0894234 17.2930333 19.624 17.585 20.3642265 17.948448 21.1856903 18.1148074 22.009 18.068 22.6334837 18.0742142 23.2566997 18.0104839 23.867 17.878 23.916 17.861 23.999 17.844 24.048 17.827L24.722 14.875C24.5035237 14.9545441 24.2777783 15.0124877 24.048 15.048 23.707294 15.1193836 23.3601037 15.1552421 23.012 15.155z"/>
          <polygon points="14.773 5.455 11.912 18.055 15.152 18.055 18 5.455"/>
          <polygon points="18.342 4.005 18.835 1.812 15.6 1.812 15.1 4.005"/>
          <path d="M7.6,5.472 C8.22613072,5.46056805 8.84606152,5.59764506 9.409,5.872 C9.90589562,6.12168525 10.3389764,6.4819017 10.675,6.925 C11.0135178,7.39367725 11.2642406,7.91985644 11.415,8.478 C11.5842427,9.10243035 11.6673451,9.74706275 11.662,10.394 C11.668559,12.4004057 10.9302171,14.3378406 9.59,15.831 C8.95011004,16.5233942 8.17834001,17.0809726 7.32,17.471 C6.43198641,17.8736786 5.46701963,18.0784099 4.492,18.071 C4.36,18.071 4.13,18.071 3.801,18.054 C3.42622845,18.0512401 3.05231224,18.017795 2.683,17.954 C2.256,17.884 1.812,17.798 1.351,17.677 C0.889959581,17.5598374 0.443256118,17.3921559 0.019,17.177 L3.789,0.57 L7.16,0.017 L5.828,5.9 C6.10112461,5.7664604 6.38775686,5.66253526 6.683,5.59 C6.98110715,5.50532933 7.29016857,5.46555916 7.6,5.472 Z M4.772,15.242 C5.27708968,15.2480019 5.77332868,15.1091938 6.202,14.842 C6.65560238,14.5767376 7.05249448,14.2246998 7.37,13.806 C7.70514152,13.3619169 7.9661846,12.8665092 8.143,12.339 C8.32578768,11.7876712 8.41995796,11.2108361 8.422,10.63 C8.45118947,10.0404862 8.33259691,9.4530233 8.077,8.921 C7.77915337,8.48882582 7.26603671,8.25769219 6.745,8.321 C6.49492071,8.32033239 6.24593225,8.35397948 6.005,8.421 C5.67537587,8.49912744 5.37366149,8.66659276 5.133,8.905 L3.723,15.172 C3.94521423,15.2175789 4.17049553,15.2466582 4.397,15.259 C4.52263644,15.2427538 4.64941358,15.2370672 4.776,15.242 L4.772,15.242 Z"/>
        </g>
        <path fill="#97AAFF" d="M3.387,5.487 C3.98556164,5.47113108 4.58018676,5.58828009 5.128,5.83 C5.58040992,6.03209425 5.96307526,6.36327371 6.228,6.782 C6.48286714,7.20565271 6.61285949,7.69269072 6.603,8.187 C6.61808458,8.69699273 6.48915804,9.20091529 6.231,9.641 C5.97105326,10.0521761 5.58932568,10.3720303 5.139,10.556 C4.58186657,10.7791017 3.98491295,10.8856276 3.385,10.869 L1.221,10.869 L1.221,14.342 L0,14.342 L0,5.487 L3.387,5.487 Z M3.387,9.92 C3.9302872,9.96483851 4.47006434,9.79946912 4.895,9.458 C5.22963899,9.12745709 5.40719505,8.66974085 5.383,8.2 C5.38656017,7.89404583 5.31405538,7.59199981 5.172,7.321 C5.02170779,7.04603655 4.79111156,6.82346409 4.511,6.683 C4.16178835,6.5116428 3.77576702,6.42887488 3.387,6.442 L1.221,6.442 L1.221,9.92 L3.387,9.92 Z M12.852,12.907 C12.8527324,13.1463551 12.8738082,13.3852148 12.915,13.621 C12.9479262,13.8355284 13.0073817,14.0451342 13.092,14.245 L13.092,14.345 L11.864,14.345 C11.7773406,14.1248385 11.7221313,13.8935656 11.7,13.658 C11.457972,13.9062315 11.1704017,14.1055276 10.853,14.245 C10.5110042,14.3956951 10.1406989,14.4713928 9.767,14.467 C9.35236952,14.4744596 8.94164289,14.3858111 8.567,14.208 C8.23657456,14.0541948 7.95518143,13.8119129 7.754,13.508 C7.56395134,13.2145308 7.46448475,12.8716145 7.468,12.522 C7.45536451,12.095646 7.58754974,11.6775882 7.843,11.336 C8.11624615,10.9930794 8.4835792,10.7373016 8.9,10.6 C9.4241505,10.4249511 9.97451355,10.3413988 10.527,10.353 L11.673,10.353 L11.673,9.829 C11.691709,9.4754783 11.5576845,9.13094792 11.305,8.883 C11.008548,8.63657683 10.6286024,8.51374806 10.244,8.54 C9.98487032,8.53544013 9.72756195,8.58411089 9.488,8.683 C9.28498859,8.76399393 9.10625099,8.8958947 8.969,9.066 C8.84953199,9.21306036 8.78390598,9.39653092 8.783,9.586 L7.608,9.586 C7.61458795,9.24648068 7.73423513,8.91885857 7.948,8.655 C8.19924544,8.33510436 8.52650836,8.08312567 8.9,7.922 C9.344096,7.7272021 9.82514296,7.63099271 10.31,7.64 C10.7638514,7.63041299 11.2148356,7.71414289 11.635,7.886 C12.0000363,8.03781238 12.3106304,8.29646653 12.526,8.628 C12.7493461,8.99223048 12.8609529,9.41397235 12.847,9.841 L12.852,12.907 Z M9.937,13.491 C10.1943706,13.4929611 10.449813,13.4464862 10.69,13.354 C10.9100645,13.2702378 11.113292,13.1476238 11.29,12.992 C11.4476315,12.8553977 11.5779328,12.6901458 11.674,12.505 L11.674,11.143 L10.717,11.143 C10.1849546,11.1128269 9.65397653,11.2184719 9.174,11.45 C8.83549276,11.6246857 8.62739711,11.9782538 8.639,12.359 C8.63607392,12.5617845 8.68826391,12.7615581 8.79,12.937 C8.89623964,13.1093343 9.04914881,13.2480274 9.231,13.337 C9.45066182,13.4439667 9.6927463,13.4967727 9.937,13.491 L9.937,13.491 Z M19.509,7.761 L16.777,15.361 C16.6167148,15.7910318 16.369194,16.1832518 16.05,16.513 C15.706415,16.8504882 15.2369478,17.0282617 14.756,17.003 C14.6410045,17.0005548 14.5263523,16.9895241 14.413,16.97 C14.3075443,16.9520036 14.2030753,16.92864 14.1,16.9 L14.1,16 C14.146,16.009 14.2,16.016 14.257,16.022 C14.634224,16.0599944 15.0138966,15.9792353 15.343,15.791 C15.6035445,15.5707648 15.7914283,15.276913 15.882,14.948 L16.14,14.273 L13.7,7.761 L14.985,7.761 L16.672,12.688 L18.252,7.761 L19.509,7.761 Z M31.791,7.761 L29.814,14.342 L28.863,14.342 L27.214,9.373 L25.6,14.342 L24.649,14.342 L22.674,7.761 L23.845,7.761 L25.18,12.645 L26.76,7.761 L27.711,7.761 L29.317,12.755 L30.626,7.761 L31.791,7.761 Z M33.443,5.361 C33.6315508,5.34997385 33.8165561,5.41560925 33.956,5.543 C34.0796354,5.66471488 34.1467169,5.83260007 34.141,6.006 C34.146505,6.17642789 34.0792352,6.34114812 33.956,6.459 C33.8154969,6.58432406 33.6309695,6.64871082 33.443,6.638 C33.2566837,6.64980726 33.0736027,6.5851692 32.936,6.459 C32.8160635,6.33930586 32.7509228,6.17536843 32.756,6.006 C32.7504058,5.8335873 32.8154187,5.66635959 32.936,5.543 C33.0733343,5.41647542 33.2567137,5.3520937 33.443,5.365 L33.443,5.361 Z M32.843,14.338 L32.843,7.761 L34.021,7.761 L34.021,14.342 L32.843,14.338 Z M38.537,14.338 C38.2445864,14.4224889 37.9413537,14.4635938 37.637,14.46 C37.2160846,14.4796255 36.8047143,14.3306253 36.494,14.046 C36.173357,13.6753561 36.0177087,13.1899934 36.063,12.702 L36.063,8.619 L34.823,8.619 L34.823,7.761 L36.064,7.761 L36.064,6.161 L37.241,6.161 L37.241,7.761 L38.513,7.761 L38.513,8.619 L37.241,8.619 L37.241,12.712 C37.210853,12.941276 37.2841288,13.1720949 37.441,13.342 C37.5995033,13.4567499 37.7926062,13.5135864 37.988,13.503 C38.085024,13.5024025 38.1819022,13.4953872 38.278,13.482 C38.3627229,13.4709318 38.4468306,13.4555787 38.53,13.436 L38.537,14.338 Z M42.814,7.638 C44.2713333,7.63933333 45,8.43666667 45,10.03 L45,14.342 L43.823,14.342 L43.823,10.018 C43.8584378,9.62294765 43.7374309,9.22976489 43.486,8.923 C43.2071437,8.67633989 42.840185,8.55329868 42.469,8.582 C42.1233616,8.5778698 41.784428,8.67749469 41.496,8.868 C41.2065901,9.06116911 40.9714574,9.32522001 40.813,9.635 L40.813,14.342 L39.636,14.342 L39.636,5 L40.813,5 L40.813,8.54 C41.0550447,8.25647523 41.3560475,8.02918743 41.695,7.874 C42.0468592,7.715434 42.4290874,7.63557561 42.815,7.64 L42.814,7.638 Z"/>
      </g>
    </g>
    <g transform="translate(42.248 19.248)">
      <path fill="#434343" d="M24.072,6.849 C24.9317406,6.77391641 25.7869925,7.03605023 26.457,7.58 C26.463,6.915 26.452,6.251 26.463,5.587 C26.2745847,5.47869682 26.0728966,5.39533241 25.863,5.339 C24.8501001,5.05137799 23.7775529,5.04826414 22.763,5.33 C21.8231494,5.588806 21.0025941,6.16648265 20.442,6.964 C19.8236071,7.92405939 19.5337344,9.05898453 19.616,10.198 C19.653183,11.294923 20.1048727,12.3369541 20.88,13.114 C21.6227268,13.8047674 22.5884745,14.2063935 23.602,14.246 C24.5911652,14.3320448 25.5839028,14.1269625 26.458,13.656 C26.45,13.027 26.458,12.398 26.458,11.768 C25.9094952,12.1810719 25.2636717,12.4456012 24.583,12.536 C23.8799193,12.6109 23.1760614,12.4017228 22.628,11.955 C22.1360709,11.5064354 21.8341457,10.8868447 21.784,10.223 C21.6543899,9.37745639 21.8525542,8.5143331 22.338,7.81 C22.7552937,7.26025176 23.3846456,6.91145871 24.072,6.849 Z M17.013,1.637 C16.4134176,1.71052302 15.9605204,2.21597344 15.953,2.82 C15.9530789,3.39063191 16.3614773,3.87944687 16.923,3.981 C17.4630873,4.10337204 18.0214085,3.87016954 18.314,3.4 C18.5554032,2.9631212 18.4974388,2.42185436 18.169,2.046 C17.8789113,1.72154843 17.4438365,1.56672958 17.014,1.635 L17.013,1.637 Z M11.264,1.902 C10.057,4.902 8.822,7.886 7.606,10.88 C7.352,10.285 7.126,9.68 6.884,9.08 C5.93733333,6.684 4.98866667,4.289 4.038,1.895 L0.999,1.895 C0.999,5.947 0.999,9.999 0.999,14.051 C1.662,14.051 2.325,14.051 2.988,14.051 C2.988,12.237 2.988,10.4226667 2.988,8.608 C2.995,7.298 2.974,5.987 2.999,4.677 C3.037,4.736 3.072,4.798 3.104,4.862 C4.343,7.925 5.574,10.992 6.819,14.053 C7.319,14.045 7.819,14.062 8.319,14.044 C9.519,10.981 10.75,7.929 11.958,4.868 C11.9902085,4.8009051 12.0269606,4.73608769 12.068,4.674 C12.077,4.808 12.082,4.943 12.081,5.074 C12.081,8.064 12.081,11.054 12.081,14.044 C12.781,14.054 13.486,14.044 14.19,14.044 C14.19,9.99266667 14.19,5.941 14.19,1.889 C13.214,1.898 12.242,1.886 11.265,1.902 L11.264,1.902 Z M31.135,5.472 C30.6326873,5.79364771 30.2524905,6.27417425 30.055,6.837 C30.055,6.337 30.055,5.837 30.055,5.337 C29.367,5.337 28.68,5.33 27.992,5.337 C27.996,8.23966667 27.996,11.1423333 27.992,14.045 L30.052,14.045 C30.052,12.6563333 30.052,11.2676667 30.052,9.879 C30.0093405,9.27059216 30.1121771,8.66077169 30.352,8.1 C30.5800281,7.55124123 31.0733247,7.15758527 31.659,7.057 C32.1534298,7.00646129 32.65054,7.1229935 33.071,7.388 C33.071,6.688 33.071,5.998 33.071,5.302 C32.4314825,5.07842497 31.7267372,5.14034057 31.136,5.472 L31.135,5.472 Z M16.143,5.341 C16.143,8.24433333 16.143,11.1476667 16.143,14.051 L18.217,14.051 C18.217,11.151 18.217,8.251 18.217,5.345 C17.53,5.335 16.837,5.335 16.142,5.341 L16.143,5.341 Z M47.504,9.302 C46.89,8.948 46.183,8.78 45.591,8.384 C45.2583516,8.13952416 45.1346817,7.70008373 45.291,7.318 C45.4995432,6.96648816 45.8824611,6.75588327 46.291,6.768 C47.0724308,6.74561696 47.840752,6.97219116 48.485,7.415 C48.485,6.776 48.485,6.138 48.485,5.499 C47.564913,5.14325985 46.5665153,5.03969162 45.593,5.199 C44.755557,5.32319767 44.0048583,5.78322177 43.514,6.473 C43.1358496,7.09676427 43.0313173,7.8487457 43.225,8.552 C43.3444332,9.02288735 43.6192561,9.4397021 44.005,9.735 C44.5673898,10.1105329 45.1714225,10.4195963 45.805,10.656 C46.1492483,10.7868434 46.4605757,10.991664 46.717,11.256 C46.8477605,11.4441066 46.8950655,11.6778503 46.8477369,11.9019985 C46.8004083,12.1261467 46.662645,12.3208135 46.467,12.44 C46.0106573,12.6284681 45.5079762,12.6744833 45.025,12.572 C44.3377221,12.4484652 43.6878117,12.1693458 43.125,11.756 C43.118,12.428 43.125,13.099 43.125,13.771 C43.7989346,14.056572 44.5179394,14.22109 45.249,14.257 C46.2964807,14.3572646 47.3412814,14.0407346 48.157,13.376 C48.9543735,12.6193086 49.1739764,11.4353103 48.701,10.443 C48.4288774,9.94858509 48.0108763,9.55013959 47.504,9.302 L47.504,9.302 Z M56.676,5.602 C55.7063584,5.16052335 54.6281557,5.01444427 53.576,5.182 C52.7256738,5.27616266 51.9222518,5.61993959 51.267,6.17 C50.4977134,6.86488663 50.0078507,7.81617291 49.889,8.846 C49.7251516,9.86591488 49.8387918,10.9111286 50.218,11.872 C50.6260638,12.8105681 51.389466,13.5491588 52.341,13.926 C53.2824408,14.2691366 54.2984124,14.3547502 55.284,14.174 C56.298561,14.0150395 57.2158973,13.4794208 57.853,12.674 C58.4919382,11.8190233 58.8247787,10.7740098 58.798,9.707 C58.8237375,8.99893278 58.7134107,8.29250155 58.473,7.626 C58.1500791,6.74823069 57.5085277,6.0242094 56.676,5.598 L56.676,5.602 Z M56.586,10.582 C56.5198874,11.047928 56.3338036,11.4886711 56.046,11.861 C55.7324977,12.2209305 55.2982592,12.4538758 54.825,12.516 C54.3212669,12.6010437 53.8038236,12.5449729 53.33,12.354 C52.827539,12.1285782 52.4328787,11.7159787 52.23,11.204 C51.9993444,10.5989121 51.9143858,9.94801993 51.982,9.304 C52.0057758,8.67358421 52.2272239,8.06661336 52.615,7.569 C53.0016605,7.12675971 53.5530456,6.86281799 54.14,6.839 C54.7410972,6.77704671 55.3424292,6.95414152 55.814,7.332 C56.2159836,7.69523431 56.4825641,8.1843179 56.57,8.719 C56.6849881,9.33286777 56.690405,9.96224396 56.586,10.578 L56.586,10.582 Z M39.912,5.535 C38.9663942,5.1446394 37.9313953,5.02283411 36.921,5.183 C35.8506059,5.29859811 34.8663391,5.82351649 34.174,6.648 C33.5828365,7.41304247 33.2457671,8.34382976 33.21,9.31 C33.0833124,10.4503594 33.3534795,11.5995408 33.975,12.564 C34.553996,13.3718698 35.4157481,13.93233 36.389,14.134 C37.1957366,14.3014421 38.0282634,14.3014421 38.835,14.134 C39.7861811,13.9452641 40.6379064,13.4210982 41.235,12.657 C41.7869885,11.9217138 42.1066638,11.0382538 42.153,10.12 C42.2431983,9.18370683 42.1002833,8.23964384 41.737,7.372 C41.3706202,6.5592633 40.7223181,5.90669837 39.912,5.535 Z M39.719,11.374 C39.5210138,11.8304708 39.1524631,12.1914853 38.692,12.38 C38.1465488,12.579323 37.5528852,12.605514 36.992,12.455 C36.4222138,12.2977092 35.9460263,11.9058542 35.682,11.377 C35.3746025,10.6942585 35.2644469,9.93910405 35.364,9.197 C35.3985484,8.51196552 35.6861173,7.86413364 36.171,7.379 C36.5528646,7.04489543 37.0388506,6.85368205 37.546,6.838 C38.1861472,6.77685365 38.821899,6.99228873 39.293,7.43 C39.7429795,7.92950303 39.9988116,8.5738734 40.014,9.246 C40.0863366,9.96771933 39.9851957,10.6962769 39.719,11.371 L39.719,11.374 Z M69.733,7.034 L69.733,5.335 C69.044,5.335 68.354,5.33 67.665,5.335 C67.649,4.465 67.665,3.595 67.657,2.726 C66.968,2.933 66.283,3.154 65.589,3.351 C65.572,4.011 65.589,4.672 65.58,5.331 C64.561,5.331 63.542,5.331 62.523,5.331 C62.505162,4.81035307 62.5181848,4.28910659 62.562,3.77 C62.6085566,3.34535257 62.8741809,2.97613482 63.262,2.797 C63.7734741,2.63561089 64.3283373,2.6864133 64.802,2.938 C64.802,2.338 64.802,1.747 64.802,1.152 C63.7819046,0.838097267 62.6768254,0.967658276 61.757,1.509 C61.184683,1.88329952 60.7664575,2.45134773 60.579,3.109 C60.4378873,3.84068163 60.3895065,4.58722508 60.435,5.331 C59.952,5.331 59.469,5.323 58.987,5.331 C58.987,5.888 58.987,6.445 58.987,7.001 C59.471,7.011 59.956,7.001 60.441,7.009 C60.437,9.35233333 60.437,11.6953333 60.441,14.038 L62.53,14.038 C62.53,11.694 62.53,9.35 62.53,7.006 C63.5493333,7.006 64.5686667,7.006 65.588,7.006 C65.588,8.5 65.588,9.994 65.588,11.487 C65.5508823,12.1980266 65.7591751,12.9002203 66.178,13.476 C66.6024931,13.939653 67.1966434,14.2116563 67.825,14.23 C68.4758375,14.2862186 69.1306874,14.1861054 69.735,13.938 L69.735,12.228 C69.2727546,12.5653554 68.6629034,12.622541 68.146,12.377 C67.8721553,12.1874059 67.7047391,11.8789294 67.695,11.546 C67.632,11.009 67.672,10.467 67.661,9.928 C67.661,8.955 67.661,7.981 67.661,7.008 C68.348,7.023 69.042,7.003 69.732,7.035 L69.733,7.034 Z" transform="translate(29.374 3.158)"/>
      <path fill="#F25022" d="M0.998,0.994 L0.998,10.632 L10.637,10.632 C10.637,7.41933333 10.637,4.20666667 10.637,0.994 L0.998,0.994 Z" transform="translate(.002 .002)"/>
      <path fill="#02A4EF" d="M0.998,0.997 L0.998,10.636 L10.638,10.636 C10.638,7.42333333 10.638,4.21066667 10.638,0.998 C7.426,0.996666667 4.21266667,0.996333333 0.998,0.997 Z" transform="translate(.002 10.625)"/>
      <path fill="#FFB902" d="M0.997,0.998 C0.997,4.21 0.997,7.42266667 0.997,10.636 L10.637,10.636 L10.637,0.998 C7.42566667,0.997333333 4.21233333,0.997333333 0.997,0.998 Z" transform="translate(10.65 10.625)"/>
      <path fill="#80BA01" d="M0.998,0.994 C0.998,4.20666667 0.998,7.41933333 0.998,10.632 L10.636,10.632 C10.636,7.41933333 10.636,4.20666667 10.636,0.994 L0.998,0.994 Z" transform="translate(10.65 .002)"/>
    </g>
  </g>
</svg>
