<?xml version="1.0" encoding="utf-8"?>
<!-- Generator: Adobe Illustrator 24.1.0, SVG Export Plug-In . SVG Version: 6.00 Build 0)  -->
<svg version="1.1" id="Livello_1" xmlns="http://www.w3.org/2000/svg" xmlns:xlink="http://www.w3.org/1999/xlink" x="0px" y="0px"
	 viewBox="0 0 519.09 208.73" style="enable-background:new 0 0 519.09 208.73;" xml:space="preserve">
<style type="text/css">
	.st0{fill:#00416E;}
	.st1{fill:#3E87C8;}
</style>
<g>
	<g>
		<path class="st0" d="M85.16,142.58h4.71c2.8,0,4.54,1.59,4.54,4v0.03c0,2.68-2.15,4.08-4.78,4.08h-2.37v3.84h-2.1V142.58z
			 M89.7,148.79c1.59,0,2.58-0.89,2.58-2.13v-0.03c0-1.4-1.01-2.13-2.58-2.13h-2.44v4.3H89.7z"/>
		<path class="st0" d="M96.37,142.58h5.33c1.5,0,2.68,0.44,3.45,1.2c0.63,0.65,0.99,1.54,0.99,2.58v0.03c0,1.96-1.18,3.14-2.83,3.62
			l3.23,4.52h-2.49l-2.94-4.17h-2.63v4.17h-2.1V142.58z M101.55,148.5c1.5,0,2.46-0.79,2.46-2v-0.03c0-1.28-0.92-1.98-2.48-1.98
			h-3.06v4.01H101.55z"/>
		<path class="st0" d="M108.65,142.58h2.1v11.95h-2.1V142.58z"/>
		<path class="st0" d="M112.73,142.58h2.32l3.6,9.19l3.58-9.19h2.27l-4.95,12.04h-1.86L112.73,142.58z"/>
		<path class="st0" d="M130.6,142.49h1.95l5.26,12.04h-2.22l-1.21-2.89h-5.65l-1.23,2.89h-2.15L130.6,142.49z M133.6,149.78
			l-2.07-4.78l-2.05,4.78H133.6z"/>
		<path class="st0" d="M142.6,144.52h-3.79v-1.95h9.7v1.95h-3.79v10.01h-2.12V144.52z"/>
		<path class="st0" d="M150.53,142.58h8.86v1.88h-6.76v3.11h5.99v1.88h-5.99v3.21h6.85v1.88h-8.95V142.58z"/>
		<path class="st0" d="M170.97,142.49h1.95l5.26,12.04h-2.22l-1.21-2.89h-5.65l-1.23,2.89h-2.15L170.97,142.49z M173.97,149.78
			l-2.07-4.78l-2.05,4.78H173.97z"/>
		<path class="st0" d="M178.39,142.58h2.32l3.6,9.19l3.58-9.19h2.27l-4.95,12.04h-1.86L178.39,142.58z"/>
		<path class="st0" d="M192.17,142.58h2.1v11.95h-2.1V142.58z"/>
		<path class="st0" d="M201.5,142.49h1.95l5.26,12.04h-2.22l-1.21-2.89h-5.65l-1.23,2.89h-2.15L201.5,142.49z M204.51,149.78
			l-2.07-4.78l-2.05,4.78H204.51z"/>
		<path class="st0" d="M212.56,144.52h-3.79v-1.95h9.7v1.95h-3.79v10.01h-2.12V144.52z"/>
		<path class="st0" d="M220.64,142.58h2.1v11.95h-2.1V142.58z"/>
		<path class="st0" d="M225.21,148.59v-0.03c0-3.36,2.59-6.18,6.27-6.18s6.23,2.78,6.23,6.15v0.03c0,3.36-2.59,6.18-6.27,6.18
			C227.77,154.73,225.21,151.95,225.21,148.59z M235.51,148.59v-0.03c0-2.32-1.69-4.25-4.06-4.25c-2.37,0-4.03,1.9-4.03,4.22v0.03
			c0,2.32,1.69,4.24,4.06,4.24C233.85,152.79,235.51,150.91,235.51,148.59z"/>
		<path class="st0" d="M240.08,142.58h1.95l6.4,8.26v-8.26h2.07v11.95h-1.76l-6.59-8.5v8.5h-2.07V142.58z"/>
	</g>
</g>
<g>
	<path class="st0" d="M126.66,74.51c-2.37-2.56-4.67-4.26-6.89-5.11c-2.22-0.85-4.46-1.28-6.71-1.28c-3.35,0-6.38,0.59-9.08,1.78
		c-2.71,1.19-5.04,2.83-6.98,4.93c-1.95,2.1-3.46,4.55-4.52,7.35c-1.07,2.8-1.6,5.81-1.6,9.04c0,3.47,0.53,6.66,1.6,9.59
		c1.06,2.92,2.57,5.45,4.52,7.58c1.95,2.13,4.27,3.8,6.98,5.02c2.71,1.22,5.74,1.83,9.08,1.83c2.62,0,5.16-0.62,7.62-1.87
		c2.46-1.25,4.76-3.24,6.89-5.98l9.49,6.75c-2.92,4.02-6.48,6.94-10.68,8.76c-4.2,1.83-8.67,2.74-13.42,2.74
		c-4.99,0-9.57-0.81-13.74-2.42c-4.17-1.61-7.76-3.89-10.77-6.85c-3.01-2.95-5.37-6.5-7.08-10.64c-1.7-4.14-2.56-8.73-2.56-13.78
		c0-5.17,0.85-9.87,2.56-14.1c1.7-4.23,4.06-7.83,7.08-10.82c3.01-2.98,6.6-5.28,10.77-6.89c4.17-1.61,8.75-2.42,13.74-2.42
		c4.38,0,8.44,0.78,12.19,2.33c3.74,1.55,7.23,4.18,10.45,7.9L126.66,74.51z"/>
	<path class="st0" d="M144.18,59.36h11.5v64.63h-11.5V59.36z"/>
	<path class="st0" d="M169.47,59.36h42.81v10.41h-31.31v15.88h29.67v10.41h-29.67v17.53h32.95v10.41h-44.46V59.36z"/>
	<path class="st0" d="M224.88,59.36h11.5v54.22h27.48v10.41h-38.98V59.36z"/>
	<path class="st0" d="M264.77,91.94c0-5.17,0.85-9.87,2.56-14.1c1.7-4.23,4.06-7.83,7.08-10.82c3.01-2.98,6.6-5.28,10.77-6.89
		c4.17-1.61,8.75-2.42,13.74-2.42c5.05-0.06,9.68,0.68,13.88,2.24s7.82,3.82,10.86,6.8c3.04,2.98,5.42,6.57,7.12,10.77
		c1.7,4.2,2.56,8.89,2.56,14.06c0,5.05-0.85,9.65-2.56,13.78c-1.7,4.14-4.08,7.7-7.12,10.68c-3.04,2.98-6.66,5.31-10.86,6.98
		c-4.2,1.67-8.83,2.54-13.88,2.6c-4.99,0-9.57-0.81-13.74-2.42c-4.17-1.61-7.76-3.89-10.77-6.85c-3.01-2.95-5.37-6.5-7.08-10.64
		C265.63,101.59,264.77,97,264.77,91.94z M276.82,91.21c0,3.47,0.53,6.66,1.6,9.59c1.06,2.92,2.57,5.45,4.52,7.58
		c1.95,2.13,4.27,3.8,6.98,5.02c2.71,1.22,5.74,1.83,9.08,1.83c3.35,0,6.39-0.61,9.13-1.83c2.74-1.22,5.08-2.89,7.03-5.02
		c1.95-2.13,3.45-4.66,4.52-7.58c1.06-2.92,1.6-6.12,1.6-9.59c0-3.22-0.53-6.24-1.6-9.04c-1.07-2.8-2.57-5.25-4.52-7.35
		c-1.95-2.1-4.29-3.74-7.03-4.93c-2.74-1.19-5.78-1.78-9.13-1.78c-3.35,0-6.38,0.59-9.08,1.78c-2.71,1.19-5.04,2.83-6.98,4.93
		c-1.95,2.1-3.46,4.55-4.52,7.35C277.36,84.98,276.82,87.99,276.82,91.21z"/>
</g>
<g>
	<path class="st1" d="M415.77,60.31c-0.03,0.11-0.06,0.22-0.1,0.35c-0.66,2.23-2.05,6.64-4.24,12.39c-0.01,1.67-0.17,4.06-0.83,6.57
		c-1.22,4.62-5.19,10.56-5.19,10.56s0.62,0.39,0.3,1.27c-0.32,0.88,0.13,1.88,0.13,1.88l10.98,24.37c0,0,0.17,0.29,0,0.9
		c-0.17,0.61-2.81,5.05-2.81,5.05l-14.19-21.01l-0.54,0.37c-0.54,0.38-1.04,0.06-1.04,0.06l-1.01,1.52l1.54,1.16
		c0,0,0.62,0.39,0.4,0.79c-0.22,0.4-2.9,5.53-2.9,5.53s-0.58,1.05-0.89,1.6c-0.81,1.46-2.06,0.68-2.06,0.68l-0.99-0.63l-1.78-0.63
		c-1.1,1.58-2.21,3.12-3.34,4.62l2.06,4.86c0,0,0.57,1.08,0.4,1.69c-0.17,0.61-0.47,1.14-0.47,1.14l-4.91-3.95
		c-13.72,16.95-29.41,27.81-46.84,32.41h48.56c11.04,0,21.29-5.72,27.09-15.11l40.4-78.43H415.77z"/>
	<path class="st0" d="M331.57,152.62c18.92-3.53,35.89-14.45,50.59-32.52l-5.69-2.74c0,0,0.3-0.53,0.71-0.98
		c0.42-0.45,1.59-0.43,1.59-0.43l5.28-0.44l2.04-5.18l-1.52-1.5l-1-0.63c0,0-1.24-0.78-0.43-2.25c0.31-0.55,0.89-1.6,0.89-1.6
		s2.93-4.98,3.15-5.37c0.22-0.4,0.84-0.01,0.84-0.01l1.69,0.89l0.76-1.68c0,0-0.5-0.31-0.45-1l0.05-0.69l-24.08-3.19
		c0,0,2.39-4.6,2.81-5.06c0.42-0.45,0.74-0.43,0.74-0.43l25.31-1.43c0,0,1.04-0.06,1.61-0.78c0.57-0.72,1.19-0.33,1.19-0.33
		s2.97-6.57,6.18-9.93c2.05-2.15,4.32-3.57,5.69-4.32c1.82-4.84,3.01-8.6,3.65-10.73h-5.9c-16.38,0-34.64,8.56-42.95,22.68
		c-42.32,71.9-100.76,70.52-105.77,70.26l9.92,0.6h56.37c1.79-0.29,3.56-0.62,5.31-0.96L331.57,152.62z"/>
</g>
</svg>
