<svg id="Layer_1" data-name="Layer 1" xmlns="http://www.w3.org/2000/svg" viewBox="0 0 219.96 180.03"><defs><style>.cls-1{fill:#231f20;}</style></defs><title>CRM Logo square</title><path class="cls-1" d="M163.11,26.48l-52.2,46.84L80.75,41.25,94.48,20.79h33.58l12.45,14L149,27.24,133.13,9.47H88.44l-22.11,33,44.33,47.13,49.24-46.5a54.41,54.41,0,0,1,3.38,19.84A52.18,52.18,0,1,1,64.19,40.06l-8.46-8.22a63.49,63.49,0,1,0,107.38-5.36Z"/><path class="cls-1" d="M19.62,154.62a9.43,9.43,0,0,1-.17-13.54c1.71-1.57,4-2.52,7.52-2.52a24,24,0,0,1,3.45.24c.9.12,1.66.33,2.37.4.27,0,.36.15.36.29s-.07.48-.12,1.31,0,2.09-.07,2.57-.07.54-.29.54-.23-.19-.23-.52a3.46,3.46,0,0,0-.93-2.19,7.12,7.12,0,0,0-4.83-1.47,6.21,6.21,0,0,0-4.47,1.47c-1.74,1.6-2.19,3.86-2.19,6.16,0,5.66,4.31,8.47,7.49,8.47,2.12,0,3.4-.24,4.35-1.33a3.81,3.81,0,0,0,.81-1.57c.08-.38.12-.48.31-.48s.22.17.22.36a22.59,22.59,0,0,1-.53,3.16.81.81,0,0,1-.62.69,13.71,13.71,0,0,1-4.27.55C24.52,157.21,21.78,156.5,19.62,154.62Z"/><path class="cls-1" d="M38.64,145.79c0-3.61,0-4.28,0-5s-.24-1.19-1-1.35a4.58,4.58,0,0,0-.93-.08c-.26,0-.4,0-.4-.21s.17-.21.52-.21c1.26,0,2.76.07,3.26.07.81,0,2.62-.07,3.35-.07a7.62,7.62,0,0,1,4.38,1,4.13,4.13,0,0,1,1.62,3.26c0,1.76-.74,3.37-3.14,5.32,2.11,2.67,3.75,4.79,5.16,6.26a4.72,4.72,0,0,0,2.66,1.62,4.63,4.63,0,0,0,.67.07c.19,0,.28.07.28.19s-.16.24-.45.24H52.29a4.74,4.74,0,0,1-2.54-.46c-1-.54-1.93-1.66-3.26-3.49-1-1.31-2.05-2.93-2.36-3.28a.46.46,0,0,0-.42-.17l-2.07,0c-.12,0-.19,0-.19.19V150c0,2.22,0,4.1.12,5.09.07.69.21,1.22.92,1.31a10.47,10.47,0,0,0,1.17.1c.19,0,.28.07.28.19s-.16.24-.47.24c-1.38,0-3.14-.08-3.5-.08s-1.95.08-2.9.08c-.31,0-.47-.08-.47-.24s.09-.19.38-.19a3.66,3.66,0,0,0,.85-.1c.48-.09.6-.62.69-1.31.12-1,.12-2.87.12-5.06Zm2.81,1.88c0,.26,0,.36.21.43a6.14,6.14,0,0,0,1.81.24,2.38,2.38,0,0,0,1.69-.41,4.18,4.18,0,0,0,1.4-3.56c0-3.38-2.23-4.36-3.64-4.36a5.26,5.26,0,0,0-1.26.1c-.17,0-.21.14-.21.33Z"/><path class="cls-1" d="M57.83,139c.07-.4.21-.62.4-.62s.34.12.65.74l6.49,13.41,6.47-13.58c.19-.38.31-.57.52-.57s.36.24.43.74L75,153.81c.22,1.5.45,2.19,1.17,2.4a4.88,4.88,0,0,0,1.47.24c.22,0,.38,0,.38.16s-.28.27-.62.27c-.59,0-3.87-.08-4.82-.15-.55,0-.69-.12-.69-.26s.09-.19.26-.26.21-.36.12-1l-1.43-10.47h-.1l-5.18,10.8c-.55,1.12-.67,1.33-.88,1.33s-.45-.47-.83-1.19c-.57-1.09-2.45-4.73-2.74-5.4-.21-.5-1.64-3.49-2.47-5.28h-.1l-1.23,9.47a9,9,0,0,0-.07,1.12c0,.45.31.66.71.76a5,5,0,0,0,1,.12c.19,0,.36.05.36.16s-.22.27-.58.27c-1,0-2.06-.08-2.49-.08s-1.6.08-2.36.08c-.23,0-.43,0-.43-.27s.15-.16.39-.16a3.1,3.1,0,0,0,.71-.07c.66-.15.85-1.07,1-1.88Z"/><path class="cls-1" d="M82.11,145.79c0-3.61,0-4.28,0-5s-.24-1.19-1-1.35a4.65,4.65,0,0,0-.93-.08c-.26,0-.41,0-.41-.21s.17-.21.53-.21c1.26,0,2.76.07,3.38.07s2.06-.07,3-.07c.34,0,.5,0,.5.21s-.14.21-.43.21a3.48,3.48,0,0,0-.69.08c-.64.11-.83.52-.88,1.35s0,1.43,0,5v4.4c0,1,.07,2.17.07,3.36a13,13,0,0,1-.57,4.21,9,9,0,0,1-4,4.49c-.31.19-.69.38-1.19.62a1.08,1.08,0,0,1-.47.14.18.18,0,0,1-.19-.19c0-.12.12-.21.52-.43a4.77,4.77,0,0,0,1.14-.9c1.81-1.83,1.79-4.21,1.79-8.87Z"/><path class="cls-1" d="M92.36,145.79c0-3.61,0-4.28,0-5s-.24-1.19-1-1.35a4.55,4.55,0,0,0-.92-.08c-.26,0-.41,0-.41-.21s.17-.21.53-.21l1.92,0c.62,0,1.17.05,1.5.05.76,0,5.49,0,5.95,0a7.54,7.54,0,0,0,1-.14,2.62,2.62,0,0,1,.38-.09c.12,0,.14.09.14.21a14.9,14.9,0,0,0-.19,1.55c0,.23-.07,1.28-.12,1.57,0,.11-.07.26-.24.26s-.21-.12-.21-.34a2.48,2.48,0,0,0-.14-.85c-.17-.43-.41-.72-1.6-.86-.4-.05-2.9-.09-3.37-.09-.12,0-.17.07-.17.23v6c0,.17,0,.26.17.26.52,0,3.26,0,3.8,0s.93-.11,1.14-.35.27-.31.38-.31.17,0,.17.19-.09.52-.19,1.74c0,.47-.09,1.42-.09,1.59s0,.45-.22.45a.19.19,0,0,1-.21-.21,7.87,7.87,0,0,0-.1-.86c-.12-.47-.45-.83-1.33-.93-.45,0-2.81-.07-3.38-.07-.11,0-.14.1-.14.24V150c0,.81,0,3,0,3.69.05,1.64.43,2,2.86,2a6.14,6.14,0,0,0,2.23-.28c.62-.29.9-.79,1.07-1.76,0-.26.1-.36.26-.36s.19.19.19.43a18.51,18.51,0,0,1-.31,2.64c-.16.62-.38.62-1.28.62-1.78,0-3.09,0-4.12-.07s-1.76-.08-2.47-.08c-.26,0-.78,0-1.35,0s-1.17,0-1.65,0c-.3,0-.47-.08-.47-.24s.09-.19.38-.19a3.76,3.76,0,0,0,.86-.1c.47-.09.59-.62.69-1.31.12-1,.12-2.87.12-5.06Z"/><path class="cls-1" d="M105.62,141.23a3.38,3.38,0,0,0-.88-1.69,2,2,0,0,0-.95-.22c-.24,0-.38,0-.38-.21s.19-.21.52-.21c1.24,0,2.55.07,2.76.07s1.26-.07,2.64-.07c.34,0,.5.07.5.21s-.19.21-.43.21a1.19,1.19,0,0,0-.59.1c-.21.09-.26.26-.26.52a16.21,16.21,0,0,0,.52,2.19c.4,1.57,2.62,8.78,3,10.11h.08l4.61-12.39c.24-.67.4-.86.59-.86s.39.36.7,1.12l4.94,12h.07c.43-1.59,2.33-7.87,3.17-10.65a5.3,5.3,0,0,0,.23-1.38c0-.38-.21-.72-1.14-.72-.24,0-.4-.07-.4-.21s.19-.21.54-.21c1.27,0,2.26.07,2.48.07s1.19-.07,2-.07c.26,0,.43,0,.43.19s-.12.23-.33.23a2.73,2.73,0,0,0-.83.12c-.57.22-.84,1.17-1.34,2.52-1.09,3-3.59,10.56-4.75,14.13-.27.83-.38,1.12-.69,1.12s-.38-.29-.74-1.17l-5-11.91h0c-.46,1.21-3.62,9.63-4.64,11.82-.45,1-.57,1.26-.86,1.26s-.33-.26-.54-.88Z"/><path class="cls-1" d="M133.9,145.79c0-3.61,0-4.28-.05-5s-.24-1.19-1-1.35a4.55,4.55,0,0,0-.92-.08c-.26,0-.41,0-.41-.21s.17-.21.53-.21l1.92,0c.62,0,1.17.05,1.5.05.76,0,5.49,0,5.95,0a7.54,7.54,0,0,0,1-.14,2.62,2.62,0,0,1,.38-.09c.12,0,.14.09.14.21a14.9,14.9,0,0,0-.19,1.55c0,.23-.07,1.28-.12,1.57,0,.11-.07.26-.23.26s-.22-.12-.22-.34a2.48,2.48,0,0,0-.14-.85c-.17-.43-.41-.72-1.59-.86-.41-.05-2.91-.09-3.38-.09-.12,0-.17.07-.17.23v6c0,.17,0,.26.17.26.52,0,3.26,0,3.8,0a1.65,1.65,0,0,0,1.15-.35c.16-.19.26-.31.38-.31s.16,0,.16.19-.09.52-.19,1.74c0,.47-.09,1.42-.09,1.59s0,.45-.22.45a.19.19,0,0,1-.21-.21,4.84,4.84,0,0,0-.1-.86c-.12-.47-.45-.83-1.33-.93-.45,0-2.8-.07-3.37-.07-.12,0-.15.1-.15.24V150c0,.81,0,3,0,3.69.05,1.64.43,2,2.86,2a6.14,6.14,0,0,0,2.23-.28c.62-.29.9-.79,1.07-1.76,0-.26.1-.36.26-.36s.19.19.19.43a18.51,18.51,0,0,1-.31,2.64c-.16.62-.38.62-1.28.62-1.78,0-3.09,0-4.11-.07s-1.77-.08-2.48-.08c-.26,0-.78,0-1.35,0s-1.17,0-1.64,0c-.31,0-.48-.08-.48-.24s.1-.19.38-.19a3.76,3.76,0,0,0,.86-.1c.47-.09.59-.62.69-1.31.12-1,.12-2.87.12-5.06Z"/><path class="cls-1" d="M152.25,150c0,3,0,4.68.5,5.11s1,.53,2.88.53c1.26,0,2.19,0,2.78-.67a3,3,0,0,0,.62-1.43c0-.21.07-.35.26-.35s.19.12.19.4a18.72,18.72,0,0,1-.35,2.74c-.15.52-.27.64-1.5.64-1.71,0-2.95,0-4-.07s-1.93-.08-2.9-.08c-.26,0-.79,0-1.36,0s-1.16,0-1.64,0c-.31,0-.47-.08-.47-.24s.09-.19.38-.19a3.66,3.66,0,0,0,.85-.1c.48-.09.6-.62.69-1.31.12-1,.12-2.87.12-5.06v-4.19c0-3.61,0-4.28-.05-5s-.24-1.19-1-1.35a3.34,3.34,0,0,0-.78-.08c-.27,0-.41,0-.41-.21s.17-.21.52-.21c1.12,0,2.62.07,3.26.07s2.31-.07,3.24-.07c.33,0,.5,0,.5.21s-.15.21-.43.21a6.15,6.15,0,0,0-.93.08c-.64.11-.83.52-.88,1.35s-.05,1.43-.05,5Z"/><path class="cls-1" d="M164,145.79c0-3.61,0-4.28,0-5s-.24-1.19-1-1.35a4.58,4.58,0,0,0-.93-.08c-.26,0-.4,0-.4-.21s.17-.21.52-.21l1.93,0c.62,0,1.17.05,1.5.05.76,0,5.49,0,5.94,0a7.51,7.51,0,0,0,1-.14,2.34,2.34,0,0,1,.38-.09c.12,0,.14.09.14.21a14.9,14.9,0,0,0-.19,1.55c0,.23-.07,1.28-.12,1.57,0,.11-.07.26-.24.26s-.21-.12-.21-.34a2.76,2.76,0,0,0-.14-.85c-.17-.43-.41-.72-1.6-.86-.4-.05-2.9-.09-3.37-.09-.12,0-.17.07-.17.23v6c0,.17,0,.26.17.26.52,0,3.25,0,3.8,0s.93-.11,1.14-.35.26-.31.38-.31.17,0,.17.19-.1.52-.19,1.74c0,.47-.1,1.42-.1,1.59s0,.45-.21.45-.21-.09-.21-.21a7.87,7.87,0,0,0-.1-.86c-.12-.47-.45-.83-1.33-.93-.45,0-2.81-.07-3.38-.07-.12,0-.14.1-.14.24V150c0,.81,0,3,0,3.69,0,1.64.43,2,2.85,2a6.17,6.17,0,0,0,2.24-.28c.62-.29.9-.79,1.07-1.76,0-.26.09-.36.26-.36s.19.19.19.43a18.51,18.51,0,0,1-.31,2.64c-.16.62-.38.62-1.28.62-1.79,0-3.09,0-4.12-.07s-1.76-.08-2.47-.08c-.26,0-.79,0-1.36,0s-1.16,0-1.64,0c-.31,0-.47-.08-.47-.24s.09-.19.38-.19a3.66,3.66,0,0,0,.85-.1c.48-.09.6-.62.69-1.31.12-1,.12-2.87.12-5.06Z"/><path class="cls-1" d="M179.41,145.79c0-3.61,0-4.28,0-5s-.24-1.19-1-1.35a4.65,4.65,0,0,0-.93-.08c-.26,0-.41,0-.41-.21s.17-.21.53-.21c1.26,0,2.76.07,3.26.07.8,0,2.61-.07,3.35-.07a7.62,7.62,0,0,1,4.38,1,4.13,4.13,0,0,1,1.61,3.26c0,1.76-.74,3.37-3.14,5.32,2.12,2.67,3.76,4.79,5.16,6.26a4.76,4.76,0,0,0,2.67,1.62,4.51,4.51,0,0,0,.66.07c.19,0,.29.07.29.19s-.17.24-.45.24h-2.26a4.78,4.78,0,0,1-2.55-.46c-1-.54-1.92-1.66-3.26-3.49-.95-1.31-2-2.93-2.35-3.28a.48.48,0,0,0-.43-.17l-2.07,0c-.12,0-.19,0-.19.19V150c0,2.22,0,4.1.12,5.09.07.69.22,1.22.93,1.31a10.5,10.5,0,0,0,1.16.1c.19,0,.29.07.29.19s-.17.24-.48.24c-1.37,0-3.14-.08-3.49-.08s-2,.08-2.9.08c-.31,0-.48-.08-.48-.24s.1-.19.38-.19a3.76,3.76,0,0,0,.86-.1c.47-.09.59-.62.69-1.31.12-1,.12-2.87.12-5.06Zm2.8,1.88c0,.26,0,.36.22.43a6.12,6.12,0,0,0,1.8.24,2.35,2.35,0,0,0,1.69-.41,4.15,4.15,0,0,0,1.41-3.56c0-3.38-2.24-4.36-3.64-4.36a5.15,5.15,0,0,0-1.26.1c-.17,0-.22.14-.22.33Z"/><path class="cls-1" d="M196.05,156.59c-.38-.17-.45-.28-.45-.81,0-1.31.09-2.73.12-3.11s.09-.62.28-.62.24.21.24.4a5.58,5.58,0,0,0,.21,1.22,3.29,3.29,0,0,0,3.41,2.4,2.88,2.88,0,0,0,3.18-2.71c0-1.17-.35-2.26-2.33-3.81l-1.09-.86c-2.62-2-3.52-3.71-3.52-5.63,0-2.62,2.19-4.5,5.49-4.5a11.36,11.36,0,0,1,3.17.41c.21,0,.33.12.33.28,0,.31-.1,1-.1,2.86,0,.52-.07.71-.26.71s-.24-.14-.24-.43a2.9,2.9,0,0,0-.62-1.57,3,3,0,0,0-2.59-1.16c-1.76,0-2.83,1-2.83,2.45,0,1.09.55,1.92,2.52,3.42l.67.5c2.88,2.17,3.9,3.81,3.9,6.06a4.76,4.76,0,0,1-2.24,4.14,6.86,6.86,0,0,1-3.78,1A8.25,8.25,0,0,1,196.05,156.59Z"/></svg>