<svg xmlns="http://www.w3.org/2000/svg" width="31.5" height="30.1" viewBox="0 0 31.5 30.1"><defs><style>.a{fill:#93d4f5;}.b{fill:#189cd8;}.c{fill:#43bfef;}.d{fill:#2d2b6e;}</style></defs><g transform="translate(-168.5)"><path class="a" d="M193.6,9.4a6.109,6.109,0,0,0,3.7-1,3.9,3.9,0,0,0-1.3,3.3,15.2,15.2,0,0,0,4,9.8,10.242,10.242,0,0,0-6.4-3.2,20.263,20.263,0,0,1-1.7-7.7,5.283,5.283,0,0,1,.1-1.3A9.151,9.151,0,0,0,193.6,9.4ZM183.1,5.8A23.607,23.607,0,0,0,192,9.3,5.529,5.529,0,0,1,194.4,5a3.939,3.939,0,0,1-2,.5c-4,0-8.9-3-10.6-5.5a7.771,7.771,0,0,1,1.5,4.4C183.2,4.9,183.2,5.3,183.1,5.8Z"/><path class="b" d="M185,21.2a16.447,16.447,0,0,0-7.1-8.5,19.681,19.681,0,0,1-9.3,3h.7a10.931,10.931,0,0,1,10.9,11.2,14.455,14.455,0,0,1-.4,2.9A17.287,17.287,0,0,1,185,21.2Z"/><path class="c" d="M193.6,18.3a24.188,24.188,0,0,0,4.7,7.2,6.258,6.258,0,0,0-4.7-1.9c-3.2,0-6,2.6-8.6,6.5a5.734,5.734,0,0,0,.9-3.5,13.859,13.859,0,0,0-1-5.3,11.676,11.676,0,0,1,7.6-3A4.034,4.034,0,0,1,193.6,18.3Zm-15.7-5.6a11.127,11.127,0,0,0,5.2-6.9A17.54,17.54,0,0,1,177.5.7a5.685,5.685,0,0,1,.8,2.4c0,3.3-3.4,6.9-9.6,7.5h1.2A14.747,14.747,0,0,1,177.9,12.7Z"/><path class="d" d="M177.9,12.7a19.681,19.681,0,0,1-9.3,3,22.622,22.622,0,0,1-.1-2.7,19.268,19.268,0,0,1,.1-2.4h1.2A14.86,14.86,0,0,1,177.9,12.7Zm15.7,5.6a24.188,24.188,0,0,0,4.7,7.2,9.624,9.624,0,0,0,1.7-4A10.242,10.242,0,0,0,193.6,18.3ZM183.1,5.8a7.084,7.084,0,0,0,.1-1.4A8.305,8.305,0,0,0,181.7,0a27.175,27.175,0,0,0-4.3.7A19.153,19.153,0,0,0,183.1,5.8ZM192,9.3a9.151,9.151,0,0,0,1.6.1,6.109,6.109,0,0,0,3.7-1A17.07,17.07,0,0,0,194.4,5,5.269,5.269,0,0,0,192,9.3Zm-7,11.9a17.138,17.138,0,0,0-5.2,8.4,12,12,0,0,0,3.6.5,10.284,10.284,0,0,0,1.7-.1,5.734,5.734,0,0,0,.9-3.5A16.059,16.059,0,0,0,185,21.2Z"/></g></svg>