<svg id="Capa_1" data-name="Capa 1" xmlns="http://www.w3.org/2000/svg" xmlns:xlink="http://www.w3.org/1999/xlink" viewBox="15 15 200 51"><defs><style>.cls-1{fill:url(#Degradado_sin_nombre_5);}.cls-2{fill:#00a493;}</style><linearGradient id="Degradado_sin_nombre_5" x1="20.96" y1="40.33" x2="50.83" y2="40.33" gradientUnits="userSpaceOnUse"><stop offset="0" stop-color="#47ea8c"/><stop offset="1" stop-color="#00a493"/></linearGradient></defs><title>Cryptoturismo</title><path class="cls-1" d="M42.91,59.05l-.84,4.62a1.76,1.76,0,0,1-2,1.41l-4.63-.85a1.74,1.74,0,0,1-1.4-2l.85-4.63a1.74,1.74,0,0,1,2-1.4l4.62.85A1.73,1.73,0,0,1,42.91,59.05Zm-.83-34.42-.37,2a7,7,0,0,0-2.27,12.55l-.36,2,2.38.43.25-1.36a5,5,0,0,0,.53.12l.36.06-.25,1.35,2.39.43.35-1.9a7.1,7.1,0,0,0,4.75-3.78l-4.07-.74a3.25,3.25,0,1,1,.76-3.56l4,.73a7.07,7.07,0,0,0-3.15-5.39l.34-1.89-2.38-.44-.25,1.35-.32-.07-.57-.08.25-1.36Zm16-1.4a17.8,17.8,0,0,0-29.59.47H22.9a2.33,2.33,0,0,0,0,4.66h3.49c-.12.43-.23.86-.32,1.3h-8.2a2.33,2.33,0,0,0,0,4.66H32.21a2.33,2.33,0,1,0,0-4.66H30.86a13.13,13.13,0,0,1,23.41-3.78h0a13.12,13.12,0,0,1-3.35,18.26l-6,4.13L36.8,46.78l-2.43-3.51a2.32,2.32,0,0,0-.86-4.48h-2a13.86,13.86,0,0,1-.79-2.24H26a17.46,17.46,0,0,0,.56,2.24h-.84a2.33,2.33,0,0,0,0,4.65h3.14l4.27,6.18a4.06,4.06,0,0,0,2.62,1.7l8.61,1.57a3.64,3.64,0,0,0,.74.07,4,4,0,0,0,2.3-.72L53.56,48A17.8,17.8,0,0,0,58.1,23.23Z"/><path class="cls-2" d="M108,47.73a5.58,5.58,0,0,0-2-1.1,9.3,9.3,0,0,0-2.58-.35,9.67,9.67,0,0,0-2.38.27,6.53,6.53,0,0,0-1.78.74,2.94,2.94,0,0,0-.73.72,1.76,1.76,0,0,0-.27,1V60.12a2.7,2.7,0,0,0,.14.94,1.29,1.29,0,0,0,.42.57,1.54,1.54,0,0,0,.68.27,5,5,0,0,0,.91.07,7,7,0,0,0,1-.08,4.87,4.87,0,0,0,.74-.15V57.9a5.56,5.56,0,0,0,1.85.3,7.28,7.28,0,0,0,2.4-.37,4.76,4.76,0,0,0,1.83-1.12,5.07,5.07,0,0,0,1.18-1.86,7.29,7.29,0,0,0,.42-2.59,6.6,6.6,0,0,0-.49-2.67A5.17,5.17,0,0,0,108,47.73Zm-4.57,7.38a2.28,2.28,0,0,1-.7-.1,3.1,3.1,0,0,1-.6-.23V49.7a2.78,2.78,0,0,1,.6-.25,3.1,3.1,0,0,1,.79-.1,2.08,2.08,0,0,1,1.7.72,3.43,3.43,0,0,1,.59,2.19C105.81,54.16,105,55.11,103.43,55.11Z"/><path class="cls-2" d="M73,54.18a10.33,10.33,0,0,1-1.26.58,4.5,4.5,0,0,1-1.61.25,3.76,3.76,0,0,1-2.83-1.08,4.29,4.29,0,0,1-1-3.1,4.51,4.51,0,0,1,.94-3.07,3.43,3.43,0,0,1,2.73-1.09,4.14,4.14,0,0,1,1.59.28,7.41,7.41,0,0,1,1.28.67,2.43,2.43,0,0,0,.69-.7,1.79,1.79,0,0,0,.3-1A2.06,2.06,0,0,0,72.6,44.1a6.54,6.54,0,0,0-3.3-.69,8,8,0,0,0-2.82.49,6.51,6.51,0,0,0-2.3,1.43,6.8,6.8,0,0,0-1.55,2.32,8.28,8.28,0,0,0-.56,3.18,8.45,8.45,0,0,0,.59,3.34,6.33,6.33,0,0,0,1.6,2.31,6.44,6.44,0,0,0,2.38,1.35,9.25,9.25,0,0,0,2.92.44,6.14,6.14,0,0,0,3.2-.66,1.88,1.88,0,0,0,1-1.6,2.32,2.32,0,0,0-.22-1A2.43,2.43,0,0,0,73,54.18Z"/><path class="cls-2" d="M117.6,49.29a1.3,1.3,0,0,0,1-.36,1.61,1.61,0,0,0,.36-1.17,2.47,2.47,0,0,0-.13-.84,3.67,3.67,0,0,0-.26-.64h-3V46a1.66,1.66,0,0,0-.57-1.51,2.93,2.93,0,0,0-1.58-.36,6.46,6.46,0,0,0-1,.08,5.77,5.77,0,0,0-.72.15v9.89a3.74,3.74,0,0,0,1.09,3,4.72,4.72,0,0,0,3.14.92,3.69,3.69,0,0,0,2.32-.55,1.79,1.79,0,0,0,.66-1.43,1.75,1.75,0,0,0-.15-.76,3,3,0,0,0-.36-.56,4.84,4.84,0,0,1-1.37.21,1.9,1.9,0,0,1-1.07-.26,1,1,0,0,1-.38-.85V49.29Z"/><path class="cls-2" d="M82.57,46.73a3.08,3.08,0,0,0-1.75-.43,8.54,8.54,0,0,0-1.34.1,10.7,10.7,0,0,0-1.3.29,12.35,12.35,0,0,0-1.17.43,4.13,4.13,0,0,0-.91.54,2.16,2.16,0,0,0-.56.69,1.83,1.83,0,0,0-.2.91v6.93a2.46,2.46,0,0,0,.15.94,1.31,1.31,0,0,0,.43.57,1.54,1.54,0,0,0,.68.27,5,5,0,0,0,.91.07,6.85,6.85,0,0,0,1-.07,4.29,4.29,0,0,0,.73-.14V50a4.16,4.16,0,0,1,.73-.24c.28-.07.59-.14.91-.2s.65-.11,1-.14.67,0,1,0a3,3,0,0,0,.23-.57,2.28,2.28,0,0,0,.09-.63A1.53,1.53,0,0,0,82.57,46.73Z"/><path class="cls-2" d="M95.79,46.74a2.4,2.4,0,0,0-1.34-.35,3.85,3.85,0,0,0-1.82.44c-.11.63-.24,1.28-.39,1.93s-.3,1.31-.47,2-.34,1.29-.52,1.9-.36,1.19-.54,1.71h-.1L88.79,48A2,2,0,0,0,88,46.73a2.4,2.4,0,0,0-1.34-.34,2.91,2.91,0,0,0-1.19.24,3.28,3.28,0,0,0-.87.57c.25,1,.49,1.95.71,2.74s.44,1.5.65,2.12.4,1.16.6,1.64.37.91.54,1.29a5.32,5.32,0,0,0,1,1.61,2.22,2.22,0,0,0,.85.54,16.32,16.32,0,0,1-1.34,1.45c-.5.47-1,.89-1.48,1.28a2.39,2.39,0,0,0,.71,1.5,2.16,2.16,0,0,0,1.57.58,3.79,3.79,0,0,0,1.07-.15,3,3,0,0,0,1-.56,6.84,6.84,0,0,0,1.06-1.12,15.77,15.77,0,0,0,1.2-1.85c.26-.44.53-1,.81-1.51s.55-1.16.81-1.79.51-1.28.75-1.93.45-1.29.62-1.91.32-1.2.43-1.74a7.44,7.44,0,0,0,.16-1.45A1.31,1.31,0,0,0,95.79,46.74Z"/><path class="cls-2" d="M130.42,47.91a5.57,5.57,0,0,0-1.9-1.21,7.59,7.59,0,0,0-5,0,5.57,5.57,0,0,0-1.91,1.19,5.34,5.34,0,0,0-1.23,1.89,6.51,6.51,0,0,0-.44,2.47,6.63,6.63,0,0,0,.44,2.5,5.3,5.3,0,0,0,1.23,1.88,5.42,5.42,0,0,0,1.91,1.19,6.92,6.92,0,0,0,2.47.42,7.21,7.21,0,0,0,2.48-.4,5.16,5.16,0,0,0,1.9-1.15,5.06,5.06,0,0,0,1.24-1.89,7,7,0,0,0,.44-2.55,6.67,6.67,0,0,0-.44-2.45A5.1,5.1,0,0,0,130.42,47.91Zm-2.86,6.48a1.7,1.7,0,0,1-1.49.76,1.77,1.77,0,0,1-1.52-.75,3.66,3.66,0,0,1-.54-2.16,3.72,3.72,0,0,1,.53-2.14,1.89,1.89,0,0,1,3,0,3.72,3.72,0,0,1,.53,2.14A3.86,3.86,0,0,1,127.56,54.39Z"/><path class="cls-2" d="M213.27,49.79A5.21,5.21,0,0,0,212,47.91a5.71,5.71,0,0,0-1.91-1.21,7.59,7.59,0,0,0-4.95,0,5.52,5.52,0,0,0-1.9,1.19A5.23,5.23,0,0,0,202,49.77a6.71,6.71,0,0,0-.44,2.47,6.83,6.83,0,0,0,.44,2.5,5.19,5.19,0,0,0,1.24,1.88,5.38,5.38,0,0,0,1.9,1.19,7,7,0,0,0,2.48.42,7.19,7.19,0,0,0,2.47-.4A5.28,5.28,0,0,0,212,56.68a5.16,5.16,0,0,0,1.23-1.89,6.75,6.75,0,0,0,.44-2.55A6.47,6.47,0,0,0,213.27,49.79Zm-4.1,4.6a1.69,1.69,0,0,1-1.49.76,1.78,1.78,0,0,1-1.52-.75,3.66,3.66,0,0,1-.54-2.16,3.72,3.72,0,0,1,.53-2.14,1.89,1.89,0,0,1,3,0,3.72,3.72,0,0,1,.53,2.14A3.78,3.78,0,0,1,209.17,54.39Z"/><path class="cls-2" d="M167.32,41.42a2.08,2.08,0,0,0-1.56.6,2.15,2.15,0,0,0,0,3,2.08,2.08,0,0,0,1.56.6,2.11,2.11,0,0,0,1.56-.6,2.15,2.15,0,0,0,0-3A2.11,2.11,0,0,0,167.32,41.42Z"/><path class="cls-2" d="M176.92,50.81l-.72-.16a2.83,2.83,0,0,1-.88-.31.48.48,0,0,1-.23-.41.56.56,0,0,1,.42-.54,3.07,3.07,0,0,1,1.18-.18,6.48,6.48,0,0,1,.82.07l.89.17a7.79,7.79,0,0,1,.81.24,2.46,2.46,0,0,1,.55.24,2,2,0,0,0,.5-.64,2,2,0,0,0,.2-.91,1.47,1.47,0,0,0-.33-1,2.32,2.32,0,0,0-.88-.66,5.4,5.4,0,0,0-1.3-.38,10.19,10.19,0,0,0-1.61-.13,7.93,7.93,0,0,0-2.07.26,5.35,5.35,0,0,0-1.6.71,3.21,3.21,0,0,0-1.41,2.71,3,3,0,0,0,1,2.41,6.36,6.36,0,0,0,3,1.24l.69.14a2.71,2.71,0,0,1,.93.3.59.59,0,0,1,.28.51.63.63,0,0,1-.38.55,2.34,2.34,0,0,1-1.1.21,6.11,6.11,0,0,1-2-.29,8.8,8.8,0,0,1-1.54-.66,2.28,2.28,0,0,0-.55.64,1.73,1.73,0,0,0-.24.94,1.71,1.71,0,0,0,.34,1,2.51,2.51,0,0,0,.92.72,4.92,4.92,0,0,0,1.43.43,11.15,11.15,0,0,0,1.8.14,6.4,6.4,0,0,0,3.88-1A3.26,3.26,0,0,0,181,54.51a3,3,0,0,0-.94-2.3A6.72,6.72,0,0,0,176.92,50.81Z"/><path class="cls-2" d="M198.43,47.24a4.19,4.19,0,0,0-1.5-.73,6.26,6.26,0,0,0-1.72-.23,6.48,6.48,0,0,0-2.1.3,7.06,7.06,0,0,0-1.56.76,4.61,4.61,0,0,0-1.58-.8,6.9,6.9,0,0,0-1.86-.26,8.56,8.56,0,0,0-2.44.34,6.53,6.53,0,0,0-1.95.9,3.07,3.07,0,0,0-.73.7,1.64,1.64,0,0,0-.27,1v7a2.46,2.46,0,0,0,.15.94,1.39,1.39,0,0,0,.43.57A1.6,1.6,0,0,0,184,58a5.14,5.14,0,0,0,.92.07,6.81,6.81,0,0,0,1-.07,3.91,3.91,0,0,0,.73-.14V49.72a4.13,4.13,0,0,1,.51-.24,1.75,1.75,0,0,1,.72-.13,1.7,1.7,0,0,1,1,.31,1.18,1.18,0,0,1,.42,1v5.52a2.46,2.46,0,0,0,.15.94,1.39,1.39,0,0,0,.43.57,1.6,1.6,0,0,0,.68.27,5.14,5.14,0,0,0,.92.07,6.63,6.63,0,0,0,1-.07,4.84,4.84,0,0,0,.75-.14V50a.55.55,0,0,0,0-.18,2.14,2.14,0,0,1,.56-.31,1.79,1.79,0,0,1,.69-.15,1.63,1.63,0,0,1,1.06.31,1.23,1.23,0,0,1,.4,1v5.52a2.46,2.46,0,0,0,.15.94,1.37,1.37,0,0,0,.42.57,1.64,1.64,0,0,0,.69.27,5,5,0,0,0,.91.07,6.94,6.94,0,0,0,1-.07,4.29,4.29,0,0,0,.73-.14V50.55a4.66,4.66,0,0,0-.4-2A3.51,3.51,0,0,0,198.43,47.24Z"/><path class="cls-2" d="M153.29,46.62a1.55,1.55,0,0,0-.68-.28,6.24,6.24,0,0,0-.91-.07,8.47,8.47,0,0,0-1,.07,5.27,5.27,0,0,0-.73.14v8.4a3,3,0,0,1-.52.18,3.47,3.47,0,0,1-.87.09,2,2,0,0,1-1.34-.4,1.71,1.71,0,0,1-.46-1.35V48.12a2.41,2.41,0,0,0-.15-.93,1.31,1.31,0,0,0-.43-.57,1.55,1.55,0,0,0-.68-.28,6.24,6.24,0,0,0-.91-.07,8.47,8.47,0,0,0-1,.07,5.27,5.27,0,0,0-.73.14V53.4a5.4,5.4,0,0,0,.41,2.2,3.88,3.88,0,0,0,1.18,1.49,5.2,5.2,0,0,0,1.82.86,9.23,9.23,0,0,0,2.3.28A10.42,10.42,0,0,0,151,58a6.49,6.49,0,0,0,1.93-.77,1.92,1.92,0,0,0,1-1.74V48.12a2.41,2.41,0,0,0-.15-.93A1.31,1.31,0,0,0,153.29,46.62Z"/><path class="cls-2" d="M168.7,46.62a1.55,1.55,0,0,0-.68-.28,6.13,6.13,0,0,0-.91-.07,6.77,6.77,0,0,0-1,.08l-.75.13v9.71a2.46,2.46,0,0,0,.15.94,1.31,1.31,0,0,0,.43.57,1.54,1.54,0,0,0,.68.27,5.1,5.1,0,0,0,.91.07,5.66,5.66,0,0,0,1-.08l.75-.13v-9.4a4.38,4.38,0,0,0-.15-1.24A1.31,1.31,0,0,0,168.7,46.62Z"/><path class="cls-2" d="M139.83,49.29a1.3,1.3,0,0,0,1-.36,1.61,1.61,0,0,0,.36-1.17,2.47,2.47,0,0,0-.13-.84,3.67,3.67,0,0,0-.26-.64h-3V46a1.66,1.66,0,0,0-.57-1.51,2.93,2.93,0,0,0-1.58-.36,6.46,6.46,0,0,0-1,.08,5.77,5.77,0,0,0-.72.15v9.89a3.74,3.74,0,0,0,1.09,3,4.74,4.74,0,0,0,3.14.92,3.67,3.67,0,0,0,2.32-.55,1.79,1.79,0,0,0,.66-1.43,1.75,1.75,0,0,0-.15-.76,3,3,0,0,0-.36-.56,4.49,4.49,0,0,1-.65.15,4.34,4.34,0,0,1-.71.06,1.91,1.91,0,0,1-1.08-.26,1,1,0,0,1-.38-.85V49.29Z"/><path class="cls-2" d="M163.38,46.73a3.12,3.12,0,0,0-1.76-.43,8.73,8.73,0,0,0-1.34.1,9.81,9.81,0,0,0-2.46.72,3.91,3.91,0,0,0-.91.54,2.07,2.07,0,0,0-.57.69,1.94,1.94,0,0,0-.2.91v6.93a2.27,2.27,0,0,0,.16.94,1.37,1.37,0,0,0,.42.57,1.6,1.6,0,0,0,.68.27,5.14,5.14,0,0,0,.92.07,7,7,0,0,0,1-.07,3.94,3.94,0,0,0,.72-.14V50a4.46,4.46,0,0,1,.73-.24c.29-.07.59-.14.92-.2s.65-.11,1-.14.67,0,1,0a2.43,2.43,0,0,0,.23-.57,2,2,0,0,0,.1-.63A1.55,1.55,0,0,0,163.38,46.73Z"/></svg>