<?xml version="1.0" encoding="utf-8"?>
<!-- Generator: Adobe Illustrator 18.0.0, SVG Export Plug-In . SVG Version: 6.00 Build 0)  -->
<!DOCTYPE svg PUBLIC "-//W3C//DTD SVG 1.1//EN" "http://www.w3.org/Graphics/SVG/1.1/DTD/svg11.dtd">
<svg version="1.1" id="Layer_1" xmlns="http://www.w3.org/2000/svg" xmlns:xlink="http://www.w3.org/1999/xlink" x="0px" y="0px"
	 viewBox="0 0 600 200" enable-background="new 0 0 600 200" xml:space="preserve">
<g>
	<g>
		<path fill="#1D4C79" d="M34.5,91.2c-1.1-3.5-3.8-5.2-8.1-5.1c-3.3,0-5.9,1.2-7.8,3.5c-1.9,2.3-2.9,5.7-2.9,10.1
			c0,3.7,1,6.6,3.1,8.8c2.2,2.4,5.3,3.5,9.3,3.5c4.1,0,7.9-1,11.4-3l0,7.3c-3.4,1.8-7.5,2.6-12.2,2.6c-6.3,0-11.3-1.9-15-5.6
			c-3.5-3.6-5.2-8.2-5.2-13.8c0-6,1.6-10.8,4.7-14.5c3.5-4,8.4-6,14.7-6c5.2,0,9.3,1.2,12.5,3.5c3,2.1,4.7,5,5.2,8.7L34.5,91.2z"/>
		<path fill="#1D4C79" d="M65.6,93.2c-1.9,0-3.5,0.7-4.8,2c-1.4,1.5-2.1,3.5-2.1,6.1l0,17.3l-8.1,0l0-31.7l8.1,0l0,3.1
			c1.8-2.3,4.5-3.5,7.9-3.5c1.3,0,2.5,0.2,3.7,0.6l0,7.2C69.1,93.6,67.6,93.2,65.6,93.2z"/>
		<path fill="#1D4C79" d="M186,119c-4.6,0-8.5-1.6-11.7-4.9c-3.2-3.1-4.8-6.9-4.8-11.4c0-4.4,1.6-8.3,4.8-11.5
			c3.2-3.2,7.2-4.9,11.7-4.9c4.6,0,8.5,1.6,11.7,4.9c3.2,3.2,4.9,7.1,4.9,11.5c0,4.4-1.6,8.2-4.8,11.4
			C194.5,117.3,190.6,119,186,119z M186,92.7c-2.1,0-4,0.9-5.6,2.7c-1.7,2-2.6,4.4-2.6,7.1c0,2.8,0.8,5.1,2.5,7.1
			c1.6,1.9,3.5,2.9,5.7,2.9c2.1,0,4-1,5.7-2.9c1.7-1.9,2.5-4.3,2.5-7.1c0-2.8-0.9-5.2-2.6-7.1C189.9,93.6,188.1,92.7,186,92.7z"/>
		<path fill="#1D4C79" d="M252.2,91.1c-1.1-3.5-3.8-5.2-8.1-5.1c-3.3,0-5.9,1.2-7.8,3.5c-1.9,2.3-2.9,5.7-2.9,10.1
			c0,3.7,1,6.6,3.1,8.8c2.2,2.4,5.3,3.5,9.3,3.5c4.1,0,7.9-1,11.4-3l0,7.3c-3.4,1.8-7.5,2.6-12.2,2.6c-6.3,0-11.3-1.9-15-5.6
			c-3.5-3.6-5.2-8.2-5.2-13.8c0-6,1.6-10.8,4.7-14.5c3.5-4,8.4-6,14.7-6c5.2,0,9.3,1.2,12.5,3.5c3,2.1,4.7,5,5.2,8.7L252.2,91.1z"/>
		<path fill="#1D4C79" d="M283.3,93.2c-1.9,0-3.5,0.7-4.8,2c-1.4,1.5-2.1,3.5-2.1,6.1l0,17.3l-8.1,0l0-31.7l8.1,0l0,3.1
			c1.8-2.3,4.5-3.5,7.9-3.5c1.3,0,2.5,0.2,3.7,0.6l0,7.2C286.8,93.5,285.3,93.2,283.3,93.2z"/>
		<path fill="#1D4C79" d="M363.6,97.4c0-2.8-1.8-4.2-5.4-4.2c-3.1,0-4.6,0.9-4.6,2.7c0,1.2,1.1,2.1,3.3,2.8l6.8,2.1
			c5.7,1.7,8.6,4.5,8.6,8.5c0,3.2-1.5,5.7-4.4,7.4c-2.5,1.4-5.4,2.2-8.8,2.2c-5.7,0-10.1-0.8-13.1-2.5l0-7.6
			c4.1,2.1,8.2,3.2,12.4,3.2c3.7,0,5.5-0.7,5.5-2.2c0-1.2-0.9-2.1-2.8-2.7l-6.4-1.8c-6.3-1.8-9.5-4.9-9.5-9.1c0-3.3,1.3-5.9,3.8-7.5
			c2.3-1.5,5.4-2.2,9.3-2.2c4.1,0,7.4,1,9.9,3c2.5,1.9,3.7,4.6,3.7,7.9L363.6,97.4z"/>
		<path fill="#1D4C79" d="M584.8,97.3c0-2.8-1.8-4.2-5.4-4.2c-3.1,0-4.6,0.9-4.6,2.7c0,1.2,1.1,2.1,3.3,2.8l6.8,2.1
			c5.7,1.7,8.6,4.5,8.6,8.5c0,3.2-1.5,5.7-4.4,7.4c-2.5,1.4-5.4,2.2-8.8,2.2c-5.7,0-10.1-0.8-13.1-2.5l0-7.6
			c4.1,2.1,8.2,3.2,12.4,3.2c3.7,0,5.5-0.7,5.5-2.2c0-1.2-0.9-2.1-2.8-2.7l-6.4-1.8c-6.3-1.8-9.5-4.9-9.5-9.1c0-3.3,1.3-5.9,3.8-7.5
			c2.3-1.5,5.4-2.2,9.3-2.2c4.1,0,7.4,1,9.9,3c2.5,1.9,3.7,4.6,3.7,7.9L584.8,97.3z"/>
	</g>
	<g>
		<polygon fill="#1D4C79" points="84.9,117.1 84.6,117.8 84.9,117.1 		"/>
		<polygon fill="#1D4C79" points="81.9,86.9 72.8,86.9 82.8,111.8 88.7,106.7 		"/>
		<path fill="#1D4C79" d="M95.5,86.9l-6.6,20.3l-4,9.9l0,0l-0.3,0.7l-0.8,1.8c-0.4,0.8-1,1.5-2,2.1c-0.8,0.4-1.6,0.6-2.3,0.6
			c-2.2,0-3.9-0.4-5.2-1.2l0,7.2c1.8,0.6,3.7,0.9,5.7,0.8c5.1,0,8.7-2.6,10.9-7.9l13.6-34.3L95.5,86.9z"/>
	</g>
	<g>
		<path fill="#1D4C79" d="M117.8,102.1c0,0.2,0,0.4,0,0.6h0L117.8,102.1z"/>
		<path fill="#1D4C79" d="M137,91.6c-3-3.4-6.8-5.1-11.1-5.1c-2.9,0-5.4,0.9-7.4,2.6l0-2.3l-8.1,0l0,40.1l7.4,0v-24.2
			c0-0.2,0-0.4,0-0.6l0-0.1l0,0.1c0.1-2.6,0.9-4.8,2.4-6.5c1.5-1.7,3.3-2.6,5.3-2.6c2.1,0,3.8,0.9,5.3,2.6c1.6,1.8,2.4,4.2,2.4,7
			c0,2.8-0.8,5.1-2.5,7.1c-1.5,1.7-3.3,2.6-5.3,2.6c-0.9,0-1.7-0.2-2.5-0.5l-2.9,5.6c1.6,1,3.6,1.5,5.9,1.5c4.4,0,8.1-1.6,11.1-4.9
			c3-3.1,4.4-6.8,4.4-11C141.5,98.6,140,94.8,137,91.6z"/>
	</g>
	<g>
		<polygon fill="#1D4C79" points="165,93.4 165,86.9 158.1,86.9 160,93.4 		"/>
		<path fill="#1D4C79" d="M166.8,110.4c-1.1,0.8-2.2,1.2-3.3,1.4c-0.2,0-0.5,0.1-0.9,0.1c-0.4,0-1,0-1.6,0c-2.8,0-4.3-1.4-4.3-4.3
			l0-14.3h0v-6.5h0l0-8.5l-8.1,4.3l0,4.1l-3.5,0l0,6.5l3.5,0l0,16.2c0,6.2,3.6,9.3,10.8,9.3c3,0,5.4-0.5,7.4-1.6L166.8,110.4z"/>
	</g>
	<g>
		<path fill="#1D4C79" d="M321.5,86.8l-8.1,0l0,18.1c0,0.1,0,0.1,0,0.1v11.6c0,0,0,0,0,0l0,1.9l8.1,0L321.5,86.8z"/>
		<path fill="#1D4C79" d="M336.4,86.8l-8.1,0l0,18.1c0,0.1,0,0.1,0,0.1v11.6c0,0,0,0,0,0l0,1.9l8.1,0L336.4,86.8z"/>
		<path fill="#1D4C79" d="M306.4,112.1c-3.8,0-5.8-2.4-5.8-7.1l0-18.2l-8.1,0l0,18.5c0,9,4.3,13.5,12.8,13.5c2.2,0,4-0.4,5.4-1.2
			l-1.9-6C308.1,112,307.3,112.1,306.4,112.1z"/>
	</g>
	<rect x="328.3" y="75.5" fill="#1D4C79" width="8.1" height="6.9"/>
	<g>
		<path fill="#1D4C79" d="M387,106.6c0,0.1,0.1,0.2,0.1,0.3C387.1,106.8,387.1,106.7,387,106.6L387,106.6z"/>
		<path fill="#1D4C79" d="M404.8,91.6c-2.8-3.5-6.8-5.3-11.9-5.3c-5,0-8.9,1.7-11.9,5.2c-2.7,3.1-4.1,6.8-4.1,11.1
			c0,4.5,1.4,8.3,4.3,11.3c3,3.2,7.1,4.9,12.3,4.9c4.5,0,9.4-0.9,13.5-6.8l-7.1-3c-0.6,1-1.8,2.9-5.7,2.9c-1.8,0-3.5-0.5-5-1.5
			c-0.9-0.6-1.6-1.3-2.2-2.2l0,0c0,0-0.1-0.2-0.3-0.5c-0.1-0.2-0.2-0.4-0.3-0.6c-0.1-0.1-0.1-0.3-0.2-0.4c0-0.1-0.1-0.2-0.1-0.3h0
			c-0.7-2-1.4-5.3,0.5-9.2c0-0.1,0-0.1,0.1-0.2c0,0,0,0,0,0l0,0c0.4-0.8,0.9-1.5,1.5-2.2c1.3-1.3,2.8-2,4.7-2c1.8,0,3.3,0.7,4.7,2.2
			c1.2,1.3,1.9,2.9,2.2,4.8l-8.4,0l2.7,6.5l14.2,0c0-0.4,0.1-0.8,0.1-1.2c0-0.4,0-0.8,0-1.2C408.7,99,407.4,94.8,404.8,91.6z"/>
		<path fill="#1D4C79" d="M502,91.6c-2.8-3.5-6.8-5.3-11.9-5.3c-5,0-8.9,1.7-11.9,5.2c-2.7,3.1-4.1,6.8-4.1,11.1
			c0,4.5,1.4,8.3,4.3,11.3c3,3.2,7.1,4.9,12.3,4.9c4.5,0,9.4-0.9,13.5-6.8l-7.1-3c-0.6,1-1.8,2.9-5.7,2.9c-1.8,0-3.5-0.5-5-1.5
			c-0.9-0.6-1.6-1.3-2.2-2.2l0,0c0,0-0.1-0.2-0.3-0.5c-0.1-0.2-0.2-0.4-0.3-0.6c-0.1-0.1-0.1-0.3-0.2-0.4c0-0.1-0.1-0.2-0.1-0.3h0
			c-0.7-2-1.4-5.3,0.5-9.2c0-0.1,0-0.1,0.1-0.2c0,0,0,0,0,0l0,0c0.4-0.8,0.9-1.5,1.5-2.2c1.3-1.3,2.8-2,4.7-2c1.8,0,3.3,0.7,4.7,2.2
			c1.2,1.3,1.9,2.9,2.2,4.8l-8.4,0l2.7,6.5l14.2,0c0-0.4,0.1-0.8,0.1-1.2c0-0.4,0-0.8,0-1.2C505.8,99,504.5,94.8,502,91.6z"/>
		<path fill="#1D4C79" d="M387.7,107.9c-0.1-0.2-0.2-0.4-0.3-0.6C387.5,107.5,387.6,107.8,387.7,107.9z"/>
		<path fill="#1D4C79" d="M387.9,108.4L387.9,108.4c-0.1-0.1-0.2-0.3-0.3-0.5C387.8,108.2,387.9,108.4,387.9,108.4z"/>
		<path fill="#1D4C79" d="M387.6,97.2C387.6,97.2,387.6,97.2,387.6,97.2C387.6,97.2,387.6,97.2,387.6,97.2L387.6,97.2z"/>
	</g>
	<g>
		<path fill="#1D4C79" d="M462.8,85.1c-4.3-3.8-9.6-5.7-15.7-5.7l-14,0l0,39.1l8.2,0l0.1-9.5l0-22.8l4.6,0c4.3,0,7.9,1.4,10.8,4.2
			c2.5,2.6,3.8,5.4,3.8,8.6c0,3.2-1.3,6-3.8,8.5c-2.9,2.8-6.5,4.1-10.8,4.1l-1.6,0l3.5,6.8c5.8-0.1,10.9-2,15.1-5.7
			c4.3-3.9,6.5-8.5,6.5-13.9C469.4,93.5,467.2,88.9,462.8,85.1z"/>
	</g>
	<g>
		<path fill="#1D4C79" d="M534.4,102.2l0,0.6c0-0.1,0-0.2,0-0.2C534.4,102.5,534.4,102.3,534.4,102.2z"/>
		<path fill="#1D4C79" d="M526.7,112.4c-2,0-3.8-0.9-5.3-2.7c-1.6-1.9-2.4-4.3-2.4-7.1c0-2.8,0.8-5.1,2.4-7.1
			c1.5-1.8,3.3-2.7,5.3-2.7c2,0,3.8,0.9,5.3,2.7c1.5,1.8,2.3,3.9,2.4,6.4l0,0l0,0.3c0,0.1,0,0.3,0,0.4c0,0.1,0,0.2,0,0.2l0.1,15.6
			l7.2,0l0-31.7l-8.1,0V89c-0.7-0.7-1.8-1.4-3.2-1.8c-1.4-0.5-2.9-0.7-4.3-0.7c-4.3,0-8.1,1.7-11.1,5.1c-2.9,3.2-4.4,7-4.4,11.1
			c0,4.3,1.5,8,4.4,11.2c3,3.3,6.8,5,11.1,5c2,0,3.8-0.3,5.2-1l-2.9-5.7C528,112.3,527.3,112.4,526.7,112.4z"/>
		<path fill="#1D4C79" d="M534.4,101.9L534.4,101.9c0,0.1,0,0.2,0,0.3L534.4,101.9z"/>
	</g>
	<rect x="550.3" y="77.8" fill="#1D4C79" width="8.5" height="41"/>
</g>
</svg>
