<svg xmlns="http://www.w3.org/2000/svg" viewBox="0 0 40.01 40.01"><defs><style>.cls-1{fill:#4f6ef7;}.cls-2{fill:#0c204e;fill-rule:evenodd;isolation:isolate;opacity:0.75;}</style></defs><g id="Layer_2" data-name="Layer 2"><g id="Layer_1-2" data-name="Layer 1"><path class="cls-1" d="M13.66,1h0A20,20,0,0,1,39,13.66h0A20,20,0,0,1,26.35,39h0A20,20,0,0,1,1,26.35H1A20,20,0,0,1,13.66,1Z"/><path class="cls-2" d="M15.61,31.52l0,.06h0l6.8-2.27a12.93,12.93,0,0,0,2.23-1,10.49,10.49,0,0,0,2.06-1.51,10.06,10.06,0,0,0,.77-.82,2,2,0,0,0,.19-.22,11.5,11.5,0,0,0,.77-1.19,8.36,8.36,0,0,0,1.05-3.69.26.26,0,0,1,.22-.28L31.57,20c.15-.05.18-.12.13-.28l-.4-1.19a2,2,0,0,0-.12-.34.31.31,0,0,1,0-.1A.23.23,0,0,0,31.1,18l-1.55.52c-.19.06-.19,0-.25-.12a11.18,11.18,0,0,0-.6-1.8c-.07-.17,0-.18.11-.23l1.35-.45c.16,0,.2-.11.15-.27L29.77,14c-.08-.21-.08-.21-.31-.14l-1.75.59a.27.27,0,0,1-.36-.11,7.84,7.84,0,0,0-1.27-1.24,10.42,10.42,0,0,0-1.48-1,9.3,9.3,0,0,0-2.17-.75A10,10,0,0,0,19,11.26a11.72,11.72,0,0,0-1.64.36L10,14.08c-.19.06-.18.1-.13.26l1.77,5.28c.07.19,0,.2-.12.25l-2.11.71c-.15.05-.14.08-.11.19l.58,1.72c.05.16.1.14.22.1l2.12-.71c.16-.05.17,0,.21.1L13,23.82c.05.17,0,.18-.12.23l-2.27.76.62,1.86c.05.16.1.14.22.1l2.12-.71c.16,0,.17,0,.21.09l.77,2.31.26.77Zm9.55-16.4a.19.19,0,0,1,.05.13h0c0,.06-.09.12-.09.12l-11.3,3.78c-.18.06-.2,0-.24-.13l-1.17-3.48c0-.13,0-.19.1-.24l5.26-1.76a7.86,7.86,0,0,1,1.73-.38,7.34,7.34,0,0,1,3.43.51,2.77,2.77,0,0,1,.6.29,4.92,4.92,0,0,1,1,.67A3.78,3.78,0,0,1,25.16,15.12Zm1.92,4.17-5.95,2-5.84,1.95c-.12,0-.18.06-.21,0s-.06-.08-.1-.19l-.58-1.74c-.05-.14,0-.2.12-.25l11.85-4c.13,0,.2,0,.24.11a11.79,11.79,0,0,1,.61,1.82C27.27,19.23,27.21,19.25,27.08,19.29Zm.21,2.2a2.27,2.27,0,0,0-.5.17L15.94,25.29c-.15.05-.2.07-.13.26L16.94,29c.06.15.07.19.27.13l5-1.68a2.53,2.53,0,0,0,.7-.29,7.75,7.75,0,0,0,2-1.18,4.61,4.61,0,0,0,.6-.57l.07,0a6.76,6.76,0,0,0,1.81-3.67s0-.17-.07-.19Z"/></g></g></svg>