<?xml version="1.0" standalone="no"?>
<!DOCTYPE svg PUBLIC "-//W3C//DTD SVG 20010904//EN"
 "http://www.w3.org/TR/2001/REC-SVG-20010904/DTD/svg10.dtd">
<svg version="1.0" xmlns="http://www.w3.org/2000/svg"
 width="500.000000pt" height="72.000000pt" viewBox="0 0 500.000000 72.000000"
 preserveAspectRatio="xMidYMid meet">

<g transform="translate(0.000000,72.000000) scale(0.100000,-0.100000)"
fill="#000000" stroke="none">
<path d="M3338 704 c-147 -35 -225 -122 -204 -225 10 -49 45 -90 101 -115 44
-20 79 -26 214 -35 89 -5 174 -14 189 -20 49 -19 72 -49 72 -94 0 -51 -25 -87
-83 -118 -37 -19 -57 -22 -157 -22 -96 0 -124 4 -172 23 -83 33 -124 64 -121
91 4 32 -12 18 -46 -43 -36 -61 -38 -71 -14 -57 13 7 32 2 73 -19 108 -54 156
-65 280 -64 95 0 125 4 172 22 171 68 203 270 53 342 -37 18 -73 23 -212 31
-92 5 -182 14 -200 20 -43 14 -73 53 -73 97 0 48 52 96 128 118 130 38 389
-19 366 -81 -4 -8 -2 -15 2 -15 5 0 23 26 39 57 40 75 40 76 18 62 -16 -10
-31 -7 -84 14 -119 47 -233 58 -341 31z"/>
<path d="M3884 698 c-2 -4 4 -9 15 -13 23 -7 33 -31 156 -369 89 -244 97 -270
82 -281 -29 -21 -19 -25 63 -25 73 0 97 9 70 25 -5 3 -10 15 -10 25 0 17 175
528 183 537 3 2 48 -121 103 -273 90 -253 97 -277 81 -289 -9 -7 -17 -15 -17
-19 0 -3 36 -6 80 -6 44 0 80 3 80 7 0 3 -6 14 -14 22 -12 14 -1 54 90 316 78
223 110 306 129 322 l24 21 -74 4 c-41 2 -75 1 -75 -1 0 -3 7 -12 15 -21 14
-16 7 -42 -75 -280 -49 -145 -92 -265 -94 -267 -3 -4 -39 95 -147 410 -42 123
-43 129 -26 142 16 12 8 14 -68 17 -48 2 -89 0 -92 -4 -2 -5 1 -8 7 -8 6 0 13
-7 17 -15 7 -19 -177 -549 -187 -538 -5 6 -147 404 -185 520 -2 7 2 19 10 27
8 8 15 16 15 18 0 6 -152 3 -156 -4z"/>
<path d="M19 681 c20 -20 21 -31 21 -321 0 -287 -1 -301 -20 -320 -11 -11 -20
-23 -20 -26 0 -3 107 -4 238 -2 283 6 319 14 392 87 64 64 92 139 93 251 2
149 -51 258 -154 315 l-54 30 -258 3 -258 3 20 -20z m464 -52 c53 -14 110 -69
138 -132 18 -41 23 -70 23 -137 0 -99 -25 -167 -77 -218 -56 -54 -87 -61 -278
-62 l-174 -2 -3 281 -2 281 167 0 c93 0 185 -5 206 -11z"/>
<path d="M1033 562 c15 -16 13 -23 -17 -92 -100 -227 -199 -427 -219 -442 -21
-17 -20 -18 52 -18 73 0 74 0 57 19 -17 19 -17 22 10 81 l27 60 154 -2 154 -3
26 -58 c22 -48 25 -62 15 -78 -12 -18 -8 -19 65 -19 l78 0 -28 23 c-18 15 -62
97 -137 260 -61 131 -110 244 -110 251 0 6 5 17 12 24 9 9 -7 12 -72 12 -79 0
-82 -1 -67 -18z m131 -201 c31 -69 56 -128 56 -133 0 -10 -237 -11 -243 0 -3
4 18 59 47 122 29 63 55 124 59 134 11 28 19 15 81 -123z"/>
<path d="M1397 562 c13 -10 65 -112 126 -247 126 -281 119 -261 102 -279 -8
-8 -15 -17 -15 -20 0 -3 38 -6 85 -6 78 0 107 10 70 24 -8 3 -15 11 -15 18 1
26 209 483 230 505 l22 23 -73 0 c-55 -1 -70 -3 -56 -11 9 -5 17 -18 17 -27 0
-20 -182 -442 -190 -442 -10 0 -190 416 -190 439 0 11 8 25 18 30 12 8 -5 10
-68 10 -82 1 -84 0 -63 -17z"/>
<path d="M2103 566 c15 -12 17 -37 17 -266 0 -222 -2 -256 -17 -272 -15 -17
-13 -18 57 -18 l74 0 -22 20 c-21 20 -22 27 -22 265 0 232 1 246 20 265 l20
20 -72 0 c-63 -1 -71 -2 -55 -14z"/>
<path d="M2389 561 c20 -20 21 -31 21 -266 0 -240 0 -245 -22 -266 l-23 -21
205 4 c196 4 207 5 262 30 198 92 194 426 -7 515 -33 14 -76 18 -248 21 l-209
4 21 -21z m361 -42 c61 -13 112 -54 133 -107 53 -132 12 -279 -91 -324 -36
-16 -75 -22 -179 -26 l-133 -5 0 237 0 236 110 0 c60 0 132 -5 160 -11z"/>
</g>
</svg>
