<svg xmlns="http://www.w3.org/2000/svg" viewBox="0 0 69.93 69.93"><defs><style>.cls-1{fill:#1a3b8b;}.cls-2{fill:#badefc;}.cls-3{fill:#458bc4;}.cls-4{fill:#4f6ef7;}</style></defs><title>Asset 6@100x</title><g id="Layer_2" data-name="Layer 2"><g id="Layer_1-2" data-name="Layer 1"><path class="cls-1" d="M49.75,32.11s-.74-1.61-5-1.36a10.51,10.51,0,0,1-8.12-3.27A13.26,13.26,0,0,1,33.38,21a12.18,12.18,0,0,1,.35-4.87l6.33,6.33a2.54,2.54,0,0,0,2.6.44,7.91,7.91,0,0,0,3.8-2.57,6.79,6.79,0,0,0,2-4c.16-1.68-1.32-2.4-1.76-2.8s-5.28-5.28-5.28-5.28a14.3,14.3,0,0,1,4.24-.44,12.35,12.35,0,0,1,5.12,1.72,11.3,11.3,0,0,1,4.44,5,11,11,0,0,1,.92,5.92c-.12,2.25,1.72,4.41,2.6,5.25.48.45,6.07,6.07,11.1,11.13,0-.61.05-1.22.05-1.84A35,35,0,0,0,0,35c0,.81,0,1.6.09,2.39l2,1A20.12,20.12,0,0,1,4.79,35.9L2.65,29.67a1.14,1.14,0,0,1,.71-1.45l8.64-3a1.14,1.14,0,0,1,1.45.7l2.14,6.23a20.12,20.12,0,0,1,3.64.22l2.88-5.92A1.15,1.15,0,0,1,23.64,26l8.21,4a1.11,1.11,0,0,1,.58.66,1.14,1.14,0,0,1,0,.87l-2.89,5.92a18.4,18.4,0,0,1,2.41,2.73L38.13,38a1.14,1.14,0,0,1,1.45.71l3,8.64a1.13,1.13,0,0,1-.71,1.45l-6.23,2.15a19.14,19.14,0,0,1-.22,3.63l5.92,2.89A1.15,1.15,0,0,1,41.85,59l-4,8.21a1.13,1.13,0,0,1-1.53.52l-5.92-2.88a19.53,19.53,0,0,1-2.72,2.41l.71,2A34.93,34.93,0,0,0,66.94,49.1Z"/><path class="cls-1" d="M23.79,49a8,8,0,1,0-5,10.17A8,8,0,0,0,23.79,49Z"/><path class="cls-2" d="M30.39,64.84l5.92,2.88a1.13,1.13,0,0,0,1.53-.52l4-8.21a1.15,1.15,0,0,0-.53-1.53L35.4,54.57a19.14,19.14,0,0,0,.22-3.63l6.23-2.15a1.13,1.13,0,0,0,.71-1.45l-3-8.64A1.14,1.14,0,0,0,38.13,38L31.9,40.14a18.4,18.4,0,0,0-2.41-2.73l2.89-5.92a1.14,1.14,0,0,0,0-.87,1.11,1.11,0,0,0-.58-.66l-8.21-4a1.15,1.15,0,0,0-1.53.52L19.23,32.4a20.12,20.12,0,0,0-3.64-.22L13.45,26a1.14,1.14,0,0,0-1.45-.7l-8.64,3a1.14,1.14,0,0,0-.71,1.45L4.79,35.9a20.12,20.12,0,0,0-2.72,2.41l-2-1A34.9,34.9,0,0,0,3.7,50.62a12.59,12.59,0,1,1,12,13.5A34.65,34.65,0,0,0,28.38,69.3l-.71-2A19.53,19.53,0,0,0,30.39,64.84Z"/><path class="cls-3" d="M20.32,63.46A12.57,12.57,0,1,0,3.7,50.62a35.11,35.11,0,0,0,12,13.5A12.52,12.52,0,0,0,20.32,63.46ZM8.67,54.18a8,8,0,1,1,10.16,5A8,8,0,0,1,8.67,54.18Z"/><path class="cls-4" d="M58.78,25.67c-.88-.84-2.72-3-2.6-5.25a11,11,0,0,0-.92-5.92,11.3,11.3,0,0,0-4.44-5A12.35,12.35,0,0,0,45.7,7.82a14.3,14.3,0,0,0-4.24.44s4.84,4.88,5.28,5.28,1.92,1.12,1.76,2.8a6.79,6.79,0,0,1-2,4,7.91,7.91,0,0,1-3.8,2.57,2.54,2.54,0,0,1-2.6-.44l-6.33-6.33A12.18,12.18,0,0,0,33.38,21a13.26,13.26,0,0,0,3.2,6.47,10.51,10.51,0,0,0,8.12,3.27c4.31-.25,5,1.36,5,1.36l17.19,17a34.62,34.62,0,0,0,2.94-12.3C64.85,31.74,59.26,26.12,58.78,25.67Z"/></g></g></svg>