<svg xmlns="http://www.w3.org/2000/svg" viewBox="0 0 862.54 347.16"><g id="Layer_2" data-name="Layer 2"><g id="Layer_1-2" data-name="Layer 1"><path d="M117.07.05c18.33,0,36.66,0,55,0,35.53.1,61.87,26.35,62,61.79.06,13.33-.08,26.66,0,40q.3,37.39-32.25,55.64c-2.89,1.62-3.88,3.27-3.9,6.52s1.27,4.58,3.87,6c21.64,12,32.25,30.45,32.26,55.1,0,19.66-.49,39.34.11,59,1,34-25.33,62.69-62.11,62.91s-73.32.21-110,0c-29.67-.17-53.75-18.61-60.28-45.93A69.17,69.17,0,0,1,.15,285.74c-.19-20.32,0-40.66-.11-61-.16-24.62,10.6-42.8,32.05-54.58,3.11-1.71,4.06-3.49,4.12-6.88s-1.67-4.37-4.15-5.79C11.5,145.76.26,128.26.09,104.25c-.1-15-.14-30,0-45a59.07,59.07,0,0,1,50.59-58C60.84-.21,71.27.23,81.57.09,93.4-.08,105.24.05,117.07.05Zm-.17,294q15.24,0,30.48,0c13.42,0,22.62-9.1,22.68-22.45.05-12,0-24,0-36,0-15.12-8.73-24-23.77-24-13,0-26,0-39,0-7.16,0-14.33-.17-21.48,0-12,.38-21.45,9.25-21.64,20.54-.22,13.66-.27,27.33,0,41,.25,12,9.71,20.83,21.69,20.88C96.24,294.08,106.57,294.05,116.9,294.05Zm-.1-169.82c10.83,0,21.65.11,32.48,0s20.49-9.38,20.74-20.28q.33-15,0-30c-.28-11.45-9.27-20.82-20.64-21q-32.22-.42-64.45,0c-11.68.16-20.6,9.74-20.73,21.38q-.15,14.25,0,28.48c.14,12.21,9.4,21.32,21.65,21.39C96.15,124.29,106.47,124.24,116.8,124.23Z"/><path d="M651.2,39.25h30.35V89.54h30.3V39.46h30.61V165.22H712.28V118H681.65v47.26H651.2Z"/><path d="M623.07,79.05H592.28a8.66,8.66,0,0,1-.74-2.28c-.36-8.75-7.38-15-18-14.5-10.83.52-17.31,6.07-17.58,16.48-.39,15.13-.32,30.31.25,45.44.41,10.93,6.83,16.23,18,16.31,12,.09,17.63-4.56,18.9-15.84a69.73,69.73,0,0,0,0-7.43H575.88v-23h47.69c-.38,14.34,1.53,28.66-2.28,42.71-4.34,16-15.15,24.82-31.07,28.1a74.91,74.91,0,0,1-31.2.18c-19-4.08-31.16-15.87-32.7-35.28-1.53-19.2-1.05-38.59-.86-57.89,0-4.64,1.91-9.46,3.76-13.85,2.85-6.77,7.66-12.38,14.37-15.4,20.93-9.44,42-10.32,62,2.19C617.69,52.56,622.31,64.69,623.07,79.05Z"/><path d="M402.14,66.49H344.37V87.92h46.34v27.57H344.32v21.44H402v27.54H314.45V38.92h87.69Z"/><path d="M651.52,321.52V195.46h88.09v27.46H682v21.79h46V272H681.92v21.86H739.6v27.66Z"/><path d="M620.65,293.68V321.4h-88v-126h87.93v27.45H562.7v21.9h46.23V272H562.72v21.72Z"/><path d="M312.75,280.46H342a8.52,8.52,0,0,1,.62,2c.23,15.66,13.59,16.34,23.88,13.37,4.71-1.37,7.26-5.06,7.7-10.05.46-5.29-1-9.8-6.13-12-3.92-1.69-8.19-2.59-12.33-3.76-7.48-2.12-15.36-3.33-22.39-6.45-14.75-6.54-21.86-19-20.69-33.79,1.37-17.36,10.9-30,26.29-34.65a63.74,63.74,0,0,1,34-1.09c16.43,3.94,28.63,19.34,28.84,36.75H373.56c-4.21-10.51-16.71-14.16-26.35-7.67-5.85,3.93-6.46,12.51-.61,16.56,3.58,2.48,8,3.91,12.25,5.17,7.63,2.27,15.67,3.37,23.07,6.19,19.13,7.29,26.57,22.37,21.69,42.37-4.23,17.33-17.44,27.94-37.58,29.45-10.46.79-20.83.41-31-3.46C319.2,313.42,311.6,297.19,312.75,280.46Z"/><path d="M768,195.19c20.3,0,40.31-.67,60.25.19,19.28.83,30.61,11.77,33.47,30.85,1.75,11.71,1.17,23.4-5.49,33.78-8,12.44-20.39,16.42-34.34,16.81-7.8.22-15.61,0-24.25,0v44.35H768Zm29.81,54.86c9.05,0,17.68.56,26.16-.31,2.83-.29,6.64-3.8,7.57-6.64,1.36-4.17,1-9.09.51-13.61a7.57,7.57,0,0,0-7.37-7c-8.89-.36-17.8-.11-26.87-.11Z"/><path d="M451.53,66.66h-21.2V39.41h72.29v27H482.29v71.68h20.64v27.08H431.19V138.35h20.34Z"/><path d="M769.37,68.23V39.41H856V68.07h-26.8v97.12H797.53v-5.65c0-28.66-.07-57.33.08-86,0-4-.88-5.62-5.22-5.42C784.92,68.48,777.41,68.23,769.37,68.23Z"/><path d="M504.62,292v29.13H431.19V195.43h29.62V292Z"/></g></g></svg>