<svg xmlns="http://www.w3.org/2000/svg" viewBox="0 0 283.65 59.76"><defs><style>.cls-1{fill:#95c7e0;}.cls-2{fill:#fefefe;}.cls-3{fill:#afd5e7;}.cls-4{fill:#e4f0f6;}.cls-5{fill:#aac3d8;}.cls-6{fill:#e2eef5;}.cls-7{fill:#003c7d;}.cls-8{fill:#013c7d;}.cls-9{fill:#c5e0ee;}.cls-10{fill:#1f5991;}</style></defs><g id="Layer_2" data-name="Layer 2"><g id="Layer_1-2" data-name="Layer 1"><path class="cls-1" d="M43.45,0q0,29.73,0,59.45a11.4,11.4,0,0,1-2.61.12h-.39A37.3,37.3,0,0,1,28.28,55a11.42,11.42,0,0,1-4.65-4.54,6.75,6.75,0,0,1-.13-6.21,12.11,12.11,0,0,1,3.08-4.21.55.55,0,0,1,.23-.11c-.23,0-.35.14-.52.18-.79.29-1.56.61-2.36.86a4.85,4.85,0,0,0-3,2.07,2.22,2.22,0,0,1-2.21.9,5.53,5.53,0,0,0-3.87,1c1.1,0,2.18-.06,3.25,0s1.16.43.82,1.36c-.5,1.36-.94,1.68-2.4,1.69-1.79,0-3.59,0-5.39,0a2.47,2.47,0,0,0-2.08.77c.23.33.57.2.85.2C12,49,14,49,16,49c1.47,0,1.62.15,1.63,1.27,0,1.72-.22,2-1.71,2-2.44,0-4.87,0-7.31,0a2.21,2.21,0,0,0-1.41.23c.25.82.91.72,1.47.73,2.52,0,5,0,7.55,0a1.62,1.62,0,0,1,1.82,1.2c.34,1.14.09,1.6-1.1,1.64-1.8.06-3.59,0-5.39,0a18.66,18.66,0,0,0-2.1,0,2.56,2.56,0,0,0,2.23.93c2.15,0,4.31,0,6.47,0,1.41,0,2.13.92,2.89,1.83.15.17.24.44-.12.56H1.45a2.67,2.67,0,0,1-1.19-.1,2.93,2.93,0,0,1-.08-1.18q0-28.56,0-57.12A2.22,2.22,0,0,1,.29,0H14.43c.11.52-.3.69-.62.9a14.19,14.19,0,0,0-6.5,12.78,8,8,0,0,1-.06,1.77s0,.05,0,.05a.34.34,0,0,0,0-.08,16.21,16.21,0,0,1,5.65-7.59A41.71,41.71,0,0,1,27.85.7C29,.38,30.1.23,31.22,0Z"/><path class="cls-2" d="M7,15.8c0-1.23-.08-2.47,0-3.7A14.12,14.12,0,0,1,9.77,4.3,13.44,13.44,0,0,1,14.15.36c.12-.07.19-.24.28-.36H31.22a9.82,9.82,0,0,1-2.88.89,46.41,46.41,0,0,0-9.41,3.49,25.81,25.81,0,0,0-8.23,6,13.49,13.49,0,0,0-3.23,5.46A.28.28,0,0,1,7,15.8Z"/><path class="cls-3" d="M.29,0V59.44c-.08.11-.16.11-.25,0Q.05,30.22.06,1C.06.64-.18.22.29,0Z"/><path class="cls-4" d="M.05,59.45H.3l20.89,0a.23.23,0,0,1,.25,0,.17.17,0,0,1-.05.24c-6.88,0-13.75,0-20.63,0C.54,59.68.14,60,.05,59.45Z"/><path class="cls-5" d="M21.39,59.69c0-.07,0-.14,0-.21a1.89,1.89,0,0,1,1.56-.41H37.17a20.18,20.18,0,0,1,3.08.35l.35.06c.06.05.07.1,0,.15a.1.1,0,0,1-.07.06Z"/><path class="cls-6" d="M40.57,59.69a.76.76,0,0,1,0-.21l2.84,0v.24Z"/><path class="cls-7" d="M171.77,19.59l-2.33,3.35c-.68-.47-1.31-.94-2-1.38a16.76,16.76,0,0,0-11.23-2.88,8.79,8.79,0,0,0-3.51,1.1,4.5,4.5,0,0,0-1.27,1.07,2.68,2.68,0,0,0,.27,3.85,5.53,5.53,0,0,0,2.32,1.19,30.92,30.92,0,0,0,6.28.71,29.26,29.26,0,0,1,5.68.74,10.4,10.4,0,0,1,5.12,2.93,8,8,0,0,1-.08,10.87A11,11,0,0,1,165,44.53a23.45,23.45,0,0,1-19.52-4.47,3.64,3.64,0,0,1-.29-.32l2.33-3.5a28.61,28.61,0,0,0,4.8,3,18.3,18.3,0,0,0,8.18,1.94,10.54,10.54,0,0,0,6.51-2c2.25-1.75,3-5.56-.67-7.47a11.65,11.65,0,0,0-4.62-1.06,52.51,52.51,0,0,1-8.66-.95,11.28,11.28,0,0,1-3.22-1.25,6.72,6.72,0,0,1-.78-11.13,11.41,11.41,0,0,1,5.64-2.45c6.21-1,11.74.79,16.79,4.37A2.58,2.58,0,0,1,171.77,19.59Z"/><path class="cls-7" d="M259.34,15.39a3.32,3.32,0,0,1,3.58,1.32c5.26,6.21,10.64,12.32,16,18.47l.69.76V15.36h4.06v29a11.62,11.62,0,0,0-1.45,0,1.35,1.35,0,0,1-1.21-.61l-5.73-6.6-11.34-13a.47.47,0,0,0-.49-.24V44.24a35,35,0,0,1-4.09,0Z"/><path class="cls-7" d="M111.4,15.4a7.08,7.08,0,0,1,1.49-.1,1.43,1.43,0,0,1,1.33.59c2.54,3,5.11,5.92,7.68,8.87q4.66,5.37,9.36,10.74c.09.12.16.29.42.28V15.38h4V44.2c-.4.23-.85,0-1.27.12a1.46,1.46,0,0,1-1.43-.65c-2.4-2.78-4.83-5.54-7.24-8.3L115.87,24a1.91,1.91,0,0,0-.33-.19V44.23h-4C111.26,43.41,111.15,18.74,111.4,15.4Z"/><path class="cls-7" d="M84.88,15.36v3.78H66.18v7.54l.06.07s.06.06.1.06H77.42v3.92H66.2v9.72H86v3.8H62V15.36Z"/><path class="cls-7" d="M214.12,30.7v9.77H234v3.66c-.8.23-22.45.3-24,.06V15.49c.86-.23,20.56-.32,22.87-.1a35.54,35.54,0,0,1,0,3.73H214.14v7.69h11.22V30.7Z"/><path class="cls-7" d="M204.74,15.39v3.74H192.81v25.1h-4.19c0-1.64,0-3.3,0-5V19.19H176.68c-.16-1.3,0-2.51-.09-3.8Z"/><path class="cls-8" d="M99.15,44.35H95.07V15.16h4.08Z"/><path class="cls-8" d="M243,15.14h4.06V44.31a9.24,9.24,0,0,1-2,.07c-.67,0-1.35,0-2.09,0Z"/><path class="cls-2" d="M38.62,25.38l.66.09v9.37a1.26,1.26,0,0,1-.76.39A108.71,108.71,0,0,0,23.44,39.7a74.89,74.89,0,0,0-8.07,3.48A44.18,44.18,0,0,0,8.2,47.63c-.87.67-1.67,1.44-2.55,2.21a11.34,11.34,0,0,1,2.26-8.46c2.45-3.46,5.79-5.83,9.38-7.93a56.4,56.4,0,0,1,9.27-4.28c.29-.11.57-.29.85-.43a1.45,1.45,0,0,1,.88-.57c2.93-1,5.83-2,8.83-2.77C37.61,25.29,38.12,25.07,38.62,25.38Z"/><path class="cls-7" d="M38.62,25.38a100.73,100.73,0,0,0-10.08,3c-.37.12-.75.22-1.13.33a26.12,26.12,0,0,1-5.2-2.87,1.49,1.49,0,0,0-1-.19c-2.23,0-4.45.19-6.69.18-1.34,0-2.19-.71-3.27-1.66h9c-.55-1-1.19-1.84-1.61-2.82H9.19a3.17,3.17,0,0,1-.79-1.62h9.8A16.16,16.16,0,0,1,18,17.2H8.3c-.26-.68.2-1.07.22-1.62h9.59L18.75,13H10.17c.54-1.51.76-1.67,2.22-1.67h7l1.26-2.61H14.05C15,7.8,15.7,7.05,16.94,7.15s2.32-.05,3.47,0a1.72,1.72,0,0,0,1.82-1c.28-.52.71-1,1-1.48a4.29,4.29,0,0,1,2.91-2c1.62-.41,3.22-.87,4.82-1.34.27-.08.45-.08.6.18-1.14,1.1-2.29,2.18-3.4,3.31a19.55,19.55,0,0,0-4.06,5.71c-1.85,4.11-.31,7.5,2.82,9.86a27.42,27.42,0,0,0,9.76,4.31c.42.11.85.19,1.28.26S38.53,25.05,38.62,25.38Z"/><path class="cls-7" d="M40.25,59.42l-11,0-7.88,0a.6.6,0,0,0-.19-.06c-.49-.63-1.27-1-1.7-1.66-.25-.41-.72-.28-1.11-.28H11.91c-1.75,0-2-.1-3.41-1.57,1.65-.16,3.21,0,4.76-.07s3.11,0,4.73,0c0-.81-.43-1.39-.53-2a1.79,1.79,0,0,0-1.1-.14H8.45C7,53.64,7,53.64,6.58,52H17.09c.34-.45.16-.91.21-1.33a5,5,0,0,1,.21-1.32H8.15a2.86,2.86,0,0,1,2.58-1.68h7.21l1.13-2.38H13.92c1.17-.91,2.31-1.88,3.89-1.66a3.06,3.06,0,0,0,3.6-1.75,1.15,1.15,0,0,1,.69-.64c1.53-.44,2.95-1.17,4.51-1.53.27-.07.35.06.31.3a17,17,0,0,0-3,4.12c-1.58,3.35-.63,6.28,1.9,8.61,2.82,2.61,6.3,4,9.85,5.21C37.15,58.52,38.7,59,40.25,59.42Z"/><path class="cls-9" d="M7,15.8h.45c0,.24.14.55-.23.68C6.87,16.35,7,16.05,7,15.8Z"/><path class="cls-10" d="M26.92,40.05a.43.43,0,0,0-.31-.3.86.86,0,0,1,.71-.29C27.43,39.84,27.14,39.92,26.92,40.05Z"/></g></g></svg>