<svg xmlns="http://www.w3.org/2000/svg" width="667.252" height="444.297" viewBox="0 0 667.252 444.297"><defs><style>.a{fill:#281b4d;}</style></defs><path class="a" d="M9455.148,606.9c-5.384-5.384-6.828-1.97,53.051-117.4,17.6-33.879,31.909-61.849,31.778-61.98,0-.131-13.919,1.97-30.859,4.859-80.232,13.263-129.606,16.02-140.506,8.141-8.667-6.3-23.9-37.162-36.243-73.142-8.929-25.738-17.728-55.94-16.808-57.384,1.575-2.495,11.687-6.3,17.2-6.3,12.344,0,23.9,6.3,43.728,23.768,6.828,6.04,18.384,15.889,25.606,21.667l13.131,10.636,15.758-7.091c17.465-7.879,86.8-35.718,115.951-46.485l18.777-6.96-80.627-53.314c-44.253-29.414-81.809-55.152-83.385-57.122-6.565-8.4-2.232-13.525,15.5-18.384,18.253-4.859,30.465-6.172,44.385-4.6,10.374,1.182,25.344,6.172,129.606,43.334l117.921,42.021L9729.6,245.4c86.536-24.687,141.031-32.435,159.021-22.323,9.717,5.384,44.909,18.515,59.748,22.323,20.091,5.121,26,7.616,30.2,12.606,13.394,15.889-5.253,35.849-58.173,62.637-51.737,26.132-105.445,44.384-196.84,67.1l-32.96,8.141-82.334,93.758c-56.99,64.869-84.7,95.466-89.819,99.142-10.9,7.879-21.4,12.606-37.556,16.94C9463.553,610.45,9458.825,610.581,9455.148,606.9Zm43.728-226.517c4.2-1.182,8.272-3.152,8.8-4.333,1.576-3.02-3.545-20.879-6.435-22.455-2.757-1.444-15.363,1.576-18.121,4.465-1.838,1.707-1.707,3.02.394,10.9s4.99,13.525,6.96,13.525C9490.866,382.488,9494.674,381.569,9498.876,380.387Zm42.415-11.687c10.11-3.02,10.636-4.071,7.747-15.1-1.313-5.121-3.414-10.243-4.6-11.293-2.1-1.97-3.021-1.838-10.637.394-6.828,1.97-8.4,3.02-8.667,5.515-.656,4.465,3.546,18.909,6.041,20.879S9532.887,371.064,9541.291,368.7Zm42.939-11.95c4.2-1.182,8.272-3.152,8.8-4.333,1.576-3.02-3.546-20.879-6.435-22.455-2.758-1.444-15.363,1.576-18.121,4.465-1.839,1.707-1.707,3.02.394,10.9s4.99,13.525,6.96,13.525C9576.22,358.852,9580.028,357.933,9584.23,356.751Zm201.83-12.869c5.384-1.444,10.374-3.808,11.03-4.99,1.839-2.758-16.677-70.91-20.091-73.93-1.839-1.707-4.465-1.313-24.293,4.333-13,3.677-22.586,6.96-23.374,8.273-1.707,2.889,16.808,70.516,20.222,73.667C9752.182,353.468,9754.02,353.205,9786.061,343.882Zm-159.416,1.182c10.111-3.02,10.637-4.071,7.748-15.1-1.313-5.121-3.414-10.242-4.6-11.293-2.1-1.97-3.021-1.838-10.637.394-7.354,2.1-8.273,2.889-8.667,6.04-.656,4.859,3.414,18.253,6.04,20.354C9619.16,347.428,9618.24,347.428,9626.645,345.064Zm46.617-13.131c5.777-1.97,6.3-4.6,3.151-16.02-2.889-10.505-4.728-11.687-14.182-8.929-10.243,3.02-10.9,4.2-8.011,14.839C9657.9,335.872,9659.474,336.66,9673.262,331.932Zm40.182-11.03c8.4-2.232,9.192-3.808,6.3-14.576-3.283-12.737-4.859-13.919-14.576-11.162-10.637,3.02-11.162,4.071-8.142,15.5,2.626,9.586,5.384,13.263,8.93,12.212C9707.141,322.478,9710.555,321.559,9713.443,320.9Zm147.6-53.182c29.546-8.273,50.688-14.839,62.9-19.828,3.939-1.707,5.121-2.626,3.809-3.414-3.546-1.97-38.345-15.626-39.789-15.626-.919,0-5.777,2.364-10.9,5.384-4.99,2.889-20.879,10.374-35.192,16.414-14.444,6.172-27.445,12.475-29.152,14.051-3.808,3.545-3.414,8.8,1.051,11.162C9818.889,278.619,9827.688,277.043,9861.041,267.72Z" transform="translate(-9315.495 -165.188)"/></svg>