<svg xmlns="http://www.w3.org/2000/svg" xmlns:xlink="http://www.w3.org/1999/xlink" width="45" height="45" viewBox="0 0 45 45">
  <defs>
    <circle id="extension-product-icon-a" cx="22.5" cy="22.5" r="22.5"/>
  </defs>
  <g fill="none" fill-rule="evenodd">
    <mask id="extension-product-icon-b" fill="#fff">
      <use xlink:href="#extension-product-icon-a"/>
    </mask>
    <use fill="#DFE5FF" xlink:href="#extension-product-icon-a"/>
    <g mask="url(#extension-product-icon-b)">
      <g transform="translate(9 9)">
        <circle cx="13.533" cy="13.533" r="14.467" fill="#4F6EF7" fill-rule="nonzero" stroke="#214497" stroke-width="1.867"/>
        <path fill="#F2F2F2" fill-rule="nonzero" d="M11.655585 2.30316188C11.5708959 2.30316188 11.4988415 2.23840277 11.4913876 2.15255069L11.3187847.179591571C11.310855.088770217 11.3779931.00873323782 11.4688144.000803550323 11.5597415-.00749618926 11.6396727.0600647482 11.6475496.150833238L11.8201524 2.12379235C11.8280821 2.21461371 11.7609441 2.29465069 11.6701227 2.30258037 11.6652592 2.30295043 11.6603428 2.30316188 11.655585 2.30316188zM13.6532319 25.1365913C13.5685428 25.1365913 13.4964884 25.0718322 13.4890345 24.9859801L13.3164316 23.013021C13.3085019 22.9221996 13.3756399 22.8421627 13.4664613 22.834233 13.557917 22.8259332 13.6372139 22.8934942 13.6451964 22.9842627L13.8177993 24.9572218C13.825729 25.0480431 13.758591 25.1280801 13.6677696 25.1360098 13.6629061 25.136327 13.6579897 25.1365913 13.6532319 25.1365913zM9.85834774 2.62013793C9.78544748 2.62013793 9.71878524 2.57150251 9.69906675 2.49780928L9.18643889.584798602C9.16286128.496726207 9.21503863.406274904 9.30311102.3826973 9.39113056.358643915 9.48168759.411349904 9.50521233.499369436L10.0178402 2.41238011C10.0414178 2.50045251 9.98924045 2.59090381 9.90116806 2.61448141 9.88689462 2.61834053 9.87246259 2.62013793 9.85834774 2.62013793zM15.7906527 24.7597197C15.7177524 24.7597197 15.6510902 24.7110843 15.6313717 24.6373911L15.1187967 22.7243804C15.0952191 22.636308 15.1473964 22.5458567 15.2354688 22.5222791 15.3238056 22.4983843 15.4139397 22.5509317 15.4375701 22.6389512L15.9501451 24.5519619C15.9737227 24.6400343 15.9215454 24.7304856 15.833473 24.7540632 15.819041 24.7579223 15.8047675 24.7597197 15.7906527 24.7597197zM8.14357925 3.24431006C8.0814105 3.24431006 8.02188498 3.20899652 7.99391962 3.14899522L7.15691467 1.35403115C7.11842925 1.27145668 7.15411285 1.17323428 7.23668733 1.13474886 7.31920894 1.09626345 7.41758993 1.13194704 7.45602248 1.21457438L8.29302743 3.00953845C8.33151285 3.09211293 8.29582925 3.19033532 8.21325477 3.22882074 8.19073446 3.23934079 8.1669454 3.24431006 8.14357925 3.24431006zM17.8302212 24.0174481C17.7680524 24.0174481 17.7085269 23.9821345 17.6805615 23.9221332L16.8436095 22.1271692C16.805124 22.0445947 16.8408076 21.9463723 16.9233821 21.9078869 17.0059566 21.8694015 17.1042847 21.9051379 17.1427173 21.9877124L17.9796694 23.7826765C18.0181548 23.8652509 17.9824712 23.9634733 17.8998967 24.0019588 17.8773235 24.0124788 17.8535873 24.0174481 17.8302212 24.0174481zM6.56308681 4.15680563C6.51106806 4.15680563 6.45984227 4.13227647 6.42770061 4.08644287L5.29169358 2.46408168C5.23951623 2.38938402 5.25759592 2.28650954 5.33224071 2.23422647 5.40720269 2.18183766 5.50991858 2.20018168 5.56214878 2.2747736L6.69815582 3.8971348C6.75033316 3.97183246 6.73225347 4.07470694 6.65760868 4.12699001 6.62874462 4.14713141 6.59570425 4.15680563 6.56308681 4.15680563zM19.7098214 22.9322968C19.6578027 22.9322968 19.6065769 22.9077676 19.5744352 22.861934L18.4384811 21.2395728C18.3863037 21.1648752 18.4043834 21.0620007 18.4790282 21.0097176 18.5539902 20.9573288 18.6567061 20.9756728 18.7089363 21.0502647L19.8448376 22.6726259C19.8970149 22.7473236 19.8789352 22.8501981 19.8042905 22.9024812 19.7754793 22.9226226 19.742386 22.9322968 19.7098214 22.9322968zM5.16481858 5.32997647C5.12263264 5.32997647 5.08034097 5.31385277 5.04814644 5.28165824L3.64771076 3.8811697C3.58326884 3.81678063 3.58326884 3.71221449 3.64771076 3.64777256 3.71215269 3.58333063 3.81661311 3.58333063 3.8811079 3.64777256L5.28154358 5.04820824C5.3459855 5.1125973 5.3459855 5.21716345 5.28154358 5.28160537 5.24929618 5.3137999 5.20711024 5.32997647 5.16481858 5.32997647zM21.3722011 21.5372533C21.3300152 21.5372533 21.2877235 21.5211296 21.255529 21.4889351L19.8550933 20.0884994C19.7906514 20.0241103 19.7906514 19.9195442 19.8550933 19.8551022 19.9195352 19.7906603 20.0239957 19.7906603 20.0884905 19.8551022L21.4889261 21.2555379C21.5533681 21.319927 21.5533681 21.4244931 21.4889261 21.4889351 21.4566787 21.5211296 21.4144399 21.5372533 21.3722011 21.5372533zM3.99154201 6.72803324C3.9588717 6.72803324 3.9258842 6.71835902 3.89702014 6.69816475L2.27471181 5.56221058C2.20006701 5.50998037 2.18198733 5.40705303 2.23416467 5.33235537 2.28655347 5.25765772 2.38926936 5.23952516 2.46407274 5.29180824L4.08638108 6.42770954C4.16102587 6.47993975 4.17910556 6.58286709 4.12692821 6.65756475 4.09478655 6.70345121 4.04356076 6.72803324 3.99154201 6.72803324zM22.767086 19.8747679C22.7344157 19.8747679 22.7014282 19.8650937 22.6725641 19.8448994L21.050203 18.7089981C20.9755582 18.6567679 20.9574785 18.5538405 21.0096558 18.4791429 21.0620446 18.4045509 21.1647076 18.3863127 21.2395639 18.4385957L22.8619251 19.5745499C22.9365699 19.6267801 22.9546496 19.7297075 22.9024722 19.8044051 22.8703306 19.8501858 22.8191048 19.8747679 22.767086 19.8747679zM3.07909931 8.30857855C3.05573316 8.30857855 3.03204983 8.30360928 3.00947665 8.29303636L1.21456545 7.45608428C1.13188524 7.41759886 1.09620165 7.31937647 1.13468707 7.23680199 1.17317248 7.15422751 1.27144774 7.11854391 1.35396936 7.15697647L3.14893342 7.99392855C3.23161363 8.03241397 3.26729722 8.13063636 3.22881181 8.21321084 3.20079358 8.27326501 3.14126806 8.30857855 3.07909931 8.30857855zM23.8522373 17.9952733C23.8288712 17.9952733 23.805135 17.9903041 23.7825089 17.9797312L21.9875977 17.1427791C21.9050233 17.1042937 21.8692868 17.0060713 21.9078251 16.9234968 21.9463634 16.8409223 22.0446386 16.8051858 22.1271602 16.8436713L23.9220714 17.6806233C24.0046459 17.7191088 24.0403824 17.8173312 24.0018441 17.8999056 23.9739316 17.9599598 23.9143532 17.9952733 23.8522373 17.9952733zM2.45508576 10.0236114C2.44102378 10.0236114 2.42664462 10.021814 2.41226545 10.017902L.49920191 9.50532699C.411076649 9.48174938.358899306 9.39124522.382529774 9.30322569.406054514 9.21520615.496400087 9.16271162.584631077 9.18655355L2.49769462 9.69912855C2.58581988 9.72270615 2.63799722 9.81321032 2.61436675 9.90122985 2.5945954 9.97492308 2.5278803 10.0236114 2.45508576 10.0236114zM24.5946675 15.9558634C24.5806056 15.9558634 24.5662264 15.9540661 24.5518472 15.9501541L22.6387837 15.4375262C22.5506584 15.4139486 22.4984811 15.3234444 22.5221115 15.2354249 22.5456363 15.1474054 22.6359819 15.0950166 22.7242128 15.1187528L24.6372764 15.6313806C24.7254016 15.6549582 24.777579 15.7454624 24.7539485 15.8334819 24.7342829 15.9072809 24.6675149 15.9558634 24.5946675 15.9558634zM2.13816259 11.8208486C2.13329905 11.8208486 2.12848837 11.8206371 2.12357196 11.8201614L.150612847 11.6475585C.0598443578 11.6396288-.007293663 11.5596447.000636024498 11.4687705.00851284741 11.3779491.0888141495 11.3105468.179424045 11.3187408L2.15238316 11.4913437C2.24315165 11.4992733 2.31028967 11.5792575 2.30235998 11.6701317 2.29495894 11.7560895 2.22290451 11.8208486 2.13816259 11.8208486zM24.9716977 13.8185483C24.9669399 13.8185483 24.9620235 13.8183369 24.95716 13.8178611L22.984148 13.6452582C22.8933266 13.6373286 22.8261358 13.5573444 22.8341183 13.4664702 22.842048 13.3757017 22.9213977 13.308458 23.0128535 13.3164405L24.9858655 13.4890434C25.0766868 13.4969731 25.1438777 13.5769572 25.1358951 13.6678314 25.1283884 13.7538421 25.0563339 13.8185483 24.9716977 13.8185483zM.164939149 13.8185483C.080250087 13.8185483.00819565992 13.7537892.000741753665 13.6679371-.00718793383 13.5771158.059950087 13.4970788.150718577 13.4891491L2.12367769 13.3165463C2.21592639 13.3086166 2.29458889 13.3758603 2.30246571 13.4665759 2.3103954 13.5573973 2.24325738 13.6374343 2.15248889 13.645364L.179529774 13.8179668C.174613368 13.8183369.169696962 13.8185483.164939149 13.8185483zM22.9983686 11.8208486C22.9136795 11.8208486 22.8416251 11.7560895 22.8341712 11.6702374 22.8262415 11.5794161 22.8933795 11.4993791 22.9842009 11.4914494L24.9572128 11.3188465C25.0485628 11.3102825 25.1279655 11.3781606 25.135948 11.4688762 25.1438777 11.5596976 25.0767397 11.6397345 24.9859183 11.6476642L23.0129063 11.8202671C23.0079899 11.8206371 23.0030735 11.8208486 22.9983686 11.8208486zM.541863629 15.9558634C.468963368 15.9558634.402301129 15.9072809.382582639 15.8335348.359005035 15.7454624.411182379 15.6550111.499254774 15.6314335L2.41231832 15.1188056C2.50012639 15.094858 2.59078915 15.1474582 2.61441962 15.2354778 2.63799722 15.3235502 2.58581988 15.4140015 2.49774748 15.4375791L.584683941 15.9502069C.570410504 15.9540661.555925608 15.9558634.541863629 15.9558634zM22.6814983 10.0236114C22.608598 10.0236114 22.5419358 9.97497595 22.5222173 9.90128272 22.4986397 9.81321032 22.550817 9.72275902 22.6388894 9.69918141L24.551953 9.18660641C24.6399196 9.16276449 24.7304238 9.21525902 24.7540543 9.30327855 24.7776319 9.39135095 24.7254545 9.48180225 24.6373821 9.50537985L22.7243186 10.0179549C22.7099923 10.0217611 22.6956131 10.0236114 22.6814983 10.0236114zM1.28429384 17.9952733C1.22212509 17.9952733 1.16259957 17.9599598 1.1346342 17.8999056 1.09614878 17.8173312 1.13183238 17.7191088 1.21451259 17.6806233L3.00947665 16.8436713C3.09168108 16.8051858 3.19022066 16.8409223 3.22875894 16.9234968 3.26729722 17.0060713 3.23156076 17.1042937 3.14888056 17.1427791L1.35391649 17.9797312C1.33144905 17.9902512 1.30765998 17.9952733 1.28429384 17.9952733zM22.0574847 8.30857855C21.995316 8.30857855 21.9357905 8.27326501 21.9078251 8.21326371 21.8693397 8.13068923 21.9050233 8.03246683 21.9875977 7.99398141L23.7825089 7.15702933C23.8650834 7.11859678 23.9633587 7.15428037 24.0018441 7.23685485 24.0403295 7.31942933 24.0046459 7.41765173 23.9220714 7.45613714L22.1271602 8.29308923C22.1046399 8.30360928 22.0809037 8.30857855 22.0574847 8.30857855zM2.36955087 19.8747679C2.31753212 19.8747679 2.26630634 19.8502387 2.23416467 19.8044051 2.18198733 19.7297075 2.20006701 19.626833 2.27471181 19.5745499L3.89702014 18.4385957C3.97198212 18.3862069 4.074698 18.4045509 4.12692821 18.4791429 4.17910556 18.5538405 4.16102587 18.656715 4.08638108 18.7089981L2.46407274 19.8448994C2.43526155 19.8650408 2.40222118 19.8747679 2.36955087 19.8747679zM21.1449891 6.72803324C21.0929704 6.72803324 21.0417446 6.70350407 21.009603 6.65767048 20.9574256 6.58297282 20.9755053 6.48009834 21.0501501 6.42781527L22.6725113 5.29191397C22.7474733 5.23952516 22.8500834 5.25786918 22.9024194 5.3324611 22.9545967 5.40715876 22.936517 5.51003324 22.8618722 5.56231631L21.239511 6.69821761C21.2106998 6.71830615 21.1776595 6.72803324 21.1449891 6.72803324zM3.76443576 21.5372533C3.72224983 21.5372533 3.67995816 21.5211296 3.64776363 21.4889351 3.5833217 21.424546 3.5833217 21.3199799 3.64776363 21.2555379L5.04819931 19.8551022C5.11264123 19.7906603 5.21710165 19.7906603 5.28159644 19.8551022 5.34603837 19.9194913 5.34603837 20.0240575 5.28159644 20.0884994L3.88116076 21.4889351C3.84891337 21.5211296 3.8066217 21.5372533 3.76443576 21.5372533zM19.9718183 5.32997647C19.9296324 5.32997647 19.8873407 5.31385277 19.8551462 5.28165824 19.7907043 5.21726918 19.7907043 5.11270303 19.8551462 5.0482611L21.2555819 3.64782543C21.3200238 3.5833835 21.4244842 3.5833835 21.488979 3.64782543 21.5534209 3.71221449 21.5534209 3.81678063 21.488979 3.88122256L20.0885433 5.28165824C20.0561902 5.3137999 20.0140043 5.32997647 19.9718183 5.32997647zM5.42676259 22.9322968C5.39409227 22.9322968 5.36110477 22.9226226 5.33224071 22.9024283 5.25759592 22.8501981 5.23951623 22.7472707 5.29169358 22.6725731L6.42770061 21.0502119C6.48008941 20.97562 6.5828053 20.9573817 6.65760868 21.0096647 6.73225347 21.061895 6.75033316 21.1648223 6.69815582 21.23952L5.56214878 22.8618812C5.52995425 22.9077676 5.4788342 22.9322968 5.42676259 22.9322968zM18.5734972 4.15680563C18.5408269 4.15680563 18.5078394 4.14713141 18.4789753 4.12693714 18.4043306 4.07470694 18.3862509 3.97177959 18.4384282 3.89708194L19.5743824 2.27472074C19.6267183 2.20002308 19.7295928 2.18189053 19.8042905 2.2341736 19.8789352 2.28640381 19.8970149 2.38933115 19.8448376 2.46402881L18.7089363 4.08639001C18.6767418 4.13227647 18.6255688 4.15680563 18.5734972 4.15680563zM7.30636285 24.0174481C7.2829967 24.0174481 7.2592605 24.0124788 7.23663446 24.0019059 7.15405998 23.9634205 7.11832352 23.8651981 7.15686181 23.7826236L7.99386675 21.9876595C8.03229931 21.9050851 8.1306803 21.8693486 8.21320191 21.907834 8.29577639 21.9463194 8.33151285 22.0445418 8.29297457 22.1271163L7.45596962 23.9220804C7.42805712 23.9821345 7.3685316 24.0174481 7.30636285 24.0174481zM16.9931105 3.24431006C16.9697444 3.24431006 16.9460082 3.23934079 16.9233821 3.22876787 16.8408076 3.19028246 16.8050712 3.09206006 16.8436095 3.00948558L17.6805615 1.21452152C17.7189941 1.13189418 17.8173751 1.09621058 17.8998967 1.134696 17.9824712 1.17318141 18.0182076 1.27140381 17.9796694 1.35397829L17.1427173 3.14894235C17.114699 3.20904938 17.0551735 3.24431006 16.9931105 3.24431006zM9.34593134 24.7597197C9.33186936 24.7597197 9.31743733 24.7579223 9.30311102 24.7540103 9.21498576 24.7304327 9.16280842 24.6399286 9.18643889 24.551909L9.69906675 22.6388983C9.72264436 22.5509845 9.81325425 22.4983843 9.90116806 22.5222262 9.98929332 22.5458038 10.0414707 22.636308 10.0178402 22.7243275L9.50521233 24.6373382C9.48549384 24.7111371 9.41877873 24.7597197 9.34593134 24.7597197zM15.2782891 2.62013793C15.2642272 2.62013793 15.249848 2.61834053 15.2354688 2.61442855 15.1473436 2.59085095 15.0951662 2.50034678 15.1187967 2.41232725L15.6313717.499316571C15.6549493.41129704 15.7450834.358643915 15.833473.382644436 15.9215983.40622204 15.9737756.496726207 15.9501451.584745738L15.4375701 2.49775641C15.4178516 2.57144964 15.3511365 2.62013793 15.2782891 2.62013793zM11.4832993 25.1365913C11.4785415 25.1365913 11.4736251 25.1363799 11.4687615 25.1359041 11.3779402 25.1279744 11.3107493 25.0479374 11.3187319 24.9571161L11.4913347 22.9841569C11.4992115 22.8933884 11.5792485 22.8258275 11.6700699 22.8341272 11.7608912 22.8420569 11.8280821 22.9220411 11.8200996 23.0129153L11.6474967 24.9858744C11.6399899 25.0718322 11.5679884 25.1365913 11.4832993 25.1365913zM13.4809462 2.30316188C13.4761884 2.30316188 13.471272 2.30295043 13.4664084 2.30247464 13.3755871 2.29454496 13.3083962 2.21456084 13.3163787 2.12368662L13.4889816.150727509C13.4968584.0599590191 13.5760496-.00765478301 13.6677168.000697821157 13.7585381.00862750866 13.825729.0886116232 13.8177464.179485842L13.6451436 2.15244496C13.6376897 2.23845563 13.5656881 2.30316188 13.4809462 2.30316188z" transform="translate(.965 .965)"/>
        <g transform="translate(3.733 3.733)">
          <polygon fill="#F2F2F2" fill-rule="nonzero" points="11.343 11.343 19.174 0 7.831 7.831 0 19.174"/>
          <polygon fill="#CCC" fill-rule="nonzero" points="11.343 11.343 19.174 0 0 19.174"/>
          <polygon fill="#214497" fill-rule="nonzero" points="11.343 11.343 19.174 0 7.831 7.831"/>
          <polygon fill="#152E69" fill-rule="nonzero" points="11.343 11.343 19.174 0 9.587 9.587"/>
        </g>
      </g>
    </g>
  </g>
</svg>
