<?xml version="1.0" encoding="UTF-8" standalone="no"?>
<!DOCTYPE svg PUBLIC "-//W3C//DTD SVG 1.1//EN" "http://www.w3.org/Graphics/SVG/1.1/DTD/svg11.dtd">
<svg width="100%" height="100%" viewBox="0 0 500 500" version="1.1" xmlns="http://www.w3.org/2000/svg" xmlns:xlink="http://www.w3.org/1999/xlink" xml:space="preserve" xmlns:serif="http://www.serif.com/" style="fill-rule:evenodd;clip-rule:evenodd;stroke-linejoin:round;stroke-miterlimit:1.41421;">
    <g transform="matrix(1.39665,0,0,1.39665,-64.2458,-150.838)">
        <circle cx="225" cy="287" r="179" style="fill:rgb(26,26,26);"/>
    </g>
    <g id="eyerim-logo" serif:id="eyerim logo" transform="matrix(3.7213,0,0,3.7213,52.1795,207.976)">
        <path d="M76.855,0.287L72.349,0.287C72.15,0.287 72.038,0.403 72.038,0.595L72.038,21.043C72.038,21.23 72.149,21.349 72.347,21.349L76.855,21.349C77.052,21.349 77.164,21.23 77.164,21.043L77.164,0.593C77.164,0.403 77.052,0.287 76.855,0.287ZM32.44,15.922C32.44,16.109 32.328,16.232 32.131,16.232L28.735,16.232C27.886,16.232 27.307,15.656 27.307,14.808L27.307,0.593C27.307,0.408 27.196,0.287 27,0.287L22.496,0.287C22.299,0.287 22.188,0.408 22.188,0.593L22.188,14.803C22.188,19.361 24.36,21.348 28.448,21.348L32.112,21.348C32.271,21.368 32.391,21.505 32.391,21.665C32.288,23.731 31.393,25.449 29.76,26.511C29.674,26.571 29.621,26.669 29.619,26.774C29.619,26.864 29.658,26.947 29.715,27.007L32.76,29.948C32.852,30.05 32.983,30.109 33.12,30.11C33.22,30.106 33.316,30.072 33.397,30.013C35.932,27.978 37.564,25.641 37.564,21.348L37.563,0.593C37.563,0.408 37.452,0.287 37.255,0.287L32.749,0.287C32.553,0.287 32.441,0.408 32.441,0.593L32.441,15.922L32.44,15.922ZM44.296,10.665C44.344,10.669 44.391,10.684 44.432,10.709C46.055,11.685 47.832,12.244 49.867,12.244C52.072,12.244 54.117,11.584 55.828,10.452C57.312,9.47 59.148,7.112 59.148,6.112C59.148,5.11 57.315,2.775 55.828,1.791C54.116,0.66 52.071,0 49.867,0C47.663,0 45.614,0.66 43.907,1.792C42.278,2.87 40.968,4.367 40.116,6.125C39.408,7.589 39.041,9.195 39.043,10.821C39.043,16.794 43.89,21.641 49.865,21.641L49.867,21.641C53.386,21.641 56.503,19.956 58.478,17.356C58.507,17.311 58.524,17.259 58.527,17.206C58.527,17.109 58.486,17.016 58.414,16.951L55.364,13.986C55.31,13.935 55.238,13.906 55.164,13.904C55.058,13.905 54.959,13.957 54.898,14.043C53.835,15.702 51.761,16.501 49.645,16.501C49.63,16.501 49.615,16.501 49.6,16.501C46.539,16.501 44.018,13.986 44.012,10.925C44.026,10.779 44.149,10.666 44.296,10.665ZM49.77,4.764C51.503,4.764 53.332,5.535 53.332,6.113C53.332,6.689 51.503,7.461 49.77,7.461C48.036,7.461 46.013,6.689 46.013,6.113C46.013,5.535 48.036,4.764 49.77,4.764ZM6.155,10.665C6.205,10.669 6.251,10.686 6.29,10.709C7.913,11.685 9.689,12.244 11.723,12.244C13.928,12.244 15.973,11.584 17.685,10.452C19.171,9.47 21.007,7.112 21.007,6.112C21.007,5.11 19.174,2.775 17.685,1.791C15.917,0.62 13.842,-0.003 11.722,0C9.52,0 7.47,0.66 5.765,1.792C4.135,2.869 2.824,4.366 1.973,6.125C1.264,7.589 0.897,9.195 0.9,10.821C0.9,16.794 5.746,21.641 11.722,21.641C15.241,21.641 18.362,19.956 20.337,17.356C20.365,17.311 20.381,17.259 20.383,17.206C20.384,17.108 20.343,17.015 20.269,16.951L17.221,13.986C17.166,13.935 17.095,13.906 17.02,13.904C16.914,13.905 16.815,13.957 16.753,14.043C15.692,15.702 13.615,16.501 11.501,16.501C11.486,16.501 11.471,16.501 11.456,16.501C8.395,16.501 5.874,13.986 5.868,10.925C5.884,10.779 6.008,10.666 6.155,10.665ZM11.627,4.764C13.359,4.764 15.188,5.535 15.188,6.113C15.188,6.689 13.359,7.461 11.627,7.461C9.894,7.461 7.872,6.689 7.872,6.113C7.872,5.535 9.894,4.764 11.627,4.764ZM70.252,0.287L66.888,0.287C62.797,0.287 60.627,2.267 60.627,6.829L60.627,21.042C60.627,21.227 60.736,21.348 60.934,21.348L65.441,21.348C65.635,21.348 65.747,21.229 65.747,21.042L65.747,6.83C65.747,5.979 66.327,5.406 67.178,5.406L70.253,5.406C70.452,5.406 70.563,5.291 70.563,5.097L70.563,0.593C70.562,0.403 70.451,0.287 70.252,0.287ZM105.415,6.83C105.415,2.267 103.243,0.288 99.152,0.288L80.107,0.288C79.911,0.288 79.799,0.404 79.799,0.594L79.799,21.044C79.799,21.231 79.91,21.35 80.107,21.35L84.613,21.35C84.812,21.35 84.924,21.231 84.924,21.044L84.921,5.714C84.921,5.523 85.032,5.406 85.229,5.406L89.738,5.406C89.937,5.406 90.05,5.523 90.05,5.714L90.05,21.043C90.05,21.23 90.159,21.349 90.358,21.349L94.864,21.349C95.063,21.349 95.173,21.23 95.173,21.043L95.173,5.714C95.173,5.523 95.285,5.406 95.485,5.406L98.864,5.406C99.714,5.406 100.297,5.979 100.297,6.83L100.297,21.043C100.297,21.23 100.406,21.349 100.602,21.349L105.109,21.349C105.305,21.349 105.418,21.228 105.418,21.043L105.415,6.83Z" style="fill:white;fill-rule:nonzero;"/>
    </g>
</svg>
