<?xml version="1.0" encoding="UTF-8" standalone="no"?>
<svg
   xmlns:svg="http://www.w3.org/2000/svg"
   xmlns="http://www.w3.org/2000/svg"
   viewBox="0 0 1066.6667 1066.6667"
   height="1066.6667"
   width="1066.6667"
   xml:space="preserve"
   id="svg2"
   version="1.1"><defs
     id="defs6"><clipPath
       id="clipPath18"
       clipPathUnits="userSpaceOnUse"><path
         id="path16"
         d="M 0,800 H 800 V 0 H 0 Z" /></clipPath><clipPath
       id="clipPath234"
       clipPathUnits="userSpaceOnUse"><path
         id="path232"
         d="m 265.44,402.584 h 42.702 V 360.318 H 265.44 Z" /></clipPath><clipPath
       id="clipPath250"
       clipPathUnits="userSpaceOnUse"><path
         id="path248"
         d="M 166.958,641.055 H 407.355 V 148.309 H 166.958 Z" /></clipPath><clipPath
       id="clipPath254"
       clipPathUnits="userSpaceOnUse"><path
         id="path252"
         d="m 166.964,225.141 h 45.549 v -76.832 h -45.549 z" /></clipPath><clipPath
       id="clipPath314"
       clipPathUnits="userSpaceOnUse"><path
         id="path312"
         d="m 536.911,566.034 h 46.554 v -53.681 h -46.554 z" /></clipPath><clipPath
       id="clipPath330"
       clipPathUnits="userSpaceOnUse"><path
         id="path328"
         d="m 537.044,340.998 h 46.285 v -79.941 h -46.285 z" /></clipPath><clipPath
       id="clipPath346"
       clipPathUnits="userSpaceOnUse"><path
         id="path344"
         d="m 391.872,542.376 h 86.707 v -44.153 h -86.707 z" /></clipPath><clipPath
       id="clipPath362"
       clipPathUnits="userSpaceOnUse"><path
         id="path360"
         d="m 395.627,289.534 h 86.706 v -44.158 h -86.706 z" /></clipPath><clipPath
       id="clipPath378"
       clipPathUnits="userSpaceOnUse"><path
         id="path376"
         d="m 494.712,279.275 h 86.707 v -46.036 h -86.707 z" /></clipPath><clipPath
       id="clipPath394"
       clipPathUnits="userSpaceOnUse"><path
         id="path392"
         d="m 491.709,467.242 h 86.703 v -44.154 h -86.703 z" /></clipPath><clipPath
       id="clipPath410"
       clipPathUnits="userSpaceOnUse"><path

         d="m 487.769,440.427 h 41.629 V 399.78 h -41.629 z" /></clipPath><clipPath
       id="clipPath426"
       clipPathUnits="userSpaceOnUse"><path

         d="m 491.519,250.506 h 41.629 v -40.647 h -41.629 z" /></clipPath><clipPath
       id="clipPath442"
       clipPathUnits="userSpaceOnUse"><path

         d="m 585.739,429.936 h 44.14 v -43.73 h -44.14 z" /></clipPath><clipPath
       id="clipPath458"
       clipPathUnits="userSpaceOnUse"><path

         d="m 585.739,617.851 h 44.14 v -43.729 h -44.14 z" /></clipPath><clipPath
       id="clipPath474"
       clipPathUnits="userSpaceOnUse"><path

         d="m 491.705,654.686 h 86.707 v -43.35 h -86.707 z" /></clipPath><clipPath
       id="clipPath490"
       clipPathUnits="userSpaceOnUse"><path
         id="path488"
         d="m 386.48,513.905 h 46.288 V 437.076 H 386.48 Z" /></clipPath><clipPath
       id="clipPath506"
       clipPathUnits="userSpaceOnUse"><path
         id="path504"
         d="m 386.473,450.934 h 46.295 V 374.1 h -46.295 z" /></clipPath><clipPath
       id="clipPath522"
       clipPathUnits="userSpaceOnUse"><path
         id="path520"
         d="m 436.635,390.529 h 46.549 v -53.686 h -46.549 z" /></clipPath><clipPath
       id="clipPath538"
       clipPathUnits="userSpaceOnUse"><path
         id="path536"
         d="m 440.472,201.4 h 46.553 v -53.688 h -46.553 z" /></clipPath><clipPath
       id="clipPath554"
       clipPathUnits="userSpaceOnUse"><path
         id="path552"
         d="m 536.841,378.181 h 46.688 v -53.688 h -46.688 z" /></clipPath><clipPath
       id="clipPath570"
       clipPathUnits="userSpaceOnUse"><path
         id="path568"
         d="m 436.891,601.26 h 46.293 v -76.83 h -46.293 z" /></clipPath><clipPath
       id="clipPath586"
       clipPathUnits="userSpaceOnUse"><path
         id="path584"
         d="m 390.191,260.876 h 46.293 v -76.832 h -46.293 z" /></clipPath><clipPath
       id="clipPath602"
       clipPathUnits="userSpaceOnUse"><path
         id="path600"
         d="m 442.167,629.51 h 86.706 v -44.154 h -86.706 z" /></clipPath><clipPath
       id="clipPath622"
       clipPathUnits="userSpaceOnUse"><path
         id="path620"
         d="m 271.102,429.803 h 86.701 v -45.306 h -86.701 z" /></clipPath></defs><g
     transform="matrix(1.3333333,0,0,-1.3333333,0,1066.6667)"
     id="g10"><g
       id="g12"><g
         clip-path="url(#clipPath18)"
         id="g14"><g
           transform="translate(216.0601,197.0371)"
           id="g20"><path
             id="path22"
             style="fill:#000000;fill-opacity:1;fill-rule:nonzero;stroke:none"
             d="m 0,0 c -0.183,0.091 -0.288,0.144 -0.288,0.144 -0.696,0.353 -1.533,0.353 -2.236,0 l -49.908,-24.955 c 0.365,-1.228 0.559,-2.512 0.569,-3.8 0.651,-0.253 1.244,-0.571 1.809,-0.921 0.729,0.125 1.491,0.205 2.306,0.205 0.711,0 1.378,-0.066 2.024,-0.161 0.704,0.856 1.584,1.556 2.578,2.099 -0.146,0.895 0.436,1.816 1.802,2.497 l 35.466,17.73 c 1.655,0.828 3.998,1.088 6.109,0.801 C -0.338,-4.307 -0.415,-2.1 0,0" /></g><g
           transform="translate(257.7153,166.8242)"
           id="g24"><path
             id="path26"
             style="fill:#000000;fill-opacity:1;fill-rule:nonzero;stroke:none"
             d="m 0,0 -36.085,-18.04 c -2.47,-1.239 -4.474,0 -4.474,2.765 v 46.941 c 0,2.769 2.004,6.006 4.474,7.241 L 0,56.954 C 2.476,58.189 4.474,56.95 4.474,54.188 V 7.238 C 4.474,4.476 2.476,1.236 0,0 m -45.555,31.666 v -46.941 c 0,-2.765 -2.012,-4.004 -4.482,-2.765 L -86.122,0 c -2.474,1.236 -4.474,4.476 -4.474,7.238 v 46.95 c 0,2.762 2,4.001 4.474,2.766 l 36.085,-18.047 c 2.47,-1.235 4.482,-4.472 4.482,-7.241 m -1.979,11.591 -35.465,17.728 c -2.47,1.23 -2.47,3.241 0,4.475 l 35.465,17.729 c 2.468,1.235 6.484,1.235 8.954,0 L -3.124,65.46 c 2.47,-1.234 2.47,-3.245 0,-4.475 L -38.58,43.257 c -2.47,-1.241 -6.486,-1.241 -8.954,0 m 56.929,20.64 c -0.021,0.077 -0.06,0.148 -0.093,0.218 -0.05,0.131 -0.102,0.264 -0.174,0.383 -0.039,0.083 -0.103,0.148 -0.162,0.224 -0.078,0.097 -0.155,0.203 -0.239,0.296 -0.072,0.065 -0.155,0.119 -0.232,0.184 -0.064,0.053 -0.123,0.115 -0.207,0.165 -0.187,0.11 -50.231,25.128 -50.231,25.128 -0.697,0.354 -1.533,0.354 -2.237,0 L -94.216,65.477 c -0.272,-0.16 -0.328,-0.222 -0.4,-0.275 -0.08,-0.059 -0.163,-0.119 -0.233,-0.184 -0.09,-0.093 -0.162,-0.199 -0.24,-0.296 -0.052,-0.07 -0.115,-0.141 -0.155,-0.224 -0.077,-0.116 -0.128,-0.245 -0.174,-0.375 -0.034,-0.078 -0.072,-0.149 -0.09,-0.226 -0.053,-0.213 -0.091,-0.429 -0.091,-0.655 V 0.695 c 0,-0.989 0.536,-1.853 1.383,-2.278 l 50.036,-25.018 c 0.091,-0.044 0.187,-0.033 0.284,-0.067 0.156,-0.059 0.317,-0.097 0.488,-0.12 0.121,-0.015 0.224,-0.078 0.348,-0.078 0.122,0 0.231,0.063 0.355,0.078 0.162,0.023 0.323,0.061 0.476,0.12 0.099,0.034 0.197,0.023 0.286,0.067 L 8.101,-1.583 c 0.846,0.425 1.378,1.289 1.378,2.24 v 62.552 c 0,0.259 -0.035,0.475 -0.084,0.688" /></g><g
           transform="translate(257.7153,229.7598)"
           id="g28"><path
             id="path30"
             style="fill:#000000;fill-opacity:1;fill-rule:nonzero;stroke:none"
             d="m 0,0 -36.085,-18.044 c -2.47,-1.23 -4.474,0.004 -4.474,2.768 v 46.943 c 0,2.764 2.004,6.005 4.474,7.245 L 0,56.948 c 2.476,1.241 4.474,0 4.474,-2.76 V 7.237 C 4.474,4.474 2.476,1.235 0,0 m -45.555,31.667 v -46.943 c 0,-2.764 -2.012,-3.998 -4.482,-2.768 L -86.122,0 c -2.474,1.235 -4.474,4.474 -4.474,7.237 v 46.951 c 0,2.76 2,4.001 4.474,2.76 l 36.085,-18.036 c 2.47,-1.24 4.482,-4.481 4.482,-7.245 m -1.979,11.588 -35.465,17.725 c -2.47,1.235 -2.47,3.247 0,4.48 l 35.465,17.729 c 2.468,1.235 6.484,1.235 8.954,0 L -3.124,65.46 c 2.47,-1.233 2.47,-3.245 0,-4.48 L -38.58,43.255 c -2.47,-1.24 -6.486,-1.24 -8.954,0 M 9.395,63.9 c -0.021,0.079 -0.06,0.139 -0.093,0.209 -0.05,0.14 -0.102,0.269 -0.174,0.393 -0.039,0.085 -0.103,0.143 -0.162,0.22 -0.078,0.105 -0.155,0.203 -0.239,0.295 -0.072,0.071 -0.155,0.12 -0.232,0.18 -0.064,0.054 -0.123,0.127 -0.207,0.168 -0.187,0.116 -50.231,25.13 -50.231,25.13 -0.697,0.352 -1.533,0.352 -2.237,0 L -94.216,65.481 c -0.272,-0.157 -0.328,-0.23 -0.4,-0.284 -0.08,-0.054 -0.163,-0.109 -0.233,-0.18 -0.09,-0.092 -0.162,-0.19 -0.24,-0.295 -0.052,-0.074 -0.115,-0.135 -0.155,-0.22 -0.077,-0.124 -0.128,-0.253 -0.174,-0.387 -0.034,-0.076 -0.072,-0.136 -0.09,-0.215 -0.053,-0.216 -0.091,-0.434 -0.091,-0.666 V 0.689 c 0,-0.979 0.536,-1.841 1.383,-2.273 l 50.036,-25.017 c 0.091,-0.044 0.187,-0.033 0.284,-0.066 0.156,-0.06 0.317,-0.094 0.488,-0.116 0.121,-0.016 0.224,-0.085 0.348,-0.085 0.122,0 0.231,0.069 0.355,0.085 0.162,0.022 0.323,0.056 0.476,0.116 0.099,0.033 0.197,0.022 0.286,0.066 L 8.101,-1.584 c 0.846,0.432 1.378,1.294 1.378,2.246 v 62.549 c 0,0.255 -0.035,0.477 -0.084,0.689" /></g><g
           transform="translate(257.7153,292.8115)"
           id="g32"><path
             id="path34"
             style="fill:#000000;fill-opacity:1;fill-rule:nonzero;stroke:none"
             d="m 0,0 -36.085,-18.05 c -2.47,-1.233 -4.474,0.014 -4.474,2.772 V 31.67 c 0,2.761 2.004,6.002 4.474,7.241 L 0,56.951 c 2.476,1.236 4.474,0 4.474,-2.77 V 7.238 C 4.474,4.474 2.476,1.232 0,0 m -45.555,31.67 v -46.948 c 0,-2.758 -2.012,-4.005 -4.482,-2.772 L -86.122,0 c -2.474,1.232 -4.474,4.474 -4.474,7.238 v 46.943 c 0,2.77 2,4.006 4.474,2.77 l 36.085,-18.04 c 2.47,-1.239 4.482,-4.48 4.482,-7.241 m -1.979,11.585 -35.465,17.724 c -2.47,1.24 -2.47,3.236 0,4.477 l 35.465,17.732 c 2.468,1.236 6.484,1.236 8.954,0 L -3.124,65.456 c 2.47,-1.241 2.47,-3.237 0,-4.477 L -38.58,43.255 c -2.47,-1.242 -6.486,-1.242 -8.954,0 M 9.395,63.896 c -0.021,0.076 -0.06,0.149 -0.093,0.217 -0.05,0.131 -0.102,0.262 -0.174,0.381 -0.039,0.089 -0.103,0.154 -0.162,0.222 -0.078,0.108 -0.155,0.213 -0.239,0.298 -0.072,0.068 -0.155,0.123 -0.232,0.188 -0.064,0.048 -0.123,0.114 -0.207,0.163 -0.187,0.11 -50.231,25.133 -50.231,25.133 -0.697,0.349 -1.533,0.349 -2.237,0 L -94.216,65.475 c -0.272,-0.159 -0.328,-0.225 -0.4,-0.273 -0.08,-0.06 -0.163,-0.12 -0.233,-0.188 -0.09,-0.085 -0.162,-0.19 -0.24,-0.294 -0.052,-0.072 -0.115,-0.137 -0.155,-0.226 -0.077,-0.112 -0.128,-0.25 -0.174,-0.381 -0.034,-0.068 -0.072,-0.141 -0.09,-0.217 -0.053,-0.215 -0.091,-0.432 -0.091,-0.658 V 0.687 c 0,-0.985 0.536,-1.845 1.383,-2.268 l 50.036,-25.023 c 0.091,-0.044 0.187,-0.034 0.284,-0.068 0.156,-0.058 0.317,-0.089 0.488,-0.11 0.121,-0.025 0.224,-0.084 0.348,-0.084 0.122,0 0.231,0.059 0.355,0.084 0.162,0.021 0.323,0.052 0.476,0.11 0.099,0.034 0.197,0.024 0.286,0.068 L 8.101,-1.581 c 0.846,0.423 1.378,1.283 1.378,2.235 v 62.548 c 0,0.262 -0.035,0.486 -0.084,0.694" /></g><g
           transform="translate(257.7153,355.8555)"
           id="g36"><path
             id="path38"
             style="fill:#000000;fill-opacity:1;fill-rule:nonzero;stroke:none"
             d="m 0,0 -36.085,-18.036 c -2.47,-1.241 -4.474,0 -4.474,2.764 v 46.944 c 0,2.763 2.004,6.008 4.474,7.238 L 0,56.951 c 2.476,1.24 4.474,0 4.474,-2.758 V 7.244 C 4.474,4.478 2.476,1.24 0,0 m -45.555,31.672 v -46.944 c 0,-2.764 -2.012,-4.005 -4.482,-2.764 L -86.122,0 c -2.474,1.24 -4.474,4.478 -4.474,7.244 v 46.949 c 0,2.758 2,3.998 4.474,2.758 L -50.037,38.91 c 2.47,-1.23 4.482,-4.475 4.482,-7.238 m -1.979,11.581 -35.465,17.737 c -2.47,1.228 -2.47,3.233 0,4.474 l 35.465,17.727 c 2.468,1.236 6.484,1.236 8.954,0 L -3.124,65.464 c 2.47,-1.241 2.47,-3.246 0,-4.474 L -38.58,43.253 c -2.47,-1.236 -6.486,-1.236 -8.954,0 M 9.395,63.901 c -0.021,0.076 -0.06,0.141 -0.093,0.219 -0.05,0.133 -0.102,0.261 -0.174,0.382 -0.039,0.082 -0.103,0.147 -0.162,0.226 -0.078,0.095 -0.155,0.206 -0.239,0.289 -0.072,0.07 -0.155,0.125 -0.232,0.189 -0.064,0.049 -0.123,0.115 -0.207,0.165 -0.187,0.108 -50.231,25.128 -50.231,25.128 -0.697,0.355 -1.533,0.355 -2.237,0 l -50.036,-25.02 c -0.272,-0.158 -0.328,-0.224 -0.4,-0.273 -0.08,-0.064 -0.163,-0.119 -0.233,-0.189 -0.09,-0.083 -0.162,-0.194 -0.24,-0.287 -0.052,-0.075 -0.115,-0.146 -0.155,-0.228 -0.077,-0.115 -0.128,-0.249 -0.174,-0.382 -0.034,-0.078 -0.072,-0.143 -0.09,-0.219 -0.053,-0.213 -0.091,-0.432 -0.091,-0.657 V 0.691 c 0,-0.981 0.536,-1.85 1.383,-2.271 l 50.036,-25.019 c 0.091,-0.042 0.187,-0.031 0.284,-0.063 0.156,-0.06 0.317,-0.101 0.488,-0.122 0.121,-0.011 0.224,-0.076 0.348,-0.076 0.122,0 0.231,0.065 0.355,0.076 0.162,0.021 0.323,0.062 0.476,0.122 0.099,0.032 0.197,0.021 0.286,0.063 L 8.101,-1.58 c 0.846,0.421 1.378,1.29 1.378,2.239 v 62.547 c 0,0.263 -0.035,0.482 -0.084,0.695" /></g><g
           transform="translate(257.7153,418.9043)"
           id="g40"><path
             id="path42"
             style="fill:#000000;fill-opacity:1;fill-rule:nonzero;stroke:none"
             d="m 0,0 -36.085,-18.04 c -2.47,-1.239 -4.474,0 -4.474,2.764 v 46.949 c 0,2.758 2.004,6.003 4.474,7.243 L 0,56.953 c 2.476,1.239 4.474,0 4.474,-2.765 V 7.244 C 4.474,4.479 2.476,1.239 0,0 m -45.555,31.673 v -46.949 c 0,-2.764 -2.012,-4.003 -4.482,-2.764 L -86.122,0 c -2.474,1.239 -4.474,4.479 -4.474,7.244 v 46.944 c 0,2.765 2,4.004 4.474,2.765 l 36.085,-18.037 c 2.47,-1.24 4.482,-4.485 4.482,-7.243 m -1.979,11.582 -35.465,17.733 c -2.47,1.236 -2.47,3.241 0,4.471 l 35.465,17.734 c 2.468,1.235 6.484,1.235 8.954,0 L -3.124,65.459 c 2.47,-1.23 2.47,-3.235 0,-4.471 L -38.58,43.255 c -2.47,-1.234 -6.486,-1.234 -8.954,0 M 9.395,63.907 c -0.021,0.072 -0.06,0.137 -0.093,0.208 -0.05,0.131 -0.102,0.268 -0.174,0.387 -0.039,0.082 -0.103,0.149 -0.162,0.223 -0.078,0.1 -0.155,0.204 -0.239,0.296 -0.072,0.068 -0.155,0.122 -0.232,0.181 -0.064,0.056 -0.123,0.126 -0.207,0.163 -0.187,0.116 -50.231,25.133 -50.231,25.133 -0.697,0.356 -1.533,0.356 -2.237,0 L -94.216,65.481 c -0.272,-0.153 -0.328,-0.223 -0.4,-0.279 -0.08,-0.059 -0.163,-0.113 -0.233,-0.181 -0.09,-0.092 -0.162,-0.196 -0.24,-0.288 -0.052,-0.078 -0.115,-0.149 -0.155,-0.231 -0.077,-0.119 -0.128,-0.252 -0.174,-0.38 -0.034,-0.078 -0.072,-0.143 -0.09,-0.215 -0.053,-0.224 -0.091,-0.438 -0.091,-0.665 V 0.695 c 0,-0.987 0.536,-1.854 1.383,-2.274 l 50.036,-25.018 c 0.091,-0.045 0.187,-0.034 0.284,-0.064 0.156,-0.069 0.317,-0.095 0.488,-0.116 0.121,-0.015 0.224,-0.08 0.348,-0.08 0.122,0 0.231,0.065 0.355,0.08 0.162,0.021 0.323,0.047 0.476,0.116 0.099,0.03 0.197,0.019 0.286,0.064 L 8.101,-1.579 c 0.846,0.42 1.378,1.287 1.378,2.241 v 62.549 c 0,0.258 -0.035,0.478 -0.084,0.696" /></g><g
           transform="translate(257.7153,481.9531)"
           id="g44"><path
             id="path46"
             style="fill:#000000;fill-opacity:1;fill-rule:nonzero;stroke:none"
             d="m 0,0 -36.085,-18.041 c -2.47,-1.24 -4.474,0 -4.474,2.765 v 46.943 c 0,2.766 2.004,6.011 4.474,7.246 L 0,56.953 c 2.476,1.24 4.474,0 4.474,-2.765 V 7.24 C 4.474,4.482 2.476,1.235 0,0 m -45.555,31.667 v -46.943 c 0,-2.765 -2.012,-4.005 -4.482,-2.765 L -86.122,0 c -2.474,1.235 -4.474,4.482 -4.474,7.24 v 46.948 c 0,2.765 2,4.005 4.474,2.765 l 36.085,-18.04 c 2.47,-1.235 4.482,-4.48 4.482,-7.246 m -1.979,11.59 -35.465,17.729 c -2.47,1.24 -2.47,3.245 0,4.472 l 35.465,17.733 c 2.468,1.24 6.484,1.24 8.954,0 L -3.124,65.458 c 2.47,-1.227 2.47,-3.232 0,-4.472 L -38.58,43.257 c -2.47,-1.235 -6.486,-1.235 -8.954,0 M 9.395,63.903 c -0.021,0.082 -0.06,0.144 -0.093,0.213 -0.05,0.136 -0.102,0.268 -0.174,0.395 -0.039,0.075 -0.103,0.14 -0.162,0.218 -0.078,0.103 -0.155,0.202 -0.239,0.294 -0.072,0.067 -0.155,0.116 -0.232,0.181 -0.064,0.054 -0.123,0.119 -0.207,0.17 -0.187,0.106 -50.231,25.127 -50.231,25.127 -0.697,0.348 -1.533,0.348 -2.237,0 L -94.216,65.48 c -0.272,-0.157 -0.328,-0.222 -0.4,-0.276 -0.08,-0.055 -0.163,-0.114 -0.233,-0.181 -0.09,-0.092 -0.162,-0.191 -0.24,-0.294 -0.052,-0.078 -0.115,-0.143 -0.155,-0.218 -0.077,-0.127 -0.128,-0.253 -0.174,-0.391 -0.034,-0.073 -0.072,-0.135 -0.09,-0.217 -0.053,-0.212 -0.091,-0.436 -0.091,-0.661 V 0.688 c 0,-0.976 0.536,-1.839 1.383,-2.265 l 50.036,-25.025 c 0.091,-0.044 0.187,-0.033 0.284,-0.067 0.156,-0.054 0.317,-0.092 0.488,-0.113 0.121,-0.015 0.224,-0.081 0.348,-0.081 0.122,0 0.231,0.066 0.355,0.081 0.162,0.021 0.323,0.059 0.476,0.113 0.099,0.034 0.197,0.023 0.286,0.067 L 8.101,-1.577 c 0.846,0.426 1.378,1.289 1.378,2.234 v 62.551 c 0,0.259 -0.035,0.487 -0.084,0.695" /></g><g
           transform="translate(307.2324,506.9385)"
           id="g48"><path
             id="path50"
             style="fill:#000000;fill-opacity:1;fill-rule:nonzero;stroke:none"
             d="m 0,0 -36.083,-18.042 c -2.469,-1.232 -4.474,0 -4.474,2.771 v 46.938 c 0,2.771 2.005,6.01 4.474,7.245 L 0,56.954 c 2.477,1.234 4.48,-0.007 4.48,-2.766 V 7.241 C 4.48,4.48 2.477,1.233 0,0 m -45.563,31.667 v -46.938 c 0,-2.771 -2.003,-4.003 -4.477,-2.771 L -86.125,0 c -2.464,1.233 -4.474,4.48 -4.474,7.241 v 46.947 c 0,2.759 2.01,4 4.474,2.766 L -50.04,38.912 c 2.474,-1.235 4.477,-4.474 4.477,-7.245 m -1.97,11.595 -35.458,17.722 c -2.474,1.236 -2.474,3.239 0,4.474 l 35.458,17.732 c 2.47,1.239 6.477,1.239 8.948,0 L -3.129,65.458 c 2.476,-1.235 2.476,-3.238 0,-4.474 L -38.585,43.262 c -2.471,-1.241 -6.478,-1.241 -8.948,0 m 56.922,20.64 c -0.028,0.076 -0.058,0.139 -0.083,0.214 -0.053,0.137 -0.104,0.263 -0.174,0.388 -0.054,0.08 -0.107,0.141 -0.163,0.218 -0.071,0.104 -0.149,0.203 -0.245,0.295 -0.066,0.07 -0.15,0.127 -0.227,0.187 -0.065,0.055 -0.123,0.12 -0.202,0.168 -0.199,0.104 -50.237,25.121 -50.237,25.121 -0.703,0.357 -1.537,0.357 -2.236,0 L -94.213,65.476 c -0.271,-0.152 -0.33,-0.217 -0.401,-0.272 -0.078,-0.054 -0.156,-0.117 -0.227,-0.187 -0.097,-0.092 -0.162,-0.191 -0.246,-0.287 -0.057,-0.078 -0.115,-0.146 -0.168,-0.226 -0.065,-0.119 -0.116,-0.251 -0.169,-0.388 -0.024,-0.075 -0.071,-0.138 -0.083,-0.214 -0.057,-0.213 -0.091,-0.43 -0.091,-0.66 V 0.687 c 0,-0.975 0.53,-1.839 1.385,-2.266 l 50.035,-25.024 c 0.084,-0.044 0.195,-0.032 0.285,-0.059 0.156,-0.061 0.324,-0.098 0.485,-0.119 0.122,-0.017 0.227,-0.084 0.349,-0.084 0.115,0 0.233,0.067 0.349,0.084 0.168,0.021 0.323,0.058 0.485,0.119 0.096,0.027 0.193,0.015 0.283,0.059 L 8.096,-1.579 c 0.852,0.427 1.383,1.291 1.383,2.235 v 62.547 c 0,0.269 -0.033,0.486 -0.09,0.699" /></g><g
           transform="translate(357.5225,532.2466)"
           id="g52"><path
             id="path54"
             style="fill:#000000;fill-opacity:1;fill-rule:nonzero;stroke:none"
             d="m 0,0 -36.084,-18.046 c -2.471,-1.235 -4.474,0 -4.474,2.763 v 46.946 c 0,2.77 2.003,6.009 4.474,7.249 L 0,56.947 c 2.477,1.239 4.479,0 4.479,-2.767 V 7.238 C 4.479,4.476 2.477,1.229 0,0 m -45.558,31.663 v -46.946 c 0,-2.763 -2.003,-3.998 -4.479,-2.763 L -86.121,0 c -2.477,1.229 -4.481,4.476 -4.481,7.238 V 54.18 c 0,2.767 2.004,4.006 4.481,2.767 l 36.084,-18.035 c 2.476,-1.24 4.479,-4.479 4.479,-7.249 m -1.977,11.591 -35.458,17.73 c -2.476,1.233 -2.476,3.238 0,4.47 l 35.458,17.735 c 2.476,1.235 6.478,1.235 8.949,0 L -3.13,65.454 c 2.477,-1.232 2.477,-3.237 0,-4.47 l -35.456,-17.73 c -2.471,-1.239 -6.473,-1.239 -8.949,0 M 9.38,63.901 c -0.013,0.078 -0.051,0.139 -0.078,0.208 -0.05,0.137 -0.096,0.269 -0.174,0.395 -0.05,0.08 -0.103,0.141 -0.162,0.218 -0.078,0.106 -0.149,0.202 -0.237,0.294 -0.071,0.07 -0.156,0.127 -0.227,0.181 -0.071,0.055 -0.137,0.126 -0.208,0.17 -0.193,0.108 -50.236,25.125 -50.236,25.125 -0.704,0.35 -1.532,0.35 -2.231,0 L -94.214,65.475 c -0.273,-0.152 -0.339,-0.223 -0.402,-0.278 -0.077,-0.054 -0.155,-0.111 -0.226,-0.181 -0.097,-0.092 -0.169,-0.188 -0.246,-0.294 -0.059,-0.071 -0.118,-0.138 -0.156,-0.218 -0.077,-0.126 -0.121,-0.252 -0.174,-0.389 -0.031,-0.075 -0.071,-0.136 -0.09,-0.214 -0.059,-0.218 -0.091,-0.437 -0.091,-0.665 V 0.689 c 0,-0.98 0.536,-1.847 1.385,-2.275 l 50.041,-25.015 c 0.084,-0.046 0.18,-0.034 0.279,-0.067 0.154,-0.056 0.322,-0.092 0.483,-0.114 0.124,-0.017 0.226,-0.083 0.351,-0.083 0.115,0 0.225,0.066 0.348,0.083 0.168,0.022 0.337,0.058 0.486,0.114 0.096,0.033 0.2,0.021 0.284,0.067 L 8.101,-1.586 c 0.846,0.428 1.384,1.295 1.384,2.236 v 62.554 c 0,0.26 -0.04,0.485 -0.105,0.697" /></g><g
           transform="translate(407.0596,557.2324)"
           id="g56"><path
             id="path58"
             style="fill:#000000;fill-opacity:1;fill-rule:nonzero;stroke:none"
             d="m 0,0 -36.083,-18.046 c -2.47,-1.231 -4.474,0.004 -4.474,2.768 v 46.943 c 0,2.767 2.004,6.005 4.474,7.244 L 0,56.952 c 2.469,1.235 4.483,0 4.483,-2.771 V 7.231 C 4.483,4.474 2.469,1.233 0,0 m -45.561,31.665 v -46.943 c 0,-2.764 -1.999,-3.999 -4.473,-2.768 L -86.119,0 c -2.471,1.233 -4.475,4.474 -4.475,7.231 v 46.95 c 0,2.771 2.004,4.006 4.475,2.771 l 36.085,-18.043 c 2.474,-1.239 4.473,-4.477 4.473,-7.244 m -1.973,11.589 -35.462,17.724 c -2.47,1.239 -2.47,3.241 0,4.48 l 35.462,17.731 c 2.476,1.235 6.477,1.235 8.948,0 L -3.128,65.458 c 2.468,-1.239 2.468,-3.241 0,-4.48 L -38.586,43.254 c -2.471,-1.238 -6.472,-1.238 -8.948,0 M 9.389,63.896 c -0.02,0.075 -0.06,0.148 -0.085,0.214 -0.053,0.134 -0.097,0.266 -0.175,0.386 -0.045,0.084 -0.108,0.147 -0.161,0.218 -0.078,0.112 -0.149,0.21 -0.245,0.301 -0.066,0.067 -0.149,0.119 -0.227,0.18 -0.063,0.057 -0.129,0.123 -0.207,0.171 -0.188,0.109 -50.229,25.133 -50.229,25.133 -0.706,0.348 -1.534,0.348 -2.238,0 L -94.214,65.475 c -0.271,-0.157 -0.337,-0.223 -0.401,-0.28 -0.084,-0.054 -0.156,-0.113 -0.227,-0.18 -0.097,-0.091 -0.175,-0.189 -0.244,-0.294 -0.053,-0.078 -0.117,-0.141 -0.163,-0.225 -0.077,-0.12 -0.116,-0.246 -0.169,-0.38 -0.031,-0.072 -0.069,-0.145 -0.097,-0.22 -0.05,-0.213 -0.09,-0.432 -0.09,-0.663 V 0.687 c 0,-0.978 0.544,-1.847 1.391,-2.273 l 50.036,-25.021 c 0.084,-0.04 0.188,-0.028 0.283,-0.061 0.157,-0.06 0.319,-0.093 0.487,-0.114 0.121,-0.024 0.226,-0.091 0.354,-0.091 0.112,0 0.221,0.067 0.342,0.091 0.169,0.021 0.333,0.054 0.485,0.114 0.092,0.033 0.203,0.021 0.287,0.061 L 8.101,-1.586 c 0.849,0.426 1.384,1.295 1.384,2.241 v 62.547 c 0,0.262 -0.038,0.487 -0.096,0.694" /></g><g
           transform="translate(307.2324,318.0059)"
           id="g60"><path
             id="path62"
             style="fill:#000000;fill-opacity:1;fill-rule:nonzero;stroke:none"
             d="m 0,0 -36.083,-18.037 c -2.469,-1.24 -4.474,0 -4.474,2.765 v 46.943 c 0,2.763 2.005,6.009 4.474,7.237 L 0,56.956 c 2.477,1.237 4.48,0 4.48,-2.767 V 7.245 C 4.48,4.481 2.477,1.236 0,0 m -45.563,31.671 v -46.943 c 0,-2.765 -2.003,-4.005 -4.477,-2.765 L -86.125,0 c -2.464,1.236 -4.474,4.481 -4.474,7.245 v 46.944 c 0,2.767 2.01,4.004 4.474,2.767 L -50.04,38.908 c 2.474,-1.228 4.477,-4.474 4.477,-7.237 m -1.97,11.587 -35.458,17.73 c -2.474,1.239 -2.474,3.234 0,4.472 l 35.458,17.73 c 2.47,1.235 6.477,1.235 8.948,0 L -3.129,65.46 c 2.476,-1.238 2.476,-3.233 0,-4.472 l -35.456,-17.73 c -2.471,-1.236 -6.478,-1.236 -8.948,0 m 56.922,20.65 c -0.028,0.066 -0.058,0.14 -0.083,0.211 -0.053,0.129 -0.104,0.267 -0.174,0.386 -0.054,0.084 -0.107,0.147 -0.163,0.222 -0.071,0.1 -0.149,0.205 -0.245,0.297 -0.066,0.066 -0.15,0.121 -0.227,0.182 -0.065,0.055 -0.123,0.127 -0.202,0.163 -0.199,0.114 -50.237,25.126 -50.237,25.126 -0.703,0.356 -1.537,0.356 -2.236,0 L -94.213,65.483 c -0.271,-0.15 -0.33,-0.222 -0.401,-0.277 -0.078,-0.061 -0.156,-0.116 -0.227,-0.182 -0.097,-0.092 -0.162,-0.197 -0.246,-0.297 -0.057,-0.075 -0.115,-0.138 -0.168,-0.222 -0.065,-0.119 -0.116,-0.252 -0.169,-0.38 -0.024,-0.077 -0.071,-0.151 -0.083,-0.217 -0.057,-0.223 -0.091,-0.442 -0.091,-0.666 V 0.693 c 0,-0.987 0.53,-1.849 1.385,-2.27 l 50.035,-25.024 c 0.084,-0.042 0.195,-0.033 0.285,-0.063 0.156,-0.061 0.324,-0.099 0.485,-0.116 0.122,-0.017 0.227,-0.082 0.349,-0.082 0.115,0 0.233,0.065 0.349,0.082 0.168,0.017 0.323,0.055 0.485,0.116 0.096,0.03 0.193,0.021 0.283,0.063 L 8.096,-1.577 c 0.852,0.421 1.383,1.283 1.383,2.236 v 62.552 c 0,0.255 -0.033,0.479 -0.09,0.697" /></g><g
           transform="translate(357.5225,343.3096)"
           id="g64"><path
             id="path66"
             style="fill:#000000;fill-opacity:1;fill-rule:nonzero;stroke:none"
             d="m 0,0 -36.084,-18.042 c -2.471,-1.234 -4.474,0.007 -4.474,2.767 v 46.949 c 0,2.764 2.003,6.005 4.474,7.241 L 0,56.954 c 2.477,1.238 4.479,0 4.479,-2.765 V 7.245 C 4.479,4.48 2.477,1.236 0,0 m -45.558,31.674 v -46.949 c 0,-2.76 -2.003,-4.001 -4.479,-2.767 L -86.121,0 c -2.477,1.236 -4.481,4.48 -4.481,7.245 v 46.944 c 0,2.765 2.004,4.003 4.481,2.765 l 36.084,-18.039 c 2.476,-1.236 4.479,-4.477 4.479,-7.241 m -1.977,11.588 -35.458,17.725 c -2.476,1.235 -2.476,3.239 0,4.48 l 35.458,17.727 c 2.476,1.236 6.478,1.236 8.949,0 L -3.13,65.467 c 2.477,-1.241 2.477,-3.245 0,-4.48 L -38.586,43.262 c -2.471,-1.236 -6.473,-1.236 -8.949,0 M 9.38,63.908 c -0.013,0.071 -0.051,0.137 -0.078,0.208 -0.05,0.132 -0.096,0.267 -0.174,0.386 -0.05,0.085 -0.103,0.15 -0.162,0.226 -0.078,0.098 -0.149,0.201 -0.237,0.295 -0.071,0.066 -0.156,0.12 -0.227,0.179 -0.071,0.055 -0.137,0.126 -0.208,0.163 -0.193,0.118 -50.236,25.134 -50.236,25.134 -0.704,0.355 -1.532,0.355 -2.231,0 L -94.214,65.483 c -0.273,-0.155 -0.339,-0.226 -0.402,-0.281 -0.077,-0.059 -0.155,-0.113 -0.226,-0.179 -0.097,-0.094 -0.169,-0.197 -0.246,-0.295 -0.059,-0.072 -0.118,-0.141 -0.156,-0.226 -0.077,-0.113 -0.121,-0.249 -0.174,-0.382 -0.031,-0.075 -0.071,-0.141 -0.09,-0.212 -0.059,-0.22 -0.091,-0.436 -0.091,-0.668 V 0.693 c 0,-0.982 0.536,-1.849 1.385,-2.272 l 50.041,-25.015 c 0.084,-0.046 0.18,-0.04 0.279,-0.072 0.154,-0.057 0.322,-0.095 0.483,-0.111 0.124,-0.015 0.226,-0.082 0.351,-0.082 0.115,0 0.225,0.067 0.348,0.082 0.168,0.016 0.337,0.054 0.486,0.111 0.096,0.032 0.2,0.026 0.284,0.072 L 8.101,-1.579 c 0.846,0.423 1.384,1.29 1.384,2.241 v 62.546 c 0,0.264 -0.04,0.48 -0.105,0.7" /></g><g
           transform="translate(586.2422,306.8916)"
           id="g68"><path
             id="path70"
             style="fill:#000000;fill-opacity:1;fill-rule:nonzero;stroke:none"
             d="m 0,0 c -0.186,0.091 -0.288,0.144 -0.288,0.144 -0.698,0.353 -1.534,0.353 -2.238,0 l -49.907,-24.955 c 0.365,-1.228 0.559,-2.512 0.569,-3.8 0.651,-0.253 1.245,-0.571 1.809,-0.921 0.73,0.125 1.492,0.205 2.305,0.205 0.711,0 1.379,-0.066 2.024,-0.161 0.705,0.856 1.583,1.556 2.578,2.099 -0.145,0.895 0.436,1.816 1.804,2.497 l 35.464,17.73 c 1.654,0.828 3.999,1.088 6.11,0.801 C -0.339,-4.307 -0.416,-2.1 0,0" /></g><g
           transform="translate(435.0801,422.1162)"
           id="g72"><path
             id="path74"
             style="fill:#000000;fill-opacity:1;fill-rule:nonzero;stroke:none"
             d="m 0,0 c -0.186,0.091 -0.288,0.144 -0.288,0.144 -0.697,0.353 -1.533,0.353 -2.238,0 l -49.907,-24.955 c 0.366,-1.227 0.56,-2.512 0.569,-3.8 0.651,-0.253 1.245,-0.571 1.809,-0.921 0.73,0.126 1.491,0.205 2.306,0.205 0.711,0 1.378,-0.066 2.024,-0.161 0.704,0.856 1.583,1.556 2.578,2.099 -0.146,0.895 0.436,1.816 1.803,2.498 l 35.464,17.73 c 1.655,0.827 4,1.087 6.11,0.8 C -0.339,-4.307 -0.415,-2.1 0,0" /></g><g
           transform="translate(440.6562,232.3477)"
           id="g76"><path
             id="path78"
             style="fill:#000000;fill-opacity:1;fill-rule:nonzero;stroke:none"
             d="m 0,0 c -0.186,0.091 -0.289,0.144 -0.289,0.144 -0.697,0.353 -1.533,0.353 -2.237,0 L -52.434,-24.81 c 0.366,-1.229 0.56,-2.513 0.569,-3.801 0.651,-0.253 1.245,-0.571 1.809,-0.921 0.73,0.126 1.492,0.205 2.306,0.205 0.712,0 1.379,-0.066 2.024,-0.161 0.705,0.856 1.584,1.556 2.578,2.099 -0.145,0.895 0.436,1.816 1.802,2.497 l 35.465,17.73 c 1.655,0.828 4,1.088 6.11,0.801 C -0.34,-4.307 -0.416,-2.1 0,0" /></g><g
           transform="translate(531.5859,166.8242)"
           id="g80"><path
             id="path82"
             style="fill:#000000;fill-opacity:1;fill-rule:nonzero;stroke:none"
             d="m 0,0 -36.092,-18.04 c -2.47,-1.239 -4.466,0 -4.466,2.765 v 46.941 c 0,2.769 1.996,6.006 4.466,7.241 L 0,56.954 C 2.469,58.189 4.467,56.95 4.467,54.188 V 7.238 C 4.467,4.476 2.469,1.236 0,0 m -45.57,31.666 v -46.941 c 0,-2.765 -2.004,-4.004 -4.479,-2.765 L -86.12,0 c -2.478,1.236 -4.482,4.476 -4.482,7.238 v 46.95 c 0,2.762 2.004,4.001 4.482,2.766 l 36.071,-18.047 c 2.475,-1.235 4.479,-4.472 4.479,-7.241 m -1.971,11.591 -35.456,17.728 c -2.471,1.23 -2.471,3.241 0,4.475 l 35.456,17.729 c 2.475,1.235 6.478,1.235 8.954,0 L -3.129,65.46 c 2.469,-1.234 2.469,-3.245 0,-4.475 L -38.587,43.257 c -2.476,-1.241 -6.479,-1.241 -8.954,0 M 9.387,63.897 C 9.361,63.974 9.323,64.045 9.296,64.115 9.253,64.246 9.2,64.379 9.122,64.498 9.076,64.581 9.013,64.646 8.966,64.722 8.89,64.819 8.812,64.925 8.721,65.018 8.65,65.083 8.572,65.137 8.486,65.202 c -0.061,0.053 -0.113,0.115 -0.191,0.165 -0.2,0.11 -50.237,25.128 -50.237,25.128 -0.711,0.354 -1.539,0.354 -2.237,0 L -94.223,65.477 c -0.27,-0.16 -0.33,-0.222 -0.4,-0.275 -0.078,-0.059 -0.156,-0.119 -0.226,-0.184 -0.09,-0.093 -0.167,-0.199 -0.239,-0.296 -0.058,-0.07 -0.118,-0.141 -0.167,-0.224 -0.078,-0.116 -0.118,-0.245 -0.169,-0.375 -0.032,-0.078 -0.07,-0.149 -0.084,-0.226 -0.064,-0.213 -0.099,-0.429 -0.099,-0.655 V 0.695 c 0,-0.989 0.539,-1.853 1.384,-2.278 l 50.044,-25.018 c 0.084,-0.044 0.186,-0.033 0.277,-0.067 0.156,-0.059 0.317,-0.097 0.486,-0.12 0.124,-0.015 0.232,-0.078 0.355,-0.078 0.117,0 0.226,0.063 0.343,0.078 0.169,0.023 0.331,0.061 0.49,0.12 0.093,0.034 0.195,0.023 0.286,0.067 L 8.095,-1.583 c 0.845,0.425 1.383,1.289 1.383,2.24 v 62.552 c 0,0.259 -0.039,0.475 -0.091,0.688" /></g><g
           transform="translate(581.1221,192.4434)"
           id="g84"><path
             id="path86"
             style="fill:#000000;fill-opacity:1;fill-rule:nonzero;stroke:none"
             d="m 0,0 -36.084,-18.04 c -2.474,-1.235 -4.479,0.005 -4.479,2.769 v 46.943 c 0,2.764 2.005,6.006 4.479,7.242 L 0,56.952 c 2.471,1.236 4.476,0 4.476,-2.763 V 7.245 C 4.476,4.476 2.471,1.234 0,0 m -45.566,31.672 v -46.943 c 0,-2.764 -2.006,-4.004 -4.476,-2.769 L -86.119,0 c -2.476,1.234 -4.48,4.476 -4.48,7.245 v 46.944 c 0,2.763 2.004,3.999 4.48,2.763 l 36.077,-18.038 c 2.47,-1.236 4.476,-4.478 4.476,-7.242 m -1.979,11.585 -35.451,17.733 c -2.476,1.231 -2.476,3.236 0,4.476 l 35.451,17.722 c 2.476,1.242 6.484,1.242 8.96,0 L -3.129,65.466 c 2.478,-1.24 2.478,-3.245 0,-4.476 L -38.585,43.257 c -2.476,-1.236 -6.484,-1.236 -8.96,0 M 9.391,63.902 C 9.365,63.979 9.325,64.05 9.299,64.121 9.247,64.251 9.196,64.384 9.131,64.504 9.078,64.585 9.013,64.65 8.964,64.722 8.892,64.824 8.813,64.93 8.725,65.016 8.652,65.09 8.575,65.145 8.498,65.21 8.425,65.257 8.369,65.322 8.291,65.367 8.097,65.482 -41.948,90.5 -41.948,90.5 c -0.703,0.354 -1.531,0.354 -2.234,0 L -94.219,65.482 c -0.272,-0.16 -0.336,-0.225 -0.401,-0.272 -0.078,-0.065 -0.156,-0.12 -0.227,-0.194 -0.097,-0.086 -0.169,-0.192 -0.247,-0.294 -0.049,-0.066 -0.109,-0.137 -0.161,-0.218 -0.071,-0.114 -0.122,-0.253 -0.167,-0.383 -0.025,-0.071 -0.064,-0.142 -0.092,-0.219 -0.055,-0.213 -0.09,-0.431 -0.09,-0.662 V 0.695 c 0,-0.985 0.53,-1.853 1.385,-2.274 l 50.037,-25.017 c 0.087,-0.043 0.2,-0.034 0.283,-0.066 0.162,-0.061 0.323,-0.093 0.492,-0.12 0.114,-0.015 0.227,-0.078 0.341,-0.078 0.131,0 0.234,0.063 0.35,0.078 0.167,0.027 0.329,0.059 0.49,0.12 0.091,0.032 0.195,0.023 0.278,0.066 L 8.097,-1.579 c 0.846,0.421 1.378,1.289 1.378,2.239 v 62.548 c 0,0.263 -0.027,0.481 -0.084,0.694" /></g><g
           transform="translate(632.8867,288.791)"
           id="g88"><path
             id="path90"
             style="fill:#000000;fill-opacity:1;fill-rule:nonzero;stroke:none"
             d="m 0,0 c 0,-2.768 -2.005,-6.007 -4.48,-7.235 l -36.084,-18.052 c -2.476,-1.234 -4.474,0.004 -4.474,2.77 v 46.943 c 0,2.763 1.998,6.011 4.474,7.243 L -4.48,49.711 c 2.475,1.241 4.48,0 4.48,-2.765 z m -50.037,-22.517 c 0,-2.766 -2.003,-4.004 -4.481,-2.77 l -36.089,18.052 c -2.47,1.228 -4.474,4.467 -4.474,7.235 v 46.946 c 0,2.765 2.004,4.006 4.474,2.765 l 36.089,-18.042 c 2.478,-1.232 4.481,-4.48 4.481,-7.243 z M 4.905,56.661 c -0.017,0.075 -0.055,0.137 -0.083,0.213 -0.051,0.138 -0.103,0.262 -0.174,0.388 -0.047,0.075 -0.103,0.14 -0.161,0.218 -0.073,0.103 -0.149,0.202 -0.24,0.294 -0.078,0.075 -0.156,0.122 -0.226,0.181 -0.07,0.055 -0.135,0.126 -0.206,0.17 -0.2,0.106 -50.238,25.127 -50.238,25.127 -0.474,0.239 -1.006,0.304 -1.515,0.222 0.429,-2.194 0.324,-4.501 -0.318,-6.632 1.851,0.105 3.772,-0.185 5.189,-0.895 l 35.458,-17.73 c 2.474,-1.235 2.474,-3.238 0,-4.479 L -43.067,36.012 c -2.469,-1.234 -6.478,-1.234 -8.948,0 l -35.458,17.726 c -1.09,0.548 -1.688,1.243 -1.809,1.954 -0.656,0.354 -1.256,0.767 -1.802,1.231 -1.334,0.49 -2.492,1.196 -3.467,2.071 -0.534,0.154 -1.049,0.33 -1.53,0.548 l -2.622,-1.311 c -0.271,-0.15 -0.328,-0.221 -0.395,-0.276 -0.077,-0.059 -0.155,-0.106 -0.224,-0.181 -0.098,-0.092 -0.17,-0.191 -0.245,-0.294 -0.053,-0.071 -0.119,-0.143 -0.162,-0.218 -0.073,-0.119 -0.125,-0.25 -0.176,-0.388 -0.028,-0.076 -0.064,-0.138 -0.083,-0.213 -0.053,-0.213 -0.093,-0.436 -0.093,-0.662 V -6.554 c 0,-0.972 0.531,-1.84 1.378,-2.272 l 50.044,-25.02 c 0.091,-0.042 0.187,-0.031 0.283,-0.063 0.156,-0.055 0.323,-0.095 0.486,-0.114 0.124,-0.018 0.227,-0.082 0.341,-0.082 0.131,0 0.24,0.064 0.358,0.082 0.167,0.019 0.331,0.059 0.485,0.114 0.096,0.032 0.193,0.021 0.283,0.063 l 50.038,25.02 c 0.852,0.432 1.381,1.3 1.381,2.238 V 55.96 c 0,0.265 -0.03,0.488 -0.091,0.701" /></g><g
           transform="translate(482.041,203.168)"
           id="g92"><path
             id="path94"
             style="fill:#000000;fill-opacity:1;fill-rule:nonzero;stroke:none"
             d="m 0,0 -36.086,-18.038 c -2.47,-1.242 -4.474,0 -4.474,2.764 v 46.942 c 0,2.765 2.004,6.011 4.474,7.247 L 0,56.955 c 2.476,1.24 4.479,0 4.479,-2.766 V 7.241 C 4.479,4.479 2.476,1.241 0,0 m -45.558,31.668 v -46.942 c 0,-2.764 -2.004,-4.006 -4.479,-2.764 L -86.12,0 c -2.47,1.241 -4.476,4.479 -4.476,7.241 v 46.948 c 0,2.766 2.006,4.006 4.476,2.766 l 36.083,-18.04 c 2.475,-1.236 4.479,-4.482 4.479,-7.247 m -1.968,11.589 -35.472,17.729 c -2.471,1.234 -2.471,3.238 0,4.474 l 35.472,17.728 c 2.467,1.236 6.469,1.236 8.947,0 L -3.124,65.46 c 2.477,-1.236 2.477,-3.24 0,-4.474 L -38.579,43.257 c -2.478,-1.236 -6.48,-1.236 -8.947,0 M 9.389,63.905 C 9.366,63.98 9.336,64.046 9.303,64.117 9.258,64.247 9.205,64.384 9.127,64.504 9.083,64.579 9.025,64.65 8.975,64.729 8.897,64.824 8.819,64.93 8.728,65.022 8.657,65.088 8.579,65.145 8.495,65.202 8.431,65.261 8.372,65.331 8.294,65.367 8.1,65.477 -41.938,90.5 -41.938,90.5 c -0.708,0.354 -1.537,0.354 -2.235,0 L -94.215,65.477 c -0.272,-0.146 -0.33,-0.216 -0.4,-0.275 -0.073,-0.057 -0.156,-0.114 -0.228,-0.18 -0.091,-0.092 -0.162,-0.198 -0.239,-0.293 -0.065,-0.079 -0.122,-0.15 -0.168,-0.225 -0.065,-0.12 -0.116,-0.253 -0.169,-0.387 -0.03,-0.071 -0.07,-0.137 -0.09,-0.212 -0.058,-0.22 -0.091,-0.439 -0.091,-0.663 V 0.689 c 0,-0.977 0.537,-1.847 1.385,-2.266 l 50.042,-25.024 c 0.084,-0.044 0.189,-0.035 0.279,-0.066 0.162,-0.06 0.324,-0.093 0.483,-0.116 0.131,-0.015 0.232,-0.079 0.35,-0.079 0.123,0 0.235,0.064 0.356,0.079 0.161,0.023 0.323,0.056 0.484,0.116 0.097,0.031 0.194,0.022 0.283,0.066 L 8.1,-1.577 c 0.847,0.419 1.378,1.289 1.378,2.234 v 62.552 c 0,0.257 -0.034,0.479 -0.089,0.696" /></g><g
           transform="translate(478.292,392.8525)"
           id="g96"><path
             id="path98"
             style="fill:#000000;fill-opacity:1;fill-rule:nonzero;stroke:none"
             d="m 0,0 -36.085,-18.04 c -2.47,-1.242 -4.474,0 -4.474,2.766 v 46.94 c 0,2.767 2.004,6.012 4.474,7.242 L 0,56.954 c 2.475,1.23 4.473,0 4.473,-2.771 V 7.241 C 4.473,4.476 2.475,1.236 0,0 m -45.563,31.666 v -46.94 c 0,-2.766 -2.012,-4.008 -4.474,-2.766 L -86.122,0 c -2.477,1.236 -4.481,4.476 -4.481,7.241 v 46.942 c 0,2.771 2.004,4.001 4.481,2.771 l 36.085,-18.046 c 2.462,-1.23 4.474,-4.475 4.474,-7.242 m -1.973,11.59 -35.463,17.731 c -2.477,1.229 -2.477,3.233 0,4.476 l 35.463,17.721 c 2.47,1.241 6.479,1.241 8.948,0 L -3.124,65.463 c 2.47,-1.243 2.47,-3.247 0,-4.476 L -38.588,43.256 c -2.469,-1.241 -6.478,-1.241 -8.948,0 M 9.387,63.898 c -0.021,0.078 -0.051,0.141 -0.086,0.216 -0.049,0.135 -0.097,0.265 -0.18,0.385 -0.038,0.08 -0.103,0.149 -0.156,0.221 -0.078,0.102 -0.154,0.206 -0.239,0.294 -0.077,0.068 -0.162,0.126 -0.233,0.184 -0.069,0.062 -0.129,0.119 -0.205,0.164 -0.187,0.116 -50.231,25.139 -50.231,25.139 -0.697,0.347 -1.534,0.347 -2.244,0 l -50.03,-25.023 c -0.278,-0.161 -0.336,-0.218 -0.401,-0.28 -0.078,-0.054 -0.161,-0.116 -0.234,-0.184 -0.084,-0.088 -0.159,-0.192 -0.244,-0.29 -0.046,-0.072 -0.103,-0.145 -0.155,-0.225 -0.071,-0.116 -0.123,-0.25 -0.167,-0.385 -0.034,-0.075 -0.065,-0.138 -0.093,-0.216 -0.056,-0.213 -0.088,-0.43 -0.088,-0.658 V 0.689 c 0,-0.983 0.536,-1.846 1.382,-2.266 l 50.03,-25.022 c 0.097,-0.046 0.195,-0.033 0.284,-0.069 0.161,-0.061 0.325,-0.097 0.492,-0.12 0.118,-0.016 0.226,-0.076 0.348,-0.076 0.119,0 0.227,0.06 0.35,0.076 0.169,0.023 0.331,0.059 0.485,0.12 0.092,0.036 0.189,0.023 0.285,0.069 L 8.101,-1.577 c 0.846,0.42 1.376,1.283 1.376,2.234 v 62.546 c 0,0.265 -0.033,0.482 -0.09,0.695" /></g><g
           transform="translate(628.4062,344.6006)"
           id="g100"><path
             id="path102"
             style="fill:#000000;fill-opacity:1;fill-rule:nonzero;stroke:none"
             d="m 0,0 -36.084,-18.048 c -2.476,-1.231 -4.474,0.005 -4.474,2.776 v 46.939 c 0,2.763 1.998,6.004 4.474,7.243 L 0,56.95 c 2.476,1.235 4.48,0 4.48,-2.767 V 7.237 C 4.48,4.473 2.476,1.233 0,0 m -45.557,31.667 v -46.939 c 0,-2.771 -2.003,-4.007 -4.48,-2.776 L -86.127,0 c -2.47,1.233 -4.474,4.473 -4.474,7.237 v 46.946 c 0,2.767 2.004,4.002 4.474,2.767 l 36.09,-18.04 c 2.477,-1.239 4.48,-4.48 4.48,-7.243 m -1.977,11.587 -35.458,17.725 c -2.476,1.239 -2.476,3.245 0,4.48 l 35.458,17.729 c 2.47,1.24 6.478,1.24 8.947,0 L -3.129,65.459 c 2.475,-1.235 2.475,-3.241 0,-4.48 L -38.587,43.254 c -2.469,-1.234 -6.477,-1.234 -8.947,0 M 9.386,63.9 c -0.018,0.077 -0.056,0.144 -0.083,0.209 -0.052,0.136 -0.104,0.266 -0.174,0.392 -0.048,0.084 -0.104,0.144 -0.161,0.219 -0.073,0.105 -0.15,0.201 -0.24,0.296 -0.079,0.071 -0.157,0.126 -0.226,0.185 -0.07,0.05 -0.136,0.121 -0.206,0.164 -0.2,0.111 -50.238,25.133 -50.238,25.133 -0.704,0.35 -1.539,0.35 -2.237,0 L -94.223,65.476 c -0.27,-0.154 -0.328,-0.225 -0.394,-0.275 -0.077,-0.059 -0.155,-0.114 -0.225,-0.185 -0.097,-0.095 -0.17,-0.191 -0.245,-0.296 -0.053,-0.075 -0.118,-0.135 -0.161,-0.219 -0.073,-0.126 -0.126,-0.251 -0.177,-0.387 -0.027,-0.07 -0.063,-0.137 -0.083,-0.214 -0.053,-0.22 -0.093,-0.43 -0.093,-0.665 V 0.687 c 0,-0.978 0.532,-1.847 1.378,-2.273 l 50.044,-25.016 c 0.091,-0.04 0.188,-0.035 0.283,-0.065 0.157,-0.062 0.324,-0.097 0.487,-0.118 0.124,-0.015 0.226,-0.086 0.341,-0.086 0.13,0 0.24,0.071 0.357,0.086 0.167,0.021 0.331,0.056 0.485,0.118 0.096,0.03 0.194,0.025 0.284,0.065 L 8.096,-1.586 c 0.851,0.426 1.381,1.295 1.381,2.24 v 62.547 c 0,0.269 -0.031,0.487 -0.091,0.699" /></g><g
           transform="translate(578.1172,381.376)"
           id="g104"><path
             id="path106"
             style="fill:#000000;fill-opacity:1;fill-rule:nonzero;stroke:none"
             d="m 0,0 -36.09,-18.041 c -2.465,-1.234 -4.468,0.004 -4.468,2.763 V 31.67 c 0,2.763 2.003,6.005 4.468,7.244 L 0,56.952 c 2.478,1.239 4.473,0 4.473,-2.76 V 7.244 C 4.473,4.485 2.478,1.24 0,0 m -45.564,31.67 v -46.948 c 0,-2.759 -2.003,-3.997 -4.479,-2.763 L -86.122,0 c -2.473,1.24 -4.473,4.485 -4.473,7.244 v 46.948 c 0,2.76 2,3.999 4.473,2.76 l 36.079,-18.038 c 2.476,-1.239 4.479,-4.481 4.479,-7.244 m -1.968,11.586 -35.466,17.731 c -2.47,1.236 -2.47,3.238 0,4.476 l 35.466,17.731 c 2.468,1.229 6.476,1.229 8.947,0 L -3.13,65.463 c 2.476,-1.238 2.476,-3.24 0,-4.476 L -38.585,43.256 c -2.471,-1.235 -6.479,-1.235 -8.947,0 M 9.387,63.907 c -0.019,0.07 -0.057,0.137 -0.084,0.214 -0.051,0.128 -0.104,0.26 -0.18,0.388 -0.038,0.076 -0.098,0.141 -0.156,0.218 -0.071,0.098 -0.156,0.203 -0.239,0.294 -0.07,0.066 -0.155,0.119 -0.231,0.18 -0.065,0.056 -0.126,0.126 -0.202,0.172 -0.199,0.107 -50.235,25.125 -50.235,25.125 -0.706,0.355 -1.54,0.355 -2.239,0 L -94.216,65.48 c -0.27,-0.153 -0.328,-0.223 -0.399,-0.279 -0.078,-0.061 -0.156,-0.114 -0.233,-0.18 -0.09,-0.091 -0.161,-0.196 -0.239,-0.289 -0.053,-0.078 -0.116,-0.147 -0.161,-0.223 -0.073,-0.123 -0.124,-0.26 -0.175,-0.388 -0.032,-0.077 -0.065,-0.144 -0.085,-0.214 -0.053,-0.219 -0.091,-0.436 -0.091,-0.669 V 0.692 c 0,-0.983 0.53,-1.847 1.383,-2.272 l 50.037,-25.022 c 0.091,-0.045 0.197,-0.035 0.285,-0.067 0.164,-0.053 0.322,-0.087 0.487,-0.109 0.121,-0.022 0.23,-0.089 0.347,-0.089 0.117,0 0.232,0.067 0.349,0.089 0.169,0.022 0.323,0.056 0.484,0.109 0.099,0.032 0.195,0.022 0.287,0.067 L 8.096,-1.58 c 0.845,0.425 1.383,1.289 1.383,2.238 v 62.549 c 0,0.264 -0.033,0.481 -0.092,0.7" /></g><g
           transform="translate(535.9033,270.8945)"
           id="g108"><path
             id="path110"
             style="fill:#000000;fill-opacity:1;fill-rule:nonzero;stroke:none"
             d="m 0,0 v -39.794 c 0.625,0.089 1.27,0.153 1.953,0.153 1.099,0 2.109,-0.132 3.053,-0.356 V 0 c 0,2.729 1.958,5.92 4.382,7.191 C 8.899,7.763 8.356,8.385 7.708,9.118 7.116,9.79 6.605,10.507 6.158,11.252 3.688,10.374 0.243,10.479 -1.969,11.586 l -0.078,0.04 C -2.738,10.129 -3.377,8.555 -3.952,6.922 -1.729,5.516 0,2.563 0,0" /></g><g
           transform="translate(433.3584,532.939)"
           id="g112"><path
             id="path114"
             style="fill:#000000;fill-opacity:1;fill-rule:nonzero;stroke:none"
             d="m 0,0 v -39.794 c 0.624,0.088 1.269,0.151 1.952,0.151 1.099,0 2.11,-0.132 3.053,-0.355 V 0 c 0,2.729 1.959,5.918 4.382,7.191 C 8.898,7.761 8.355,8.383 7.707,9.118 7.116,9.789 6.604,10.505 6.157,11.25 3.688,10.372 0.243,10.479 -1.97,11.585 l -0.078,0.039 C -2.739,10.128 -3.378,8.555 -3.953,6.922 -1.73,5.515 0,2.562 0,0" /></g><g
           transform="translate(528.5791,356.0742)"
           id="g116"><path
             id="path118"
             style="fill:#000000;fill-opacity:1;fill-rule:nonzero;stroke:none"
             d="m 0,0 -36.077,-18.043 c -2.476,-1.239 -4.484,0 -4.484,2.765 v 46.942 c 0,2.766 2.008,6.011 4.484,7.252 L 0,56.951 c 2.475,1.236 4.474,0 4.474,-2.765 V 7.237 C 4.474,4.48 2.475,1.231 0,0 m -45.562,31.664 v -46.942 c 0,-2.765 -2.005,-4.004 -4.48,-2.765 L -86.114,0 c -2.483,1.231 -4.487,4.48 -4.487,7.237 v 46.949 c 0,2.765 2.004,4.001 4.487,2.765 l 36.072,-18.035 c 2.475,-1.241 4.48,-4.486 4.48,-7.252 M -47.535,43.25 -82.99,60.983 c -2.478,1.241 -2.478,3.24 0,4.474 l 35.455,17.735 c 2.471,1.23 6.478,1.23 8.947,0 L -3.124,65.457 c 2.471,-1.234 2.471,-3.233 0,-4.474 L -38.588,43.25 c -2.469,-1.23 -6.476,-1.23 -8.947,0 M 9.394,63.901 c -0.026,0.072 -0.066,0.141 -0.096,0.212 -0.048,0.13 -0.097,0.263 -0.17,0.389 -0.045,0.077 -0.109,0.146 -0.161,0.219 -0.078,0.097 -0.149,0.202 -0.239,0.3 -0.072,0.058 -0.155,0.114 -0.233,0.18 -0.064,0.055 -0.122,0.122 -0.207,0.164 -0.188,0.109 -50.228,25.133 -50.228,25.133 -0.7,0.349 -1.535,0.349 -2.239,0 L -94.221,65.474 c -0.274,-0.151 -0.331,-0.218 -0.396,-0.273 -0.075,-0.061 -0.161,-0.122 -0.232,-0.18 -0.084,-0.098 -0.162,-0.203 -0.24,-0.294 -0.051,-0.079 -0.108,-0.148 -0.153,-0.225 -0.078,-0.12 -0.137,-0.259 -0.183,-0.389 -0.032,-0.071 -0.065,-0.14 -0.085,-0.212 -0.049,-0.218 -0.089,-0.437 -0.089,-0.661 V 0.687 c 0,-0.984 0.532,-1.843 1.378,-2.272 l 50.042,-25.019 c 0.091,-0.042 0.187,-0.03 0.285,-0.067 0.162,-0.058 0.316,-0.084 0.485,-0.106 0.122,-0.024 0.232,-0.09 0.348,-0.09 0.123,0 0.234,0.066 0.349,0.09 0.168,0.022 0.33,0.048 0.491,0.106 0.091,0.037 0.197,0.025 0.281,0.067 L 8.1,-1.585 c 0.849,0.429 1.377,1.288 1.377,2.24 v 62.546 c 0,0.263 -0.031,0.488 -0.083,0.7" /></g><g
           transform="translate(478.292,455.8984)"
           id="g120"><path

             style="fill:#000000;fill-opacity:1;fill-rule:nonzero;stroke:none"
             d="m 0,0 -36.085,-18.036 c -2.47,-1.239 -4.474,0 -4.474,2.765 v 46.944 c 0,2.765 2.004,6.003 4.474,7.238 L 0,56.953 c 2.475,1.24 4.473,0 4.473,-2.76 V 7.244 C 4.473,4.479 2.475,1.234 0,0 m -45.563,31.673 v -46.944 c 0,-2.765 -2.012,-4.004 -4.474,-2.765 L -86.122,0 c -2.477,1.234 -4.481,4.479 -4.481,7.244 v 46.949 c 0,2.76 2.004,4 4.481,2.76 l 36.085,-18.042 c 2.462,-1.235 4.474,-4.473 4.474,-7.238 m -1.973,11.581 -35.463,17.73 c -2.477,1.235 -2.477,3.241 0,4.475 l 35.463,17.734 c 2.47,1.235 6.479,1.235 8.948,0 L -3.124,65.459 c 2.47,-1.234 2.47,-3.24 0,-4.475 l -35.464,-17.73 c -2.469,-1.234 -6.478,-1.234 -8.948,0 M 9.387,63.908 c -0.021,0.069 -0.051,0.136 -0.086,0.207 -0.049,0.136 -0.097,0.267 -0.18,0.389 -0.038,0.08 -0.103,0.147 -0.156,0.222 -0.078,0.097 -0.154,0.202 -0.239,0.295 -0.077,0.066 -0.162,0.122 -0.233,0.18 -0.069,0.057 -0.129,0.126 -0.205,0.166 -0.187,0.113 -50.231,25.131 -50.231,25.131 -0.697,0.355 -1.534,0.355 -2.244,0 L -94.217,65.48 c -0.278,-0.153 -0.336,-0.222 -0.401,-0.279 -0.078,-0.058 -0.161,-0.114 -0.234,-0.18 -0.084,-0.093 -0.159,-0.198 -0.244,-0.295 -0.046,-0.07 -0.103,-0.142 -0.155,-0.222 -0.071,-0.122 -0.123,-0.253 -0.167,-0.382 -0.034,-0.078 -0.065,-0.145 -0.093,-0.214 -0.056,-0.219 -0.088,-0.438 -0.088,-0.666 V 0.692 c 0,-0.982 0.536,-1.852 1.382,-2.272 l 50.03,-25.017 c 0.097,-0.049 0.195,-0.038 0.284,-0.07 0.161,-0.054 0.325,-0.093 0.492,-0.111 0.118,-0.017 0.226,-0.082 0.348,-0.082 0.119,0 0.227,0.065 0.35,0.082 0.169,0.018 0.331,0.057 0.485,0.111 0.092,0.032 0.189,0.021 0.285,0.07 L 8.101,-1.58 c 0.846,0.42 1.376,1.29 1.376,2.235 v 62.553 c 0,0.262 -0.033,0.481 -0.09,0.7" /></g><g
           transform="translate(578.1172,569.2397)"
           id="g124"><path

             style="fill:#000000;fill-opacity:1;fill-rule:nonzero;stroke:none"
             d="m 0,0 -36.09,-18.046 c -2.465,-1.235 -4.468,0.005 -4.468,2.77 v 46.943 c 0,2.765 2.003,6.006 4.468,7.245 L 0,56.947 c 2.478,1.24 4.473,0 4.473,-2.764 V 7.241 C 4.473,4.477 2.478,1.235 0,0 m -45.564,31.667 v -46.943 c 0,-2.765 -2.003,-4.005 -4.479,-2.77 L -86.122,0 c -2.473,1.235 -4.473,4.477 -4.473,7.241 v 46.942 c 0,2.764 2,4.004 4.473,2.764 l 36.079,-18.035 c 2.476,-1.239 4.479,-4.48 4.479,-7.245 m -1.968,11.59 -35.466,17.728 c -2.47,1.234 -2.47,3.24 0,4.469 l 35.466,17.736 c 2.468,1.238 6.476,1.238 8.947,0 L -3.13,65.454 c 2.476,-1.229 2.476,-3.235 0,-4.469 L -38.585,43.257 c -2.471,-1.235 -6.479,-1.235 -8.947,0 M 9.387,63.902 c -0.019,0.078 -0.057,0.136 -0.084,0.21 -0.051,0.135 -0.104,0.266 -0.18,0.392 -0.038,0.077 -0.098,0.141 -0.156,0.219 -0.071,0.103 -0.156,0.201 -0.239,0.294 -0.07,0.069 -0.155,0.12 -0.231,0.181 -0.065,0.054 -0.126,0.126 -0.202,0.17 -0.199,0.108 -50.235,25.124 -50.235,25.124 -0.706,0.358 -1.54,0.358 -2.239,0 L -94.216,65.476 c -0.27,-0.152 -0.328,-0.224 -0.399,-0.278 -0.078,-0.061 -0.156,-0.112 -0.233,-0.181 -0.09,-0.093 -0.161,-0.191 -0.239,-0.294 -0.053,-0.072 -0.116,-0.142 -0.161,-0.219 -0.073,-0.126 -0.124,-0.251 -0.175,-0.388 -0.032,-0.078 -0.065,-0.136 -0.085,-0.214 -0.053,-0.21 -0.091,-0.437 -0.091,-0.666 V 0.687 c 0,-0.975 0.53,-1.844 1.383,-2.272 l 50.037,-25.016 c 0.091,-0.044 0.197,-0.034 0.285,-0.067 0.164,-0.055 0.322,-0.093 0.487,-0.114 0.121,-0.019 0.23,-0.083 0.347,-0.083 0.117,0 0.232,0.064 0.349,0.083 0.169,0.021 0.323,0.059 0.484,0.114 0.099,0.033 0.195,0.023 0.287,0.067 L 8.096,-1.585 c 0.845,0.428 1.383,1.297 1.383,2.235 v 62.552 c 0,0.263 -0.033,0.49 -0.092,0.7" /></g><g
           transform="translate(528.5791,543.939)"
           id="g128"><path

             style="fill:#000000;fill-opacity:1;fill-rule:nonzero;stroke:none"
             d="m 0,0 -36.077,-18.048 c -2.476,-1.24 -4.484,0 -4.484,2.764 v 46.945 c 0,2.766 2.008,6.009 4.484,7.245 L 0,56.947 c 2.475,1.24 4.474,0 4.474,-2.765 V 7.24 C 4.474,4.476 2.475,1.229 0,0 m -45.562,31.661 v -46.945 c 0,-2.764 -2.005,-4.004 -4.48,-2.764 L -86.114,0 c -2.483,1.229 -4.487,4.476 -4.487,7.24 v 46.942 c 0,2.765 2.004,4.005 4.487,2.765 l 36.072,-18.041 c 2.475,-1.236 4.48,-4.479 4.48,-7.245 m -1.973,11.588 -35.455,17.729 c -2.478,1.239 -2.478,3.247 0,4.474 l 35.455,17.731 c 2.471,1.241 6.478,1.241 8.947,0 L -3.124,65.452 c 2.471,-1.227 2.471,-3.235 0,-4.474 L -38.588,43.249 c -2.469,-1.233 -6.476,-1.233 -8.947,0 M 9.394,63.902 C 9.368,63.973 9.328,64.039 9.298,64.11 9.25,64.246 9.201,64.378 9.128,64.504 9.083,64.578 9.019,64.645 8.967,64.72 8.889,64.826 8.818,64.925 8.728,65.017 8.656,65.082 8.573,65.137 8.495,65.198 8.431,65.252 8.373,65.318 8.288,65.368 8.1,65.471 -41.94,90.492 -41.94,90.492 c -0.7,0.351 -1.535,0.351 -2.239,0 L -94.221,65.471 c -0.274,-0.153 -0.331,-0.219 -0.396,-0.273 -0.075,-0.061 -0.161,-0.116 -0.232,-0.181 -0.084,-0.092 -0.162,-0.191 -0.24,-0.297 -0.051,-0.075 -0.108,-0.142 -0.153,-0.216 -0.078,-0.126 -0.137,-0.252 -0.183,-0.388 -0.032,-0.077 -0.065,-0.143 -0.085,-0.214 -0.049,-0.218 -0.089,-0.441 -0.089,-0.666 V 0.682 c 0,-0.978 0.532,-1.842 1.378,-2.267 l 50.042,-25.022 c 0.091,-0.047 0.187,-0.034 0.285,-0.068 0.162,-0.052 0.316,-0.092 0.485,-0.113 0.122,-0.017 0.232,-0.082 0.348,-0.082 0.123,0 0.234,0.065 0.349,0.082 0.168,0.021 0.33,0.061 0.491,0.113 0.091,0.034 0.197,0.021 0.281,0.068 L 8.1,-1.585 c 0.849,0.425 1.377,1.289 1.377,2.236 v 62.552 c 0,0.258 -0.031,0.486 -0.083,0.699" /></g><g
           transform="translate(628.4062,532.4609)"
           id="g132"><path

             style="fill:#000000;fill-opacity:1;fill-rule:nonzero;stroke:none"
             d="m 0,0 -36.084,-18.048 c -2.476,-1.229 -4.474,0.006 -4.474,2.77 v 46.949 c 0,2.758 1.998,5.999 4.474,7.24 L 0,56.952 c 2.476,1.234 4.48,0 4.48,-2.764 V 7.244 C 4.48,4.477 2.476,1.236 0,0 m -45.557,31.671 v -46.949 c 0,-2.764 -2.003,-3.999 -4.48,-2.77 L -86.127,0 c -2.47,1.236 -4.474,4.477 -4.474,7.244 v 46.944 c 0,2.764 2.004,3.998 4.474,2.764 l 36.09,-18.041 c 2.477,-1.241 4.48,-4.482 4.48,-7.24 m -1.977,11.583 -35.458,17.73 c -2.476,1.234 -2.476,3.241 0,4.479 l 35.458,17.724 c 2.47,1.235 6.478,1.235 8.947,0 L -3.129,65.463 c 2.475,-1.238 2.475,-3.245 0,-4.479 l -35.458,-17.73 c -2.469,-1.235 -6.477,-1.235 -8.947,0 M 9.386,63.901 C 9.368,63.977 9.33,64.044 9.303,64.107 9.251,64.25 9.199,64.38 9.129,64.5 c -0.048,0.084 -0.104,0.148 -0.161,0.22 -0.073,0.104 -0.15,0.208 -0.24,0.297 -0.079,0.071 -0.157,0.123 -0.226,0.191 -0.07,0.047 -0.136,0.113 -0.206,0.155 -0.2,0.117 -50.238,25.135 -50.238,25.135 -0.704,0.349 -1.539,0.349 -2.237,0 L -94.223,65.48 c -0.27,-0.159 -0.328,-0.225 -0.394,-0.272 -0.077,-0.068 -0.155,-0.12 -0.225,-0.191 -0.097,-0.089 -0.17,-0.193 -0.245,-0.297 -0.053,-0.065 -0.118,-0.136 -0.161,-0.22 -0.073,-0.12 -0.126,-0.25 -0.177,-0.387 -0.027,-0.069 -0.063,-0.136 -0.083,-0.212 -0.053,-0.214 -0.093,-0.432 -0.093,-0.668 V 0.69 c 0,-0.982 0.532,-1.85 1.378,-2.27 l 50.044,-25.018 c 0.091,-0.048 0.188,-0.037 0.283,-0.071 0.157,-0.06 0.324,-0.094 0.487,-0.115 0.124,-0.015 0.226,-0.082 0.341,-0.082 0.13,0 0.24,0.067 0.357,0.082 0.167,0.021 0.331,0.055 0.485,0.115 0.096,0.034 0.194,0.023 0.284,0.071 L 8.096,-1.58 c 0.851,0.42 1.381,1.288 1.381,2.239 v 62.547 c 0,0.263 -0.031,0.481 -0.091,0.695" /></g><g
           transform="translate(487.1152,572.4468)"
           id="g136"><path

             style="fill:#000000;fill-opacity:1;fill-rule:nonzero;stroke:none"
             d="m 0,0 c -0.181,0.091 -0.286,0.144 -0.286,0.144 -0.697,0.353 -1.534,0.353 -2.236,0 L -52.431,-24.81 c 0.366,-1.229 0.559,-2.514 0.569,-3.802 0.651,-0.252 1.245,-0.57 1.809,-0.92 0.73,0.125 1.49,0.205 2.307,0.205 0.711,0 1.377,-0.066 2.023,-0.162 0.704,0.857 1.585,1.557 2.577,2.1 -0.145,0.895 0.438,1.815 1.802,2.497 l 35.467,17.73 c 1.655,0.828 3.997,1.087 6.109,0.801 C -0.337,-4.307 -0.414,-2.1 0,0" /></g><g
           transform="translate(586.5283,247.2041)"
           id="g140"><path

             style="fill:#f44043;fill-opacity:1;fill-rule:nonzero;stroke:none"
             d="m 0,0 v -47.649 c 0,-2.806 -1.85,-6.1 -4.37,-7.352 l -36.679,-18.315 c -0.328,-0.151 -0.653,-0.284 -0.957,-0.36 -0.62,-0.158 -1.196,-0.158 -1.687,0.012 -1.091,0.355 -1.772,1.477 -1.772,3.165 v 47.65 c 0,2.81 1.984,6.089 4.514,7.344 l 9.543,4.776 27.237,13.544 c 0.629,0.322 1.242,0.479 1.799,0.487 C -0.92,3.226 0,2 0,0" /></g><g
           transform="translate(262.8672,409.9268)"
           id="g144"><path

             style="fill:#f0b442;fill-opacity:1;fill-rule:nonzero;stroke:none"
             d="m 0,0 v -47.247 c 0,-2.777 -1.901,-6.038 -4.486,-7.283 l -37.622,-18.164 c -0.336,-0.151 -0.674,-0.276 -0.983,-0.36 -0.641,-0.151 -1.235,-0.151 -1.735,0.012 -1.124,0.36 -1.823,1.477 -1.823,3.138 v 47.247 c 0,2.788 2.037,6.044 4.644,7.285 l 9.794,4.73 27.93,13.423 c 0.647,0.323 1.275,0.481 1.845,0.491 C -0.937,3.191 0,1.983 0,0" /></g><g
           transform="translate(262.8672,348.0049)"
           id="g148"><path

             style="fill:#d9ec53;fill-opacity:1;fill-rule:nonzero;stroke:none"
             d="m 0,0 v -48.098 c 0,-2.823 -1.901,-6.144 -4.486,-7.421 l -37.622,-18.482 c -0.336,-0.153 -0.674,-0.283 -0.983,-0.365 -0.641,-0.16 -1.235,-0.16 -1.735,0.004 -1.124,0.372 -1.823,1.505 -1.823,3.197 v 48.096 c 0,2.834 2.037,6.147 4.644,7.419 l 9.794,4.812 27.93,13.667 c 0.647,0.326 1.275,0.489 1.845,0.505 C -0.937,3.245 0,2.027 0,0" /></g><g
           transform="translate(262.8672,284.1895)"
           id="g152"><path

             style="fill:#f44043;fill-opacity:1;fill-rule:nonzero;stroke:none"
             d="m 0,0 v -48.091 c 0,-2.827 -1.901,-6.154 -4.486,-7.421 l -37.622,-18.482 c -0.336,-0.158 -0.674,-0.283 -0.983,-0.372 -0.641,-0.153 -1.235,-0.153 -1.735,0.011 -1.124,0.372 -1.823,1.502 -1.823,3.196 v 48.097 c 0,2.829 2.037,6.145 4.644,7.414 l 9.794,4.814 27.93,13.662 c 0.647,0.327 1.275,0.498 1.845,0.511 C -0.937,3.248 0,2.026 0,0" /></g><g
           transform="translate(262.8672,221.6689)"
           id="g156"><path

             style="fill:#ffdd15;fill-opacity:1;fill-rule:nonzero;stroke:none"
             d="m 0,0 v -47.249 c 0,-2.775 -1.901,-6.037 -4.486,-7.283 l -37.622,-18.162 c -0.336,-0.147 -0.674,-0.279 -0.983,-0.362 -0.641,-0.152 -1.235,-0.152 -1.735,0.011 -1.124,0.361 -1.823,1.478 -1.823,3.138 v 47.248 c 0,2.788 2.037,6.044 4.644,7.285 l 9.794,4.737 27.93,13.423 c 0.647,0.316 1.275,0.481 1.845,0.491 C -0.937,3.19 0,1.987 0,0" /></g><g
           transform="translate(363.3613,397.6836)"
           id="g160"><path
             id="path162"
             style="fill:#7f3f97;fill-opacity:1;fill-rule:nonzero;stroke:none"
             d="m 0,0 v -47.249 c 0,-2.774 -1.902,-6.038 -4.489,-7.281 l -37.627,-18.16 c -0.337,-0.157 -0.673,-0.284 -0.989,-0.362 -0.629,-0.156 -1.223,-0.156 -1.728,0.01 -1.119,0.361 -1.816,1.474 -1.816,3.136 v 47.249 c 0,2.786 2.037,6.042 4.641,7.283 l 9.788,4.73 27.934,13.426 c 0.652,0.321 1.271,0.485 1.841,0.497 C -0.945,3.191 0,1.989 0,0" /></g><g
           transform="translate(313.2783,373.2715)"
           id="g164"><path
             id="path166"
             style="fill:#4fffff;fill-opacity:1;fill-rule:nonzero;stroke:none"
             d="m 0,0 v -47.247 c 0,-2.776 -1.901,-6.044 -4.48,-7.281 l -37.635,-18.164 c -0.336,-0.153 -0.668,-0.278 -0.976,-0.363 -0.641,-0.154 -1.229,-0.154 -1.734,0.012 -1.118,0.36 -1.822,1.477 -1.822,3.139 v 47.249 c 0,2.786 2.041,6.036 4.641,7.283 l 9.794,4.729 L -4.279,2.78 C -3.634,3.105 -3,3.269 -2.431,3.272 -0.943,3.192 0,1.989 0,0" /></g><g
           transform="translate(262.8672,536.9282)"
           id="g168"><path
             id="path170"
             style="fill:#71ffe3;fill-opacity:1;fill-rule:nonzero;stroke:none"
             d="m 0,0 v -48.094 c 0,-2.827 -1.901,-6.148 -4.486,-7.415 l -37.622,-18.484 c -0.336,-0.159 -0.674,-0.285 -0.983,-0.367 -0.641,-0.163 -1.235,-0.163 -1.735,0.012 -1.124,0.36 -1.823,1.497 -1.823,3.192 v 48.09 c 0,2.835 2.037,6.151 4.644,7.414 l 9.794,4.818 27.93,13.665 C -3.634,3.159 -3.006,3.33 -2.436,3.333 -0.937,3.245 0,2.022 0,0" /></g><g
           transform="translate(582.5146,435.4385)"
           id="g172"><path
             id="path174"
             style="fill:#edc84e;fill-opacity:1;fill-rule:nonzero;stroke:none"
             d="m 0,0 v -46.945 c 0,-2.758 -1.812,-5.996 -4.274,-7.239 L -40.202,-72.23 c -0.319,-0.153 -0.634,-0.284 -0.934,-0.357 -0.613,-0.157 -1.176,-0.157 -1.66,0.012 -1.067,0.349 -1.725,1.455 -1.725,3.114 v 46.948 c 0,2.765 1.939,5.995 4.422,7.242 l 9.349,4.698 26.664,13.345 c 0.619,0.314 1.22,0.47 1.757,0.481 C -0.9,3.18 0,1.977 0,0" /></g><g
           transform="translate(582.7285,623.8701)"
           id="g176"><path
             id="path178"
             style="fill:#3cbbe8;fill-opacity:1;fill-rule:nonzero;stroke:none"
             d="m 0,0 v -47.396 c 0,-2.781 -1.833,-6.058 -4.321,-7.303 l -36.262,-18.217 c -0.325,-0.158 -0.648,-0.285 -0.953,-0.365 -0.615,-0.154 -1.182,-0.154 -1.668,0.01 -1.073,0.366 -1.753,1.474 -1.753,3.146 v 47.397 c 0,2.791 1.966,6.06 4.476,7.31 l 9.433,4.747 26.922,13.469 c 0.632,0.316 1.23,0.481 1.777,0.485 C -0.913,3.21 0,1.996 0,0" /></g><g
           transform="translate(532.7227,597.9082)"
           id="g180"><path
             id="path182"
             style="fill:#f44043;fill-opacity:1;fill-rule:nonzero;stroke:none"
             d="m 0,0 v -47.397 c 0,-2.786 -1.83,-6.06 -4.318,-7.312 l -36.26,-18.221 c -0.328,-0.153 -0.653,-0.276 -0.955,-0.354 -0.615,-0.157 -1.185,-0.157 -1.667,0.013 -1.076,0.354 -1.754,1.468 -1.754,3.139 v 47.397 c 0,2.798 1.966,6.06 4.475,7.31 l 9.432,4.749 26.922,13.468 c 0.627,0.322 1.235,0.48 1.777,0.485 C -0.911,3.2 0,1.993 0,0" /></g><g
           transform="translate(632.1816,587.3037)"
           id="g184"><path
             id="path186"
             style="fill:#71ffe3;fill-opacity:1;fill-rule:nonzero;stroke:none"
             d="m 0,0 v -47.397 c 0,-2.782 -1.83,-6.06 -4.325,-7.306 l -36.259,-18.22 c -0.33,-0.16 -0.653,-0.28 -0.951,-0.361 -0.62,-0.158 -1.189,-0.158 -1.675,0.01 -1.072,0.362 -1.744,1.477 -1.744,3.149 v 47.391 c 0,2.797 1.958,6.063 4.466,7.308 l 9.432,4.756 26.93,13.462 c 0.628,0.32 1.229,0.486 1.772,0.486 C -0.911,3.207 0,1.993 0,0" /></g><g
           transform="translate(482.5186,510.5459)"
           id="g188"><path
             id="path190"
             style="fill:#7f3f97;fill-opacity:1;fill-rule:nonzero;stroke:none"
             d="m 0,0 v -47.392 c 0,-2.787 -1.835,-6.065 -4.327,-7.315 l -36.256,-18.21 c -0.33,-0.159 -0.654,-0.279 -0.951,-0.361 -0.619,-0.158 -1.189,-0.158 -1.674,0.01 -1.074,0.361 -1.746,1.475 -1.746,3.149 v 47.39 c 0,2.796 1.959,6.065 4.461,7.309 l 9.439,4.754 26.923,13.463 c 0.626,0.322 1.235,0.481 1.777,0.485 C -0.916,3.207 0,1.995 0,0" /></g><g
           transform="translate(532.7227,410.2441)"
           id="g192"><path
             id="path194"
             style="fill:#8bc53f;fill-opacity:1;fill-rule:nonzero;stroke:none"
             d="m 0,0 v -47.393 c 0,-2.789 -1.83,-6.064 -4.318,-7.313 l -36.26,-18.216 c -0.328,-0.158 -0.653,-0.287 -0.955,-0.361 -0.615,-0.158 -1.185,-0.158 -1.667,0.012 -1.076,0.36 -1.754,1.474 -1.754,3.146 v 47.397 c 0,2.791 1.966,6.064 4.475,7.311 l 9.432,4.747 26.922,13.468 C -3.498,3.121 -2.89,3.276 -2.348,3.283 -0.911,3.208 0,1.993 0,0" /></g><g
           transform="translate(632.8867,398.7451)"
           id="g196"><path
             id="path198"
             style="fill:#d9ec53;fill-opacity:1;fill-rule:nonzero;stroke:none"
             d="m 0,0 v -48.004 c 0,-2.825 -1.864,-6.141 -4.396,-7.408 l -36.822,-18.454 c -0.337,-0.156 -0.659,-0.287 -0.97,-0.363 -0.627,-0.16 -1.201,-0.16 -1.7,0.003 -1.088,0.372 -1.771,1.498 -1.771,3.193 v 48.008 c 0,2.83 1.991,6.14 4.531,7.397 l 9.595,4.815 27.337,13.642 C -3.558,3.156 -2.943,3.32 -2.387,3.326 -0.931,3.249 0,2.021 0,0" /></g><g
           transform="translate(634.1416,336.0596)"
           id="g200"><path
             id="path202"
             style="fill:#3cbbe8;fill-opacity:1;fill-rule:nonzero;stroke:none"
             d="m 0,0 v -48.003 c 0,-2.824 -1.921,-6.147 -4.547,-7.409 l -38.126,-18.45 c -0.338,-0.165 -0.673,-0.29 -0.991,-0.372 -0.651,-0.153 -1.246,-0.153 -1.764,0.011 -1.125,0.372 -1.829,1.499 -1.829,3.19 v 48.009 c 0,2.831 2.057,6.137 4.688,7.398 l 9.931,4.813 L -4.34,2.83 c 0.659,0.327 1.299,0.486 1.869,0.492 C -0.959,3.244 0,2.021 0,0" /></g><g
           transform="translate(537.1709,222.2314)"
           id="g204"><path
             id="path206"
             style="fill:#f0b442;fill-opacity:1;fill-rule:nonzero;stroke:none"
             d="m 0,0 v -48.002 c 0,-2.826 -1.896,-6.142 -4.479,-7.411 l -37.611,-18.45 c -0.342,-0.158 -0.679,-0.29 -0.988,-0.372 -0.648,-0.152 -1.23,-0.152 -1.739,0.012 -1.108,0.372 -1.812,1.496 -1.812,3.19 v 48.009 c 0,2.83 2.038,6.14 4.635,7.396 l 9.796,4.816 L -4.28,2.83 c 0.651,0.328 1.287,0.491 1.844,0.496 C -0.944,3.252 0,2.021 0,0" /></g><g
           transform="translate(411.957,612.2876)"
           id="g208"><path
             id="path210"
             style="fill:#8bc53f;fill-opacity:1;fill-rule:nonzero;stroke:none"
             d="m 0,0 v -47.396 c 0,-2.786 -1.833,-6.059 -4.321,-7.304 l -36.266,-18.217 c -0.321,-0.164 -0.644,-0.286 -0.943,-0.367 -0.621,-0.152 -1.189,-0.152 -1.674,0.013 -1.073,0.358 -1.745,1.473 -1.745,3.147 v 47.391 c 0,2.796 1.957,6.064 4.461,7.31 l 9.439,4.753 26.922,13.461 c 0.626,0.33 1.23,0.488 1.778,0.491 C -0.908,3.207 0,1.995 0,0" /></g><g
           transform="translate(362.501,587.3037)"
           id="g212"><path
             id="path214"
             style="fill:#3cbbe8;fill-opacity:1;fill-rule:nonzero;stroke:none"
             d="m 0,0 v -47.397 c 0,-2.786 -1.849,-6.06 -4.372,-7.316 l -36.743,-18.21 c -0.322,-0.16 -0.654,-0.286 -0.956,-0.361 -0.628,-0.165 -1.204,-0.165 -1.695,0.01 -1.092,0.362 -1.77,1.477 -1.77,3.142 v 47.398 c 0,2.791 1.99,6.058 4.526,7.308 l 9.561,4.756 27.279,13.462 c 0.632,0.32 1.232,0.48 1.796,0.486 C -0.919,3.2 0,1.989 0,0" /></g><g
           transform="translate(312.7305,561.1226)"
           id="g216"><path
             id="path218"
             style="fill:#ffec53;fill-opacity:1;fill-rule:nonzero;stroke:none"
             d="m 0,0 v -47.394 c 0,-2.784 -1.845,-6.064 -4.371,-7.309 l -36.751,-18.216 c -0.323,-0.158 -0.647,-0.284 -0.958,-0.362 -0.62,-0.161 -1.201,-0.161 -1.692,0.012 -1.093,0.36 -1.765,1.476 -1.765,3.142 v 47.397 c 0,2.791 1.982,6.059 4.518,7.311 l 9.569,4.753 27.271,13.458 C -3.544,3.119 -2.937,3.278 -2.38,3.287 -0.92,3.207 0,1.995 0,0" /></g><g
           transform="translate(482.5186,447.5771)"
           id="g220"><path
             id="path222"
             style="fill:#42ff94;fill-opacity:1;fill-rule:nonzero;stroke:none"
             d="m 0,0 v -47.402 c 0,-2.787 -1.835,-6.056 -4.318,-7.312 l -36.265,-18.214 c -0.323,-0.152 -0.646,-0.283 -0.951,-0.361 -0.614,-0.154 -1.182,-0.154 -1.668,0.011 -1.08,0.361 -1.752,1.475 -1.752,3.145 v 47.399 c 0,2.797 1.965,6.054 4.469,7.31 l 9.437,4.747 26.924,13.468 C -3.499,3.113 -2.896,3.268 -2.347,3.28 -0.911,3.202 0,1.995 0,0" /></g><g
           transform="translate(486.5273,257.9795)"
           id="g224"><path
             id="path226"
             style="fill:#8bc53f;fill-opacity:1;fill-rule:nonzero;stroke:none"
             d="m 0,0 v -48.025 c 0,-2.825 -1.854,-6.141 -4.378,-7.408 l -36.748,-18.458 c -0.323,-0.157 -0.647,-0.283 -0.958,-0.364 -0.62,-0.165 -1.196,-0.165 -1.695,0.013 -1.092,0.355 -1.764,1.488 -1.764,3.183 v 48.025 c 0,2.829 1.985,6.136 4.521,7.408 l 9.563,4.815 L -4.184,2.83 C -3.55,3.152 -2.935,3.315 -2.378,3.329 -0.919,3.245 0,2.017 0,0" /></g><g
           id="g228"><g
             id="g230" /><g
             id="g242"><g
               style="opacity:0.39999402"
               id="g240"
               clip-path="url(#clipPath234)"><g
                 id="g238"
                 transform="translate(307.8213,379.3828)"><path
                   id="path236"
                   style="fill:#262262;fill-opacity:1;fill-rule:nonzero;stroke:none"
                   d="m 0,0 -37.519,-18.545 c -2.689,-1.34 -4.862,0 -4.862,2.973 v 38.773 c 0.789,-0.169 1.521,-0.409 2.152,-0.726 L -1.687,3.43 C 0.183,2.512 0.75,1.172 0,0" /></g></g></g></g><g
           id="g244"><g
             id="g246" /><g
             id="g306"><g
               style="opacity:0.60000598"
               id="g304"
               clip-path="url(#clipPath250)"><g
                 id="g258"
                 transform="translate(359.3516,598.667)"><path
                   id="path256"
                   style="fill:#8ca653;fill-opacity:1;fill-rule:nonzero;stroke:none"
                   d="m 0,0 -36.788,18.39 c -2.554,1.279 -2.554,3.36 0,4.644 L 0,41.42 c 2.572,1.29 6.729,1.29 9.283,0 L 46.075,23.034 c 2.571,-1.284 2.571,-3.365 0,-4.644 L 9.283,0 C 6.729,-1.285 2.572,-1.285 0,0" /></g><g
                 id="g270"><g
                   id="g260" /><g
                   id="g268"><g
                     style="opacity:0.60000598"
                     id="g266"
                     clip-path="url(#clipPath254)"><g
                       id="g264"
                       transform="translate(212.5127,151.5918)"><path
                         id="path262"
                         style="fill:#222f30;fill-opacity:1;fill-rule:nonzero;stroke:none"
                         d="m 0,0 c 0,-2.791 -2.022,-4.047 -4.524,-2.801 l -36.498,18.246 c -2.496,1.257 -4.526,4.54 -4.526,7.333 v 47.484 c 0,2.804 2.03,4.05 4.526,2.804 L -4.524,54.812 C -2.022,53.555 0,50.288 0,47.483 Z" /></g></g></g></g><g
                 id="g274"
                 transform="translate(212.5127,403.2598)"><path
                   id="path272"
                   style="fill:#5465a5;fill-opacity:1;fill-rule:nonzero;stroke:none"
                   d="m 0,0 c 0,-2.788 -2.022,-4.04 -4.524,-2.799 l -36.498,18.252 c -2.496,1.258 -4.526,4.535 -4.526,7.326 v 47.486 c 0,2.803 2.03,4.053 4.526,2.803 L -4.524,54.818 C -2.022,53.561 0,50.295 0,47.492 Z" /></g><g
                 id="g278"
                 transform="translate(212.5083,340.3252)"><path
                   id="path276"
                   style="fill:#68436e;fill-opacity:1;fill-rule:nonzero;stroke:none"
                   d="m 0,0 c 0,-2.827 -2.024,-4.102 -4.526,-2.84 l -36.498,18.518 c -2.496,1.272 -4.527,4.606 -4.527,7.433 v 48.19 c 0,2.843 2.031,4.112 4.527,2.843 L -4.526,55.622 C -2.024,54.354 0,51.03 0,48.185 Z" /></g><g
                 id="g282"
                 transform="translate(212.5083,276.7754)"><path
                   id="path280"
                   style="fill:#c49a6c;fill-opacity:1;fill-rule:nonzero;stroke:none"
                   d="m 0,0 c 0,-2.832 -2.024,-4.099 -4.526,-2.841 l -36.498,18.516 c -2.496,1.277 -4.527,4.604 -4.527,7.433 v 48.196 c 0,2.842 2.031,4.108 4.527,2.842 L -4.526,55.623 C -2.024,54.351 0,51.034 0,48.188 Z" /></g><g
                 id="g286"
                 transform="translate(212.5083,212.9648)"><path
                   id="path284"
                   style="fill:#33767d;fill-opacity:1;fill-rule:nonzero;stroke:none"
                   d="m 0,0 c 0,-2.831 -2.024,-4.104 -4.526,-2.841 l -36.498,18.516 c -2.496,1.27 -4.527,4.604 -4.527,7.435 v 48.192 c 0,2.839 2.031,4.112 4.527,2.839 L -4.526,55.617 C -2.024,54.351 0,51.031 0,48.184 Z" /></g><g
                 id="g290"
                 transform="translate(212.5083,465.3564)"><path
                   id="path288"
                   style="fill:#2b3990;fill-opacity:1;fill-rule:nonzero;stroke:none"
                   d="m 0,0 c 0,-2.804 -2.024,-4.064 -4.526,-2.813 l -36.498,18.324 c -2.496,1.262 -4.527,4.551 -4.527,7.358 V 70.54 c 0,2.815 2.031,4.071 4.527,2.815 L -4.526,55.022 C -2.024,53.767 0,50.484 0,47.669 Z" /></g><g
                 id="g294"
                 transform="translate(259.5508,549.5874)"><path
                   id="path292"
                   style="fill:#33767d;fill-opacity:1;fill-rule:nonzero;stroke:none"
                   d="m 0,0 -36.782,18.39 c -2.561,1.279 -2.561,3.357 0,4.645 L 0,41.418 c 2.572,1.29 6.731,1.29 9.29,0 L 46.073,23.035 c 2.573,-1.288 2.573,-3.366 0,-4.645 L 9.29,0 C 6.731,-1.288 2.572,-1.288 0,0" /></g><g
                 id="g298"
                 transform="translate(309.8066,575.2725)"><path
                   id="path296"
                   style="fill:#324001;fill-opacity:1;fill-rule:nonzero;stroke:none"
                   d="m 0,0 -36.782,18.399 c -2.554,1.275 -2.554,3.356 0,4.636 L 0,41.425 c 2.572,1.283 6.737,1.283 9.291,0 l 36.782,-18.39 c 2.573,-1.28 2.573,-3.361 0,-4.636 L 9.291,0 C 6.737,-1.283 2.572,-1.283 0,0" /></g><g
                 id="g302"
                 transform="translate(209.9985,524.1558)"><path
                   id="path300"
                   style="fill:#262262;fill-opacity:1;fill-rule:nonzero;stroke:none"
                   d="m 0,0 -36.788,18.395 c -2.554,1.279 -2.554,3.36 0,4.644 L 0,41.423 c 2.573,1.29 6.738,1.29 9.29,0 L 46.074,23.039 c 2.572,-1.284 2.572,-3.365 0,-4.644 L 9.29,0 C 6.738,-1.285 2.573,-1.285 0,0" /></g></g></g></g><g
           id="g308"><g
             id="g310" /><g
             id="g322"><g
               style="opacity:0.60000598"
               id="g320"
               clip-path="url(#clipPath314)"><g
                 id="g318"
                 transform="translate(583.4658,515.6299)"><path
                   id="path316"
                   style="fill:#33767d;fill-opacity:1;fill-rule:nonzero;stroke:none"
                   d="m 0,0 c 0,-2.785 -2.07,-4.041 -4.604,-2.795 l -37.107,18.254 c -2.528,1.25 -4.584,4.529 -4.584,7.326 0,0 -1.055,2.027 1.085,4.157 L -3.83,49.571 C -1.166,51.26 0,50.29 0,47.492 Z" /></g></g></g></g><g
           id="g324"><g
             id="g326" /><g
             id="g338"><g
               style="opacity:0.60000598"
               id="g336"
               clip-path="url(#clipPath330)"><g
                 id="g334"
                 transform="translate(583.3291,264.4697)"><path
                   id="path332"
                   style="fill:#33767d;fill-opacity:1;fill-rule:nonzero;stroke:none"
                   d="m 0,0 c 0,-2.901 -2.063,-4.207 -4.599,-2.913 l -37.098,18.991 c -2.527,1.307 -4.588,4.717 -4.588,7.623 v 49.407 c 0,2.913 2.061,4.22 4.588,2.913 L -4.599,57.035 C -2.063,55.73 0,52.325 0,49.413 Z" /></g></g></g></g><g
           id="g340"><g
             id="g342" /><g
             id="g354"><g
               style="opacity:0.60000598"
               id="g352"
               clip-path="url(#clipPath346)"><g
                 id="g350"
                 transform="translate(430.5762,499.2021)"><path
                   id="path348"
                   style="fill:#33767d;fill-opacity:1;fill-rule:nonzero;stroke:none"
                   d="m 0,0 -36.789,18.734 c -2.554,1.303 -2.554,3.422 0,4.728 L 0,42.191 c 2.571,1.311 6.736,1.311 9.288,0 L 46.073,23.462 c 2.573,-1.306 2.573,-3.425 0,-4.728 L 9.288,0 C 6.736,-1.306 2.571,-1.306 0,0" /></g></g></g></g><g
           id="g356"><g
             id="g358" /><g
             id="g370"><g
               style="opacity:0.60000598"
               id="g368"
               clip-path="url(#clipPath362)"><g
                 id="g366"
                 transform="translate(434.3232,246.3594)"><path
                   id="path364"
                   style="fill:#8ca653;fill-opacity:1;fill-rule:nonzero;stroke:none"
                   d="m 0,0 -36.78,18.734 c -2.555,1.308 -2.555,3.42 0,4.731 L 0,42.194 c 2.575,1.307 6.739,1.307 9.3,0 L 46.075,23.465 c 2.579,-1.311 2.579,-3.423 0,-4.731 L 9.3,0 C 6.739,-1.311 2.575,-1.311 0,0" /></g></g></g></g><g
           id="g372"><g
             id="g374" /><g
             id="g386"><g
               style="opacity:0.60000598"
               id="g384"
               clip-path="url(#clipPath378)"><g
                 id="g382"
                 transform="translate(533.416,234.2686)"><path
                   id="path380"
                   style="fill:#2b3990;fill-opacity:1;fill-rule:nonzero;stroke:none"
                   d="m 0,0 -36.79,19.527 c -2.553,1.364 -2.553,3.566 0,4.932 L 0,43.979 c 2.573,1.37 6.729,1.37 9.29,0 l 36.783,-19.52 c 2.573,-1.366 2.573,-3.568 0,-4.932 L 9.29,0 C 6.729,-1.372 2.573,-1.372 0,0" /></g></g></g></g><g
           id="g388"><g
             id="g390" /><g
             id="g402"><g
               style="opacity:0.60000598"
               id="g400"
               clip-path="url(#clipPath394)"><g
                 id="g398"
                 transform="translate(530.4082,424.0713)"><path

                   style="fill:#68436e;fill-opacity:1;fill-rule:nonzero;stroke:none"
                   d="m 0,0 -36.788,18.734 c -2.548,1.308 -2.548,3.423 0,4.735 L 0,42.191 c 2.573,1.305 6.737,1.305 9.298,0 L 46.073,23.469 c 2.574,-1.312 2.574,-3.427 0,-4.735 L 9.298,0 C 6.737,-1.311 2.573,-1.311 0,0" /></g></g></g></g><g
           id="g404"><g
             id="g406" /><g
             id="g418"><g
               style="opacity:0.60000598"
               id="g416"
               clip-path="url(#clipPath410)"><g
                 id="g414"
                 transform="translate(529.0889,418.1123)"><path

                   style="fill:#33767d;fill-opacity:1;fill-rule:nonzero;stroke:none"
                   d="m 0,0 -36.573,-17.834 c -2.633,-1.283 -4.747,0 -4.747,2.863 v 37.285 c 0.77,-0.166 1.487,-0.394 2.101,-0.695 L -1.646,3.307 C 0.176,2.416 0.725,1.132 0,0" /></g></g></g></g><g
           id="g420"><g
             id="g422" /><g
             id="g434"><g
               style="opacity:0.60000598"
               id="g432"
               clip-path="url(#clipPath426)"><g
                 id="g430"
                 transform="translate(532.8398,228.1934)"><path

                   style="fill:#5465a5;fill-opacity:1;fill-rule:nonzero;stroke:none"
                   d="m 0,0 -36.583,-17.841 c -2.624,-1.273 -4.738,0 -4.738,2.862 v 37.291 c 0.763,-0.165 1.48,-0.398 2.101,-0.7 L -1.654,3.304 C 0.167,2.412 0.725,1.123 0,0" /></g></g></g></g><g
           id="g436"><g
             id="g438" /><g
             id="g450"><g
               style="opacity:0.60000598"
               id="g448"
               clip-path="url(#clipPath442)"><g
                 id="g446"
                 transform="translate(629.5498,405.9277)"><path

                   style="fill:#8ca653;fill-opacity:1;fill-rule:nonzero;stroke:none"
                   d="m 0,0 -38.792,-19.183 c -2.781,-1.387 -5.019,0 -5.019,3.075 v 40.116 c 0.81,-0.171 1.565,-0.423 2.218,-0.744 L -1.746,3.557 C 0.188,2.597 0.771,1.215 0,0" /></g></g></g></g><g
           id="g452"><g
             id="g454" /><g
             id="g466"><g
               style="opacity:0.60000598"
               id="g464"
               clip-path="url(#clipPath458)"><g
                 id="g462"
                 transform="translate(629.5498,593.8481)"><path

                   style="fill:#33767d;fill-opacity:1;fill-rule:nonzero;stroke:none"
                   d="m 0,0 -38.792,-19.187 c -2.781,-1.389 -5.019,0 -5.019,3.075 v 40.115 c 0.81,-0.17 1.565,-0.422 2.218,-0.743 L -1.746,3.552 C 0.188,2.59 0.771,1.214 0,0" /></g></g></g></g><g
           id="g468"><g
             id="g470" /><g
             id="g482"><g
               style="opacity:0.60000598"
               id="g480"
               clip-path="url(#clipPath474)"><g
                 id="g478"
                 transform="translate(530.4082,612.2993)"><path

                   style="fill:#68436e;fill-opacity:1;fill-rule:nonzero;stroke:none"
                   d="m 0,0 -36.788,18.39 c -2.554,1.278 -2.554,3.36 0,4.643 L 0,41.42 c 2.566,1.289 6.731,1.289 9.291,0 L 46.073,23.033 c 2.574,-1.283 2.574,-3.365 0,-4.643 L 9.291,0 C 6.731,-1.285 2.566,-1.285 0,0" /></g></g></g></g><g
           id="g484"><g
             id="g486" /><g
             id="g498"><g
               style="opacity:0.60000598"
               id="g496"
               clip-path="url(#clipPath490)"><g
                 id="g494"
                 transform="translate(432.7676,440.3535)"><path
                   id="path492"
                   style="fill:#262262;fill-opacity:1;fill-rule:nonzero;stroke:none"
                   d="m 0,0 c 0,-2.785 -2.063,-4.041 -4.597,-2.796 l -37.099,18.248 c -2.535,1.252 -4.592,4.534 -4.592,7.326 v 47.486 c 0,2.803 2.057,4.052 4.592,2.803 L -4.597,54.811 C -2.063,53.564 0,50.289 0,47.488 Z" /></g></g></g></g><g
           id="g500"><g
             id="g502" /><g
             id="g514"><g
               style="opacity:0.60000598"
               id="g512"
               clip-path="url(#clipPath506)"><g
                 id="g510"
                 transform="translate(432.7676,377.3789)"><path
                   id="path508"
                   style="fill:#33767d;fill-opacity:1;fill-rule:nonzero;stroke:none"
                   d="m 0,0 c 0,-2.788 -2.068,-4.04 -4.604,-2.8 l -37.098,18.254 c -2.535,1.256 -4.592,4.527 -4.592,7.319 v 47.492 c 0,2.807 2.057,4.053 4.592,2.807 L -4.604,54.818 C -2.068,53.561 0,50.294 0,47.49 Z" /></g></g></g></g><g
           id="g516"><g
             id="g518" /><g
             id="g530"><g
               style="opacity:0.60000598"
               id="g528"
               clip-path="url(#clipPath522)"><g
                 id="g526"
                 transform="translate(483.1846,340.126)"><path
                   id="path524"
                   style="fill:#222f30;fill-opacity:1;fill-rule:nonzero;stroke:none"
                   d="m 0,0 c 0,-2.793 -2.063,-4.044 -4.597,-2.804 l -37.106,18.252 c -2.528,1.258 -4.59,4.532 -4.59,7.329 0,0 -1.048,2.026 1.087,4.161 L -3.82,49.57 C -1.164,51.257 0,50.291 0,47.492 Z" /></g></g></g></g><g
           id="g532"><g
             id="g534" /><g
             id="g546"><g
               style="opacity:0.60000598"
               id="g544"
               clip-path="url(#clipPath538)"><g
                 id="g542"
                 transform="translate(487.0244,150.9902)"><path
                   id="path540"
                   style="fill:#68436e;fill-opacity:1;fill-rule:nonzero;stroke:none"
                   d="m 0,0 c 0,-2.785 -2.068,-4.043 -4.603,-2.796 l -37.099,18.252 c -2.534,1.254 -4.591,4.53 -4.591,7.331 0,0 -1.054,2.024 1.087,4.156 L -3.827,49.579 C -1.163,51.265 0,50.296 0,47.497 Z" /></g></g></g></g><g
           id="g548"><g
             id="g550" /><g
             id="g562"><g
               style="opacity:0.60000598"
               id="g560"
               clip-path="url(#clipPath554)"><g
                 id="g558"
                 transform="translate(583.5283,327.7695)"><path
                   id="path556"
                   style="fill:#c49a6c;fill-opacity:1;fill-rule:nonzero;stroke:none"
                   d="m 0,0 c 0,-2.785 -2.063,-4.039 -4.597,-2.796 l -37.104,18.254 c -2.529,1.251 -4.586,4.528 -4.586,7.327 0,0 -1.313,3.027 0.814,5.161 L -3.821,49.58 C -1.165,51.269 0,50.293 0,47.494 Z" /></g></g></g></g><g
           id="g564"><g
             id="g566" /><g
             id="g578"><g
               style="opacity:0.60000598"
               id="g576"
               clip-path="url(#clipPath570)"><g
                 id="g574"
                 transform="translate(483.1846,527.7119)"><path
                   id="path572"
                   style="fill:#5465a5;fill-opacity:1;fill-rule:nonzero;stroke:none"
                   d="m 0,0 c 0,-2.794 -2.063,-4.043 -4.597,-2.802 l -37.106,18.253 c -2.528,1.255 -4.59,4.529 -4.59,7.327 v 47.487 c 0,2.798 2.062,4.048 4.59,2.798 L -4.597,54.811 C -2.063,53.559 0,50.287 0,47.489 Z" /></g></g></g></g><g
           id="g580"><g
             id="g582" /><g
             id="g594"><g
               style="opacity:0.60000598"
               id="g592"
               clip-path="url(#clipPath586)"><g
                 id="g590"
                 transform="translate(436.4834,187.3242)"><path
                   id="path588"
                   style="fill:#33767d;fill-opacity:1;fill-rule:nonzero;stroke:none"
                   d="M 0,0 C 0,-2.793 -2.061,-4.044 -4.596,-2.798 L -41.694,15.45 c -2.535,1.252 -4.598,4.537 -4.598,7.328 v 47.486 c 0,2.801 2.063,4.054 4.598,2.801 L -4.596,54.812 C -2.061,53.56 0,50.289 0,47.49 Z" /></g></g></g></g><g
           id="g596"><g
             id="g598" /><g
             id="g610"><g
               style="opacity:0.60000598"
               id="g608"
               clip-path="url(#clipPath602)"><g
                 id="g606"
                 transform="translate(480.877,586.3354)"><path
                   id="path604"
                   style="fill:#2b3990;fill-opacity:1;fill-rule:nonzero;stroke:none"
                   d="m 0,0 -36.794,18.748 c -2.554,1.293 -2.554,3.408 0,4.719 L 0,42.19 c 2.566,1.312 6.729,1.312 9.29,0 L 46.065,23.467 c 2.575,-1.311 2.575,-3.426 0,-4.719 L 9.29,0 C 6.729,-1.305 2.566,-1.305 0,0" /></g></g></g></g><g
           transform="translate(263.6543,474.1191)"
           id="g612"><path
             id="path614"
             style="fill:#f21d6b;fill-opacity:1;fill-rule:nonzero;stroke:none"
             d="m 0,0 v -48.093 c 0,-2.829 -1.9,-6.149 -4.48,-7.417 l -37.634,-18.489 c -0.332,-0.147 -0.675,-0.283 -0.983,-0.367 -0.634,-0.151 -1.222,-0.151 -1.735,0.011 -1.117,0.367 -1.811,1.503 -1.811,3.196 v 48.091 c 0,2.841 2.038,6.154 4.638,7.42 l 9.788,4.818 27.939,13.666 C -3.627,3.16 -3.006,3.32 -2.438,3.333 -0.943,3.244 0,2.027 0,0" /></g><g
           id="g616"><g
             id="g618" /><g
             id="g630"><g
               style="opacity:0.39999402"
               id="g628"
               clip-path="url(#clipPath622)"><g

                 transform="translate(309.7998,385.499)"><path
                   id="path624"
                   style="fill:#33767d;fill-opacity:1;fill-rule:nonzero;stroke:none"
                   d="m 0,0 -36.781,19.226 c -2.555,1.339 -2.555,3.507 0,4.847 L 0,43.3 c 2.573,1.338 6.738,1.338 9.292,0 L 46.073,24.073 c 2.573,-1.34 2.573,-3.508 0,-4.847 L 9.292,0 C 6.738,-1.336 2.573,-1.336 0,0" /></g></g></g></g></g></g></g></svg>
