<?xml version="1.0" encoding="UTF-8" standalone="no"?>
<svg
   xmlns:dc="http://purl.org/dc/elements/1.1/"
   xmlns:cc="http://creativecommons.org/ns#"
   xmlns:rdf="http://www.w3.org/1999/02/22-rdf-syntax-ns#"
   xmlns:svg="http://www.w3.org/2000/svg"
   xmlns="http://www.w3.org/2000/svg"
   xmlns:sodipodi="http://sodipodi.sourceforge.net/DTD/sodipodi-0.dtd"
   xmlns:inkscape="http://www.inkscape.org/namespaces/inkscape"
   inkscape:version="1.0beta1 (32d4812, 2019-09-19)"
   sodipodi:docname="Pin shade.svg"
   id="svg1021"
   version="1.1"
   viewBox="0 0 127.56 127.56"
   height="45mm"
   width="45mm">
  <metadata
     id="metadata1025">
    <rdf:RDF>
      <cc:Work
         rdf:about="">
        <dc:format>image/svg+xml</dc:format>
        <dc:type
           rdf:resource="http://purl.org/dc/dcmitype/StillImage" />
        <dc:title>fpj-brand-guideline</dc:title>
      </cc:Work>
    </rdf:RDF>
  </metadata>
  <sodipodi:namedview
     inkscape:current-layer="svg1021"
     inkscape:window-maximized="0"
     inkscape:window-y="441"
     inkscape:window-x="0"
     inkscape:cy="85.03937"
     inkscape:cx="80.435328"
     inkscape:zoom="5.33"
     showgrid="true"
     id="namedview1023"
     inkscape:window-height="1016"
     inkscape:window-width="1381"
     inkscape:pageshadow="2"
     inkscape:pageopacity="0"
     guidetolerance="10"
     gridtolerance="10"
     objecttolerance="10"
     borderopacity="1"
     inkscape:document-rotation="0"
     bordercolor="#666666"
     pagecolor="#ffffff">
    <inkscape:grid
       id="grid1603"
       type="xygrid" />
  </sodipodi:namedview>
  <defs
     id="defs1008">
    <style
       id="style992">.a058e74b-fd9d-47d8-9695-bc610de61886{fill:none;}.b12bb543-639b-4071-bc52-20d7faf2e83a{isolation:isolate;}.a3e93206-4924-4021-9527-be839b5117c1{fill:url(#e9327368-c5b3-4d4e-893e-0f5e995fdd2a);}.f5ff8b0c-ea84-4127-8193-7228e7a9b261{clip-path:url(#f2de002e-55b4-40cf-a23f-19195f602f4e);}.ed88c5cf-9aea-453c-a708-af8b58558943{fill:#fff;}.ea10a8a1-4e72-4c85-8975-8a2c4a4f9e2b{mix-blend-mode:multiply;}</style>
    <linearGradient
       gradientUnits="userSpaceOnUse"
       y2="46.57"
       x2="138.31"
       y1="80.99"
       x1="-10.75"
       id="e9327368-c5b3-4d4e-893e-0f5e995fdd2a">
      <stop
         id="stop994"
         stop-color="#d6b161"
         offset="0" />
      <stop
         id="stop996"
         stop-color="#d8b463"
         offset="0.03" />
      <stop
         id="stop998"
         stop-color="#e9c671"
         offset="0.34" />
      <stop
         id="stop1000"
         stop-color="#f3d179"
         offset="0.66" />
      <stop
         id="stop1002"
         stop-color="#f6d57c"
         offset="1" />
    </linearGradient>
    <clipPath
       id="f2de002e-55b4-40cf-a23f-19195f602f4e">
      <rect
         id="rect1005"
         height="127.56"
         width="127.56"
         class="a058e74b-fd9d-47d8-9695-bc610de61886" />
    </clipPath>
  </defs>
  <title
     id="title1010">fpj-brand-guideline</title>
  <g
     id="g1019"
     class="b12bb543-639b-4071-bc52-20d7faf2e83a">
    <g
       data-name="logo"
       id="a3ce8f01-5d9e-4942-bd12-01a4ad596037">
      <rect
         id="rect1012"
         height="127.56"
         width="127.56"
         class="a3e93206-4924-4021-9527-be839b5117c1" />
      <g
         id="g1016"
         clip-path="url(#f2de002e-55b4-40cf-a23f-19195f602f4e)"
         class="f5ff8b0c-ea84-4127-8193-7228e7a9b261">
        <path
           id="path1014"
           d="M131.29,26.4Q121.2,36,110.53,45.07A48.77,48.77,0,0,1,85.8,56.24c-4.7.67-8.26,1.29-11.4,1.86A329.25,329.25,0,0,0-14.21,87.44a.46.46,0,0,1-.61-.62c.57-1.12,1.17-2.23,1.78-3.33A14,14,0,0,1-7.8,78.16,527.91,527.91,0,0,1,127.62,23.32h0q2.52-.64,5.07-1.26A1.15,1.15,0,0,1,133.76,24ZM-19.18,96.19c-.13.31-.25.62-.38.92a.46.46,0,0,0,.59.6A205.55,205.55,0,0,1,35.25,84.92c4.16-.41,8.32-.68,12.45-.83.8,0,2.15-.06,3.68-.07a29.9,29.9,0,0,0,16.49-5.18Q79.81,70.74,91.27,62a1.16,1.16,0,0,0-.85-2.07A327.18,327.18,0,0,0-14.73,91.41,9.31,9.31,0,0,0-19.18,96.19ZM51.93,90a1.16,1.16,0,0,0-.6-2.14q-7.76.09-15.61.77A202.32,202.32,0,0,0-19.5,101.39a4.58,4.58,0,0,0-2.7,2.81c-.09.24-.17.48-.25.72a.47.47,0,0,0,.54.6,127.8,127.8,0,0,1,17.44-2.77c3.78-.34,7.53-.5,11.25-.5a127,127,0,0,1,15.18.92,18.28,18.28,0,0,0,11.14-2.12Q42.64,95.73,51.93,90Z"
           class="ed88c5cf-9aea-453c-a708-af8b58558943" />
      </g>
    </g>
  </g>
  <path
     inkscape:connector-curvature="0"
     id="path4604"
     style="font-style:normal;font-variant:normal;font-weight:normal;font-stretch:normal;font-size:16px;line-height:1.25;font-family:'Montserrat Alternates';-inkscape-font-specification:'Montserrat Alternates';letter-spacing:0px;word-spacing:0px;fill:#ffffff;fill-opacity:1;stroke:none;stroke-width:0.485932"
     d="m 44.038244,98.12844 q 0.769712,0 1.391704,0.357648 0.629771,0.357651 0.987419,0.987411 0.357647,0.621991 0.357647,1.383931 0,0.76194 -0.365427,1.39949 -0.365417,0.62977 -0.995188,0.99518 -0.629771,0.36543 -1.391704,0.36543 -0.761943,0 -1.391714,-0.36543 -0.621992,-0.36541 -0.987409,-0.99518 -0.357648,-0.62978 -0.357648,-1.38394 0,-0.75416 0.357648,-1.383931 0.365417,-0.62976 0.995188,-0.995191 0.629761,-0.365418 1.399484,-0.365418 z m -0.0155,5.20142 q 0.684198,0 1.243983,-0.32655 0.559795,-0.33432 0.886345,-0.89412 0.32654,-0.56757 0.32654,-1.25176 0,-0.68419 -0.318771,-1.236211 -0.31877,-0.55979 -0.878555,-0.87857 -0.552026,-0.326537 -1.243993,-0.326537 -0.691968,0 -1.259542,0.326537 -0.559786,0.32655 -0.886336,0.89413 -0.31877,0.559781 -0.31877,1.236201 0,0.67642 0.31877,1.24398 0.32655,0.5598 0.886336,0.88635 0.559805,0.32655 1.243993,0.32655 z m 1.391714,-2.98558 q 0,0.35765 -0.186609,0.61423 -0.178819,0.24879 -0.513138,0.36541 l 0.730835,1.11959 h -0.419843 l -0.676409,-1.04961 q -0.0622,0.008 -0.178828,0.008 h -0.80859 v 1.04184 h -0.404295 v -3.141061 h 1.212885 q 0.575344,0 0.909663,0.2799 0.33433,0.27989 0.33433,0.761931 z m -1.267322,0.7153 q 0.412075,0 0.637551,-0.1866 0.233245,-0.1866 0.233245,-0.5287 0,-0.33431 -0.233245,-0.513131 -0.225476,-0.1866 -0.637551,-0.1866 h -0.793041 v 1.415031 z" />
</svg>
