<svg xmlns="http://www.w3.org/2000/svg" width="200" height="200" viewBox="0 0 200 200"><defs><style>.a{fill:#cd0d00;}.b{fill:#fff;}</style></defs><g transform="translate(-11219 -9910)"><path class="a" d="M100,0A100,100,0,1,1,0,100,100,100,0,0,1,100,0Z" transform="translate(11219 9910)"/><g transform="translate(11198.003 9979.6)"><path class="b" d="M126.5,3c1.1.2,2.2.4,3.1.6,1.4.4,2.9,1,4.3,1.4.2.1.5.4.5.6V13c-.5-.2-.8-.4-1.3-.6a20.623,20.623,0,0,0-11.5-1.8c-3,.4-4.5,2.1-4.6,5.1a29.084,29.084,0,0,0,.1,3,3.674,3.674,0,0,0,2.5,3,9.716,9.716,0,0,0,6.3.1c.7-.2.7-.2.6-1.2h-2.7v-6h11.3V25.4a1.274,1.274,0,0,1-.5,1.1A20.144,20.144,0,0,1,122,29.6a16.49,16.49,0,0,1-8.8-2.9A12.456,12.456,0,0,1,108,14.3c.6-4.9,3.5-8.2,8.1-10.1A37.422,37.422,0,0,1,120.9,3c.1,0,.2-.1.4-.1C123.3,3,124.9,3,126.5,3Z"/><path class="b" d="M163.6,29.6h-8.9V20.7h-8.1v8.9h-9.1V3.4h8.9v8.8h8.2V3.4h8.9C163.6,12.1,163.6,20.9,163.6,29.6Z"/><path class="b" d="M113.3,33.2h8.3V57.7c-1.7,0-3.4-.1-4.9,0A3.915,3.915,0,0,1,113,56c-2.7-3.3-5.6-6.4-8.4-9.8V57.5H96.3V33h6.9a1.173,1.173,0,0,1,1.1.5c2.7,3.3,5.4,6.6,8.2,9.9a7.006,7.006,0,0,0,.8,1Z"/><path class="b" d="M166.4,46.5a28.619,28.619,0,0,1,2.2,3c1.3,2.5,2.4,5.1,3.6,7.6.1.1.1.4.2.6h-9.5c-1-2.2-1.9-4.2-2.9-6.4a2.355,2.355,0,0,0-.5-1c-.8-1.8-1.4-2.1-3.5-1.8v9.2h-8.1V33.3h13.2a10.364,10.364,0,0,1,4.7.8c3.9,1.9,5.6,7.7,1.7,11.2C167.1,45.7,166.8,46.1,166.4,46.5ZM156.2,43c1.4-.1,2.8-.1,4.1-.2,1-.1,1.3-.8,1.2-1.9a1.312,1.312,0,0,0-1.4-1.4c-1.2-.1-2.5,0-3.9,0v.4C156.2,40.7,156.2,41.6,156.2,43Z"/><path class="b" d="M76,57.6V33.2H94v6.4H84.5v2.7h8.9v6.5H84.5v2.3h9.8v6.4C88.2,57.6,82.2,57.6,76,57.6Z"/><path class="b" d="M190.9,48.9H182v2.3h9.8v6.4H173.6V33.2h18v6.4h-9.5v2.7H191C190.9,44.5,190.9,46.7,190.9,48.9Z"/><path class="b" d="M173.4,29.6V11.3h-7.8V3.5h25.6v7.8h-7.7V29.6Z"/><path class="b" d="M52.9,3.4H71.1V11H62.2v2.5h8.9v7.6H62v8.4H52.7C52.9,20.9,52.9,12.2,52.9,3.4Z"/><path class="b" d="M73.9,43.1C70.8,39.6,67,39.5,63,40.4a6.356,6.356,0,0,0-3.5,2.5,3.618,3.618,0,0,0,.1,4.6,7.388,7.388,0,0,0,5.8,3.1,10.7,10.7,0,0,0,8.2-3.1A2.736,2.736,0,0,0,74,47a3.548,3.548,0,0,0,.1.7v7.1c0,.2-.1.6-.4.7-5.2,2.7-10.5,3.3-15.9,1.1A11.737,11.737,0,0,1,50.2,45a12.326,12.326,0,0,1,8.2-11.2,18.471,18.471,0,0,1,14.4.5,1.575,1.575,0,0,1,1.1,1.8C73.9,38.5,73.9,40.7,73.9,43.1Z"/><path class="b" d="M139.5,57.7h-9.4V40.6h-7.4V33.2h24v7.4h-7.2C139.5,46.2,139.5,52,139.5,57.7Z"/><path class="b" d="M83.4,21.8H94.3v7.7H74.1V3.3h9.3C83.4,9.5,83.4,15.7,83.4,21.8Z"/><path class="b" d="M97,29.6V3.4h9.4V29.6Z"/></g></g></svg>