<?xml version="1.0" encoding="utf-8"?>
<!-- Generator: Adobe Illustrator 21.0.2, SVG Export Plug-In . SVG Version: 6.00 Build 0)  -->
<svg version="1.1" id="Layer_1" xmlns="http://www.w3.org/2000/svg" xmlns:xlink="http://www.w3.org/1999/xlink" x="0px" y="0px"
	 viewBox="0 0 445 133" style="enable-background:new 0 0 445 133;" xml:space="preserve">
<style type="text/css">
	.st0{fill:#F7BA3C;}
	.st1{fill:#4D7F61;}
</style>
<g>
	<path class="st0" d="M121.3,96.8V43.5h34.3v4.3h-29.3V67h26.6v4.3h-26.6v25.5H121.3z"/>
	<path class="st0" d="M166.9,96.8h-4.4V58.5h4.4v7.2h0.1c1.2-3.1,2.8-5.2,4.8-6.4c1.9-1.2,4.5-1.8,7.7-1.8v4.8
		c-2.5,0-4.6,0.3-6.2,1.2c-1.6,0.8-2.9,2-3.9,3.4c-1,1.4-1.6,3.1-2,5.1c-0.4,1.9-0.6,4-0.6,6.1V96.8z"/>
	<path class="st0" d="M202.1,97.8c-2.5,0-4.8-0.5-6.9-1.3s-4-2.1-5.6-3.8c-1.6-1.7-2.9-3.8-3.8-6.3c-0.9-2.5-1.4-5.5-1.4-8.8
		c0-2.8,0.4-5.4,1.1-7.9c0.7-2.4,1.9-4.6,3.3-6.4c1.5-1.8,3.3-3.3,5.5-4.3c2.2-1.1,4.8-1.6,7.8-1.6c3,0,5.6,0.5,7.8,1.6
		s4.1,2.5,5.5,4.3c1.5,1.8,2.6,3.9,3.3,6.4c0.7,2.5,1.1,5.1,1.1,7.9c0,3.1-0.4,5.8-1.3,8.3c-0.8,2.5-2,4.6-3.6,6.4
		c-1.6,1.8-3.4,3.1-5.6,4.1C207.2,97.4,204.8,97.8,202.1,97.8z M215.2,77.6c0-2.3-0.2-4.4-0.7-6.4c-0.5-2-1.3-3.7-2.3-5.1
		s-2.4-2.6-4-3.4c-1.6-0.8-3.6-1.3-6-1.3c-2.3,0-4.3,0.5-6,1.4c-1.7,0.9-3,2.1-4,3.6s-1.8,3.2-2.3,5.2c-0.5,1.9-0.7,4-0.7,6
		c0,2.4,0.3,4.6,0.9,6.5c0.6,2,1.4,3.7,2.5,5.1c1.1,1.4,2.4,2.5,4.1,3.3c1.6,0.8,3.5,1.2,5.6,1.2c2.3,0,4.3-0.5,6-1.4
		c1.7-0.9,3-2.1,4-3.7c1-1.5,1.8-3.3,2.3-5.2C214.9,81.7,215.2,79.7,215.2,77.6z"/>
	<path class="st0" d="M243.3,97.8c-2.5,0-4.8-0.5-6.9-1.3s-4-2.1-5.6-3.8c-1.6-1.7-2.9-3.8-3.8-6.3c-0.9-2.5-1.4-5.5-1.4-8.8
		c0-2.8,0.4-5.4,1.1-7.9c0.7-2.4,1.9-4.6,3.3-6.4c1.5-1.8,3.3-3.3,5.5-4.3c2.2-1.1,4.8-1.6,7.8-1.6c3,0,5.6,0.5,7.8,1.6
		s4.1,2.5,5.5,4.3c1.5,1.8,2.6,3.9,3.3,6.4c0.7,2.5,1.1,5.1,1.1,7.9c0,3.1-0.4,5.8-1.3,8.3c-0.8,2.5-2,4.6-3.6,6.4
		c-1.6,1.8-3.4,3.1-5.6,4.1C248.4,97.4,245.9,97.8,243.3,97.8z M256.3,77.6c0-2.3-0.2-4.4-0.7-6.4c-0.5-2-1.3-3.7-2.3-5.1
		s-2.4-2.6-4-3.4c-1.6-0.8-3.6-1.3-6-1.3c-2.3,0-4.3,0.5-6,1.4c-1.7,0.9-3,2.1-4,3.6s-1.8,3.2-2.3,5.2c-0.5,1.9-0.7,4-0.7,6
		c0,2.4,0.3,4.6,0.9,6.5c0.6,2,1.4,3.7,2.5,5.1c1.1,1.4,2.4,2.5,4.1,3.3c1.6,0.8,3.5,1.2,5.6,1.2c2.3,0,4.3-0.5,6-1.4
		c1.7-0.9,3-2.1,4-3.7c1-1.5,1.8-3.3,2.3-5.2C256.1,81.7,256.3,79.7,256.3,77.6z"/>
	<path class="st0" d="M282.6,96.9c-0.5,0.1-1.3,0.3-2.1,0.5c-0.9,0.2-1.9,0.4-3,0.4c-2.2,0-3.9-0.6-5.1-1.7c-1.2-1.1-1.7-3.1-1.7-6
		v-28h-5.4v-3.7h5.4V47.8h4.4v10.7h7.2v3.7h-7.2v26.3c0,0.9,0,1.8,0.1,2.4c0,0.7,0.2,1.3,0.4,1.7c0.2,0.4,0.6,0.8,1.1,1
		c0.5,0.2,1.2,0.3,2.2,0.3c0.6,0,1.2,0,1.8-0.1c0.6-0.1,1.2-0.2,1.8-0.4V96.9z"/>
	<path class="st0" d="M294.3,43.7l15.2,45.2l15.1-45.2h8.1l-19.4,53.1h-7.6l-19.3-53.1H294.3z"/>
	<path class="st0" d="M340.1,43.7h23.8c4.7,0,8.5,1.3,11.4,4c2.9,2.7,4.3,6.4,4.3,11.2c0,4.1-1.3,7.8-3.9,10.8
		c-2.6,3.1-6.5,4.6-11.8,4.6h-16.6v22.4h-7.2V43.7z M368,51c-1.6-0.7-3.7-1.1-6.5-1.1h-14.2v18.4h14.2c3.2,0,5.8-0.7,7.8-2.1
		s3-3.8,3-7.3C372.3,55.1,370.9,52.4,368,51z"/>
	<path class="st0" d="M388.8,43.7h8.5l26.5,42.9V43.7h6.9v53.1h-8.1L395.6,54v42.8h-6.9V43.7z"/>
</g>
<g>
	<g>
		<path class="st1" d="M13.5,28.3v28.5c0,27.3,21.8,47.1,39.2,61.2V14C47.7,23.3,32.7,28.3,13.5,28.3z"/>
	</g>
</g>
<g>
	<g>
		<path class="st0" d="M59.8,14v104C77.2,103.9,99,84.1,99,56.8V28.3C79.8,28.3,64.8,23.3,59.8,14z"/>
	</g>
</g>
</svg>
