<?xml version="1.0" encoding="utf-8"?>
<!-- Generator: Adobe Illustrator 21.0.0, SVG Export Plug-In . SVG Version: 6.00 Build 0)  -->
<svg version="1.1" xmlns="http://www.w3.org/2000/svg" xmlns:xlink="http://www.w3.org/1999/xlink" x="0px" y="0px"
	 viewBox="0 0 100 100" style="enable-background:new 0 0 100 100;" xml:space="preserve">
<style type="text/css">
	.st0{fill-rule:evenodd;clip-rule:evenodd;fill:#11AAAA;}
	.st1{fill:#FFFFFF;}
</style>
<g id="Layer_2">
	<g>
		<g>
			<circle class="st0" cx="50" cy="50" r="50"/>
		</g>
	</g>
</g>
<g id="Layer_3">
	<g id="Layer_4">
		<path class="st1" d="M42.6,18.4c1.9-1.9,4.4-2.9,7.1-2.9c2.7,0,5.2,1,7.1,2.9c1.9,1.9,2.9,4.4,2.9,7.1c0,2.7-1,5.2-2.9,7.1
			c-1.9,1.9-4.4,2.9-7.1,2.9c-2.7,0-5.2-1-7.1-2.9c-1.9-1.9-2.9-4.4-2.9-7.1C39.7,22.8,40.7,20.3,42.6,18.4L42.6,18.4z M47.6,27.5
			c0.6,0.6,1.3,0.9,2.1,0.9c0.8,0,1.5-0.3,2.1-0.9c0.6-0.6,0.9-1.3,0.9-2.1c0-0.8-0.3-1.5-0.9-2.1c-0.6-0.6-1.3-0.9-2.1-0.9
			c-0.8,0-1.5,0.3-2.1,0.9c-0.6,0.6-0.9,1.3-0.9,2.1C46.7,26.2,47,27,47.6,27.5L47.6,27.5z M63.5,32.5c1.4-1.9,4.1-2.4,6-1
			c1.9,1.4,2.4,4.1,1,6c-2.5,3.6-5.5,6.3-8.9,8.2c-1.9,1.3-4.1,2.4-6.4,3.7c-2,1.1-4.1,2.2-6,3.4c-4.5,2.8-7.1,5.4-8.1,8.2
			c-1.4,3.7-0.8,6.7,0,8.6c1,2.5,2.8,4.6,5.2,5.8c2.3,1.2,5.6,1.1,8.5-0.2c2.7-1.2,4.5-3.2,4.7-5.2c0.2-2.1-0.7-3.2-1.6-3.6
			c-1.1-0.5-2.3,0-3.3,1.3c-1.5,1.9-4.2,2.2-6.1,0.7c-1.9-1.5-2.2-4.2-0.7-6.1c3.5-4.5,8.9-6,13.7-3.9c4.6,2.1,7.2,6.9,6.7,12.4
			c-0.5,5.2-4.1,9.8-9.7,12.3c-5.3,2.4-11.3,2.4-16,0c-4.2-2.2-7.5-5.8-9.3-10.3c-1.9-4.7-1.9-10-0.1-14.8c1.7-4.7,5.4-8.1,8.8-10.5
			c-0.8-0.3-1.6-0.6-2.4-1c-4-1.8-7.4-4.8-10.3-8.8c-1.4-1.9-0.9-4.6,1-6c1.9-1.4,4.6-0.9,6,1c2,2.8,4.2,4.8,6.9,6
			c2,0.9,4.2,1.4,6.8,1.5c2.6-0.1,4.8-0.6,6.8-1.5c0.2-0.1,0.4-0.2,0.6-0.3c0.2-0.1,0.4-0.2,0.6-0.3C59.9,36.7,61.8,34.9,63.5,32.5
			L63.5,32.5z"/>
	</g>
</g>
</svg>
