<svg id="Layer_1" data-name="Layer 1" xmlns="http://www.w3.org/2000/svg" xmlns:xlink="http://www.w3.org/1999/xlink" viewBox="0 0 484 307"><defs><style>.cls-1{fill:none;}.cls-2{fill:#17388d;}.cls-3{fill:#4f6ef7;}.cls-4{clip-path:url(#clip-path);}.cls-5{fill:#0c204e;stroke:#0c204e;stroke-miterlimit:10;stroke-width:2.89px;}</style><clipPath id="clip-path"><rect class="cls-1" x="239.85" width="219.66" height="219.66"/></clipPath></defs><title>geometric1</title><polygon class="cls-2" points="0 49.12 483.57 49.12 483.88 275.39 0 49.12"/><polyline class="cls-3" points="205.77 177.13 483.31 178.22 483.5 307"/><g class="cls-4"><line class="cls-5" x1="239.85" x2="459.51" y2="220.62"/><line class="cls-5" x1="200.36" y1="41.43" x2="420.01" y2="262.05"/><line class="cls-5" x1="210.95" y1="36.61" x2="430.61" y2="257.23"/><line class="cls-5" x1="223.48" y1="32.76" x2="443.13" y2="253.38"/><line class="cls-5" x1="230.22" y1="23.12" x2="449.88" y2="243.74"/><line class="cls-5" x1="234.07" y1="10.6" x2="453.73" y2="231.22"/><line class="cls-5" x1="206.14" y1="64.55" x2="425.79" y2="285.17"/><line class="cls-5" x1="180.12" y1="105.01" x2="399.78" y2="325.63"/><line class="cls-5" x1="177.23" y1="85.74" x2="396.89" y2="306.36"/><line class="cls-5" x1="200.36" y1="92.49" x2="420.01" y2="313.11"/><line class="cls-5" x1="208.06" y1="82.85" x2="427.72" y2="303.47"/><line class="cls-5" x1="155.08" y1="96.34" x2="374.73" y2="316.96"/><line class="cls-5" x1="164.71" y1="123.32" x2="384.37" y2="343.94"/><line class="cls-5" x1="155.08" y1="130.06" x2="374.73" y2="350.68"/><line class="cls-5" x1="287.06" y1="-1.93" x2="506.72" y2="218.69"/><line class="cls-5" x1="251.42" y1="-3.85" x2="471.07" y2="216.77"/><line class="cls-5" x1="297.66" y1="-44.32" x2="517.32" y2="176.3"/><line class="cls-5" x1="297.66" y1="-26.98" x2="517.32" y2="193.64"/><line class="cls-5" x1="304.4" y1="-2.89" x2="524.06" y2="217.73"/><line class="cls-5" x1="260.09" y1="-11.56" x2="479.74" y2="209.06"/><line class="cls-5" x1="307.29" y1="-52.99" x2="526.95" y2="167.63"/><line class="cls-5" x1="310.18" y1="-68.4" x2="529.84" y2="152.22"/><line class="cls-5" x1="329.45" y1="-66.47" x2="549.11" y2="154.14"/><line class="cls-5" x1="369.91" y1="-73.22" x2="589.57" y2="147.4"/><line class="cls-5" x1="349.68" y1="-77.07" x2="569.34" y2="143.55"/><line class="cls-5" x1="335.23" y1="-77.07" x2="554.89" y2="143.55"/></g></svg>