<svg xmlns="http://www.w3.org/2000/svg" viewBox="0 0 81.51 81"><defs><style>.cls-1{fill:#1a3b8b;}.cls-2{fill:#0c204e;}.cls-3{fill:#badefc;}.cls-4{fill:#4f6ef7;}.cls-5{fill:#efd358;}.cls-6{fill:#fff;}</style></defs><title>Asset 2@100x</title><g id="Layer_2" data-name="Layer 2"><g id="Layer_1-2" data-name="Layer 1"><circle class="cls-1" cx="41.01" cy="40.5" r="40.5"/><path class="cls-2" d="M40.5,81a40.5,40.5,0,0,1,0-81h0l0,81Z"/><circle class="cls-3" cx="40.51" cy="40.74" r="27.37"/><path class="cls-4" d="M40.51,12A28.74,28.74,0,1,0,69.25,40.74,28.77,28.77,0,0,0,40.51,12ZM14.58,42.11H25.5a51.51,51.51,0,0,0,1.38,10.94H17.62A25.89,25.89,0,0,1,14.58,42.11Zm27.3-16.43V14.92c3.49.86,6.59,5,8.59,10.76Zm9.43,2.74A49.42,49.42,0,0,1,52.8,39.37H41.88V28.42ZM39.15,14.92V25.68H30.56C32.56,19.87,35.65,15.78,39.15,14.92Zm0,13.5V39.37H28.23a48.27,48.27,0,0,1,1.49-10.95ZM25.5,39.37H14.58a26,26,0,0,1,3-10.95h9.26A51.52,51.52,0,0,0,25.5,39.37Zm2.73,2.74H39.15V53.05H29.72A48.18,48.18,0,0,1,28.23,42.11ZM39.15,55.79V66.56c-3.5-.86-6.59-5-8.59-10.77Zm2.73,10.77V55.79h8.59C48.47,61.61,45.37,65.7,41.88,66.56Zm0-13.51V42.11H52.8a49.32,49.32,0,0,1-1.49,10.94ZM55.53,42.11H66.45A25.76,25.76,0,0,1,63.4,53.05H54.15A51.51,51.51,0,0,0,55.53,42.11Zm0-2.74a51.52,51.52,0,0,0-1.38-10.95H63.4a25.84,25.84,0,0,1,3.05,10.95Zm6.14-13.69H53.38a26.5,26.5,0,0,0-5.23-9.79A26.1,26.1,0,0,1,61.67,25.68ZM32.88,15.89a26.51,26.51,0,0,0-5.24,9.79H19.35A26.12,26.12,0,0,1,32.88,15.89ZM19.35,55.79h8.29a26.56,26.56,0,0,0,5.24,9.8A26.09,26.09,0,0,1,19.35,55.79Zm28.8,9.8a26.55,26.55,0,0,0,5.23-9.8h8.29A26.06,26.06,0,0,1,48.15,65.59Z"/><circle class="cls-5" cx="29.57" cy="29.79" r="4.11"/><path class="cls-6" d="M29.57,35.26A5.47,5.47,0,1,1,35,29.79,5.48,5.48,0,0,1,29.57,35.26Zm0-8.21a2.74,2.74,0,1,0,2.73,2.74A2.74,2.74,0,0,0,29.57,27.05Z"/><circle class="cls-5" cx="52.83" cy="39.37" r="4.11"/><path class="cls-6" d="M52.83,44.84a5.47,5.47,0,1,1,5.47-5.47A5.47,5.47,0,0,1,52.83,44.84Zm0-8.21a2.74,2.74,0,1,0,2.74,2.74A2.74,2.74,0,0,0,52.83,36.63Z"/><circle class="cls-5" cx="40.51" cy="54.42" r="4.11"/><path class="cls-6" d="M40.51,59.9A5.48,5.48,0,1,1,46,54.42,5.48,5.48,0,0,1,40.51,59.9Zm0-8.21a2.74,2.74,0,1,0,2.74,2.73A2.73,2.73,0,0,0,40.51,51.69Z"/></g></g></svg>