<svg xmlns="http://www.w3.org/2000/svg" width="41.354" height="49.23" viewBox="0 0 41.354 49.23"><defs><style>.a{fill:#2d3d7d;}</style></defs><path class="a" d="M56.32,7.68A11.219,11.219,0,0,1,67.545,18.905,11.348,11.348,0,0,1,56.32,30.129a11.224,11.224,0,1,1,0-22.449Zm0-5.71A17.132,17.132,0,1,0,73.452,19.1,17.144,17.144,0,0,0,56.32,1.97Zm-4.726,19.1a1.181,1.181,0,1,1,0-2.362h3.741l5.514-5.317a1.114,1.114,0,0,1,1.576,1.575l-6.1,5.908-4.726.2ZM64.788,43.52H47.852a5.715,5.715,0,0,0-5.71,5.71H70.695A6.021,6.021,0,0,0,64.788,43.52Zm11.027-6.695-2.757-2.757a10.927,10.927,0,0,0,1.182-1.576c.2-.394.59-.59.788-.984a1.149,1.149,0,1,0-1.97-1.182c-.2.394-.393.59-.59.985a19.963,19.963,0,0,1-15.951,8.074A20.171,20.171,0,0,1,36.431,19.3a19.684,19.684,0,0,1,8.074-15.95,4.3,4.3,0,0,1,.984-.591,1.235,1.235,0,0,0,.394-1.576A1.235,1.235,0,0,0,44.308.788a3.453,3.453,0,0,0-.985.787c-.59.394-.985.788-1.575,1.182L38.99,0,37.414,1.575l2.757,2.757A21.845,21.845,0,0,0,34.461,19.3,22.439,22.439,0,0,0,56.91,41.748a21.5,21.5,0,0,0,14.966-5.711l2.757,2.757,1.181-1.97Z" transform="translate(-34.461)"/></svg>