<svg xmlns="http://www.w3.org/2000/svg" viewBox="0 0 255.37 114.9"><defs><style>.cls-1,.cls-2{fill:#d3ab67;}.cls-2{font-size:13px;stroke:#d3ab67;stroke-miterlimit:10;font-family:Helvetica-Bold, Helvetica;font-weight:700;letter-spacing:0.1em;}.cls-3{letter-spacing:0.07em;}</style></defs><g id="Laag_2" data-name="Laag 2"><g id="Laag_1-2" data-name="Laag 1"><rect class="cls-1" x="0.5" y="0.6" width="108.19" height="6.76" rx="3.38"/><path class="cls-1" d="M105.31,7.87H3.88A3.89,3.89,0,0,1,3.88.1H105.31a3.89,3.89,0,0,1,0,7.77ZM3.88,1.1a2.89,2.89,0,0,0,0,5.77H105.31a2.89,2.89,0,0,0,0-5.77Z" transform="translate(0 0)"/><path class="cls-1" d="M227.83,87.8q-93.36,0-186.7,0c-2.66,0-4.12-1.37-4-3.78a3.3,3.3,0,0,1,3.2-3.24c.4,0,.8,0,1.2,0q93.06,0,186.1,0C232.79,80.56,233.23,87.8,227.83,87.8Z" transform="translate(0 0)"/><path class="cls-1" d="M227.83,88.3h0q-80.18,0-160.35,0H41.13A4.76,4.76,0,0,1,37.62,87a4.07,4.07,0,0,1-1-3.06,3.82,3.82,0,0,1,3.68-3.72H67.83q79.89,0,159.78,0a4.35,4.35,0,0,1,4,2,4.13,4.13,0,0,1,.1,4.08A4.2,4.2,0,0,1,227.83,88.3ZM84,87.27q71.91,0,143.81,0a3.22,3.22,0,0,0,3-1.5,3.07,3.07,0,0,0-.08-3.06,3.29,3.29,0,0,0-3.11-1.52q-79.92,0-159.8,0H40.34A2.8,2.8,0,0,0,37.61,84a3.09,3.09,0,0,0,.73,2.33,3.8,3.8,0,0,0,2.79.93H84Z" transform="translate(0 0)"/><path class="cls-1" d="M68.54,39.61c0-5,.09-10.08,0-15.11A3.74,3.74,0,0,1,72,20.65a3.54,3.54,0,0,1,3.52,3.86q0,14.68,0,29.37a6.36,6.36,0,0,0,5.15,6.46,6.46,6.46,0,0,0,7.12-3.82A6.12,6.12,0,0,0,88.28,54q0-14.69,0-29.37c0-2.56,1.68-4.15,4.07-3.88,1.82.21,3,1.75,3.05,4,0,2.91,0,5.83,0,8.75q0,10,0,20a13.6,13.6,0,0,1-5.09,11.14A13.37,13.37,0,0,1,68.8,56.73a37.75,37.75,0,0,1-.25-7C68.52,46.32,68.54,43,68.54,39.61Z" transform="translate(0 0)"/><path class="cls-1" d="M82.16,68.11a14.68,14.68,0,0,1-5.1-1,13.32,13.32,0,0,1-8.75-10.32A23.59,23.59,0,0,1,68,51.61c0-.64,0-1.29,0-1.93,0-2.35,0-4.71,0-7.06v-3c0-1.45,0-2.9,0-4.35,0-3.53,0-7.17-.06-10.75a4.38,4.38,0,0,1,1.32-3.2,3.82,3.82,0,0,1,2.74-1.16,4,4,0,0,1,4,4.36V53.88a5.86,5.86,0,0,0,4.75,6,5.92,5.92,0,0,0,6.56-3.54A5.66,5.66,0,0,0,87.78,54q0-14.69,0-29.37a4.52,4.52,0,0,1,1.38-3.44,4.07,4.07,0,0,1,3.24-.93c2.11.24,3.49,2,3.5,4.44q0,3.08,0,6.15v8.61c0,4.68,0,9.35,0,14A14.14,14.14,0,0,1,90.63,65,13.27,13.27,0,0,1,82.16,68.11Zm-10.22-47A2.8,2.8,0,0,0,70,22a3.38,3.38,0,0,0-1,2.47c.1,3.59.08,7.24.06,10.77,0,1.45,0,2.9,0,4.35v3q0,3.52,0,7.05c0,.65,0,1.31,0,2a23.28,23.28,0,0,0,.26,5A12.87,12.87,0,0,0,90,64.18a13.16,13.16,0,0,0,4.91-10.75c0-4.67,0-9.34,0-14V30.8c0-2.05,0-4.09,0-6.14s-1-3.28-2.61-3.46a3.1,3.1,0,0,0-2.47.69,3.52,3.52,0,0,0-1,2.69q0,14.69,0,29.37a6.55,6.55,0,0,1-.5,2.77,6.9,6.9,0,0,1-7.67,4.11,6.83,6.83,0,0,1-5.55-6.95V24.51a3,3,0,0,0-3-3.36Z" transform="translate(0 0)"/><path class="cls-1" d="M35.41,44.16c0-3.52-.06-7,0-10.55.14-6.52,5.52-12.32,11.64-12.89A13.51,13.51,0,0,1,62,31.51a14.87,14.87,0,0,1,.26,2.74q0,9.89,0,19.78A13.64,13.64,0,0,1,48.58,67.62c-7.08,0-13-6.11-13.17-13.18-.09-3.43,0-6.85,0-10.28Zm19.78,0c0-3.4,0-6.79,0-10.19a6.29,6.29,0,0,0-2.8-5.13,6.43,6.43,0,0,0-3.5-1.14,6.37,6.37,0,0,0-6.4,6q-.12,10.36,0,20.73a6.36,6.36,0,0,0,12.71-.23c0-3.35,0-6.71,0-10.06Z" transform="translate(0 0)"/><path class="cls-1" d="M48.54,68.12c-7.2,0-13.44-6.25-13.63-13.67-.06-2.33,0-4.7,0-7,0-1.09,0-2.19,0-3.29v-.5c0-.92,0-1.85,0-2.77,0-2.39,0-4.86,0-7.29.14-6.66,5.68-12.78,12.09-13.38a14,14,0,0,1,15.45,11.2,14.45,14.45,0,0,1,.27,2.83q0,9.89,0,19.78A14.23,14.23,0,0,1,48.58,68.12ZM35.9,44.66c0,.93,0,1.87,0,2.8,0,2.29,0,4.65,0,7,.18,6.88,6,12.69,12.63,12.69h0A13.06,13.06,0,0,0,61.75,54q0-9.9,0-19.78a14.16,14.16,0,0,0-.25-2.64A13,13,0,0,0,47.12,21.22c-5.93.55-11.06,6.23-11.19,12.4-.06,2.42,0,4.88,0,7.26,0,1.09,0,2.19,0,3.28ZM48.8,61.09a6.88,6.88,0,0,1-4.78-2A6.58,6.58,0,0,1,42,54.43c-.06-6.85-.06-13.83,0-20.73a6.6,6.6,0,0,1,2.88-5.24,6.78,6.78,0,0,1,4-1.28,7,7,0,0,1,3.77,1.23,6.78,6.78,0,0,1,3,5.54V54.2a6.93,6.93,0,0,1-6.8,6.89Zm0-32.92a5.75,5.75,0,0,0-3.3,1.1A5.62,5.62,0,0,0,43,33.71c-.08,6.89-.08,13.86,0,20.71a5.64,5.64,0,0,0,1.75,4,5.78,5.78,0,0,0,4.15,1.71,6,6,0,0,0,5.81-5.89V43.64h0V34a5.77,5.77,0,0,0-2.58-4.72,6,6,0,0,0-3.23-1.05Z" transform="translate(0 0)"/><path class="cls-1" d="M18.62,20.76a14.13,14.13,0,0,1,1.91.45,16.2,16.2,0,0,1,7.6,5,13.09,13.09,0,0,1,2.19,7.69q0,20.37,0,40.75A13.35,13.35,0,0,1,5.23,80.77a3.65,3.65,0,0,1,1.26-4.93,3.5,3.5,0,0,1,4.84,1.4c2.33,3.64,6.37,4.5,9.54,2a5.8,5.8,0,0,0,2.41-4.5c.08-2.79,0-5.59,0-8.55A21.28,21.28,0,0,1,19,67.6C11.39,68.88,3.82,63,3.63,55.28c-.18-7.22-.13-14.46,0-21.69C3.77,24,13.7,21.09,13.7,21.09c.37-.09.76-.17,1.18-.24s.62-.1.91-.14l1.14-.06A12.65,12.65,0,0,1,18.62,20.76Zm4.69,23.38V34a6.29,6.29,0,0,0-2.8-5.13A6.46,6.46,0,0,0,17,27.68a6.21,6.21,0,0,0-3.74,1.18,6.12,6.12,0,0,0-2.66,4.84q-.12,10.36,0,20.73a6.35,6.35,0,0,0,12.7-.23c0-3.35,0-6.71,0-10.06Z" transform="translate(0 0)"/><path class="cls-1" d="M17.11,88.22A14,14,0,0,1,4.79,81a4.18,4.18,0,0,1,1.44-5.6A4,4,0,0,1,11.75,77a6.61,6.61,0,0,0,4.36,3.13,5.59,5.59,0,0,0,4.45-1.24,5.27,5.27,0,0,0,2.22-4.12c0-1.94,0-3.86,0-5.89,0-.63,0-1.27,0-1.91a18.65,18.65,0,0,1-3.75,1.15A13.74,13.74,0,0,1,8,65a13.12,13.12,0,0,1-4.9-9.74c-.19-7.84-.11-15.72,0-21.71.16-9.85,10.34-12.94,10.44-13,.4-.09.8-.18,1.23-.26l.94-.14,1.17-.06a10.7,10.7,0,0,1,1.79.12h0a12,12,0,0,1,2,.47A16.51,16.51,0,0,1,28.53,26a13.72,13.72,0,0,1,2.29,8c0,14.86,0,28.19,0,40.76A13.93,13.93,0,0,1,20.36,87.83,13.88,13.88,0,0,1,17.11,88.22ZM8.22,75.85a3,3,0,0,0-1.48.42,3.14,3.14,0,0,0-1.07,4.26,13.08,13.08,0,0,0,14.45,6.33,12.9,12.9,0,0,0,9.69-12.17c0-12.57,0-25.9,0-40.75a12.45,12.45,0,0,0-2.1-7.4,15.86,15.86,0,0,0-7.35-4.85,11.49,11.49,0,0,0-1.82-.43h0a9.8,9.8,0,0,0-1.62-.11l-1.11.06c-.25,0-.55.07-.86.13s-.78.15-1.14.24-9.55,2.91-9.7,12c-.1,6-.18,13.84,0,21.67a12.11,12.11,0,0,0,4.53,9A12.75,12.75,0,0,0,18.88,67.1,20.38,20.38,0,0,0,23,65.78l.79-.31v.73c0,.9,0,1.77,0,2.64,0,2,0,4,0,5.92a6.31,6.31,0,0,1-2.6,4.88,6.61,6.61,0,0,1-5.24,1.44,7.55,7.55,0,0,1-5-3.57A3.24,3.24,0,0,0,8.22,75.85Zm8.7-14.76a6.88,6.88,0,0,1-4.79-2,6.57,6.57,0,0,1-2-4.66C10,47.58,10,40.6,10.11,33.7A6.59,6.59,0,0,1,13,28.46a6.8,6.8,0,0,1,4-1.28,6.94,6.94,0,0,1,3.77,1.23,6.77,6.77,0,0,1,3,5.54v7l0,3.68V47.2c0,2.33,0,4.67,0,7A6.93,6.93,0,0,1,17,61.09Zm-.06-32.92a5.78,5.78,0,0,0-3.3,1.1,5.59,5.59,0,0,0-2.45,4.44c-.08,6.89-.09,13.86,0,20.71a5.59,5.59,0,0,0,1.74,4A5.84,5.84,0,0,0,17,60.09a6,6,0,0,0,5.81-5.89c0-2.33,0-4.67,0-7V43.64h0V34a5.8,5.8,0,0,0-2.58-4.72A6,6,0,0,0,17,28.18Z" transform="translate(0 0)"/><path class="cls-1" d="M126.08.68c1.67.4,2.34,2.08,2.33,4.1,0,16.42-.13,32.83,0,49.25.06,6.4-5,12.81-12,13.47a13.43,13.43,0,0,1-14.65-11,9.39,9.39,0,0,1-.15-1.84q0-10.2,0-20.39c0-10.08,9.55-16.43,18.87-12.55.25.1.46.34.86.22V12.27c0-2.44.05-4.88,0-7.31,0-2,1.15-3.92,2.59-4.33l.08,0A5.23,5.23,0,0,1,126.08.68Zm-4.7,33.5c0-.16,0-.32,0-.48a6.34,6.34,0,0,0-6.43-6.1c-3.9.09-6,3.55-6.14,7.65-.15,5.31-.15,10.14.11,17.07.16,4.38,2.08,8.14,6.09,8.15a6.41,6.41,0,0,0,6.39-6.4c0-3.32,0-6.63,0-10Z" transform="translate(0 0)"/><path class="cls-1" d="M115.07,68.06a13.84,13.84,0,0,1-13.76-11.47,9.85,9.85,0,0,1-.16-1.94V34.26a13.84,13.84,0,0,1,19.56-13l.17.08V12.27c0-.74,0-1.48,0-2.21,0-1.67,0-3.4,0-5.09,0-2.21,1.24-4.33,3-4.82a4.79,4.79,0,0,1,2.37,0h0c1.76.43,2.73,2.06,2.72,4.59v3.4c-.05,15-.11,30.56,0,45.85A14.07,14.07,0,0,1,116.5,68,13.83,13.83,0,0,1,115.07,68.06Zm-.18-47a12.58,12.58,0,0,0-7,2.13,13,13,0,0,0-5.7,11.08V54.65a8.71,8.71,0,0,0,.14,1.75A12.91,12.91,0,0,0,116.41,67a13.23,13.23,0,0,0,11.52-13c-.14-15.28-.08-30.83,0-45.86V4.78c0-1.17-.24-3.2-1.94-3.61a4.38,4.38,0,0,0-1.73-.11l-.15.05c-1.25.36-2.27,2.12-2.23,3.84s0,3.44,0,5.11c0,.74,0,1.47,0,2.21v10l-.36.1a1.26,1.26,0,0,1-1.06-.17l-.13-.07A14.13,14.13,0,0,0,114.89,21.05ZM115,61h0c-3.87,0-6.4-3.32-6.59-8.63-.24-6.49-.27-11.29-.11-17.11.13-4.78,2.8-8,6.63-8.13h.15a6.88,6.88,0,0,1,6.79,6.58v.12c0,.12,0,.25,0,.38V47.06c0,2.34,0,4.67,0,7A6.93,6.93,0,0,1,115,61Zm.07-32.87h-.13c-4,.09-5.56,3.91-5.65,7.16-.16,5.8-.13,10.57.11,17C109.53,56,111.08,60,115,60h0a5.92,5.92,0,0,0,5.88-5.91c0-2.33,0-4.66,0-7V34.18c0-.11,0-.22,0-.33v-.13A5.87,5.87,0,0,0,115.07,28.1Z" transform="translate(0 0)"/><path class="cls-1" d="M184.83.61a13.82,13.82,0,0,1,1.9.45,16.27,16.27,0,0,1,7.61,5,13,13,0,0,1,2.18,7.68q0,20.38,0,40.76a13.35,13.35,0,0,1-25.08,6.08,3.65,3.65,0,0,1,1.25-4.93,3.5,3.5,0,0,1,4.85,1.4c2.33,3.64,6.37,4.5,9.54,2a5.81,5.81,0,0,0,2.41-4.5c.07-2.79,0-5.59,0-8.55a22.12,22.12,0,0,1-4.34,1.4c-7.58,1.28-15.15-4.65-15.33-12.32-.18-7.23-.13-14.46,0-21.69C170,3.84,179.9.94,179.9.94c.37-.09.77-.17,1.18-.25s.63-.1.92-.13L183.13.5A12.88,12.88,0,0,1,184.83.61ZM189.51,24c0-3.4,0-6.79,0-10.19a6.29,6.29,0,0,0-2.8-5.13,6.43,6.43,0,0,0-3.5-1.14,6.37,6.37,0,0,0-6.4,6q-.1,10.36,0,20.73a6.36,6.36,0,0,0,12.71-.23c0-3.35,0-6.71,0-10.06Z" transform="translate(0 0)"/><path class="cls-1" d="M183.31,68.07A14,14,0,0,1,171,60.86a4.17,4.17,0,0,1,1.44-5.6A4,4,0,0,1,178,56.82,6.59,6.59,0,0,0,182.31,60a5.6,5.6,0,0,0,4.46-1.24A5.3,5.3,0,0,0,189,54.59c0-2,0-3.87,0-5.9,0-.63,0-1.26,0-1.9a18.94,18.94,0,0,1-3.76,1.15,13.75,13.75,0,0,1-11-3.06,13.11,13.11,0,0,1-4.89-9.74c-.2-7.84-.11-15.72,0-21.71.15-9.85,10.33-12.94,10.44-13,.39-.1.8-.18,1.23-.26l.94-.14L183.11,0a11.88,11.88,0,0,1,1.79.12h0a12,12,0,0,1,2,.47,16.58,16.58,0,0,1,7.84,5.21,13.61,13.61,0,0,1,2.29,8c0,14.8,0,28.13,0,40.76a13.7,13.7,0,0,1-13.71,13.53ZM174.43,55.7a2.92,2.92,0,0,0-1.48.42,3.13,3.13,0,0,0-1.07,4.27,13.08,13.08,0,0,0,14.45,6.32A12.91,12.91,0,0,0,196,54.54c0-12.63,0-26,0-40.75a12.4,12.4,0,0,0-2.09-7.39,15.73,15.73,0,0,0-7.35-4.86,12.66,12.66,0,0,0-1.82-.43h0A9.68,9.68,0,0,0,183.14,1L182,1.06c-.25,0-.54.07-.85.13s-.79.15-1.14.24-9.56,2.91-9.7,12c-.1,6-.19,13.84,0,21.67a12.08,12.08,0,0,0,4.53,9A12.73,12.73,0,0,0,185.09,47a20.1,20.1,0,0,0,4.12-1.32l.8-.31v.73c0,.89,0,1.77,0,2.63,0,2,0,4,0,5.93a6.31,6.31,0,0,1-2.6,4.88,6.61,6.61,0,0,1-5.24,1.44,7.52,7.52,0,0,1-5-3.57A3.27,3.27,0,0,0,174.43,55.7Zm8.69-14.76a6.88,6.88,0,0,1-4.78-2,6.62,6.62,0,0,1-2.05-4.66c-.06-6.86,0-13.84,0-20.73a6.6,6.6,0,0,1,2.88-5.24,6.75,6.75,0,0,1,4-1.28A7,7,0,0,1,187,8.26a6.78,6.78,0,0,1,3,5.54V24.49h0v9.56a6.93,6.93,0,0,1-6.8,6.89ZM183.07,8a5.75,5.75,0,0,0-3.3,1.1,5.62,5.62,0,0,0-2.46,4.44c-.07,6.89-.08,13.85,0,20.71a5.64,5.64,0,0,0,1.75,4,5.81,5.81,0,0,0,4.15,1.71A6,6,0,0,0,189,34.05V23.49h0V13.8a5.77,5.77,0,0,0-2.58-4.72A6,6,0,0,0,183.2,8Z" transform="translate(0 0)"/><path class="cls-1" d="M150.56.66a12.54,12.54,0,0,1,1.91.45,16.2,16.2,0,0,1,7.6,5,13,13,0,0,1,2.18,7.68q.06,20.39,0,40.76a13.35,13.35,0,0,1-25.08,6.08,3.65,3.65,0,0,1,1.25-4.93,3.5,3.5,0,0,1,4.85,1.4c2.33,3.63,6.37,4.5,9.54,2a5.83,5.83,0,0,0,2.41-4.5c.08-2.8,0-5.59,0-8.55a21.24,21.24,0,0,1-4.34,1.39c-7.57,1.28-15.14-4.65-15.33-12.31-.18-7.23-.13-14.46,0-21.69C135.71,3.88,145.64,1,145.64,1c.37-.09.76-.18,1.18-.25s.62-.1.91-.13l1.13-.06A10,10,0,0,1,150.56.66ZM155.25,24V13.85a6.34,6.34,0,0,0-2.8-5.13A6.58,6.58,0,0,0,149,7.57a6.28,6.28,0,0,0-3.74,1.19,6.16,6.16,0,0,0-2.67,4.84q-.1,10.37,0,20.72a6.35,6.35,0,0,0,12.7-.22c0-3.36,0-6.71,0-10.07Z" transform="translate(0 0)"/><path class="cls-1" d="M149.05,68.11a14,14,0,0,1-12.32-7.21,4.17,4.17,0,0,1,1.44-5.59,4,4,0,0,1,5.52,1.56A6.61,6.61,0,0,0,148.05,60a5.51,5.51,0,0,0,4.45-1.24,5.28,5.28,0,0,0,2.22-4.12c.05-1.94,0-3.86,0-5.89,0-.63,0-1.27,0-1.91A19.23,19.23,0,0,1,151,48a13.77,13.77,0,0,1-11-3.06,13.12,13.12,0,0,1-4.9-9.74c-.19-7.85-.11-15.73,0-21.71.16-9.86,10.33-12.94,10.44-13,.4-.1.8-.19,1.23-.26s.64-.1.94-.14h.13l1,0a11.71,11.71,0,0,1,1.79.11h0a14.88,14.88,0,0,1,2,.47,16.65,16.65,0,0,1,7.85,5.22,13.64,13.64,0,0,1,2.28,8c0,14.8,0,28.13,0,40.76a13.65,13.65,0,0,1-13.7,13.52Zm-8.89-12.36a2.82,2.82,0,0,0-1.48.42,3.13,3.13,0,0,0-1.07,4.26,13.06,13.06,0,0,0,14.45,6.32,12.88,12.88,0,0,0,9.69-12.16c0-12.63,0-26,0-40.76a12.35,12.35,0,0,0-2.09-7.39,15.83,15.83,0,0,0-7.35-4.86,14.8,14.8,0,0,0-1.82-.43h0a11.1,11.1,0,0,0-1.62-.1l-1,.05-1,.13c-.4.08-.78.16-1.14.25s-9.55,2.9-9.7,12c-.1,6-.18,13.85,0,21.68a12.13,12.13,0,0,0,4.53,9A12.78,12.78,0,0,0,150.82,47a20.73,20.73,0,0,0,4.12-1.32l.8-.32v.74c0,.89,0,1.77,0,2.63,0,2,0,4,0,5.93a6.34,6.34,0,0,1-2.6,4.88A6.64,6.64,0,0,1,147.88,61a7.59,7.59,0,0,1-5-3.58A3.24,3.24,0,0,0,140.16,55.75ZM148.85,41a6.92,6.92,0,0,1-4.78-2,6.57,6.57,0,0,1-2-4.66c-.07-6.87-.06-13.84,0-20.74a6.66,6.66,0,0,1,2.88-5.24,6.68,6.68,0,0,1,7.81,0,6.78,6.78,0,0,1,3,5.54V24.53h0v2.71q0,3.42,0,6.86A6.93,6.93,0,0,1,148.94,41Zm0-32.92a5.78,5.78,0,0,0-3.3,1.1A5.62,5.62,0,0,0,143,13.6c-.07,6.89-.08,13.86,0,20.72a5.61,5.61,0,0,0,1.74,4A5.93,5.93,0,0,0,148.92,40a6,6,0,0,0,5.81-5.89q0-3.44,0-6.86V23.53h0V13.85a5.8,5.8,0,0,0-2.59-4.72,6,6,0,0,0-3.23-1.06Z" transform="translate(0 0)"/><path class="cls-1" d="M221.59,67.19a13.51,13.51,0,0,1-15-6.57,3.65,3.65,0,0,1,1.26-4.93,3.49,3.49,0,0,1,4.84,1.4c2.33,3.64,6.37,4.5,9.54,2a5.81,5.81,0,0,0,2.41-4.5c.08-2.79,0-5.59,0-8.55a21.91,21.91,0,0,1-4.34,1.4c-7.57,1.28-15.14-4.65-15.33-12.32-.18-7.23-.13-14.46,0-21.69.15-9.6,10.08-12.5,10.08-12.5.37-.09.76-.17,1.18-.25s.62-.1.91-.13L218.28.5A12.65,12.65,0,0,1,220,.61a14.13,14.13,0,0,1,1.91.45,16.2,16.2,0,0,1,7.6,5,13.07,13.07,0,0,1,2.19,7.68q0,20.38,0,40.76a13.37,13.37,0,0,1-10.07,12.65M224.66,24V13.8a6.29,6.29,0,0,0-2.8-5.13,6.46,6.46,0,0,0-3.5-1.14,6.21,6.21,0,0,0-3.74,1.18A6.12,6.12,0,0,0,212,13.55q-.12,10.36,0,20.73a6.35,6.35,0,0,0,12.7-.23c0-3.35,0-6.71,0-10.06Z" transform="translate(0 0)"/><path class="cls-1" d="M218.46,68.07a14,14,0,0,1-12.32-7.21,4.18,4.18,0,0,1,1.44-5.6,4,4,0,0,1,5.52,1.56A6.61,6.61,0,0,0,217.46,60a5.62,5.62,0,0,0,4.46-1.24,5.31,5.31,0,0,0,2.21-4.12c.06-2,0-3.87,0-5.9,0-.63,0-1.26,0-1.9a18.65,18.65,0,0,1-3.75,1.15,13.75,13.75,0,0,1-11-3.06,13.12,13.12,0,0,1-4.9-9.74c-.19-7.77-.11-15.34,0-21.71.16-9.85,10.34-12.94,10.44-13,.4-.1.8-.18,1.23-.26l.94-.14L218.25,0A11.7,11.7,0,0,1,220,.12a12,12,0,0,1,2,.47,16.36,16.36,0,0,1,7.85,5.22,13.64,13.64,0,0,1,2.29,8c0,14.92,0,28.25,0,40.76a13.93,13.93,0,0,1-10.45,13.14h0A13.88,13.88,0,0,1,218.46,68.07ZM209.57,55.7a3,3,0,0,0-1.48.42A3.15,3.15,0,0,0,207,60.39a13.08,13.08,0,0,0,14.45,6.32h0a12.9,12.9,0,0,0,9.69-12.17c0-12.51,0-25.84,0-40.75a12.45,12.45,0,0,0-2.1-7.4,15.86,15.86,0,0,0-7.35-4.85,11.76,11.76,0,0,0-1.82-.43A9.73,9.73,0,0,0,218.28,1l-1.11.06c-.25,0-.55.07-.86.13s-.78.15-1.14.24-9.55,2.91-9.7,12c-.1,6.36-.18,13.91,0,21.67a12.11,12.11,0,0,0,4.53,9A12.75,12.75,0,0,0,220.23,47a20.1,20.1,0,0,0,4.12-1.32l.8-.31v.73c0,.89,0,1.77,0,2.63,0,2,0,4,0,5.93a6.31,6.31,0,0,1-2.6,4.88,6.6,6.6,0,0,1-5.24,1.44,7.55,7.55,0,0,1-5-3.57A3.24,3.24,0,0,0,209.57,55.7Zm8.7-14.76a6.88,6.88,0,0,1-4.79-2,6.57,6.57,0,0,1-2-4.66c-.07-6.85-.06-13.82,0-20.73a6.59,6.59,0,0,1,2.87-5.24,6.84,6.84,0,0,1,4-1.28,6.94,6.94,0,0,1,3.77,1.23,6.77,6.77,0,0,1,3,5.54V24.49h0v2.56c0,2.33,0,4.67,0,7a6.93,6.93,0,0,1-6.79,6.89ZM218.22,8a5.78,5.78,0,0,0-3.31,1.1,5.59,5.59,0,0,0-2.45,4.44c-.08,6.9-.09,13.87,0,20.71a5.59,5.59,0,0,0,1.74,4,5.86,5.86,0,0,0,4.15,1.71,6,6,0,0,0,5.81-5.89c0-2.33,0-4.67,0-7V23.49h0V13.8a5.8,5.8,0,0,0-2.58-4.72A6,6,0,0,0,218.35,8Z" transform="translate(0 0)"/><text/><text class="cls-2" transform="translate(111.67 103.02) scale(1 0.99)">ww<tspan class="cls-3" x="22.88" y="0">w</tspan><tspan x="33.84" y="0">.goud999.nl</tspan></text><text/></g></g></svg>