<?xml version="1.0" standalone="no"?>
<!DOCTYPE svg PUBLIC "-//W3C//DTD SVG 20010904//EN"
 "http://www.w3.org/TR/2001/REC-SVG-20010904/DTD/svg10.dtd">
<svg version="1.0" xmlns="http://www.w3.org/2000/svg"
 width="895.000000pt" height="678.000000pt" viewBox="0 0 895.000000 678.000000"
 preserveAspectRatio="xMidYMid meet">
<metadata>
Created by potrace 1.15, written by Peter Selinger 2001-2017
</metadata>
<g transform="translate(0.000000,678.000000) scale(0.100000,-0.100000)"
fill="#000000" stroke="none">
<path d="M4446 6743 c-32 -67 -141 -226 -196 -287 -54 -58 -182 -156 -205
-156 -7 0 -18 -7 -25 -15 -18 -22 3 -26 88 -17 40 5 72 4 72 -1 0 -17 -53 -77
-86 -98 -19 -11 -34 -24 -34 -29 0 -4 23 -11 50 -15 28 -4 50 -11 50 -17 0 -6
-33 -44 -74 -85 -75 -74 -75 -74 -49 -84 14 -5 34 -7 44 -4 11 4 19 3 19 0 0
-4 -23 -52 -52 -107 -81 -159 -200 -307 -328 -411 -24 -19 -41 -39 -37 -43 4
-4 28 -2 55 4 26 5 49 9 50 7 2 -2 -17 -26 -42 -53 -25 -27 -46 -52 -46 -56 0
-14 49 -4 112 23 l67 29 -14 -27 c-7 -15 -41 -53 -75 -84 -71 -66 -65 -77 34
-60 34 6 62 10 63 9 3 -2 -114 -196 -123 -205 -16 -16 -119 119 -173 227 l-31
62 30 0 29 0 -44 45 c-25 24 -45 49 -45 54 0 5 13 12 30 16 l30 7 -30 25 c-17
14 -35 33 -40 44 -9 17 -7 18 40 12 59 -7 65 6 15 30 -69 33 -148 122 -220
249 l-22 39 -42 -70 c-51 -86 -139 -183 -198 -217 -23 -14 -43 -28 -43 -31 0
-3 23 -3 50 0 60 7 64 -3 16 -48 l-35 -32 31 -9 31 -9 -48 -53 c-46 -51 -46
-52 -21 -52 14 0 26 -2 26 -5 0 -3 -14 -33 -31 -67 -42 -83 -93 -151 -168
-222 -34 -32 -60 -60 -58 -62 2 -3 16 0 31 5 35 14 35 -4 -1 -42 l-28 -29 25
7 c14 4 40 13 58 21 46 19 41 -1 -15 -54 l-47 -45 53 6 52 6 -27 -47 c-45 -77
-124 -195 -153 -225 -14 -16 -45 -40 -69 -54 -24 -14 -41 -27 -39 -29 4 -4 82
10 125 22 24 7 24 6 9 -22 -8 -16 -29 -42 -46 -58 -17 -16 -28 -33 -25 -38 3
-4 23 -8 45 -8 l39 0 -21 -42 c-12 -24 -36 -61 -52 -82 -31 -39 -31 -39 -7
-33 66 16 602 67 935 89 254 16 1318 16 1570 0 333 -22 874 -72 943 -87 21 -5
20 -2 -12 42 -18 27 -41 63 -50 81 l-17 32 40 0 c22 0 42 4 45 8 3 5 -9 21
-25 36 -27 26 -66 86 -55 86 2 0 32 -7 66 -16 77 -19 97 -13 45 14 -22 11 -54
35 -71 54 -30 31 -184 259 -184 271 0 3 23 3 51 0 l52 -6 -47 46 c-54 55 -59
71 -13 53 17 -8 43 -17 57 -21 l25 -7 -27 29 c-37 38 -37 56 -2 42 15 -5 29
-8 31 -6 2 3 -26 33 -63 68 -36 35 -81 85 -100 110 -30 41 -94 159 -94 173 0
3 12 6 26 6 26 0 25 1 -22 52 l-49 52 32 9 32 10 -35 32 c-48 45 -44 55 16 48
28 -3 50 -4 50 -1 0 3 -22 19 -49 36 -65 42 -141 127 -193 213 l-41 70 -22
-39 c-73 -129 -148 -213 -225 -252 -22 -11 -40 -23 -40 -27 0 -3 25 -3 55 0
l55 6 -17 -29 c-9 -16 -28 -34 -41 -42 l-25 -13 38 -11 37 -10 -50 -52 -51
-52 30 0 29 0 -31 -62 c-54 -108 -157 -243 -173 -227 -10 10 -126 203 -123
205 1 2 20 -1 42 -6 39 -9 115 -13 115 -6 0 2 -34 37 -75 79 -41 42 -75 81
-75 87 0 6 17 2 39 -9 45 -24 129 -46 138 -37 3 3 -15 29 -42 57 -26 27 -45
52 -43 54 1 2 24 -2 50 -7 27 -6 51 -8 55 -4 4 4 -13 24 -37 43 -128 104 -247
252 -328 411 -29 55 -52 103 -52 107 0 3 8 4 19 0 10 -3 30 -1 44 4 26 10 26
10 -49 84 -41 41 -74 79 -74 85 0 6 23 13 50 17 28 4 50 11 50 15 0 5 -16 18
-35 30 -28 17 -100 99 -92 105 1 1 36 -2 77 -6 87 -10 108 -6 90 16 -7 8 -18
15 -25 15 -23 0 -153 99 -204 157 -57 63 -168 225 -197 286 -10 20 -23 37 -29
37 -6 0 -19 -17 -29 -37z"/>
<path d="M3990 4204 c-1018 -43 -1880 -167 -2591 -375 -834 -243 -1320 -598
-1355 -988 -6 -65 43 -558 117 -1191 50 -430 64 -491 118 -512 31 -11 686
-186 1736 -463 237 -62 653 -172 925 -244 1260 -332 1459 -383 1510 -388 57
-5 97 4 700 162 113 30 333 88 490 129 1369 360 3000 793 3031 804 31 12 56
61 69 134 40 217 173 1475 166 1564 -41 526 -876 965 -2289 1204 -399 67 -810
113 -1301 146 -217 14 -1119 26 -1326 18z m312 -251 l3 -108 40 0 40 0 3 108
c2 98 4 107 22 107 18 0 20 -9 22 -107 l3 -108 40 0 40 0 3 108 c2 98 4 107
22 107 18 0 20 -9 22 -107 l3 -108 40 0 40 0 3 108 3 107 37 0 c92 -1 562 -21
702 -30 1333 -90 2423 -352 2975 -716 201 -132 336 -289 360 -417 l7 -38 -38
6 c-48 7 -379 43 -380 41 -1 0 -4 -20 -8 -43 l-6 -41 68 -7 c350 -37 367 -40
364 -60 -2 -11 -5 -21 -6 -22 -1 -1 -96 9 -211 21 -153 17 -212 20 -217 12 -4
-6 -8 -25 -8 -42 l0 -31 98 -11 c53 -6 150 -17 215 -23 114 -12 117 -13 117
-37 0 -22 -3 -23 -37 -18 -21 3 -103 12 -183 21 -80 8 -162 17 -182 20 l-38 5
0 -43 0 -44 98 -11 c53 -6 150 -17 215 -24 l118 -12 -6 -55 c-3 -31 -8 -66
-11 -78 l-4 -23 -4220 0 -4220 0 -5 23 c-2 12 -6 47 -7 77 l-3 54 195 23 c107
12 205 22 218 22 19 1 22 6 22 46 l0 45 -37 -5 c-38 -5 -399 -45 -408 -45 -3
0 -5 10 -5 23 0 22 5 23 117 35 65 6 164 17 221 23 l102 12 0 31 c0 17 -4 36
-8 42 -5 8 -64 5 -217 -12 -116 -13 -213 -24 -216 -24 -4 0 -9 9 -12 20 -6 25
-12 24 238 50 110 12 201 22 202 23 1 2 -1 21 -4 44 -5 39 -8 42 -32 38 -14
-3 -93 -12 -176 -20 -82 -8 -167 -18 -189 -21 l-39 -6 8 38 c27 150 212 341
474 489 681 385 2040 645 3528 673 l82 2 3 -107z m786 -1969 c12 -8 22 -10 22
-5 0 6 7 11 15 11 12 0 15 -16 15 -81 0 -71 -2 -80 -17 -77 -14 2 -19 16 -23
62 -6 66 -26 90 -57 70 -16 -10 -18 -31 -18 -195 l0 -184 35 0 35 0 3 63 c3
54 6 62 22 62 18 0 20 -7 20 -58 0 -74 -22 -102 -80 -102 -30 0 -43 6 -59 26
-19 25 -21 40 -21 190 0 174 7 209 42 224 33 13 41 12 66 -6z m-2506 -59 c12
-104 39 -299 44 -322 2 -13 10 -22 17 -20 6 1 12 -5 12 -13 0 -19 -86 -22 -92
-2 -3 6 3 12 13 12 14 0 16 7 10 46 -3 26 -6 57 -6 70 0 20 -5 24 -29 24 -28
0 -30 -3 -36 -47 -11 -81 -10 -88 3 -85 6 1 12 -7 12 -18 0 -16 -7 -19 -45
-18 -37 0 -45 4 -42 17 2 9 8 15 13 14 11 -2 20 50 50 280 l17 128 26 -3 c24
-3 27 -8 33 -63z m626 -107 c30 -226 32 -238 45 -235 6 1 13 -6 15 -15 3 -15
-4 -18 -42 -18 -48 0 -54 7 -35 38 8 12 9 38 5 75 -7 54 -9 57 -36 57 -27 0
-28 -2 -35 -62 -6 -48 -4 -64 7 -72 26 -20 8 -36 -39 -36 -37 0 -44 3 -41 18
2 9 9 16 15 15 14 -3 17 10 44 225 l23 182 26 0 26 0 22 -172z m237 -28 c0
-145 3 -197 13 -203 6 -4 12 -15 12 -22 0 -17 -45 -21 -55 -5 -4 7 -12 7 -25
0 -28 -15 -38 -13 -65 15 -23 22 -25 31 -25 127 0 63 5 113 13 128 14 28 59
39 83 19 12 -10 14 -3 14 49 0 44 -4 61 -15 66 -28 10 -16 27 18 24 l32 -3 0
-195z m715 121 c0 -43 3 -50 22 -53 32 -5 35 -28 4 -28 l-26 0 0 -119 c0 -118
0 -119 25 -125 14 -4 25 -11 25 -17 0 -16 -25 -21 -53 -10 l-27 11 0 130 c0
109 -2 130 -15 130 -8 0 -15 7 -15 15 0 8 7 15 15 15 11 0 15 12 15 50 0 38 4
50 15 50 11 0 15 -12 15 -49z m-1415 -61 c5 -8 11 -7 20 0 8 6 26 10 42 8 42
-5 53 -37 53 -166 0 -73 4 -111 10 -107 6 3 10 -3 10 -14 0 -18 -6 -21 -40
-21 -34 0 -40 3 -40 21 0 11 5 17 10 14 6 -4 10 36 10 114 0 108 -2 120 -19
126 -45 14 -51 0 -51 -120 0 -65 4 -116 10 -120 6 -3 10 -13 10 -21 0 -10 -12
-14 -40 -14 -34 0 -40 3 -40 21 0 11 5 17 10 14 6 -4 10 38 10 119 0 77 -4
126 -10 126 -5 0 -10 7 -10 15 0 17 45 21 55 5z m815 -4 c0 -8 -5 -16 -10 -18
-6 -2 -4 -43 7 -115 9 -62 18 -111 20 -110 1 2 10 52 18 111 12 76 13 111 6
120 -15 18 -4 26 36 26 34 0 43 -15 19 -34 -7 -6 -21 -59 -30 -121 -25 -155
-24 -154 -48 -150 -12 3 -22 6 -24 7 -1 2 -12 60 -24 128 -13 76 -27 129 -35
136 -27 20 -16 34 25 34 28 0 40 -4 40 -14z m265 -6 c13 -14 18 -37 19 -82 l1
-63 -52 -3 -53 -3 0 -43 c0 -75 61 -91 68 -17 2 19 9 31 18 31 23 0 27 -24 11
-62 -17 -41 -54 -55 -94 -36 -36 17 -44 54 -40 166 3 71 9 97 22 112 24 26 76
26 100 0z m120 10 c5 -8 11 -7 20 0 8 6 26 10 42 8 42 -5 53 -37 53 -166 0
-73 4 -111 10 -107 6 3 10 -3 10 -14 0 -18 -6 -21 -40 -21 -34 0 -40 3 -40 21
0 11 5 17 10 14 6 -4 10 36 10 114 0 108 -2 120 -19 126 -45 14 -51 0 -51
-120 0 -65 4 -116 10 -120 6 -3 10 -13 10 -21 0 -11 -10 -14 -40 -12 -25 1
-40 7 -40 15 0 7 5 13 10 13 6 0 10 48 10 125 0 77 -4 125 -10 125 -5 0 -10 7
-10 15 0 17 45 21 55 5z m355 -119 c0 -105 3 -131 16 -142 11 -9 20 -10 32 -2
14 8 18 31 20 127 2 75 -1 116 -8 116 -5 0 -10 7 -10 15 0 10 10 15 30 15 l30
0 0 -140 c0 -87 4 -140 10 -140 6 0 10 -7 10 -15 0 -18 -45 -21 -56 -4 -4 8
-9 8 -17 0 -18 -18 -46 -13 -72 14 -24 23 -25 30 -25 140 0 70 -4 115 -10 115
-5 0 -10 7 -10 15 0 10 10 15 30 15 l30 0 0 -129z m291 119 c16 -10 18 -92 2
-97 -7 -3 -13 10 -15 34 -2 30 -7 38 -23 38 -19 0 -20 -8 -23 -123 -2 -95 0
-122 10 -120 7 2 13 -4 13 -12 0 -10 -13 -16 -42 -18 -44 -3 -56 11 -32 35 14
14 13 237 -1 241 -6 2 -10 10 -10 17 0 15 98 19 121 5z m183 -12 c11 -15 16
-45 16 -85 l0 -63 -51 0 -50 0 3 -46 c4 -57 30 -81 54 -50 8 11 14 30 14 43 0
14 6 23 15 23 19 0 20 -58 1 -82 -21 -28 -68 -33 -96 -10 -23 19 -25 28 -28
117 -4 106 0 136 24 159 24 24 80 20 98 -6z m542 1 c16 -18 19 -37 19 -136 0
-109 -1 -116 -24 -134 -30 -24 -62 -24 -92 0 -23 18 -24 25 -24 134 0 99 3
118 19 136 25 28 77 28 102 0z m124 9 c0 -9 3 -9 12 0 17 17 64 15 81 -3 13
-13 17 -13 28 1 8 10 25 14 48 12 51 -4 61 -31 61 -160 0 -60 4 -110 10 -113
6 -3 10 -13 10 -21 0 -10 -12 -14 -40 -14 -29 0 -40 4 -40 15 0 8 5 15 10 15
6 0 10 45 10 114 0 119 -8 142 -47 134 -16 -3 -18 -17 -21 -117 -2 -69 1 -118
8 -125 22 -22 10 -36 -29 -36 -45 0 -62 17 -37 35 25 19 20 223 -6 239 -13 8
-23 8 -35 0 -27 -16 -32 -220 -7 -239 25 -18 8 -35 -37 -35 -27 0 -39 4 -39
14 0 8 5 18 10 21 6 4 10 57 10 126 0 73 -4 119 -10 119 -5 0 -10 7 -10 15 0
10 10 15 30 15 17 0 30 -5 30 -12z m330 0 c0 -9 3 -9 12 0 17 17 64 15 82 -4
13 -12 16 -40 16 -135 0 -106 -2 -121 -20 -139 -22 -22 -42 -25 -71 -10 -17
10 -19 7 -19 -30 0 -29 4 -40 15 -40 8 0 15 -7 15 -15 0 -11 -12 -15 -45 -15
-33 0 -45 4 -45 15 0 8 7 15 15 15 13 0 15 26 15 170 0 144 -2 170 -15 170 -8
0 -15 7 -15 15 0 10 10 15 30 15 17 0 30 -5 30 -12z m200 0 c0 -9 3 -9 12 0
14 14 57 16 76 4 21 -14 32 -73 31 -165 -1 -54 3 -93 10 -100 19 -19 12 -37
-14 -35 -14 1 -25 8 -25 15 0 10 -6 10 -25 -3 -30 -19 -81 -11 -95 16 -6 10
-10 35 -10 55 0 43 29 76 84 96 35 13 37 15 34 54 -3 37 -5 40 -33 40 -27 0
-31 -4 -35 -34 -9 -60 -30 -50 -30 13 0 31 5 56 10 56 6 0 10 -5 10 -12z m230
0 c0 -9 3 -9 12 0 17 17 58 15 80 -5 15 -14 18 -32 18 -131 0 -95 3 -117 17
-127 23 -17 9 -33 -32 -33 -39 0 -56 16 -31 30 13 7 16 27 16 109 0 107 -9
139 -40 139 -31 0 -40 -32 -40 -139 0 -82 3 -102 16 -109 25 -14 8 -30 -31
-30 -41 0 -55 16 -32 33 24 17 25 245 2 245 -8 0 -15 7 -15 15 0 10 10 15 30
15 17 0 30 -5 30 -12z m216 -45 c0 -32 6 -92 14 -133 l14 -75 16 115 c10 63
13 117 9 118 -5 2 -9 10 -9 18 0 11 10 14 37 12 35 -3 61 -28 29 -28 -9 0 -16
-1 -16 -3 0 -39 -52 -343 -61 -353 -16 -19 -79 -19 -79 1 0 9 9 15 25 15 32 0
54 45 32 64 -9 7 -21 61 -33 140 -11 83 -22 130 -31 133 -27 10 -13 33 20 33
l32 0 1 -57z m-1902 -1158 c51 30 52 29 31 -22 -20 -47 -20 -47 20 -74 l35
-24 -48 -5 c-45 -5 -48 -7 -62 -47 -8 -24 -17 -43 -20 -43 -3 0 -12 19 -20 43
-14 40 -17 42 -62 47 l-48 5 36 24 c19 13 33 30 30 37 -3 7 -8 29 -12 49 l-7
37 41 -27 41 -27 45 27z"/>
<path d="M4183 3403 l-143 -4 0 -44 0 -45 49 0 49 0 7 -160 8 -160 48 0 49 0
0 160 0 160 50 0 50 0 0 50 c0 35 -4 49 -12 48 -7 -1 -77 -4 -155 -5z"/>
<path d="M4700 3397 c-56 -18 -116 -85 -129 -145 -21 -99 21 -202 99 -242 182
-93 372 59 316 253 -33 114 -161 174 -286 134z m151 -126 c24 -24 29 -38 29
-76 0 -63 -39 -105 -99 -105 -60 0 -92 32 -99 98 -4 47 -2 54 26 82 42 42 101
42 143 1z"/>
<path d="M3786 3392 c-6 -10 8 -399 15 -405 2 -2 61 -2 132 1 l127 4 0 44 0
44 -75 0 c-53 0 -75 4 -76 13 -1 6 -4 77 -8 157 l-6 145 -52 3 c-28 2 -54 -1
-57 -6z"/>
<path d="M5076 3378 c-3 -13 -6 -89 -6 -170 0 -145 0 -147 27 -179 68 -80 216
-79 276 3 17 22 22 53 29 183 6 86 8 158 7 160 -2 1 -26 5 -54 6 l-50 4 -6
-110 c-4 -60 -7 -127 -8 -147 -2 -63 -58 -91 -100 -49 -18 18 -19 30 -14 165
l6 146 -36 0 c-19 0 -42 3 -50 6 -9 3 -17 -3 -21 -18z"/>
<path d="M3511 3383 l-94 -4 7 -127 c3 -70 9 -162 13 -204 l6 -78 67 0 c37 0
95 3 129 6 l61 7 0 43 0 44 -80 0 -80 0 0 35 0 35 48 0 c83 0 93 7 90 54 l-3
41 -72 -1 -73 -2 0 29 0 29 75 0 75 0 0 50 0 50 -37 -2 c-21 -1 -80 -4 -132
-5z"/>
<path d="M5474 3371 c-2 -2 -4 -24 -4 -48 l0 -43 51 0 51 0 -6 -67 c-3 -38 -8
-109 -12 -159 l-6 -91 47 -8 c33 -4 50 -3 55 5 4 7 11 71 14 144 10 175 7 169
66 161 l48 -7 4 47 c2 27 -1 49 -7 51 -17 5 -296 19 -301 15z"/>
<path d="M3070 3353 c-30 -2 -58 -7 -61 -11 -4 -4 1 -95 10 -202 l16 -195 100
3 c120 3 156 14 190 53 35 43 36 116 0 149 -19 18 -22 26 -14 37 18 21 14 86
-7 118 -33 51 -72 59 -234 48z"/>
<path d="M5850 3328 c0 -13 -7 -104 -15 -202 -8 -99 -13 -181 -10 -184 2 -3
44 -8 92 -13 118 -11 178 5 226 62 61 71 72 156 30 240 -38 74 -100 105 -230
115 l-93 7 0 -25z m191 -105 c34 -20 55 -77 45 -118 -12 -49 -49 -75 -106 -75
-44 0 -51 2 -46 18 2 9 7 56 11 105 l7 87 30 0 c16 0 43 -8 59 -17z"/>
<path d="M2822 3333 l-43 -4 6 -62 c3 -34 8 -77 11 -94 3 -18 2 -33 -1 -33 -4
0 -55 38 -114 84 -81 64 -113 84 -129 79 -19 -4 -21 -10 -16 -47 3 -22 13
-113 23 -201 11 -111 20 -160 29 -159 7 1 33 2 58 3 l46 1 -6 58 c-4 31 -9 77
-13 101 l-6 44 114 -92 c63 -50 116 -91 119 -91 3 0 11 4 18 9 21 13 -16 405
-38 407 -8 0 -34 -1 -58 -3z"/>
<path d="M6430 3290 c-113 -21 -177 -109 -168 -231 5 -74 43 -132 108 -166 38
-21 56 -24 117 -21 60 3 78 8 114 33 62 44 84 93 84 187 0 70 -2 79 -31 115
-50 63 -144 98 -224 83z m116 -131 c73 -68 7 -203 -91 -185 -92 18 -110 160
-25 204 33 17 87 8 116 -19z"/>
<path d="M2285 3273 c-60 -8 -111 -16 -113 -17 -1 -2 9 -88 23 -192 14 -104
25 -195 25 -203 0 -9 9 -12 33 -8 17 3 76 11 130 18 l97 11 0 46 0 45 -85 -7
-85 -7 0 35 c0 32 3 36 33 40 107 17 109 17 103 32 -3 9 -6 29 -6 45 l0 29
-75 -7 -75 -6 0 26 c0 24 4 26 58 32 31 3 64 7 72 8 31 4 23 98 -8 96 -9 -1
-66 -8 -127 -16z"/>
<path d="M1910 3223 c-52 -8 -96 -16 -98 -17 -3 -4 57 -398 61 -402 4 -5 248
33 254 39 3 3 2 24 -2 47 l-7 42 -47 -7 c-25 -3 -60 -8 -77 -11 -29 -5 -32 -3
-38 26 -3 18 -4 36 -1 40 3 4 34 11 70 15 69 7 70 8 59 64 l-7 32 -71 -3 c-66
-3 -71 -2 -74 19 -3 23 4 25 101 39 43 6 47 8 47 34 0 67 -7 68 -170 43z"/>
<path d="M6878 3220 c-112 -33 -171 -185 -117 -297 27 -57 68 -89 137 -109
102 -30 202 10 247 100 43 87 29 203 -32 258 -53 48 -161 70 -235 48z m140
-116 c77 -50 32 -194 -61 -194 -108 0 -139 153 -42 204 32 18 65 14 103 -10z"/>
<path d="M7275 3166 c-7 -21 -64 -390 -61 -393 2 -2 26 -6 53 -10 l50 -5 7 56
c7 54 9 57 34 54 21 -2 30 -14 51 -68 l26 -65 55 -11 c30 -6 58 -8 63 -4 4 3
-5 37 -21 74 l-28 68 32 32 c73 73 58 191 -29 238 -33 17 -228 46 -232 34z"/>
<path d="M1475 3153 c-43 -8 -80 -15 -82 -17 -1 -1 13 -90 32 -197 19 -107 35
-197 35 -200 0 -4 19 -3 43 2 23 4 46 8 50 9 5 0 6 26 2 59 -6 55 -5 59 16 64
22 6 50 -19 104 -90 8 -10 23 -11 69 -3 32 5 61 12 64 15 3 3 -10 22 -29 43
-73 79 -71 73 -48 120 37 73 9 161 -61 197 -35 18 -89 18 -195 -2z"/>
<path d="M1075 3088 c-85 -30 -138 -106 -138 -198 0 -133 85 -220 213 -220
104 0 192 66 205 154 7 46 -2 126 -13 125 -4 0 -47 -8 -97 -18 l-90 -17 3 -44
c2 -24 4 -46 6 -47 2 -2 22 1 45 6 36 8 42 7 37 -6 -3 -8 -6 -16 -6 -19 0 -10
-62 -34 -87 -34 -76 0 -127 104 -89 179 25 48 83 63 138 35 33 -17 128 -11
128 8 0 23 -46 72 -84 89 -45 20 -123 24 -171 7z"/>
<path d="M7713 3076 c-80 -37 -92 -163 -19 -211 14 -9 51 -25 83 -34 46 -13
59 -22 61 -39 3 -20 -1 -22 -38 -22 -47 0 -80 14 -80 34 0 8 -16 17 -37 20
-21 4 -47 10 -57 13 -17 5 -18 1 -13 -37 10 -79 84 -130 187 -130 91 0 150 50
150 128 0 44 -39 83 -105 106 -95 34 -97 35 -93 59 3 19 9 22 48 22 37 0 47
-4 55 -22 6 -14 22 -24 45 -28 19 -3 43 -8 53 -11 14 -4 17 1 17 26 0 77 -63
130 -163 136 -41 3 -73 -1 -94 -10z"/>
<path d="M4449 2778 c-15 -41 -18 -43 -65 -48 l-49 -5 38 -23 c42 -27 42 -27
22 -75 -21 -51 -20 -52 30 -23 l45 27 41 -27 42 -26 -7 37 c-4 20 -9 42 -12
48 -2 7 13 23 33 37 l37 25 -50 5 c-47 5 -49 6 -64 48 -8 23 -17 42 -20 42 -3
0 -13 -19 -21 -42z"/>
<path d="M3347 1823 c-4 -3 -7 -55 -7 -113 0 -86 3 -110 16 -121 11 -9 20 -10
32 -2 14 8 18 29 20 104 4 118 -1 139 -32 139 -12 0 -26 -3 -29 -7z"/>
<path d="M5237 1824 c-4 -4 -7 -56 -7 -114 0 -86 3 -110 16 -121 11 -9 20 -10
32 -2 14 8 17 29 17 124 l0 114 -25 3 c-14 2 -29 0 -33 -4z"/>
<path d="M5780 1811 c-5 -11 -10 -60 -10 -110 0 -68 4 -93 16 -105 19 -20 29
-20 48 0 12 12 16 37 16 105 0 98 -10 129 -40 129 -11 0 -24 -9 -30 -19z"/>
</g>
</svg>
