<svg xmlns="http://www.w3.org/2000/svg" viewBox="0 0 89.9 90.1"><defs><style>.cls-1{fill:#8aba40;fill-rule:evenodd;}</style></defs><title>Asset 1@200x</title><g id="Layer_2" data-name="Layer 2"><g id="Layer_1-2" data-name="Layer 1"><g id="Composite_Path" data-name="Composite Path"><path class="cls-1" d="M27.5,31.3v39H48.9V62.7H35.1V31.3Zm62.4,9.8H70.5A19.23,19.23,0,0,1,68.3,45a25.61,25.61,0,0,1,2.2,3.9H82v.5c-3.3,22-20.9,32.9-37,32.9A37.25,37.25,0,1,1,80.3,33.2h8.1V33c-.5-1.6-1.2-3.6-1.8-5.2a51.22,51.22,0,0,0-3.1-6.2A45.74,45.74,0,0,0,51.6.4C50.2.3,47.5,0,47.3,0H42.7c-.5,0-5.4.6-6.2.8A44.11,44.11,0,0,0,20.2,7.5,44.44,44.44,0,0,0,0,42.2v5.5c0,1.6,1,7.2,1,7.3.3,1.2.7,2.7,1.1,4s1,2.9,1.6,4.3A45.39,45.39,0,0,0,33,88.5a69.27,69.27,0,0,0,9.1,1.6h5.6A64.63,64.63,0,0,0,54.9,89c1.5-.3,3.4-.9,5-1.4,1.4-.5,2.7-1,4-1.6A44.49,44.49,0,0,0,79.3,74.2a43.36,43.36,0,0,0,9-17.2,51,51,0,0,0,1.6-9.5ZM67.3,34.3A14.52,14.52,0,0,0,53.7,19.8H27.5v7.6H53a7.12,7.12,0,0,1,6.8,7,7.33,7.33,0,0,1-6.5,7H39.1V49H53.4a12.08,12.08,0,0,1,1.4.3,7,7,0,0,1-1.9,13.6v7.6h.7c.5,0,3.1-.6,3.2-.6a14.5,14.5,0,0,0,5.7-24.6v-.1A15.59,15.59,0,0,0,67.3,34.3Z"/></g></g></g></svg>