<svg xmlns="http://www.w3.org/2000/svg" viewBox="0 0 1382.42 348"><defs><style>.a{fill:#004c97;}.b{fill:#565656;}.c{fill:#ba0c2f;}</style></defs><path class="a" d="M505.82,218c-34.27,0-68.93-22.59-68.93-65,0-42.84,35.44-65,68.15-65,17.33,0,31,4.28,39.52,9.93l-2.33,26.48c-8.57-6.23-20.45-10.32-34.08-10.32-22.58,0-41.27,15.18-41.27,39.72,0,23.36,17.71,38.55,40.3,38.55,7.2,0,12.66-1.17,16.94-3.7V171H501.53V147.87h50.24v57.24C541.25,213.48,525.87,218,505.82,218Z" transform="translate(-8.52 -15.39)"/><path class="a" d="M618.74,217.76c-29.59,0-53.73-17.52-53.73-45.17V90.82h30.17v79.05c0,12.65,9.55,21.41,24,21.41s24.15-8.76,24.15-21.41V90.82h29.4v81.77C672.68,200.24,648.53,217.76,618.74,217.76Z" transform="translate(-8.52 -15.39)"/><path class="a" d="M764.19,215l-9.74-25.9H713.57L704,215H675.6l48.87-125.2H745.3L794.17,215Zm-26.09-73.6a121.74,121.74,0,0,1-3.9-12.66h-.39a88.44,88.44,0,0,1-3.89,12.66l-9,24.92h26.09Z" transform="translate(-8.52 -15.39)"/><path class="a" d="M876.14,215l-33.49-48.87H832V215h-29V90.82h46.34c21.23,0,40.11,14.21,40.11,37.57,0,14.61-8.56,26.29-19.08,31.16L909.83,215ZM844.8,114.57H832v27.84H844.8c7.78,0,15.57-4.28,15.57-14C860.37,119.05,852.58,114.57,844.8,114.57Z" transform="translate(-8.52 -15.39)"/><path class="a" d="M996.27,215l-9.73-25.9H945.65L936.11,215H907.68l48.87-125.2h20.84L1026.26,215Zm-26.09-73.6a124.32,124.32,0,0,1-3.89-12.66h-.39A88.44,88.44,0,0,1,962,141.44l-9,24.92h26.09Z" transform="translate(-8.52 -15.39)"/><path class="a" d="M1136.46,216.4l-48.29-53c-7.78-8.57-16.54-19.08-23.16-27.26l-.39.2c.39,8.76.58,18.3.58,26.09V215H1035V90.82h24.34l42.06,46.34c5.84,6.42,14.6,16.55,20.24,23.75l.39-.2c-.39-7.39-.58-15.38-.58-23.16V90.82h30.18V216.4Z" transform="translate(-8.52 -15.39)"/><path class="a" d="M1228,115V215h-30V114.77h-37.58v-24h104.95V115Z" transform="translate(-8.52 -15.39)"/><path class="a" d="M1344.8,159.55V215h-29.21V160.13l-46.34-69.31h32.13l20.44,30a156.19,156.19,0,0,1,9,14.8h.39c2.72-4.87,6.62-10.71,9.34-14.8l20.45-30h30Z" transform="translate(-8.52 -15.39)"/><path class="b" d="M443.52,344.34V244.88h51.92v9H454v35.85h34v9.05H454V335.3h46.92v9Z" transform="translate(-8.52 -15.39)"/><path class="b" d="M549.69,346.05c-11.54,0-20.89-3.74-26.35-7.63l-3-12.32c8.57,6.55,18.24,10.76,29.78,10.76,12.31,0,21.2-7.33,21.2-18.24,0-10.29-6.24-16.69-20.11-21.52-17.77-6.23-26.19-15.9-26.19-28.84,0-12.32,9.35-25.1,29.46-25.1,9,0,17,3,21.05,5.77l-2.18,8.73c-3.9-2.81-11.54-5.77-19.18-5.77-12.47,0-19,8.11-19,15.75,0,7.95,5.61,14,18.24,18.86C571.2,293.2,582,301.62,582,317.68,582,334.83,569.49,346.05,549.69,346.05Z" transform="translate(-8.52 -15.39)"/><path class="b" d="M685.77,259.06c-5.76-3.74-15.59-6.86-26.19-6.86-22.45,0-43.18,16.06-43.18,42.41,0,26.19,20.42,42.25,43.18,42.25,11.54,0,21-2.34,28.06-6.71l-2.49,10.6c-6.24,3.43-14.19,5.3-26.66,5.3-26.66,0-52.69-19.48-52.69-51.44,0-32.27,26.34-51.45,52.69-51.45,12.79,0,22.61,2.81,29.31,6.7Z" transform="translate(-8.52 -15.39)"/><path class="b" d="M776,344.34l-33.21-45.52H725.68v45.52H715.24V244.88h28.37c15.12,0,29.15,10,29.15,27,0,12.94-8.41,22.29-19.48,25.41l34.92,47.08ZM741.9,253.92H725.68v35.85h16.84c10.44,0,19.64-6.54,19.64-17.92S753,253.92,741.9,253.92Z" transform="translate(-8.52 -15.39)"/><path class="b" d="M852.43,346.05c-27.44,0-52.07-20.58-52.07-51.6,0-30.71,24.63-51.29,52.07-51.29s52.07,20.58,52.07,51.29C904.5,325.47,879.86,346.05,852.43,346.05Zm0-93.85c-21.83,0-41.47,16.68-41.47,42.25s19.64,42.41,41.47,42.41c21.67,0,41.46-16.84,41.46-42.41S874.1,252.2,852.43,252.2Z" transform="translate(-8.52 -15.39)"/><path class="b" d="M1025.33,345.9h-3.12l-20-58c-3.11-9-6.08-18.08-9.35-29h-.31c-3.28,10.91-6.24,19.95-9.36,29l-19.8,58h-3.27l-34.92-101h10.6l18.08,52.22c2.81,8.11,5.93,17,8.27,26h.31c2.49-8.89,5.46-17.78,8.26-26l17.93-52.22h9.2l17.93,52.22c3,8.42,5.77,17.46,8.1,26h.32c2.49-8.42,5.45-17.62,8.41-26l17.93-52.22h9.82Z" transform="translate(-8.52 -15.39)"/><path class="b" d="M1139.13,344.34V244.88h10.44v99.46Z" transform="translate(-8.52 -15.39)"/><path class="b" d="M1269.46,346.52l-49-56.12c-8.42-9.67-17.46-20.43-24.32-28.69l-.31.16c.31,9.2.31,18.55.31,27.59v54.88h-10.45V244.88h7.33l46.14,52.84c6.86,7.8,16.06,18.56,22.61,26.66l.31-.15c-.31-8.89-.31-17.93-.31-26.35v-53h10.45V346.52Z" transform="translate(-8.52 -15.39)"/><path class="b" d="M1381.55,259.06c-5.77-3.74-15.59-6.86-26.19-6.86-22.45,0-43.19,16.06-43.19,42.41,0,26.19,20.43,42.25,43.19,42.25,11.53,0,21-2.34,28.06-6.71l-2.49,10.6c-6.24,3.43-14.19,5.3-26.66,5.3-26.66,0-52.7-19.48-52.7-51.44,0-32.27,26.35-51.45,52.7-51.45,12.78,0,22.6,2.81,29.31,6.7Z" transform="translate(-8.52 -15.39)"/><path class="b" d="M380.68,333.66v10.71h-1.95V333.66H375v-1.75h9.49v1.75ZM397,344.37l-.6-8-4,8.07h-.74l-3.91-7.94-.6,7.88h-1.82l.94-12.46h1.28l4.58,9.36,4.51-9.36H398l.95,12.46Z" transform="translate(-8.52 -15.39)"/><path class="c" d="M244.05,231.72a74.13,74.13,0,1,1,13.15-42.1h27.54a101.66,101.66,0,1,0-9.1,42.1Z" transform="translate(-8.52 -15.39)"/><path class="c" d="M182.63,207.74h136c-9,67.06-66.59,118.93-136.07,118.93-75.7,0-137.28-61.58-137.28-137.28S106.82,52.1,182.52,52.1a137.44,137.44,0,0,1,129.76,92.38h38.39A174.17,174.17,0,0,0,182.52,15.39c-95.94,0-174,78.05-174,174s78.06,174,174,174a173.8,173.8,0,0,0,137.29-67.22v48.09h36.71V171H182.63Z" transform="translate(-8.52 -15.39)"/></svg>