<?xml version="1.0" encoding="utf-8"?>
<!-- Generator: Adobe Illustrator 25.1.0, SVG Export Plug-In . SVG Version: 6.00 Build 0)  -->
<svg version="1.1" id="Humane_Society_NewLogoPick_xA0_Image_1_"
	 xmlns="http://www.w3.org/2000/svg" xmlns:xlink="http://www.w3.org/1999/xlink" x="0px" y="0px" viewBox="0 0 635.04 427.68"
	 style="enable-background:new 0 0 635.04 427.68;" xml:space="preserve">
<style type="text/css">
	.st0{fill:#961A37;}
	.st1{stroke:#000000;stroke-width:2;stroke-miterlimit:10;}
	.st2{stroke:#000000;stroke-miterlimit:10;}
	.st3{stroke:#000000;stroke-width:1.5;stroke-miterlimit:10;}
	.st4{fill-rule:evenodd;clip-rule:evenodd;stroke:#000000;stroke-miterlimit:10;}
	.st5{stroke:#000000;stroke-width:0.25;stroke-miterlimit:10;}
</style>
<path class="st0" d="M215.02,128.84c0,0,6-60.5,80.5-60c0,0,58.15-3.5,82.65,50c0,0,44.68-74.67,123.35-45c0,0,43.31,16,45.48,69
	c0,0,6.02,37.5-60.98,94.5c0,0-78,58.5-82.5,112c0,0-1.7-53.5,61.8-105.73c0,0,71.2-53.11,71.87-97.11c0,0-0.67-76.67-87.17-65.17
	c0,0-48.5,4-72,52c0,0-31.88-60.5-86.62-56.38C291.39,76.96,233.9,74.46,215.02,128.84z"/>
<path class="st1" d="M62.12,173.63v34.75H60.2v-68.54h1.92v31.87h48v-31.87h1.92v68.54h-1.92v-34.75H62.12z"/>
<path class="st1" d="M159.94,208.38h-1.92v-12.19h-0.19c-1.82,7.58-8.06,13.34-17.76,13.34c-10.27,0-17.57-6.34-17.57-17.76v-32.73
	h1.92v32.45c0,11.42,7.3,16.13,15.65,16.13c11.81,0,17.95-9.7,17.95-20.64v-27.93h1.92V208.38z"/>
<path class="st1" d="M170.51,159.04h1.92v12.19h0.19c1.82-7.58,8.06-13.34,15.74-13.34c7.68-0.19,13.15,4.22,14.78,11.52h0.19
	c1.92-6.82,8.16-11.52,15.65-11.52c11.9,0,15.65,7.39,15.65,18.05v32.45h-1.92v-32.45c0-9.79-2.98-16.13-13.73-16.13
	c-9.7,0-15.36,8.06-15.46,17.28v31.29h-1.92v-31.68c0.1-9.12-2.3-16.89-13.25-16.89c-9.79,0-15.93,9.7-15.93,20.64v27.93h-1.92
	V159.04z"/>
<path class="st1" d="M245.1,174.31c0.48-9.31,6.62-16.41,18.81-16.41c8.74,0,16.03,3.36,16.32,14.11v31.39
	c0,3.74,3.55,3.36,6.24,3.07v1.92c-3.74,0.29-8.16,0.29-8.16-4.8v-6.43h-0.19c-1.92,6.34-9.41,12.38-19.58,12.38
	c-9.79,0-16.51-4.61-16.51-13.34c0-12.19,8.74-14.21,16.99-14.78c13.54-0.77,19.29-0.48,19.29-7.97c0-5.95-1.25-13.63-14.4-13.63
	c-10.27,0-16.22,5.28-16.89,14.49H245.1z M278.31,179.39h-0.19c-2.59,3.74-11.14,3.36-19.1,3.94c-7.78,0.58-15.07,2.3-15.07,12.86
	c0,5.66,3.65,11.42,14.4,11.42c12.86,0,19.97-9.41,19.97-19.1V179.39z"/>
<path class="st1" d="M291.37,159.04h1.92v12.19h0.19c1.82-7.58,8.06-13.34,17.76-13.34c10.27,0,17.57,6.34,17.57,17.76v32.73h-1.92
	v-32.45c0-11.42-7.29-16.13-15.65-16.13c-11.81,0-17.95,9.7-17.95,20.64v27.93h-1.92V159.04z"/>
<path class="st1" d="M338.41,184.1c0.19,13.25,5.47,23.52,19.49,23.52c10.17,0,17.66-5.66,19.29-16.32h1.92
	c-1.34,11.33-9.79,18.24-21.02,18.24c-15.26,0.19-21.6-11.14-21.6-25.82c0-16.41,10.46-25.82,21.6-25.82
	c15.36,0,22.17,12.67,21.6,26.21H338.41z M377.77,182.18c0.1-12.1-6.72-22.37-19.49-22.37c-10.66,0-19.2,8.54-19.87,22.37H377.77z"
	/>
<path class="st1" d="M210.49,239.54c-0.48-14.02-9.89-18.91-22.27-18.91c-9.7,0-21.5,3.46-21.5,15.74
	c0,12.38,11.9,13.82,23.61,16.61c12.77,3.26,23.42,4.8,23.42,19.1c0,12.96-12.48,18.43-24.19,18.43c-15.55,0-27.07-7.1-26.78-24.38
	h1.92c0,16.41,10.27,22.46,24.86,22.46c10.75,0,22.27-4.8,22.27-16.61c0-13.82-13.44-14.97-24-17.57
	c-11.14-2.59-23.04-4.61-23.04-18.05c0-13.63,12.38-17.66,23.42-17.66c13.44,0,23.52,5.47,24.19,20.83H210.49z"/>
<path class="st1" d="M241.13,227.39c14.4,0,22.17,12.38,22.17,25.82c0,13.54-7.78,25.82-22.27,25.82
	c-14.4,0-22.17-12.29-22.17-25.82C218.86,239.77,226.64,227.39,241.13,227.39z M241.13,277.12c13.15,0,20.25-11.42,20.25-23.9
	c0-12.29-7.1-23.9-20.25-23.9c-13.34,0-20.35,11.62-20.35,23.9C220.78,265.69,227.79,277.12,241.13,277.12z"/>
<path class="st1" d="M309.29,261.08c-1.06,11.04-9.02,17.95-20.16,17.95c-14.02,0-21.89-11.33-21.89-24.77
	c0-14.3,7.2-26.88,23.04-26.88c9.22,0,17.37,5.66,18.62,16.13h-1.92c-1.54-9.6-8.54-14.21-16.7-14.21
	c-15.74,0-21.12,13.34-21.12,24.96c0,12.09,6.91,22.85,19.97,22.85c9.7,0,17.47-6.14,18.24-16.03H309.29z"/>
<path class="st1" d="M317.74,219.04h-1.92v-9.7h1.92V219.04z M317.74,277.88h-1.92v-49.34h1.92V277.88z"/>
<path class="st1" d="M325.61,253.6c0.19,13.25,5.47,23.52,19.49,23.52c10.18,0,17.66-5.66,19.29-16.32h1.92
	c-1.34,11.33-9.79,18.24-21.02,18.24c-15.26,0.19-21.6-11.14-21.6-25.82c0-16.42,10.46-25.82,21.6-25.82
	c15.36,0,22.18,12.67,21.6,26.21H325.61z M364.97,251.68c0.1-12.09-6.72-22.37-19.49-22.37c-10.66,0-19.2,8.54-19.87,22.37H364.97z"
	/>
<path class="st1" d="M378.13,230.46v37.82c0,7.39,3.65,7.68,6.62,7.68c1.92,0,3.65-0.1,4.22-0.29v1.92c-1.15,0.1-1.73,0.29-4.7,0.29
	c-4.51,0-8.06-2.21-8.06-9.21v-38.21h-9.12v-1.92h9.12v-15.55h1.92v15.55h11.13v1.92H378.13z"/>
<path class="st1" d="M430.18,228.54h2.02l-22.75,59.42c-2.59,6.72-7.1,6.91-13.05,6.91v-1.92c6.53,0.1,9.21-0.38,11.52-6.33
	l3.55-9.22l-20.64-48.86h2.11l19.58,46.75L430.18,228.54z"/>
<line class="st2" x1="223.02" y1="334.84" x2="384.89" y2="334.84"/>
<line class="st3" x1="219.91" y1="334.84" x2="384.89" y2="334.84"/>
<line class="st3" x1="426.08" y1="334.84" x2="591.98" y2="334.84"/>
<g>
	<path class="st4" d="M439.18,102.87c2.88-0.29,5.8,1,7.8,2.69c7.93,6.69,11.5,25.81,3.9,34.81c-1.97,2.33-5.76,4.18-9.81,2.82
		c-7.6-2.54-12.2-13.26-12.23-22.98c-0.03-7.37,2.27-13.9,7.26-16.53C436.95,103.23,438.02,102.99,439.18,102.87z"/>
	<path class="st4" d="M477.62,104.62c4.04-0.23,6.98,2.44,8.47,5.11c2.95,5.27,2.4,14.8,0.27,20.7c-2.2,6.07-6.36,11.51-11.16,13.57
		c-1.59,0.69-4.85,1.27-7.26,0.27c-4.76-1.99-6.96-7.87-6.99-14.38c-0.04-8.96,4.49-17.95,9-21.91
		C471.85,106.32,474.25,104.81,477.62,104.62z"/>
	<path class="st4" d="M414.32,133.38c1.7-0.17,4.14,0.23,5.51,0.81c4.49,1.87,8.31,6.37,10.62,11.96
		c3.38,8.16,2.77,20.73-5.92,22.71c-1.48,0.34-3.63,0.11-4.7-0.13c-7.56-1.74-13.99-11.12-14.65-20.16
		c-0.48-6.61,1.47-11.97,5.64-14.25C411.71,133.84,413.11,133.5,414.32,133.38z"/>
	<path class="st4" d="M496.98,140.37c7.1-0.76,10.65,5.2,11.02,11.83c0.58,10.56-6.42,20.41-13.58,22.98
		c-7.87,2.83-13.04-3.14-13.84-9.95c-0.44-3.75-0.09-6.91,1.34-10.89c2.18-6.03,6.28-11.14,11.83-13.31
		C494.64,140.69,495.39,140.54,496.98,140.37z"/>
	<path class="st4" d="M455.85,155.96c4.68-0.12,9.48,2.88,12.5,5.38c3.64,3.01,6.2,5.82,8.74,9.14c2.32,3.03,4.75,6.65,6.85,11.02
		c1.96,4.07,5.53,11.18,3.49,16.66c-0.86,2.33-2.83,3.61-4.7,4.97c-2.03,1.47-4.36,2.6-6.85,2.82c-6.58,0.58-11.53-4.46-17.74-4.57
		c-0.09,0-0.18-0.01-0.27,0c-7.67,0.47-19.37,6.81-29.43,3.49c-3.99-1.31-7.38-3.84-6.99-9.81c0.29-4.44,2.47-9.24,4.44-12.9
		c4.16-7.75,9.03-13.81,15.32-19.22c3.1-2.66,6.8-5.27,10.75-6.45C452.93,156.2,454.38,156,455.85,155.96z"/>
</g>
<g>
	<path class="st5" d="M234.05,298.81v2.01h-8.63v22.73h-2.36v-22.73h-8.59v-2.01H234.05z"/>
	<path class="st5" d="M232.56,308.44c0.37-0.76,0.87-1.38,1.51-1.87c0.64-0.48,1.38-0.84,2.23-1.07c0.85-0.23,1.8-0.35,2.84-0.35
		c0.79,0,1.57,0.08,2.36,0.23c0.78,0.15,1.49,0.43,2.11,0.85c0.62,0.41,1.13,1,1.52,1.75c0.39,0.75,0.59,1.73,0.59,2.93v9.49
		c0,0.88,0.43,1.32,1.28,1.32c0.25,0,0.48-0.05,0.69-0.14v1.84c-0.26,0.05-0.48,0.08-0.68,0.1c-0.2,0.02-0.45,0.03-0.75,0.03
		c-0.55,0-1-0.07-1.33-0.23c-0.34-0.15-0.59-0.36-0.78-0.64c-0.18-0.28-0.31-0.61-0.36-0.99c-0.06-0.38-0.09-0.8-0.09-1.27h-0.07
		c-0.39,0.58-0.79,1.09-1.2,1.54c-0.4,0.45-0.85,0.83-1.35,1.13c-0.5,0.3-1.06,0.53-1.7,0.69c-0.64,0.16-1.39,0.24-2.27,0.24
		c-0.83,0-1.61-0.1-2.34-0.29c-0.73-0.2-1.36-0.51-1.9-0.94c-0.54-0.43-0.97-0.97-1.28-1.63c-0.31-0.66-0.47-1.44-0.47-2.34
		c0-1.25,0.28-2.22,0.83-2.93c0.55-0.7,1.29-1.24,2.2-1.61c0.91-0.37,1.94-0.63,3.08-0.78c1.14-0.15,2.3-0.3,3.48-0.43
		c0.46-0.05,0.87-0.1,1.21-0.17c0.35-0.07,0.64-0.19,0.87-0.36c0.23-0.17,0.41-0.41,0.54-0.71c0.13-0.3,0.19-0.69,0.19-1.18
		c0-0.74-0.12-1.34-0.36-1.82c-0.24-0.47-0.58-0.85-1.01-1.13c-0.43-0.28-0.92-0.47-1.49-0.57c-0.57-0.1-1.17-0.16-1.82-0.16
		c-1.39,0-2.52,0.33-3.4,0.99c-0.88,0.66-1.34,1.71-1.39,3.17h-2.18C231.97,310.1,232.19,309.2,232.56,308.44z M243.47,313.78
		c-0.14,0.25-0.4,0.44-0.8,0.55s-0.74,0.2-1.04,0.24c-0.92,0.16-1.88,0.31-2.86,0.43c-0.98,0.13-1.88,0.32-2.68,0.57
		c-0.81,0.25-1.47,0.62-1.99,1.09c-0.52,0.47-0.78,1.15-0.78,2.03c0,0.55,0.11,1.04,0.33,1.47c0.22,0.43,0.51,0.8,0.88,1.11
		c0.37,0.31,0.8,0.55,1.28,0.71c0.48,0.16,0.98,0.24,1.49,0.24c0.83,0,1.63-0.13,2.39-0.38c0.76-0.25,1.43-0.62,1.99-1.11
		c0.57-0.48,1.02-1.07,1.35-1.77c0.34-0.69,0.5-1.48,0.5-2.36v-2.84H243.47z"/>
	<path class="st5" d="M252.1,305.67v3.01h0.1c0.58-1.11,1.33-1.97,2.27-2.6c0.94-0.62,2.13-0.94,3.59-0.94
		c1.18,0,2.25,0.29,3.2,0.87c0.96,0.58,1.6,1.45,1.92,2.63c0.53-1.18,1.32-2.06,2.36-2.63c1.04-0.58,2.15-0.87,3.33-0.87
		c3.95,0,5.92,2.09,5.92,6.27v12.13h-2.18v-12.02c0-1.48-0.31-2.6-0.94-3.38c-0.62-0.77-1.72-1.16-3.29-1.16
		c-0.95,0-1.73,0.18-2.36,0.54c-0.62,0.36-1.12,0.84-1.49,1.44c-0.37,0.6-0.63,1.29-0.78,2.06c-0.15,0.77-0.23,1.58-0.23,2.41v10.12
		h-2.18v-12.13c0-0.6-0.06-1.17-0.19-1.71c-0.13-0.54-0.34-1.02-0.62-1.42c-0.29-0.4-0.68-0.72-1.16-0.95
		c-0.48-0.23-1.07-0.35-1.77-0.35c-0.92,0-1.73,0.17-2.41,0.5c-0.68,0.33-1.24,0.8-1.66,1.38c-0.43,0.59-0.75,1.28-0.95,2.08
		c-0.21,0.8-0.31,1.67-0.31,2.62v9.98h-2.18v-17.88H252.1z"/>
	<path class="st5" d="M280.96,305.67v3.4h0.07c0.51-1.25,1.33-2.21,2.48-2.89c1.14-0.68,2.44-1.02,3.9-1.02
		c1.36,0,2.55,0.25,3.55,0.76c1.01,0.51,1.84,1.2,2.51,2.06c0.67,0.87,1.17,1.87,1.49,3.01c0.32,1.14,0.48,2.35,0.48,3.62
		c0,1.27-0.16,2.48-0.48,3.62c-0.32,1.14-0.82,2.15-1.49,3.01c-0.67,0.87-1.51,1.55-2.51,2.04c-1.01,0.5-2.19,0.74-3.55,0.74
		c-0.65,0-1.29-0.08-1.94-0.24c-0.65-0.16-1.25-0.4-1.8-0.73c-0.55-0.32-1.05-0.73-1.47-1.21c-0.43-0.48-0.76-1.05-0.99-1.7h-0.07
		v9.98h-2.18v-24.46H280.96z M292.93,311.85c-0.22-0.91-0.57-1.73-1.04-2.44c-0.47-0.71-1.08-1.3-1.82-1.75
		c-0.74-0.45-1.63-0.68-2.67-0.68c-1.2,0-2.21,0.21-3.01,0.63c-0.81,0.41-1.45,0.97-1.94,1.66c-0.48,0.69-0.83,1.5-1.02,2.43
		c-0.2,0.92-0.29,1.89-0.29,2.91c0,0.92,0.11,1.84,0.33,2.75c0.22,0.91,0.58,1.73,1.07,2.44c0.5,0.72,1.14,1.3,1.94,1.75
		c0.8,0.45,1.77,0.68,2.93,0.68c1.04,0,1.93-0.23,2.67-0.68c0.74-0.45,1.35-1.03,1.82-1.75c0.47-0.72,0.82-1.53,1.04-2.44
		c0.22-0.91,0.33-1.83,0.33-2.75C293.26,313.68,293.15,312.77,292.93,311.85z"/>
	<path class="st5" d="M299.29,308.44c0.37-0.76,0.87-1.38,1.51-1.87c0.64-0.48,1.38-0.84,2.23-1.07c0.85-0.23,1.8-0.35,2.84-0.35
		c0.79,0,1.57,0.08,2.36,0.23c0.78,0.15,1.49,0.43,2.11,0.85c0.62,0.41,1.13,1,1.52,1.75c0.39,0.75,0.59,1.73,0.59,2.93v9.49
		c0,0.88,0.43,1.32,1.28,1.32c0.25,0,0.48-0.05,0.69-0.14v1.84c-0.26,0.05-0.48,0.08-0.68,0.1c-0.2,0.02-0.45,0.03-0.75,0.03
		c-0.55,0-1-0.07-1.33-0.23c-0.34-0.15-0.59-0.36-0.78-0.64c-0.18-0.28-0.31-0.61-0.36-0.99c-0.06-0.38-0.09-0.8-0.09-1.27h-0.07
		c-0.39,0.58-0.79,1.09-1.2,1.54c-0.4,0.45-0.85,0.83-1.35,1.13c-0.5,0.3-1.06,0.53-1.7,0.69c-0.64,0.16-1.39,0.24-2.27,0.24
		c-0.83,0-1.61-0.1-2.34-0.29c-0.73-0.2-1.36-0.51-1.9-0.94c-0.54-0.43-0.97-0.97-1.28-1.63c-0.31-0.66-0.47-1.44-0.47-2.34
		c0-1.25,0.28-2.22,0.83-2.93c0.55-0.7,1.29-1.24,2.2-1.61c0.91-0.37,1.94-0.63,3.08-0.78c1.14-0.15,2.3-0.3,3.48-0.43
		c0.46-0.05,0.87-0.1,1.21-0.17c0.35-0.07,0.64-0.19,0.87-0.36c0.23-0.17,0.41-0.41,0.54-0.71c0.13-0.3,0.19-0.69,0.19-1.18
		c0-0.74-0.12-1.34-0.36-1.82c-0.24-0.47-0.58-0.85-1.01-1.13c-0.43-0.28-0.92-0.47-1.49-0.57c-0.57-0.1-1.17-0.16-1.82-0.16
		c-1.39,0-2.52,0.33-3.4,0.99c-0.88,0.66-1.34,1.71-1.39,3.17h-2.18C298.7,310.1,298.92,309.2,299.29,308.44z M310.2,313.78
		c-0.14,0.25-0.4,0.44-0.8,0.55s-0.74,0.2-1.04,0.24c-0.92,0.16-1.88,0.31-2.86,0.43c-0.98,0.13-1.88,0.32-2.68,0.57
		c-0.81,0.25-1.47,0.62-1.99,1.09c-0.52,0.47-0.78,1.15-0.78,2.03c0,0.55,0.11,1.04,0.33,1.47s0.51,0.8,0.88,1.11
		c0.37,0.31,0.8,0.55,1.28,0.71c0.48,0.16,0.98,0.24,1.49,0.24c0.83,0,1.63-0.13,2.39-0.38c0.76-0.25,1.43-0.62,1.99-1.11
		c0.57-0.48,1.02-1.07,1.35-1.77c0.34-0.69,0.5-1.48,0.5-2.36v-2.84H310.2z"/>
	<path class="st5" d="M337.33,298.81c1.04,0,2.04,0.1,3,0.3c0.96,0.2,1.8,0.53,2.53,1c0.73,0.47,1.31,1.1,1.75,1.87
		c0.44,0.77,0.66,1.74,0.66,2.89c0,0.65-0.1,1.28-0.31,1.89c-0.21,0.61-0.5,1.17-0.88,1.66c-0.38,0.5-0.83,0.92-1.35,1.27
		s-1.1,0.59-1.75,0.73v0.07c1.59,0.21,2.86,0.86,3.81,1.96s1.42,2.45,1.42,4.07c0,0.39-0.04,0.84-0.1,1.33
		c-0.07,0.5-0.21,1-0.42,1.52c-0.21,0.52-0.51,1.03-0.9,1.54c-0.39,0.51-0.92,0.95-1.58,1.33s-1.47,0.69-2.42,0.94
		c-0.96,0.24-2.11,0.36-3.45,0.36h-10.46v-24.74H337.33z M337.33,309.65c0.95,0,1.77-0.11,2.46-0.33c0.69-0.22,1.27-0.52,1.73-0.9
		c0.46-0.38,0.81-0.83,1.04-1.33c0.23-0.51,0.35-1.05,0.35-1.63c0-3.1-1.86-4.64-5.58-4.64h-8.11v8.84H337.33z M337.33,321.54
		c0.88,0,1.71-0.07,2.5-0.23c0.79-0.15,1.48-0.42,2.08-0.81c0.6-0.39,1.07-0.92,1.42-1.58c0.35-0.66,0.52-1.49,0.52-2.48
		c0-1.59-0.56-2.79-1.68-3.59c-1.12-0.8-2.73-1.2-4.83-1.2h-8.11v9.87H337.33z"/>
	<path class="st5" d="M350.01,308.44c0.37-0.76,0.87-1.38,1.51-1.87c0.64-0.48,1.38-0.84,2.23-1.07c0.85-0.23,1.8-0.35,2.84-0.35
		c0.79,0,1.57,0.08,2.36,0.23c0.78,0.15,1.49,0.43,2.11,0.85c0.62,0.41,1.13,1,1.52,1.75c0.39,0.75,0.59,1.73,0.59,2.93v9.49
		c0,0.88,0.43,1.32,1.28,1.32c0.25,0,0.48-0.05,0.69-0.14v1.84c-0.26,0.05-0.48,0.08-0.68,0.1c-0.2,0.02-0.45,0.03-0.75,0.03
		c-0.55,0-1-0.07-1.33-0.23c-0.34-0.15-0.59-0.36-0.78-0.64c-0.18-0.28-0.31-0.61-0.36-0.99c-0.06-0.38-0.09-0.8-0.09-1.27h-0.07
		c-0.39,0.58-0.79,1.09-1.2,1.54c-0.4,0.45-0.85,0.83-1.35,1.13c-0.5,0.3-1.06,0.53-1.7,0.69c-0.64,0.16-1.39,0.24-2.27,0.24
		c-0.83,0-1.61-0.1-2.34-0.29c-0.73-0.2-1.36-0.51-1.9-0.94c-0.54-0.43-0.97-0.97-1.28-1.63c-0.31-0.66-0.47-1.44-0.47-2.34
		c0-1.25,0.28-2.22,0.83-2.93c0.55-0.7,1.29-1.24,2.2-1.61c0.91-0.37,1.94-0.63,3.08-0.78c1.14-0.15,2.3-0.3,3.48-0.43
		c0.46-0.05,0.87-0.1,1.21-0.17c0.35-0.07,0.64-0.19,0.87-0.36c0.23-0.17,0.41-0.41,0.54-0.71c0.13-0.3,0.19-0.69,0.19-1.18
		c0-0.74-0.12-1.34-0.36-1.82c-0.24-0.47-0.58-0.85-1.01-1.13c-0.43-0.28-0.92-0.47-1.49-0.57c-0.57-0.1-1.17-0.16-1.82-0.16
		c-1.39,0-2.52,0.33-3.4,0.99c-0.88,0.66-1.34,1.71-1.39,3.17h-2.18C349.42,310.1,349.64,309.2,350.01,308.44z M360.92,313.78
		c-0.14,0.25-0.4,0.44-0.8,0.55c-0.39,0.12-0.74,0.2-1.04,0.24c-0.92,0.16-1.88,0.31-2.86,0.43c-0.98,0.13-1.88,0.32-2.68,0.57
		c-0.81,0.25-1.47,0.62-1.99,1.09c-0.52,0.47-0.78,1.15-0.78,2.03c0,0.55,0.11,1.04,0.33,1.47s0.51,0.8,0.88,1.11
		c0.37,0.31,0.8,0.55,1.28,0.71c0.48,0.16,0.98,0.24,1.49,0.24c0.83,0,1.63-0.13,2.39-0.38c0.76-0.25,1.43-0.62,1.99-1.11
		c0.57-0.48,1.02-1.07,1.35-1.77c0.34-0.69,0.5-1.48,0.5-2.36v-2.84H360.92z"/>
	<path class="st5" d="M367.85,305.67l5.89,15.25l5.51-15.25h2.18l-7.76,20.58c-0.32,0.76-0.62,1.39-0.9,1.89
		c-0.28,0.5-0.58,0.89-0.92,1.18c-0.33,0.29-0.73,0.5-1.18,0.62c-0.45,0.13-1.02,0.19-1.72,0.19c-0.44-0.03-0.78-0.04-1.02-0.05
		c-0.24-0.01-0.46-0.05-0.64-0.12v-1.84c0.25,0.05,0.5,0.09,0.74,0.12s0.49,0.05,0.74,0.05c0.48,0,0.88-0.07,1.2-0.21
		c0.31-0.14,0.58-0.33,0.81-0.57c0.23-0.24,0.43-0.54,0.59-0.88c0.16-0.35,0.34-0.73,0.52-1.14l0.76-2.01l-7.14-17.81H367.85z"/>
	<path class="st5" d="M435.32,318.61c0.42,0.85,0.99,1.54,1.71,2.04c0.73,0.51,1.59,0.87,2.58,1.09c0.99,0.22,2.06,0.33,3.19,0.33
		c0.65,0,1.35-0.09,2.11-0.28c0.76-0.18,1.47-0.48,2.13-0.88c0.66-0.4,1.21-0.92,1.65-1.56c0.44-0.63,0.66-1.4,0.66-2.3
		c0-0.69-0.16-1.29-0.47-1.8c-0.31-0.51-0.72-0.94-1.21-1.28c-0.5-0.35-1.04-0.63-1.65-0.85c-0.6-0.22-1.19-0.4-1.77-0.54
		l-5.51-1.35c-0.72-0.18-1.42-0.41-2.1-0.69c-0.68-0.28-1.28-0.65-1.78-1.11c-0.51-0.46-0.92-1.03-1.23-1.7
		c-0.31-0.67-0.47-1.49-0.47-2.46c0-0.6,0.12-1.31,0.35-2.11c0.23-0.81,0.66-1.57,1.3-2.29c0.64-0.71,1.51-1.32,2.62-1.82
		c1.11-0.5,2.53-0.74,4.26-0.74c1.22,0,2.39,0.16,3.5,0.48c1.11,0.32,2.08,0.81,2.91,1.45c0.83,0.65,1.5,1.45,1.99,2.41
		c0.5,0.96,0.75,2.08,0.75,3.34h-2.36c-0.05-0.95-0.26-1.77-0.64-2.48c-0.38-0.7-0.88-1.29-1.49-1.77
		c-0.61-0.47-1.32-0.83-2.11-1.07c-0.8-0.24-1.63-0.36-2.51-0.36c-0.81,0-1.59,0.08-2.34,0.26c-0.75,0.17-1.41,0.45-1.97,0.83
		c-0.57,0.38-1.02,0.88-1.37,1.51c-0.35,0.63-0.52,1.4-0.52,2.32c0,0.58,0.1,1.08,0.29,1.51c0.2,0.43,0.47,0.79,0.81,1.09
		c0.35,0.3,0.74,0.54,1.19,0.73c0.45,0.19,0.93,0.34,1.44,0.45l6.03,1.49c0.88,0.23,1.7,0.52,2.48,0.85
		c0.77,0.34,1.45,0.75,2.04,1.25c0.59,0.5,1.05,1.1,1.39,1.82c0.33,0.72,0.5,1.58,0.5,2.6c0,0.28-0.03,0.65-0.09,1.11
		c-0.06,0.46-0.2,0.95-0.42,1.47c-0.22,0.52-0.53,1.05-0.94,1.58c-0.4,0.53-0.96,1.01-1.66,1.44c-0.7,0.43-1.58,0.78-2.62,1.04
		s-2.29,0.4-3.74,0.4c-1.45,0-2.81-0.17-4.05-0.5c-1.25-0.34-2.31-0.85-3.19-1.54c-0.88-0.69-1.56-1.58-2.03-2.67
		c-0.47-1.09-0.68-2.39-0.61-3.92h2.36C434.7,316.69,434.9,317.75,435.32,318.61z"/>
	<path class="st5" d="M457.25,298.82v3.5h-2.18v-3.5H457.25z M457.25,305.68v17.88h-2.18v-17.88H457.25z"/>
	<path class="st5" d="M463.59,305.68v3.08h0.07c0.42-1.09,1.15-1.96,2.22-2.62c1.06-0.66,2.23-0.99,3.5-0.99
		c1.25,0,2.29,0.16,3.14,0.48c0.84,0.32,1.52,0.78,2.03,1.37c0.51,0.59,0.87,1.31,1.07,2.17c0.21,0.86,0.31,1.82,0.31,2.88v11.5
		h-2.18v-11.16c0-0.76-0.07-1.47-0.21-2.13c-0.14-0.66-0.38-1.23-0.73-1.72c-0.35-0.48-0.81-0.87-1.4-1.14
		c-0.59-0.28-1.32-0.42-2.2-0.42c-0.88,0-1.66,0.16-2.34,0.47c-0.68,0.31-1.26,0.74-1.73,1.28c-0.47,0.54-0.84,1.19-1.11,1.94
		c-0.27,0.75-0.41,1.56-0.43,2.44v10.43h-2.18v-17.88H463.59z"/>
	<path class="st5" d="M490.99,308.15c-0.81-0.76-1.94-1.14-3.4-1.14c-1.04,0-1.95,0.22-2.74,0.66c-0.79,0.44-1.44,1.02-1.96,1.73
		c-0.52,0.72-0.91,1.53-1.18,2.44c-0.27,0.91-0.4,1.84-0.4,2.79c0,0.95,0.13,1.88,0.4,2.79c0.27,0.91,0.66,1.73,1.18,2.44
		c0.52,0.72,1.17,1.29,1.96,1.73c0.78,0.44,1.7,0.66,2.74,0.66c0.67,0,1.31-0.13,1.91-0.38c0.6-0.25,1.13-0.61,1.59-1.06
		s0.84-0.99,1.14-1.61s0.48-1.31,0.56-2.04h2.18c-0.3,2.17-1.1,3.86-2.39,5.08c-1.29,1.21-2.96,1.82-4.99,1.82
		c-1.36,0-2.57-0.25-3.62-0.74c-1.05-0.5-1.93-1.17-2.65-2.03c-0.72-0.85-1.26-1.85-1.63-3c-0.37-1.14-0.55-2.36-0.55-3.65
		c0-1.29,0.18-2.51,0.55-3.66c0.37-1.14,0.91-2.14,1.63-3c0.72-0.85,1.6-1.53,2.65-2.04c1.05-0.51,2.26-0.76,3.62-0.76
		c1.92,0,3.54,0.51,4.87,1.53c1.33,1.02,2.12,2.55,2.37,4.61h-2.18C492.36,309.96,491.8,308.91,490.99,308.15z"/>
	<path class="st5" d="M499.64,317.66c0.22,0.84,0.57,1.6,1.06,2.27c0.48,0.67,1.1,1.22,1.84,1.66c0.74,0.44,1.63,0.66,2.67,0.66
		c1.59,0,2.84-0.41,3.74-1.25s1.52-1.94,1.87-3.33h2.18c-0.46,2.03-1.31,3.6-2.55,4.71c-1.24,1.11-2.99,1.66-5.25,1.66
		c-1.41,0-2.63-0.25-3.66-0.74c-1.03-0.5-1.87-1.18-2.51-2.04s-1.13-1.87-1.44-3.01c-0.31-1.14-0.47-2.35-0.47-3.62
		c0-1.18,0.16-2.33,0.47-3.47c0.31-1.13,0.79-2.14,1.44-3.03c0.65-0.89,1.48-1.61,2.51-2.15c1.03-0.54,2.25-0.81,3.66-0.81
		c1.43,0,2.66,0.29,3.67,0.87c1.02,0.58,1.84,1.33,2.48,2.27c0.63,0.94,1.09,2.01,1.37,3.22c0.28,1.21,0.39,2.44,0.35,3.69h-13.76
		C499.31,316,499.42,316.81,499.64,317.66z M510.45,310.98c-0.27-0.76-0.64-1.44-1.13-2.02c-0.48-0.59-1.07-1.06-1.77-1.42
		c-0.69-0.36-1.48-0.54-2.36-0.54c-0.9,0-1.7,0.18-2.39,0.54c-0.69,0.36-1.28,0.83-1.77,1.42c-0.48,0.59-0.87,1.27-1.16,2.04
		c-0.29,0.77-0.48,1.56-0.57,2.37h11.57C510.86,312.54,510.71,311.75,510.45,310.98z"/>
	<path class="st5" d="M524.51,303.83c0.77-0.08,1.44-0.27,2.01-0.57c0.57-0.3,1.04-0.76,1.42-1.37c0.38-0.61,0.65-1.47,0.81-2.58
		h1.77v24.25h-2.18v-18.02h-6.41v-1.56C522.87,303.96,523.73,303.91,524.51,303.83z"/>
	<path class="st5" d="M540.39,321c0.89,0.83,2.04,1.25,3.45,1.25c1.43,0,2.58-0.36,3.45-1.07c0.87-0.72,1.54-1.62,2.03-2.7
		c0.48-1.09,0.81-2.26,0.97-3.52c0.16-1.26,0.24-2.44,0.24-3.55h-0.07c-0.58,1.2-1.45,2.17-2.62,2.91s-2.44,1.11-3.83,1.11
		c-1.2,0-2.3-0.2-3.29-0.61c-0.99-0.4-1.84-0.96-2.53-1.68c-0.69-0.72-1.23-1.57-1.61-2.56c-0.38-0.99-0.57-2.08-0.57-3.26
		c0-1.18,0.2-2.27,0.61-3.27c0.4-1.01,0.97-1.87,1.7-2.6c0.73-0.73,1.59-1.3,2.6-1.71c1.01-0.42,2.11-0.62,3.31-0.62
		c1.48,0,2.75,0.23,3.81,0.67c1.06,0.45,1.94,1.19,2.63,2.22c0.69,1.03,1.21,2.36,1.54,4c0.33,1.64,0.5,3.64,0.5,5.99
		c0,0.48-0.03,1.12-0.09,1.91c-0.06,0.78-0.19,1.62-0.4,2.51c-0.21,0.89-0.5,1.79-0.88,2.7c-0.38,0.91-0.89,1.73-1.52,2.46
		c-0.64,0.73-1.43,1.32-2.37,1.78c-0.95,0.46-2.08,0.69-3.4,0.69c-2.17,0-3.89-0.51-5.16-1.54c-1.27-1.03-2.03-2.62-2.29-4.76h2.18
		C538.96,319.08,539.5,320.17,540.39,321z M546.59,313.08c0.75-0.34,1.39-0.79,1.9-1.37c0.52-0.58,0.91-1.25,1.18-2.03
		c0.27-0.78,0.4-1.61,0.4-2.51c0-0.88-0.12-1.69-0.35-2.44c-0.23-0.75-0.59-1.41-1.09-1.97c-0.5-0.57-1.13-1.01-1.89-1.33
		s-1.67-0.48-2.74-0.48c-0.86,0-1.64,0.17-2.36,0.5s-1.33,0.79-1.85,1.35c-0.52,0.57-0.92,1.23-1.2,1.99
		c-0.28,0.76-0.42,1.56-0.42,2.39c0,0.88,0.13,1.71,0.4,2.5c0.27,0.78,0.65,1.47,1.14,2.04c0.5,0.58,1.11,1.03,1.84,1.37
		s1.55,0.5,2.48,0.5C544.99,313.58,545.84,313.42,546.59,313.08z"/>
	<path class="st5" d="M560.03,303.83c0.77-0.08,1.44-0.27,2.01-0.57c0.57-0.3,1.04-0.76,1.42-1.37c0.38-0.61,0.65-1.47,0.81-2.58
		h1.77v24.25h-2.18v-18.02h-6.41v-1.56C558.4,303.96,559.26,303.91,560.03,303.83z"/>
	<path class="st5" d="M571.6,323.56c0.02-1.2,0.23-2.26,0.62-3.19c0.39-0.92,0.91-1.76,1.56-2.5c0.65-0.74,1.37-1.42,2.18-2.03
		c0.81-0.61,1.64-1.2,2.5-1.77c0.85-0.56,1.7-1.14,2.55-1.73c0.84-0.59,1.6-1.22,2.27-1.89c0.67-0.67,1.17-1.36,1.51-2.06
		c0.33-0.7,0.5-1.54,0.5-2.51c0-0.78-0.14-1.48-0.43-2.1c-0.29-0.61-0.68-1.13-1.18-1.56c-0.5-0.43-1.07-0.75-1.73-0.97
		s-1.36-0.33-2.1-0.33c-0.99,0-1.84,0.19-2.55,0.56c-0.7,0.37-1.28,0.87-1.71,1.49c-0.44,0.62-0.76,1.34-0.95,2.15
		c-0.2,0.81-0.28,1.66-0.26,2.56h-2.18c-0.02-1.25,0.12-2.4,0.43-3.45c0.31-1.05,0.79-1.96,1.44-2.72c0.65-0.76,1.46-1.36,2.44-1.78
		c0.98-0.43,2.13-0.64,3.45-0.64c1.06,0,2.05,0.14,2.96,0.43c0.91,0.29,1.71,0.72,2.39,1.28c0.68,0.57,1.21,1.28,1.59,2.13
		c0.38,0.85,0.57,1.85,0.57,2.98c0,1.02-0.17,1.94-0.5,2.77c-0.34,0.83-0.79,1.6-1.35,2.29c-0.57,0.69-1.21,1.34-1.94,1.92
		c-0.73,0.59-1.5,1.14-2.3,1.65c-0.58,0.39-1.26,0.83-2.04,1.3c-0.79,0.47-1.54,1-2.27,1.58c-0.73,0.58-1.37,1.21-1.92,1.89
		c-0.55,0.68-0.9,1.43-1.04,2.23h13.48v2.01H571.6z"/>
</g>
</svg>
