<?xml version="1.0" encoding="UTF-8" standalone="no"?><!-- Generator: Gravit.io --><svg xmlns="http://www.w3.org/2000/svg" xmlns:xlink="http://www.w3.org/1999/xlink" style="isolation:isolate" viewBox="0 0 406.328 82.646" width="406.328pt" height="82.646pt"><defs><clipPath id="_clipPath_vtdZsGhZZU7yAyl6QohymZvj7mmkxdf6"><rect width="406.328" height="82.646"/></clipPath></defs><g clip-path="url(#_clipPath_vtdZsGhZZU7yAyl6QohymZvj7mmkxdf6)"><clipPath id="_clipPath_I4gjF9OYoMFqMDzvWeBJArvNLRLUn24Q"><path d=" M 0 0 L 0 82.646 L 406.328 82.646 L 406.328 0 L 0 0 Z " fill="rgb(255,255,255)"/></clipPath><g clip-path="url(#_clipPath_I4gjF9OYoMFqMDzvWeBJArvNLRLUn24Q)"><path d=" M 111.152 27.815 L 118.147 27.815 L 118.147 68.605 L 111.152 68.605 L 111.152 27.815 Z " fill="rgb(35,91,168)"/><path d=" M 146.559 65.536 C 156.569 65.536 163.724 60.964 163.724 48.21 C 163.724 35.402 156.569 30.88 146.559 30.88 L 141.393 30.88 L 141.393 65.536 L 146.559 65.536 Z  M 134.397 68.605 L 134.397 27.815 L 146.559 27.815 C 160.657 27.815 171.528 34.379 171.528 47.886 C 171.528 61.447 160.657 68.605 146.881 68.605 L 134.397 68.605 Z " fill="rgb(35,91,168)"/><path d=" M 218.558 49.663 C 218.558 36.909 212.261 29.752 204.081 29.752 C 197.033 29.752 190.145 34.649 190.145 46.433 C 190.145 59.186 196.386 66.344 204.675 66.344 C 211.67 66.344 218.558 61.447 218.558 49.663 Z  M 182.341 48.05 C 182.341 34.973 192.673 26.792 204.35 26.792 C 216.028 26.792 226.36 34.973 226.36 48.05 C 226.36 61.124 216.028 69.303 204.35 69.303 C 192.673 69.303 182.341 61.124 182.341 48.05 Z " fill="rgb(35,91,168)"/><path d=" M 269.705 57.897 L 269.705 27.815 L 273.312 27.815 L 273.312 68.605 L 269.705 68.605 L 242.422 38.092 L 242.422 68.605 L 238.817 68.605 L 238.817 27.815 L 242.422 27.815 L 269.705 57.897 Z " fill="rgb(35,91,168)"/><path d=" M 289.56 27.815 L 317.058 27.815 L 317.058 31.095 L 296.554 31.095 L 296.554 45.734 L 313.829 45.734 L 313.829 49.018 L 296.554 49.018 L 296.554 65.321 L 317.058 65.321 L 317.058 68.605 L 289.56 68.605 L 289.56 27.815 Z " fill="rgb(35,91,168)"/><path d=" M 330.241 53.376 L 330.241 27.815 L 337.18 27.815 L 337.18 52.946 C 337.18 62.416 341.057 65.86 348.968 65.86 C 357.899 65.86 361.074 60.802 361.074 52.084 L 361.074 27.815 L 364.681 27.815 L 364.681 52.783 C 364.681 63.977 358.976 69.303 347.137 69.303 C 336.321 69.303 330.241 64.352 330.241 53.376 Z " fill="rgb(35,91,168)"/><path d=" M 379.799 67.152 L 377.268 54.884 L 379.369 54.884 L 383.781 63.33 C 385.179 66.023 388.085 66.453 391.474 66.453 C 396.211 66.453 399.924 63.814 399.924 59.456 C 399.924 54.884 397.018 53.216 391.208 51.224 L 388.248 50.202 C 381.735 47.94 377.967 44.122 377.967 38.038 C 377.967 30.666 385.34 26.792 393.145 26.792 C 396.319 26.792 399.709 27.167 402.29 28.354 L 404.282 40.029 L 402.184 40.029 L 398.58 32.497 C 397.448 30.076 395.242 29.697 392.337 29.697 C 387.978 29.697 384.211 31.849 384.211 35.672 C 384.211 39.116 385.879 41.592 390.236 43.098 L 393.196 44.122 C 400.787 46.758 406.328 49.663 406.328 57.144 C 406.328 64.676 398.956 69.303 391.098 69.303 C 386.901 69.303 383.348 68.659 379.799 67.152 Z " fill="rgb(35,91,168)"/><path d=" M 80.702 67.252 L 55.804 67.252 C 55.795 67.83 55.778 68.213 55.776 68.264 L 55.734 69.189 L 53.807 69.189 L 53.807 80.705 L 15.383 80.709 L 15.383 55.742 L 29.998 55.742 C 30.261 55.333 30.531 54.882 30.815 54.33 C 30.895 54.176 30.969 54 31.04 53.804 L 1.937 53.804 L 1.937 15.383 L 28.411 15.383 L 53.808 15.383 L 53.815 26.898 L 52.119 26.897 L 52.119 28.834 L 80.708 28.84 L 80.702 67.252 Z  M 28.829 1.937 L 67.257 1.937 L 67.261 26.9 L 55.752 26.898 L 55.744 13.446 L 28.829 13.446 L 28.829 1.937 Z  M 69.198 26.901 L 69.193 0 L 26.892 0 L 26.892 13.446 L 0 13.446 L 0 55.742 L 13.446 55.742 L 13.446 82.646 L 55.734 82.642 L 55.734 69.189 L 82.639 69.189 L 82.645 26.903 L 69.198 26.901 Z " fill="rgb(35,91,168)"/><path d=" M 13.451 42.292 L 32.519 42.291 C 32.581 41.566 32.641 40.909 32.699 40.354 L 15.388 40.355 L 15.388 28.84 L 30.525 28.835 L 30.525 26.898 L 13.451 26.903 L 13.451 42.292 Z " fill="rgb(35,91,168)"/><path d=" M 67.257 42.291 L 67.257 53.804 L 51.605 53.804 C 51.676 54 51.75 54.176 51.829 54.33 C 52.114 54.882 52.385 55.333 52.647 55.742 L 69.194 55.742 L 69.194 40.354 L 49.946 40.354 C 50.004 40.909 50.064 41.566 50.126 42.291 L 67.257 42.291 Z " fill="rgb(35,91,168)"/><path d=" M 41.323 67.252 L 41.323 67.252 L 28.78 67.252 C 28.76 66.077 28.77 64.022 29.014 62.512 L 53.63 62.509 C 53.875 64.018 53.886 66.076 53.866 67.252 L 41.323 67.252 Z  M 31.074 57.624 C 31.432 57.095 31.83 56.506 32.255 55.742 L 50.39 55.742 C 50.815 56.506 51.213 57.095 51.571 57.624 C 52.173 58.512 52.676 59.259 53.126 60.572 L 29.518 60.575 C 29.969 59.259 30.471 58.513 31.074 57.624 Z  M 34.082 46.8 C 34.159 45.926 34.231 45.06 34.299 44.24 C 34.477 42.098 34.63 40.249 34.767 39.421 C 35.084 37.514 36.414 36.098 36.704 35.809 C 36.952 35.833 37.205 35.846 37.46 35.846 L 45.179 35.846 C 45.437 35.846 45.69 35.833 45.941 35.808 C 46.229 36.097 47.561 37.513 47.877 39.421 C 48.015 40.25 48.168 42.1 48.346 44.242 C 48.414 45.062 48.486 45.927 48.562 46.8 C 48.795 49.456 49.054 51.986 49.574 53.804 L 33.071 53.804 C 33.591 51.985 33.85 49.456 34.082 46.8 Z  M 32.462 29.679 L 32.462 25.692 L 34.458 25.692 L 34.458 28.834 L 40.327 28.834 L 40.327 25.692 L 42.323 25.692 L 42.323 28.834 L 48.193 28.834 L 48.193 25.692 L 50.182 25.692 L 50.182 29.679 C 50.182 32.011 47.938 33.909 45.179 33.909 L 37.46 33.909 C 34.704 33.909 32.462 32.011 32.462 29.679 Z  M 55.375 61.367 C 54.748 58.861 53.984 57.733 53.175 56.538 C 53.002 56.282 52.826 56.022 52.647 55.742 C 52.385 55.333 52.114 54.882 51.829 54.33 C 51.75 54.176 51.676 54 51.605 53.804 C 50.965 52.033 50.674 48.703 50.492 46.631 C 50.416 45.761 50.344 44.899 50.277 44.082 C 50.224 43.455 50.175 42.853 50.126 42.291 C 50.064 41.566 50.004 40.909 49.946 40.354 C 49.892 39.842 49.84 39.414 49.788 39.104 C 49.515 37.457 48.699 36.126 48.054 35.29 C 50.45 34.317 52.119 32.169 52.119 29.679 L 52.119 28.834 L 52.119 26.897 L 52.119 23.755 L 46.256 23.755 L 46.256 26.897 L 44.26 26.897 L 44.26 23.755 L 38.39 23.755 L 38.39 26.897 L 36.395 26.897 L 36.395 23.755 L 30.525 23.755 L 30.525 26.898 L 30.525 28.835 L 30.525 29.679 C 30.525 32.17 32.195 34.319 34.59 35.291 C 33.945 36.127 33.13 37.457 32.857 39.104 C 32.805 39.414 32.753 39.842 32.699 40.354 C 32.641 40.909 32.581 41.566 32.519 42.291 C 32.47 42.852 32.421 43.453 32.368 44.079 C 32.301 44.897 32.229 45.76 32.153 46.631 C 31.971 48.703 31.68 52.033 31.04 53.804 C 30.969 54 30.895 54.176 30.815 54.33 C 30.531 54.882 30.261 55.333 29.998 55.742 C 29.819 56.022 29.643 56.282 29.47 56.538 C 28.661 57.733 27.896 58.861 27.27 61.367 C 26.672 63.76 26.862 68.082 26.87 68.265 L 26.912 69.189 L 41.323 69.189 L 41.323 69.189 L 53.807 69.189 L 55.734 69.189 L 55.776 68.264 C 55.778 68.213 55.795 67.83 55.804 67.252 C 55.828 65.79 55.804 63.083 55.375 61.367 Z " fill="rgb(187,139,65)"/></g></g></svg>