<svg xmlns="http://www.w3.org/2000/svg" viewBox="0 0 708.54509 478.08199"><title>IFLW_logo_curves_vertical</title><g id="d57c6241-5e9c-4e8f-b9d4-2a9d5efa6fb1" data-name="Layer 2"><g id="6b50b43c-d431-42d0-9db9-91e7a2102d72" data-name="Layer 1"><path d="M419.813,3.642V140.549a3.6408,3.6408,0,0,0,3.641,3.641h45.151a3.64083,3.64083,0,0,0,3.641-3.641V3.642A3.64167,3.64167,0,0,0,468.605,0H423.454a3.64163,3.64163,0,0,0-3.641,3.642"/><path d="M376.8477.00037h-45.15a3.6426,3.6426,0,0,0-3.642,3.642v176.231a3.64083,3.64083,0,0,1-3.641,3.641h-32.042a3.64082,3.64082,0,0,1-3.641-3.641V3.6424a3.64172,3.64172,0,0,0-3.641-3.642h-45.15a3.64172,3.64172,0,0,0-3.641,3.642v228.664a3.64062,3.64062,0,0,0,3.641,3.64h228.664a3.64062,3.64062,0,0,0,3.641-3.64v-45.151a3.64146,3.64146,0,0,0-3.641-3.641h-84.475a3.64083,3.64083,0,0,1-3.641-3.641V3.6424a3.64172,3.64172,0,0,0-3.641-3.642"/><polygon points="0 325.39 63.149 325.39 63.149 328.278 45.491 328.278 45.491 469.418 63.149 469.418 63.149 472.306 0 472.306 0 469.418 17.659 469.418 17.659 328.278 0 328.278 0 325.39"/><path d="M176.29012,328.27768h-17.659v-2.888h113.435v35.284h-2.494c-7.292-19.603-15.74-32.396-36.469-32.396h-28.981v66.442h10.746c18.811,0,25.338-12.175,28.984-30.746h2.494v64.176h-2.494c-3.454-16.094-9.214-30.538-26.874-30.538h-12.856v71.807h17.848v2.887h-63.339v-2.887h17.659Z"/><path d="M349.26268,325.39h63.149v2.888h-17.658v141.14h31.671c16.7,0,35.511-11.555,42.034-43.744h2.498v46.632h-121.694v-2.888h17.659V328.278h-17.659Z"/><polygon points="504.894 325.39 563.821 325.39 563.821 328.278 549.809 328.278 584.361 437.022 584.744 437.022 604.896 375.53 589.925 328.278 579.562 328.278 579.562 325.39 636.951 325.39 636.951 328.278 619.099 328.278 653.84 437.226 654.227 437.226 689.734 328.278 673.227 328.278 673.227 325.39 708.545 325.39 708.545 328.278 692.998 328.278 643.667 478.082 638.103 478.082 606.625 380.277 606.242 380.277 573.995 478.082 568.427 478.082 520.825 328.278 504.894 328.278 504.894 325.39"/></g></g></svg>