<svg xmlns="http://www.w3.org/2000/svg" width="56" height="56" viewBox="0 0 56 56">
  <g fill="none" fill-rule="evenodd">
    <circle cx="28" cy="28" r="28" fill="#ED1C24" fill-rule="nonzero"/>
    <path fill="#FFF" d="M41.096656,22 L40.903344,22 L41.096656,22 L41.096656,22 Z M10.7718961,11.0432787 L10.7070082,11.1081967 L10.6421202,11.1731148 L10.5772323,11.2380328 L10.5123444,11.3029508 L10.4474564,11.4314344 L10.3825685,11.4963525 L10.3176805,11.6897541 L10.2527926,11.8182377 L10.2527926,12.6554098 L10.3176805,12.8488115 L10.3825685,13.0422131 L10.4474564,13.1706967 L10.5123444,13.3640984 L10.5772323,13.492582 L10.6421202,13.5575 L10.7070082,13.6859836 L10.7718961,13.8144672 L10.8367841,13.9429508 L10.901672,14.0714344 L10.9665599,14.1363525 L11.0314479,14.2648361 L11.0963358,14.3933197 L11.1612238,14.4582377 L11.2261117,14.5867213 L11.2909996,14.7152049 L11.3558876,14.8436885 L11.4207755,14.9086066 L11.4856635,15.0370902 L11.5505514,15.1655738 L11.6154393,15.2940574 L11.6803273,15.487459 L11.7452152,15.6808607 L11.8101032,15.7457787 L11.8749911,15.8106967 L11.939879,15.9391803 L12.004767,16.0040984 L12.0696549,16.0690164 L12.1345429,16.1975 L12.1994308,16.262418 L12.2643187,16.3273361 L12.3292067,16.4558197 L12.3940946,16.5207377 L12.4589826,16.5856557 L12.5238705,16.7141393 L12.5887584,16.7790574 L12.6536464,16.8439754 L12.7185343,16.972459 L12.7834223,17.037377 L12.8483102,17.1022951 L12.9131982,17.1672131 L12.9780861,17.2956967 L13.042974,17.3606148 L13.107862,17.4255328 L13.1727499,17.4904508 L13.2376379,17.6189344 L13.3025258,17.6838525 L13.3674137,17.7487705 L13.4323017,17.8772541 L13.4971896,17.9421721 L13.5620776,18.0070902 L13.6269655,18.1355738 L13.6918534,18.2004918 L13.6918534,18.522377 L13.5634294,18.457459 L13.4350053,18.392541 L13.3701174,18.327623 L13.3052295,18.2627049 L13.1768054,18.1977869 L13.1119175,18.1328689 L13.0470295,18.0679508 L12.9821416,18.0030328 L12.9172536,17.9381148 L12.7888296,17.8731967 L12.7239417,17.8082787 L12.6590537,17.7433607 L12.5941658,17.6784426 L12.5292778,17.6135246 L12.4643899,17.5486066 L12.399502,17.4836885 L12.334614,17.4187705 L12.2697261,17.3538525 L12.2048381,17.2889344 L12.1399502,17.2240164 L12.0750623,17.1590984 L12.0101743,17.0941803 L11.9452864,17.0292623 L11.8803984,16.9643443 L11.8155105,16.8994262 L11.7506226,16.7709426 L11.6857346,16.7060246 L11.6208467,16.6411066 L11.5559587,16.5761885 L11.4910708,16.5112705 L11.4261829,16.3827869 L11.3612949,16.3178689 L11.296407,16.2529508 L11.231519,16.1244672 L11.1666311,15.9959836 L11.1017432,15.9310656 L11.0368552,15.802582 L10.9719673,15.7376639 L10.9070793,15.6091803 L10.8421914,15.5442623 L10.7773035,15.4157787 L10.7124155,15.3508607 L10.6475276,15.222377 L10.5826396,15.157459 L10.5177517,15.0289754 L10.4528637,14.9640574 L10.3879758,14.8991393 L10.3230879,14.8342213 L10.2581999,14.7693033 L10.193312,14.7043852 L10.128424,14.6394672 L10,14.6394672 L10,14.7043852 L10.0648879,15.670041 L10.1297759,16.1204098 L10.1946638,16.4422951 L10.2595518,16.7006148 L10.3244397,16.957582 L10.3893276,17.2145492 L10.4542156,17.4728689 L10.5191035,17.7298361 L10.5839915,17.9868033 L10.6488794,18.1802049 L10.7137673,18.4371721 L10.7786553,18.6305738 L10.8435432,18.887541 L10.9084312,19.0809426 L10.9733191,19.1458607 L11.038207,19.2107787 L11.1666311,19.2756967 L11.231519,19.3406148 L11.296407,19.4055328 L11.3612949,19.4704508 L11.489719,19.5353689 L11.5546069,19.6002869 L11.6194948,19.6652049 L11.6843828,19.730123 L11.8128068,19.795041 L11.8776948,19.859959 L11.7492707,19.795041 L11.6208467,19.730123 L11.4924226,19.6652049 L11.4275347,19.6002869 L11.2991106,19.5353689 L11.1057986,19.5353689 L11.1057986,19.7287705 L11.1706866,19.9221721 L11.2355745,20.1155738 L11.3004625,20.3089754 L11.3653504,20.502377 L11.4302383,20.6957787 L11.4951263,20.8891803 L11.5600142,21.0176639 L11.6249022,21.2110656 L11.6897901,21.4044672 L11.7546781,21.5978689 L11.819566,21.7263525 L11.8844539,21.9197541 L11.9493419,22.0482377 L12.0142298,22.2416393 L12.0791178,22.370123 L12.1440057,22.5635246 L12.2088936,22.6920082 L12.2737816,22.8854098 L12.3386695,23.0138934 L12.4035575,23.142377 L12.4684454,23.2708607 L12.5333333,23.4642623 L12.5982213,23.5927459 L12.6631092,23.7212295 L12.7279972,23.7861475 L12.7928851,23.9146311 L12.857773,24.0431148 L12.922661,24.1715984 L12.9875489,24.2365164 L13.0524369,24.365 L13.1173248,24.429918 L13.1822127,24.4948361 L13.2471007,24.9452049 L13.3119886,25.1386066 L13.3768766,25.2670902 L13.4417645,25.3955738 L13.5066524,25.4604918 L13.5715404,25.5889754 L13.6364283,25.6538934 L13.7013163,25.7188115 L13.7662042,25.7837295 L13.8310921,25.9122131 L13.8959801,25.9771311 L13.960868,26.0420492 L14.0892921,26.1069672 L14.15418,26.1718852 L14.2190679,26.2368033 L14.2839559,26.3017213 L14.3488438,26.3666393 L14.4137318,26.4315574 L14.4786197,26.4964754 L14.6070438,26.5613934 L14.6719317,26.6263115 L14.7368196,26.6912295 L14.8652437,26.7561475 L14.9301316,26.8210656 L15.0585557,26.8859836 L15.1234436,26.9509016 L15.1883316,27.0158197 L15.3167556,27.0807377 L15.3816435,27.1456557 L15.5100676,27.2105738 L15.5749555,27.2754918 L15.7033796,27.3404098 L15.7682675,27.4053279 L15.8966916,27.4702459 L15.9615795,27.5351639 L16.0900036,27.600082 L16.1548915,27.665 L16.2197794,27.729918 L16.2846674,27.7948361 L16.4130914,27.8597541 L16.4779794,27.9246721 L16.5428673,27.9895902 L16.6077552,28.0545082 L16.6077552,28.1194262 L16.5428673,28.1843443 L16.4779794,28.2492623 L16.4130914,28.3141803 L16.3482035,28.3790984 L16.2833155,28.4440164 L16.2184276,28.5089344 L16.1535397,28.5738525 L16.0886517,28.7023361 L16.0237638,28.8308197 L16.0237638,29.3461066 L16.2170758,29.4110246 L16.3454998,29.4759426 L16.5388118,29.5408607 L16.7321238,29.6057787 L16.8605478,29.6706967 L17.0538598,29.7356148 L17.1822839,29.8005328 L17.3755959,29.8654508 L17.5040199,29.9303689 L17.632444,29.9952869 L17.760868,30.0602049 L17.8892921,30.125123 L18.0177161,30.190041 L18.1461402,30.254959 L18.2745642,30.319877 L18.3394522,30.3847951 L18.4678762,30.4497131 L18.5963002,30.5146311 L18.6611882,30.5795492 L18.7896122,30.6444672 L18.8545002,30.7093852 L18.9829242,30.7743033 L19.0478122,30.8392213 L19.1762362,30.9041393 L19.2411242,30.9690574 L19.3060121,31.0339754 L19.3709,31.0988934 L19.4993241,31.1638115 L19.564212,31.2287295 L19.6291,31.2936475 L19.6939879,31.3585656 L19.7588758,31.4234836 L19.8237638,31.4884016 L19.8886517,31.5533197 L19.9535397,31.6182377 L20.0184276,31.6831557 L20.0833155,31.7480738 L20.1482035,31.8129918 L20.2130914,31.8779098 L20.2779794,31.9428279 L20.3428673,32.0713115 L20.4077552,32.1362295 L20.4726432,32.2011475 L20.5375311,32.3296311 L20.6024191,32.3945492 L20.667307,32.5230328 L20.7321949,32.5879508 L20.7970829,32.7164344 L20.8619708,32.844918 L20.9268588,32.9098361 L20.9917467,33.0383197 L21.0566346,33.1668033 L21.1215226,33.2952869 L21.1864105,33.4886885 L21.2512985,33.6171721 L21.3161864,33.8105738 L21.3810744,33.9390574 L21.4459623,34.132459 L21.5108502,34.3258607 L21.5757382,34.5192623 L21.6406261,34.7126639 L21.7055141,34.9060656 L21.770402,35.0994672 L21.770402,35.8717213 L21.7055141,37.8043852 L21.7055141,40.187418 L21.770402,40.2523361 L21.8352899,40.3172541 L21.9001779,40.3821721 L22.0934899,40.5106557 L22.1583778,40.5755738 L22.2868018,40.6404918 L22.4152259,40.7054098 L22.4801138,40.7703279 L22.6085379,40.8352459 L22.7369619,40.9001639 L22.99381,40.9001639 L22.99381,40.7716803 L22.99381,40.6431967 L23.058698,40.1928279 L23.3168979,39.1622541 L23.437211,38.9215164 L23.5088581,39.2907377 L23.573746,39.612623 L23.6386339,39.9994262 L23.7035219,40.4497951 L23.7210957,40.7662705 L23.7684098,41.03 L23.8332978,41.2234016 L23.8981857,41.2883197 L23.9630736,41.4168033 L24.0279616,41.4817213 L24.0928495,41.5466393 L24.2212736,41.6115574 L24.3496976,41.6764754 L24.4781217,41.7413934 L24.7998577,41.8063115 L25.3149057,41.8063115 L25.7015297,41.7413934 L25.7664176,41.6764754 L25.8313056,41.6115574 L25.8961935,41.5466393 L25.9610815,41.4817213 L26.0259694,41.4817213 L26.0895055,41.6102049 L26.1543935,41.675123 L26.2192814,41.740041 L26.2841693,41.8685246 L26.3490573,41.9970082 L26.4139452,42.0619262 L26.4788332,42.1904098 L26.5423693,42.3188934 L26.6072572,42.3838115 L26.6707933,42.4487295 L26.7356813,42.5122951 L27.3805052,42.5772131 L27.5089292,42.6421311 L27.6373533,42.7070492 L27.7022412,42.7706148 L27.8306652,42.8355328 L27.8955532,42.9004508 L27.9604411,42.9653689 L28.0253291,43.0302869 L28.090217,43.0938525 L28.1551049,43.1587705 L28.2199929,43.2236885 L28.2848808,43.2886066 L28.3497688,43.3535246 L28.4146567,43.4170902 L28.4795446,43.4820082 L28.6079687,43.4820082 L28.7377446,43.4170902 L29.1243686,43.4170902 L29.2527926,43.4820082 L29.3812166,43.5469262 L29.5096407,43.6118443 L29.5745286,43.6767623 L29.6394166,43.7403279 L29.7029527,43.8052459 L29.8313767,43.8701639 L29.8962647,43.935082 L29.9611526,44 L30.1544646,44 L30.2193525,43.935082 L30.2842405,43.8701639 L30.3491284,43.6767623 L30.3491284,43.6118443 L30.2842405,43.4184426 L30.2193525,43.289959 L30.1544646,43.1614754 L30.0895767,43.0965574 L30.0246887,42.9680738 L29.9598008,42.9031557 L29.8949128,42.8382377 L29.8300249,42.7733197 L29.765137,42.7097541 L29.700249,42.6448361 L29.6367129,42.579918 L29.571825,42.515 L29.4434009,42.4514344 L29.3149769,42.3865164 L29.1865528,42.3215984 L29.0581288,42.2566803 L28.8648168,42.1931148 L28.6715048,42.1281967 L28.4781928,42.0632787 L28.3497688,41.9983607 L28.2213447,41.9334426 L28.0929207,41.869877 L27.9644966,41.804959 L27.8360726,41.740041 L27.7711846,41.675123 L27.7076485,41.6102049 L27.5778726,41.5452869 L27.5143365,41.4803689 L27.4494486,41.4154508 L27.3845607,41.3505328 L27.3196727,41.2856148 L27.2547848,41.2206967 L27.1898968,41.1557787 L27.1250089,41.0908607 L27.0614728,41.0259426 L27.0614728,40.9610246 L27.1250089,40.8961066 L27.1898968,40.8311885 L27.2547848,40.7662705 L27.3196727,40.7013525 L27.3845607,40.6364344 L27.4494486,40.5715164 L27.5143365,40.5065984 L27.5778726,40.4416803 L27.7076485,40.3767623 L27.7711846,40.3118443 L27.8996087,40.2469262 L28.0280327,40.1820082 L28.0929207,40.1170902 L28.2213447,40.0521721 L28.3497688,39.9872541 L28.4146567,39.9223361 L28.4795446,39.857418 L28.4795446,39.2136475 L28.4146567,38.9566803 L28.3497688,38.7632787 L28.2848808,38.6347951 L28.2199929,38.5063115 L28.1551049,38.4413934 L28.090217,38.3129098 L28.090217,37.797623 L28.090217,37.6691393 L28.411953,37.6691393 L28.5403771,37.6042213 L28.6688011,37.5393033 L28.7336891,37.4743852 L28.798577,37.4094672 L28.863465,37.3445492 L28.9283529,37.2796311 L28.9932408,37.2147131 L29.0581288,37.2796311 L29.1865528,37.3445492 L29.3798648,37.4094672 L29.7016009,37.4743852 L30.2815368,37.5393033 L30.3464248,37.6042213 L30.4113127,37.6691393 L30.4762006,37.7340574 L30.5410886,37.7989754 L30.6059765,37.8638934 L30.6708645,37.9288115 L30.7357524,37.9937295 L30.7992885,38.0586475 L30.8641764,38.1235656 L30.9290644,38.1884836 L30.9939523,38.2534016 L31.0588403,38.3183197 L31.1237282,38.3832377 L31.1886162,38.4481557 L31.2535041,38.5130738 L31.3170402,38.5779918 L31.3819281,38.7064754 L31.4468161,38.7713934 L31.511704,38.8363115 L31.576592,38.9012295 L31.6414799,39.0297131 L31.7063678,39.0946311 L31.7712558,39.2231148 L31.8347919,39.3515984 L31.8996798,39.4165164 L31.9645678,39.545 L32.0294557,39.6734836 L32.2227677,39.6734836 L32.3511917,39.6085656 L32.4160797,39.5436475 L32.4809676,39.4151639 L32.5458556,39.2866803 L32.6107435,39.0283607 L32.6120953,38.8904098 L32.8040555,38.9634426 L32.9324795,39.0283607 L32.9973675,39.0932787 L33.0622554,39.1581967 L33.1271434,39.2231148 L33.1920313,39.2880328 L33.2569192,39.2880328 L33.3218072,39.2231148 L33.3866951,39.1581967 L33.4502312,38.9647951 L33.4502312,38.7078279 L33.3866951,38.5144262 L33.3218072,38.3859426 L33.2569192,38.3210246 L33.1920313,38.127623 L33.1271434,38.0627049 L33.0622554,37.9977869 L32.8689434,37.9328689 L32.5472074,37.8679508 L32.4187834,37.8030328 L32.3538954,37.6745492 L32.2254714,37.6096311 L32.0321594,37.5447131 L31.7104233,37.4797951 L31.4522234,37.414877 L31.1304874,37.349959 L30.8087513,37.285041 L30.6154393,37.220123 L30.5505514,37.1552049 L30.4856635,37.0902869 L30.4207755,37.0253689 L30.3558876,36.9604508 L30.2909996,36.8955328 L30.2261117,36.8306148 L30.1612238,36.7656967 L30.0963358,36.7007787 L30.0314479,36.6358607 L29.9665599,36.5709426 L29.901672,36.5060246 L29.8367841,36.4411066 L29.7718961,36.3761885 L29.7070082,36.3112705 L29.5785841,36.2463525 L29.3852721,36.1814344 L29.1919602,36.1165164 L28.9986482,36.0515984 L28.9986482,35.8581967 L29.1270722,35.7932787 L29.3203842,35.7283607 L29.4488083,35.6634426 L29.6421202,35.5985246 L29.7705443,35.5336066 L29.8354322,35.4686885 L29.9638563,35.4037705 L30.0922803,35.3388525 L30.2207044,35.2739344 L30.2855923,35.2090164 L30.4140164,35.1440984 L30.4789043,35.0791803 L30.6073284,35.0142623 L30.6722163,34.9493443 L30.8006403,34.8844262 L31.0588403,34.8844262 L31.1237282,34.9493443 L31.1886162,35.0142623 L31.2535041,35.0791803 L31.3170402,35.1440984 L31.3819281,35.2090164 L31.4468161,35.2739344 L31.511704,35.402418 L31.576592,35.4673361 L31.6414799,35.5322541 L31.7063678,35.6607377 L31.7712558,35.7256557 L31.8347919,35.8541393 L31.8996798,35.982623 L31.9645678,36.1111066 L32.0294557,36.2395902 L32.0943436,36.4329918 L32.1592316,36.4979098 L32.2876556,36.4979098 L32.3525436,36.4329918 L32.4174315,36.3680738 L32.4823195,36.3031557 L32.5472074,36.1746721 L32.6120953,36.1097541 L32.6769833,35.9812705 L32.7418712,35.8527869 L32.8067592,35.6593852 L32.8067592,35.0156148 L32.7418712,34.8222131 L32.6769833,34.6288115 L32.6769833,34.5003279 L32.7418712,34.3069262 L32.8067592,34.0486066 L32.8067592,33.1465164 L32.7418712,33.0815984 L32.6769833,33.0166803 L32.6120953,32.9517623 L32.5472074,32.8868443 L32.4823195,32.8219262 L32.4174315,32.7570082 L32.3525436,32.6920902 L32.2876556,32.6271721 L32.2227677,32.5622541 L32.1578798,32.4337705 L32.0929918,32.3688525 L32.0281039,32.3039344 L31.9632159,32.1754508 L31.898328,32.0469672 L31.8334401,31.9184836 L31.7699039,31.725082 L31.7699039,31.5316803 L31.8334401,31.3382787 L31.898328,31.2097951 L31.9632159,31.144877 L32.09164,31.079959 L32.1565279,31.015041 L32.284952,30.950123 L32.478264,30.8852049 L32.671576,30.8202869 L32.928424,30.7553689 L33.315048,30.6904508 L34.088296,30.6255328 L34.088296,30.4321311 L34.023408,30.3672131 L33.9585201,30.2387295 L33.894984,30.1102459 L33.8300961,29.9817623 L33.7652081,29.8532787 L33.7652081,29.3379918 L33.8300961,29.2095082 L33.894984,29.1445902 L33.9585201,29.0796721 L34.023408,29.1445902 L34.088296,29.2730738 L34.1531839,29.4664754 L34.2180719,29.594959 L34.2829598,29.659877 L34.3478477,29.7883607 L34.4127357,29.8532787 L34.4776236,29.9817623 L34.5425116,30.0466803 L34.6709356,30.1115984 L34.7358236,30.1765164 L34.8642476,30.2414344 L35.1859836,30.3063525 L35.3792956,30.3063525 L35.8294557,30.2414344 L36.0876556,30.2414344 L36.6675916,30.2414344 L36.9257915,30.1765164 L37.0542156,30.1115984 L37.1177517,30.0466803 L37.1826396,29.9817623 L37.2475276,29.9168443 L37.3124155,29.8519262 L37.3124155,29.6585246 L37.2475276,29.5936066 L37.1826396,29.5286885 L37.0542156,29.4637705 L36.9257915,29.3988525 L36.7973675,29.3339344 L36.7324795,29.2690164 L36.6040555,29.2040984 L36.5215937,29.1729918 L36.6689434,29.2040984 L36.8622554,29.2690164 L36.9906795,29.3339344 L37.1839915,29.3988525 L37.3773035,29.4637705 L37.5706154,29.5286885 L37.7639274,29.5936066 L37.9572394,29.6585246 L38.2140875,29.7234426 L38.4722874,29.7883607 L38.7291355,29.8532787 L39.0508716,29.9181967 L39.3726076,29.9831148 L39.8241195,30.0480328 L41.0475276,30.1129508 L41.1124155,30.1129508 L41.2408396,30.0480328 L41.3043757,29.9831148 L41.4327997,29.9181967 L41.4976877,29.8532787 L41.6261117,29.7883607 L41.6909996,29.7234426 L41.8194237,29.6585246 L41.8829598,29.5936066 L42.0113838,29.5286885 L42.0762718,29.4637705 L42.1411597,29.3988525 L42.2695838,29.3339344 L42.3331199,29.2690164 L42.3980078,29.2040984 L42.4628958,29.1391803 L42.5913198,29.0742623 L42.6562078,29.0093443 L42.7210957,28.9444262 L42.7859836,28.8795082 L42.8508716,28.8145902 L42.9792956,28.7496721 L43.0441836,28.6847541 L43.1090715,28.6198361 L43.1739594,28.554918 L43.2388474,28.49 L43.2388474,28.425082 L42.9171113,28.425082 L42.6589114,28.49 L42.3371754,28.554918 L42.1438634,28.6198361 L42.1438634,28.4264344 L42.0789755,28.0396311 L42.0140875,27.7813115 L41.9491996,27.5879098 L41.8856635,27.3241803 L42.5940235,27.3945082 L44.2040555,27.3945082 L44.5906795,27.3295902 L44.6555674,27.2646721 L44.7204554,27.1997541 L44.7853433,27.1348361 L44.8502312,27.069918 L44.9151192,27.005 L45.0435432,26.940082 L45.1084312,26.8751639 L45.1733191,26.8102459 L45.238207,26.7453279 L45.303095,26.6804098 L45.3679829,26.6154918 L45.4328709,26.4870082 L45.496407,26.4220902 L45.5612949,26.3571721 L45.6261829,26.2922541 L45.6910708,26.2273361 L45.7559587,26.162418 L45.8208467,26.0975 L45.8857346,25.9690164 L45.9506226,25.9040984 L46.0155105,25.8391803 L46.0803984,25.7742623 L46.0803984,25.6457787 L45.9519744,25.6457787 L45.6302383,25.7106967 L45.1800783,25.7756148 L44.2784063,25.8405328 L43.6295269,25.8662295 L43.8917823,25.8405328 L44.0850943,25.7756148 L44.3432942,25.7106967 L44.5366062,25.6457787 L44.7948061,25.5808607 L45.0516542,25.5159426 L45.2449662,25.4510246 L45.5018143,25.3861066 L45.7600142,25.3211885 L46.1466382,25.2562705 L46.3399502,25.1913525 L46.4048381,25.1264344 L46.5332622,25.0615164 L46.5981501,24.9965984 L46.6630381,24.9316803 L46.727926,24.8667623 L46.7928139,24.7382787 L46.8577019,24.6733607 L46.9225898,24.6084426 L46.9874778,24.479959 L47.0523657,24.3514754 L47.1172536,24.2229918 L47.1821416,24.0945082 L47.2470295,23.9660246 L47.3119175,23.837541 L47.3768054,23.6441393 L47.3768054,23.4507377 L47.1834934,23.4507377 L46.9901814,23.5156557 L46.7319815,23.5805738 L46.5386695,23.6454918 L46.2804696,23.7104098 L46.0236215,23.7753279 L45.7654216,23.8402459 L45.5721096,23.9051639 L45.3139096,23.970082 L45.0557097,24.035 L44.7988616,24.099918 L44.5406617,24.1648361 L44.2838136,24.2297541 L44.0256137,24.2946721 L43.7674137,24.3595902 L43.5092138,24.4245082 L43.1874778,24.4894262 L42.9292778,24.5543443 L42.6075418,24.6192623 L42.339879,24.6544262 L42.4791178,24.6192623 L42.6075418,24.5543443 L42.8008538,24.4894262 L42.9292778,24.4245082 L43.0577019,24.3595902 L43.1861259,24.2946721 L43.31455,24.2297541 L43.442974,24.1648361 L43.507862,24.099918 L43.5727499,24.035 L43.6376379,23.970082 L43.7025258,23.8415984 L43.7674137,23.6481967 L43.7674137,23.2613934 L44.071576,23.2613934 L44.521736,23.1964754 L45.0367841,23.1315574 L45.423408,23.0666393 L45.810032,23.0017213 L46.196656,22.9368033 L46.518392,22.8718852 L46.905016,22.8069672 L47.226752,22.7420492 L47.5484881,22.6771311 L47.6769121,22.6122131 L47.7418001,22.4837295 L47.806688,22.1618443 L47.871576,21.9035246 L47.9364639,21.5816393 L48,21.2597541 L48,21.0663525 L47.9364639,21.0663525 L47.6147279,21.1312705 L47.2929918,21.1961885 L46.9712558,21.2611066 L46.5846318,21.3260246 L46.2628958,21.3909426 L45.8127357,21.4558607 L45.4261117,21.5207787 L45.0394877,21.5856967 L44.5893276,21.6506148 L44.2027037,21.7155328 L43.7525436,21.7804508 L43.3010317,21.8453689 L42.7859836,21.9102869 L42.3344717,21.9752049 L41.7545358,22.040123 L41.2394877,22.105041 L41.4327997,22.040123 L41.6261117,21.9752049 L41.8194237,21.9102869 L42.0127357,21.8453689 L42.1411597,21.7804508 L42.3344717,21.7155328 L42.5277837,21.6506148 L42.7210957,21.5856967 L42.9144077,21.5207787 L43.0428317,21.4558607 L43.2361437,21.3909426 L43.4294557,21.3260246 L43.6227677,21.2611066 L43.8160797,21.1961885 L43.9445037,21.1312705 L44.0729278,21.0663525 L44.2013518,21.0014344 L44.2662398,20.9365164 L44.3946638,20.8715984 L44.5230879,20.8066803 L44.6515119,20.7417623 L44.779936,20.6768443 L44.90836,20.6119262 L45.0367841,20.5470082 L45.101672,20.4820902 L45.2300961,20.4171721 L45.3585201,20.3522541 L45.4869441,20.2873361 L45.5518321,20.222418 L45.6802561,20.1575 L45.7451441,20.092582 L45.8735681,20.0276639 L46.0019922,19.9627459 L46.0655283,19.8978279 L46.1939523,19.8329098 L46.2588403,19.7679918 L46.3237282,19.7030738 L46.4521523,19.6381557 L46.5170402,19.5732377 L46.5819281,19.5083197 L46.7103522,19.4434016 L46.7752401,19.3784836 L46.8401281,19.3135656 L46.905016,19.2486475 L46.9699039,19.1837295 L47.0347919,19.1188115 L47.0996798,19.0538934 L47.1645678,18.9889754 L47.2294557,18.9240574 L47.2943436,18.8591393 L47.3592316,18.7942213 L47.4241195,18.7293033 L47.4890075,18.6008197 L47.5538954,18.5359016 L47.6174315,18.407418 L47.6823195,18.3425 L47.7472074,18.2140164 L47.8120953,18.0855328 L47.8769833,17.8921311 L47.9418712,17.6338115 L47.9418712,16.990041 L47.8769833,16.990041 L47.8120953,17.054959 L47.6836713,17.119877 L47.6187834,17.1847951 L47.5552472,17.2497131 L47.4268232,17.3146311 L47.3619353,17.3795492 L47.2970473,17.4444672 L47.1686233,17.5093852 L47.1037353,17.5743033 L46.9753113,17.6392213 L46.9104233,17.7041393 L46.8455354,17.7690574 L46.7157595,17.8339754 L46.6508716,17.8988934 L46.5224475,17.9638115 L46.4575596,18.0287295 L46.3291355,18.0936475 L46.2642476,18.1585656 L46.1358236,18.2234836 L46.0709356,18.2884016 L45.9425116,18.3533197 L45.8776236,18.4182377 L45.7491996,18.4831557 L45.6843116,18.5480738 L45.5558876,18.6129918 L45.423408,18.7090164 L45.3598719,18.7739344 L45.2314479,18.8388525 L45.1030238,18.9037705 L45.0381359,18.9686885 L44.9097118,19.0336066 L44.7812878,19.0985246 L44.6528637,19.1634426 L44.5244397,19.2283607 L44.3960157,19.2932787 L44.2675916,19.3581967 L44.1391676,19.4231148 L44.0107435,19.4880328 L43.8823195,19.5529508 L43.7538954,19.6178689 L43.6254714,19.6827869 L43.4970473,19.7477049 L43.3686233,19.812623 L43.2401992,19.877541 L43.0468872,19.942459 L42.9184632,20.007377 L42.7900391,20.0722951 L42.5967271,20.1372131 L42.4683031,20.2021311 L42.2749911,20.2670492 L42.1465671,20.3319672 L41.9532551,20.3968852 L41.824831,20.4618033 L41.631519,20.5267213 L41.503095,20.5916393 L41.309783,20.6565574 L41.116471,20.7214754 L40.988047,20.7863934 L40.794735,20.8513115 L40.601423,20.9162295 L40.408111,20.9811475 L40.2796869,21.0460656 L40.086375,21.1109836 L39.893063,21.1759016 L39.699751,21.2408197 L39.506439,21.3057377 L39.313127,21.3706557 L39.119815,21.4355738 L38.926503,21.5004918 L38.733191,21.5654098 L38.539879,21.6303279 L38.3465671,21.6952459 L38.1532551,21.7601639 L37.9599431,21.825082 L37.7666311,21.89 L37.5733191,21.954918 L37.3800071,22.0198361 L37.1866951,22.0847541 L36.9933831,22.1496721 L36.8000711,22.2145902 L36.6067592,22.2795082 L36.3485592,22.3444262 L36.1552472,22.4093443 L35.9619353,22.4742623 L35.7686233,22.5391803 L35.5753113,22.6040984 L35.3184632,22.6690164 L35.1251512,22.7339344 L34.9318392,22.7988525 L34.8034152,22.8637705 L34.6101032,22.9286885 L34.4167912,22.9936066 L34.1599431,23.0585246 L33.9666311,23.1234426 L33.7733191,23.1883607 L33.5800071,23.2532787 L33.4515831,23.3181967 L33.3866951,23.3831148 L33.2582711,23.4480328 L33.1933831,23.5129508 L33.1284952,23.5778689 L33.0636073,23.6427869 L32.9987193,23.7712705 L32.9338314,23.8361885 L32.8689434,23.9011066 L32.8040555,24.0295902 L32.7405194,24.1580738 L32.6756314,24.2229918 L32.6107435,24.2879098 L32.5458556,24.4163934 L32.4809676,24.544877 L32.4160797,24.6097951 L32.3511917,24.7382787 L32.2863038,24.8031967 L32.2214159,24.9316803 L32.1565279,24.9965984 L32.09164,25.0615164 L32.026752,25.19 L31.9618641,25.254918 L31.8969762,25.3834016 L31.8320882,25.4483197 L31.7672003,25.5132377 L31.7036642,25.6417213 L31.6387762,25.7066393 L31.5738883,25.7715574 L31.5090004,25.8364754 L31.4441124,25.964959 L31.3792245,26.029877 L31.3143365,26.0947951 L31.2494486,26.2232787 L31.1859125,26.2881967 L31.1210245,26.3531148 L31.0561366,26.4180328 L30.9912487,26.5465164 L30.9263607,26.6114344 L30.8614728,26.6763525 L30.7965848,26.7412705 L30.7316969,26.8061885 L30.6681608,26.9346721 L30.6032729,26.9995902 L30.5383849,27.0645082 L30.473497,27.1294262 L30.408609,27.1943443 L30.3437211,27.2592623 L30.2788332,27.3241803 L30.2139452,27.4526639 L30.1490573,27.517582 L30.0841693,27.5825 L30.0192814,27.647418 L29.9543935,27.7123361 L29.8895055,27.7772541 L29.8246176,27.8421721 L29.7597296,27.9070902 L29.6948417,27.9720082 L29.6299538,28.0369262 L29.5664176,28.1018443 L29.5015297,28.1667623 L29.4366418,28.2316803 L29.3717538,28.2965984 L29.3068659,28.3615164 L29.2419779,28.4264344 L29.17709,28.4913525 L29.1135539,28.5562705 L29.048666,28.6211885 L28.983778,28.6861066 L28.9188901,28.7510246 L28.790466,28.8159426 L28.7255781,28.8808607 L28.6606901,28.9457787 L28.5958022,29.0106967 L28.4673782,29.0756148 L28.4024902,29.1405328 L28.3376023,29.2054508 L28.2091782,29.2703689 L28.1442903,29.3352869 L28.0158662,29.4002049 L27.8874422,29.465123 L27.5008182,29.530041 L26.5356101,29.530041 L25.7623621,29.465123 L25.2473141,29.4002049 L24.9255781,29.3352869 L24.603842,29.2703689 L24.3456421,29.2054508 L24.2172181,29.1405328 L23.9590181,29.0756148 L23.8305941,29.0106967 L23.6372821,28.9457787 L23.5723942,28.8808607 L23.4439701,28.8159426 L23.380434,28.7510246 L23.25201,28.6861066 L23.187122,28.6211885 L23.1222341,28.5562705 L23.0573461,28.4913525 L22.9924582,28.4264344 L22.9275703,28.3615164 L22.7991462,28.2965984 L22.7342583,28.2316803 L22.6693703,28.1667623 L22.6044824,28.1018443 L22.5395945,28.0369262 L22.4747065,27.9720082 L22.4098186,27.9070902 L22.3449306,27.8421721 L22.2165066,27.7772541 L22.1529705,27.7123361 L22.0880825,27.647418 L22.0231946,27.5825 L21.9583067,27.517582 L21.8934187,27.4526639 L21.8285308,27.3877459 L21.7636428,27.3228279 L21.6987549,27.2579098 L21.633867,27.1929918 L21.568979,27.1280738 L21.5040911,27.0631557 L21.4392031,26.9982377 L21.3743152,26.9333197 L21.3094273,26.8684016 L21.2445393,26.739918 L21.1796514,26.675 L21.1147634,26.610082 L21.0498755,26.5451639 L20.9849875,26.4802459 L20.9200996,26.3517623 L20.8552117,26.2868443 L20.7903237,26.2219262 L20.7254358,26.0934426 L20.6605478,26.0285246 L20.5956599,25.9636066 L20.530772,25.835123 L20.465884,25.7702049 L20.4009961,25.6417213 L20.3361081,25.5768033 L20.2712202,25.5118852 L20.2063323,25.3834016 L20.1414443,25.3184836 L20.0765564,25.19 L20.0116684,25.125082 L19.9467805,24.9965984 L19.8818926,24.9316803 L19.8170046,24.8031967 L19.7521167,24.6747131 L19.6872287,24.6097951 L19.6223408,24.4813115 L19.5574529,24.3528279 L19.4925649,24.2879098 L19.427677,24.1594262 L19.362789,24.0309426 L19.2979011,23.9660246 L19.2330132,23.837541 L19.1681252,23.7090574 L19.1032373,23.5805738 L19.0383493,23.5156557 L18.9734614,23.3871721 L18.9085735,23.2586885 L18.8436855,23.1302049 L18.7787976,23.0017213 L18.7139096,22.8732377 L18.6490217,22.7447541 L18.5841338,22.6162705 L18.5192458,22.4877869 L18.4543579,22.3593033 L18.3894699,22.2308197 L18.324582,22.037418 L18.2596941,21.9089344 L18.1948061,21.6506148 L18.1299182,21.3922951 L18.0650302,20.9419262 L18.0001423,20.620041 L17.9352544,20.3630738 L17.8703664,20.1696721 L17.8054785,20.0411885 L17.7405905,19.9762705 L17.6757026,19.9113525 L17.6108147,19.8464344 L17.5459267,19.7815164 L17.4810388,19.7165984 L17.4161508,19.6516803 L17.3512629,19.5867623 L17.286375,19.5218443 L17.221487,19.4569262 L17.1565991,19.3920082 L17.0917111,19.3270902 L17.0268232,19.2621721 L16.9619353,19.1972541 L16.8970473,19.1323361 L16.8321594,19.067418 L16.7672714,19.0025 L16.7023835,18.937582 L16.6374956,18.8726639 L16.5726076,18.8077459 L16.5077197,18.7428279 L16.4428317,18.6779098 L16.3779438,18.6129918 L16.3130559,18.5480738 L16.2481679,18.4195902 L16.18328,18.3546721 L16.118392,18.2897541 L16.0535041,18.2248361 L15.9886162,18.159918 L15.9237282,18.095 L15.8588403,18.030082 L15.7939523,17.9651639 L15.7290644,17.9002459 L15.6641764,17.8353279 L15.5992885,17.7068443 L15.5344006,17.6419262 L15.4695126,17.5770082 L15.4046247,17.5120902 L15.3397367,17.4471721 L15.2748488,17.3822541 L15.2099609,17.2537705 L15.1450729,17.1888525 L15.080185,17.1239344 L15.015297,17.0590164 L14.9504091,16.9305328 L14.8855212,16.8656148 L14.8206332,16.8006967 L14.7557453,16.7357787 L14.6908573,16.6072951 L14.6259694,16.542377 L14.5610815,16.477459 L14.4961935,16.3489754 L14.4313056,16.2840574 L14.3664176,16.2191393 L14.3015297,16.0906557 L14.2366418,16.0257377 L14.1717538,15.9608197 L14.1068659,15.8323361 L14.0419779,15.767418 L13.97709,15.7025 L13.9122021,15.5740164 L13.8473141,15.5090984 L13.7824262,15.4441803 L13.7175382,15.3156967 L13.6526503,15.2507787 L13.5877624,15.1222951 L13.5228744,15.057377 L13.4579865,14.992459 L13.3930985,14.8639754 L13.3282106,14.7990574 L13.2633227,14.6705738 L13.1984347,14.6070082 L13.1335468,14.4785246 L13.0686588,14.4136066 L13.0037709,14.285123 L12.938883,14.2202049 L12.873995,14.0917213 L12.8091071,14.0268033 L12.7442191,13.8983197 L12.6793312,13.8334016 L12.6144433,13.704918 L12.5495553,13.64 L12.4846674,13.5115164 L12.4197794,13.4465984 L12.3548915,13.3181148 L12.2900036,13.1896311 L12.2251156,13.1247131 L12.1602277,12.9962295 L12.0953397,12.9313115 L12.0304518,12.8028279 L11.9655639,12.6743443 L11.9006759,12.6094262 L11.835788,12.4809426 L11.7709,12.4160246 L11.7060121,12.287541 L11.6411242,12.1590574 L11.5762362,12.0305738 L11.5113483,11.9656557 L11.4464603,11.8371721 L11.3815724,11.7086885 L11.3166845,11.6437705 L11.2517965,11.5152869 L11.1869086,11.3868033 L11.1220206,11.2583197 L11.0571327,11.1934016 L10.9922448,11.064918 L10.9273568,11 L10.7340448,11 L10.7718961,11.0432787 Z"/>
  </g>
</svg>
