<?xml version="1.0" encoding="UTF-8" standalone="no"?>
<!DOCTYPE svg PUBLIC "-//W3C//DTD SVG 1.1//EN" "http://www.w3.org/Graphics/SVG/1.1/DTD/svg11.dtd">
<svg width="100%" height="100%" viewBox="0 0 883 730" version="1.1" xmlns="http://www.w3.org/2000/svg" xmlns:xlink="http://www.w3.org/1999/xlink" xml:space="preserve" xmlns:serif="http://www.serif.com/" style="fill-rule:evenodd;clip-rule:evenodd;">
    <g >
        <g id="Isometric_5mm">
            <clipPath id="_clip1">
                <rect x="0" y="0" width="883" height="730"/>
            </clipPath>
            <g clip-path="url(#_clip1)">
                <g opacity="0.6">
                    <g id="Shape" transform="matrix(1,7.65714e-16,7.65714e-16,-1,-2.27374e-13,727)">
                        <path d="M0,0L1080,727" style="fill:none;stroke:black;stroke-width:0.4px;"/>
                    </g>
                    <g id="Shape1" serif:id="Shape" transform="matrix(1,7.65714e-16,7.65714e-16,-1,-2.84217e-13,683)">
                        <path d="M0,0L1012,683" style="fill:none;stroke:black;stroke-width:0.4px;"/>
                    </g>
                    <g id="Shape2" serif:id="Shape" transform="matrix(1,7.65714e-16,7.65714e-16,-1,-2.27374e-13,638)">
                        <path d="M0,0L945,638" style="fill:none;stroke:black;stroke-width:0.4px;"/>
                    </g>
                    <g id="Shape3" serif:id="Shape" transform="matrix(1,7.65714e-16,7.65714e-16,-1,-2.27374e-13,592)">
                        <path d="M0,0L877,592" style="fill:none;stroke:black;stroke-width:0.4px;"/>
                    </g>
                    <g id="Shape4" serif:id="Shape" transform="matrix(1,7.65714e-16,7.65714e-16,-1,-2.27374e-13,546)">
                        <path d="M0,0L809,546" style="fill:none;stroke:black;stroke-width:0.4px;"/>
                    </g>
                    <g id="Shape5" serif:id="Shape" transform="matrix(1,7.65714e-16,7.65714e-16,-1,-1.7053e-13,501)">
                        <path d="M0,0L743,501" style="fill:none;stroke:black;stroke-width:0.4px;"/>
                    </g>
                    <g id="Shape6" serif:id="Shape" transform="matrix(1,7.65714e-16,7.65714e-16,-1,-1.7053e-13,455)">
                        <path d="M0,0L675,455" style="fill:none;stroke:black;stroke-width:0.4px;"/>
                    </g>
                    <g id="Shape7" serif:id="Shape" transform="matrix(1,7.65714e-16,7.65714e-16,-1,-1.7053e-13,410)">
                        <path d="M0,0L607,410" style="fill:none;stroke:black;stroke-width:0.4px;"/>
                    </g>
                    <g id="Shape8" serif:id="Shape" transform="matrix(1,7.65714e-16,7.65714e-16,-1,-1.13687e-13,365)">
                        <path d="M0,0L541,365" style="fill:none;stroke:black;stroke-width:0.4px;"/>
                    </g>
                    <g id="Shape9" serif:id="Shape" transform="matrix(1,7.65714e-16,7.65714e-16,-1,-1.13687e-13,319)">
                        <path d="M0,0L473,319" style="fill:none;stroke:black;stroke-width:0.4px;"/>
                    </g>
                    <g id="Shape10" serif:id="Shape" transform="matrix(1,7.65714e-16,7.65714e-16,-1,-1.13687e-13,273)">
                        <path d="M0,0L405,273" style="fill:none;stroke:black;stroke-width:0.4px;"/>
                    </g>
                    <g id="Shape11" serif:id="Shape" transform="matrix(1,7.65714e-16,7.65714e-16,-1,-8.52651e-14,227)">
                        <path d="M0,0L337,227" style="fill:none;stroke:black;stroke-width:0.4px;"/>
                    </g>
                    <g id="Shape12" serif:id="Shape" transform="matrix(1,7.65714e-16,7.65714e-16,-1,-5.68434e-14,182)">
                        <path d="M0,0L270,182" style="fill:none;stroke:black;stroke-width:0.4px;"/>
                    </g>
                    <g id="Shape13" serif:id="Shape" transform="matrix(1,7.65714e-16,7.65714e-16,-1,-5.68434e-14,137)">
                        <path d="M0,0L202,137" style="fill:none;stroke:black;stroke-width:0.4px;"/>
                    </g>
                    <g id="Shape14" serif:id="Shape" transform="matrix(1,7.65714e-16,7.65714e-16,-1,-2.84217e-14,91)">
                        <path d="M0,0L134,91" style="fill:none;stroke:black;stroke-width:0.4px;"/>
                    </g>
                    <g id="Shape15" serif:id="Shape" transform="matrix(1,7.65714e-16,7.65714e-16,-1,-1.42109e-14,46)">
                        <path d="M0,0L68,46" style="fill:none;stroke:black;stroke-width:0.4px;"/>
                    </g>
                    <g id="Shape16" serif:id="Shape" transform="matrix(1,7.65714e-16,7.65714e-16,-1,-3.41061e-13,775)">
                        <path d="M68,46L1080,729" style="fill:none;stroke:black;stroke-width:0.4px;"/>
                    </g>
                    <g id="Shape17" serif:id="Shape" transform="matrix(1,7.65714e-16,7.65714e-16,-1,-3.41061e-13,820)">
                        <path d="M136,91L1081,729" style="fill:none;stroke:black;stroke-width:0.4px;"/>
                    </g>
                    <g id="Shape18" serif:id="Shape" transform="matrix(1,7.65714e-16,7.65714e-16,-1,-3.41061e-13,866)">
                        <path d="M202,137L1079,729" style="fill:none;stroke:black;stroke-width:0.4px;"/>
                    </g>
                    <g id="Shape19" serif:id="Shape" transform="matrix(1,7.65714e-16,7.65714e-16,-1,-3.41061e-13,910)">
                        <path d="M270,182L1079,728" style="fill:none;stroke:black;stroke-width:0.4px;"/>
                    </g>
                    <g id="Shape20" serif:id="Shape" transform="matrix(1,7.65714e-16,7.65714e-16,-1,-3.41061e-13,957)">
                        <path d="M338,228L1081,729" style="fill:none;stroke:black;stroke-width:0.4px;"/>
                    </g>
                    <g id="Shape21" serif:id="Shape" transform="matrix(1,7.65714e-16,7.65714e-16,-1,-3.41061e-13,1003)">
                        <path d="M405,274L1080,729" style="fill:none;stroke:black;stroke-width:0.4px;"/>
                    </g>
                    <g id="Shape22" serif:id="Shape" transform="matrix(1,7.65714e-16,7.65714e-16,-1,-4.54747e-13,1048)">
                        <path d="M473,319L1080,729" style="fill:none;stroke:black;stroke-width:0.4px;"/>
                    </g>
                    <g id="Shape23" serif:id="Shape" transform="matrix(1,7.65714e-16,7.65714e-16,-1,-4.54747e-13,1095)">
                        <path d="M541,365L1082,730" style="fill:none;stroke:black;stroke-width:0.4px;"/>
                    </g>
                    <g id="Shape24" serif:id="Shape" transform="matrix(1,7.65714e-16,7.65714e-16,-1,-4.54747e-13,1139)">
                        <path d="M608,410L1081,729" style="fill:none;stroke:black;stroke-width:0.4px;"/>
                    </g>
                    <g id="Shape25" serif:id="Shape" transform="matrix(1,7.65714e-16,7.65714e-16,-1,-4.54747e-13,1183)">
                        <path d="M675,455L1080,728" style="fill:none;stroke:black;stroke-width:0.4px;"/>
                    </g>
                    <g id="Shape26" serif:id="Shape" transform="matrix(1,7.65714e-16,7.65714e-16,-1,-4.54747e-13,1229)">
                        <path d="M743,501L1080,728" style="fill:none;stroke:black;stroke-width:0.4px;"/>
                    </g>
                    <g id="Shape27" serif:id="Shape" transform="matrix(1,7.65714e-16,7.65714e-16,-1,-4.54747e-13,1276)">
                        <path d="M811,547L1081,729" style="fill:none;stroke:black;stroke-width:0.4px;"/>
                    </g>
                    <g id="Shape28" serif:id="Shape" transform="matrix(1,7.65714e-16,7.65714e-16,-1,-4.54747e-13,1321)">
                        <path d="M877,592L1079,729" style="fill:none;stroke:black;stroke-width:0.4px;"/>
                    </g>
                    <g id="Shape29" serif:id="Shape" transform="matrix(1,7.65714e-16,7.65714e-16,-1,-5.40012e-13,1412)">
                        <path d="M68,683L0,729" style="fill:none;stroke:black;stroke-width:0.4px;"/>
                    </g>
                    <g id="Shape30" serif:id="Shape" transform="matrix(1,7.65714e-16,7.65714e-16,-1,-5.25802e-13,1367)">
                        <path d="M134,638L0,729" style="fill:none;stroke:black;stroke-width:0.4px;"/>
                    </g>
                    <g id="Shape31" serif:id="Shape" transform="matrix(1,7.65714e-16,7.65714e-16,-1,-5.11591e-13,1321)">
                        <path d="M202,592L0,729" style="fill:none;stroke:black;stroke-width:0.4px;"/>
                    </g>
                    <g id="Shape32" serif:id="Shape" transform="matrix(1,7.65714e-16,7.65714e-16,-1,-4.83169e-13,1276)">
                        <path d="M270,547L0,729" style="fill:none;stroke:black;stroke-width:0.4px;"/>
                    </g>
                    <g id="Shape33" serif:id="Shape" transform="matrix(1,7.65714e-16,7.65714e-16,-1,-4.83169e-13,1229)">
                        <path d="M337,501L0,728" style="fill:none;stroke:black;stroke-width:0.4px;"/>
                    </g>
                    <g id="Shape34" serif:id="Shape" transform="matrix(1,7.65714e-16,7.65714e-16,-1,-4.54747e-13,1183)">
                        <path d="M405,455L0,728" style="fill:none;stroke:black;stroke-width:0.4px;"/>
                    </g>
                    <g id="Shape35" serif:id="Shape" transform="matrix(1,7.65714e-16,7.65714e-16,-1,-4.26326e-13,1139)">
                        <path d="M473,410L0,729" style="fill:none;stroke:black;stroke-width:0.4px;"/>
                    </g>
                    <g id="Shape36" serif:id="Shape" transform="matrix(1,7.65714e-16,7.65714e-16,-1,-3.97904e-13,1095)">
                        <path d="M541,365L0,730" style="fill:none;stroke:black;stroke-width:0.4px;"/>
                    </g>
                    <g id="Shape37" serif:id="Shape" transform="matrix(1,7.65714e-16,7.65714e-16,-1,-3.97904e-13,1048)">
                        <path d="M607,319L0,729" style="fill:none;stroke:black;stroke-width:0.4px;"/>
                    </g>
                    <g id="Shape38" serif:id="Shape" transform="matrix(1,7.65714e-16,7.65714e-16,-1,-3.97904e-13,1003)">
                        <path d="M675,274L0,729" style="fill:none;stroke:black;stroke-width:0.4px;"/>
                    </g>
                    <g id="Shape39" serif:id="Shape" transform="matrix(1,7.65714e-16,7.65714e-16,-1,-3.41061e-13,957)">
                        <path d="M743,228L0,729" style="fill:none;stroke:black;stroke-width:0.4px;"/>
                    </g>
                    <g id="Shape40" serif:id="Shape" transform="matrix(1,7.65714e-16,7.65714e-16,-1,-3.41061e-13,910)">
                        <path d="M809,182L0,728" style="fill:none;stroke:black;stroke-width:0.4px;"/>
                    </g>
                    <g id="Shape41" serif:id="Shape" transform="matrix(1,7.65714e-16,7.65714e-16,-1,-3.41061e-13,866)">
                        <path d="M877,137L0,729" style="fill:none;stroke:black;stroke-width:0.4px;"/>
                    </g>
                    <g id="Shape42" serif:id="Shape" transform="matrix(1,7.65714e-16,7.65714e-16,-1,-3.41061e-13,820)">
                        <path d="M945,91L0,729" style="fill:none;stroke:black;stroke-width:0.4px;"/>
                    </g>
                    <g id="Shape43" serif:id="Shape" transform="matrix(1,7.65714e-16,7.65714e-16,-1,-2.84217e-13,775)">
                        <path d="M1012,46L0,729" style="fill:none;stroke:black;stroke-width:0.4px;"/>
                    </g>
                    <g id="Shape44" serif:id="Shape" transform="matrix(1,7.65714e-16,7.65714e-16,-1,-2.27374e-13,727)">
                        <path d="M1080,0L0,727" style="fill:none;stroke:black;stroke-width:0.4px;"/>
                    </g>
                    <g id="Shape45" serif:id="Shape" transform="matrix(1,7.65714e-16,7.65714e-16,-1,-2.27374e-13,683)">
                        <path d="M1080,0L68,683" style="fill:none;stroke:black;stroke-width:0.4px;"/>
                    </g>
                    <g id="Shape46" serif:id="Shape" transform="matrix(1,7.65714e-16,7.65714e-16,-1,-2.27374e-13,638)">
                        <path d="M1081,0L136,638" style="fill:none;stroke:black;stroke-width:0.4px;"/>
                    </g>
                    <g id="Shape47" serif:id="Shape" transform="matrix(1,7.65714e-16,7.65714e-16,-1,-2.27374e-13,592)">
                        <path d="M1079,0L202,592" style="fill:none;stroke:black;stroke-width:0.4px;"/>
                    </g>
                    <g id="Shape48" serif:id="Shape" transform="matrix(1,7.65714e-16,7.65714e-16,-1,-2.27374e-13,546)">
                        <path d="M1079,0L270,546" style="fill:none;stroke:black;stroke-width:0.4px;"/>
                    </g>
                    <g id="Shape49" serif:id="Shape" transform="matrix(1,7.65714e-16,7.65714e-16,-1,-2.27374e-13,501)">
                        <path d="M1081,0L338,501" style="fill:none;stroke:black;stroke-width:0.4px;"/>
                    </g>
                    <g id="Shape50" serif:id="Shape" transform="matrix(1,7.65714e-16,7.65714e-16,-1,-2.27374e-13,455)">
                        <path d="M1080,0L405,455" style="fill:none;stroke:black;stroke-width:0.4px;"/>
                    </g>
                    <g id="Shape51" serif:id="Shape" transform="matrix(1,7.65714e-16,7.65714e-16,-1,-1.13687e-13,410)">
                        <path d="M1080,0L473,410" style="fill:none;stroke:black;stroke-width:0.4px;"/>
                    </g>
                    <g id="Shape52" serif:id="Shape" transform="matrix(1,7.65714e-16,7.65714e-16,-1,-1.13687e-13,365)">
                        <path d="M1082,0L541,365" style="fill:none;stroke:black;stroke-width:0.4px;"/>
                    </g>
                    <g id="Shape53" serif:id="Shape" transform="matrix(1,7.65714e-16,7.65714e-16,-1,-1.13687e-13,319)">
                        <path d="M1081,0L608,319" style="fill:none;stroke:black;stroke-width:0.4px;"/>
                    </g>
                    <g id="Shape54" serif:id="Shape" transform="matrix(1,7.65714e-16,7.65714e-16,-1,-1.13687e-13,273)">
                        <path d="M1080,0L675,273" style="fill:none;stroke:black;stroke-width:0.4px;"/>
                    </g>
                    <g id="Shape55" serif:id="Shape" transform="matrix(1,7.65714e-16,7.65714e-16,-1,-1.13687e-13,227)">
                        <path d="M1080,0L743,227" style="fill:none;stroke:black;stroke-width:0.4px;"/>
                    </g>
                    <g id="Shape56" serif:id="Shape" transform="matrix(1,7.65714e-16,7.65714e-16,-1,-1.13687e-13,182)">
                        <path d="M1081,0L811,182" style="fill:none;stroke:black;stroke-width:0.4px;"/>
                    </g>
                    <g id="Shape57" serif:id="Shape" transform="matrix(1,7.65714e-16,7.65714e-16,-1,0,137)">
                        <path d="M1079,0L877,137" style="fill:none;stroke:black;stroke-width:0.4px;"/>
                    </g>
                    <g id="Shape58" serif:id="Shape" transform="matrix(1,7.65714e-16,7.65714e-16,-1,-2.84217e-13,727)">
                        <path d="M67,0L67,727" style="fill:none;stroke:black;stroke-width:0.4px;"/>
                    </g>
                    <g id="Shape59" serif:id="Shape" transform="matrix(1,7.65714e-16,7.65714e-16,-1,-2.84217e-13,727)">
                        <path d="M133,0L133,727" style="fill:none;stroke:black;stroke-width:0.4px;"/>
                    </g>
                    <g id="Shape60" serif:id="Shape" transform="matrix(1,7.65714e-16,7.65714e-16,-1,-2.84217e-13,727)">
                        <path d="M202,0L202,727" style="fill:none;stroke:black;stroke-width:0.4px;"/>
                    </g>
                    <g id="Shape61" serif:id="Shape" transform="matrix(1,7.65714e-16,7.65714e-16,-1,-2.84217e-13,727)">
                        <path d="M269,0L269,727" style="fill:none;stroke:black;stroke-width:0.4px;"/>
                    </g>
                    <g id="Shape62" serif:id="Shape" transform="matrix(1,7.65714e-16,7.65714e-16,-1,-2.84217e-13,727)">
                        <path d="M336,0L336,727" style="fill:none;stroke:black;stroke-width:0.4px;"/>
                    </g>
                    <g id="Shape63" serif:id="Shape" transform="matrix(1,7.65714e-16,7.65714e-16,-1,-2.84217e-13,727)">
                        <path d="M405,0L405,727" style="fill:none;stroke:black;stroke-width:0.4px;"/>
                    </g>
                    <g id="Shape64" serif:id="Shape" transform="matrix(1,7.65714e-16,7.65714e-16,-1,-2.84217e-13,727)">
                        <path d="M471,0L471,727" style="fill:none;stroke:black;stroke-width:0.4px;"/>
                    </g>
                    <g id="Shape65" serif:id="Shape" transform="matrix(1,7.65714e-16,7.65714e-16,-1,-2.27374e-13,727)">
                        <path d="M538,0L538,727" style="fill:none;stroke:black;stroke-width:0.4px;"/>
                    </g>
                    <g id="Shape66" serif:id="Shape" transform="matrix(1,7.65714e-16,7.65714e-16,-1,-2.27374e-13,727)">
                        <path d="M607,0L607,727" style="fill:none;stroke:black;stroke-width:0.4px;"/>
                    </g>
                    <g id="Shape67" serif:id="Shape" transform="matrix(1,7.65714e-16,7.65714e-16,-1,-2.27374e-13,727)">
                        <path d="M674,0L674,727" style="fill:none;stroke:black;stroke-width:0.4px;"/>
                    </g>
                    <g id="Shape68" serif:id="Shape" transform="matrix(1,7.65714e-16,7.65714e-16,-1,-2.27374e-13,727)">
                        <path d="M740,0L740,727" style="fill:none;stroke:black;stroke-width:0.4px;"/>
                    </g>
                    <g id="Shape69" serif:id="Shape" transform="matrix(1,7.65714e-16,7.65714e-16,-1,-2.27374e-13,727)">
                        <path d="M809,0L809,727" style="fill:none;stroke:black;stroke-width:0.4px;"/>
                    </g>
                    <g id="Shape70" serif:id="Shape" transform="matrix(1,7.65714e-16,7.65714e-16,-1,-2.27374e-13,727)">
                        <path d="M876,0L876,727" style="fill:none;stroke:black;stroke-width:0.4px;"/>
                    </g>
                </g>
            </g>
        </g>
        <rect id="Rectangle-10" x="0" y="0" width="883" height="730" style="fill:url(#_Radial2);"/>
    </g>
    <defs>
        <radialGradient id="_Radial2" cx="0" cy="0" r="1" gradientUnits="userSpaceOnUse" gradientTransform="matrix(447.204,0,0,447.204,447.514,348.474)"><stop offset="0" style="stop-color:#FEFEFE;stop-opacity:0"/><stop offset="0.74" style="stop-color:#FEFEFE;stop-opacity:0.529412"/><stop offset="1" style="stop-color:#FEFEFE;stop-opacity:1"/></radialGradient>
    </defs>
</svg>
