<?xml version="1.0" encoding="UTF-8"?>
<svg width="300px" height="300px" viewBox="0 0 300 300" version="1.1" xmlns="http://www.w3.org/2000/svg" xmlns:xlink="http://www.w3.org/1999/xlink">
    <title>SVG/Jet_finder_logo</title>
    <defs>
        <linearGradient x1="0%" y1="0%" x2="100%" y2="100%" id="linearGradient-1">
            <stop stop-color="#163973" offset="0%"></stop>
            <stop stop-color="#194080" offset="100%"></stop>
        </linearGradient>
    </defs>
    <g id="Page-1" stroke="none" stroke-width="1" fill="none" fill-rule="evenodd">
        <g id="Artboard" fill="url(#linearGradient-1)">
            <path d="M150,0 C232.842712,0 300,67.1572875 300,150 C300,163.25755 298.280069,176.113389 295.051165,188.356558 C294.045584,187.657495 293.092345,187.033242 292.203046,186.485875 L291.45672,186.03558 C290.239842,185.316632 289.16022,184.755804 288.251673,184.359148 C283.619062,182.409267 278.596685,181.24228 273.339181,181.016923 L271.755031,180.977724 C265.922376,181.030063 260.354887,182.22763 255.259015,184.3725 L254.7172,184.619 L253.525974,185.219835 C251.635922,186.22815 249.294569,187.71593 246.679487,189.651881 L244.897496,191.008567 C239.441556,195.275753 233.048544,201.307807 227.139041,208.854386 L227.149752,209.647829 C227.149752,220.340574 221.326997,229.665541 212.694588,234.589152 C209.880692,242.430671 208.153545,251.021102 208.153545,260.247528 C208.153545,270.25735 211.029815,278.375523 215.579236,284.939216 C195.772117,294.587599 173.518126,300 150,300 C67.1572875,300 0,232.842712 0,150 C0,67.1572875 67.1572875,0 150,0 Z M52.5,212.642648 L52.8889021,218.2538 L53.2936947,223.262876 L53.5038778,225.552428 L53.8309424,228.730163 L54.1743485,231.612938 L54.413583,233.378114 L54.6619082,235.022989 L54.9200554,236.551879 L55.0530406,237.274178 L55.0530406,237.274178 L55.3272915,238.637183 L55.6131923,239.894994 L55.9114739,241.051928 L56.0654861,241.593915 L56.0654861,241.593915 L56.3837102,242.607627 L56.5481048,243.080432 L56.5481048,243.080432 L56.8879163,243.960634 C57.7562724,246.05483 58.7681185,247.365177 59.9748642,248.195192 L60.468079,248.5023 C60.5520545,248.549454 60.6369267,248.594654 60.7227108,248.637989 L61.2484805,248.876337 L61.8857828,249.102142 L62.2265128,249.19954 L62.5757625,249.285222 L63.3233432,249.428819 L63.7234593,249.487538 L64.3763515,249.562467 L77.035365,250.71657 L88.3025806,251.793719 L99.1174344,252.877318 L109.479926,253.967365 L116.136942,254.697646 L122.592908,255.430793 L131.899889,256.535888 L136.264046,257.075833 L140.418584,257.60408 L144.38227,258.121993 L148.89889,258.730094 L153.281982,259.3401 L157.364126,259.927496 L162.615557,260.713419 L166.410561,261.304909 L169.142335,261.74418 C171.806282,262.17838 174.929221,263.068922 178.511072,264.415916 L179.599394,264.833707 C180.334121,265.121364 181.087203,265.42728 181.858641,265.751455 L183.029565,266.251411 C183.819358,266.593846 184.627507,266.95454 185.45401,267.333495 L186.70753,267.915623 C186.918744,268.014927 187.131106,268.115372 187.344615,268.216958 L188.639432,268.840174 C188.857529,268.946326 189.076773,269.053619 189.297164,269.162054 L192.321777,270.684791 L193.885666,271.497488 L195.407053,272.3033 L197.363906,273.360359 L199.26597,274.408558 L201.16554,275.47439 L206.942233,278.991275 C202.328342,270.531598 201.879605,261.211627 202.691929,253.147994 L202.799827,252.146736 L202.799827,252.146736 L202.936785,251.025994 L203.09071,249.900444 L203.253182,248.819405 L203.425415,247.760568 L203.871042,245.299678 L204.434346,242.534547 L205.288813,238.634843 L66.3478595,243.563156 L65.8846911,243.549368 C62.2508352,243.386953 60.3109084,241.943255 58.4916475,237.018749 L58.2647546,236.384897 C58.2270059,236.276181 58.1892811,236.165914 58.1515661,236.054076 L57.9252782,235.364047 L57.9252782,235.364047 L57.4248989,233.708608 L57.17162,232.807571 L57.17162,232.807571 L56.6181764,230.710664 L56.3145396,229.496446 L55.8521134,227.578142 L55.1526102,224.559347 L52.5,212.642648 Z M238.121668,223.363294 L238.436037,223.433343 L271.755657,234.196151 L271.755031,234.1828 L274.837602,233.188611 C271.43184,238.289329 267.721778,243.169566 263.733367,247.80337 L231.588957,237.522533 L231.413479,237.455733 C230.836898,237.198854 230.522902,236.664614 230.621565,236.133867 L230.705979,235.870085 L236.452835,224.16906 L236.540565,224.011215 C236.852054,223.537659 237.48912,223.280867 238.121668,223.363294 Z M198.157143,183.697734 C183.994429,183.697734 172.51328,195.23308 172.51328,209.462651 C172.51328,223.692221 183.994429,235.227567 198.157143,235.227567 C212.319858,235.227567 223.801007,223.692221 223.801007,209.462651 C223.801007,195.23308 212.319858,183.697734 198.157143,183.697734 Z M198.157143,188.664465 C209.589696,188.664465 218.857611,197.97613 218.857611,209.462651 C218.857611,220.949172 209.589696,230.260837 198.157143,230.260837 C186.724591,230.260837 177.456675,220.949172 177.456675,209.462651 C177.456675,197.97613 186.724591,188.664465 198.157143,188.664465 Z M198.071236,210.029479 L197.950305,210.835839 C197.845781,211.607676 197.793519,212.271893 197.793519,212.828489 C197.787129,213.608769 197.826423,214.381145 197.896639,215.139153 L198.023307,216.264579 L198.167813,217.255027 L198.276054,217.901699 L198.450291,218.848647 L199.088307,222.030285 L199.226504,222.803195 L199.302137,223.292402 L199.361782,223.759536 L199.398503,224.143301 C199.565089,226.268129 199.001649,227.534925 196.457718,227.39604 C196.919181,227.463491 197.45408,227.498092 198.070503,227.498092 C201.655733,227.498092 202.483194,226.327577 202.143848,224.331583 L202.086043,224.033633 L202.086043,224.033633 L201.996711,223.662639 L201.890131,223.285704 L201.766027,222.893899 L201.472235,222.067194 L201.129307,221.185554 L200.04698,218.502526 L199.844331,217.977454 L199.545708,217.170252 L199.258745,216.340672 L198.904456,215.201964 L198.743383,214.619491 L198.595352,214.028777 L198.46211,213.430201 C198.336844,212.827819 198.236383,212.214213 198.168585,211.591085 L198.092369,210.649467 L198.071236,210.029479 Z M197.863329,209.952442 C197.263242,210.920157 196.821865,211.746833 196.539199,212.43247 C196.296719,213.007212 196.083177,213.588523 195.892852,214.170437 L195.624061,215.043017 L195.357953,216.020181 L195.052692,217.305034 L194.790781,218.555439 L194.284948,221.164691 L194.006339,222.442589 L193.886927,222.910603 L193.760247,223.351133 C193.105653,225.481922 192.110571,226.511252 189.756512,225.377531 C190.157157,225.617274 190.638161,225.854906 191.207661,226.091914 C194.582037,227.496224 195.7749,226.677783 196.201331,224.620354 L196.268916,224.244617 L196.319832,223.866017 L196.375551,223.259085 L196.419002,222.382349 L196.437982,221.435968 L196.465648,218.260675 L196.504296,217.117435 L196.53575,216.53451 L196.57725,215.945411 L196.630265,215.351159 L196.696264,214.752775 C196.823982,213.702585 197.018097,212.638109 197.314049,211.583983 L197.645258,210.534221 L197.863329,209.952442 Z M198.294338,210.020461 L198.390977,210.424241 C198.618458,211.349541 198.855864,212.112157 199.103197,212.71209 C199.307102,213.218429 199.530214,213.712583 199.767009,214.19445 L200.131774,214.908024 L200.457626,215.504932 L200.792905,216.088195 L201.481313,217.213594 L202.176129,218.283837 L203.501511,220.257313 L204.090341,221.159776 L204.357161,221.58977 L204.602105,222.005542 L204.822566,222.407043 C205.859316,224.378791 205.880113,225.813588 203.417646,226.684354 C203.869673,226.569242 204.377035,226.395547 204.946535,226.158539 C208.184363,224.811055 208.561651,223.443429 207.574052,221.782045 L207.373247,221.467027 L207.1624,221.171136 L206.802668,220.715084 L206.536352,220.402453 L205.947783,219.755156 L205.464106,219.24918 L203.288373,217.027374 L202.905117,216.623204 L201.944736,215.566134 L201.002405,214.438542 L200.456721,213.726113 L199.932835,212.985498 L199.436484,212.215645 L199.123715,211.685649 L198.827433,211.141881 L198.54934,210.584031 L198.294338,210.020461 Z M197.69914,209.80219 C196.960742,210.33285 196.350568,210.81917 195.868618,211.261151 L195.288173,211.828654 C194.908179,212.2172 194.546329,212.617831 194.200601,213.025375 L193.693847,213.641228 L192.877018,214.709927 L192.119155,215.778152 L191.584858,216.567252 L190.122945,218.784538 L189.671887,219.446143 L189.089752,220.24521 L188.804796,220.603644 C187.526363,222.153269 186.333422,222.767078 184.83134,221.435809 L184.50459,221.120398 L184.339,220.94 L184.510587,221.164957 C184.757891,221.474794 185.054113,221.803733 185.402815,222.154081 C187.841056,224.603832 189.237501,224.475635 190.376962,222.992122 L190.587791,222.698379 L190.878396,222.231359 L191.068314,221.889107 L191.256305,221.52389 L191.630385,220.730598 L191.913092,220.086569 L193.243366,216.940602 L193.593032,216.161313 L193.965603,215.372788 L194.503645,214.315853 L194.942372,213.525578 L195.253434,213.002713 L195.580487,212.484794 C195.915857,211.969852 196.276667,211.464594 196.667275,210.97581 L197.276078,210.255838 L197.69914,209.80219 Z M198.495088,209.922816 C199.155296,210.85017 199.746549,211.576229 200.268847,212.100993 L200.758428,212.584464 L201.259705,213.048907 L201.770356,213.49524 L202.548826,214.132787 L203.072748,214.537854 L203.860237,215.1178 L204.382913,215.487332 L205.157644,216.018273 L207.565278,217.622895 L208.204931,218.066646 L208.602918,218.355696 L208.975437,218.640387 L209.330797,218.930661 C210.863229,220.233368 211.41374,221.454916 209.92689,223.011895 L209.58,223.34625 L209.960253,223.045278 L210.363999,222.687918 L210.788944,222.277187 C213.227186,219.827436 213.099591,218.424399 211.623048,217.279559 L211.330685,217.067735 L210.86586,216.775757 L210.525215,216.584944 L209.776858,216.208147 L208.731146,215.736177 L206.858479,214.94293 L205.59996,214.399624 L204.824333,214.048307 L204.039512,213.673977 L203.513694,213.410017 L202.462564,212.843141 L201.680573,212.380067 L201.165087,212.051471 C200.652565,211.714517 200.149681,211.352003 199.663193,210.959552 L198.946604,210.347875 L198.495088,209.922816 Z M197.604678,209.600247 C196.499289,209.858196 195.605387,210.12917 194.922971,210.41317 C194.191953,210.710341 193.486451,211.048115 192.806777,211.409556 L191.806674,211.967349 L190.658015,212.665674 L190.104856,213.020289 L189.301722,213.551307 L186.857219,215.202084 L186.194303,215.625863 L185.564196,216.000201 L185.162436,216.217719 L184.775383,216.406405 C183.247614,217.103951 182.078254,217.034608 181.28201,215.393995 L181.104892,214.987133 L181.016785,214.753476 L181.182129,215.320103 C181.279311,215.619941 181.398162,215.940779 181.539699,216.284092 C182.880852,219.537205 184.242052,219.916274 185.89563,218.924012 L186.209169,218.72226 L186.503669,218.510417 L186.957578,218.148987 L187.58711,217.594538 L187.912996,217.290067 L190.627962,214.618103 L191.030233,214.233037 L192.082336,213.268123 L192.974324,212.507968 L193.674286,211.953688 L194.650848,211.246724 L195.417083,210.748031 L195.944589,210.433785 L196.485802,210.136105 L197.041032,209.856699 L197.604678,209.600247 Z M198.644633,209.757852 C199.607802,210.360772 200.430594,210.804232 201.113009,211.088232 C201.685051,211.331857 202.26363,211.546407 202.842811,211.737631 L203.71129,212.007691 L204.683864,212.275055 L205.326619,212.434759 L205.96268,212.581757 L207.20721,212.844904 L209.804203,213.353125 L211.076097,213.633049 L211.541912,213.753025 L211.980372,213.880303 C213.81838,214.450296 214.832956,215.27724 214.336291,217.027264 L214.194536,217.447805 L214.005,217.87875 L214.23522,217.473186 C214.393474,217.168339 214.551013,216.826398 214.708276,216.444939 C216.105988,213.054633 215.291392,211.85614 213.24363,211.427695 L212.869658,211.359792 L212.492837,211.308635 L211.888757,211.252653 L211.01614,211.208997 L210.074205,211.189928 L208.283488,211.180193 L206.913831,211.162131 L205.775962,211.1233 L205.195776,211.091698 L204.609445,211.050002 L203.422413,210.930426 C202.377157,210.802105 201.317682,210.607073 200.268509,210.309725 L199.223679,209.976952 L198.644633,209.757852 Z M180.307,207.768 L180.271669,208.042307 C180.22848,208.43709 180.206439,208.880135 180.206439,209.375601 C180.206439,213.153471 181.487887,213.883638 183.654621,213.410097 L184.023872,213.320344 L184.789,213.088571 L185.193388,212.94803 L186.489319,212.448845 L189.682346,211.157803 L190.485755,210.85777 L191.311438,210.569453 L192.444795,210.213492 L193.024531,210.051658 L193.61247,209.902928 L194.208234,209.769057 C194.807785,209.6432 195.418509,209.542264 196.038709,209.474147 L196.975903,209.39757 L197.594323,209.377356 L197.183439,209.31172 C196.245537,209.16878 195.45343,209.09731 194.807119,209.09731 C194.17627,209.092095 193.550611,209.117166 192.933592,209.164574 L192.014974,209.251445 L191.336072,209.334998 L190.667005,209.431528 L189.684236,209.595152 L188.729738,209.773823 L186.350634,210.25928 L185.26812,210.469183 L184.032719,210.660698 L183.360823,210.722719 L182.94406,210.736789 C181.390822,210.744908 180.419099,210.203691 180.308319,208.469077 L180.298722,208.010188 L180.307,207.768 Z M212.659666,205.515205 L212.290414,205.604958 L211.525286,205.836731 L210.702465,206.13191 L209.824967,206.476456 L207.154545,207.563892 L205.828531,208.067532 L205.002849,208.355849 L204.440648,208.538626 L203.580672,208.794255 L202.701816,209.022374 L202.106052,209.156245 C201.506501,209.282101 200.895777,209.383037 200.275578,209.451155 L199.338383,209.527731 L198.719963,209.547946 L199.130847,209.613581 C199.834274,209.720786 200.455691,209.78779 200.995098,209.814591 L201.507168,209.827991 L201.856091,209.827832 C202.485055,209.822132 203.108188,209.787599 203.72204,209.73219 L204.635424,209.634413 L205.309769,209.54412 L205.973733,209.442087 L207.266154,209.212868 L210.239106,208.610574 L211.554891,208.368493 L212.043928,208.295169 L212.510025,208.239053 L212.95209,208.202664 L213.369031,208.188518 C214.922936,208.180116 215.895121,208.721144 216.005961,210.456121 L216.015564,210.915113 L216.00375,211.155 L216.042618,210.882994 C216.085806,210.488211 216.107848,210.045166 216.107848,209.5497 C216.107848,205.77183 214.826399,205.041663 212.659666,205.515205 Z M210.418657,200.001289 L210.105118,200.203041 L209.810617,200.414884 L209.356709,200.776314 L209.045546,201.043888 L208.40129,201.635234 L207.897692,202.121195 L205.686325,204.307199 L204.660944,205.271894 L203.791726,206.039561 L203.109656,206.603957 L202.400575,207.152218 L201.912332,207.505913 L201.411312,207.848167 L200.897203,208.177271 L200.369697,208.491516 L199.828484,208.789196 L199.273255,209.068602 L198.709609,209.325054 L199.114216,209.227713 C200.035169,208.999158 200.794202,208.760631 201.391315,208.512131 C202.122334,208.21496 202.827835,207.877186 203.50751,207.515746 L204.507613,206.957953 L205.088982,206.611521 L206.209431,205.905013 L207.012564,205.373994 L208.761512,204.187178 L209.457068,203.723218 L210.119984,203.299439 L210.952806,202.812909 L211.538903,202.518896 C213.066673,201.82135 214.236032,201.890693 215.032276,203.531306 L215.209395,203.938168 L215.296219,204.171825 L215.132158,203.605199 C215.034975,203.30536 214.916124,202.984522 214.774587,202.641209 C213.433435,199.388096 212.072234,199.009028 210.418657,200.001289 Z M182.301,201.043 L182.079066,201.452116 C181.920813,201.756962 181.763274,202.098904 181.606011,202.480363 C180.276479,205.705288 180.948686,206.94702 182.779901,207.429245 L183.070657,207.497606 L183.070657,207.497606 L183.444628,207.56551 L183.82145,207.616666 L184.425529,207.672648 L185.298146,207.716304 L186.240081,207.735374 L188.030799,207.745109 L189.400456,207.763171 L190.538324,207.802001 L191.704842,207.875299 L192.296302,207.928565 L192.891874,207.994875 C193.93713,208.123196 194.996604,208.318228 196.045777,208.615577 L197.090608,208.948349 L197.669653,209.16745 L197.315045,208.948829 C196.50298,208.456156 195.798391,208.085569 195.201277,207.837069 C194.629236,207.593444 194.050656,207.378894 193.471476,207.18767 L192.602996,206.91761 L191.630423,206.650247 L190.351606,206.343545 L189.107077,206.080397 L186.510084,205.572177 L185.729483,205.406743 L184.772374,205.172277 L184.333915,205.044998 C182.354521,204.43116 181.330114,203.519318 182.107931,201.492851 L182.301,201.043 Z M205.937325,195.933179 L205.726496,196.226922 L205.43589,196.693942 L205.245973,197.036194 L204.870947,197.788084 L204.401194,198.838733 L203.611674,200.72024 L203.07092,201.984699 L202.721254,202.763988 L202.348683,203.552514 L201.810642,204.609448 L201.371914,205.399723 L201.060852,205.922589 L200.7338,206.440507 C200.398429,206.955449 200.037619,207.460707 199.647012,207.949491 L199.038209,208.669464 L198.615146,209.123111 L198.951879,208.877612 C199.524726,208.453671 200.01129,208.059568 200.41157,207.6953 L200.783089,207.340979 L201.026113,207.096647 C201.406107,206.708102 201.767957,206.307471 202.113685,205.899927 L202.620439,205.284073 L203.036702,204.750886 L203.823093,203.679981 L204.195131,203.14715 L204.729429,202.358049 L206.191342,200.140763 L206.6424,199.479158 L206.935823,199.066739 L207.224535,198.680091 L207.509491,198.321657 C208.787924,196.772033 209.980865,196.158223 211.482946,197.489492 L211.809696,197.804904 L211.976621,197.985668 L211.803699,197.760344 C211.556396,197.450507 211.260173,197.121568 210.911472,196.771221 C208.47323,194.321469 207.076786,194.449666 205.937325,195.933179 Z M186.737576,195.574482 C186.363802,195.854631 185.961219,196.21018 185.525343,196.648114 C183.087101,199.097866 183.214696,200.500902 184.691239,201.645742 L184.983601,201.857567 L185.448427,202.149544 L185.789071,202.340358 L186.537428,202.717154 L186.942137,202.905082 L187.583141,203.189124 L190.714326,204.525678 L191.489954,204.876994 L192.274775,205.251324 L193.326743,205.791905 L194.113305,206.232704 L194.633714,206.545234 L195.149199,206.873831 C195.661722,207.210785 196.164606,207.573298 196.651093,207.965749 L197.367683,208.577426 L197.819199,209.002486 L197.574853,208.664163 C197.012255,207.896762 196.50245,207.283477 196.04544,206.824309 L195.555858,206.340838 L195.054581,205.876394 L194.54393,205.430062 L194.026229,205.000923 L193.241539,204.387447 L192.45405,203.807501 L191.156642,202.907029 L188.749008,201.302406 L188.109356,200.858655 L187.711368,200.569606 L187.338849,200.284915 L186.983489,199.99464 C186.886907,199.912537 186.794226,199.830756 186.705709,199.749193 L186.452916,199.505054 C185.254064,198.286589 185.051696,197.093727 186.737576,195.574482 Z M200.112955,194.304947 L200.045371,194.680684 L199.994455,195.059285 L199.938736,195.666216 L199.895285,196.542952 L199.876305,197.489333 L199.866616,199.288504 L199.848639,200.664627 L199.80999,201.807867 L199.778536,202.390791 L199.737037,202.97989 L199.684022,203.574143 L199.618022,204.172526 C199.490305,205.222716 199.296189,206.287192 199.000237,207.341318 L198.669028,208.391081 L198.455894,208.961523 L198.66855,208.616577 C199.158909,207.800679 199.527755,207.092764 199.775087,206.492831 C200.017568,205.918089 200.231109,205.336779 200.421435,204.754864 L200.690226,203.882285 L200.956333,202.90512 L201.261594,201.620267 L201.523506,200.369862 L202.029338,197.76061 L202.307948,196.482713 L202.427359,196.014698 L202.55404,195.574169 C203.208634,193.443379 204.203716,192.414049 206.557774,193.547771 C206.157129,193.308027 205.676126,193.070396 205.106626,192.833387 C201.732249,191.429077 200.539387,192.247518 200.112955,194.304947 Z M192.89664,192.240947 C192.444614,192.356059 191.937252,192.529755 191.367751,192.766763 C188.129923,194.114246 187.752635,195.481872 188.740235,197.143256 L188.941039,197.458275 L189.266215,197.904515 L189.511619,198.210217 L190.063463,198.842721 L190.366503,199.170145 L193.025914,201.897927 L193.986077,202.928148 L194.750136,203.801469 L195.311881,204.48676 L195.857566,205.199188 L196.381452,205.939804 L196.550245,206.193121 L196.877802,206.709656 L197.190572,207.239652 L197.486853,207.78342 L197.764946,208.34127 L198.015,208.89375 L197.923309,208.50106 C197.695829,207.57576 197.458422,206.813144 197.21109,206.213212 C197.007184,205.706873 196.784072,205.212719 196.547277,204.730851 L196.182512,204.017277 L195.856661,203.42037 L195.521381,202.837106 L194.832973,201.711707 L194.138158,200.641464 L192.812775,198.667988 L192.223945,197.765525 L191.957126,197.335531 L191.712181,196.91976 L191.49172,196.518259 C190.454971,194.54651 190.434174,193.111713 192.89664,192.240947 Z M198.243784,191.427209 C194.483664,191.427209 193.756927,192.714706 194.228244,194.891668 L194.317575,195.262663 L194.424155,195.639598 L194.548259,196.031403 L194.842051,196.858108 L195.184979,197.739748 L196.267306,200.422776 L196.768579,201.755049 L197.055541,202.58463 L197.491888,204.01352 L197.718935,204.896524 L197.852177,205.4951 C197.977442,206.097482 198.077904,206.711089 198.145701,207.334216 L198.221918,208.275835 L198.241,208.893 L198.307184,208.484308 C198.449633,207.54202 198.520768,206.746174 198.520768,206.096812 C198.527158,205.316533 198.487863,204.544156 198.417648,203.786149 L198.29098,202.660722 L198.146473,201.670274 L198.038232,201.023603 L197.863996,200.076654 L197.22598,196.895016 L197.087783,196.122107 L197.01215,195.632899 L196.952505,195.165766 L196.915784,194.782 L196.915784,194.782 L196.894219,194.416049 C196.822337,192.513002 197.46228,191.398546 199.856568,191.529261 C199.395106,191.461811 198.860206,191.427209 198.243784,191.427209 Z M76.8739896,138.75 L48.75,138.75 L48.75,177.711039 L53.0763146,177.711039 L53.076262,159.433869 L75.6631006,159.433905 L75.6631006,154.892978 L53.076262,154.892857 L53.076262,143.318011 L76.8739896,143.318289 L76.8739896,138.75 Z M86.0124882,138.75 L81.6861736,138.75 L81.6861736,177.711039 L86.0124882,177.711039 L86.0124882,138.75 Z M95.8633445,138.75 L91.5747749,138.75 L91.5747749,177.711039 L95.9010895,177.711039 L95.9009804,145.588688 L124.52953,177.711039 L128.768076,177.711039 L128.768076,138.75 L124.491185,138.75 L124.490934,170.976931 L95.8633445,138.75 Z M152.112488,138.751591 L133.670362,138.75 L133.670362,177.711039 L151.80984,177.711039 L152.18671,177.709247 C153.940089,177.69252 155.618575,177.558696 157.222114,177.307538 C158.952705,177.036481 160.55999,176.600953 162.043448,176.000277 C163.54014,175.394241 164.902491,174.587872 166.128685,173.581514 C167.365215,172.566673 168.416122,171.331292 169.279451,169.878367 C170.140929,168.428557 170.80557,166.733645 171.275076,164.796081 C171.742946,162.865271 171.975704,160.667726 171.975704,158.203159 C171.975704,154.517959 171.461506,151.422007 170.424575,148.917098 C169.385745,146.407604 167.945147,144.387563 166.105641,142.867218 C164.279704,141.358088 162.128447,140.292645 159.657553,139.670024 C157.517886,139.130867 155.226157,138.828952 152.782659,138.763561 L152.112488,138.751591 Z M206.480044,138.75 L176.947469,138.75 L176.947469,177.711039 L206.850724,177.711039 L206.850724,173.14275 L181.545325,173.142686 L181.545325,159.433869 L205.219731,159.433905 L205.219731,154.892978 L181.545325,154.892857 L181.545325,143.318011 L206.480044,143.318289 L206.480044,138.75 Z M229.531743,138.750866 L211.730865,138.75 L211.730865,177.711039 L216.05718,177.711039 L216.057126,161.622522 L229.561213,161.621673 C229.833842,161.619699 230.101815,161.615093 230.365136,161.607852 L230.756629,161.595015 L231.119043,161.579381 L231.478389,161.560268 L231.848941,161.536398 L242.781135,177.711039 L248.230519,177.711039 L236.47123,160.888072 L236.831939,160.788645 C239.250011,160.092555 241.075474,158.979609 242.296817,157.435359 C243.736508,155.615032 244.45129,153.206629 244.45129,150.241114 C244.45129,148.343942 244.163239,146.671981 243.582355,145.229765 C242.991787,143.763506 242.056685,142.539924 240.787379,141.566978 C239.537777,140.609135 237.951987,139.901083 236.032547,139.436198 C234.347672,139.028124 232.372275,138.802796 230.104719,138.75824 L229.531743,138.750866 Z M271.755165,101.25 L271.755523,101.263351 L271.538861,101.290695 C269.951011,101.546365 268.641336,102.982255 268.262094,104.902895 L268.187045,105.392752 L260.239945,177.337874 C263.203942,176.453998 266.339072,175.893711 269.590354,175.704951 L271.22542,175.641754 L271.755031,175.63636 L271.755657,175.623009 L273.168001,175.654657 C276.185379,175.775874 279.107391,176.2168 281.890793,176.939731 L283.270743,177.324523 L275.28794,105.1117 C274.99557,103.249594 273.837951,101.802464 272.377282,101.369754 L271.971826,101.277344 L271.755165,101.25 Z M151.760416,143.235988 L152.125536,143.237956 C153.57954,143.251959 154.955838,143.349973 156.254375,143.531755 C157.644084,143.7263 158.926368,144.056984 160.101809,144.52304 C161.266275,144.984745 162.309258,145.588185 163.232591,146.333257 C164.142635,147.067605 164.913966,147.977128 165.548619,149.06543 C166.186399,150.159096 166.679521,151.454718 167.0261,152.95475 C167.374952,154.464626 167.550541,156.214323 167.550541,158.203159 C167.550541,161.178791 167.161579,163.626502 166.392566,165.546598 C165.627066,167.457924 164.568352,168.969334 163.213875,170.091942 C161.846009,171.225648 160.202205,172.024888 158.276366,172.488046 C156.490209,172.917611 154.532803,173.152452 152.40415,173.1916 L151.760416,173.197472 L137.996577,173.197472 L137.996577,143.235988 L151.760416,143.235988 Z M225.618281,143.318652 C226.014418,143.319659 226.401202,143.322755 226.778626,143.32794 L227.882816,143.349757 C228.062166,143.354437 228.239174,143.359638 228.413841,143.365361 L229.433727,143.405949 C230.425495,143.452789 231.33289,143.518377 232.155745,143.60266 C233.966081,143.788089 235.416635,144.142556 236.503373,144.658226 C237.538334,145.149326 238.265098,145.822539 238.705396,146.679585 C239.15792,147.560431 239.390839,148.745878 239.390839,150.241114 C239.390839,151.751749 239.154749,152.93426 238.697665,153.793794 C238.250953,154.633822 237.51236,155.296013 236.460284,155.78 C235.356845,156.287616 233.89374,156.629117 232.074877,156.796937 C231.543677,156.845948 230.977994,156.887978 230.377868,156.923016 L229.451849,156.970325 C229.134569,156.984346 228.808682,156.996617 228.474195,157.007136 L227.444933,157.033441 L227.444933,157.033441 L226.364094,157.04923 C226.179658,157.050985 225.993074,157.052301 225.804343,157.053178 L215.421838,157.05417 L215.421838,143.318011 L225.618281,143.318652 Z M102.132687,60 L85.8090554,60 L85.8090554,95.2869289 C85.8090554,97.0942726 85.5737598,98.7558628 85.1031686,100.2717 C84.6325775,101.787536 83.8237489,103.106606 82.6766829,104.228908 C81.5296169,105.35121 80.0075485,106.225731 78.1104778,106.852471 C76.2134071,107.479211 73.8383923,107.792582 70.9854332,107.792582 C68.3383579,107.792582 65.9192251,107.661403 63.7280349,107.399047 C61.5368447,107.136691 59.5368322,106.801458 57.7279974,106.393348 C55.9191625,105.985238 54.2794464,105.526114 52.8088489,105.015977 C51.5483368,104.578716 50.3742599,104.14681 49.286618,103.720258 L48.75,103.507428 L48.75,117.587219 L49.4376562,117.764291 L49.4376562,117.764291 L50.1851086,117.9457 C50.3146671,117.976296 50.446717,118.007073 50.5812584,118.038031 L51.4184051,118.225944 L51.4184051,118.225944 L52.315348,118.418194 L52.315348,118.418194 L53.2720871,118.614781 L53.2720871,118.614781 C55.080922,118.979165 57.0588755,119.321686 59.2059478,119.642343 C61.35302,119.963001 63.5883281,120.232645 65.9118721,120.451275 C68.235416,120.669906 70.5001361,120.779221 72.7060322,120.779221 C77.3825321,120.779221 81.5443228,120.334673 85.1914045,119.445576 C88.8384861,118.556479 91.9193878,117.179109 94.4341094,115.313464 C96.948831,113.447818 98.8606077,111.072036 100.169439,108.186116 C101.41283,105.444492 102.065609,102.203007 102.127779,98.4616593 L102.132687,97.8667663 L102.132687,60 Z M172.635994,60 L111.267963,60 L111.267963,120.779221 L173.253645,120.779221 L173.253645,107.818295 L128.076892,107.818295 L128.076892,95.9632507 L170.341862,95.9632507 L170.341862,83.0023252 L128.076892,83.0023252 L128.076892,72.9609255 L172.635994,72.9609255 L172.635994,60 Z M248.230519,60 L180.377154,60 L180.377154,73.226337 L206.097903,73.226337 L206.097903,120.779221 L222.465652,120.779221 L222.465652,73.226337 L248.230519,73.226337 L248.230519,60 Z" id="Jet_finder_logo"></path>
        </g>
    </g>
</svg>