<?xml version="1.0" standalone="no"?>
<!DOCTYPE svg PUBLIC "-//W3C//DTD SVG 20010904//EN"
 "http://www.w3.org/TR/2001/REC-SVG-20010904/DTD/svg10.dtd">
<svg version="1.0" xmlns="http://www.w3.org/2000/svg"
 width="464.000000pt" height="54.000000pt" viewBox="0 0 464.000000 54.000000"
 preserveAspectRatio="xMidYMid meet">

<g transform="translate(0.000000,54.000000) scale(0.100000,-0.100000)"
fill="#000000" stroke="none">
<path d="M651 528 c-59 -16 -115 -63 -146 -120 -26 -46 -30 -63 -30 -133 0
-70 4 -87 30 -133 95 -174 355 -174 450 0 26 46 30 63 30 133 0 70 -4 87 -30
133 -58 106 -183 155 -304 120z m163 -91 c52 -29 86 -93 86 -162 0 -177 -213
-255 -308 -113 -46 71 -38 202 16 251 57 51 141 61 206 24z"/>
<path d="M2535 526 c-81 -30 -121 -110 -93 -184 17 -45 61 -76 136 -97 115
-32 142 -49 142 -90 0 -77 -159 -87 -236 -14 l-22 20 -22 -36 c-26 -42 -20
-53 44 -84 55 -27 149 -37 205 -21 89 24 137 106 112 191 -16 52 -58 82 -163
114 -48 14 -95 33 -103 41 -21 21 -19 50 6 75 18 18 30 21 80 17 40 -3 69 -11
89 -26 37 -27 41 -27 63 4 25 34 16 51 -39 76 -61 26 -148 33 -199 14z"/>
<path d="M3751 528 c-59 -16 -115 -63 -146 -120 -26 -46 -30 -63 -30 -133 0
-70 4 -87 30 -133 95 -174 355 -174 450 0 26 46 30 63 30 133 0 70 -4 87 -30
133 -58 106 -183 155 -304 120z m163 -91 c52 -29 86 -93 86 -162 0 -177 -213
-255 -308 -113 -46 71 -38 202 16 251 57 51 141 61 206 24z"/>
<path d="M220 335 c0 -195 0 -196 -25 -220 -30 -31 -92 -34 -126 -6 -24 19
-24 19 -41 -7 -26 -39 -23 -48 28 -72 37 -18 56 -22 102 -17 59 6 92 25 126
71 19 25 21 44 24 237 l3 209 -45 0 -46 0 0 -195z"/>
<path d="M1150 275 l0 -255 45 0 45 0 1 193 0 192 77 -193 c66 -166 80 -192
97 -190 16 2 36 42 97 193 l77 190 1 -192 0 -193 45 0 45 0 0 255 0 255 -63 0
-63 0 -68 -170 c-38 -93 -70 -170 -71 -170 -2 0 -34 76 -71 170 l-68 170 -63
0 -63 0 0 -255z"/>
<path d="M2001 508 c-17 -46 -149 -384 -170 -435 l-21 -53 49 0 49 0 17 50 17
50 123 0 123 0 17 -50 17 -50 49 0 49 0 -17 43 c-10 23 -54 136 -99 252 l-82
210 -56 3 c-51 3 -57 1 -65 -20z m125 -215 l33 -93 -94 0 -94 0 35 98 c20 53
41 110 47 127 l11 30 14 -35 c8 -19 29 -77 48 -127z"/>
<path d="M2970 275 l0 -255 45 0 45 0 0 110 0 110 135 0 135 0 0 -110 0 -110
45 0 45 0 0 255 0 255 -45 0 -45 0 0 -105 0 -105 -135 0 -135 0 0 105 0 105
-45 0 -45 0 0 -255z"/>
<path d="M4250 276 l0 -256 45 0 45 0 0 94 0 94 99 4 c107 3 132 13 175 72 29
39 29 133 0 172 -47 63 -63 69 -220 72 l-144 4 0 -256z m275 149 c16 -15 25
-36 25 -55 0 -19 -9 -40 -25 -55 -22 -22 -32 -25 -105 -25 l-80 0 0 80 0 80
80 0 c73 0 83 -3 105 -25z"/>
</g>
</svg>
