<svg xmlns="http://www.w3.org/2000/svg" xmlns:xlink="http://www.w3.org/1999/xlink" width="407" height="407" viewBox="0 0 407 407"><defs><style>.a{fill:#fff;}.b{fill:#eaeeff;}.c{fill:#4f6ef7;}.d{clip-path:url(#a);}.e{fill:#002855;}.f{fill:#98aafa;}</style><clipPath id="a"><rect class="a" width="78" height="75" transform="translate(233.956 134.929) rotate(45.2)"/></clipPath></defs><g transform="translate(-483 -715)"><circle class="b" cx="203.5" cy="203.5" r="203.5" transform="translate(483 715)"/><g transform="translate(443 782)"><circle class="c" cx="56.5" cy="56.5" r="56.5" transform="translate(129 137)"/><g class="d"><path class="e" d="M56.5,0A56.5,56.5,0,1,1,0,56.5,56.5,56.5,0,0,1,56.5,0Z" transform="translate(129 137)"/></g><circle class="f" cx="40" cy="40" r="40" transform="translate(146 154)"/><circle class="e" cx="24.5" cy="24.5" r="24.5" transform="translate(162 170)"/><rect class="e" width="17" height="135" transform="matrix(0.705, 0.71, -0.71, 0.705, 322.216, 69.479)"/><rect class="f" width="16" height="166" transform="matrix(0.705, 0.71, -0.71, 0.705, 322.016, 47.142)"/><rect class="f" width="16" height="37" transform="matrix(-0.71, 0.705, -0.705, -0.71, 335.069, 105.647)"/><rect class="f" width="16" height="39" transform="matrix(-0.71, 0.705, -0.705, -0.71, 357.774, 83.357)"/><path class="c" d="M0,0H17l-.482,57.073L0,57Z" transform="matrix(0.705, 0.71, -0.71, 0.705, 236.773, 108.487)"/><rect class="e" width="17" height="88" transform="matrix(0.705, 0.71, -0.71, 0.705, 299.216, 46.479)"/><path class="c" d="M0,0,17.024.171,17,32H0Z" transform="matrix(0.705, 0.71, -0.71, 0.705, 321.922, 23.93)"/><path class="c" d="M-.7.149,16.5,0V31.059L-.189,30.811Z" transform="matrix(-0.71, 0.705, -0.705, -0.71, 354.864, 57.6)"/></g></g></svg>