<svg xmlns="http://www.w3.org/2000/svg" xmlns:xlink="http://www.w3.org/1999/xlink" version="1.1" id="Livello_1" x="0px" y="0px" viewBox="0 0 793 180" style="enable-background:new 0 0 793 180;" xml:space="preserve">
<g>
<g>
<polygon points="18.05,1.14 -0.46,1.14 -0.46,106.45 73.41,106.45 73.41,89.6 18.05,89.6   "/>
<polygon points="329.87,73.95 273.46,1.14 256.31,1.14 256.31,106.45 274.51,106.45 274.51,31.53 332.58,106.45 348.08,106.45     348.08,1.14 329.87,1.14   "/>
<rect x="412.64" y="1.14" width="18.5" height="105.31"/>
<polygon points="511.99,61.62 564.79,61.62 564.79,45.07 511.99,45.07 511.99,17.69 571.56,17.69 571.56,1.14 493.48,1.14     493.48,106.45 572.31,106.45 572.31,89.9 511.99,89.9   "/>
<path d="M716.77,34.69v-0.3c0-9.18-3.16-17-8.73-22.72c-6.77-6.62-17.15-10.53-30.39-10.53h-46.94v105.31h18.5V69.74h23.17    l25.88,36.71h21.96l-28.43-39.87C706.39,62.37,716.77,51.99,716.77,34.69z M649.22,53.34V17.99h26.93    c13.69,0,21.82,6.17,21.82,17.45v0.3c0,10.68-8.43,17.6-21.67,17.6H649.22z"/>
<rect x="774.74" y="1.14" width="18.5" height="105.31"/>
<polygon points="150.14,0.39 103.81,106.45 122.76,106.45 158.42,22.5 194.07,106.45 213.63,106.45 167.3,0.39   "/>
</g>
</g>
<g>
<path d="M244.45,152.41h4.92v28h-4.92V152.41z"/>
<path d="M298.93,156.97h-8.88v-4.56h22.72v4.56h-8.88v23.44h-4.96V156.97z"/>
<path d="M359.49,152.21h4.56l12.32,28.2h-5.2l-2.84-6.76h-13.24l-2.88,6.76h-5.04L359.49,152.21z M366.53,169.28l-4.84-11.2   l-4.8,11.2H366.53z"/>
<path d="M416.37,152.41h4.92v23.52h14.72v4.48h-19.64V152.41z"/>
<path d="M476.61,152.41h4.92v28h-4.92V152.41z"/>
<path d="M534.13,152.21h4.56l12.32,28.2h-5.2l-2.84-6.76h-13.24l-2.88,6.76h-5.04L534.13,152.21z M541.17,169.28l-4.84-11.2   l-4.8,11.2H541.17z"/>
</g>
</svg>