<svg xmlns="http://www.w3.org/2000/svg" viewBox="0 0 1038.63 255.61"><defs><style>.cls-1{fill:#1d2028;}</style></defs><g id="Layer_2" data-name="Layer 2"><g id="Layer_1-2" data-name="Layer 1"><path class="cls-1" d="M81.53,65.62c0-20.16.1-40.33-.08-60.49C81.41,1.18,82.57,0,86.52,0c31.49.14,63,0,94.47.11,17.58.07,32.52,14.83,32.67,32.62.25,31.66,0,63.32.15,95,0,3.85-1.42,4.75-5,4.75q-61-.15-122,0c-4.13,0-5.45-1.19-5.41-5.36C81.63,106.62,81.53,86.12,81.53,65.62Z"/><path class="cls-1" d="M801,181.53c-7,5.07-12.48,10.51-19.06,13.53-26,12-58.13,1.65-71.94-23.49s-14.18-51.6-2.26-77.44c10.8-23.43,34.43-34.59,60.06-30.4,12.21,2,23.07,6.41,31.11,16.3.27.32.82.42,2.28,1.12,0-3.93.15-7.31,0-10.67s1.15-4.47,4.39-4.25a64.07,64.07,0,0,0,10,0c3.65-.32,4.53,1.25,4.48,4.61-.15,11.16-.05,22.33-.05,33.5,0,30.83.05,61.67,0,92.5,0,18-5.3,33.84-20,45.45-9.41,7.45-20.38,11.34-32.15,12.64-17.88,2-35.25-.19-51.72-7.84-1.48-.68-2.88-1.52-4.77-2.52l7.13-15c8.86,2.62,17,5.67,25.38,7.33a59.25,59.25,0,0,0,32.05-2.2c12.51-4.54,21-13.13,23.22-26.44C800.51,199.54,800.37,190.55,801,181.53Zm.69-50.08-.7-.16c-.29-4.15-.4-8.32-.88-12.45-2.63-22.73-13.62-34.57-34.62-37.46-20-2.74-36.6,7.52-42.36,26.83a81.84,81.84,0,0,0-3.28,19.6c-.66,14.47,1.94,28.34,11.48,39.88,10,12.13,23.26,16.08,38.53,13.53,14.61-2.43,23.35-11.68,27.29-25.34C799.38,148,800.17,139.61,801.64,131.45Z"/><path class="cls-1" d="M666.42,180.75c-3.74,4.1-6.17,7-8.88,9.69-19,18.62-60.6,18.82-80.33-8.41-19.09-26.35-18.71-72.11,1.29-97.79,19.13-24.56,57.51-28.39,79.61-7.89,2.4,2.22,4.45,4.8,7.27,7.88.2-1.87.4-2.9.4-3.94,0-20.66.06-41.33-.12-62,0-3.81,1.31-5,5-4.79s7.37-.26,11,.22c1.33.18,2.6,2.08,3.53,3.45.46.69.09,1.95.09,2.95q0,86.75,0,173.48c0,6.65,0,6.65-6.5,6.66-12.29,0-12.29,0-12.27-12.28Zm.07-46c-.21-11.86-2.11-22.61-7.36-32.55-14.13-26.76-49-28.88-66.21-4.06-13,18.88-13,52.22.1,71.19,15.1,21.85,47.54,22.18,63.16.64C664,159.26,665.88,146.86,666.49,134.78Z"/><path class="cls-1" d="M945.37,170.32c2.34,4,5.1,8.09,7.2,12.54.46,1-1,3.55-2.28,4.53-10.72,8.37-22.82,13.88-36.36,15.42-24,2.72-45.13-3.22-62.34-21.16-26.16-27.27-24.18-85.31,11.95-108.23,22.36-14.18,53.48-13.76,72.15,2,13.6,11.51,18.78,27.08,20,44.29.24,3.48-.06,7,0,10.48.1,3.79-1.46,5.13-5.38,5.08-15.82-.2-31.66-.08-47.49-.08h-43c-6.17,0-6.47.39-5.51,6.64,5.37,35.14,38.57,53.59,71.56,39.45C932.53,178.48,938.54,174.22,945.37,170.32Zm-90.72-51.87c2.55.21,4,.43,5.44.43q35.49,0,71,0c2.18,0,5.17.69,4.8-3.16-1.4-14.48-8.31-29.75-26.31-34.59a43.55,43.55,0,0,0-51,25.15C857,110,856.07,114,854.65,118.45Z"/><path class="cls-1" d="M538.83,169.56c2.79,4.7,5.51,8.86,7.67,13.29.45.94-.8,3.4-1.94,4.29-11.68,9.17-24.9,15-39.74,16-26,1.9-48.07-5.88-64.06-27.38-21.33-28.67-18-82.89,19.38-103.78,20-11.17,41-12.85,61.66-1.86,16.28,8.65,23.86,23.69,26.8,41.22,1,6.19.69,12.6,1.1,18.9.3,4.53-2.27,5-6,5-29.83-.09-59.66-.05-89.49-.05-6.9,0-6.73,0-5.89,6.64,5.51,43.46,53.46,56.65,86.17,31Zm-89.67-51.63c.76.46,1,.77,1.32.77,25.45.08,50.89.17,76.33,0,1,0,2.91-2.29,2.81-3.36C528.16,100,520.75,85.23,502.72,81c-15.12-3.52-28.77.12-40.2,10.7A42.38,42.38,0,0,0,449.16,117.93Z"/><path class="cls-1" d="M324.36,106.52c0-29,.12-58-.11-87,0-5,1.51-6.51,6.23-6,3.3.33,6.71-.27,10,.23,1.33.2,2.71,2,3.46,3.46.55,1,.11,2.61.11,3.94V175.64c0,6.82,0,6.82,6.81,6.82,24.67,0,49.33.09,74-.09,4,0,5.1,1.14,5.08,5.06-.06,12.84.09,12.84-12.77,12.84-29,0-58-.09-87,.1-4.56,0-5.93-1.17-5.9-5.85C324.46,165.19,324.36,135.86,324.36,106.52Z"/><path class="cls-1" d="M1038.62,84.48a13.3,13.3,0,0,1-2.73.36c-19.33-2.85-35.14,10.62-41.44,30.34a112.19,112.19,0,0,0-4.75,28.89c-.75,17-.33,34-.12,51,0,4.19-1.27,5.69-5.41,5.31a57.7,57.7,0,0,0-9.48,0c-3.6.25-4.51-1.33-4.5-4.7q.12-62.44,0-124.9c0-3.56,1.24-4.72,4.66-4.49a70.73,70.73,0,0,0,10,0c3.66-.28,4.57,1.34,4.46,4.68-.21,6.49-.12,13-.1,19.49a26.7,26.7,0,0,0,.61,3.62c2.5-4.1,4.33-7.59,6.61-10.76,8.65-12,20.3-18.51,35.28-18.21,6.61.13,6.94.71,6.94,7.21C1038.63,76.22,1038.62,80.18,1038.62,84.48Z"/><path class="cls-1" d="M.08,81.13H37.74c13.15,0,13.15,0,13.15,13.41,0,11-.11,22,.06,33,.06,3.65-1.11,5-4.86,4.93-13.83-.17-27.66-.06-41.49-.08-2.12,0-4.54.43-4.53-3C.1,113.59.08,97.79.08,81.13Z"/><path class="cls-1" d="M81.53,188.37c0-7.16.09-14.32,0-21.48-.06-2.95.94-4.19,4-4.18q21.47.14,42.94,0c2.84,0,3.79,1,3.78,3.8-.08,14.48-.11,29,0,43.45,0,3.21-1.4,3.92-4.23,3.91-14.14-.07-28.29-.11-42.43,0-3.46,0-4.16-1.48-4.09-4.54C81.65,202.35,81.54,195.36,81.53,188.37Z"/><path class="cls-1" d="M25.32,50.85c-7,0-14-.11-20.95,0C1.22,51-.19,50.05,0,46.67.41,40.38-.11,34,.87,27.79,3.47,11.47,17.22.16,33.76.08c4.32,0,8.64.09,13,0C49.59,0,51,.84,50.94,4q-.16,21.45,0,42.9c0,3.08-1.23,4-4.17,4C39.61,50.77,32.47,50.85,25.32,50.85Z"/><path class="cls-1" d="M162.86,187.9c0-6.82.12-13.66-.05-20.48-.09-3.36.94-4.77,4.53-4.73,14,.15,28,.11,42,0,3.07,0,4.69.81,4.47,4.22-.43,6.8.11,13.75-1.14,20.37-2.74,14.62-15.35,25.21-30.15,26.18-5,.32-10,.07-15,.4-3.88.26-4.83-1.42-4.72-5C163,201.9,162.86,194.9,162.86,187.9Z"/><path class="cls-1" d="M50.89,188.37c0,7.15.16,14.32-.14,21.46-.06,1.36-1.94,3.8-3,3.79-7.45-.08-15.12.35-22.29-1.29C10.45,208.89.6,195.84.1,180.42c-.15-4.49.1-9-.08-13.48-.11-2.92.81-4.24,3.92-4.22q21.47.14,42.93,0c3,0,4.1,1.23,4.06,4.18C50.81,174.05,50.89,181.21,50.89,188.37Z"/></g></g></svg>