<svg xmlns="http://www.w3.org/2000/svg" viewBox="0 0 1150.79 232.73"><defs><style>.cls-1{fill:#54301a;}</style></defs><g id="Layer_2" data-name="Layer 2"><g id="Livello_1" data-name="Livello 1"><path class="cls-1" d="M975.65,137.14h0v91.7H931.8V4.05h127.62c16.95,0,30.34,1,40.25,3a70.46,70.46,0,0,1,25.73,10.19,52.68,52.68,0,0,1,18.46,23.36,81.25,81.25,0,0,1,5.64,30.34q0,55-63,64.24l64.29,93.67H1103l-63.33-91.7Zm0-37.16h78.53q17.14,0,24.21-1A49.79,49.79,0,0,0,1092.13,95Q1106,88.1,1106,70.6c0-11.88-4.62-20-13.85-24.44a40,40,0,0,0-13.4-4.27c-4.73-.68-12.89-1-24.55-1H975.65Z"/><path class="cls-1" d="M808.81,172.07a28.48,28.48,0,0,1,20.82,8.44,28,28,0,0,1,8.51,20.68,26.83,26.83,0,0,1-8.71,20,29.82,29.82,0,0,1-41.43,0,28.55,28.55,0,0,1-.21-40.48q8.33-8.24,21-8.61"/><path class="cls-1" d="M654,148.28H581.46V116.87h108v85.57a215.52,215.52,0,0,1-111,30.29q-53.7,0-87.43-25.73-42.46-32.59-42.5-90.64,0-54,37.61-86Q522,0,581.8,0a179.49,179.49,0,0,1,36,3.43Q634.59,6.9,656,15.48A73.19,73.19,0,0,1,675.93,27L662,62.54a139,139,0,0,0-41.6-18.91c-14.47-3.88-27.71-5.8-39.58-5.8q-36.22,0-60,19.82Q493.42,80,493.42,117q0,35.62,26.68,57.36,24.07,20.19,63.33,20.16a163.19,163.19,0,0,0,37.27-4.28A153.85,153.85,0,0,0,654,178.8Z"/><polygon class="cls-1" points="43.85 192.19 199.57 192.19 199.57 229.01 0 229.01 0 4.17 43.85 4.17 43.85 192.19"/><path class="cls-1" d="M343.44,172.32a28.5,28.5,0,0,1,20.81,8.43,27.93,27.93,0,0,1,8.51,20.69,26.83,26.83,0,0,1-8.71,20,29.84,29.84,0,0,1-41.43,0,28.54,28.54,0,0,1-.2-40.48c5.54-5.5,12.57-8.37,21-8.61"/></g></g></svg>