<?xml version="1.0" encoding="utf-8"?>
<!-- Generator: Adobe Illustrator 18.1.1, SVG Export Plug-In . SVG Version: 6.00 Build 0)  -->
<svg version="1.1" baseProfile="tiny" id="Layer_1" xmlns="http://www.w3.org/2000/svg" xmlns:xlink="http://www.w3.org/1999/xlink"
	 x="0px" y="0px" viewBox="0 0 499 121" xml:space="preserve">
<g id="Lag_2">
	<g id="Lag_3">
		<g>
			<path display="none" fill="#FFFFFF" d="M521.6,151.4c-180.6,0-361.2,0-541.8,0c0-173.8,0-347.5,0-521.4c180.6,0,361.2,0,541.8,0
				C521.6-196.3,521.6-22.5,521.6,151.4z M269.7-68c0.4,3.1,1.1,5.9,0.9,8.6c-1,10.5-4.4,20.2-11,28.6
				c-8.8,11.2-20.1,16.6-34.5,14.2c-1.3-0.2-2.7-0.5-4-0.6c-13.9-1.2-27.3-4.2-40.4-8.9c-22.9-8.3-43.2-20.9-60.3-38.2
				C107.2-77.6,96.5-92.6,89.1-110c-6.6-15.5-10.3-31.6-11.1-48.3c-0.8-17.1,0.7-34,5.1-50.8c2.8-10.8,6.3-21.3,10.9-31.3
				c9.3-20.4,22.5-38.1,38.9-53.4c20-18.5,43.3-30.9,69.8-37.2c12-2.9,24.3-3.3,36.6-3.5c15-0.2,29.8,0.8,44.1,5.3
				c9.7,3,19.3,7,28.4,11.4c14.7,7.1,27.5,17,39.1,28.6c12.1,12.2,22.4,25.9,30.3,41.1c6.4,12.3,11.1,25.3,14.6,38.8
				c2.8,10.8,4.5,21.8,5.1,32.8c0.9,17.4-0.2,34.7-5.9,51.3c-2.9,8.7-6.2,17.4-10.3,25.5c-9.2,18-22.5,32.8-37.9,45.7
				C334-43,319.7-34.8,304.4-28.6c-3.7,7.4-7.3,14.7-11,22.2c0.5-0.1,1,0,1.4-0.1c4.9-1.7,9.9-3.2,14.7-5.1
				c22.2-8.7,42-21.1,59.1-37.7c12.9-12.5,23.9-26.4,32-42.4c9.9-19.3,15.8-39.6,17.6-61.3c1.4-16.3,0.4-32.5-2.5-48.4
				c-2.9-15.9-7.9-31.4-14.7-46.2c-7.5-16.4-17.2-31.4-29.1-44.9c-13.9-15.8-29.8-29-48.4-39.1c-14.6-7.9-30.1-13.7-46.4-17.1
				c-12.1-2.6-24.3-3-36.6-3.3c-22.6-0.5-44.5,2.9-65.5,11.3c-20,7.9-38,19-53.8,33.7c-19.2,17.9-34.5,38.6-44.8,62.8
				c-8.6,20.3-14.2,41.4-15.7,63.6c-0.9,13.7-0.6,27.2,1.6,40.7c2.2,13.7,6.2,26.8,11.8,39.5c10.2,23.1,25.5,42.3,44.5,58.7
				c17.2,14.8,36.8,25.5,58.1,33c17.7,6.1,35.9,9.1,54.6,9.8c12.6,0.5,23.1-3.8,32.7-11.2c11.1-8.7,17.7-20.4,21.6-33.6
				c2.5-8.4,3.7-17.2,1.6-26c-0.3-1.1-0.5-2.1-0.8-3.3c0.9-0.5,1.6-0.9,2.3-1.2c17.8-8.9,30.7-22.4,38.1-40.9
				c7.9-19.5,7.8-39.3-0.2-58.7c-5-12.2-11-24-16.6-36c-0.4-0.8-0.9-1.5-1.3-2.3c-10.8,5-21.4,9.9-32.2,14.9
				c-8.8-18.9-17.4-37.5-26.2-56.4c-3.2,1.5-6.2,2.9-9.4,4.4c8.8,18.9,17.4,37.5,26.1,56.4c-20.5,9.5-40.7,18.9-61.1,28.3
				c-8.8-19-17.4-37.5-26.2-56.4c-3.3,1.5-6.3,2.9-9.4,4.3c4.5,9.8,8.8,19.1,13.1,28.4c4.3,9.3,8.6,18.6,13,28
				c-9.7,4.5-19.1,8.9-28.6,13.3c0.7,1.5,1.2,2.7,1.8,3.9c4.9,10.5,9.7,21.1,14.7,31.6c7.6,16.1,19.3,28.2,35.1,36.3
				C235.2-67.1,251.7-64.9,269.7-68z M436.4,71.4c-1.3-0.7-2.1-1.1-2.9-1.5c-11.2-5.5-23.6,0.3-26.5,12.3
				c-1.5,6.1-1.4,12.3,0.2,18.4c1.1,4.4,3.3,8.3,7.3,10.6c7,4.1,14.5,4.3,21.7,0.7c6.8-3.4,8.9-9.7,8.9-17c0-14.1,0-28.2,0-42.3
				c0-1.2,0-2.4,0-3.5c14.1-4.9,16.4-16.5,14.2-29.1c-2.6,0-5.3,0-8.2,0c0-5.2,0-10.1,0-15.3c-1.1,0.1-1.8,0.2-2.7,0.3
				c0,5.1,0,10,0,15c-5.7,0-11,0-16.8,0c0-5.2,0-10.2,0-15.5c-1.1,0.2-1.8,0.4-2.7,0.5c0,5.1,0,10,0,15.3c-2.6,0-5.1,0-7.4,0
				c-1.4,13.4,0.6,24.6,15.1,28.8C436.4,56.7,436.4,63.8,436.4,71.4z M55.5,71.4c0.2,0,0.5,0.1,0.7,0.1c0,1.1,0,2.2,0,3.3
				c0,11.2,0,22.3,0,33.5c0,2.2,0.5,4.1,2.6,5c3.1,1.4,6-0.7,6.1-4.5c0.1-5.3,0-10.6,0-15.9c0-12.9,0-25.7,0-38.6
				c0-2.4-0.4-4.5-3-5.5c-2.4-0.9-4.1,0-5.8,3.2C50,63.5,43.9,74.9,37.7,86.4c-0.6,1.1-1.2,2.1-2,3.4c-3.7-6.9-7.2-13.5-10.7-20
				c-3.2-6.1-6.4-12.2-9.7-18.2c-1.9-3.5-5.7-4.1-7.6-1.1c-0.7,1-0.8,2.6-0.8,3.8c-0.1,17.9,0,35.9,0,53.8c0,0.6,0,1.1,0,1.7
				c0.3,2.3,1.6,3.7,4,3.9c2.3,0.2,3.9-1,4.5-3.3c0.3-1.1,0.2-2.2,0.2-3.4c0-10.8,0-21.7,0-32.5c0-0.9,0.1-1.8,0.2-2.8
				c1.2,1.1,1.8,2.3,2.5,3.4c4.5,8.3,8.9,16.7,13.5,25c2.2,4,6.1,3.9,8.3,0c0.5-0.8,0.9-1.6,1.3-2.4C46,89.1,50.8,80.2,55.5,71.4z
				 M261.1,71.6c0-2,0-3.2,0-4.4c0-5.6,0.1-11.3-0.1-16.9c-0.1-2.9-1.9-4.6-4.4-4.4c-2.4,0.1-3.9,1.8-3.9,4.6
				c0,15.6-0.2,31.1,0.1,46.7c0.2,9.1,5.8,15.2,14.6,16.8c12.1,2.3,21.4-3.7,23.6-15.4c1.1-5.8,1-11.7-0.6-17.4
				c-2.1-7.7-7.9-12.3-15.8-13C270,67.7,265.7,68.6,261.1,71.6z M176.7,92.5c5,6.4,9.8,12.5,14.6,18.6c2.2,2.9,4.8,3.5,6.9,1.8
				c2.1-1.7,2.1-4.1,0-6.9c-0.9-1.2-1.8-2.3-2.7-3.5c-3.9-5.1-7.8-10.1-11.8-15.3c1.1-0.9,1.9-1.6,2.8-2.3c3.6-2.9,7.2-5.8,10.8-8.7
				c1.8-1.4,2.4-3.3,1.3-5.4c-1-2.1-2.9-2.5-4.9-2.1c-1,0.2-2,1-2.9,1.7c-5.4,4.3-10.7,8.7-16,13c-0.5,0.4-1.2,0.7-2.1,1.2
				c0-11,0-21.6,0-32.2c0-1.1,0.1-2.3-0.2-3.4c-0.5-2.1-2-3.3-4.2-3.2c-2.2,0.1-3.6,1.3-4,3.4c-0.2,1-0.1,2-0.1,3
				c0,18.3,0,36.6,0,54.9c0,1,0,2,0.1,3c0.3,2.2,1.7,3.4,3.9,3.5c2.4,0.1,3.8-1.2,4.3-3.5c0.2-1,0.1-2,0.1-3c0-3.9,0-7.9,0-11.7
				C174.1,94.5,175.3,93.6,176.7,92.5z M465.2,85.2c0-1.9,0-3,0-4.2c0-9.5,0-19,0-28.4c0-1,0-2-0.1-3c-0.5-2.4-2.3-3.9-4.5-3.6
				c-2.3,0.3-3.6,1.7-3.9,4c-0.1,0.7,0,1.4,0,2c0,18.6,0,37.2,0,55.9c0,1,0,2.1,0.3,3c0.5,2,2.1,3.3,4,2.9c1.4-0.3,2.8-1.5,3.8-2.7
				c0.6-0.7,0.5-2.1,0.5-3.3c0.1-4.1,0-8.1,0-12.2c1.3-1,2.6-2,3.9-3c3,3.9,5.9,7.6,8.9,11.3c2.2,2.8,4.2,5.6,6.5,8.2
				c1.7,2,4.2,2.3,6,0.8c1.8-1.4,2.1-3.8,0.7-6.1c-0.5-0.8-1.1-1.4-1.6-2.2c-4.5-5.8-8.9-11.5-13.5-17.4c1.2-1,2.1-1.8,3.1-2.6
				c3.4-2.8,6.9-5.5,10.3-8.3c2.3-1.9,2.7-4.6,1.1-6.5c-1.5-1.7-4.1-1.7-6.4-0.1c-0.7,0.5-1.4,1.1-2.1,1.7
				C476.6,75.9,471.3,80.2,465.2,85.2z M233.6,85.8c-1.4,0-2.5,0-3.6,0c-4.4,0.2-8.8,0-13.1,0.6c-7.2,1.1-11.6,6.2-11.7,12.8
				c-0.2,7.8,3.4,12.5,11,14.3c6.2,1.5,12,0.7,17.3-2.9c1.4,2.3,3,3.8,5.7,2.9c2.7-0.9,2.8-3.2,2.8-5.5c0-7.6,0.2-15.1-0.1-22.7
				c-0.1-3-0.6-6.2-1.8-8.8c-2.9-6.2-8.5-8.3-15-8.5c-6.8-0.1-12.7,1.6-16.8,7.6c-1.3,1.9-1.2,3.9,0.7,5.4c1.9,1.5,3.8,1.1,5.5-0.4
				c1-0.9,1.9-2,3-2.7c3.9-2.5,8.2-2.6,12.3-0.5C232.9,79,233.8,82,233.6,85.8z M103.5,110.6c1.4,2.4,3,3.8,5.7,3
				c2.8-0.9,2.8-3.2,2.8-5.5c0-8.1,0.1-16.2,0-24.3c-0.1-7.9-4.6-13.6-12.4-15.1c-3.3-0.6-7-0.5-10.4-0.1c-4.5,0.6-8.2,3-10.8,6.9
				c-1.2,1.9-1.3,3.9,0.5,5.5c1.8,1.5,3.7,1.3,5.5-0.3c0.4-0.4,0.8-0.8,1.2-1.2c3.3-3.5,7.5-4,11.9-3c4.5,1,6.5,4.3,5.8,9.3
				c-3.5,0-7.1-0.1-10.7,0c-2.7,0.1-5.4,0.4-8,1.2c-6.4,1.9-9.7,6.7-9.5,13.5c0.1,6.4,3.8,11.2,10,12.8
				C91.5,115,97.6,114.7,103.5,110.6z M328.2,94.2c1.2,0,2.4,0,3.6,0c6.8,0,13.5,0,20.3,0c3.5,0,5-1.1,5.6-3.8
				c2-9-3.2-18.7-11.4-21.4c-10.2-3.4-20.8,0.7-24.7,9.7c-3.4,7.9-3.2,16.1-0.4,24.1c1.4,4.1,4.1,7.3,8.1,9.1c8,3.6,16,3.3,23.6-1.3
				c0.9-0.5,1.6-1.2,2.4-1.9c1.7-1.7,1.8-3.7,0.3-5.5c-1.4-1.7-3.3-1.8-5.2-0.7c-1.2,0.7-2.2,1.6-3.4,2.1
				C339.5,108.3,328.3,105.9,328.2,94.2z M128.5,91.6c0.1-2,0-3.7,0.3-5.4c0.7-4.3,2.2-8.3,6.8-9.7c4.8-1.5,9.3-1.1,13,3
				c1.8,1.9,4.4,2.1,6,0.5c1.7-1.6,1.6-4.1-0.4-6.3c-7.5-8.6-27.5-8.5-32.4,5.6c-2.4,6.9-2.5,13.9-0.8,21
				c4.3,17.4,25.4,16.4,33.6,8.6c1.7-1.7,1.9-3.5,0.7-5.5c-1.1-1.7-3.3-2-5.4-0.9c-1.6,0.9-3,2-4.7,2.7c-7.8,3.3-14.7-0.3-16.3-8.6
				C128.6,95,128.6,93.1,128.5,91.6z M308.4,105.1c-0.1-2-0.3-3.7-0.3-5.5c0-15.8,0-31.5,0-47.3c0-1,0.1-2.1-0.1-3
				c-0.5-2.1-1.8-3.4-4-3.4c-2.2,0-3.6,1.1-4.1,3.3c-0.2,0.9-0.1,1.8-0.1,2.7c0,16.6,0,33.1,0,49.7c0,1.6,0.1,3.2,0.4,4.7
				c1.1,4.8,5.4,7.9,10.2,7.5c2.1-0.2,3.7-1.1,3.9-3.4c0.3-2.2-0.7-3.7-2.8-4.4C310.7,105.7,309.8,105.5,308.4,105.1z M375.1,71.3
				c-1.7-2.4-3.3-3.2-5.6-2.4c-2.9,1-2.7,3.5-2.7,5.9c0,5.9,0,11.7,0,17.6c0,5.6-0.1,11.3,0,16.9c0,3,2,4.8,4.6,4.6
				c2.3-0.2,3.7-1.9,3.7-4.8c0.1-6.9,0-13.7,0.2-20.6c0.2-7.6,3.5-11.1,10.9-12c3-0.4,4.6-2,4.4-4.4c-0.3-2.4-2.3-4.2-5.1-3.7
				C382,68.9,378.7,70.2,375.1,71.3z M394.5,102.6c-3.6,0-5.7,2.1-5.6,5.6c0,3.4,2,5.5,5.4,5.5c3.7,0.1,5.7-1.9,5.7-5.5
				C400,104.6,398.1,102.7,394.5,102.6z"/>
			<path display="none" d="M269.7-68c-17.9,3.1-34.4,0.8-50-7.1c-15.8-8.1-27.5-20.2-35.1-36.3c-5-10.5-9.8-21.1-14.7-31.6
				c-0.6-1.2-1.1-2.4-1.8-3.9c9.5-4.4,18.9-8.8,28.6-13.3c-4.4-9.5-8.7-18.7-13-28c-4.3-9.3-8.6-18.6-13.1-28.4
				c3.1-1.4,6.1-2.8,9.4-4.3c8.7,18.8,17.4,37.4,26.2,56.4c20.4-9.5,40.6-18.8,61.1-28.3c-8.7-18.9-17.4-37.4-26.1-56.4
				c3.1-1.5,6.1-2.9,9.4-4.4c8.7,18.8,17.4,37.4,26.2,56.4c10.8-5,21.4-9.9,32.2-14.9c0.5,0.8,1,1.5,1.3,2.3
				c5.6,12,11.5,23.8,16.6,36c8.1,19.4,8.1,39.2,0.2,58.7c-7.4,18.5-20.3,32-38.1,40.9c-0.7,0.3-1.4,0.7-2.3,1.2
				c0.3,1.1,0.5,2.2,0.8,3.3c2.1,8.8,0.9,17.6-1.6,26C281.8-30.7,275.1-19,264-10.3c-9.6,7.5-20.2,11.8-32.7,11.2
				c-18.7-0.7-36.9-3.7-54.6-9.8c-21.4-7.4-40.9-18.2-58.1-33c-19-16.4-34.3-35.6-44.5-58.7c-5.6-12.7-9.6-25.8-11.8-39.5
				c-2.1-13.5-2.5-27-1.6-40.7c1.5-22.2,7.1-43.3,15.7-63.6c10.3-24.2,25.6-44.9,44.8-62.8c15.8-14.7,33.8-25.8,53.8-33.7
				c21-8.3,42.9-11.8,65.5-11.3c12.3,0.3,24.5,0.7,36.6,3.3c16.3,3.4,31.7,9.2,46.4,17.1c18.5,10,34.5,23.3,48.4,39.1
				c11.9,13.5,21.6,28.5,29.1,44.9c6.8,14.8,11.8,30.3,14.7,46.2c2.9,15.9,3.9,32.1,2.5,48.4c-1.8,21.7-7.7,42-17.6,61.3
				c-8.2,16-19.2,29.9-32,42.4c-17.1,16.6-36.9,29.1-59.1,37.7c-4.8,1.9-9.8,3.4-14.7,5.1c-0.4,0.1-0.9,0.1-1.4,0.1
				c3.7-7.5,7.3-14.7,11-22.2c15.3-6.2,29.6-14.4,42.4-25.1c15.4-12.9,28.7-27.7,37.9-45.7c4.2-8.1,7.4-16.8,10.3-25.5
				c5.6-16.6,6.8-33.9,5.9-51.3c-0.6-11.1-2.3-22-5.1-32.8c-3.5-13.5-8.2-26.5-14.6-38.8c-8-15.3-18.2-28.9-30.3-41.1
				c-11.5-11.6-24.3-21.5-39.1-28.6c-9.2-4.4-18.7-8.4-28.4-11.4c-14.3-4.4-29.1-5.5-44.1-5.3c-12.3,0.1-24.5,0.6-36.6,3.5
				c-26.5,6.3-49.8,18.7-69.8,37.2c-16.4,15.3-29.6,33-38.9,53.4c-4.6,10-8.1,20.5-10.9,31.3c-4.4,16.7-5.9,33.7-5.1,50.8
				c0.8,16.7,4.5,32.8,11.1,48.3c7.4,17.4,18.1,32.4,31.3,45.6c17.2,17.3,37.4,29.9,60.3,38.2c13.1,4.7,26.5,7.8,40.4,8.9
				c1.3,0.1,2.7,0.4,4,0.6c14.4,2.4,25.7-3,34.5-14.2c6.6-8.4,10-18.1,11-28.6C270.8-62.1,270-64.9,269.7-68z"/>
			<path d="M436.4,71.4c0-7.6,0-14.7,0-22.1c-14.5-4.2-16.5-15.5-15.1-28.8c2.4,0,4.8,0,7.4,0c0-5.3,0-10.2,0-15.3
				c0.9-0.2,1.6-0.3,2.7-0.5c0,5.3,0,10.3,0,15.5c5.7,0,11.1,0,16.8,0c0-5,0-9.9,0-15c1-0.1,1.7-0.2,2.7-0.3c0,5.2,0,10.1,0,15.3
				c3,0,5.6,0,8.2,0c2.2,12.6,0,24.2-14.2,29.1c0,1.1,0,2.3,0,3.5c0,14.1,0,28.2,0,42.3c0,7.2-2.1,13.6-8.9,17
				c-7.2,3.6-14.7,3.4-21.7-0.7c-4-2.3-6.1-6.2-7.3-10.6c-1.5-6.1-1.6-12.3-0.2-18.4c2.9-12.1,15.3-17.8,26.5-12.3
				C434.3,70.2,435.1,70.7,436.4,71.4z M436.3,90.3c0.1,0,0.1,0,0.2,0c0-1.5,0-2.9,0-4.4c0-4.5-3-8.3-7.4-9.6
				c-5.1-1.4-10.3,0.2-12.4,4.4c-3.3,6.8-3.3,14,0,20.8c2,4.1,6.6,5.5,12,4.5c4.3-0.8,7-3.6,7.5-8.4
				C436.6,95.3,436.3,92.8,436.3,90.3z"/>
			<path d="M55.5,71.4c-4.8,8.8-9.5,17.6-14.3,26.4c-0.4,0.8-0.8,1.6-1.3,2.4c-2.3,4-6.1,4.1-8.3,0c-4.6-8.3-9-16.7-13.5-25
				c-0.6-1.2-1.3-2.3-2.5-3.4c-0.1,0.9-0.2,1.8-0.2,2.8c0,10.8,0,21.7,0,32.5c0,1.1,0,2.3-0.2,3.4c-0.5,2.3-2.2,3.4-4.5,3.3
				c-2.3-0.2-3.7-1.6-4-3.9c-0.1-0.6,0-1.1,0-1.7c0-17.9,0-35.9,0-53.8c0-1.3,0.2-2.8,0.8-3.8c1.9-3,5.7-2.4,7.6,1.1
				c3.3,6,6.5,12.1,9.7,18.2c3.5,6.5,7,13.1,10.7,20c0.8-1.3,1.5-2.4,2-3.4C43.9,74.9,50,63.5,56.1,52.1c1.7-3.2,3.4-4.1,5.8-3.2
				c2.6,1,3,3,3,5.5c0,12.9,0,25.7,0,38.6c0,5.3,0.1,10.6,0,15.9c-0.1,3.8-3,5.9-6.1,4.5c-2.2-1-2.6-2.8-2.6-5c0-11.2,0-22.3,0-33.5
				c0-1.1,0-2.2,0-3.3C56,71.5,55.8,71.5,55.5,71.4z"/>
			<path d="M261.1,71.6c4.6-3,8.9-4,13.5-3.6c8,0.7,13.8,5.3,15.8,13c1.5,5.8,1.6,11.6,0.6,17.4c-2.2,11.7-11.5,17.7-23.6,15.4
				c-8.9-1.7-14.5-7.7-14.6-16.8c-0.3-15.6-0.1-31.1-0.1-46.7c0-2.8,1.6-4.4,3.9-4.6c2.5-0.1,4.4,1.6,4.4,4.4
				c0.1,5.6,0.1,11.3,0.1,16.9C261.1,68.5,261.1,69.7,261.1,71.6z M261.1,90.3c0.1,0,0.1,0,0.2,0c0,2.4-0.2,4.7,0,7.1
				c0.6,5.4,3.4,8.1,8.6,8.8c5.8,0.8,10-1.2,11.8-6.1c2.2-5.9,2.2-12,0-17.8c-1.9-5-6.8-7.2-12.5-6c-4.9,1.1-8.1,5-8.1,10
				C261.1,87.6,261.1,88.9,261.1,90.3z"/>
			<path d="M176.7,92.5c-1.4,1.1-2.6,2-4,3.1c0,3.8,0,7.7,0,11.7c0,1,0.1,2.1-0.1,3c-0.5,2.3-2,3.6-4.3,3.5
				c-2.2-0.1-3.6-1.3-3.9-3.5c-0.2-1-0.1-2-0.1-3c0-18.3,0-36.6,0-54.9c0-1-0.1-2,0.1-3c0.4-2.2,1.8-3.4,4-3.4
				c2.2-0.1,3.6,1.2,4.2,3.2c0.3,1.1,0.2,2.2,0.2,3.4c0,10.6,0,21.2,0,32.2c0.9-0.5,1.5-0.8,2.1-1.2c5.3-4.3,10.7-8.7,16-13
				c0.9-0.7,1.8-1.5,2.9-1.7c2-0.4,3.9,0,4.9,2.1c1,2.2,0.4,4-1.3,5.4c-3.6,2.9-7.2,5.8-10.8,8.7c-0.9,0.7-1.7,1.4-2.8,2.3
				c4,5.2,7.9,10.2,11.8,15.3c0.9,1.2,1.8,2.3,2.7,3.5c2.1,2.8,2.1,5.2,0,6.9c-2.1,1.7-4.7,1.1-6.9-1.8
				C186.4,105,181.7,98.8,176.7,92.5z"/>
			<path d="M465.2,85.2c6-4.9,11.3-9.3,16.7-13.6c0.7-0.6,1.4-1.2,2.1-1.7c2.3-1.7,4.9-1.6,6.4,0.1c1.6,1.9,1.3,4.6-1.1,6.5
				c-3.4,2.8-6.9,5.5-10.3,8.3c-1,0.8-1.9,1.6-3.1,2.6c4.6,5.9,9,11.6,13.5,17.4c0.6,0.7,1.1,1.4,1.6,2.2c1.4,2.3,1.2,4.6-0.7,6.1
				c-1.8,1.4-4.3,1.2-6-0.8c-2.3-2.7-4.3-5.5-6.5-8.2c-2.9-3.7-5.8-7.5-8.9-11.3c-1.3,1.1-2.6,2-3.9,3c0,4.1,0,8.1,0,12.2
				c0,1.1,0.1,2.5-0.5,3.3c-1,1.2-2.4,2.4-3.8,2.7c-1.9,0.4-3.5-0.9-4-2.9c-0.3-1-0.3-2-0.3-3c0-18.6,0-37.2,0-55.9
				c0-0.7-0.1-1.4,0-2c0.3-2.3,1.5-3.7,3.9-4c2.2-0.2,4.1,1.2,4.5,3.6c0.2,1,0.1,2,0.1,3c0,9.5,0,19,0,28.4
				C465.2,82.1,465.2,83.2,465.2,85.2z"/>
			<path d="M233.6,85.8c0.2-3.9-0.7-6.9-3.9-8.4c-4.1-2-8.3-1.9-12.3,0.5c-1.1,0.7-2,1.8-3,2.7c-1.7,1.5-3.6,1.9-5.5,0.4
				c-1.9-1.5-2-3.5-0.7-5.4c4-5.9,10-7.7,16.8-7.6c6.5,0.1,12.1,2.2,15,8.5c1.2,2.7,1.7,5.8,1.8,8.8c0.2,7.6,0.1,15.1,0.1,22.7
				c0,2.3-0.1,4.6-2.8,5.5c-2.7,0.9-4.3-0.6-5.7-2.9c-5.3,3.7-11.2,4.4-17.3,2.9c-7.6-1.8-11.2-6.5-11-14.3
				c0.1-6.6,4.5-11.7,11.7-12.8c4.3-0.7,8.8-0.5,13.1-0.6C231.1,85.8,232.2,85.8,233.6,85.8z M233.5,93.8c-4.7,0-9.1-0.1-13.5,0.1
				c-1.3,0-2.7,0.5-3.8,1.2c-3.6,2.1-3.8,7.9-0.2,9.8c4.3,2.3,8.9,2.2,13.2-0.4C233.1,102.1,234.1,98.3,233.5,93.8z"/>
			<path d="M103.5,110.6c-5.8,4.1-12,4.4-18.4,2.8c-6.3-1.7-9.9-6.5-10-12.8c-0.1-6.7,3.1-11.6,9.5-13.5c2.6-0.8,5.3-1,8-1.2
				c3.6-0.2,7.2,0,10.7,0c0.7-5-1.3-8.4-5.8-9.3c-4.4-1-8.5-0.5-11.9,3c-0.4,0.4-0.8,0.8-1.2,1.2c-1.8,1.6-3.7,1.8-5.5,0.3
				c-1.8-1.6-1.8-3.6-0.5-5.5c2.5-3.9,6.3-6.3,10.8-6.9c3.4-0.4,7-0.6,10.4,0.1c7.8,1.5,12.2,7.2,12.4,15.1c0.1,8.1,0,16.2,0,24.3
				c0,2.3,0,4.6-2.8,5.5C106.5,114.4,104.9,112.9,103.5,110.6z M103.5,93.8c-4.6,0-9-0.1-13.3,0.1c-1.3,0-3,0.3-3.8,1.2
				c-1.3,1.4-2.5,3.3-2.7,5.1c-0.3,2.2,0.8,4.3,3.1,5.1c4.3,1.7,8.7,1.7,12.7-0.8C103.1,102,104.1,98.3,103.5,93.8z"/>
			<path d="M328.2,94.2c0.1,11.7,11.4,14.1,18.9,10.5c1.2-0.6,2.3-1.5,3.4-2.1c1.9-1.1,3.8-1,5.2,0.7c1.4,1.8,1.3,3.8-0.3,5.5
				c-0.7,0.7-1.5,1.4-2.4,1.9c-7.6,4.5-15.6,4.9-23.6,1.3c-4-1.8-6.7-5.1-8.1-9.1c-2.8-8-3-16.2,0.4-24.1c3.9-9,14.4-13.1,24.7-9.7
				c8.2,2.7,13.3,12.4,11.4,21.4c-0.6,2.6-2.1,3.7-5.6,3.8c-6.8,0.1-13.5,0-20.3,0C330.6,94.2,329.4,94.2,328.2,94.2z M349.3,86.3
				c0-6.7-3.4-10.3-9.8-10.4c-6.7-0.1-10.9,3.8-11.1,10.4C335.4,86.3,342.3,86.3,349.3,86.3z"/>
			<path d="M128.5,91.6c0.1,1.5,0.1,3.3,0.5,5.1c1.6,8.3,8.5,11.9,16.3,8.6c1.6-0.7,3.1-1.8,4.7-2.7c2.1-1.2,4.3-0.9,5.4,0.9
				c1.2,2,1,3.8-0.7,5.5c-8.2,7.8-29.3,8.8-33.6-8.6c-1.7-7.1-1.6-14.1,0.8-21c4.9-14.1,24.9-14.2,32.4-5.6c2,2.3,2.1,4.7,0.4,6.3
				c-1.6,1.5-4.2,1.4-6-0.5c-3.7-4-8.2-4.4-13-3c-4.6,1.4-6.1,5.4-6.8,9.7C128.5,87.9,128.6,89.7,128.5,91.6z"/>
			<path d="M308.4,105.1c1.4,0.4,2.3,0.6,3.1,0.9c2.1,0.7,3.1,2.2,2.8,4.4c-0.3,2.3-1.8,3.2-3.9,3.4c-4.9,0.4-9.1-2.7-10.2-7.5
				c-0.3-1.5-0.4-3.1-0.4-4.7c0-16.6,0-33.1,0-49.7c0-0.9,0-1.8,0.1-2.7c0.5-2.2,1.9-3.3,4.1-3.3c2.2,0,3.6,1.3,4,3.4
				c0.2,1,0.1,2,0.1,3c0,15.8,0,31.5,0,47.3C308.1,101.4,308.3,103.1,308.4,105.1z"/>
			<path d="M375.1,71.3c3.6-1.1,7-2.4,10.4-3c2.8-0.5,4.9,1.3,5.1,3.7c0.3,2.4-1.3,4.1-4.4,4.4c-7.4,0.9-10.7,4.4-10.9,12
				c-0.2,6.9-0.1,13.7-0.2,20.6c0,2.9-1.4,4.6-3.7,4.8c-2.6,0.3-4.6-1.5-4.6-4.6c-0.1-5.6,0-11.3,0-16.9c0-5.9,0-11.7,0-17.6
				c0-2.4-0.2-4.9,2.7-5.9C371.8,68,373.3,68.9,375.1,71.3z"/>
			<path d="M394.5,102.6c3.6,0,5.6,2,5.5,5.7c-0.1,3.6-2.1,5.6-5.7,5.5c-3.4-0.1-5.4-2.1-5.4-5.5
				C388.8,104.8,390.9,102.6,394.5,102.6z"/>
			<path fill="#FFFFFF" d="M436.3,90.3c0,2.5,0.2,5,0,7.4c-0.5,4.8-3.2,7.5-7.5,8.4c-5.5,1.1-10-0.4-12-4.5c-3.3-6.8-3.3-14,0-20.8
				c2.1-4.2,7.3-5.8,12.4-4.4c4.5,1.2,7.4,5.1,7.4,9.6c0,1.5,0,2.9,0,4.4C436.5,90.3,436.4,90.3,436.3,90.3z"/>
			<path fill="#FFFFFF" d="M261.1,90.3c0-1.4,0-2.7,0-4.1c0-5.1,3.2-9,8.1-10c5.7-1.2,10.6,1,12.5,6c2.2,5.9,2.2,12,0,17.8
				c-1.8,4.9-6,6.9-11.8,6.1c-5.2-0.7-8-3.5-8.6-8.8c-0.2-2.3,0-4.7,0-7.1C261.3,90.3,261.2,90.3,261.1,90.3z"/>
			<path fill="#FFFFFF" d="M233.5,93.8c0.6,4.5-0.4,8.3-4.3,10.7c-4.2,2.6-8.8,2.7-13.2,0.4c-3.7-2-3.5-7.7,0.2-9.8
				c1.1-0.6,2.5-1.1,3.8-1.2C224.4,93.7,228.8,93.8,233.5,93.8z"/>
			<path fill="#FFFFFF" d="M103.5,93.8c0.7,4.5-0.4,8.2-4.1,10.6c-4,2.6-8.3,2.5-12.7,0.8c-2.3-0.9-3.4-3-3.1-5.1
				c0.3-1.8,1.5-3.7,2.7-5.1c0.8-0.9,2.5-1.2,3.8-1.2C94.5,93.7,98.9,93.8,103.5,93.8z"/>
			<path fill="#FFFFFF" d="M349.3,86.3c-7,0-13.9,0-20.9,0c0.2-6.5,4.5-10.4,11.1-10.4C345.8,76,349.3,79.6,349.3,86.3z"/>
		</g>
	</g>
</g>
</svg>
