<svg xmlns="http://www.w3.org/2000/svg" width="63.465" height="65.62" viewBox="0 0 63.465 65.62"><defs><style>.a{fill:#06c;fill-rule:evenodd;}</style></defs><g transform="translate(0)"><path class="a" d="M25.666,37.92l.051-.119c7.421,7.308,15.8-.51,15.8-.51-3.966-8.371-9.6-8.875-11.793-8.719,0,0,5.215-2.34,11.056,2.961a22.512,22.512,0,0,1,4.454,6.514s-10.546,9.84-19.57-.128m-.61-18.473a1.614,1.614,0,1,1,1.791,1.393,1.6,1.6,0,0,1-1.791-1.393m38.233,5.626c.5,8.612-6.688,12.117-12.385,11.265-4.736-.708-7.228-4.77-7.986-7.415a4.434,4.434,0,0,1-.177-.752c-.01-.06-.021-.12-.03-.182A16.263,16.263,0,0,0,36.419,17.6c-3.963-2.423-10.212-3.959-15.475-.18-.287.206-.557.414-.82.624v0c-.9.768-2.409,1.5-6.533.777,0,0,2.75,2.506,1.98,5.048h0a16.119,16.119,0,0,0-.965,7.791,24.574,24.574,0,0,0,48.683-6.584"/><path class="a" d="M48.138,59.231c-.6-2.147-1.335-2.542-2.147-2.455-.463.134-.929.256-1.4.37l-.025.006h0a35.3,35.3,0,0,1-4.96.829c-10.028.941-19.407-2.361-25.232-8.494a.078.078,0,0,0,0-.011,23.442,23.442,0,0,1-2.036-2.459c-.083-.116-.168-.23-.248-.347-.033-.047-.064-.1-.1-.142a21.712,21.712,0,0,1-1.449-2.485.145.145,0,0,0-.023.01,23.1,23.1,0,0,1-1.774-4.6v0a23.219,23.219,0,0,1-.988-6.516A23.2,23.2,0,0,1,7.8,29.26v-.01q0-.062.013-.123a23.656,23.656,0,0,1,46.983-.559,23.161,23.161,0,0,1-.133,6.532,9.88,9.88,0,0,0,4.215-1.9c1.117-1.05,5.805-5.2,1.442-16.247A32.077,32.077,0,0,0,28.172.23,31.735,31.735,0,0,0,.232,35.45c.027.221.06.44.092.66s.042.443.069.664A31.455,31.455,0,0,0,11.566,57.227a39.278,39.278,0,0,0,19.35,8.049h0a47.585,47.585,0,0,0,16.991-1.013c1.009-.31,1.372-.733,1.16-1.685-.294-1.307,0,0-.935-3.347"/></g></svg>