<svg xmlns="http://www.w3.org/2000/svg" viewBox="0 0 1031.96 171.58"><g id="Layer_2" data-name="Layer 2"><g id="Layer_1-2" data-name="Layer 1"><path d="M72.19,136.59H47.6L19.84,62.27v74.26H0V41.48H31.85Q45.8,79.13,59.76,116.8,73.17,79.12,86.6,41.44h33v95.13H99.2v-73Q85.73,100.1,72.19,136.59Z"/><path d="M367.49,136.59h-30.2q-23-35.2-46-70.38v70.32h-22.7V41.45h30.62l45.16,71.29V41.47h23.12Z"/><path d="M764.58,98.05l26.2,38.52H763.85L739.2,99.49H713.43v37.07H690.89V41.44c.45,0,.9-.06,1.35-.06h68.38A24.33,24.33,0,0,1,780,50.28a31.65,31.65,0,0,1,7.63,26.14c-1.32,9.12-7,15.07-15.13,18.88A76.26,76.26,0,0,1,764.58,98.05ZM713.49,84c.58,0,23.6,0,30.51-.05a20.56,20.56,0,0,0,11.94-3.91A10.14,10.14,0,0,0,760.18,74a12.23,12.23,0,0,0-5.47-13.5,21.35,21.35,0,0,0-11.32-3c-9.7-.09-29.61,0-29.9.06Z"/><path d="M481.4,136.64c-.71,0-42.51-.08-62.85,0-11.51.06-20.74-4.46-28-13.21A50.15,50.15,0,0,1,379.24,97a55.93,55.93,0,0,1,2.1-25.11,46.06,46.06,0,0,1,19-24.81,36.91,36.91,0,0,1,20.45-5.75c19.43,0,59.74.36,59.74.36V58.89s-36,0-53.13,0A20.2,20.2,0,0,0,409.9,68a32.5,32.5,0,0,0-5.73,16.09c-.74,8.33.19,16.4,4,24a25.34,25.34,0,0,0,6.14,8,17.6,17.6,0,0,0,11,4.28h33V96.34h-32.5V80.6h55.66Z"/><path d="M583,41.37v17H543.37a36.46,36.46,0,0,0-5.52.43c-5.58.86-9.5,4.32-12.93,8.51-3,3.64-4,7.89-4,12.49a2.11,2.11,0,0,0,.12.48h62.45v17H521a14.4,14.4,0,0,0,.25,4.81c.72,4.75,3.28,8.52,6.57,11.86,2.62,2.68,5.55,4.91,9.33,5.68a23.13,23.13,0,0,0,4.47.45h41.88v16.56c-.45,0-31.89.09-47.16,0a42.19,42.19,0,0,1-26.86-9.4c-5.54-4.47-9-10.42-11.49-17a59.65,59.65,0,0,1-3.51-25.6,53.82,53.82,0,0,1,6.24-22C507,51.12,516.84,44.7,529.46,42.28a55.87,55.87,0,0,1,10-.84C553.49,41.32,582.49,41.37,583,41.37Z"/><path d="M856.88,114.37H831.79V0H941.07V25H856.88Z"/><path d="M922.78,171.58v-25H1007V57.24h25V171.58Z"/><path d="M608.17,136.6H584.62q19.57-47.67,39.06-95.17h23.37l41,95.12H664.18q-4-10.71-8-21.53H616.74C613.9,122.17,611.06,129.34,608.17,136.6ZM636,65.08h-.25q-6.19,16.5-12.41,33.21h25.48C644.49,87.13,640.22,76.11,636,65.08Z"/><path d="M226.49,136.6H202.65q-4-10.74-8-21.57H155.19q-4.24,10.66-8.55,21.53H123.09l39-95.12h23.4ZM187.28,98.32c-4.35-11.25-8.65-22.41-13-33.56L161.74,98.32Z"/><path d="M254.65,136.57h-25.3V41.49h25.3Z"/><path d="M989.9,75.89V95.74H874V75.89Z"/><path d="M989.87,129.52H874V109.58H989.87Z"/><path d="M989.83,42.07V62H874V42.07Z"/></g></g></svg>