<?xml version="1.0" encoding="utf-8"?>
<!-- Generator: Adobe Illustrator 25.3.1, SVG Export Plug-In . SVG Version: 6.00 Build 0)  -->
<svg version="1.1" id="Ebene_1" xmlns="http://www.w3.org/2000/svg" xmlns:xlink="http://www.w3.org/1999/xlink" x="0px" y="0px"
	 viewBox="0 0 670.98 211.4" style="enable-background:new 0 0 670.98 211.4;" xml:space="preserve">
<style type="text/css">
	.st0{fill:#010202;}
	.st1{fill:#FFFFFF;}
</style>
<g>
	<path class="st0" d="M274.4,181.92c-1.85-0.31-3.72-0.57-5.56-0.95c-10.87-2.28-19.72-7.96-26.88-16.31
		c-10.2-11.9-15.15-26.06-17.42-41.32c-1.03-6.94-1.7-13.94-1.27-20.94c1.17-19.16,5.23-37.49,16.44-53.57
		c6.77-9.71,15.33-17.24,26.92-20.7c10.36-3.09,20.48-2.13,30.29,2.24c12.39,5.51,21.06,14.95,27.61,26.54
		c6.25,11.06,9.48,23.08,11,35.62c0.15,1.28-0.29,1.75-1.57,1.75c-6.47-0.03-12.95-0.03-19.42,0c-1.19,0.01-1.66-0.48-1.62-1.64
		c0.04-1.19,0.07-2.38-0.01-3.56c-0.08-1.4,0.61-1.73,1.87-1.72c4.1,0.05,8.2,0.02,12.3,0.01c2.01,0,2.05-0.06,1.59-2
		c-2.82-11.88-7.28-23.04-14.76-32.81c-6.38-8.33-14.18-14.87-24.58-17.48c-13.38-3.36-25.31-0.56-35.39,9.14
		c-6.75,6.5-10.82,14.59-13.78,23.31c-3.14,9.25-4.68,18.81-5.26,28.54c-0.81,13.46-0.32,26.84,2.64,40.04
		c2.11,9.4,5.43,18.32,11.56,25.93c6.44,7.98,14.74,12.6,25.06,13.43c15.86,1.28,28.46-4.98,38.58-16.78
		c9.35-10.9,13.98-23.9,16.33-37.84c0.23-1.38,0.38-2.78,0.61-4.16c0.2-1.25-0.25-1.77-1.56-1.76c-4.42,0.04-8.85-0.03-13.27,0.04
		c-1.5,0.02-2.04-0.51-1.95-1.97c0.09-1.45,0.03-2.91,0.03-4.37c0-0.91,0.38-1.44,1.33-1.44c7.01,0.01,14.02,0.01,21.04,0.04
		c0.31,0,0.62,0.17,0.93,0.25c0,1.19,0,2.37,0,3.56c-0.1,0.41-0.27,0.82-0.3,1.24c-0.43,5.16-1.09,10.29-2.26,15.34
		c-3.74,16.18-10.62,30.61-23.28,41.82c-5.82,5.16-12.46,8.85-19.98,10.92c-2.71,0.75-5.48,1.11-8.24,1.56
		C279.58,181.92,276.99,181.92,274.4,181.92z"/>
	<path class="st0" d="M280.48,152.09c-4.46-14.49-8.92-28.97-13.38-43.46c-0.13,0.01-0.26,0.02-0.4,0.04
		c-0.51,3.27-1.01,6.55-1.52,9.82c-1.29,8.31-2.58,16.62-3.9,24.92c-0.19,1.19,0.25,1.58,1.36,1.55c3.36-0.1,3.09-0.12,3.08,3.22
		c-0.01,4.07,0.45,3.65-3.6,3.67c-3.4,0.01-6.8-0.04-10.2,0.02c-1.3,0.02-1.9-0.41-1.82-1.77c0.07-1.24,0.03-2.48,0.02-3.72
		c-0.01-0.9,0.33-1.51,1.31-1.41c1.57,0.17,2.02-0.72,2.3-2.05c2.21-10.28,4.46-20.55,6.7-30.83c0.94-4.32,1.83-8.65,2.83-12.96
		c0.29-1.26,0.23-2.39-0.16-3.62c-2.68-8.6-5.32-17.21-7.91-25.84c-0.43-1.45-1.06-2.15-2.69-2.07c-2.3,0.12-2.37-0.05-2.38-2.32
		c0-0.86-0.01-1.73,0-2.59c0.01-2.05,0.08-2.14,2.06-2.14c3.83-0.01,7.66,0.05,11.49-0.03c1.5-0.03,2.22,0.41,2.08,2.01
		c-0.1,1.07-0.08,2.16,0,3.23c0.11,1.41-0.46,2.03-1.87,1.87c-1.28-0.14-1.57,0.33-1.22,1.59c1.2,4.31,3.96,14.55,3.96,14.55
		s2.02-9.29,2.98-13.55c0.16-0.01,0.32-0.02,0.49-0.03c3.47,9.17,6.94,18.35,10.41,27.52c0.15,0,0.3,0,0.45,0
		c3.47-9.17,6.93-18.34,10.4-27.52c0.16,0.01,0.31,0.03,0.47,0.04c0.94,4.28,3.01,13.74,3.01,13.74l0.57-2.23
		c0,0,2.13-8.14,3.26-12.19c0.36-1.27,0.28-2.01-1.27-1.93c-0.96,0.05-1.34-0.48-1.33-1.41c0.03-1.46,0.02-2.91,0.01-4.37
		c-0.01-0.88,0.41-1.29,1.27-1.29c4.37,0,8.74,0,13.11,0.01c0.79,0,1.19,0.41,1.19,1.21c0,1.51-0.01,3.02,0.01,4.53
		c0.01,0.98-0.5,1.28-1.41,1.34c-3.41,0.25-3.44,0.26-4.45,3.53c-2.58,8.35-5.13,16.7-7.71,25.05c-0.25,0.8-0.26,1.56-0.09,2.38
		c3.24,14.91,6.47,29.83,9.66,44.75c0.25,1.18,0.76,1.74,1.95,1.58c1.69-0.22,2.21,0.58,2.08,2.15c-0.1,1.12-0.04,2.26-0.02,3.4
		c0.01,0.96-0.45,1.35-1.39,1.35c-4.26-0.01-8.52-0.02-12.78,0c-1.06,0-1.44-0.5-1.41-1.49c0.03-1.29,0.04-2.59,0-3.88
		c-0.04-1.11,0.46-1.59,1.55-1.52c0.38,0.02,0.76-0.02,1.13,0c1.25,0.09,1.59-0.44,1.38-1.66c-0.65-3.77-1.21-7.56-1.8-11.34
		c-1.22-7.77-2.43-15.53-4-23.37c-4.45,14.51-8.91,29.02-13.36,43.53C280.8,152.1,280.64,152.09,280.48,152.09z M291.16,86.75
		c0,0-6.66,17.55-9.65,25.52c-0.18,0.48-0.17,1.27-0.77,1.3c-0.63,0.03-0.64-0.77-0.82-1.24c-2.9-7.72-5.78-15.45-8.67-23.17
		c-0.25-0.66-1.02-2.71-1.02-2.71s-1.33,6.34-0.53,9.26c3.19,11.7,6.26,23.43,9.38,35.15c0.49,1.85,1.01,3.68,1.63,5.93
		c0.25-0.77,0.38-1.12,0.48-1.47c3.48-13.13,6.88-26.28,10.49-39.37C292.51,92.88,291.16,86.75,291.16,86.75z"/>
</g>
<g>
	<path class="st0" d="M42.81,105.97c1.37,2.8,2.68,5.55,4.11,8.17h0.12c1.61-2.8,3.1-5.9,4.59-8.95l5.61-11.39
		c2.68-5.43,4.41-8.71,4.53-11.45c2.03,0.18,3.28,0.18,4.47,0.18c1.49,0,3.46-0.06,5.31-0.18c0.36,0.24,0.36,1.25,0.06,1.49
		l-1.25,0.12c-3.76,0.36-4.23,1.49-4.17,5.67c0.12,6.32,0.18,17.35,0.66,25.94c0.18,2.98,0.12,4.59,2.92,4.83l1.91,0.18
		c0.36,0.36,0.3,1.25-0.12,1.49c-2.45-0.12-4.89-0.18-7.04-0.18c-2.09,0-4.77,0.06-7.22,0.18c-0.42-0.3-0.48-1.13-0.12-1.49
		l1.73-0.18c2.92-0.3,2.92-1.25,2.92-5.07l-0.18-24.87h-0.12c-0.42,0.66-2.68,5.43-3.88,7.75l-5.31,10.44
		c-2.68,5.25-5.37,10.85-6.44,13.6c-0.12,0.18-0.36,0.24-0.6,0.24c-0.12,0-0.42-0.06-0.54-0.24c-1.01-3.16-3.88-9.01-5.25-11.93
		l-5.37-11.51c-1.25-2.74-2.5-5.84-3.82-8.59h-0.12c-0.24,3.7-0.42,7.16-0.6,10.62c-0.18,3.64-0.42,8.95-0.42,14.01
		c0,4.41,0.36,5.37,2.68,5.55l2.27,0.18c0.42,0.36,0.36,1.31-0.06,1.49c-2.03-0.12-4.35-0.18-6.62-0.18c-1.91,0-4.06,0.06-6.08,0.18
		c-0.36-0.3-0.48-1.19-0.12-1.49l1.31-0.18c2.5-0.36,3.34-0.72,3.7-4.89c0.36-3.94,0.66-7.22,1.01-13.12
		c0.3-4.95,0.54-10.02,0.66-13.3c0.12-3.76-0.36-4.65-4-5.13l-0.95-0.12c-0.3-0.36-0.24-1.25,0.24-1.49
		c1.79,0.12,3.22,0.18,4.71,0.18c1.37,0,2.98,0,4.95-0.18c-0.24,2.33,1.25,6.02,3.1,9.84L42.81,105.97z"/>
	<path class="st0" d="M102.75,108.06c-0.42-1.31-0.66-1.49-2.45-1.49h-9.01c-1.49,0-1.85,0.18-2.27,1.43l-2.09,6.26
		c-0.89,2.68-1.31,4.29-1.31,4.95c0,0.72,0.3,1.07,1.73,1.19l1.97,0.18c0.42,0.3,0.42,1.25-0.12,1.49c-1.55-0.12-3.4-0.12-6.2-0.18
		c-1.97,0-4.11,0.12-5.73,0.18c-0.36-0.24-0.48-1.19-0.12-1.49l1.97-0.18c1.43-0.12,2.74-0.78,3.58-2.92
		c1.07-2.74,2.74-6.62,5.25-13.3l6.08-16.1c0.83-2.15,1.19-3.28,1.01-4.23c1.43-0.42,2.45-1.49,3.1-2.27c0.36,0,0.78,0.12,0.89,0.54
		c0.78,2.62,1.73,5.37,2.62,7.99l8.17,23.97c1.73,5.13,2.5,6.02,5.07,6.32l1.61,0.18c0.42,0.3,0.3,1.25,0,1.49
		c-2.45-0.12-4.53-0.18-7.22-0.18c-2.86,0-5.13,0.12-6.86,0.18c-0.48-0.24-0.54-1.19-0.12-1.49l1.73-0.18
		c1.25-0.12,2.09-0.48,2.09-1.07c0-0.66-0.3-1.73-0.78-3.16L102.75,108.06z M90.94,102.75c-0.48,1.37-0.42,1.43,1.25,1.43h7.34
		c1.73,0,1.85-0.24,1.31-1.85l-3.22-9.72c-0.48-1.43-1.01-3.04-1.37-3.76h-0.12c-0.18,0.3-0.78,1.73-1.43,3.52L90.94,102.75z"/>
	<path class="st0" d="M127.73,91.54c0-5.67-0.18-6.68-2.62-6.98l-1.91-0.24c-0.42-0.3-0.42-1.25,0.06-1.49
		c3.34-0.3,7.45-0.48,13.3-0.48c3.7,0,7.22,0.3,9.96,1.79c2.86,1.49,4.95,4.17,4.95,8.35c0,5.67-4.47,8.77-7.45,9.96
		c-0.3,0.36,0,0.95,0.3,1.43c4.77,7.69,7.93,12.46,11.99,15.86c1.01,0.89,2.5,1.55,4.12,1.67c0.3,0.12,0.36,0.6,0.06,0.83
		c-0.54,0.18-1.49,0.3-2.62,0.3c-5.07,0-8.11-1.49-12.34-7.51c-1.55-2.21-4-6.32-5.84-9.01c-0.89-1.31-1.85-1.91-4.23-1.91
		c-2.68,0-2.8,0.06-2.8,1.31v7.51c0,6.26,0.12,6.98,3.58,7.45l1.25,0.18c0.36,0.3,0.24,1.31-0.12,1.49
		c-2.68-0.12-4.71-0.18-7.1-0.18c-2.5,0-4.65,0.06-7.45,0.18c-0.36-0.18-0.48-1.07-0.12-1.49l1.49-0.18
		c3.46-0.42,3.58-1.19,3.58-7.45V91.54z M132.62,100.07c0,1.07,0,1.73,0.18,1.97c0.18,0.18,1.07,0.3,4.12,0.3
		c2.15,0,4.41-0.24,6.14-1.55c1.61-1.25,2.98-3.34,2.98-7.4c0-4.71-2.92-9.18-9.54-9.18c-3.7,0-3.88,0.24-3.88,1.91V100.07z"/>
	<path class="st0" d="M171.02,86.65c4.35-3.4,9.9-5.07,16.1-5.07c3.22,0,7.75,0.66,10.56,1.43c0.72,0.18,1.13,0.3,1.67,0.24
		c0.06,1.37,0.36,5.13,0.83,8.77c-0.3,0.42-1.19,0.48-1.61,0.12c-0.89-4.06-3.58-8.71-12.23-8.71c-9.12,0-16.88,5.78-16.88,18.13
		c0,12.52,7.93,19.44,17.71,19.44c7.69,0,11.09-5.01,12.46-8.53c0.42-0.3,1.31-0.18,1.55,0.24c-0.42,3.1-1.97,7.04-2.86,8.17
		c-0.72,0.12-1.43,0.36-2.09,0.6c-1.31,0.48-5.61,1.37-9.42,1.37c-5.37,0-10.5-1.07-14.85-4c-4.77-3.28-8.47-8.71-8.47-16.4
		C163.51,95.84,166.49,90.17,171.02,86.65z"/>
</g>
<g>
	<path class="st0" d="M395.41,115.81c0,2.39,0.36,3.82,1.43,4.23c0.18,0.18,0.18,0.54-0.06,0.72c-0.72,0-1.79,0.24-2.92,0.54
		c-3.16,0.83-7.45,1.55-10.68,1.55c-7.1,0-13.6-1.97-18.19-6.62c-3.58-3.58-5.49-8.29-5.49-13.54c0-5.07,1.67-10.2,5.37-14.13
		c4-4.17,9.9-6.98,18.91-6.98c3.4,0,6.56,0.66,7.57,0.89c1.13,0.24,2.98,0.66,3.7,0.54c0,1.97,0.36,5.07,0.89,8.65
		c-0.18,0.48-1.25,0.54-1.61,0.18c-1.67-6.44-6.14-8.47-12.23-8.47c-11.57,0-16.64,8.23-16.64,17.18c0,11.45,5.9,20.46,17.89,20.46
		c3.7,0,5.9-0.78,6.56-1.79c0.3-0.42,0.6-1.49,0.6-3.4v-2.39c0-5.01-0.18-5.37-3.88-5.78l-2.62-0.3c-0.48-0.24-0.42-1.31,0-1.49
		c1.73,0.12,5.01,0.18,8.53,0.18c2.33,0,4.35-0.06,6.32-0.18c0.42,0.24,0.48,1.13,0.06,1.49l-0.95,0.12
		c-2.5,0.3-2.56,1.97-2.56,5.01V115.81z"/>
	<path class="st0" d="M413.42,91.48c0-6.2-0.12-7.1-3.64-7.51l-0.95-0.12c-0.36-0.24-0.24-1.31,0.12-1.49
		c2.56,0.12,4.59,0.18,7.04,0.18h11.21c3.82,0,7.34,0,8.05-0.18c0.36,1.01,0.72,5.31,0.95,7.93c-0.24,0.36-1.19,0.48-1.49,0.12
		c-0.89-2.8-1.43-4.89-4.53-5.67c-1.25-0.3-3.16-0.36-5.78-0.36h-4.29c-1.79,0-1.79,0.12-1.79,2.39V98.7c0,1.67,0.18,1.67,1.97,1.67
		h3.46c2.5,0,4.35-0.12,5.07-0.36c0.72-0.24,1.13-0.6,1.43-2.09l0.48-2.45c0.3-0.36,1.31-0.36,1.55,0.06c0,1.43-0.24,3.76-0.24,6.02
		c0,2.15,0.24,4.41,0.24,5.73c-0.24,0.42-1.25,0.42-1.55,0.06l-0.54-2.33c-0.24-1.07-0.66-1.97-1.85-2.27
		c-0.83-0.24-2.27-0.3-4.59-0.3h-3.46c-1.79,0-1.97,0.06-1.97,1.61v8.41c0,3.16,0.18,5.19,1.13,6.2c0.72,0.72,1.97,1.37,7.22,1.37
		c4.59,0,6.32-0.24,7.63-0.89c1.07-0.6,2.68-2.68,4.23-5.78c0.42-0.3,1.25-0.12,1.49,0.42c-0.42,2.09-1.91,6.68-2.68,8.29
		c-5.37-0.12-10.68-0.18-15.98-0.18h-5.37c-2.56,0-4.59,0.06-8.11,0.18c-0.36-0.18-0.48-1.13-0.12-1.49l1.97-0.18
		c3.4-0.3,3.7-1.19,3.7-7.45V91.48z"/>
	<path class="st0" d="M452.72,90.29c0-4.41-0.24-5.55-2.92-5.78l-1.91-0.18c-0.48-0.36-0.42-1.25,0.06-1.49
		c3.22-0.3,7.28-0.48,12.82-0.48c3.76,0,7.34,0.3,10.02,1.67c2.56,1.25,4.53,3.64,4.53,7.45c0,4.29-2.5,6.5-6.08,8.17
		c0,0.6,0.48,0.78,1.13,0.89c3.22,0.6,7.99,3.58,7.99,9.96c0,6.92-5.13,11.57-15.86,11.57c-1.73,0-4.65-0.18-7.16-0.18
		c-2.62,0-4.65,0.12-6.86,0.18c-0.36-0.18-0.48-1.13-0.12-1.49l1.07-0.18c3.16-0.54,3.28-1.19,3.28-7.45V90.29z M457.61,98.22
		c0,1.67,0.06,1.79,3.1,1.67c6.08-0.24,9.36-2.03,9.36-7.63c0-5.84-4.35-8.05-8.89-8.05c-1.31,0-2.21,0.12-2.74,0.36
		c-0.6,0.18-0.83,0.48-0.83,1.55V98.22z M457.61,112.06c0,2.15,0.12,5.19,1.25,6.5c1.13,1.37,2.92,1.67,4.71,1.67
		c5.31,0,9.36-2.39,9.36-8.35c0-4.71-2.39-10.2-11.87-10.2c-3.22,0-3.46,0.36-3.46,1.55V112.06z"/>
	<path class="st0" d="M509.91,108.06c-0.42-1.31-0.66-1.49-2.45-1.49h-9.01c-1.49,0-1.85,0.18-2.27,1.43l-2.09,6.26
		c-0.89,2.68-1.31,4.29-1.31,4.95c0,0.72,0.3,1.07,1.73,1.19l1.97,0.18c0.42,0.3,0.42,1.25-0.12,1.49c-1.55-0.12-3.4-0.12-6.2-0.18
		c-1.97,0-4.12,0.12-5.73,0.18c-0.36-0.24-0.48-1.19-0.12-1.49l1.97-0.18c1.43-0.12,2.74-0.78,3.58-2.92
		c1.07-2.74,2.74-6.62,5.25-13.3l6.08-16.1c0.83-2.15,1.19-3.28,1.01-4.23c1.43-0.42,2.45-1.49,3.1-2.27c0.36,0,0.78,0.12,0.89,0.54
		c0.78,2.62,1.73,5.37,2.62,7.99l8.17,23.97c1.73,5.13,2.5,6.02,5.07,6.32l1.61,0.18c0.42,0.3,0.3,1.25,0,1.49
		c-2.45-0.12-4.53-0.18-7.22-0.18c-2.86,0-5.13,0.12-6.86,0.18c-0.48-0.24-0.54-1.19-0.12-1.49l1.73-0.18
		c1.25-0.12,2.09-0.48,2.09-1.07c0-0.66-0.3-1.73-0.78-3.16L509.91,108.06z M498.1,102.75c-0.48,1.37-0.42,1.43,1.25,1.43h7.34
		c1.73,0,1.85-0.24,1.31-1.85l-3.22-9.72c-0.48-1.43-1.01-3.04-1.37-3.76h-0.12c-0.18,0.3-0.78,1.73-1.43,3.52L498.1,102.75z"/>
	<path class="st0" d="M562.15,97.51c0-3.7-0.12-10.56-1.13-12.34c-0.42-0.72-1.49-1.13-2.98-1.25l-1.49-0.12
		c-0.36-0.42-0.24-1.19,0.12-1.43c2.27,0.12,4.47,0.18,6.8,0.18c2.5,0,4.12-0.06,6.26-0.18c0.48,0.3,0.42,1.07,0.12,1.43l-1.43,0.12
		c-1.49,0.12-2.62,0.66-2.98,1.43c-0.83,1.97-0.83,8.83-0.83,12.17v6.74c0,5.19-0.83,10.67-4.17,14.25
		c-2.56,2.8-6.98,4.35-11.39,4.35c-4.11,0-8.23-0.78-11.15-3.28c-3.16-2.62-4.65-6.98-4.65-14.07V91.42c0-6.2-0.12-7.22-3.58-7.51
		l-1.49-0.12c-0.36-0.24-0.24-1.25,0.12-1.43c2.98,0.12,5.01,0.18,7.4,0.18c2.45,0,4.41-0.06,7.34-0.18
		c0.36,0.18,0.48,1.19,0.12,1.43l-1.43,0.12c-3.46,0.3-3.58,1.31-3.58,7.51v12.88c0,9.6,2.98,15.92,12.11,15.92
		c8.65,0,11.93-6.8,11.93-15.86V97.51z"/>
	<path class="st0" d="M582.66,91.48c0-6.2-0.12-7.1-3.64-7.51l-0.95-0.12c-0.36-0.24-0.24-1.31,0.12-1.49
		c2.56,0.12,4.59,0.18,7.04,0.18h11.21c3.82,0,7.34,0,8.05-0.18c0.36,1.01,0.72,5.31,0.95,7.93c-0.24,0.36-1.19,0.48-1.49,0.12
		c-0.89-2.8-1.43-4.89-4.53-5.67c-1.25-0.3-3.16-0.36-5.78-0.36h-4.29c-1.79,0-1.79,0.12-1.79,2.39V98.7c0,1.67,0.18,1.67,1.97,1.67
		h3.46c2.5,0,4.35-0.12,5.07-0.36c0.72-0.24,1.13-0.6,1.43-2.09l0.48-2.45c0.3-0.36,1.31-0.36,1.55,0.06c0,1.43-0.24,3.76-0.24,6.02
		c0,2.15,0.24,4.41,0.24,5.73c-0.24,0.42-1.25,0.42-1.55,0.06l-0.54-2.33c-0.24-1.07-0.66-1.97-1.85-2.27
		c-0.83-0.24-2.27-0.3-4.59-0.3h-3.46c-1.79,0-1.97,0.06-1.97,1.61v8.41c0,3.16,0.18,5.19,1.13,6.2c0.72,0.72,1.97,1.37,7.22,1.37
		c4.59,0,6.32-0.24,7.63-0.89c1.07-0.6,2.68-2.68,4.23-5.78c0.42-0.3,1.25-0.12,1.49,0.42c-0.42,2.09-1.91,6.68-2.68,8.29
		c-5.37-0.12-10.68-0.18-15.98-0.18h-5.37c-2.56,0-4.59,0.06-8.11,0.18c-0.36-0.18-0.48-1.13-0.12-1.49l1.97-0.18
		c3.4-0.3,3.7-1.19,3.7-7.45V91.48z"/>
	<path class="st0" d="M621.96,91.54c0-5.67-0.18-6.68-2.62-6.98l-1.91-0.24c-0.42-0.3-0.42-1.25,0.06-1.49
		c3.34-0.3,7.45-0.48,13.3-0.48c3.7,0,7.22,0.3,9.96,1.79c2.86,1.49,4.95,4.17,4.95,8.35c0,5.67-4.47,8.77-7.45,9.96
		c-0.3,0.36,0,0.95,0.3,1.43c4.77,7.69,7.93,12.46,11.99,15.86c1.01,0.89,2.5,1.55,4.12,1.67c0.3,0.12,0.36,0.6,0.06,0.83
		c-0.54,0.18-1.49,0.3-2.62,0.3c-5.07,0-8.11-1.49-12.34-7.51c-1.55-2.21-4-6.32-5.84-9.01c-0.89-1.31-1.85-1.91-4.23-1.91
		c-2.68,0-2.8,0.06-2.8,1.31v7.51c0,6.26,0.12,6.98,3.58,7.45l1.25,0.18c0.36,0.3,0.24,1.31-0.12,1.49
		c-2.68-0.12-4.71-0.18-7.1-0.18c-2.5,0-4.65,0.06-7.45,0.18c-0.36-0.18-0.48-1.07-0.12-1.49l1.49-0.18
		c3.46-0.42,3.58-1.19,3.58-7.45V91.54z M626.85,100.07c0,1.07,0,1.73,0.18,1.97c0.18,0.18,1.07,0.3,4.12,0.3
		c2.15,0,4.41-0.24,6.14-1.55c1.61-1.25,2.98-3.34,2.98-7.4c0-4.71-2.92-9.18-9.54-9.18c-3.7,0-3.88,0.24-3.88,1.91V100.07z"/>
</g>
</svg>
