<?xml version="1.0" encoding="utf-8"?>
<!-- Generator: Adobe Illustrator 22.1.0, SVG Export Plug-In . SVG Version: 6.00 Build 0)  -->
<svg version="1.1" id="Layer_1" xmlns="http://www.w3.org/2000/svg" xmlns:xlink="http://www.w3.org/1999/xlink" x="0px" y="0px"
	 viewBox="0 0 800 284.805" style="enable-background:new 0 0 800 284.805;" xml:space="preserve">
<style type="text/css">
	.st0{fill:#99052C;}
	.st1{fill:#FFFFFF;}
	.st2{fill:#112633;}
	.st3{fill:#5E686D;}
</style>
<g>
	<g>
		<path class="st0" d="M214.574,26.303c-33.16-8.492-65.075-12.62-97.568-12.62s-64.408,4.128-97.568,12.62l-7.388,1.894v177.471
			c0,10.264,5.899,19.817,15.015,24.327l78.181,39.676c3.659,1.797,7.727,2.746,11.76,2.746s8.101-0.949,11.876-2.803l78.046-39.609
			c9.134-4.521,15.038-14.072,15.038-24.336V28.196L214.574,26.303z"/>
		<g>
			<g>
				<g>
					<path class="st1" d="M171.682,152.281c0.355,4.465,1.072,9.468,2.321,13.218c3.929,2.502,7.503,3.752,12.505,4.824v6.609
						c-7.145-0.177-13.935-0.357-21.257-0.357c-7.681,0-15.007,0.179-22.865,0.357v-6.43c4.106-0.895,7.681-1.787,11.074-3.931
						c1.431-5.716,1.966-10.717,2.502-19.829V80.649l-34.12,91.102H110.05L75.039,78.147v73.062
						c0.359,5.537,0.713,10.004,2.144,14.29c3.929,2.502,8.394,4.108,13.399,5.18v6.252c-7.149-0.357-11.433-0.357-18.759-0.357
						c-7.858,0-14.112,0.179-21.793,0.357v-6.43c4.11-0.895,6.79-1.787,10.183-3.931c1.427-5.716,1.963-10.717,2.499-19.829v-60.02
						c-0.177-5.001-0.713-10.004-1.427-14.469c-3.929-2.501-7.862-3.931-11.969-4.824v-6.788c6.432,0.179,12.682,0.357,19.472,0.357
						c5.892,0,11.251,0,17.147-0.357l31.618,89.317h1.072l32.69-89.317c4.465,0.179,10.542,0.357,16.615,0.357
						c7.322,0,13.931-0.177,17.147-0.357v6.788c-4.106,0.893-8.217,2.323-12.146,4.824c-0.536,4.465-1.072,9.468-1.249,14.469
						V152.281z"/>
				</g>
			</g>
		</g>
		<g>
			<g>
				<rect x="49.317" y="199.367" class="st1" width="137.191" height="7.897"/>
			</g>
		</g>
	</g>
	<g>
		<path class="st2" d="M342.126,135.37V89.169l-19.133,46.201h-4.667l-19.039-46.201v46.201h-10.922V73.116h15.401l16.892,40.973
			l16.989-40.973h15.401v62.254H342.126z"/>
		<path class="st2" d="M365.551,112.783c0-13.627,9.612-23.614,23.334-23.614c8.771,0,14.091,3.734,17.264,8.027l-6.439,5.973
			c-2.519-3.546-5.973-5.32-10.359-5.32c-8.215,0-13.629,6.161-13.629,14.934c0,8.774,5.414,15.027,13.629,15.027
			c4.386,0,7.84-1.868,10.359-5.32l6.439,5.973c-3.173,4.293-8.493,8.027-17.264,8.027
			C375.163,136.491,365.551,126.504,365.551,112.783z"/>
		<path class="st2" d="M415.483,104.29c0-19.135,14.282-32.201,32.668-32.201c12.6,0,20.346,6.533,25.013,14.001l-9.334,4.759
			c-2.985-5.133-8.959-9.054-15.679-9.054c-12.319,0-21.468,9.428-21.468,22.495c0,13.066,9.149,22.494,21.468,22.494
			c6.721,0,12.694-3.828,15.679-9.054l9.334,4.761c-4.758,7.466-12.413,14.001-25.013,14.001
			C429.765,136.491,415.483,123.423,415.483,104.29z"/>
		<path class="st2" d="M527.857,135.37l-4.573-11.947h-28.561l-4.573,11.947h-12.413l24.453-62.254h13.625l24.457,62.254H527.857z
			 M509.005,84.129l-11.2,29.681h22.4L509.005,84.129z"/>
		<path class="st2" d="M584.975,135.37l-13.813-23.241h-10.825v23.241h-10.922V73.116h27.348c12.319,0,20.346,8.026,20.346,19.507
			c0,11.106-7.28,17.08-14.748,18.294l15.214,24.453H584.975z M585.91,92.623c0-5.973-4.479-9.893-10.64-9.893h-14.932v19.787
			h14.932C581.43,102.516,585.91,98.597,585.91,92.623z"/>
		<path class="st2" d="M625.2,135.37V82.73h-18.853v-9.614h48.627v9.614h-18.855v52.641H625.2z"/>
		<path class="st2" d="M709.854,135.37v-27.16h-32.387v27.16h-10.922V73.116h10.922v25.48h32.387v-25.48h10.919v62.254H709.854z"/>
		<path class="st2" d="M753.997,135.37v-25.854l-24.172-36.4h12.506l17.173,26.693l16.989-26.693H789l-24.081,36.4v25.854H753.997z"
			/>
	</g>
	<g>
		<path class="st3" d="M289.192,183.388v-22.1h4.495v21.99c0,6.608,3.573,10.778,10.237,10.778c6.661,0,10.237-4.17,10.237-10.778
			v-21.99h4.495v22.043c0,8.993-4.929,14.735-14.732,14.735C294.118,198.067,289.192,192.272,289.192,183.388z"/>
		<path class="st3" d="M358.092,197.417L337.023,168.6v28.817h-4.495v-36.128h4.601l20.799,28.22v-28.22h4.498v36.128H358.092z"/>
		<path class="st3" d="M376.3,197.417v-36.128h4.495v36.128H376.3z"/>
		<path class="st3" d="M394.661,197.417v-36.128h23.669v4.007h-19.174v11.647h18.796v4.007h-18.796v16.467H394.661z"/>
		<path class="st3" d="M428.41,179.378c0-10.668,7.202-18.686,17.927-18.686c10.672,0,17.93,8.018,17.93,18.686
			c0,10.672-7.258,18.689-17.93,18.689C435.612,198.067,428.41,190.049,428.41,179.378z M459.609,179.378
			c0-8.449-5.201-14.676-13.272-14.676c-8.124,0-13.269,6.227-13.269,14.676c0,8.396,5.145,14.679,13.269,14.679
			C454.408,194.056,459.609,187.773,459.609,179.378z"/>
		<path class="st3" d="M497.635,197.417l-9.209-14.354h-7.202v14.354h-4.495v-36.128h14.516c6.608,0,11.319,4.223,11.319,10.887
			c0,6.499-4.442,10.075-9.371,10.506l9.749,14.735H497.635z M497.907,172.176c0-4.064-2.926-6.88-7.205-6.88h-9.478v13.813h9.478
			C494.981,179.109,497.907,176.236,497.907,172.176z"/>
		<path class="st3" d="M545.957,197.417v-29.736l-12.297,29.736h-1.841l-12.241-29.736v29.736h-4.495v-36.128h6.445l11.212,27.192
			l11.266-27.192h6.445v36.128H545.957z"/>
		<path class="st3" d="M562.156,192.325l2.657-3.413c2.382,2.654,6.283,5.145,11.372,5.145c6.449,0,8.505-3.467,8.505-6.227
			c0-9.318-21.396-4.173-21.396-17.064c0-5.958,5.311-10.018,12.406-10.018c5.523,0,9.803,1.841,12.835,5.036l-2.707,3.304
			c-2.71-2.979-6.502-4.332-10.453-4.332c-4.336,0-7.421,2.329-7.421,5.742c0,8.124,21.393,3.467,21.393,16.951
			c0,5.255-3.573,10.618-13.325,10.618C569.739,198.067,565.138,195.682,562.156,192.325z"/>
	</g>
</g>
</svg>
