<?xml version="1.0" encoding="UTF-8"?>
<svg width="25px" height="19px" viewBox="0 0 25 19" version="1.1" xmlns="http://www.w3.org/2000/svg" xmlns:xlink="http://www.w3.org/1999/xlink">
    <title>BitPay - Hamburger</title>
    <g id="Symbols" stroke="none" stroke-width="1" fill="none" fill-rule="evenodd">
        <g id="Components/Navigation/Mobile-(White)" transform="translate(-318.000000, -38.000000)" fill="#4F6EF7">
            <g id="menu-4" transform="translate(318.000000, 38.000000)">
                <path d="M0.568181818,7.95454545 L24.4318182,7.95454545 C24.7454545,7.95454545 25,8.20909091 25,8.52272727 L25,9.65909091 C25,9.97272727 24.7454545,10.2272727 24.4318182,10.2272727 L0.568181818,10.2272727 C0.254545455,10.2272727 0,9.97272727 0,9.65909091 L0,8.52272727 C0,8.20909091 0.254545455,7.95454545 0.568181818,7.95454545 Z" id="Path"></path>
                <path d="M0.568181818,0 L24.4318182,0 C24.7454545,0 25,0.254545455 25,0.568181818 L25,1.70454545 C25,2.01818182 24.7454545,2.27272727 24.4318182,2.27272727 L0.568181818,2.27272727 C0.254545455,2.27272727 0,2.01818182 0,1.70454545 L0,0.568181818 C0,0.254545455 0.254545455,0 0.568181818,0 Z" id="Path" opacity="0.5"></path>
                <path d="M0.568181818,15.9090909 L11.9318182,15.9090909 C12.2454545,15.9090909 12.5,16.1636364 12.5,16.4772727 L12.5,17.6136364 C12.5,17.9272727 12.2454545,18.1818182 11.9318182,18.1818182 L0.568181818,18.1818182 C0.254545455,18.1818182 0,17.9272727 0,17.6136364 L0,16.4772727 C0,16.1636364 0.254545455,15.9090909 0.568181818,15.9090909 Z" id="Path" opacity="0.5"></path>
            </g>
        </g>
    </g>
</svg>
