<?xml version="1.0" encoding="UTF-8" standalone="no"?>
<svg
   xmlns:dc="http://purl.org/dc/elements/1.1/"
   xmlns:cc="http://creativecommons.org/ns#"
   xmlns:rdf="http://www.w3.org/1999/02/22-rdf-syntax-ns#"
   xmlns:svg="http://www.w3.org/2000/svg"
   xmlns="http://www.w3.org/2000/svg"
   xmlns:sodipodi="http://sodipodi.sourceforge.net/DTD/sodipodi-0.dtd"
   xmlns:inkscape="http://www.inkscape.org/namespaces/inkscape"
   inkscape:version="1.0 (4035a4f, 2020-05-01)"
   sodipodi:docname="inverdiamond.html"
   id="svg58"
   version="1.1"
   viewBox="0 0 1122.19 244.61">
  <metadata
     id="metadata62">
    <rdf:RDF>
      <cc:Work
         rdf:about="">
        <dc:format>image/svg+xml</dc:format>
        <dc:type
           rdf:resource="http://purl.org/dc/dcmitype/StillImage" />
        <dc:title></dc:title>
      </cc:Work>
    </rdf:RDF>
  </metadata>
  <sodipodi:namedview
     inkscape:current-layer="svg58"
     inkscape:window-maximized="0"
     inkscape:window-y="23"
     inkscape:window-x="0"
     inkscape:cy="122.305"
     inkscape:cx="561.095"
     inkscape:zoom="0.97755282"
     showgrid="false"
     id="namedview60"
     inkscape:window-height="698"
     inkscape:window-width="1471"
     inkscape:pageshadow="2"
     inkscape:pageopacity="0"
     guidetolerance="10"
     gridtolerance="10"
     objecttolerance="10"
     borderopacity="1"
     bordercolor="#666666"
     pagecolor="#ffffff" />
  <defs
     id="defs12">
    <style
       id="style10">.cls-1{fill:#00899f;}.cls-2{fill:#00acc7;}.cls-3{fill:#00b4d1;}.cls-4{fill:#0097af;}.cls-5{fill:#00bfdc;}.cls-6{fill:#73cee5;}.cls-7{fill:#8a8c8e;}</style>
  </defs>
  <g
     transform="matrix(1.4557442,0,0,1.4557442,-11.913192,-305.31857)"
     id="layer1"
     inkscape:label="Layer 1">
    <path
       d="m 14.28089,279.98927 c 4.59707,-17.64608 30.67334,-46.23169 30.67334,-46.23169 v 82.86083 c 0,0 -37.37814,-10.90904 -30.67334,-36.62914"
       style="fill:#f89b1b;fill-opacity:1;fill-rule:evenodd;stroke:none;stroke-width:0.0435347"
       id="path14" />
    <path
       d="M 75.49048,279.98927 C 70.89339,262.34319 44.81714,233.75758 44.81714,233.75758 v 82.86083 c 0,0 37.37812,-10.90904 30.67334,-36.62914"
       style="fill:#f4711f;fill-opacity:1;fill-rule:evenodd;stroke:none;stroke-width:0.0435347"
       id="path16" />
    <path
       d="m 23.06421,290.47589 c 3.27799,-12.58567 21.85562,-32.97537 21.85562,-32.97537 v 59.09611 c 0,0 -26.62984,-7.77785 -21.85562,-26.12074"
       style="fill:#fbc934;fill-opacity:1;fill-rule:evenodd;stroke:none;stroke-width:0.0435347"
       id="path18" />
    <path
       d="M 66.67276,290.47589 C 63.39479,277.89022 44.82279,257.50052 44.82279,257.50052 v 59.09611 c 0,0 26.62461,-7.77785 21.84997,-26.12074"
       style="fill:#c2c3c1;fill-opacity:1;fill-rule:evenodd;stroke:none;stroke-width:0.0435347"
       id="path20" />
    <path
       d="m 25.19456,292.99305 c 2.9694,-11.37067 19.7997,-29.79194 19.7997,-29.79194 v 53.39552 c 0,0 -24.12871,-7.02881 -19.7997,-23.60358"
       style="fill:#3f4143;fill-opacity:1;fill-rule:evenodd;stroke:none;stroke-width:0.0435347"
       id="path22" />
    <path
       d="M 64.71388,292.99305 C 61.74447,281.62238 44.90852,263.20111 44.90852,263.20111 v 53.39552 c 0,0 24.13438,-7.02881 19.80536,-23.60358"
       style="fill:#8a8d8d;fill-opacity:1;fill-rule:evenodd;stroke:none;stroke-width:0.0435347"
       id="path24" />
    <path
       d="m 392.96691,350.45039 c 0,-1.57735 1.2796,-2.85726 2.8552,-2.85726 1.57534,0 2.8548,1.27991 2.8548,2.85726 0,1.57736 -1.27946,2.85725 -2.8548,2.85725 -1.5756,0 -2.8552,-1.27989 -2.8552,-2.85725"
       style="fill:#3f4143;fill-opacity:1;fill-rule:evenodd;stroke:none;stroke-width:0.0435347"
       id="path26" />
    <g
       id="g28"
       transform="matrix(0.43520632,0,0,-0.43549079,-62.68539,754.58277)">
      <text
         transform="matrix(1,0,0,-1,373.803,1005.08)"
         style="font-variant:normal;font-weight:500;font-size:265.072px;font-family:Raleway;-inkscape-font-specification:Raleway-Medium;writing-mode:lr-tb;fill:#f89c1b;fill-opacity:1;fill-rule:nonzero;stroke:none"
         id="text32"><tspan
           x="0 212.056 252.3463 387.27029"
           y="0"
           id="tspan30">Mint</tspan></text>
    </g>
    <path
       d="m 332.14558,225.75762 h 9.70853 v 15.99993 h -9.70853 v -15.99993"
       style="fill:#c2c3c1;fill-opacity:1;fill-rule:evenodd;stroke:none;stroke-width:0.0435347"
       id="path34" />
    <path
       d="m 346.42291,225.75762 h 9.70867 v 15.99993 h -9.70867 v -15.99993"
       style="fill:#c2c3c1;fill-opacity:1;fill-rule:evenodd;stroke:none;stroke-width:0.0435347"
       id="path36" />
    <path
       d="m 332.14558,310.33429 h 9.70853 v 16.00036 h -9.70853 v -16.00036"
       style="fill:#c2c3c1;fill-opacity:1;fill-rule:evenodd;stroke:none;stroke-width:0.0435347"
       id="path38" />
    <path
       d="m 346.42291,310.33429 h 9.70867 v 16.00036 h -9.70867 v -16.00036"
       style="fill:#c2c3c1;fill-opacity:1;fill-rule:evenodd;stroke:none;stroke-width:0.0435347"
       id="path40" />
    <g
       id="g42"
       transform="matrix(0.43520632,0,0,-0.43549079,-62.68539,754.58277)">
      <text
         transform="matrix(1,0,0,-1,851.458,1005.08)"
         style="font-variant:normal;font-weight:bold;font-size:265.072px;font-family:Raleway;-inkscape-font-specification:Raleway-Bold;writing-mode:lr-tb;fill:#c2c3c1;fill-opacity:1;fill-rule:nonzero;stroke:none"
         id="text46"><tspan
           x="0 166.20102 317.82004 371.62717 441.33801 600.11206 745.89911"
           y="0"
           id="tspan44">Builder</tspan></text>
    </g>
    <g
       id="g48"
       transform="matrix(0.43520632,0,0,-0.43549079,-62.68539,754.58277)">
      <text
         transform="matrix(1,0,0,-1,395.284,913.42)"
         style="font-variant:normal;font-weight:normal;font-size:45.9283px;font-family:Quicksand;-inkscape-font-specification:QuicksandBook-Regular;writing-mode:lr-tb;fill:#3f4143;fill-opacity:1;fill-rule:nonzero;stroke:none"
         id="text52"><tspan
           x="0 35.319138 78.44632 100.49149 134.38629 175.44592 197.26112 230.28334 275.29263 319.56772 356.31018 378.1254 435.85764 471.12994 508.83661 538.13916 575.93799 705.49597 748.02606 794.87274 828.76685 862.66187 897.93335 941.38202 979.18036 1000.9963 1036.8195 1058.8649 1099.3287 1134.6008 1156.4161 1203.217 1225.262 1268.2512 1306.05 1327.8649 1370.3948 1415.1754 1437.2208 1480.6687"
           y="0"
           id="tspan50">BUILD YOUR WEALTHCOLLECT FINE MINT COINS</tspan></text>
    </g>
    <g
       id="g54"
       transform="matrix(0.43520632,0,0,-0.43549079,-62.68539,754.58277)">
      <text
         transform="matrix(1,0,0,-1,1689.32,1005.04)"
         style="font-variant:normal;font-weight:bold;font-size:98.4177px;font-family:Raleway;-inkscape-font-specification:Raleway-Bold;writing-mode:lr-tb;fill:#3e4042;fill-opacity:1;fill-rule:nonzero;stroke:none"
         id="text58"><tspan
           x="0 18.600639 70.073265 126.17085"
           y="0"
           id="tspan56">.com</tspan></text>
    </g>
  </g>
</svg>
