<svg xmlns="http://www.w3.org/2000/svg" viewBox="0 0 346.98 58.27"><defs><style>.cls-1{fill:#c9006c;}.cls-2{fill:#003767;}</style></defs><g id="Layer_2" data-name="Layer 2"><g id="Layer_1-2" data-name="Layer 1"><path class="cls-1" d="M0,55.34c.46-.5,1.09-.43,1.67-.49,3-.32,4.1-1.27,4.6-4.23a128.9,128.9,0,0,0,1.26-15.2c.34-7.23,1-14.44,1.08-21.67,0-.52,0-1,0-1.56C8.42,9.07,7.18,7.67,4.09,7.12a17.78,17.78,0,0,0-1.78-.27c-.94-.07-1.1-.68-1-1.41s.44-1.12,1.36-1.07c4.83.27,9.67.25,14.5,0,.42,0,.85-.23.93.51.55,5.42,3.13,10.13,5.45,14.91,3.65,7.51,7,15.16,11,22.48.1.17.2.34.36.63a36.05,36.05,0,0,0,2.17-4.1q6.39-13,12.77-26a44.76,44.76,0,0,0,3-7.66c.15-.55.31-.82,1-.79a117.46,117.46,0,0,0,13.66,0,1.09,1.09,0,0,1,1.3,1.06,1.07,1.07,0,0,1-1,1.38l-2.26.31c-3,.46-4.13,1.68-4.17,4.68q-.07,6,0,12.06c.06,5.37.13,10.74.32,16.11a101.26,101.26,0,0,0,.64,11.42c.33,2.21,1,2.85,3.2,3.22.67.12,1.34.22,2,.32a1.08,1.08,0,0,1,1,1.33,1.15,1.15,0,0,1-1.37,1.14,191.52,191.52,0,0,0-19.17,0,1.06,1.06,0,0,1-1.29-1c-.1-.79.14-1.31,1-1.45s1.89-.32,2.82-.54a2.33,2.33,0,0,0,2-2.12,15.35,15.35,0,0,0,.2-1.66c0-11.54,0-23.08-.16-34.7-.36.71-.73,1.41-1.06,2.12-5.5,11.64-11.51,23-16.63,34.86-.62,1.43-1.24,2.85-1.8,4.29a1.15,1.15,0,0,1-1.29.8c-.6,0-1.05-.12-1.29-.79-3.69-10.48-8.81-20.33-13.37-30.43-1.62-3.59-3.17-7.2-5-10.82,0,1.09,0,2.19,0,3.29-.34,10.33-.8,20.66-.62,31,.05,3,.82,3.89,3.75,4.4a13.58,13.58,0,0,0,1.53.26c1.11.06,1.29.74,1.21,1.64s-.77.85-1.49.82a145.79,145.79,0,0,0-15.22.06,1.22,1.22,0,0,1-1.3-.6Z"/><path class="cls-2" d="M229.65.16c.93.25,1.89.44,2.8.77,2,.74,3.73,1.85,4.29,4.11a4,4,0,0,1-4.25,4.84,3,3,0,0,1-2.13-1.37A19.11,19.11,0,0,0,227.1,4.7c-2.3-1.91-4.15-1.53-5.45,1.15a23.27,23.27,0,0,0-1.81,7.61,101.12,101.12,0,0,0-.32,10.73c0,1.1.41,1.57,1.57,1.55,2.6-.06,5.2,0,7.79,0,.91,0,1.21.39,1.25,1.2.1,1.84-.62,2.64-2.43,2.64-2.24,0-4.48,0-6.72,0-1,0-1.46.36-1.46,1.38,0,6.65,0,13.3.06,19.94,0,2.88.68,3.51,3.54,3.89a11.45,11.45,0,0,0,1.55.14c1,0,1.5.33,1.43,1.41s-.71,1.08-1.57,1c-5.75-.22-11.5-.31-17.25,0-.81,0-1.34-.09-1.39-1s.11-1.44,1.11-1.46c.23,0,.47,0,.71-.07,2.4-.34,3.12-1.06,3.21-3.48.27-6.76.07-13.53.12-20.29,0-1.06-.38-1.65-1.57-1.52-.71.07-1.44,0-2.16,0a1,1,0,0,1-1.13-.8,1.06,1.06,0,0,1,.62-1.28c.93-.48,1.84-1,2.78-1.4a2.35,2.35,0,0,0,1.48-2.46,34.42,34.42,0,0,1,1.71-12.33c2.13-6,6.11-9.85,12.56-10.91.09,0,.21-.07.39-.1a1.44,1.44,0,0,1,.57-.11,8.69,8.69,0,0,1,3,0C229.41.11,229.57.16,229.65.16Z"/><path class="cls-2" d="M141.34,43v7.88c.13,3,.73,3.64,3.74,4,.77.08,1.43.2,1.42,1.19s-.25,1.38-1.33,1.31a139.43,139.43,0,0,0-15.57,0c-.86,0-1.33-.16-1.4-1s.17-1.34,1.13-1.47c2.64-.35,3.27-1,3.37-3.69.2-5.33.24-10.66,0-16a5.54,5.54,0,0,0-4.38-5.56,6.88,6.88,0,0,0-7.46,2.79,4.91,4.91,0,0,0-.73,2.72c0,5.38,0,10.75.09,16.12.05,2.63.69,3.26,3.31,3.6a1.15,1.15,0,0,1,1.16,1.43c-.05.83-.45,1.1-1.34,1.05a142.19,142.19,0,0,0-15.45,0c-.78,0-1.34,0-1.39-1s.17-1.47,1.2-1.5a11.44,11.44,0,0,0,1.54-.23,2.42,2.42,0,0,0,2.11-2.12,16,16,0,0,0,.26-3.45c0-5.09,0-10.19,0-15.28a3.73,3.73,0,0,0-2.19-3.66,1.42,1.42,0,0,1-.91-1.6c.07-.82.71-.85,1.26-1a55.67,55.67,0,0,0,8.7-3.63c1.26-.65,1.79-.31,1.73,1.07,0,.92-.08,1.83-.07,2.74s.38,1.07,1.14.63c1.35-.77,2.69-1.56,4.08-2.26A13.7,13.7,0,0,1,134,24.81c3.95.64,6.64,3.79,7.13,8.18.07.64.18,1.27.19,1.9,0,2.71,0,5.41,0,8.12Z"/><path class="cls-2" d="M151.86,40.69c0-3.1,0-6.21,0-9.31,0-1.95-.15-2.08-2.11-2.08-.52,0-1,0-1.56,0a1.08,1.08,0,0,1-1.26-1,1.14,1.14,0,0,1,.81-1.41,25.62,25.62,0,0,0,4.69-2.33,15.43,15.43,0,0,0,5.39-5.32,1.33,1.33,0,0,1,1.61-.67c.78.15.94.69.92,1.42,0,1.31,0,2.62,0,3.94,0,1.1.35,1.57,1.53,1.54,2.35-.07,4.72,0,7.07,0,1.16,0,1.47.49,1.49,1.48,0,1.47-.52,2.34-1.57,2.35-2.35,0-4.71,0-7.07,0-.95,0-1.47.31-1.46,1.27.06,5.72-.25,11.45.18,17.17a9.55,9.55,0,0,0,.25,1.4c1,4.22,4.74,5.81,8.44,3.56.54-.33,1-.7,1.55,0a1.19,1.19,0,0,1-.12,1.71,12.3,12.3,0,0,1-8.15,3.81,13.62,13.62,0,0,1-5.81-.5c-2.92-1-4.61-3.55-4.73-7.43-.1-3.18,0-6.37,0-9.55Z"/><path class="cls-2" d="M300.55,57.35c-2.91,0-5.83,0-8.74,0-.78,0-1.13-.29-1.19-1s0-1.3.85-1.47h.11c2.68-.28,3.77-.55,3.81-4.58.05-5.46,0-10.91.05-16.36a3.82,3.82,0,0,0-2.25-3.87,1.33,1.33,0,0,1-.87-1.51c.08-.68.53-.88,1.1-1.07a55.68,55.68,0,0,0,8.68-3.68c1.12-.61,1.71-.23,1.69,1.07,0,.83-.09,1.66-.1,2.5,0,.43-.06.9.37,1.19s.79-.18,1.12-.4c1.23-.81,2.41-1.7,3.65-2.5a6.41,6.41,0,0,1,4-1.05,4,4,0,0,1,3.9,4,4.39,4.39,0,0,1-3.94,4.49,4.44,4.44,0,0,1-3-.72,7.8,7.8,0,0,0-2.93-1.29,1.92,1.92,0,0,0-2.52,1.39,9.2,9.2,0,0,0-.42,3.29c0,5,0,10,.07,14.93a7.65,7.65,0,0,0,.18,1.65,2.37,2.37,0,0,0,2.41,2.22c.91.12,1.83.23,2.74.28s1.22.55,1.18,1.4-.53,1.09-1.34,1.08c-2.88,0-5.75,0-8.63,0Z"/><path class="cls-2" d="M246.48,37.53c.1,4.57-.18,9.15.17,13.72.19,2.59.76,3.24,3.38,3.58,1,.13,1.41.58,1.32,1.54a1,1,0,0,1-1.18,1,136.53,136.53,0,0,0-15.8,0c-.6,0-1.05-.12-1.1-.78s-.21-1.41.73-1.64l.35-.07c3-.54,3.59-1,3.64-4.12.09-5.73,0-11.46,0-17.19a3.54,3.54,0,0,0-2.17-3.42,1.42,1.42,0,0,1-.93-1.6c.07-.83.7-.87,1.25-1A48.25,48.25,0,0,0,245,23.84c1.12-.6,1.75-.2,1.71,1.05C246.59,29.1,246.42,33.32,246.48,37.53Z"/><path class="cls-2" d="M246.92,12.59a4.64,4.64,0,0,1-4.86,4.77,4.69,4.69,0,0,1-4.94-4.84,4.9,4.9,0,0,1,9.8.07Z"/><path class="cls-2" d="M100.41,30.06C95.86,25.13,90,23.74,83.67,25,68.61,28.11,67,45,73.44,52.5a16.05,16.05,0,0,0,11.68,5.73c10.48.06,18.21-5,19.16-15.08C104.73,38.29,103.81,33.75,100.41,30.06ZM93.59,50.49c-1,2.43-2.48,4.28-5.33,4.48a6.44,6.44,0,0,1-6.18-3.35c-2.3-3.65-2.73-7.74-2.63-11.92A18.63,18.63,0,0,1,81,32.05c1.19-2.5,3-4.27,6-4.17a6.14,6.14,0,0,1,5,3C94,34,94.65,37.49,94.82,41.1c0,.48,0,1,0,1.44A20.14,20.14,0,0,1,93.59,50.49Z"/><path class="cls-2" d="M284.83,30.81c-3.48-4.61-8.48-6.36-14.13-6.15-14.86.56-20.32,15.22-15,25.45,3.08,5.91,8.58,8,15,8.13h.48c6.7-.25,12.3-2.66,15.22-8.94S289.19,36.57,284.83,30.81Zm-7.65,20.26c-2.19,4.74-7.61,5.34-10.81,1.19a14.93,14.93,0,0,1-2.75-7.14,25.5,25.5,0,0,1,.79-12A9.6,9.6,0,0,1,266,30.18a5.72,5.72,0,0,1,8.8-.51c2.22,2.22,3,5.09,3.55,8a26.84,26.84,0,0,1,.39,4.74A21.13,21.13,0,0,1,277.18,51.07Z"/><path class="cls-2" d="M201.74,48.34c-.65-.44-1.05-.13-1.46.44a7.23,7.23,0,0,1-4.56,3c-8.67,1.79-14.85-5-14.66-12.69,0-.73.48-.81,1-.81h8.39c3-.14,6.08.07,9.11-.19,2.24-.19,3-.92,2.88-2.94a10.05,10.05,0,0,0-4.65-8.42c-4.84-3.22-12.29-2.82-17.34,1a17.27,17.27,0,0,0-6.84,12.63c-1,9.92,5.51,18.65,16.7,17.78a13.87,13.87,0,0,0,12-8.15C202.71,49.2,202.36,48.74,201.74,48.34ZM181.74,34a8.05,8.05,0,0,1,9.07-6.13,4.83,4.83,0,0,1,3.91,5,1.93,1.93,0,0,1-1.72,2,34.56,34.56,0,0,1-5.55.22h-4.74C182,35,181.57,34.85,181.74,34Z"/><path class="cls-2" d="M346.27,48.35c-.64-.42-1.06-.18-1.47.42a7.21,7.21,0,0,1-4.9,3.15c-9.16,1.53-14.56-5.81-14.32-12.75,0-.74.43-.84,1-.84,2.8,0,5.59,0,8.39,0,3.07-.15,6.15.08,9.23-.2,2.25-.21,2.85-.9,2.75-3.14a9.75,9.75,0,0,0-5.22-8.56c-4.87-2.71-9.89-2.42-14.68.08-5.77,3-8.4,8.14-9,14.43-.91,10.34,6.4,18,16.72,17.22a13.79,13.79,0,0,0,12-8.11A1.17,1.17,0,0,0,346.27,48.35Zm-20-14.56a8,8,0,0,1,9-5.95,4.86,4.86,0,0,1,4,5,1.94,1.94,0,0,1-1.7,2A33.58,33.58,0,0,1,332,35c-1.78,0-3.26,0-4.74,0C326.33,35.05,326.09,34.71,326.3,33.79Z"/></g></g></svg>