<svg xmlns="http://www.w3.org/2000/svg" viewBox="0 0 1134.15 400.38"><defs><style>.cls-1{fill:#625f5f;}.cls-2{fill:#605d5d;}.cls-3{fill:#010101;}.cls-4{fill:#020202;}.cls-5{fill:#030303;}.cls-6{fill:#040404;}.cls-7{fill:#b43442;}</style></defs><g id="Layer_2" data-name="Layer 2"><g id="Layer_1-2" data-name="Layer 1"><path class="cls-1" d="M1134.15,83.28c-.69-.73-.49-1.62-.44-2.49l.44.06Z"/><path class="cls-2" d="M1133.72,88.7c-.07-.87-.26-1.76.43-2.5v2.43l-.21.08Z"/><path class="cls-3" d="M475.44,152.94v31.73c0,22.78,0,45.56.05,68.35,0,2-.45,2.55-2.49,2.51-7.61-.14-15.23-.1-22.84,0-1.71,0-2.36-.24-2.35-2.19q.09-83.55,0-167.1c0-1.67.41-2.21,2.14-2.19,6.56.1,13.12.09,19.68,0a2.8,2.8,0,0,1,2.92,1.83q16,30.12,32,60.19c4.9,9.2,9.82,18.4,14.87,27.87l9.6-18.05,26.51-49.77c3.55-6.66,7.14-13.3,10.62-20a3.18,3.18,0,0,1,3.3-2.09c6.4.13,12.81.1,19.2,0,1.69,0,2.39.24,2.39,2.2q-.09,83.55,0,167.1c0,1.67-.39,2.2-2.13,2.18-7.77-.1-15.55-.11-23.33,0-1.87,0-2.23-.52-2.23-2.3q.11-49.62.08-99.23a6.38,6.38,0,0,0-.16-.85c-3.3,6.17-6.46,12.06-9.6,17.95q-15.23,28.59-30.4,57.2c-1.2,2.28-3,1.33-4.6,1.53a2.59,2.59,0,0,1-3.06-1.56q-19.61-37.05-39.38-74C476.12,154,476,153.77,475.44,152.94Z"/><path class="cls-3" d="M861.76,187c2.19-5.42,4.37-10.66,6.44-15.95,3.84-9.86,7.59-19.76,11.43-29.62,4.31-11.05,8.69-22.07,13-33.12q4.38-11.18,8.73-22.37c.42-1.08.83-1.92,2.36-1.91,9.48.09,19,0,28.44,0a6.7,6.7,0,0,1,1,.19c-1.93,5-3.78,9.84-5.69,14.69-3.46,8.79-7,17.56-10.43,26.35q-8,20.26-16,40.53-8.42,21.39-16.79,42.81-7.85,19.93-15.73,39.85c-1.09,2.76-2.27,5.49-3.2,8.3-.41,1.24-1,1.72-2.2,1.6a9.88,9.88,0,0,0-2.43,0c-1.45.21-2.14-.43-2.65-1.75q-6.3-16.28-12.71-32.5c-5.25-13.33-10.55-26.64-15.8-40-4.29-10.88-8.53-21.79-12.81-32.68q-5.7-14.53-11.45-29-7.06-17.89-14.12-35.79c-1-2.56-.92-2.6,1.91-2.6,8.59,0,17.18.05,25.76,0,1.86,0,2.65.4,3.37,2.36,3.58,9.62,7.51,19.11,11.25,28.67,4.82,12.31,9.55,24.66,14.38,37C852.42,163.65,857.07,175.23,861.76,187Z"/><path class="cls-3" d="M1012.14,317.3c0-10.21,0-20.42,0-30.63,0-1.49.24-2.24,1.93-2,2.3.29,5.29-1,6.76.53s.37,4.32.39,6.57c0,6.16.07,12.32,0,18.48,0,1.48.35,1.89,1.86,1.88q14.21-.12,28.42,0c1.43,0,1.72-.44,1.71-1.78-.06-7.77,0-15.55-.07-23.33,0-1.76.35-2.55,2.25-2.34,2.22.25,5.21-.93,6.48.46,1.11,1.21.38,4.15.38,6.32,0,18.88,0,37.76,0,56.64,0,1.71-.24,2.58-2.19,2.3-2.21-.31-5.09,1-6.53-.53s-.36-4.17-.37-6.34c-.05-7.29-.06-14.59,0-21.88,0-1.5-.26-2.09-2-2.08q-14.1.15-28.18,0c-1.59,0-1.85.53-1.84,1.95.06,8.76,0,17.51.07,26.26,0,1.91-.34,2.88-2.48,2.61s-5,.9-6.27-.47c-1.06-1.18-.35-4-.36-6.1Q1012.13,330.54,1012.14,317.3Z"/><path class="cls-3" d="M593,331.51c0,4.71,0,9.41,0,14.11,0,1-.07,1.67-1.34,2.09-11.22,3.62-22.61,4.8-33.91,1-10.36-3.46-16.66-10.87-19.18-21.69-2.05-8.78-1.42-17.14,2.59-25.14,4.55-9.09,12.16-14.25,21.94-16.64a47.41,47.41,0,0,1,24.35.53c3.53,1,3.51,1,2.62,4.45-1.05,4-1.1,3.81-5,2.72-8.41-2.34-16.82-2.48-24.91,1.33-8.6,4.06-12.42,11.45-13.17,20.48-.64,7.76.91,15.11,6.29,21.19,3.56,4,8.19,6.14,13.31,7.15a33.82,33.82,0,0,0,16-.66c1.14-.33,1.57-.73,1.56-1.94q-.09-8.14,0-16.29c0-1.17-.35-1.54-1.52-1.52-3.48.07-7,0-10.44.06-1.5.05-1.91-.4-1.92-1.91,0-5.34-.09-5.34,5.27-5.34,5.19,0,10.37.06,15.55,0,1.54,0,1.92.46,1.89,1.93C593,322.11,593,326.81,593,331.51Z"/><path class="cls-3" d="M971.66,351.47c-5.16-.56-10.69-1.05-15.72-3.75-.67-.36-1.43-.54-1.13-1.51.58-1.93,1.19-3.84,1.82-5.75.35-1.06,1-.48,1.51-.19a29.47,29.47,0,0,0,17.53,3.4c4-.43,7.48-2,9.53-5.73,3-5.38.9-11.53-4.76-14.79-3.92-2.26-8.33-3.31-12.33-5.34-4.29-2.17-8.2-4.72-10.44-9.28a16.45,16.45,0,0,1,7.13-21.76c7.3-3.95,15-3.87,22.76-1.9,6,1.51,5.89,1.73,3.54,7.42-.51,1.23-.84,1.6-2.35,1-5.59-2.36-11.36-3.48-17.34-1.28a9.08,9.08,0,0,0-6.32,7.52,8.8,8.8,0,0,0,3.38,8.33c3.61,2.95,8,4.23,12.24,6,5.09,2.19,9.92,4.78,12.8,9.83,5.16,9,.67,21.53-9,25.29A40.81,40.81,0,0,1,971.66,351.47Z"/><path class="cls-3" d="M861.36,343.75a30.72,30.72,0,0,0,12.39-2.22c1-.37,1.16-.1,1.51.72,2.16,5,1.87,6.25-2.94,7.43-10.06,2.47-20.09,2.7-29.73-1.88-9.88-4.69-14.93-12.87-16.58-23.4a37.78,37.78,0,0,1,2.9-22.19,30.41,30.41,0,0,1,19.52-16.78,45.29,45.29,0,0,1,25.49-.09c2.87.77,3.11,1.11,2.24,4-1.26,4.2-1.19,3.93-5,3-9.27-2.25-18.36-2.31-26.54,3.61-6.34,4.58-8.91,11.22-9.42,18.71-.45,6.49.23,12.83,3.81,18.58C843.09,339.76,851.09,344.11,861.36,343.75Z"/><path class="cls-4" d="M651.94,320.8c0-8.67-.07-17.34,0-26,0-2.09-.34-2.9-2.68-2.81-5.33.2-10.68,0-16,.1-1.49,0-1.9-.42-1.91-1.91,0-5.52-.1-5.51,5.31-5.52,14.17,0,28.34,0,42.51,0,1.83,0,2.48.36,2.42,2.35-.13,5.08,0,5.08-5,5.08-4.53,0-9.07.09-13.6,0-1.68-.05-2.12.37-2.11,2.1.07,17.82,0,35.65.1,53.47,0,2.22-.52,3.08-2.79,2.78-2-.26-4.57.83-5.86-.4s-.39-3.83-.4-5.82C651.91,336.36,651.94,328.58,651.94,320.8Z"/><path class="cls-4" d="M751.7,317.66c0-10.29,0-20.58,0-30.87,0-1.71.49-2.28,2.18-2.15,2.25.17,5.17-.7,6.58.42s.47,4.24.47,6.47c.05,16.36.08,32.73,0,49.09,0,2,.6,2.17,2.27,2.16,8.09-.08,16.19,0,24.29-.08,1.69,0,2.15.39,2.13,2.11-.07,5.53,0,5.53-5.51,5.53-10,0-19.92-.07-29.87.05-2.09,0-2.52-.64-2.51-2.6C751.75,337.75,751.7,327.7,751.7,317.66Z"/><path class="cls-5" d="M512.89,317.66c0-10.28.06-20.56,0-30.84,0-1.9.54-2.36,2.29-2.18,2.16.22,5-.88,6.34.41s.47,4.29.47,6.52c0,18.78,0,37.56.07,56.34,0,1.88-.41,2.68-2.4,2.45-2.15-.23-5,.88-6.31-.41s-.38-4.14-.39-6.3C512.87,335,512.89,326.33,512.89,317.66Z"/><path class="cls-5" d="M610.6,317.65c0-10.3,0-20.59,0-30.89,0-1.67.35-2.29,2.1-2.13a49.62,49.62,0,0,0,5.59,0c1,0,1.51.37,1.42,1.42,0,.41,0,.81,0,1.22,0,20.19,0,40.37,0,60.56,0,2.08-.6,2.72-2.59,2.51s-4.78.85-6.09-.38-.4-4-.41-6.06C610.57,335.16,610.6,326.41,610.6,317.65Z"/><path class="cls-5" d="M1134.15,83.28c-.59-.75.06-1.72-.44-2.49a29.64,29.64,0,0,0-1.34-4.09,18.32,18.32,0,0,0-24-8.69,18.35,18.35,0,1,0,25.35,20.69c.48-.77-.15-1.74.43-2.5Zm-18.29,16.61A15.13,15.13,0,1,1,1131,84.69,15.23,15.23,0,0,1,1115.86,99.89Z"/><path class="cls-3" d="M763.78,151.57c-1.68-14.43-5.28-28.27-12.53-40.91C740.38,91.73,724.81,80.42,702,81.32a47.12,47.12,0,0,0-28.5,10.84c-11.06,9-17.6,20.93-22.12,34.14-4.83,14.11-6.49,28.72-6.75,43.54,0,4.94.47,9.84.87,14.76a116.9,116.9,0,0,0,8.39,35.5c3.82,9.24,9,17.64,16.31,24.53A48.3,48.3,0,0,0,699,258a49.5,49.5,0,0,0,29.39-5.48c9.32-5,16.3-12.47,21.73-21.48,9.49-15.74,13.21-33.13,14.57-51.18A148.18,148.18,0,0,0,763.78,151.57Zm-30.27,33.65c-.94,9.84-3.08,19.5-7.65,28.42-3.11,6.05-6.94,11.49-13.48,14.27-9.21,3.9-17.85.43-23.34-6.18-5.81-7-8.77-15.31-10.77-24a115.18,115.18,0,0,1-2.82-28.08c-.11-12.7,1.37-25.38,5.68-37.58a42.84,42.84,0,0,1,8.09-14.42c9.74-11,24-10.07,32.89,2.17,5.09,7.06,7.72,15.08,9.58,23.44C734.76,157.16,734.85,171.19,733.51,185.22Z"/><path class="cls-3" d="M1077.33,149.25c-1.89-14-5.65-27.39-12.82-39.62-7.92-13.49-18.74-23.55-34.46-27.12A49.17,49.17,0,0,0,999.25,85c-13.85,5.89-22.85,16.68-29.32,29.84-7.43,15.13-10.45,31.34-11.18,48a147.83,147.83,0,0,0,2,33.35c2.23,12.14,5.86,23.87,12.32,34.52,7.63,12.56,17.7,22.16,32.34,25.92s28.5,1.76,41.11-6.76c12.76-8.64,20.16-21.27,25.18-35.43,5.08-14.34,7.1-29.23,7-45.87A144.09,144.09,0,0,0,1077.33,149.25Zm-29.26,25c-.45,13.84-2.27,27.47-8.7,40-3.14,6.13-7.22,11.54-14,14-7.25,2.63-13.94,1.37-19.77-3.79-5.47-4.84-8.65-11.14-11-17.89-4.13-11.94-5.4-24.33-5.44-36.89a116.68,116.68,0,0,1,4-32.06c2-7.3,4.86-14.28,10-20.08,9.27-10.46,23.19-10,31.83,1.07,5,6.44,7.82,13.87,9.78,21.73A122.16,122.16,0,0,1,1048.07,174.24Z"/><path class="cls-3" d="M492.9,298.2c-6-9.31-15.16-12.74-25.53-13.8a96,96,0,0,0-22.71.78c-2.38.32-2.81.92-2.79,3.12.12,9.81.05,19.62.05,29.43q0,15.19,0,30.4c0,1.18-.15,2.18,1.61,2.25,10.07.37,20.17,1.31,30.07-1.45,7.92-2.21,14.52-6.25,18.91-13.57,3.62-6,5-12.6,5-19.41C497.6,309.7,496.38,303.61,492.9,298.2Zm-7.42,31.37c-3.5,8.19-10.4,12.12-18.91,13.65-4.58.82-9.19.33-13.79.47-1.72.05-1.94-.82-1.93-2.27,0-7.94,0-15.89,0-23.83s0-15.73,0-23.59c0-.9-.36-1.9,1.17-2.14,8.78-1.37,17.42-1.31,25.4,3.14,5.58,3.11,8.6,8.13,9.89,14.43A33.31,33.31,0,0,1,485.48,329.57Z"/><path class="cls-3" d="M737.07,348.75c-2.23-6-4.22-12.08-6.34-18.12-4.78-13.63-9.61-27.25-14.37-40.88-1.77-5.06-1.7-5.08-7-5.08a29.43,29.43,0,0,1-3.64,0c-1.54-.2-2.17.55-2.61,1.86q-2.72,8.07-5.52,16.1-5.3,15.09-10.62,30.16c-1.86,5.3-3.66,10.62-5.57,15.9-.48,1.32-.23,1.75,1.18,1.69a51.92,51.92,0,0,1,5.58,0c1.55.1,2.23-.42,2.7-1.95,1.69-5.44,3.52-10.83,5.43-16.19.36-1,.38-2.5,2.36-2.46,6.88.13,13.76.08,20.65,0a1.9,1.9,0,0,1,2.1,1.45c1.48,4.32,3.09,8.6,4.45,13,1.9,6.12,1.83,6.15,8.12,6.15.65,0,1.29,0,1.94,0C737.07,350.38,737.66,350.35,737.07,348.75ZM699.15,322.7c3.21-10,7.26-19.53,9.75-29.62,2.61,10.17,6.67,19.74,9.91,29.62Z"/><path class="cls-3" d="M943.5,348.29c-1.19-2.88-2.24-5.83-3.27-8.78q-9.11-26.08-18.16-52.21c-.65-1.85-1.5-2.95-3.74-2.69a35.93,35.93,0,0,1-6.31,0,2,2,0,0,0-2.28,1.58c-1.61,4.7-3.28,9.37-4.91,14.05-3.35,9.61-6.67,19.22-10,28.82q-3.46,9.89-7,19.72c-.4,1.13-.23,1.62,1.1,1.56a27.91,27.91,0,0,1,5.09,0c2.23.3,3.06-.76,3.68-2.68,1.76-5.48,3.74-10.89,5.47-16.38.42-1.34,1.06-1.53,2.25-1.52,6.72,0,13.44.08,20.16,0,1.55,0,2.07.6,2.5,1.89q2.44,7.29,5,14.53c1.51,4.17,1.56,4.15,6.15,4.15a28.24,28.24,0,0,1,2.91,0C944,350.55,944.14,349.86,943.5,348.29ZM924,322.78c-6.05,0-12.11,0-18.36,0,3.21-10,7.23-19.45,9.77-29.45,2.54,9.5,6.24,18.47,9.35,27.63C925.05,321.87,925.85,322.79,924,322.78Z"/><path class="cls-6" d="M1123.44,94c-.79-3-.86-6.23-3.59-8.58.4-.33.83-.7,1.27-1a5.8,5.8,0,0,0-2.4-10.29,17.64,17.64,0,0,0-7.2-.17c-1.26.2-1.73.51-1.71,1.88.08,6.16,0,12.31,0,18.46,0,.92-.14,1.73,1.3,1.7,1.23,0,1.71-.3,1.65-1.62-.11-2.1,0-4.21,0-6.32,0-.49-.27-1.09.52-1.39a4.45,4.45,0,0,1,5.9,3c.47,1.7.93,3.4,1.36,5.1.15.58.27,1,1,1.15C1123.31,96.25,1123.9,95.72,1123.44,94ZM1117,83.87c-3.87,1-4.2.75-4.2-3.6,0-.16,0-.32,0-.48.08-1.6-.74-3.66,2.11-3.8,2.42-.11,4.92,1.37,5.22,3.25C1120.47,81.64,1119.41,83.2,1117,83.87Z"/><path class="cls-7" d="M187.42,0c0,3.68.05,7.36.06,11.05,0,4.27.06,8.54,0,12.81,0,1.16.39,1.35,1.39,1.42a166.88,166.88,0,0,1,22.27,3.11,171.24,171.24,0,0,1,25.54,7.33,175.44,175.44,0,0,1,73,51.53,174.79,174.79,0,0,1,30.72,53.1A180.18,180.18,0,0,1,347.13,164c.51,2.36.89,4.75,1.38,7.12.22,1-.25,1.13-1.12,1.13q-15.24-.1-30.49-.14c-.75,0-1.08-.18-1.24-1a136.31,136.31,0,0,0-4.79-17.44,138.78,138.78,0,0,0-6.4-15.45,144.27,144.27,0,0,0-41.12-50.87,142.48,142.48,0,0,0-31.67-18.7,141.49,141.49,0,0,0-44.56-10.94,158.77,158.77,0,0,0-21.81-.16,131.52,131.52,0,0,0-23.8,3.7,142.72,142.72,0,0,0-56.28,28,143.45,143.45,0,0,0-48.08,73.85,140.81,140.81,0,0,0-3.91,20.49,146.72,146.72,0,0,0-.92,22.66A143.1,143.1,0,0,0,40.63,249a143.4,143.4,0,0,0,99.86,90.45A136.74,136.74,0,0,0,160.78,343c2.65.25,5.35.06,8,.06,5.56,0,11.13-.1,16.69,0,6.81.16,13.43-1.18,20-2.52a132.29,132.29,0,0,0,25.79-8.12A144.21,144.21,0,0,0,301,269.54a139.47,139.47,0,0,0,12.9-32.3c.57-2.17,1.07-4.37,1.55-6.56.17-.79.43-1.15,1.36-1.13,3.93,0,7.86,0,11.79-.05,6.23-.05,12.46-.08,18.69-.18,1,0,1.15.29,1,1.2a179.88,179.88,0,0,1-5.89,23.75,175.62,175.62,0,0,1-116.3,114,178.2,178.2,0,0,1-23.22,5.33,127.13,127.13,0,0,1-14.3,1.6c-.86,0-1.1.27-1.1,1.15,0,7.57,0,15.15,0,22.73,0,1.06-.31,1.3-1.33,1.29q-11.93-.06-23.84,0c-1,0-1.23-.31-1.23-1.26,0-7.54,0-15.07,0-22.61,0-1-.18-1.38-1.23-1.48a171.83,171.83,0,0,1-18.07-2.53q-8.58-1.71-17-4.19a168.71,168.71,0,0,1-18.32-6.61,176,176,0,0,1-84-75.33A171.73,171.73,0,0,1,7.63,251.51,176.24,176.24,0,0,1,1.9,225.94,173.11,173.11,0,0,1,.17,192.82a176.7,176.7,0,0,1,10.24-52.2A175.12,175.12,0,0,1,56.29,71.41a175.92,175.92,0,0,1,65.3-38.25,172,172,0,0,1,24.72-6c4.61-.76,9.23-1.39,13.89-1.72.93-.07.94-.53.94-1.22q0-11.35,0-22.73A2.64,2.64,0,0,1,161.31,0Z"/><path class="cls-3" d="M174.5,66.41c-74.29,0-134,60.44-134,134.05s60,134.26,134,134.1a134.08,134.08,0,0,0,0-268.15Zm66.32,53.34q0,80.75,0,161.49c0,1.29-.33,1.57-1.58,1.56q-11.24-.09-22.46,0c-1.15,0-1.36-.31-1.36-1.39q.06-48.29,0-96.57v-.6c-.42.06-.43.39-.55.63Q204.47,205.09,194,225.33q-8.21,15.93-16.37,31.87c-.35.68-.71,1-1.51,1a11,11,0,0,0-2.63,0c-1.32.21-1.89-.45-2.44-1.52q-13.22-25.77-26.51-51.5-5.09-9.89-10.16-19.76a2.37,2.37,0,0,0-.79-.94v1.38q0,47.65,0,95.31c0,1.86.22,1.63-1.57,1.63-7.53,0-15.06,0-22.59,0-1,0-1.27-.2-1.27-1.23q0-81.06,0-162.12c0-1,.25-1.16,1.18-1.16q9.84.06,19.7,0a1.33,1.33,0,0,1,1.41.86q7.84,15.27,15.72,30.52,7.23,14,14.45,28.08l13.89,26.94,5.27-10.2q13.34-25.86,26.67-51.71,6.07-11.81,12.11-23.65a1.28,1.28,0,0,1,1.33-.84q10,0,19.95,0c.75,0,1.12.15,1,.95A2.9,2.9,0,0,0,240.82,119.75Z"/></g></g></svg>