<svg xmlns="http://www.w3.org/2000/svg" viewBox="0 0 480.24 480.24"><defs><style>.cls-1{fill:#fff;}</style></defs><g id="Layer_2" data-name="Layer 2"><g id="Layer_1-2" data-name="Layer 1"><path d="M0,480V.24H479.89V480H1.68C1.12,480,.56,480,0,480ZM359.93,312.07c-.24-.53-.39-.89-.56-1.23q-5.25-10.51-10.51-21-37.64-75.28-75.26-150.59a1.7,1.7,0,0,0-1.82-1.09q-22.72,0-45.46,0h-1.4v95.58c-.34-.64-.52-.95-.68-1.27L208.71,201.4q-20-40.08-40.07-80.17a1.63,1.63,0,0,0-1.71-1.07q-22.73,0-45.46,0h-1.31V312.07ZM155.31,360V336.18c-2.61,0-5.14.16-7.63-.05-2.12-.17-3.49.35-4.1,2.51a13.88,13.88,0,0,1-1.13,2.37l-4.67,9.37c-.27-.49-.47-.82-.64-1.17-2-4-4-8.07-6.09-12.08-.19-.38-.61-.89-.93-.9-3.31-.07-6.61,0-10,0V360h7.73V347.88a3,3,0,0,1,.75,1c1.72,3.43,3.45,6.85,5.13,10.29a1.37,1.37,0,0,0,1.45.92c1.68-.06,3.36-.07,5,0a1.33,1.33,0,0,0,1.43-.94c1-2.16,2.13-4.29,3.2-6.43l2.45-4.87.25.06V360Zm77.33-15.12v-8.63H224.4V360h8.27v-8.55H244.6V360h8.22V336.26h-8.3v8.65Zm67.78,5.43c-2.61,0-5.24,0-7.86,0-.2,0-.52.35-.58.59a3.29,3.29,0,0,1-2.79,2.63,21.74,21.74,0,0,1-5.32.48c-4.86-.34-6.4-2.23-6.11-7a4.14,4.14,0,0,1,3.18-4.16,22,22,0,0,1,5.66-.55c2.55.08,4.82.87,5.47,3.75h8.38c0-.21,0-.37,0-.52-.38-4.44-3-7.17-7-8.5a26.44,26.44,0,0,0-16.27-.12c-4.74,1.44-7.54,4.66-7.94,9.71-.48,6.08,1.52,10.47,6.81,12.36a26.88,26.88,0,0,0,18.09.05A9,9,0,0,0,300.42,350.34Zm17.07-7.48c2.24,4.63,4.68,9.22,6.69,14,1.09,2.59,2.45,3.73,5.28,3.31a35,35,0,0,1,5.13,0,5,5,0,0,0-.15-.53c-3.78-7.57-7.55-15.14-11.37-22.69a1.76,1.76,0,0,0-1.32-.67c-2.79-.06-5.59,0-8.38,0a1.55,1.55,0,0,0-1.64,1Q306.3,348.12,300.82,359c-.16.3-.27.63-.46,1.07a44,44,0,0,1,5.53,0c2.45.31,4-.4,4.64-2.91a7,7,0,0,1,.63-1.29ZM193,336.24v6.39h10V360h8.35V342.54h10v-6.3Zm-35.41,0c.36.5.56.79.78,1.07,3.68,4.62,7.35,9.26,11.08,13.85a3.68,3.68,0,0,1,.93,2.59c-.07,2.1,0,4.21,0,6.29h8.2c0-2.3,0-4.5,0-6.69a3.43,3.43,0,0,1,.61-1.84c2.23-2.87,4.53-5.69,6.8-8.53l5.38-6.76c-2.94,0-5.6,0-8.26,0a1.89,1.89,0,0,0-1.7.83c-1.66,2.1-3.36,4.17-5.05,6.25-.62.76-1.25,1.5-1.94,2.33-2.39-2.94-4.67-5.77-7-8.57-.28-.34-.72-.76-1.09-.77C163.48,336.17,160.65,336.2,157.55,336.2Zm179.77.05V360H360c0-1.78,0-3.49,0-5.19,0-.9-.27-1.16-1.16-1.15-4,0-8,0-12,0-.43,0-.86,0-1.4-.06V336.25Zm-79.61,0V360H266V336.22ZM367.28,341c.5-.37,1-.57,1-.79.08-1.33,0-2.67,0-4-2.44-.23-1.79,2.25-2.94,3-1.17-.76-.44-3.32-2.87-3v4.51c1.79,0,.53-1.62,1.27-2.19a15.24,15.24,0,0,0,.77,1.57c.17.26.51.59.75.58a1.35,1.35,0,0,0,.89-.56,15.12,15.12,0,0,0,.85-1.71l.23.08ZM360,337.35c1.84-.45,1.84-.45,1.72-1.16-1.38,0-2.77,0-4.16,0-.22,0-.44.3-.66.46a2.15,2.15,0,0,0,.65.46,6.84,6.84,0,0,0,1.26.08v3.39c.86.28,1.23.08,1.2-.77S360,338.24,360,337.35Z"/><path class="cls-1" d="M0,480c.56,0,1.12,0,1.68,0H479.89V.24H0C0,.16.08,0,.12,0c.32,0,.64,0,1,0H480.24V480.24H1.08A5.21,5.21,0,0,1,0,480Z"/><path class="cls-1" d="M359.93,312.07H120.16V120.18h1.31q22.74,0,45.46,0a1.63,1.63,0,0,1,1.71,1.07q20,40.1,40.07,80.17l15.53,31.08c.16.32.34.63.68,1.27V138.17h1.4q22.73,0,45.46,0a1.7,1.7,0,0,1,1.82,1.09q37.61,75.3,75.26,150.59,5.25,10.5,10.51,21C359.54,311.18,359.69,311.54,359.93,312.07Z"/><path class="cls-1" d="M155.31,360h-7.73V347.94l-.25-.06-2.45,4.87c-1.07,2.14-2.17,4.27-3.2,6.43a1.33,1.33,0,0,1-1.43.94c-1.68-.07-3.36-.06-5,0a1.37,1.37,0,0,1-1.45-.92c-1.68-3.44-3.41-6.86-5.13-10.29a3,3,0,0,0-.75-1V360h-7.73V336.19c3.36,0,6.66,0,10,0,.32,0,.74.52.93.9,2,4,4.06,8.05,6.09,12.08.17.35.37.68.64,1.17l4.67-9.37a13.88,13.88,0,0,0,1.13-2.37c.61-2.16,2-2.68,4.1-2.51,2.49.21,5,.05,7.63.05Z"/><path class="cls-1" d="M232.64,344.91h11.88v-8.65h8.3V360H244.6v-8.52H232.67V360H224.4V336.28h8.24Z"/><path class="cls-1" d="M300.42,350.34a9,9,0,0,1-6.29,8.72A26.88,26.88,0,0,1,276,359c-5.29-1.89-7.29-6.28-6.81-12.36.4-5,3.2-8.27,7.94-9.71a26.44,26.44,0,0,1,16.27.12c4,1.33,6.63,4.06,7,8.5,0,.15,0,.31,0,.52h-8.38c-.65-2.88-2.92-3.67-5.47-3.75a22,22,0,0,0-5.66.55,4.14,4.14,0,0,0-3.18,4.16c-.29,4.8,1.25,6.69,6.11,7a21.74,21.74,0,0,0,5.32-.48A3.29,3.29,0,0,0,292,351c.06-.24.38-.59.58-.59C295.18,350.33,297.81,350.34,300.42,350.34Z"/><path class="cls-1" d="M317.49,342.86,311.16,356a7,7,0,0,0-.63,1.29c-.6,2.51-2.19,3.22-4.64,2.91a44,44,0,0,0-5.53,0c.19-.44.3-.77.46-1.07q5.46-10.92,10.91-21.85a1.55,1.55,0,0,1,1.64-1c2.79,0,5.59,0,8.38,0a1.76,1.76,0,0,1,1.32.67c3.82,7.55,7.59,15.12,11.37,22.69a5,5,0,0,1,.15.53,35,35,0,0,0-5.13,0c-2.83.42-4.19-.72-5.28-3.31C322.17,352.08,319.73,347.49,317.49,342.86Z"/><path class="cls-1" d="M193,336.24H221.3v6.3h-10V360H203V342.63H193Z"/><path class="cls-1" d="M157.55,336.2c3.1,0,5.93,0,8.76,0,.37,0,.81.43,1.09.77,2.31,2.8,4.59,5.63,7,8.57.69-.83,1.32-1.57,1.94-2.33,1.69-2.08,3.39-4.15,5.05-6.25a1.89,1.89,0,0,1,1.7-.83c2.66.06,5.32,0,8.26,0L186,342.94c-2.27,2.84-4.57,5.66-6.8,8.53a3.43,3.43,0,0,0-.61,1.84c-.07,2.19,0,4.39,0,6.69h-8.2c0-2.08,0-4.19,0-6.29a3.68,3.68,0,0,0-.93-2.59c-3.73-4.59-7.4-9.23-11.08-13.85C158.11,337,157.91,336.7,157.55,336.2Z"/><path class="cls-1" d="M337.32,336.25h8.18v17.39c.54,0,1,.06,1.4.06,4,0,8,0,12,0,.89,0,1.19.25,1.16,1.15-.06,1.7,0,3.41,0,5.19h-22.7Z"/><path class="cls-1" d="M257.71,336.22H266V360h-8.27Z"/><path class="cls-1" d="M367.28,341v-2.53l-.23-.08a15.12,15.12,0,0,1-.85,1.71,1.35,1.35,0,0,1-.89.56c-.24,0-.58-.32-.75-.58a15.24,15.24,0,0,1-.77-1.57c-.74.57.52,2.16-1.27,2.19v-4.51c2.43-.35,1.7,2.21,2.87,3,1.15-.74.5-3.22,2.94-3,0,1.37,0,2.71,0,4C368.28,340.47,367.78,340.67,367.28,341Z"/><path class="cls-1" d="M360,337.35c0,.89,0,1.68,0,2.48s-.34,1.05-1.2.77v-3.39a6.84,6.84,0,0,1-1.26-.08,2.15,2.15,0,0,1-.65-.46c.22-.16.44-.45.66-.46,1.39,0,2.78,0,4.16,0C361.86,336.9,361.86,336.9,360,337.35Z"/></g></g></svg>