<?xml version="1.0" encoding="UTF-8"?>
<svg width="148px" height="27px" viewBox="0 0 148 27" version="1.1" xmlns="http://www.w3.org/2000/svg" xmlns:xlink="http://www.w3.org/1999/xlink">
    <title>logo-black</title>
    <g id="Page-1" stroke="none" stroke-width="1" fill="none" fill-rule="evenodd">
        <g id="Artboard" transform="translate(-160.000000, -386.000000)" fill="#000000">
            <g id="logo-black" transform="translate(160.000000, 386.000000)">
                <g id="Group-2-Copy">
                    <g id="Group" fill-rule="nonzero">
                        <g id="NAAMA-2">
                            <polygon id="Path" points="20.6654951 26.6720224 20.6654951 1.76394219 17.1224044 1.76394219 17.1224044 18.0804074 0 0.16727038 0 25.242621 3.54309078 25.242621 3.54309078 8.80450455"></polygon>
                            <polygon id="Path" points="41.5682101 8.22666142 36.5156308 19.4033641 33.8281534 25.242621 30.0113475 25.242621 41.6290357 0.288921566 52.8361511 25.242621 48.9585196 25.242621 46.2477257 19.4033641"></polygon>
                            <polygon id="Path" points="70.8648568 8.22666142 65.7119154 19.4033641 63.1250029 25.2432292 59.308197 25.2432292 70.9258852 0.289529821 82.1330006 25.2432292 78.2553691 25.2432292 75.4440102 19.4033641"></polygon>
                            <polygon id="Path" points="103.415673 26.3222753 110.364997 11.0702579 112.63075 25.242621 116.265079 25.242621 111.824811 0 103.476498 18.2476778 95.4171073 0 90.4750279 25.242621 94.1397699 25.242621 96.664032 11.0550515"></polygon>
                            <polygon id="Path" points="136.331442 8.22666142 132.538967 16.1593325 128.591386 25.242621 124.77458 25.242621 136.392268 0.288921566 147.599383 25.242621 143.721752 25.242621 139.675836 16.1593325"></polygon>
                        </g>
                    </g>
                    <circle id="Oval" cx="41.631739" cy="19.4641897" r="1.62201581"></circle>
                    <circle id="Oval-Copy" cx="70.8280236" cy="19.4641897" r="1.62201581"></circle>
                    <circle id="Oval-Copy-2" cx="136.249328" cy="19.4641897" r="1.62201581"></circle>
                </g>
            </g>
        </g>
    </g>
</svg>