<svg xmlns="http://www.w3.org/2000/svg" xmlns:xlink="http://www.w3.org/1999/xlink" width="54" height="40" viewBox="0 0 54 40"><defs><style>.a{fill:none;}.b{fill:#ff5000;}.c{fill:url(#a);}.d{fill:url(#b);}.e{fill:#ff8c44;}</style><linearGradient id="a" x1="0.133" y1="0.949" x2="0.826" y2="0.011" gradientUnits="objectBoundingBox"><stop offset="0" stop-color="#d4202c"/><stop offset="0.042" stop-color="#d82d2b" stop-opacity="0.957"/><stop offset="0.176" stop-color="#e25226" stop-opacity="0.824"/><stop offset="0.317" stop-color="#eb7123" stop-opacity="0.682"/><stop offset="0.463" stop-color="#f28920" stop-opacity="0.537"/><stop offset="0.619" stop-color="#f69a1e" stop-opacity="0.38"/><stop offset="0.789" stop-color="#f9a41d" stop-opacity="0.212"/><stop offset="1" stop-color="#faa71d" stop-opacity="0"/></linearGradient><linearGradient id="b" x1="0.866" y1="0.05" x2="0.173" y2="0.989" xlink:href="#a"/></defs><g transform="translate(-6145 -10938)"><rect class="a" width="54" height="40" transform="translate(6145 10938)"/><g transform="translate(6145.25 10943.2)"><path class="b" d="M48.43,0a5.006,5.006,0,0,0-4.364,2.568l-.1.209L40.036,10.5,35.067,20.3l3.257,6.41.188.355a5.014,5.014,0,0,0,2.171,2.046,5.138,5.138,0,0,0,2.171-2.046l.188-.355L52.794,7.5l.23-.459A5.03,5.03,0,0,0,48.43,0ZM18.342,9.312,15.106,2.923l-.188-.355A5.014,5.014,0,0,0,12.746.522a5.138,5.138,0,0,0-2.171,2.046l-.167.355L.657,22.133l-.23.459A5.01,5.01,0,0,0,9.385,27.06l.1-.209,3.925-7.726,4.949-9.793Z" transform="translate(0.011 0)"/><path class="c" d="M29.769,0a4.981,4.981,0,0,0-4.364,2.568l-.1.209L21.376,10.5,16.406,20.3l3.257,6.41.188.355a5.014,5.014,0,0,0,2.171,2.046,5.138,5.138,0,0,0,2.171-2.046l.188-.355L34.133,7.5l.23-.459A5.03,5.03,0,0,0,29.769,0Z" transform="translate(18.672 0)"/><path class="d" d="M5.011,29.351a4.981,4.981,0,0,0,4.364-2.568l.1-.209L13.4,18.848l4.969-9.793-3.257-6.41-.188-.355A5.014,5.014,0,0,0,12.758.244,5.138,5.138,0,0,0,10.586,2.29l-.167.355L.668,21.855l-.251.48a5.012,5.012,0,0,0,4.594,7.016Z" transform="translate(0 0.278)"/><path class="e" d="M11.563,9.312,8.326,2.923l-.188-.355A5.014,5.014,0,0,0,5.967.522a5.109,5.109,0,0,1,.94-.355A5.032,5.032,0,0,1,8.159,0h6.849a5.049,5.049,0,0,1,4.364,2.568l.146.355,8.79,17.393,3.236,6.389.188.355A5.014,5.014,0,0,0,33.9,29.106a4.97,4.97,0,0,1-2.213.522H24.884A5.049,5.049,0,0,1,20.52,27.06l-.188-.355L11.563,9.312Z" transform="translate(6.791)"/></g></g></svg>