<?xml version="1.0" encoding="UTF-8" standalone="no"?>
<!DOCTYPE svg PUBLIC "-//W3C//DTD SVG 1.1//EN" "http://www.w3.org/Graphics/SVG/1.1/DTD/svg11.dtd">
<svg width="100%" height="100%" viewBox="0 0 602 300" version="1.1" xmlns="http://www.w3.org/2000/svg" xmlns:xlink="http://www.w3.org/1999/xlink" xml:space="preserve" xmlns:serif="http://www.serif.com/" style="fill-rule:evenodd;clip-rule:evenodd;stroke-linejoin:round;stroke-miterlimit:1.41421;">
    <g id="Newegg" transform="matrix(1,0,0,1,-26.3893,-174.975)">
        <clipPath id="_clip1">
            <path d="M50.7,273.9C10.6,338.3 23.5,419.6 79.5,455.5C111.8,476.2 151.4,477.2 186.9,462C181.9,459.8 177.1,457.2 172.4,454.2C116.4,418.3 103.5,337 143.7,272.6C165.3,237.9 203.4,206.1 242.8,189.7C230.9,182.5 217.1,179.3 202.5,179.3C148.2,179.3 82,223.6 50.7,273.9"/>
        </clipPath>
        <g clip-path="url(#_clip1)">
            <rect x="10.6" y="179.3" width="232.1" height="298" style="fill:url(#_Radial2);"/>
        </g>
        <clipPath id="_clip3">
            <path d="M300,178.7C283.1,179.8 265.2,185 247.7,193.1C214.2,208.6 182.2,234.9 161.3,264C159.3,266.8 157.4,269.7 155.6,272.6C115.5,337.1 128.4,418.4 184.4,454.3C187.3,456.1 190.2,457.8 193.1,459.3C207.2,466.5 222.3,470.3 237.8,471C236.3,471.1 234.8,471.1 233.4,471.2C234.8,471.3 236.1,471.4 237.5,471.5C256,472.3 274.8,468.6 292.5,460.8C288.2,458.8 284,456.5 280,453.9C265.1,444.4 253.3,431.6 244.7,416.8C220.9,375.9 221.8,319.6 251.3,272.3C258.6,260.6 267.7,249.3 278.2,238.7C298.4,218.3 323.5,200.9 349.1,190L349,190C336.7,182.1 322.4,178.6 307.1,178.6C304.6,178.4 302.3,178.5 300,178.7"/>
        </clipPath>
        <g clip-path="url(#_clip3)">
            <rect x="115.5" y="178.4" width="233.4" height="293.8" style="fill:url(#_Radial4);"/>
        </g>
        <clipPath id="_clip5">
            <path d="M407.8,177.8C390.2,179 371.6,184.5 353.5,193.2C326.4,206.1 300.4,226 280.7,248.6C274.1,256.2 268.1,264.1 263.1,272.2C235.9,315.9 233.1,367.3 251.5,407.1C260.3,426 273.8,442.3 291.8,453.9C294,455.3 296.3,456.7 298.6,457.9C313.2,465.8 329,469.9 345.2,470.6C390.2,472.6 437.4,447.6 465.8,402.1C505.9,337.7 512.6,224.9 456.6,189.1C444.4,181.2 430.1,177.7 414.9,177.7C412.6,177.5 410.2,177.6 407.8,177.8"/>
        </clipPath>
        <g clip-path="url(#_clip5)">
            <rect x="233.1" y="177.5" width="279.6" height="294.9" style="fill:url(#_Radial6);"/>
        </g>
        <path d="M269,293.7L266.8,300.5C269.1,297.8 271.6,295.8 274.3,294.4C276.9,293.1 279.7,292.3 282.8,292.3C286.6,292.3 289.4,293.2 291.4,294.9C293.3,296.7 294.3,299 294.2,301.7C294.2,304.4 293.3,309 291.7,315.5L278.5,367.1L256.4,367.2L269.4,316.2C270.7,311.1 271.3,308 271.3,306.9C271.3,305.8 270.5,305.3 269,305.3C267.5,305.3 266.4,306 265.6,307.2C264.9,308.5 263.8,311.9 262.4,317.4L249.7,367.2L227.6,367.4L246.4,293.7L269,293.7Z" style="fill:rgb(0,45,106);fill-rule:nonzero;"/>
        <path d="M345.2,331.1L316.7,331.3L312.6,347.2C311.8,350.5 311.4,352.7 311.6,353.7C311.8,354.7 312.6,355.1 313.9,355.1C315.6,355.1 316.8,354.5 317.7,353.2C318.6,351.9 319.5,349.5 320.4,345.8L322.9,336.1L343.9,335.9L342.5,341.3C341.3,345.8 340.2,349.3 339,351.8C337.8,354.3 335.8,356.9 333,359.6C330.3,362.4 327.1,364.5 323.6,366C320.1,367.4 315.9,368.1 311.1,368.2C306.5,368.2 302.6,367.6 299.3,366.3C296.1,365 293.8,363.1 292.4,360.7C291,358.3 290.3,355.7 290.3,352.8C290.3,350 291,345.8 292.4,340.3L297.9,318.8C299.5,312.4 301.7,307.3 304.3,303.5C307,299.8 310.5,296.9 314.9,294.9C319.3,292.9 324,291.9 329.1,291.8C335.2,291.7 340,292.9 343.5,295.3C346.9,297.6 348.9,300.7 349.5,304.7C350.1,308.6 349.5,314.2 347.7,321.3L345.2,331.1ZM326.1,319.4L327.5,314C328.5,310.2 328.9,307.7 328.8,306.6C328.7,305.5 328,305 326.8,305C325.2,305 324.2,305.5 323.6,306.4C323,307.3 322.2,309.9 321.1,314.1L319.7,319.5L326.1,319.4Z" style="fill:rgb(0,45,106);fill-rule:nonzero;"/>
        <path d="M433.2,292.3L405.6,366L382.2,366C382.2,365.7 382,365.6 382,365.2C383,356.3 384.5,344.8 386.4,330.5C383.9,337.1 381.3,343.6 378.6,350.2L372.3,366.2L348.6,366.4L358,293L376.9,292.8C376.6,294.7 374.6,308.9 370.9,335.1C372,332.3 377.2,318.2 386.7,292.7L404.7,292.6L398.5,334.9C402.4,322.4 407.7,308.3 414.3,292.4L433.2,292.3Z" style="fill:rgb(0,45,106);fill-rule:nonzero;"/>
        <path d="M479.9,329.8L451.5,330.1L447.4,346C446.6,349.3 446.2,351.5 446.4,352.5C446.7,353.5 447.4,353.9 448.7,353.9C450.4,353.9 451.6,353.3 452.5,352C453.4,350.7 454.3,348.3 455.2,344.6L457.7,334.9L478.7,334.7L477.3,340.1C476.1,344.6 475,348.2 473.8,350.6C472.6,353 470.6,355.6 467.8,358.4C465,361.2 461.9,363.3 458.3,364.8C454.8,366.2 450.6,366.9 445.8,367C441.1,367.1 437.3,366.4 434,365.1C430.8,363.8 428.5,361.9 427.2,359.5C425.8,357.1 425.1,354.5 425.1,351.7C425.1,348.8 425.8,344.7 427.1,339.2L432.6,317.7C434.2,311.3 436.4,306.2 439.1,302.5C441.7,298.7 445.3,295.9 449.7,293.8C454.1,291.8 458.8,290.8 463.9,290.7C470,290.7 474.8,291.8 478.3,294.2C481.7,296.5 483.7,299.7 484.3,303.6C484.9,307.5 484.3,313.1 482.5,320.2L479.9,329.8ZM460.9,318.1L462.2,312.7C463.2,308.9 463.6,306.4 463.5,305.3C463.4,304.2 462.7,303.6 461.5,303.6C460,303.6 458.9,304.1 458.3,305.1C457.7,306.1 456.9,308.6 455.8,312.8L454.4,318.2L460.9,318.1Z" style="fill:rgb(0,45,106);fill-rule:nonzero;"/>
        <path d="M547,291.2L532.5,348C530.6,355.7 529.1,360.6 528.1,362.9C527.2,365.1 525.3,367.5 522.6,370.1C519.9,372.6 516.4,374.5 512.3,375.9C508.2,377.3 503.3,377.9 497.6,377.9C490.6,378 485.2,376.8 481.6,374.5C479.2,372.9 478.5,371.1 478.3,367.7L478.3,360L500,359.9C499.1,363.2 499.9,364.9 502.3,364.8C503.9,364.8 505.2,364.3 506,363.3C506.8,362.2 507.6,360.2 508.4,356.9L509.9,351.2C507.5,353 505.2,354.3 502.9,355.2C500.6,356.1 498.3,356.6 496,356.6C492,356.6 489,355.9 486.8,354.3C484.7,352.7 483.4,350.6 483.1,347.9C482.8,345.3 483.3,341.5 484.5,336.6L491.3,309.9C493.1,302.9 495.6,297.9 498.9,294.8C502.2,291.7 506.3,290.2 511.3,290.1C514.1,290.1 516.4,290.6 518.4,291.8C520.4,292.9 522,294.6 523.2,296.9L526.2,291.3L547,291.2ZM520,310.9C520.8,307.5 521.2,305.4 521,304.4C520.9,303.5 520.2,303 518.9,303C517.6,303 516.6,303.6 515.8,304.6C515,305.6 514.2,307.8 513.4,310.8L507.1,335.6C506.3,338.9 505.9,341.1 506.1,342C506.2,343 507,343.5 508.2,343.5C509.6,343.5 510.8,342.9 511.5,341.7C512.2,340.5 513.2,337.8 514.2,333.6L520,310.9Z" style="fill:rgb(0,45,106);fill-rule:nonzero;"/>
        <path d="M605.1,290.7L590.6,347.5C588.6,355.2 587.2,360.1 586.2,362.4C585.3,364.6 583.5,367 580.7,369.5C578,372 574.5,373.9 570.4,375.3C566.3,376.6 561.4,377.4 555.7,377.4C548.7,377.5 543.3,376.3 539.7,373.9C536,371.5 535.1,366.7 536.7,359.6L558.1,359.4C557.3,362.7 558,364.4 560.4,364.4C562,364.4 563.3,363.9 564.1,362.8C564.9,361.8 565.7,359.7 566.5,356.4L567.9,350.7C565.6,352.5 563.3,353.8 560.9,354.7C558.6,355.6 556.3,356.1 554,356.1C550,356.1 546.9,355.4 544.8,353.8C542.7,352.2 541.4,350.1 541.1,347.5C540.8,344.9 541.3,341.2 542.6,336.3L549.4,309.6C551.2,302.6 553.7,297.6 557,294.5C560.3,291.4 564.4,289.8 569.5,289.8C572.2,289.8 574.6,290.3 576.6,291.5C578.5,292.6 580.2,294.3 581.4,296.6L584.4,291L605.1,290.7ZM578,310.4C578.8,307 579.2,304.9 579,303.9C578.8,303 578.1,302.5 576.8,302.6C575.5,302.6 574.5,303.1 573.7,304.2C572.9,305.3 572.1,307.3 571.3,310.4L565,335.2C564.2,338.5 563.9,340.7 564,341.6C564.2,342.6 564.9,343.1 566.1,343.1C567.5,343 568.6,342.5 569.3,341.3C570.1,340.1 571,337.4 572.1,333.2L578,310.4Z" style="fill:rgb(0,45,106);fill-rule:nonzero;"/>
        <path d="M617.5,298.3L618.9,298.3C619.6,298.3 620.1,298.2 620.4,298C620.7,297.8 620.8,297.5 620.8,297.1C620.8,296.7 620.7,296.4 620.4,296.2C620.1,296 619.7,295.9 619.1,295.9L617.5,295.9L617.5,298.3ZM615.8,303.1L615.8,294.6L619.8,294.6C620.8,294.6 621.5,294.8 622,295.3C622.5,295.8 622.7,296.3 622.7,297C622.7,297.7 622.5,298.2 622.1,298.6C621.7,299 621.1,299.3 620.4,299.4C620.7,299.5 621,299.7 621.2,299.9C621.4,300.1 621.7,300.6 622.2,301.4L623.2,303.1L621.1,303.1L620.4,301.7C620,300.9 619.6,300.3 619.3,300C619,299.7 618.6,299.6 618,299.6L617.5,299.6L617.5,303.1L615.8,303.1ZM619.5,292.4C617.5,292.4 615.9,293 614.7,294.3C613.5,295.6 612.9,297.1 612.9,298.8C612.9,300.6 613.5,302.1 614.8,303.4C616.1,304.7 617.6,305.3 619.4,305.3C621.2,305.3 622.7,304.7 623.9,303.4C625.2,302.1 625.8,300.6 625.8,298.8C625.8,297.6 625.5,296.5 624.8,295.4C624.2,294.4 623.3,293.6 622.3,293.1C621.4,292.6 620.5,292.4 619.5,292.4M619.2,290.8C621.6,290.8 623.6,291.6 625.1,293.2C626.6,294.8 627.4,296.7 627.4,298.8C627.4,301 626.6,302.9 625,304.5C623.4,306.1 621.5,306.9 619.3,306.9C617.1,306.9 615.2,306.1 613.6,304.5C612,302.9 611.3,301 611.3,298.8C611.3,297.2 611.7,295.8 612.5,294.5C613.3,293.2 614.4,292.2 615.6,291.7C616.9,291.1 618.1,290.8 619.2,290.8" style="fill:rgb(0,45,106);fill-rule:nonzero;"/>
    </g>
    <defs>
        <radialGradient id="_Radial2" cx="0" cy="0" r="1" gradientUnits="userSpaceOnUse" gradientTransform="matrix(100.029,0,0,-138.523,135.074,325.88)"><stop offset="0" style="stop-color:white;stop-opacity:1"/><stop offset="0.27" style="stop-color:white;stop-opacity:1"/><stop offset="0.46" style="stop-color:rgb(250,250,250);stop-opacity:1"/><stop offset="0.69" style="stop-color:rgb(236,236,235);stop-opacity:1"/><stop offset="0.93" style="stop-color:rgb(213,212,211);stop-opacity:1"/><stop offset="1" style="stop-color:rgb(205,204,203);stop-opacity:1"/></radialGradient>
        <radialGradient id="_Radial4" cx="0" cy="0" r="1" gradientUnits="userSpaceOnUse" gradientTransform="matrix(107.212,0,0,-135.339,240.579,324.964)"><stop offset="0" style="stop-color:rgb(255,230,48);stop-opacity:1"/><stop offset="0.19" style="stop-color:rgb(255,230,48);stop-opacity:1"/><stop offset="0.43" style="stop-color:rgb(251,193,45);stop-opacity:1"/><stop offset="0.97" style="stop-color:rgb(242,98,37);stop-opacity:1"/><stop offset="1" style="stop-color:rgb(241,93,37);stop-opacity:1"/></radialGradient>
        <radialGradient id="_Radial6" cx="0" cy="0" r="1" gradientUnits="userSpaceOnUse" gradientTransform="matrix(107.293,0,0,-113.563,368.52,324.012)"><stop offset="0" style="stop-color:white;stop-opacity:1"/><stop offset="0.27" style="stop-color:white;stop-opacity:1"/><stop offset="0.46" style="stop-color:rgb(250,250,250);stop-opacity:1"/><stop offset="0.69" style="stop-color:rgb(236,236,235);stop-opacity:1"/><stop offset="0.93" style="stop-color:rgb(213,212,211);stop-opacity:1"/><stop offset="1" style="stop-color:rgb(205,204,203);stop-opacity:1"/></radialGradient>
    </defs>
</svg>
