<svg xmlns="http://www.w3.org/2000/svg" xmlns:xlink="http://www.w3.org/1999/xlink" width="330.738" height="162.482" viewBox="0 0 330.738 162.482"><defs><style>.a{clip-rule:evenodd;}.b{clip-path:url(#a);}.c{fill:url(#b);}.d{clip-path:url(#c);}.e{fill:url(#d);}.f{clip-path:url(#e);}.g{fill:url(#f);}.h{fill:#002d6a;}</style><clipPath id="a"><path class="a" d="M40.234,231.445c-22.1,35.5-14.993,80.313,15.875,100.1,17.8,11.41,39.632,11.962,59.2,3.583a58.91,58.91,0,0,1-7.992-4.3c-30.868-19.789-37.978-64.6-15.82-100.1,11.906-19.127,32.907-36.656,54.625-45.7a42.407,42.407,0,0,0-22.214-5.733c-29.931,0-66.421,24.419-83.674,52.145" transform="translate(-27.379 -179.3)"/></clipPath><radialGradient id="b" cx="96.18" cy="42.619" r="42.943" gradientTransform="matrix(1.284, 0, 0, -1.778, -27.31, 118.4)" gradientUnits="userSpaceOnUse"><stop offset="0" stop-color="#fff"/><stop offset="0.27" stop-color="#fff"/><stop offset="0.46" stop-color="#fafafa"/><stop offset="0.69" stop-color="#ececeb"/><stop offset="0.93" stop-color="#d5d4d3"/><stop offset="1" stop-color="#cdcccb"/></radialGradient><clipPath id="c"><path class="a" d="M224.728,178.606c-9.316.606-19.182,3.473-28.828,7.938-18.466,8.544-36.1,23.041-47.625,39.082-1.1,1.543-2.15,3.142-3.142,4.74-22.1,35.554-14.993,80.368,15.875,100.156,1.6.992,3.2,1.929,4.8,2.756a59.735,59.735,0,0,0,24.639,6.449c-.827.055-1.654.055-2.425.11.772.055,1.488.11,2.26.165a68,68,0,0,0,30.317-5.9,55.933,55.933,0,0,1-6.89-3.8,59.482,59.482,0,0,1-19.458-20.45c-13.119-22.545-12.623-53.578,3.638-79.651a107.15,107.15,0,0,1,14.828-18.521,125.97,125.97,0,0,1,39.081-26.844h-.055c-6.78-4.355-14.662-6.284-23.1-6.284a23.048,23.048,0,0,0-3.914.055" transform="translate(-132.279 -178.491)"/></clipPath><radialGradient id="d" cx="98.493" cy="43.488" r="46.946" gradientTransform="matrix(1.259, 0, 0, -1.589, -25.49, 112.594)" gradientUnits="userSpaceOnUse"><stop offset="0" stop-color="#ffe630"/><stop offset="0.19" stop-color="#ffe630"/><stop offset="0.43" stop-color="#fbc12d"/><stop offset="0.97" stop-color="#f26225"/><stop offset="1" stop-color="#f15d25"/></radialGradient><clipPath id="e"><path class="a" d="M332.391,177.706c-9.7.661-19.954,3.693-29.931,8.489a127.3,127.3,0,0,0-40.128,30.537,100.854,100.854,0,0,0-9.7,13.009c-14.993,24.088-16.536,52.421-6.394,74.359a60.934,60.934,0,0,0,22.214,25.8c1.213.772,2.48,1.543,3.748,2.2a58.938,58.938,0,0,0,25.686,7c24.8,1.1,50.822-12.678,66.476-37.758,22.1-35.5,25.8-97.676-5.071-117.41-6.725-4.355-14.607-6.284-22.985-6.284a23.3,23.3,0,0,0-3.914.055" transform="translate(-239.772 -177.591)"/></clipPath><radialGradient id="f" cx="104.215" cy="49.461" r="56.072" gradientTransform="matrix(1.055, 0, 0, -1.116, -5.705, 104.679)" xlink:href="#b"/></defs><g class="b" transform="translate(0 0.942)"><rect class="c" width="127.936" height="164.263" transform="translate(-9.249)"/></g><g class="d" transform="translate(57.822 0.496)"><rect class="e" width="128.652" height="161.948" transform="translate(-9.249 -0.05)"/></g><g class="f" transform="translate(117.073 0)"><rect class="g" width="154.118" height="162.554" transform="translate(-3.678 -0.05)"/></g><path class="h" d="M250.42,293.072l-1.213,3.748a13.723,13.723,0,0,1,4.134-3.362,10.328,10.328,0,0,1,4.685-1.158,7.059,7.059,0,0,1,4.74,1.433,4.76,4.76,0,0,1,1.544,3.749,38.536,38.536,0,0,1-1.378,7.607l-7.276,28.443-12.182.055,7.166-28.112a31.258,31.258,0,0,0,1.047-5.126c0-.607-.441-.882-1.268-.882a2.15,2.15,0,0,0-1.874,1.047,32.551,32.551,0,0,0-1.764,5.623l-7,27.45-12.182.11,10.363-40.625Z" transform="translate(-117.236 -229.07)"/><path class="h" d="M320.561,313.46l-15.709.11-2.26,8.764a11.562,11.562,0,0,0-.551,3.583c.11.551.551.772,1.268.772a2.338,2.338,0,0,0,2.095-1.047,13.325,13.325,0,0,0,1.488-4.079l1.378-5.347,11.575-.11-.772,2.976a35.02,35.02,0,0,1-1.929,5.788,15.53,15.53,0,0,1-3.307,4.3,15.748,15.748,0,0,1-5.181,3.528,19.736,19.736,0,0,1-6.89,1.213,17.689,17.689,0,0,1-6.5-1.047,7.477,7.477,0,0,1-3.8-3.087,8.439,8.439,0,0,1-1.157-4.355,30.8,30.8,0,0,1,1.157-6.89l3.032-11.851a26.23,26.23,0,0,1,3.528-8.434,14.565,14.565,0,0,1,5.843-4.74,19.559,19.559,0,0,1,7.827-1.709,13.45,13.45,0,0,1,7.937,1.93,7.315,7.315,0,0,1,3.307,5.181c.331,2.15,0,5.236-.992,9.15Zm-10.528-6.449.772-2.977a15.557,15.557,0,0,0,.717-4.079c-.055-.606-.441-.882-1.1-.882a1.934,1.934,0,0,0-1.764.772,20.146,20.146,0,0,0-1.378,4.245l-.772,2.977Z" transform="translate(-145.375 -228.843)"/><path class="h" d="M395.232,292.3l-15.213,40.625h-12.9c0-.165-.11-.22-.11-.441.551-4.906,1.378-11.245,2.426-19.127-1.378,3.638-2.812,7.221-4.3,10.859l-3.473,8.819-13.064.11,5.181-40.46,10.418-.11c-.166,1.047-1.268,8.875-3.307,23.317.606-1.543,3.473-9.315,8.709-23.371l9.922-.056-3.417,23.317c2.149-6.89,5.071-14.662,8.709-23.427Z" transform="translate(-171.539 -229.07)"/><path class="h" d="M455.307,312.253l-15.654.165-2.26,8.764a11.578,11.578,0,0,0-.552,3.583c.165.551.552.771,1.268.771a2.337,2.337,0,0,0,2.095-1.047,13.327,13.327,0,0,0,1.488-4.079l1.378-5.347,11.576-.11-.772,2.976a33.354,33.354,0,0,1-1.929,5.788,17.316,17.316,0,0,1-3.308,4.3,15.968,15.968,0,0,1-5.236,3.528,19.744,19.744,0,0,1-6.89,1.213,16.441,16.441,0,0,1-6.5-1.047,7.116,7.116,0,0,1-3.748-3.087,8.386,8.386,0,0,1-1.157-4.3,32.919,32.919,0,0,1,1.1-6.89l3.031-11.851a24.235,24.235,0,0,1,3.583-8.379,14.315,14.315,0,0,1,5.842-4.8,19.56,19.56,0,0,1,7.828-1.709c3.362,0,6.008.606,7.937,1.929a7.424,7.424,0,0,1,3.307,5.182c.331,2.15,0,5.236-.992,9.15ZM444.834,305.8l.716-2.977a15.555,15.555,0,0,0,.717-4.079.976.976,0,0,0-1.1-.937,1.9,1.9,0,0,0-1.764.827,21.482,21.482,0,0,0-1.378,4.245l-.772,2.977Z" transform="translate(-205.872 -228.352)"/><path class="h" d="M516.168,290.706l-7.992,31.309a62.01,62.01,0,0,1-2.426,8.213,12.647,12.647,0,0,1-3.031,3.969,15.743,15.743,0,0,1-5.677,3.2,25.267,25.267,0,0,1-8.1,1.1c-3.859.055-6.835-.607-8.82-1.874-1.323-.882-1.708-1.874-1.819-3.749V328.63l11.961-.055c-.5,1.819-.055,2.756,1.268,2.7a2.5,2.5,0,0,0,2.039-.827,10.647,10.647,0,0,0,1.323-3.528l.826-3.142a16.343,16.343,0,0,1-3.859,2.2,10.415,10.415,0,0,1-3.8.772,8.42,8.42,0,0,1-5.071-1.268,4.978,4.978,0,0,1-2.04-3.528,19.372,19.372,0,0,1,.771-6.228l3.749-14.718c.992-3.858,2.37-6.614,4.189-8.323a9.823,9.823,0,0,1,6.835-2.591,7.36,7.36,0,0,1,3.913.937,6.554,6.554,0,0,1,2.646,2.811l1.654-3.087Zm-14.883,10.859a11.753,11.753,0,0,0,.552-3.583c-.055-.5-.441-.772-1.157-.772a2.116,2.116,0,0,0-1.709.882,10.829,10.829,0,0,0-1.323,3.418l-3.472,13.67a11.5,11.5,0,0,0-.552,3.528c.055.551.5.827,1.157.827a2.012,2.012,0,0,0,1.819-.992,18.9,18.9,0,0,0,1.488-4.465Z" transform="translate(-229.748 -228.083)"/><path class="h" d="M574.063,290.3l-7.993,31.309a72.505,72.505,0,0,1-2.426,8.213,11.221,11.221,0,0,1-3.031,3.914,15.739,15.739,0,0,1-5.677,3.2,26.8,26.8,0,0,1-8.1,1.158c-3.859.055-6.836-.606-8.819-1.929-2.04-1.323-2.536-3.969-1.654-7.882l11.8-.11c-.441,1.819-.055,2.756,1.268,2.756a2.38,2.38,0,0,0,2.039-.882,10.141,10.141,0,0,0,1.323-3.528l.771-3.142a14.447,14.447,0,0,1-3.859,2.2,10.406,10.406,0,0,1-3.8.772,8.318,8.318,0,0,1-5.072-1.268,4.977,4.977,0,0,1-2.039-3.473,17.967,17.967,0,0,1,.826-6.174l3.748-14.718c.993-3.859,2.371-6.615,4.19-8.323a9.624,9.624,0,0,1,6.89-2.591,7.493,7.493,0,0,1,3.914.937A6.9,6.9,0,0,1,561,293.548l1.653-3.087Zm-14.938,10.859a11.781,11.781,0,0,0,.551-3.583c-.11-.5-.5-.771-1.213-.717a1.977,1.977,0,0,0-1.708.882,10.815,10.815,0,0,0-1.323,3.418l-3.473,13.67a13.666,13.666,0,0,0-.551,3.528,1.018,1.018,0,0,0,1.157.827,2.036,2.036,0,0,0,1.764-.992,18.193,18.193,0,0,0,1.543-4.465Z" transform="translate(-255.616 -227.948)"/><path class="h" d="M614.717,294.934h.772a1.55,1.55,0,0,0,.827-.165.668.668,0,0,0,0-.992,1.249,1.249,0,0,0-.716-.165h-.883Zm-.937,2.646v-4.685h2.205a1.609,1.609,0,0,1,1.213.386,1.21,1.21,0,0,1,.386.937,1.165,1.165,0,0,1-.331.882,1.661,1.661,0,0,1-.937.441,1.2,1.2,0,0,1,.441.276,6.61,6.61,0,0,1,.551.827l.552.937H616.7l-.386-.772a3.906,3.906,0,0,0-.606-.937.935.935,0,0,0-.717-.221h-.276v1.929Zm2.04-5.9a3.408,3.408,0,0,0-2.646,1.047,3.547,3.547,0,0,0-.992,2.48,3.576,3.576,0,0,0,3.583,3.583,3.211,3.211,0,0,0,2.48-1.047,3.412,3.412,0,0,0,1.047-2.536,3.581,3.581,0,0,0-1.929-3.142,3.059,3.059,0,0,0-1.543-.386m-.166-.882a4.277,4.277,0,0,1,3.252,1.323,4.43,4.43,0,0,1,1.268,3.087,4.444,4.444,0,0,1-7.607,3.142,4.239,4.239,0,0,1-1.268-3.142,4.386,4.386,0,0,1,.662-2.37,3.8,3.8,0,0,1,1.709-1.543,4.773,4.773,0,0,1,1.984-.5" transform="translate(-289.437 -228.397)"/></svg>