<svg width="80" height="31" viewBox="0 0 80 31" fill="none" xmlns="http://www.w3.org/2000/svg">
<path d="M45.7877 0.588916C44.2443 1.35751 43.5754 2.79222 43.5754 6.68644C43.5754 6.68644 44.3471 5.91784 45.5819 5.45669C46.4822 5.12363 47.1253 4.68809 47.5883 4.35503C48.9259 3.35586 49.1317 2.15173 49.1317 0.0508998C49.106 0.0508998 46.9967 -0.0771994 45.7877 0.588916Z" fill="#FBBD71"/>
<path d="M36.3473 1.48606C35.0096 2.58771 34.6752 4.48358 34.6752 4.48358L30.3537 20.9828L26.8039 7.4811C26.4695 6.04639 25.8006 4.27862 24.7974 3.04887C23.5627 1.48606 20.9904 1.38358 20.6817 1.38358C20.4502 1.38358 17.9035 1.48606 16.5659 3.04887C15.5627 4.27862 14.8939 6.04639 14.5595 7.4811L11.2154 20.9828L6.89389 4.48358C6.89389 4.48358 6.55948 2.71581 5.22186 1.48606C3.11254 -0.40981 0 0.0513465 0 0.0513465L8.23151 30.9232C8.23151 30.9232 10.9068 31.1538 12.2444 30.4877C14.0193 29.591 14.9196 28.9505 15.9228 24.7232C16.926 20.9571 19.6013 9.99184 19.8071 9.22325C19.91 8.89019 20.1415 7.89102 20.8103 7.89102C21.4791 7.89102 21.7106 8.78771 21.8135 9.22325C22.045 9.99184 24.6945 20.9571 25.6978 24.7232C26.8039 28.9249 27.5756 29.591 29.3762 30.4877C30.7138 31.1538 33.3891 30.9232 33.3891 30.9232L41.5691 0.0513465C41.5691 0.0513465 38.4566 -0.384191 36.3473 1.48606Z" fill="black"/>
<path d="M49.1061 5.02148C49.1061 5.02148 48.5402 5.79008 47.434 6.45619C46.6623 6.89173 45.9935 7.12231 45.2218 7.55785C43.8842 8.22396 43.5498 8.89008 43.5498 9.88925V10.2223V11.8876V12.2207V30.8207C43.5498 30.8207 45.6591 31.0512 46.9967 30.3851C48.7717 29.4884 49.1061 28.6173 49.1061 24.8512V6.25124V5.02148Z" fill="black"/>
<path d="M69.5562 15.5506L79.9999 0.153105C79.9999 0.153105 75.6783 -0.615491 73.4404 1.38286C71.9999 2.61261 70.5594 4.91839 70.5594 4.91839L66.778 10.4523C66.5465 10.7853 66.3407 11.0159 66.0063 11.0159C65.6719 11.0159 65.3375 10.6829 65.2346 10.4523L61.4533 4.91839C61.4533 4.91839 59.9099 2.71509 58.5722 1.38286C56.36 -0.615491 52.0128 0.153105 52.0128 0.153105L62.1221 15.525L51.7812 30.8969C51.7812 30.8969 56.3343 31.4605 58.5722 29.4622C60.0128 28.2324 61.3504 26.1316 61.3504 26.1316L65.1317 20.5977C65.3632 20.2647 65.569 20.0341 65.9034 20.0341C66.2378 20.0341 66.5722 20.3672 66.6751 20.5977L70.4565 26.1316C70.4565 26.1316 71.897 28.2324 73.2346 29.4622C75.4468 31.4605 79.897 30.8969 79.897 30.8969L69.5562 15.5506Z" fill="black"/>
</svg>
