<svg width="245" height="219" viewBox="0 0 175 219" fill="none" xmlns="http://www.w3.org/2000/svg">
<g filter="url(#filter0_d_1555_37768)">
<path fill-rule="evenodd" clip-rule="evenodd" d="M8 12.9345C8 10.2092 10.2092 8 12.9345 8H162.066C164.791 8 167 10.2092 167 12.9345V205.513C167 208.238 164.791 210.448 162.066 210.448H12.9345C10.2092 210.448 8 208.238 8 205.513L8 12.9345Z" fill="white"/>
</g>
<path fill-rule="evenodd" clip-rule="evenodd" d="M8 124.477H167V124.939H8L8 124.477Z" fill="#A3A3A3" fill-opacity="0.1"/>
<path d="M51.5252 85.4899C52.6386 85.9412 53.5376 86.3851 54.2222 86.8214C54.9143 87.2502 55.4597 87.7843 55.8584 88.4238C56.2572 89.0632 56.4565 89.8569 56.4565 90.8048C56.4565 91.6775 56.2722 92.4373 55.9036 93.0843C55.535 93.7312 55.0121 94.2503 54.335 94.6415C53.658 95.0252 52.8643 95.2659 51.954 95.3637V97.6093H50.1598V95.3637C49.2571 95.2659 48.4371 95.0177 47.6998 94.6189C46.9626 94.2202 46.3683 93.6372 45.9169 92.8699C45.4655 92.095 45.2398 91.1283 45.2398 89.9698H48.6477C48.6477 90.9327 48.8734 91.6286 49.3248 92.0574C49.7761 92.4787 50.3479 92.6893 51.04 92.6893C51.6945 92.6893 52.1948 92.52 52.5408 92.1815C52.8869 91.8355 53.0599 91.3841 53.0599 90.8274C53.0599 90.4136 52.9847 90.0676 52.8342 89.7892C52.6913 89.5033 52.4581 89.2513 52.1346 89.0332C51.8186 88.815 51.3785 88.5968 50.8143 88.3787C49.6859 87.9423 48.7756 87.5135 48.0835 87.0922C47.3914 86.6634 46.846 86.1293 46.4472 85.4899C46.0485 84.8504 45.8492 84.053 45.8492 83.0976C45.8492 82.255 46.0372 81.5065 46.4134 80.852C46.7895 80.1975 47.3199 79.6709 48.0045 79.2721C48.6891 78.8734 49.4828 78.6289 50.3855 78.5387V76.1351H52.1797V78.5725C53.0524 78.7004 53.8122 78.99 54.4592 79.4414C55.1061 79.8928 55.6027 80.4909 55.9487 81.2356C56.3023 81.9804 56.4791 82.8418 56.4791 83.8198H53.0825C53.0825 82.9621 52.9057 82.3152 52.5521 81.8788C52.1985 81.4425 51.7171 81.2243 51.1077 81.2243C50.4908 81.2243 50.0282 81.4011 49.7197 81.7547C49.4113 82.1008 49.2571 82.5559 49.2571 83.1201C49.2571 83.4888 49.3248 83.8047 49.4602 84.068C49.6031 84.3313 49.8363 84.5758 50.1598 84.8015C50.4833 85.0272 50.9384 85.2566 51.5252 85.4899ZM63.261 95.1719V82.759L59.4017 83.9213V81.1792L66.3078 78.7305H66.6576V95.1719H63.261ZM71.9049 95.1719V92.836L77.2198 87.2164C77.9721 86.3813 78.5062 85.6779 78.8222 85.1062C79.1457 84.5269 79.3074 84.0041 79.3074 83.5377C79.3074 82.8154 79.1269 82.255 78.7658 81.8563C78.4122 81.45 77.9082 81.2469 77.2537 81.2469C76.7873 81.2469 76.381 81.3635 76.035 81.5967C75.6964 81.8299 75.4369 82.1534 75.2563 82.5672C75.0758 82.9734 74.9855 83.4361 74.9855 83.9552H71.5776C71.5776 82.9546 71.8146 82.0406 72.2885 81.2131C72.7625 80.378 73.4358 79.7198 74.3084 79.2383C75.1811 78.7493 76.1854 78.5048 77.3214 78.5048C78.4799 78.5048 79.4617 78.6929 80.2666 79.069C81.0716 79.4376 81.6809 79.9755 82.0947 80.6827C82.5084 81.3823 82.7153 82.2249 82.7153 83.2104C82.7153 83.9251 82.5686 84.6172 82.2752 85.2867C81.9894 85.9563 81.5831 86.6258 81.0565 87.2954C80.5374 87.9574 79.8566 88.7247 79.014 89.5974L76.3058 92.4298H83.2118V95.1719H71.9049ZM96.3469 88.4012C96.3469 89.981 96.1174 91.2938 95.6585 92.3395C95.1996 93.3777 94.5527 94.1488 93.7176 94.6528C92.8901 95.1493 91.9084 95.3976 90.7724 95.3976C89.6364 95.3976 88.6472 95.1493 87.8046 94.6528C86.9696 94.1488 86.3188 93.3777 85.8524 92.3395C85.386 91.2938 85.1528 89.981 85.1528 88.4012V85.4899C85.1528 83.91 85.3822 82.601 85.8411 81.5629C86.3075 80.5247 86.9583 79.7574 87.7933 79.2609C88.6284 78.7643 89.6139 78.5161 90.7498 78.5161C91.8858 78.5161 92.8713 78.7643 93.7063 79.2609C94.5414 79.7574 95.1884 80.5247 95.6473 81.5629C96.1137 82.601 96.3469 83.91 96.3469 85.4899V88.4012ZM92.939 85.0272C92.939 83.6806 92.7547 82.7177 92.3861 82.1384C92.0174 81.5516 91.472 81.2582 90.7498 81.2582C90.0276 81.2582 89.4822 81.5516 89.1136 82.1384C88.745 82.7177 88.5607 83.6806 88.5607 85.0272V88.8526C88.5607 90.2143 88.745 91.1885 89.1136 91.7753C89.4897 92.3621 90.0427 92.6555 90.7724 92.6555C91.4946 92.6555 92.0363 92.3621 92.3974 91.7753C92.7585 91.1885 92.939 90.2143 92.939 88.8526V85.0272ZM100.703 91.685C101.079 91.685 101.414 91.764 101.707 91.922C102 92.0799 102.226 92.2981 102.384 92.5765C102.542 92.8473 102.621 93.152 102.621 93.4905C102.621 93.829 102.542 94.1375 102.384 94.4158C102.226 94.6866 102 94.901 101.707 95.059C101.414 95.217 101.079 95.296 100.703 95.296C100.327 95.296 99.9918 95.217 99.6984 95.059C99.4125 94.901 99.1906 94.6866 99.0326 94.4158C98.8746 94.1375 98.7956 93.829 98.7956 93.4905C98.7956 93.152 98.8746 92.8473 99.0326 92.5765C99.1906 92.2981 99.4125 92.0799 99.6984 91.922C99.9918 91.764 100.327 91.685 100.703 91.685ZM105.284 95.1719V92.836L110.599 87.2164C111.351 86.3813 111.886 85.6779 112.201 85.1062C112.525 84.5269 112.687 84.0041 112.687 83.5377C112.687 82.8154 112.506 82.255 112.145 81.8563C111.791 81.45 111.287 81.2469 110.633 81.2469C110.167 81.2469 109.76 81.3635 109.414 81.5967C109.076 81.8299 108.816 82.1534 108.636 82.5672C108.455 82.9734 108.365 83.4361 108.365 83.9552H104.957C104.957 82.9546 105.194 82.0406 105.668 81.2131C106.142 80.378 106.815 79.7198 107.688 79.2383C108.56 78.7493 109.565 78.5048 110.701 78.5048C111.859 78.5048 112.841 78.6929 113.646 79.069C114.451 79.4376 115.06 79.9755 115.474 80.6827C115.888 81.3823 116.095 82.2249 116.095 83.2104C116.095 83.9251 115.948 84.6172 115.655 85.2867C115.369 85.9563 114.962 86.6258 114.436 87.2954C113.917 87.9574 113.236 88.7247 112.393 89.5974L109.685 92.4298H116.591V95.1719H105.284ZM129.726 88.4012C129.726 89.981 129.497 91.2938 129.038 92.3395C128.579 93.3777 127.932 94.1488 127.097 94.6528C126.269 95.1493 125.288 95.3976 124.152 95.3976C123.016 95.3976 122.026 95.1493 121.184 94.6528C120.349 94.1488 119.698 93.3777 119.232 92.3395C118.765 91.2938 118.532 89.981 118.532 88.4012V85.4899C118.532 83.91 118.761 82.601 119.22 81.5629C119.687 80.5247 120.338 79.7574 121.173 79.2609C122.008 78.7643 122.993 78.5161 124.129 78.5161C125.265 78.5161 126.251 78.7643 127.086 79.2609C127.921 79.7574 128.568 80.5247 129.027 81.5629C129.493 82.601 129.726 83.91 129.726 85.4899V88.4012ZM126.318 85.0272C126.318 83.6806 126.134 82.7177 125.765 82.1384C125.397 81.5516 124.851 81.2582 124.129 81.2582C123.407 81.2582 122.861 81.5516 122.493 82.1384C122.124 82.7177 121.94 83.6806 121.94 85.0272V88.8526C121.94 90.2143 122.124 91.1885 122.493 91.7753C122.869 92.3621 123.422 92.6555 124.152 92.6555C124.874 92.6555 125.416 92.3621 125.777 91.7753C126.138 91.1885 126.318 90.2143 126.318 88.8526V85.0272Z" fill="#303133"/>
<path d="M71.7254 49.8404C71.0333 49.6267 70.4992 49.3634 70.123 49.0505C69.7469 48.7375 69.5588 48.3298 69.5588 47.8273C69.5588 47.4752 69.6566 47.1607 69.8522 46.8839C70.0508 46.607 70.3276 46.3919 70.6827 46.2384C71.0378 46.0819 71.444 46.0037 71.9014 46.0037C72.3799 46.0037 72.7982 46.094 73.1563 46.2745C73.5174 46.4521 73.7942 46.6943 73.9868 47.0012C74.1794 47.3052 74.2757 47.6422 74.2757 48.0123H73.1111C73.1111 47.6843 73.0073 47.4225 72.7997 47.2269C72.595 47.0313 72.2911 46.9335 71.8879 46.9335C71.5087 46.9335 71.2199 47.0163 71.0212 47.1818C70.8256 47.3443 70.7279 47.5579 70.7279 47.8227C70.7279 48.0575 70.8392 48.2561 71.0619 48.4186C71.2845 48.5811 71.6351 48.7315 72.1136 48.8699C72.6131 49.0174 73.0208 49.1859 73.3368 49.3755C73.6558 49.5651 73.8935 49.7892 74.05 50.048C74.2065 50.3068 74.2847 50.6092 74.2847 50.9553C74.2847 51.3224 74.1884 51.6414 73.9958 51.9122C73.8032 52.183 73.5294 52.3922 73.1743 52.5396C72.8222 52.6841 72.41 52.7563 71.9375 52.7563C71.4982 52.7563 71.0799 52.6781 70.6827 52.5216C70.2885 52.3621 69.968 52.1244 69.7213 51.8084C69.4775 51.4924 69.3557 51.1118 69.3557 50.6664H70.5247C70.5247 51.0606 70.6526 51.354 70.9084 51.5466C71.1672 51.7362 71.5102 51.831 71.9375 51.831C72.3167 51.831 72.6071 51.7527 72.8087 51.5963C73.0103 51.4398 73.1111 51.2291 73.1111 50.9643C73.1111 50.7838 73.0735 50.6333 72.9983 50.513C72.923 50.3896 72.7861 50.2752 72.5875 50.1699C72.3919 50.0646 72.1045 49.9547 71.7254 49.8404ZM79.2182 47.7821V52.666H78.1575L78.1304 52.183C77.8114 52.5652 77.3556 52.7563 76.7628 52.7563C76.2572 52.7563 75.8615 52.6088 75.5756 52.3139C75.2898 52.019 75.1468 51.5601 75.1468 50.9372V47.7821H76.2708V50.9463C76.2708 51.2652 76.34 51.4939 76.4784 51.6324C76.6198 51.7678 76.8049 51.8355 77.0336 51.8355C77.5542 51.8355 77.9062 51.6504 78.0898 51.2803V47.7821H79.2182ZM84.3414 51.0411C84.3323 51.354 84.2375 51.6414 84.057 51.9032C83.8764 52.165 83.6357 52.3726 83.3348 52.5261C83.0339 52.6796 82.7044 52.7563 82.3463 52.7563C81.8618 52.7563 81.451 52.648 81.114 52.4313C80.78 52.2146 80.5302 51.9212 80.3647 51.5511C80.1992 51.178 80.1165 50.7612 80.1165 50.3008V50.1473C80.1165 49.6869 80.1992 49.2717 80.3647 48.9015C80.5332 48.5284 80.7845 48.2335 81.1185 48.0168C81.4526 47.8002 81.8603 47.6918 82.3418 47.6918C82.7299 47.6918 83.073 47.7701 83.3709 47.9266C83.6718 48.08 83.9065 48.2967 84.075 48.5765C84.2436 48.8564 84.3323 49.1769 84.3414 49.538H83.2806C83.2716 49.3634 83.228 49.2055 83.1497 49.064C83.0715 48.9196 82.9617 48.8052 82.8202 48.721C82.6818 48.6367 82.5178 48.5946 82.3282 48.5946C81.928 48.5946 81.6466 48.7405 81.4841 49.0324C81.3217 49.3243 81.2404 49.696 81.2404 50.1473V50.3008C81.2404 51.336 81.6045 51.8535 82.3327 51.8535C82.5043 51.8535 82.6607 51.8189 82.8022 51.7497C82.9436 51.6805 83.0564 51.5842 83.1407 51.4608C83.225 51.3375 83.2716 51.1975 83.2806 51.0411H84.3414ZM89.1801 51.0411C89.1711 51.354 89.0763 51.6414 88.8957 51.9032C88.7152 52.165 88.4745 52.3726 88.1735 52.5261C87.8726 52.6796 87.5431 52.7563 87.185 52.7563C86.7006 52.7563 86.2898 52.648 85.9528 52.4313C85.6188 52.2146 85.369 51.9212 85.2035 51.5511C85.038 51.178 84.9552 50.7612 84.9552 50.3008V50.1473C84.9552 49.6869 85.038 49.2717 85.2035 48.9015C85.372 48.5284 85.6233 48.2335 85.9573 48.0168C86.2913 47.8002 86.699 47.6918 87.1805 47.6918C87.5687 47.6918 87.9117 47.7701 88.2097 47.9266C88.5106 48.08 88.7453 48.2967 88.9138 48.5765C89.0823 48.8564 89.1711 49.1769 89.1801 49.538H88.1194C88.1104 49.3634 88.0667 49.2055 87.9885 49.064C87.9102 48.9196 87.8004 48.8052 87.659 48.721C87.5206 48.6367 87.3566 48.5946 87.167 48.5946C86.7668 48.5946 86.4854 48.7405 86.3229 49.0324C86.1604 49.3243 86.0792 49.696 86.0792 50.1473V50.3008C86.0792 51.336 86.4433 51.8535 87.1715 51.8535C87.343 51.8535 87.4995 51.8189 87.6409 51.7497C87.7824 51.6805 87.8952 51.5842 87.9795 51.4608C88.0637 51.3375 88.1104 51.1975 88.1194 51.0411H89.1801ZM94.1272 50.5761H90.945C90.9661 50.8259 91.0308 51.0471 91.1391 51.2397C91.2474 51.4323 91.3934 51.5827 91.5769 51.691C91.7635 51.7994 91.9802 51.8535 92.2269 51.8535C92.7324 51.8535 93.1387 51.6549 93.4456 51.2577L94.0459 51.84C93.8684 52.1018 93.6217 52.32 93.3057 52.4945C92.9897 52.669 92.6076 52.7563 92.1592 52.7563C91.6837 52.7563 91.2685 52.654 90.9134 52.4494C90.5583 52.2417 90.286 51.9589 90.0964 51.6008C89.9068 51.2427 89.812 50.841 89.812 50.3956V50.2105C89.812 49.708 89.9083 49.2672 90.1009 48.888C90.2935 48.5058 90.5583 48.2109 90.8953 48.0033C91.2324 47.7957 91.6115 47.6918 92.0328 47.6918C92.4932 47.6918 92.8799 47.7927 93.1928 47.9943C93.5058 48.1959 93.739 48.4787 93.8925 48.8429C94.049 49.204 94.1272 49.6237 94.1272 50.1022V50.5761ZM93.0168 49.6779C93.0018 49.3619 92.916 49.1032 92.7595 48.9015C92.6031 48.6969 92.3593 48.5946 92.0283 48.5946C91.7334 48.5946 91.4957 48.6969 91.3151 48.9015C91.1346 49.1062 91.0187 49.3935 90.9676 49.7637H93.0168V49.6779ZM96.6504 50.6258C96.0907 50.5084 95.6589 50.3354 95.3549 50.1067C95.051 49.878 94.8991 49.5681 94.8991 49.1769C94.8991 48.9091 94.9758 48.6623 95.1293 48.4366C95.2857 48.2079 95.5069 48.0274 95.7928 47.895C96.0817 47.7596 96.4142 47.6918 96.7903 47.6918C97.1905 47.6918 97.5381 47.7596 97.833 47.895C98.1309 48.0304 98.3596 48.217 98.5191 48.4547C98.6786 48.6894 98.7583 48.9542 98.7583 49.2491H97.6344C97.6344 49.1197 97.6013 49.0008 97.5351 48.8925C97.4719 48.7812 97.3771 48.6924 97.2507 48.6262C97.1243 48.56 96.9709 48.5269 96.7903 48.5269C96.5345 48.5269 96.3374 48.5841 96.199 48.6984C96.0606 48.8128 95.9914 48.9557 95.9914 49.1272C95.9914 49.2356 96.02 49.3273 96.0771 49.4026C96.1373 49.4778 96.2396 49.5455 96.3841 49.6057C96.5285 49.6659 96.7286 49.723 96.9844 49.7772C97.3816 49.8615 97.7111 49.9638 97.9729 50.0841C98.2347 50.2045 98.4363 50.361 98.5778 50.5536C98.7192 50.7462 98.7899 50.9869 98.7899 51.2758C98.7899 51.5616 98.7072 51.8174 98.5417 52.0431C98.3792 52.2688 98.1475 52.4448 97.8465 52.5712C97.5456 52.6946 97.1981 52.7563 96.8039 52.7563C96.3766 52.7563 96.0064 52.6781 95.6935 52.5216C95.3805 52.3651 95.1428 52.162 94.9803 51.9122C94.8178 51.6625 94.7366 51.3992 94.7366 51.1223H95.8244C95.8364 51.3961 95.9372 51.5978 96.1268 51.7272C96.3194 51.8565 96.5511 51.9212 96.8219 51.9212C97.0957 51.9212 97.3079 51.8686 97.4584 51.7633C97.6118 51.6549 97.6886 51.512 97.6886 51.3345C97.6886 51.2201 97.6615 51.1223 97.6073 51.0411C97.5531 50.9598 97.4493 50.8846 97.2959 50.8154C97.1454 50.7462 96.9302 50.683 96.6504 50.6258ZM101.426 50.6258C100.866 50.5084 100.434 50.3354 100.131 50.1067C99.8266 49.878 99.6746 49.5681 99.6746 49.1769C99.6746 48.9091 99.7513 48.6623 99.9048 48.4366C100.061 48.2079 100.282 48.0274 100.568 47.895C100.857 47.7596 101.19 47.6918 101.566 47.6918C101.966 47.6918 102.314 47.7596 102.609 47.895C102.906 48.0304 103.135 48.217 103.295 48.4547C103.454 48.6894 103.534 48.9542 103.534 49.2491H102.41C102.41 49.1197 102.377 49.0008 102.311 48.8925C102.247 48.7812 102.153 48.6924 102.026 48.6262C101.9 48.56 101.746 48.5269 101.566 48.5269C101.31 48.5269 101.113 48.5841 100.975 48.6984C100.836 48.8128 100.767 48.9557 100.767 49.1272C100.767 49.2356 100.796 49.3273 100.853 49.4026C100.913 49.4778 101.015 49.5455 101.16 49.6057C101.304 49.6659 101.504 49.723 101.76 49.7772C102.157 49.8615 102.487 49.9638 102.748 50.0841C103.01 50.2045 103.212 50.361 103.353 50.5536C103.495 50.7462 103.565 50.9869 103.565 51.2758C103.565 51.5616 103.483 51.8174 103.317 52.0431C103.155 52.2688 102.923 52.4448 102.622 52.5712C102.321 52.6946 101.974 52.7563 101.579 52.7563C101.152 52.7563 100.782 52.6781 100.469 52.5216C100.156 52.3651 99.9184 52.162 99.7559 51.9122C99.5934 51.6625 99.5121 51.3992 99.5121 51.1223H100.6C100.612 51.3961 100.713 51.5978 100.902 51.7272C101.095 51.8565 101.327 51.9212 101.597 51.9212C101.871 51.9212 102.083 51.8686 102.234 51.7633C102.387 51.6549 102.464 51.512 102.464 51.3345C102.464 51.2201 102.437 51.1223 102.383 51.0411C102.329 50.9598 102.225 50.8846 102.071 50.8154C101.921 50.7462 101.706 50.683 101.426 50.6258ZM104.739 50.7161L104.626 46.094H105.813L105.7 50.7161H104.739ZM105.231 51.524C105.424 51.524 105.577 51.5812 105.691 51.6956C105.809 51.8099 105.867 51.9543 105.867 52.1289C105.867 52.3034 105.81 52.4479 105.696 52.5622C105.582 52.6735 105.427 52.7292 105.231 52.7292C105.035 52.7292 104.88 52.6735 104.766 52.5622C104.652 52.4479 104.595 52.3034 104.595 52.1289C104.595 51.9543 104.652 51.8099 104.766 51.6956C104.88 51.5812 105.035 51.524 105.231 51.524Z" fill="black"/>
<path d="M26.7412 145.007V145.57H23.9643H23.401V140.313H24.1016H26.7051V140.88H24.1016V142.573H26.3729V143.136H24.1016V145.007H26.7412ZM29.6734 141.663H30.4606L29.1859 143.591L30.5003 145.57H29.7239L28.8248 144.101L27.9292 145.57H27.142L28.4601 143.591L27.1818 141.663H27.9617L28.8139 143.09L29.6734 141.663ZM34.2232 144.335C34.2112 144.564 34.133 144.78 33.9885 144.982C33.8441 145.182 33.6539 145.342 33.418 145.462C33.1845 145.582 32.9329 145.643 32.6633 145.643C32.2853 145.643 31.9651 145.556 31.7027 145.383C31.4428 145.207 31.2478 144.972 31.1178 144.678C30.9878 144.382 30.9228 144.054 30.9228 143.693V143.541C30.9228 143.18 30.9878 142.852 31.1178 142.559C31.2478 142.263 31.4428 142.028 31.7027 141.855C31.9651 141.679 32.2853 141.591 32.6633 141.591C32.9618 141.591 33.2266 141.652 33.4577 141.775C33.6912 141.898 33.8742 142.068 34.0066 142.284C34.139 142.499 34.2112 142.739 34.2232 143.006H33.5841C33.572 142.845 33.5263 142.698 33.4469 142.566C33.3674 142.431 33.2603 142.325 33.1255 142.248C32.9907 142.171 32.8366 142.133 32.6633 142.133C32.4057 142.133 32.1975 142.2 32.0386 142.335C31.8797 142.467 31.7665 142.639 31.6991 142.851C31.6317 143.061 31.598 143.291 31.598 143.541V143.693C31.598 144.092 31.6799 144.427 31.8436 144.696C32.0097 144.966 32.2829 145.101 32.6633 145.101C32.8198 145.101 32.9654 145.068 33.1002 145.003C33.2374 144.936 33.3494 144.844 33.436 144.729C33.5227 144.611 33.572 144.48 33.5841 144.335H34.2232ZM36.7979 141.591C37.6332 141.591 38.0509 142.064 38.0509 143.01V145.57H37.3756V143.003C37.3756 142.704 37.3106 142.488 37.1806 142.353C37.0531 142.218 36.8593 142.151 36.5993 142.151C36.3922 142.151 36.2057 142.207 36.0396 142.32C35.8759 142.434 35.7459 142.585 35.6496 142.775V145.57H34.9743V140.024H35.6496V142.125C35.7916 141.954 35.9601 141.823 36.1551 141.732C36.3501 141.638 36.5644 141.591 36.7979 141.591ZM42.0266 144.718C42.0266 144.855 42.0387 144.997 42.0627 145.144C42.0868 145.289 42.1205 145.411 42.1638 145.513V145.57H41.4597C41.4188 145.476 41.3875 145.34 41.3658 145.162C41.231 145.307 41.0685 145.423 40.8783 145.513C40.6905 145.599 40.4835 145.643 40.2572 145.643C39.9972 145.643 39.7661 145.592 39.5639 145.491C39.3641 145.387 39.2088 145.248 39.0981 145.072C38.9898 144.896 38.9356 144.701 38.9356 144.487C38.9356 144.21 39.0066 143.975 39.1486 143.783C39.2931 143.59 39.4965 143.446 39.7589 143.35C40.0237 143.251 40.3355 143.201 40.6942 143.201H41.3514V142.891C41.3514 142.653 41.2803 142.466 41.1383 142.331C40.9987 142.194 40.7965 142.125 40.5317 142.125C40.3704 142.125 40.2259 142.154 40.0983 142.212C39.9708 142.267 39.8709 142.343 39.7986 142.44C39.7288 142.533 39.6939 142.636 39.6939 142.747H39.0187C39.0187 142.556 39.0837 142.372 39.2136 142.194C39.3436 142.016 39.5266 141.871 39.7625 141.761C39.9984 141.648 40.2681 141.591 40.5714 141.591C40.8603 141.591 41.113 141.64 41.3297 141.739C41.5488 141.835 41.7197 141.982 41.8425 142.18C41.9652 142.375 42.0266 142.614 42.0266 142.898V144.718ZM40.3547 145.065C40.5088 145.065 40.652 145.038 40.7844 144.985C40.9192 144.93 41.0348 144.858 41.1311 144.769C41.2274 144.68 41.3008 144.583 41.3514 144.48V143.671H40.8025C40.4173 143.671 40.1224 143.732 39.9178 143.855C39.7132 143.975 39.6109 144.155 39.6109 144.393C39.6109 144.521 39.6397 144.635 39.6975 144.736C39.7553 144.837 39.8396 144.918 39.9503 144.978C40.061 145.036 40.1958 145.065 40.3547 145.065ZM44.901 141.591C45.7363 141.591 46.154 142.064 46.154 143.01V145.57H45.4787V143.003C45.4787 142.704 45.4138 142.488 45.2838 142.353C45.1562 142.218 44.9624 142.151 44.7024 142.151C44.4954 142.151 44.3088 142.207 44.1427 142.32C43.979 142.434 43.849 142.585 43.7527 142.775V145.57H43.0774V141.663H43.7166L43.7382 142.143C43.8803 141.968 44.05 141.832 44.2474 141.735C44.4448 141.639 44.6627 141.591 44.901 141.591ZM50.3103 141.663V145.487C50.3103 145.827 50.2405 146.118 50.1008 146.361C49.9612 146.607 49.7662 146.793 49.5159 146.921C49.2679 147.048 48.9802 147.112 48.6528 147.112C48.5012 147.112 48.3351 147.089 48.1545 147.044C47.974 146.998 47.797 146.924 47.6237 146.823C47.4528 146.722 47.3131 146.592 47.2048 146.433L47.5551 146.04C47.844 146.394 48.193 146.571 48.6023 146.571C48.9224 146.571 49.174 146.479 49.357 146.296C49.5423 146.116 49.635 145.857 49.635 145.52V145.184C49.3702 145.49 49.0067 145.643 48.5445 145.643C48.2364 145.643 47.9655 145.557 47.732 145.386C47.5009 145.215 47.3216 144.981 47.194 144.682C47.0688 144.381 47.0062 144.04 47.0062 143.66V143.584C47.0062 143.189 47.0688 142.842 47.194 142.541C47.3192 142.24 47.4985 142.006 47.732 141.84C47.9655 141.674 48.2388 141.591 48.5517 141.591C49.0284 141.591 49.4003 141.758 49.6675 142.093L49.6964 141.663H50.3103ZM48.7106 145.079C49.1295 145.079 49.4376 144.888 49.635 144.505V142.71C49.5435 142.537 49.422 142.401 49.2703 142.302C49.1186 142.201 48.9345 142.151 48.7178 142.151C48.4843 142.151 48.2893 142.214 48.1328 142.342C47.9788 142.467 47.8644 142.638 47.7898 142.855C47.7176 143.071 47.6815 143.315 47.6815 143.584V143.66C47.6815 143.93 47.7176 144.172 47.7898 144.386C47.8644 144.598 47.9788 144.766 48.1328 144.891C48.2869 145.017 48.4795 145.079 48.7106 145.079ZM54.4666 143.801H51.8233C51.8305 144.044 51.8811 144.264 51.975 144.462C52.0688 144.659 52.2012 144.816 52.3722 144.931C52.5455 145.044 52.7477 145.101 52.9788 145.101C53.2051 145.101 53.4001 145.055 53.5638 144.964C53.7299 144.872 53.878 144.741 54.008 144.57L54.416 144.888C54.2716 145.109 54.079 145.291 53.8382 145.433C53.5975 145.573 53.299 145.643 52.9427 145.643C52.5864 145.643 52.2723 145.562 52.0002 145.401C51.7282 145.239 51.5176 145.015 51.3683 144.729C51.2215 144.442 51.148 144.117 51.148 143.754V143.599C51.148 143.192 51.2275 142.837 51.3864 142.533C51.5452 142.228 51.7547 141.994 52.0147 141.833C52.2771 141.672 52.5575 141.591 52.856 141.591C53.2196 141.591 53.5205 141.673 53.7588 141.837C53.9995 141.998 54.1777 142.222 54.2932 142.508C54.4088 142.795 54.4666 143.126 54.4666 143.501V143.801ZM53.7913 143.209C53.772 142.903 53.689 142.648 53.5421 142.443C53.3977 142.236 53.169 142.133 52.856 142.133C52.5864 142.133 52.3613 142.231 52.1808 142.429C52.0026 142.624 51.8907 142.901 51.845 143.259H53.7913V143.209ZM61.0025 145.527V145.57H60.2514L59.1103 143.44H57.8862V145.57H57.1856V140.313H58.9262C59.5208 140.313 59.977 140.449 60.2947 140.721C60.6125 140.99 60.7714 141.38 60.7714 141.891C60.7714 142.216 60.6823 142.501 60.5042 142.747C60.3284 142.99 60.0829 143.173 59.7675 143.295L61.0025 145.527ZM58.9442 142.876C59.1849 142.876 59.3896 142.833 59.5581 142.747C59.7266 142.66 59.853 142.542 59.9372 142.393C60.0239 142.243 60.0672 142.076 60.0672 141.891C60.0672 141.573 59.9733 141.325 59.7856 141.147C59.5978 140.969 59.3113 140.88 58.9262 140.88H57.8862V142.876H58.9442ZM64.6171 144.718C64.6171 144.855 64.6291 144.997 64.6532 145.144C64.6773 145.289 64.711 145.411 64.7543 145.513V145.57H64.0502C64.0093 145.476 63.978 145.34 63.9563 145.162C63.8215 145.307 63.659 145.423 63.4688 145.513C63.281 145.599 63.074 145.643 62.8477 145.643C62.5877 145.643 62.3566 145.592 62.1544 145.491C61.9546 145.387 61.7993 145.248 61.6886 145.072C61.5802 144.896 61.5261 144.701 61.5261 144.487C61.5261 144.21 61.5971 143.975 61.7391 143.783C61.8836 143.59 62.087 143.446 62.3494 143.35C62.6142 143.251 62.9259 143.201 63.2846 143.201H63.9418V142.891C63.9418 142.653 63.8708 142.466 63.7288 142.331C63.5892 142.194 63.387 142.125 63.1221 142.125C62.9609 142.125 62.8164 142.154 62.6888 142.212C62.5612 142.267 62.4613 142.343 62.3891 142.44C62.3193 142.533 62.2844 142.636 62.2844 142.747H61.6091C61.6091 142.556 61.6741 142.372 61.8041 142.194C61.9341 142.016 62.1171 141.871 62.353 141.761C62.5889 141.648 62.8585 141.591 63.1619 141.591C63.4507 141.591 63.7035 141.64 63.9202 141.739C64.1392 141.835 64.3102 141.982 64.4329 142.18C64.5557 142.375 64.6171 142.614 64.6171 142.898V144.718ZM62.9452 145.065C63.0993 145.065 63.2425 145.038 63.3749 144.985C63.5097 144.93 63.6253 144.858 63.7216 144.769C63.8179 144.68 63.8913 144.583 63.9418 144.48V143.671H63.393C63.0078 143.671 62.7129 143.732 62.5083 143.855C62.3037 143.975 62.2013 144.155 62.2013 144.393C62.2013 144.521 62.2302 144.635 62.288 144.736C62.3458 144.837 62.43 144.918 62.5408 144.978C62.6515 145.036 62.7863 145.065 62.9452 145.065ZM67.3254 145.57C67.1713 145.618 66.9992 145.643 66.809 145.643C66.537 145.643 66.3179 145.561 66.1518 145.397C65.9881 145.233 65.9062 144.967 65.9062 144.599V142.172H65.1949V141.663H65.9062V140.714H66.5815V141.663H67.3109V142.172H66.5815V144.603C66.5815 144.788 66.62 144.913 66.697 144.978C66.7741 145.041 66.8788 145.072 67.0112 145.072C67.0618 145.072 67.1171 145.068 67.1773 145.061C67.2375 145.052 67.2856 145.042 67.3218 145.032L67.3254 145.57ZM71.2361 143.801H68.5928C68.6001 144.044 68.6506 144.264 68.7445 144.462C68.8384 144.659 68.9708 144.816 69.1417 144.931C69.315 145.044 69.5172 145.101 69.7484 145.101C69.9746 145.101 70.1696 145.055 70.3333 144.964C70.4994 144.872 70.6475 144.741 70.7775 144.57L71.1855 144.888C71.0411 145.109 70.8485 145.291 70.6078 145.433C70.367 145.573 70.0685 145.643 69.7122 145.643C69.356 145.643 69.0418 145.562 68.7698 145.401C68.4977 145.239 68.2871 145.015 68.1378 144.729C67.991 144.442 67.9176 144.117 67.9176 143.754V143.599C67.9176 143.192 67.997 142.837 68.1559 142.533C68.3148 142.228 68.5242 141.994 68.7842 141.833C69.0466 141.672 69.3271 141.591 69.6256 141.591C69.9891 141.591 70.29 141.673 70.5283 141.837C70.7691 141.998 70.9472 142.222 71.0628 142.508C71.1783 142.795 71.2361 143.126 71.2361 143.501V143.801ZM70.5608 143.209C70.5416 142.903 70.4585 142.648 70.3117 142.443C70.1672 142.236 69.9385 142.133 69.6256 142.133C69.356 142.133 69.1309 142.231 68.9503 142.429C68.7722 142.624 68.6602 142.901 68.6145 143.259H70.5608V143.209ZM26.7412 162.57L24.1016 158.504V162.57H23.401V157.313H24.1016L26.752 161.39V157.313H27.4454V162.57H26.7412ZM31.7244 160.801H29.0812C29.0884 161.044 29.1389 161.264 29.2328 161.462C29.3267 161.659 29.4591 161.816 29.63 161.931C29.8034 162.044 30.0056 162.101 30.2367 162.101C30.463 162.101 30.658 162.055 30.8217 161.964C30.9878 161.872 31.1358 161.741 31.2658 161.57L31.6739 161.888C31.5294 162.109 31.3368 162.291 31.0961 162.433C30.8554 162.573 30.5569 162.643 30.2006 162.643C29.8443 162.643 29.5301 162.562 29.2581 162.401C28.9861 162.239 28.7754 162.015 28.6262 161.729C28.4793 161.442 28.4059 161.117 28.4059 160.754V160.599C28.4059 160.192 28.4853 159.837 28.6442 159.533C28.8031 159.228 29.0125 158.994 29.2725 158.833C29.5349 158.672 29.8154 158.591 30.1139 158.591C30.4774 158.591 30.7783 158.673 31.0167 158.837C31.2574 158.998 31.4355 159.222 31.5511 159.508C31.6666 159.795 31.7244 160.126 31.7244 160.501V160.801ZM31.0492 160.209C31.0299 159.903 30.9468 159.648 30.8 159.443C30.6556 159.236 30.4269 159.133 30.1139 159.133C29.8443 159.133 29.6192 159.231 29.4386 159.429C29.2605 159.624 29.1486 159.901 29.1028 160.259H31.0492V160.209ZM34.1618 162.57C34.0078 162.618 33.8356 162.643 33.6455 162.643C33.3734 162.643 33.1544 162.561 32.9883 162.397C32.8246 162.233 32.7427 161.967 32.7427 161.599V159.172H32.0313V158.663H32.7427V157.714H33.418V158.663H34.1474V159.172H33.418V161.603C33.418 161.788 33.4565 161.913 33.5335 161.978C33.6106 162.041 33.7153 162.072 33.8477 162.072C33.8982 162.072 33.9536 162.068 34.0138 162.061C34.074 162.052 34.1221 162.042 34.1582 162.032L34.1618 162.57ZM39.8022 158.663L38.6684 162.57H38.2206H38.1231L37.177 159.62L36.2526 162.57H35.8229H35.7074L34.5735 158.663H35.2451L36.0107 161.563L36.917 158.663H37.3612H37.4623L38.3831 161.628L39.1342 158.663H39.8022ZM40.3114 160.577C40.3114 160.199 40.3836 159.86 40.5281 159.559C40.6725 159.258 40.8783 159.022 41.1455 158.851C41.4152 158.678 41.7281 158.591 42.0844 158.591C42.4455 158.591 42.7609 158.678 43.0305 158.851C43.3001 159.022 43.5071 159.258 43.6516 159.559C43.796 159.86 43.8682 160.199 43.8682 160.577V160.66C43.8682 161.038 43.796 161.377 43.6516 161.678C43.5071 161.977 43.3001 162.213 43.0305 162.386C42.7633 162.557 42.4503 162.643 42.0916 162.643C41.7329 162.643 41.4188 162.557 41.1491 162.386C40.8819 162.213 40.6749 161.977 40.5281 161.678C40.3836 161.377 40.3114 161.038 40.3114 160.66V160.577ZM40.9867 160.66C40.9867 160.925 41.0276 161.167 41.1094 161.386C41.1937 161.605 41.3189 161.78 41.485 161.909C41.6511 162.037 41.8533 162.101 42.0916 162.101C42.3275 162.101 42.5286 162.037 42.6947 161.909C42.8608 161.78 42.9847 161.605 43.0666 161.386C43.1509 161.167 43.193 160.925 43.193 160.66V160.577C43.193 160.312 43.1509 160.07 43.0666 159.851C42.9823 159.632 42.8572 159.458 42.691 159.328C42.5249 159.198 42.3227 159.133 42.0844 159.133C41.8485 159.133 41.6475 159.198 41.4814 159.328C41.3177 159.458 41.1937 159.632 41.1094 159.851C41.0276 160.07 40.9867 160.312 40.9867 160.577V160.66ZM46.3057 158.591C46.349 158.591 46.4032 158.597 46.4682 158.609C46.5332 158.619 46.5777 158.629 46.6018 158.642V159.259C46.4983 159.24 46.3887 159.23 46.2732 159.23C46.0517 159.23 45.8663 159.279 45.7171 159.378C45.5702 159.477 45.4595 159.615 45.3849 159.793V162.57H44.7096V158.663H45.3668L45.3813 159.107C45.4824 158.944 45.61 158.817 45.764 158.728C45.9181 158.637 46.0986 158.591 46.3057 158.591ZM48.3134 160.758L47.8945 161.191V162.57H47.2193V157.024H47.8945V160.375L48.252 159.952L49.4581 158.663H50.2778L48.7575 160.292L50.4583 162.57H49.6639L48.3134 160.758ZM56.7812 160.902C56.7427 161.244 56.6452 161.546 56.4887 161.808C56.3322 162.068 56.1108 162.273 55.8243 162.422C55.5402 162.569 55.1936 162.643 54.7843 162.643C54.3775 162.643 54.0188 162.543 53.7082 162.343C53.3977 162.141 53.157 161.855 52.986 161.487C52.8151 161.119 52.7297 160.693 52.7297 160.209V159.678C52.7297 159.192 52.8151 158.764 52.986 158.396C53.1594 158.028 53.4061 157.744 53.7263 157.544C54.0465 157.342 54.4208 157.24 54.8493 157.24C55.2369 157.24 55.5691 157.314 55.846 157.461C56.1228 157.605 56.3383 157.81 56.4923 158.075C56.6488 158.337 56.7451 158.645 56.7812 158.999H56.0807C56.0253 158.607 55.9025 158.311 55.7124 158.111C55.5222 157.908 55.2345 157.807 54.8493 157.807C54.5436 157.807 54.2848 157.884 54.073 158.038C53.8611 158.193 53.701 158.409 53.5927 158.688C53.4868 158.968 53.4338 159.295 53.4338 159.671V160.209C53.4338 160.565 53.4832 160.884 53.5819 161.166C53.6806 161.447 53.831 161.67 54.0332 161.834C54.2354 161.997 54.4858 162.079 54.7843 162.079C55.0708 162.079 55.3019 162.035 55.4776 161.946C55.6558 161.854 55.7894 161.723 55.8785 161.552C55.9699 161.381 56.0373 161.164 56.0807 160.902H56.7812ZM57.4492 160.577C57.4492 160.199 57.5215 159.86 57.6659 159.559C57.8103 159.258 58.0162 159.022 58.2834 158.851C58.553 158.678 58.866 158.591 59.2223 158.591C59.5834 158.591 59.8987 158.678 60.1683 158.851C60.438 159.022 60.645 159.258 60.7894 159.559C60.9339 159.86 61.0061 160.199 61.0061 160.577V160.66C61.0061 161.038 60.9339 161.377 60.7894 161.678C60.645 161.977 60.438 162.213 60.1683 162.386C59.9011 162.557 59.5882 162.643 59.2295 162.643C58.8708 162.643 58.5566 162.557 58.287 162.386C58.0198 162.213 57.8128 161.977 57.6659 161.678C57.5215 161.377 57.4492 161.038 57.4492 160.66V160.577ZM58.1245 160.66C58.1245 160.925 58.1654 161.167 58.2473 161.386C58.3315 161.605 58.4567 161.78 58.6228 161.909C58.7889 162.037 58.9911 162.101 59.2295 162.101C59.4654 162.101 59.6664 162.037 59.8325 161.909C59.9986 161.78 60.1226 161.605 60.2044 161.386C60.2887 161.167 60.3308 160.925 60.3308 160.66V160.577C60.3308 160.312 60.2887 160.07 60.2044 159.851C60.1202 159.632 59.995 159.458 59.8289 159.328C59.6628 159.198 59.4606 159.133 59.2223 159.133C58.9863 159.133 58.7853 159.198 58.6192 159.328C58.4555 159.458 58.3315 159.632 58.2473 159.851C58.1654 160.07 58.1245 160.312 58.1245 160.577V160.66ZM63.2269 160.855C62.7622 160.759 62.4108 160.624 62.1725 160.451C61.9365 160.277 61.8186 160.038 61.8186 159.732C61.8186 159.525 61.8788 159.335 61.9991 159.162C62.1195 158.988 62.2892 158.85 62.5083 158.746C62.7298 158.643 62.9825 158.591 63.2666 158.591C63.5699 158.591 63.8347 158.645 64.061 158.753C64.2873 158.862 64.4594 159.009 64.5774 159.194C64.6978 159.377 64.7579 159.582 64.7579 159.808H64.0827C64.0827 159.697 64.0502 159.59 63.9852 159.487C63.9202 159.383 63.8251 159.299 63.6999 159.234C63.5771 159.166 63.4327 159.133 63.2666 159.133C63.0909 159.133 62.9452 159.16 62.8297 159.216C62.7141 159.269 62.6286 159.34 62.5733 159.429C62.5203 159.515 62.4938 159.609 62.4938 159.71C62.4938 159.814 62.5179 159.901 62.5661 159.97C62.6166 160.038 62.7057 160.099 62.8333 160.155C62.9633 160.21 63.1498 160.264 63.393 160.317C63.7204 160.392 63.9864 160.48 64.191 160.581C64.3956 160.682 64.5473 160.806 64.646 160.953C64.7471 161.099 64.7977 161.278 64.7977 161.487C64.7977 161.713 64.7351 161.914 64.6099 162.09C64.4847 162.263 64.3078 162.399 64.0791 162.498C63.8504 162.594 63.5856 162.643 63.2846 162.643C62.9524 162.643 62.6648 162.584 62.4216 162.466C62.1809 162.345 61.9979 162.188 61.8727 161.993C61.7476 161.798 61.685 161.589 61.685 161.368H62.3602C62.3699 161.541 62.4204 161.683 62.5119 161.794C62.6034 161.902 62.7165 161.981 62.8513 162.029C62.9885 162.077 63.133 162.101 63.2846 162.101C63.4604 162.101 63.6108 162.077 63.736 162.029C63.8636 161.978 63.9599 161.911 64.0249 161.826C64.0899 161.74 64.1224 161.642 64.1224 161.534C64.1224 161.426 64.0995 161.332 64.0538 161.252C64.008 161.173 63.9202 161.099 63.7902 161.032C63.6602 160.965 63.4724 160.906 63.2269 160.855ZM67.3254 162.57C67.1713 162.618 66.9992 162.643 66.809 162.643C66.537 162.643 66.3179 162.561 66.1518 162.397C65.9881 162.233 65.9062 161.967 65.9062 161.599V159.172H65.1949V158.663H65.9062V157.714H66.5815V158.663H67.3109V159.172H66.5815V161.603C66.5815 161.788 66.62 161.913 66.697 161.978C66.7741 162.041 66.8788 162.072 67.0112 162.072C67.0618 162.072 67.1171 162.068 67.1773 162.061C67.2375 162.052 67.2856 162.042 67.3217 162.032L67.3254 162.57ZM27.0337 174.88H25.3474V179.57H24.6541V174.88H22.9713V174.313H25.3474H27.0337V174.88ZM26.8207 177.577C26.8207 177.199 26.8929 176.86 27.0373 176.559C27.1818 176.258 27.3876 176.022 27.6548 175.851C27.9244 175.678 28.2374 175.591 28.5937 175.591C28.9548 175.591 29.2701 175.678 29.5397 175.851C29.8094 176.022 30.0164 176.258 30.1608 176.559C30.3053 176.86 30.3775 177.199 30.3775 177.577V177.66C30.3775 178.038 30.3053 178.377 30.1608 178.678C30.0164 178.977 29.8094 179.213 29.5397 179.386C29.2725 179.557 28.9596 179.643 28.6009 179.643C28.2422 179.643 27.928 179.557 27.6584 179.386C27.3912 179.213 27.1842 178.977 27.0373 178.678C26.8929 178.377 26.8207 178.038 26.8207 177.66V177.577ZM27.4959 177.66C27.4959 177.925 27.5368 178.167 27.6187 178.386C27.7029 178.605 27.8281 178.78 27.9942 178.909C28.1603 179.037 28.3626 179.101 28.6009 179.101C28.8368 179.101 29.0378 179.037 29.2039 178.909C29.37 178.78 29.494 178.605 29.5759 178.386C29.6601 178.167 29.7022 177.925 29.7022 177.66V177.577C29.7022 177.312 29.6601 177.07 29.5759 176.851C29.4916 176.632 29.3664 176.458 29.2003 176.328C29.0342 176.198 28.832 176.133 28.5937 176.133C28.3577 176.133 28.1567 176.198 27.9906 176.328C27.8269 176.458 27.7029 176.632 27.6187 176.851C27.5368 177.07 27.4959 177.312 27.4959 177.577V177.66ZM32.8763 179.57C32.7223 179.618 32.5501 179.643 32.3599 179.643C32.0879 179.643 31.8689 179.561 31.7027 179.397C31.539 179.233 31.4572 178.967 31.4572 178.599V176.172H30.7458V175.663H31.4572V174.714H32.1325V175.663H32.8619V176.172H32.1325V178.603C32.1325 178.788 32.171 178.913 32.248 178.978C32.325 179.041 32.4298 179.072 32.5622 179.072C32.6127 179.072 32.6681 179.068 32.7283 179.061C32.7885 179.052 32.8366 179.042 32.8727 179.032L32.8763 179.57ZM36.6173 178.718C36.6173 178.855 36.6294 178.997 36.6534 179.144C36.6775 179.289 36.7112 179.411 36.7545 179.513V179.57H36.0504C36.0095 179.476 35.9782 179.34 35.9565 179.162C35.8217 179.307 35.6592 179.423 35.469 179.513C35.2813 179.599 35.0742 179.643 34.8479 179.643C34.5879 179.643 34.3568 179.592 34.1546 179.491C33.9548 179.387 33.7995 179.248 33.6888 179.072C33.5805 178.896 33.5263 178.701 33.5263 178.487C33.5263 178.21 33.5973 177.975 33.7394 177.783C33.8838 177.59 34.0872 177.446 34.3496 177.35C34.6144 177.251 34.9262 177.201 35.2849 177.201H35.9421V176.891C35.9421 176.653 35.8711 176.466 35.729 176.331C35.5894 176.194 35.3872 176.125 35.1224 176.125C34.9611 176.125 34.8166 176.154 34.6891 176.212C34.5615 176.267 34.4616 176.343 34.3893 176.44C34.3195 176.533 34.2846 176.636 34.2846 176.747H33.6094C33.6094 176.556 33.6744 176.372 33.8044 176.194C33.9343 176.016 34.1173 175.871 34.3532 175.761C34.5891 175.648 34.8588 175.591 35.1621 175.591C35.451 175.591 35.7037 175.64 35.9204 175.739C36.1395 175.835 36.3104 175.982 36.4332 176.18C36.5559 176.375 36.6173 176.614 36.6173 176.898V178.718ZM34.9454 179.065C35.0995 179.065 35.2427 179.038 35.3751 178.985C35.51 178.93 35.6255 178.858 35.7218 178.769C35.8181 178.68 35.8915 178.583 35.9421 178.48V177.671H35.3932C35.008 177.671 34.7131 177.732 34.5085 177.855C34.3039 177.975 34.2016 178.155 34.2016 178.393C34.2016 178.521 34.2305 178.635 34.2882 178.736C34.346 178.837 34.4303 178.918 34.541 178.978C34.6517 179.036 34.7865 179.065 34.9454 179.065ZM37.7259 179.57V174.024H38.4012V179.57H37.7259ZM42.8897 174.313C43.3495 174.313 43.7539 174.414 44.103 174.616C44.4544 174.816 44.7265 175.102 44.919 175.475C45.114 175.849 45.2115 176.284 45.2115 176.783V177.1C45.2115 177.604 45.114 178.042 44.919 178.415C44.7265 178.786 44.4508 179.071 44.0921 179.271C43.7334 179.47 43.3121 179.57 42.8283 179.57H41.7305H41.4055V174.313H42.1061H42.8897ZM44.5182 176.775C44.5182 176.376 44.4544 176.035 44.3268 175.753C44.2017 175.469 44.0163 175.253 43.7707 175.103C43.5276 174.954 43.2339 174.88 42.8897 174.88H42.1061V179.007H42.8283C43.1942 179.007 43.5035 178.93 43.7563 178.776C44.0091 178.619 44.1992 178.399 44.3268 178.115C44.4544 177.829 44.5182 177.49 44.5182 177.1V176.775ZM49.2198 175.663V179.57H48.577L48.5662 179.184C48.3062 179.49 47.9246 179.643 47.4215 179.643C47.0194 179.643 46.7053 179.525 46.479 179.289C46.2527 179.053 46.1396 178.684 46.1396 178.184V175.663H46.8148V178.191C46.8148 178.516 46.881 178.746 47.0134 178.881C47.1482 179.013 47.3204 179.079 47.5298 179.079C48.0353 179.079 48.3736 178.89 48.5445 178.512V175.663H49.2198ZM53.3833 177.801H50.74C50.7472 178.044 50.7978 178.264 50.8917 178.462C50.9855 178.659 51.1179 178.816 51.2889 178.931C51.4622 179.044 51.6644 179.101 51.8955 179.101C52.1218 179.101 52.3168 179.055 52.4805 178.964C52.6466 178.872 52.7947 178.741 52.9247 178.57L53.3327 178.888C53.1883 179.109 52.9957 179.291 52.7549 179.433C52.5142 179.573 52.2157 179.643 51.8594 179.643C51.5031 179.643 51.189 179.562 50.9169 179.401C50.6449 179.239 50.4343 179.015 50.285 178.729C50.1382 178.442 50.0647 178.117 50.0647 177.754V177.599C50.0647 177.192 50.1442 176.837 50.3031 176.533C50.4619 176.228 50.6714 175.994 50.9314 175.833C51.1938 175.672 51.4742 175.591 51.7727 175.591C52.1362 175.591 52.4372 175.673 52.6755 175.837C52.9162 175.998 53.0944 176.222 53.2099 176.508C53.3255 176.795 53.3833 177.126 53.3833 177.501V177.801ZM52.708 177.209C52.6887 176.903 52.6057 176.648 52.4588 176.443C52.3144 176.236 52.0857 176.133 51.7727 176.133C51.5031 176.133 51.278 176.231 51.0975 176.429C50.9193 176.624 50.8074 176.901 50.7617 177.259H52.708V177.209ZM26.3043 194.195H24.1124L23.6141 195.57H22.8919L24.8996 190.313H25.3618H25.5135L27.5248 195.57H26.8062L26.3043 194.195ZM26.0985 193.628L25.2065 191.172L24.3182 193.628H26.0985ZM32.295 191.591C32.7235 191.591 33.0484 191.705 33.2699 191.934C33.4914 192.163 33.6021 192.519 33.6021 193.003V195.57H32.9269V192.996C32.9269 192.685 32.8559 192.467 32.7138 192.342C32.5742 192.214 32.3684 192.151 32.0963 192.151C31.923 192.151 31.7714 192.188 31.6414 192.263C31.5114 192.335 31.409 192.434 31.3344 192.559C31.2622 192.684 31.2177 192.825 31.2008 192.981V195.57H30.5256V192.999C30.5256 192.434 30.2475 192.151 29.6914 192.151C29.4675 192.151 29.2822 192.2 29.1353 192.299C28.9885 192.395 28.8765 192.53 28.7995 192.703V195.57H28.1242V191.663H28.7634L28.785 192.086C28.9199 191.927 29.0836 191.805 29.2761 191.721C29.4687 191.634 29.689 191.591 29.937 191.591C30.1945 191.591 30.4196 191.643 30.6122 191.746C30.8072 191.847 30.9541 192.003 31.0528 192.212C31.1876 192.019 31.3597 191.868 31.5691 191.757C31.781 191.646 32.0229 191.591 32.295 191.591ZM34.4399 193.577C34.4399 193.199 34.5121 192.86 34.6566 192.559C34.801 192.258 35.0068 192.022 35.274 191.851C35.5437 191.678 35.8566 191.591 36.2129 191.591C36.574 191.591 36.8894 191.678 37.159 191.851C37.4286 192.022 37.6356 192.258 37.7801 192.559C37.9245 192.86 37.9967 193.199 37.9967 193.577V193.66C37.9967 194.038 37.9245 194.377 37.7801 194.678C37.6356 194.977 37.4286 195.213 37.159 195.386C36.8918 195.557 36.5788 195.643 36.2201 195.643C35.8614 195.643 35.5473 195.557 35.2776 195.386C35.0104 195.213 34.8034 194.977 34.6566 194.678C34.5121 194.377 34.4399 194.038 34.4399 193.66V193.577ZM35.1151 193.66C35.1151 193.925 35.1561 194.167 35.2379 194.386C35.3222 194.605 35.4474 194.78 35.6135 194.909C35.7796 195.037 35.9818 195.101 36.2201 195.101C36.456 195.101 36.6571 195.037 36.8232 194.909C36.9893 194.78 37.1132 194.605 37.1951 194.386C37.2793 194.167 37.3215 193.925 37.3215 193.66V193.577C37.3215 193.312 37.2793 193.07 37.1951 192.851C37.1108 192.632 36.9857 192.458 36.8195 192.328C36.6534 192.198 36.4512 192.133 36.2129 192.133C35.977 192.133 35.776 192.198 35.6099 192.328C35.4462 192.458 35.3222 192.632 35.2379 192.851C35.1561 193.07 35.1151 193.312 35.1151 193.577V193.66ZM41.9038 191.663V195.57H41.2611L41.2503 195.184C40.9903 195.49 40.6087 195.643 40.1056 195.643C39.7035 195.643 39.3894 195.525 39.1631 195.289C38.9368 195.053 38.8237 194.684 38.8237 194.184V191.663H39.4989V194.191C39.4989 194.516 39.5651 194.746 39.6975 194.881C39.8323 195.013 40.0045 195.079 40.2139 195.079C40.7194 195.079 41.0577 194.89 41.2286 194.512V191.663H41.9038ZM44.7421 191.591C45.5775 191.591 45.9951 192.064 45.9951 193.01V195.57H45.3199V193.003C45.3199 192.704 45.2549 192.488 45.1249 192.353C44.9973 192.218 44.8035 192.151 44.5435 192.151C44.3365 192.151 44.1499 192.207 43.9838 192.32C43.8201 192.434 43.6901 192.585 43.5938 192.775V195.57H42.9185V191.663H43.5577L43.5794 192.143C43.7214 191.968 43.8911 191.832 44.0885 191.735C44.2859 191.639 44.5038 191.591 44.7421 191.591ZM48.6637 195.57C48.5096 195.618 48.3375 195.643 48.1473 195.643C47.8753 195.643 47.6562 195.561 47.4901 195.397C47.3264 195.233 47.2445 194.967 47.2445 194.599V192.172H46.5332V191.663H47.2445V190.714H47.9198V191.663H48.6492V192.172H47.9198V194.603C47.9198 194.788 47.9583 194.913 48.0353 194.978C48.1124 195.041 48.2171 195.072 48.3495 195.072C48.4001 195.072 48.4554 195.068 48.5156 195.061C48.5758 195.052 48.6239 195.042 48.66 195.032L48.6637 195.57ZM53.3074 190.313C53.695 190.313 54.0272 190.381 54.3041 190.519C54.5833 190.653 54.794 190.841 54.936 191.082C55.0804 191.323 55.1526 191.601 55.1526 191.916C55.1526 192.253 55.0816 192.541 54.9396 192.779C54.7976 193.017 54.5881 193.199 54.3113 193.324C54.0368 193.447 53.7022 193.508 53.3074 193.508H52.0652V195.57H51.3647V190.313H53.3074ZM53.3074 192.945C53.6974 192.945 53.9851 192.854 54.1705 192.671C54.3582 192.488 54.4521 192.239 54.4521 191.923C54.4521 191.733 54.4112 191.56 54.3293 191.403C54.2499 191.244 54.1235 191.118 53.9502 191.024C53.7793 190.928 53.565 190.88 53.3074 190.88H52.0652V192.945H53.3074ZM58.8684 194.718C58.8684 194.855 58.8804 194.997 58.9045 195.144C58.9286 195.289 58.9623 195.411 59.0056 195.513V195.57H58.3014C58.2605 195.476 58.2292 195.34 58.2076 195.162C58.0727 195.307 57.9103 195.423 57.7201 195.513C57.5323 195.599 57.3253 195.643 57.099 195.643C56.839 195.643 56.6079 195.592 56.4057 195.491C56.2059 195.387 56.0506 195.248 55.9398 195.072C55.8315 194.896 55.7774 194.701 55.7774 194.487C55.7774 194.21 55.8484 193.975 55.9904 193.783C56.1348 193.59 56.3383 193.446 56.6007 193.35C56.8655 193.251 57.1772 193.201 57.5359 193.201H58.1931V192.891C58.1931 192.653 58.1221 192.466 57.9801 192.331C57.8404 192.194 57.6382 192.125 57.3734 192.125C57.2121 192.125 57.0677 192.154 56.9401 192.212C56.8125 192.267 56.7126 192.343 56.6404 192.44C56.5706 192.533 56.5357 192.636 56.5357 192.747H55.8604C55.8604 192.556 55.9254 192.372 56.0554 192.194C56.1854 192.016 56.3684 191.871 56.6043 191.761C56.8402 191.648 57.1098 191.591 57.4131 191.591C57.702 191.591 57.9548 191.64 58.1715 191.739C58.3905 191.835 58.5614 191.982 58.6842 192.18C58.807 192.375 58.8684 192.614 58.8684 192.898V194.718ZM57.1965 195.065C57.3505 195.065 57.4938 195.038 57.6262 194.985C57.761 194.93 57.8766 194.858 57.9728 194.769C58.0691 194.68 58.1426 194.583 58.1931 194.48V193.671H57.6442C57.2591 193.671 56.9642 193.732 56.7595 193.855C56.5549 193.975 56.4526 194.155 56.4526 194.393C56.4526 194.521 56.4815 194.635 56.5393 194.736C56.5971 194.837 56.6813 194.918 56.792 194.978C56.9028 195.036 57.0376 195.065 57.1965 195.065ZM60.32 190.24C60.4452 190.24 60.5427 190.277 60.6125 190.349C60.6847 190.421 60.7208 190.512 60.7208 190.623C60.7208 190.732 60.6847 190.822 60.6125 190.894C60.5427 190.964 60.4452 190.999 60.32 190.999C60.1948 190.999 60.0973 190.964 60.0275 190.894C59.9601 190.822 59.9264 190.732 59.9264 190.623C59.9264 190.512 59.9601 190.421 60.0275 190.349C60.0973 190.277 60.1948 190.24 60.32 190.24ZM59.977 195.57V191.663H60.6522V195.57H59.977ZM64.8554 190.024V195.57H64.2379L64.2054 195.155C63.9406 195.48 63.5699 195.643 63.0933 195.643C62.7923 195.643 62.5251 195.557 62.2916 195.386C62.0581 195.215 61.8763 194.979 61.7464 194.678C61.6188 194.377 61.555 194.038 61.555 193.66V193.584C61.555 193.189 61.6188 192.842 61.7464 192.541C61.8739 192.24 62.0545 192.006 62.288 191.84C62.5215 191.674 62.7923 191.591 63.1005 191.591C63.5603 191.591 63.9202 191.744 64.1802 192.05V190.024H64.8554ZM63.2594 195.079C63.6758 195.079 63.9828 194.89 64.1802 194.512V192.703C64.0887 192.532 63.9671 192.397 63.8155 192.299C63.6662 192.2 63.4832 192.151 63.2666 192.151C63.0331 192.151 62.8381 192.214 62.6816 192.342C62.5275 192.467 62.4132 192.638 62.3386 192.855C62.2663 193.071 62.2302 193.315 62.2302 193.584V193.66C62.2302 193.93 62.2663 194.172 62.3386 194.386C62.4132 194.598 62.5275 194.766 62.6816 194.891C62.8357 195.017 63.0283 195.079 63.2594 195.079Z" fill="#434D5A"/>
<path d="M109.515 142.869C109.837 142.973 110.068 143.136 110.208 143.36C110.35 143.582 110.421 143.83 110.421 144.104C110.421 144.424 110.349 144.7 110.204 144.931C110.06 145.162 109.861 145.339 109.608 145.462C109.358 145.582 109.074 145.643 108.756 145.643C108.446 145.643 108.164 145.585 107.911 145.469C107.658 145.354 107.457 145.186 107.308 144.967C107.161 144.746 107.088 144.483 107.088 144.18H107.763C107.763 144.363 107.803 144.524 107.882 144.664C107.964 144.804 108.08 144.912 108.229 144.989C108.378 145.064 108.554 145.101 108.756 145.101C109.067 145.101 109.309 145.018 109.482 144.852C109.658 144.686 109.746 144.441 109.746 144.119C109.746 143.799 109.647 143.559 109.45 143.4C109.255 143.239 108.982 143.158 108.633 143.158H108.157V142.761V142.617H108.633C108.857 142.617 109.046 142.578 109.2 142.501C109.357 142.424 109.474 142.317 109.551 142.18C109.628 142.042 109.666 141.886 109.666 141.71C109.666 141.407 109.589 141.177 109.435 141.02C109.283 140.862 109.056 140.782 108.753 140.782C108.565 140.782 108.4 140.819 108.258 140.894C108.116 140.969 108.005 141.075 107.926 141.212C107.846 141.347 107.807 141.506 107.807 141.688H107.131C107.131 141.421 107.199 141.177 107.333 140.955C107.471 140.734 107.662 140.559 107.908 140.432C108.153 140.304 108.435 140.24 108.753 140.24C109.073 140.24 109.352 140.297 109.59 140.41C109.829 140.523 110.013 140.692 110.143 140.916C110.275 141.137 110.341 141.407 110.341 141.725C110.341 141.862 110.311 142.004 110.251 142.151C110.191 142.298 110.098 142.435 109.973 142.562C109.85 142.69 109.697 142.792 109.515 142.869ZM112.024 145.314C112.024 145.543 111.968 145.777 111.854 146.018C111.741 146.259 111.586 146.459 111.389 146.618L111.006 146.358C111.124 146.191 111.213 146.025 111.273 145.859C111.333 145.693 111.363 145.515 111.363 145.325V144.78H112.024V145.314ZM114.025 145.57H113.317L115.487 140.854H112.645V140.313H116.202V140.685L114.025 145.57ZM118.82 142.122C119.152 142.122 119.432 142.204 119.658 142.367C119.884 142.529 120.051 142.742 120.16 143.006C120.271 143.269 120.326 143.552 120.326 143.855C120.326 144.192 120.263 144.497 120.138 144.769C120.013 145.038 119.828 145.251 119.582 145.408C119.336 145.564 119.04 145.643 118.694 145.643C118.333 145.643 118.024 145.546 117.769 145.354C117.514 145.159 117.323 144.908 117.195 144.603C117.068 144.294 117.004 143.969 117.004 143.628V143.31C117.004 142.434 117.19 141.714 117.563 141.15C117.939 140.587 118.593 140.305 119.524 140.305H119.582V140.869H119.524C118.93 140.869 118.487 141.031 118.195 141.356C117.904 141.679 117.737 142.092 117.693 142.595C117.833 142.436 117.998 142.318 118.188 142.241C118.381 142.162 118.591 142.122 118.82 142.122ZM118.694 145.094C118.896 145.094 119.069 145.043 119.214 144.942C119.361 144.838 119.471 144.696 119.546 144.516C119.623 144.333 119.661 144.124 119.661 143.888C119.661 143.671 119.625 143.47 119.553 143.285C119.483 143.099 119.376 142.951 119.232 142.84C119.09 142.727 118.915 142.671 118.708 142.671C118.556 142.671 118.411 142.703 118.271 142.768C118.132 142.831 118.01 142.917 117.906 143.028C117.805 143.136 117.73 143.258 117.679 143.393V143.646C117.679 143.947 117.726 144.207 117.82 144.426C117.914 144.645 118.038 144.811 118.192 144.924C118.348 145.037 118.516 145.094 118.694 145.094ZM124.421 143.328C124.421 144.151 124.279 144.743 123.995 145.104C123.713 145.463 123.304 145.643 122.767 145.643C122.232 145.643 121.821 145.462 121.532 145.101C121.243 144.74 121.099 144.149 121.099 143.328V142.523C121.099 141.704 121.241 141.119 121.525 140.768C121.811 140.416 122.223 140.24 122.76 140.24C123.299 140.24 123.711 140.416 123.995 140.768C124.279 141.119 124.421 141.704 124.421 142.523V143.328ZM123.746 142.411C123.746 141.833 123.664 141.418 123.5 141.165C123.339 140.91 123.092 140.782 122.76 140.782C122.432 140.782 122.186 140.91 122.019 141.165C121.856 141.42 121.774 141.835 121.774 142.411V143.433C121.774 144.008 121.858 144.43 122.027 144.7C122.195 144.967 122.442 145.101 122.767 145.101C123.097 145.101 123.342 144.968 123.504 144.704C123.665 144.436 123.746 144.013 123.746 143.433V142.411ZM125.779 144.816C125.911 144.816 126.013 144.854 126.085 144.931C126.16 145.006 126.197 145.102 126.197 145.22C126.197 145.336 126.16 145.429 126.085 145.502C126.013 145.574 125.911 145.61 125.779 145.61C125.649 145.61 125.546 145.574 125.472 145.502C125.399 145.427 125.363 145.333 125.363 145.22C125.363 145.102 125.399 145.006 125.472 144.931C125.546 144.854 125.649 144.816 125.779 144.816ZM129.66 142.862C129.935 142.98 130.151 143.152 130.31 143.378C130.472 143.605 130.552 143.861 130.552 144.148C130.552 144.458 130.479 144.727 130.332 144.953C130.188 145.179 129.989 145.351 129.736 145.469C129.483 145.585 129.198 145.643 128.88 145.643C128.563 145.643 128.276 145.585 128.021 145.469C127.768 145.351 127.57 145.18 127.425 144.956C127.281 144.73 127.208 144.461 127.208 144.148C127.208 143.859 127.287 143.601 127.443 143.375C127.6 143.146 127.815 142.974 128.09 142.858C127.851 142.743 127.665 142.583 127.53 142.378C127.395 142.171 127.328 141.939 127.328 141.681C127.328 141.383 127.394 141.125 127.526 140.908C127.659 140.689 127.842 140.523 128.075 140.41C128.311 140.297 128.579 140.24 128.88 140.24C129.181 140.24 129.448 140.298 129.682 140.414C129.916 140.527 130.098 140.692 130.231 140.908C130.363 141.125 130.429 141.383 130.429 141.681C130.429 141.939 130.361 142.171 130.224 142.378C130.086 142.585 129.899 142.747 129.66 142.862ZM128.88 140.782C128.707 140.782 128.554 140.819 128.422 140.894C128.289 140.969 128.186 141.075 128.111 141.212C128.039 141.349 128.003 141.509 128.003 141.692C128.003 141.873 128.039 142.03 128.111 142.165C128.183 142.3 128.286 142.405 128.418 142.479C128.553 142.554 128.707 142.591 128.88 142.591C129.054 142.591 129.207 142.554 129.339 142.479C129.471 142.405 129.574 142.3 129.646 142.165C129.718 142.03 129.754 141.873 129.754 141.692C129.754 141.519 129.717 141.363 129.642 141.226C129.57 141.087 129.468 140.978 129.335 140.901C129.203 140.822 129.051 140.782 128.88 140.782ZM128.88 145.101C129.191 145.101 129.434 145.015 129.61 144.844C129.788 144.674 129.877 144.436 129.877 144.133C129.877 143.941 129.835 143.768 129.751 143.617C129.666 143.465 129.547 143.347 129.393 143.263C129.241 143.179 129.068 143.136 128.873 143.136C128.673 143.136 128.499 143.179 128.35 143.263C128.2 143.347 128.085 143.465 128.003 143.617C127.923 143.766 127.884 143.938 127.884 144.133C127.884 144.436 127.972 144.674 128.147 144.844C128.325 145.015 128.57 145.101 128.88 145.101ZM132.921 145.57V141.111L131.578 141.605V141.002L133.492 140.284H133.596V145.57H132.921ZM141.27 143.87C141.27 144.25 141.183 144.574 141.01 144.841C140.839 145.108 140.608 145.309 140.316 145.444C140.028 145.576 139.709 145.643 139.36 145.643C138.994 145.643 138.667 145.576 138.381 145.444C138.097 145.309 137.872 145.109 137.706 144.844C137.542 144.577 137.46 144.252 137.46 143.87V140.313H138.153V143.87C138.153 144.269 138.261 144.571 138.475 144.776C138.691 144.978 138.986 145.079 139.36 145.079C139.735 145.079 140.03 144.978 140.244 144.776C140.458 144.571 140.566 144.269 140.566 143.87V140.313H141.27V143.87ZM143.909 143.22C143.353 143.058 142.931 142.857 142.642 142.617C142.353 142.373 142.209 142.058 142.209 141.67C142.209 141.398 142.282 141.154 142.429 140.937C142.578 140.721 142.788 140.551 143.057 140.428C143.329 140.303 143.641 140.24 143.992 140.24C144.375 140.24 144.706 140.314 144.985 140.461C145.267 140.608 145.481 140.803 145.628 141.046C145.777 141.289 145.852 141.55 145.852 141.829H145.148C145.148 141.521 145.05 141.274 144.855 141.089C144.66 140.901 144.373 140.807 143.992 140.807C143.639 140.807 143.37 140.886 143.187 141.042C143.004 141.199 142.913 141.404 142.913 141.66C142.913 141.809 142.955 141.94 143.039 142.053C143.123 142.166 143.255 142.269 143.433 142.36C143.611 142.452 143.846 142.538 144.137 142.62C144.541 142.733 144.869 142.863 145.119 143.01C145.372 143.157 145.558 143.33 145.679 143.53C145.802 143.727 145.863 143.962 145.863 144.234C145.863 144.516 145.787 144.764 145.635 144.978C145.486 145.19 145.273 145.354 144.996 145.469C144.719 145.585 144.397 145.643 144.029 145.643C143.694 145.643 143.374 145.581 143.068 145.458C142.765 145.333 142.518 145.15 142.328 144.909C142.138 144.669 142.042 144.381 142.042 144.046H142.743C142.743 144.278 142.801 144.47 142.916 144.624C143.034 144.778 143.19 144.893 143.382 144.967C143.577 145.042 143.793 145.079 144.029 145.079C144.387 145.079 144.665 145.005 144.863 144.855C145.06 144.706 145.159 144.501 145.159 144.241C145.159 144.071 145.123 143.929 145.05 143.815C144.981 143.7 144.857 143.596 144.679 143.505C144.5 143.411 144.244 143.316 143.909 143.22ZM148.235 140.313C148.695 140.313 149.1 140.414 149.449 140.616C149.8 140.816 150.072 141.102 150.265 141.475C150.46 141.849 150.557 142.284 150.557 142.783V143.1C150.557 143.604 150.46 144.042 150.265 144.415C150.072 144.786 149.797 145.071 149.438 145.271C149.079 145.47 148.658 145.57 148.174 145.57H147.076H146.751V140.313H147.452H148.235ZM149.864 142.775C149.864 142.376 149.8 142.035 149.673 141.753C149.547 141.469 149.362 141.253 149.116 141.103C148.873 140.954 148.58 140.88 148.235 140.88H147.452V145.007H148.174C148.54 145.007 148.849 144.93 149.102 144.776C149.355 144.619 149.545 144.399 149.673 144.115C149.8 143.829 149.864 143.49 149.864 143.1V142.775ZM107.853 160.328C107.853 161.151 107.711 161.743 107.427 162.104C107.146 162.463 106.736 162.643 106.2 162.643C105.665 162.643 105.254 162.462 104.965 162.101C104.676 161.74 104.531 161.149 104.531 160.328V159.523C104.531 158.704 104.673 158.119 104.957 157.768C105.244 157.416 105.656 157.24 106.192 157.24C106.732 157.24 107.143 157.416 107.427 157.768C107.711 158.119 107.853 158.704 107.853 159.523V160.328ZM107.178 159.411C107.178 158.833 107.096 158.418 106.933 158.165C106.771 157.91 106.525 157.782 106.192 157.782C105.865 157.782 105.618 157.91 105.452 158.165C105.288 158.42 105.207 158.835 105.207 159.411V160.433C105.207 161.008 105.291 161.43 105.459 161.7C105.628 161.967 105.875 162.101 106.2 162.101C106.529 162.101 106.775 161.968 106.936 161.704C107.098 161.436 107.178 161.013 107.178 160.433V159.411ZM109.211 161.816C109.344 161.816 109.446 161.854 109.518 161.931C109.593 162.006 109.63 162.102 109.63 162.22C109.63 162.336 109.593 162.429 109.518 162.502C109.446 162.574 109.344 162.61 109.211 162.61C109.081 162.61 108.979 162.574 108.904 162.502C108.832 162.427 108.796 162.333 108.796 162.22C108.796 162.102 108.832 162.006 108.904 161.931C108.979 161.854 109.081 161.816 109.211 161.816ZM113.97 160.328C113.97 161.151 113.828 161.743 113.544 162.104C113.263 162.463 112.853 162.643 112.317 162.643C111.782 162.643 111.371 162.462 111.082 162.101C110.793 161.74 110.648 161.149 110.648 160.328V159.523C110.648 158.704 110.79 158.119 111.074 157.768C111.361 157.416 111.773 157.24 112.309 157.24C112.849 157.24 113.26 157.416 113.544 157.768C113.828 158.119 113.97 158.704 113.97 159.523V160.328ZM113.295 159.411C113.295 158.833 113.213 158.418 113.05 158.165C112.888 157.91 112.642 157.782 112.309 157.782C111.982 157.782 111.735 157.91 111.569 158.165C111.405 158.42 111.324 158.835 111.324 159.411V160.433C111.324 161.008 111.408 161.43 111.576 161.7C111.745 161.967 111.992 162.101 112.317 162.101C112.646 162.101 112.892 161.968 113.053 161.704C113.215 161.436 113.295 161.013 113.295 160.433V159.411ZM118.13 160.328C118.13 161.151 117.988 161.743 117.704 162.104C117.423 162.463 117.013 162.643 116.477 162.643C115.942 162.643 115.53 162.462 115.242 162.101C114.953 161.74 114.808 161.149 114.808 160.328V159.523C114.808 158.704 114.95 158.119 115.234 157.768C115.521 157.416 115.932 157.24 116.469 157.24C117.009 157.24 117.42 157.416 117.704 157.768C117.988 158.119 118.13 158.704 118.13 159.523V160.328ZM117.455 159.411C117.455 158.833 117.373 158.418 117.21 158.165C117.048 157.91 116.802 157.782 116.469 157.782C116.142 157.782 115.895 157.91 115.729 158.165C115.565 158.42 115.484 158.835 115.484 159.411V160.433C115.484 161.008 115.568 161.43 115.736 161.7C115.905 161.967 116.152 162.101 116.477 162.101C116.806 162.101 117.052 161.968 117.213 161.704C117.374 161.436 117.455 161.013 117.455 160.433V159.411ZM122.29 160.328C122.29 161.151 122.148 161.743 121.864 162.104C121.583 162.463 121.173 162.643 120.636 162.643C120.102 162.643 119.69 162.462 119.401 162.101C119.113 161.74 118.968 161.149 118.968 160.328V159.523C118.968 158.704 119.11 158.119 119.394 157.768C119.681 157.416 120.092 157.24 120.629 157.24C121.168 157.24 121.58 157.416 121.864 157.768C122.148 158.119 122.29 158.704 122.29 159.523V160.328ZM121.615 159.411C121.615 158.833 121.533 158.418 121.369 158.165C121.208 157.91 120.961 157.782 120.629 157.782C120.302 157.782 120.055 157.91 119.889 158.165C119.725 158.42 119.643 158.835 119.643 159.411V160.433C119.643 161.008 119.728 161.43 119.896 161.7C120.065 161.967 120.311 162.101 120.636 162.101C120.966 162.101 121.212 161.968 121.373 161.704C121.534 161.436 121.615 161.013 121.615 160.433V159.411ZM126.703 161.346H125.973V162.57H125.298V161.346H122.904V160.956L125.255 157.313H125.804H125.973V160.805H126.703V161.346ZM125.298 160.805V158.223L125.219 158.363L123.666 160.805H125.298ZM128.833 162.57V158.111L127.49 158.605V158.002L129.404 157.284H129.509V162.57H128.833ZM132.993 162.57V158.111L131.65 158.605V158.002L133.564 157.284H133.669V162.57H132.993ZM140.977 162.007V162.57H138.2H137.637V157.313H138.338H140.941V157.88H138.338V159.573H140.609V160.136H138.338V162.007H140.977ZM145.545 157.88H143.859V162.57H143.166V157.88H141.483V157.313H143.859H145.545V157.88ZM150.369 157.313V162.57H149.669V160.136H147.026V162.57H146.325V157.313H147.026V159.573H149.669V157.313H150.369ZM107.853 177.328C107.853 178.151 107.711 178.743 107.427 179.104C107.146 179.463 106.736 179.643 106.2 179.643C105.665 179.643 105.254 179.462 104.965 179.101C104.676 178.74 104.531 178.149 104.531 177.328V176.523C104.531 175.704 104.673 175.119 104.957 174.768C105.244 174.416 105.656 174.24 106.192 174.24C106.732 174.24 107.143 174.416 107.427 174.768C107.711 175.119 107.853 175.704 107.853 176.523V177.328ZM107.178 176.411C107.178 175.833 107.096 175.418 106.933 175.165C106.771 174.91 106.525 174.782 106.192 174.782C105.865 174.782 105.618 174.91 105.452 175.165C105.288 175.42 105.207 175.835 105.207 176.411V177.433C105.207 178.008 105.291 178.43 105.459 178.7C105.628 178.967 105.875 179.101 106.2 179.101C106.529 179.101 106.775 178.968 106.936 178.704C107.098 178.436 107.178 178.013 107.178 177.433V176.411ZM109.211 178.816C109.344 178.816 109.446 178.854 109.518 178.931C109.593 179.006 109.63 179.102 109.63 179.22C109.63 179.336 109.593 179.429 109.518 179.502C109.446 179.574 109.344 179.61 109.211 179.61C109.081 179.61 108.979 179.574 108.904 179.502C108.832 179.427 108.796 179.333 108.796 179.22C108.796 179.102 108.832 179.006 108.904 178.931C108.979 178.854 109.081 178.816 109.211 178.816ZM111.244 174.313H113.942V174.923H111.815L111.659 176.364C111.768 176.299 111.895 176.245 112.042 176.201C112.191 176.158 112.355 176.136 112.533 176.136C112.853 176.136 113.13 176.208 113.364 176.353C113.6 176.495 113.78 176.698 113.906 176.963C114.033 177.228 114.097 177.539 114.097 177.895C114.097 178.237 114.034 178.54 113.909 178.805C113.786 179.067 113.6 179.273 113.349 179.422C113.101 179.569 112.796 179.643 112.432 179.643C112.141 179.643 111.876 179.588 111.638 179.48C111.402 179.372 111.208 179.209 111.056 178.993C110.907 178.773 110.818 178.505 110.789 178.187H111.428C111.469 178.486 111.575 178.713 111.746 178.87C111.919 179.024 112.148 179.101 112.432 179.101C112.639 179.101 112.816 179.053 112.963 178.956C113.112 178.858 113.225 178.719 113.302 178.541C113.382 178.361 113.422 178.148 113.422 177.902C113.422 177.678 113.381 177.478 113.299 177.303C113.217 177.124 113.097 176.985 112.938 176.884C112.781 176.783 112.593 176.732 112.374 176.732C112.232 176.732 112.112 176.745 112.013 176.772C111.917 176.796 111.834 176.831 111.764 176.876C111.694 176.922 111.613 176.986 111.519 177.068L110.977 176.931L111.244 174.313ZM118.13 177.328C118.13 178.151 117.988 178.743 117.704 179.104C117.423 179.463 117.013 179.643 116.477 179.643C115.942 179.643 115.53 179.462 115.242 179.101C114.953 178.74 114.808 178.149 114.808 177.328V176.523C114.808 175.704 114.95 175.119 115.234 174.768C115.521 174.416 115.932 174.24 116.469 174.24C117.009 174.24 117.42 174.416 117.704 174.768C117.988 175.119 118.13 175.704 118.13 176.523V177.328ZM117.455 176.411C117.455 175.833 117.373 175.418 117.21 175.165C117.048 174.91 116.802 174.782 116.469 174.782C116.142 174.782 115.895 174.91 115.729 175.165C115.565 175.42 115.484 175.835 115.484 176.411V177.433C115.484 178.008 115.568 178.43 115.736 178.7C115.905 178.967 116.152 179.101 116.477 179.101C116.806 179.101 117.052 178.968 117.213 178.704C117.374 178.436 117.455 178.013 117.455 177.433V176.411ZM122.29 177.328C122.29 178.151 122.148 178.743 121.864 179.104C121.583 179.463 121.173 179.643 120.636 179.643C120.102 179.643 119.69 179.462 119.401 179.101C119.113 178.74 118.968 178.149 118.968 177.328V176.523C118.968 175.704 119.11 175.119 119.394 174.768C119.681 174.416 120.092 174.24 120.629 174.24C121.168 174.24 121.58 174.416 121.864 174.768C122.148 175.119 122.29 175.704 122.29 176.523V177.328ZM121.615 176.411C121.615 175.833 121.533 175.418 121.369 175.165C121.208 174.91 120.961 174.782 120.629 174.782C120.302 174.782 120.055 174.91 119.889 175.165C119.725 175.42 119.643 175.835 119.643 176.411V177.433C119.643 178.008 119.728 178.43 119.896 178.7C120.065 178.967 120.311 179.101 120.636 179.101C120.966 179.101 121.212 178.968 121.373 178.704C121.534 178.436 121.615 178.013 121.615 177.433V176.411ZM126.703 178.346H125.973V179.57H125.298V178.346H122.904V177.956L125.255 174.313H125.804H125.973V177.805H126.703V178.346ZM125.298 177.805V175.223L125.219 175.363L123.666 177.805H125.298ZM128.833 179.57V175.111L127.49 175.605V175.002L129.404 174.284H129.509V179.57H128.833ZM132.993 179.57V175.111L131.65 175.605V175.002L133.564 174.284H133.669V179.57H132.993ZM140.977 179.007V179.57H138.2H137.637V174.313H138.338H140.941V174.88H138.338V176.573H140.609V177.136H138.338V179.007H140.977ZM145.545 174.88H143.859V179.57H143.166V174.88H141.483V174.313H143.859H145.545V174.88ZM150.369 174.313V179.57H149.669V177.136H147.026V179.57H146.325V174.313H147.026V176.573H149.669V174.313H150.369Z" fill="#434D5A"/>
<path d="M107.413 193.36C107.413 194.882 106.839 195.643 105.69 195.643C105.144 195.643 104.718 195.461 104.412 195.097C104.109 194.734 103.957 194.155 103.957 193.36V192.501C103.957 191.709 104.108 191.135 104.409 190.779C104.709 190.42 105.134 190.24 105.683 190.24C106.232 190.24 106.657 190.42 106.958 190.779C107.261 191.135 107.413 191.709 107.413 192.501V193.36ZM106.514 192.367C106.514 191.862 106.445 191.502 106.308 191.288C106.171 191.071 105.962 190.963 105.683 190.963C105.409 190.963 105.202 191.071 105.062 191.288C104.925 191.502 104.856 191.862 104.856 192.367V193.487C104.856 193.992 104.926 194.358 105.066 194.585C105.208 194.808 105.416 194.92 105.69 194.92C105.967 194.92 106.173 194.81 106.308 194.588C106.445 194.364 106.514 193.997 106.514 193.487V192.367ZM108.8 194.624C108.958 194.624 109.085 194.671 109.179 194.765C109.273 194.859 109.32 194.978 109.32 195.123C109.32 195.265 109.273 195.383 109.179 195.476C109.085 195.568 108.958 195.614 108.8 195.614C108.638 195.614 108.511 195.568 108.417 195.476C108.323 195.383 108.276 195.265 108.276 195.123C108.276 194.978 108.323 194.859 108.417 194.765C108.511 194.671 108.638 194.624 108.8 194.624ZM110.775 190.313H113.613V191.082H111.519L111.378 192.324C111.479 192.269 111.599 192.22 111.739 192.18C111.881 192.139 112.034 192.118 112.197 192.118C112.527 192.118 112.81 192.189 113.046 192.331C113.284 192.473 113.466 192.678 113.591 192.945C113.719 193.21 113.783 193.524 113.783 193.888C113.783 194.22 113.718 194.518 113.588 194.783C113.46 195.048 113.266 195.257 113.006 195.411C112.746 195.565 112.427 195.643 112.049 195.643C111.749 195.643 111.47 195.585 111.215 195.469C110.96 195.351 110.753 195.18 110.594 194.956C110.435 194.73 110.346 194.459 110.327 194.144H111.201C111.232 194.392 111.321 194.583 111.468 194.718C111.615 194.853 111.808 194.92 112.046 194.92C112.32 194.92 112.529 194.824 112.671 194.631C112.815 194.439 112.887 194.181 112.887 193.859C112.887 193.551 112.807 193.304 112.645 193.118C112.486 192.931 112.259 192.837 111.963 192.837C111.835 192.837 111.726 192.85 111.634 192.876C111.545 192.901 111.469 192.934 111.407 192.978C111.346 193.019 111.279 193.074 111.204 193.144L110.486 192.963L110.775 190.313ZM117.914 193.36C117.914 194.882 117.34 195.643 116.191 195.643C115.645 195.643 115.219 195.461 114.913 195.097C114.61 194.734 114.458 194.155 114.458 193.36V192.501C114.458 191.709 114.608 191.135 114.909 190.779C115.21 190.42 115.635 190.24 116.184 190.24C116.733 190.24 117.158 190.42 117.459 190.779C117.762 191.135 117.914 191.709 117.914 192.501V193.36ZM117.015 192.367C117.015 191.862 116.946 191.502 116.809 191.288C116.672 191.071 116.463 190.963 116.184 190.963C115.91 190.963 115.703 191.071 115.563 191.288C115.426 191.502 115.357 191.862 115.357 192.367V193.487C115.357 193.992 115.427 194.358 115.567 194.585C115.709 194.808 115.917 194.92 116.191 194.92C116.468 194.92 116.674 194.81 116.809 194.588C116.946 194.364 117.015 193.997 117.015 193.487V192.367ZM122.124 193.36C122.124 194.882 121.55 195.643 120.402 195.643C119.855 195.643 119.429 195.461 119.123 195.097C118.82 194.734 118.668 194.155 118.668 193.36V192.501C118.668 191.709 118.819 191.135 119.12 190.779C119.421 190.42 119.846 190.24 120.394 190.24C120.943 190.24 121.368 190.42 121.669 190.779C121.972 191.135 122.124 191.709 122.124 192.501V193.36ZM121.225 192.367C121.225 191.862 121.156 191.502 121.019 191.288C120.882 191.071 120.674 190.963 120.394 190.963C120.12 190.963 119.913 191.071 119.773 191.288C119.636 191.502 119.568 191.862 119.568 192.367V193.487C119.568 193.992 119.637 194.358 119.777 194.585C119.919 194.808 120.127 194.92 120.402 194.92C120.679 194.92 120.884 194.81 121.019 194.588C121.156 194.364 121.225 193.997 121.225 193.487V192.367ZM126.526 194.404H125.876V195.57H124.977V194.404H122.72L122.695 193.855L124.952 190.313H125.67H125.876V193.682H126.526V194.404ZM124.977 193.682V191.53L124.912 191.645L123.63 193.682H124.977ZM128.602 195.57V191.374L127.32 191.804V191.053L129.39 190.295H129.501V195.57H128.602ZM132.813 195.57V191.374L131.531 191.804V191.053L133.6 190.295H133.712V195.57H132.813ZM140.952 194.819V195.57H138.19H137.503V190.313H138.439H140.93V191.067H138.439V192.494H140.587V193.23H138.439V194.819H140.952ZM145.578 191.067H143.942V195.57H143.01V191.067H141.393V190.313H143.942H145.578V191.067ZM150.453 190.313V195.57H149.521V193.241H147.199V195.57H146.264V190.313H147.199V192.494H149.521V190.313H150.453Z" fill="#2240C4"/>
<circle cx="87.5" cy="27.4131" r="4.62209" fill="#2FCFA4"/>
<path fill-rule="evenodd" clip-rule="evenodd" d="M86.9201 28.9728C86.8541 28.9728 86.7909 28.9454 86.7442 28.8965L85.5742 27.6693L85.9257 27.3006L86.9201 28.3434L89.0745 26.084L89.426 26.4526L87.0959 28.8965C87.0492 28.9454 86.986 28.9728 86.9201 28.9728Z" fill="white"/>
<defs>
<filter id="filter0_d_1555_37768" x="0" y="0" width="175" height="218.447" filterUnits="userSpaceOnUse" color-interpolation-filters="sRGB">
<feFlood flood-opacity="0" result="BackgroundImageFix"/>
<feColorMatrix in="SourceAlpha" type="matrix" values="0 0 0 0 0 0 0 0 0 0 0 0 0 0 0 0 0 0 127 0" result="hardAlpha"/>
<feOffset/>
<feGaussianBlur stdDeviation="4"/>
<feColorMatrix type="matrix" values="0 0 0 0 0 0 0 0 0 0 0 0 0 0 0 0 0 0 0.05 0"/>
<feBlend mode="normal" in2="BackgroundImageFix" result="effect1_dropShadow_1555_37768"/>
<feBlend mode="normal" in="SourceGraphic" in2="effect1_dropShadow_1555_37768" result="shape"/>
</filter>
</defs>
</svg>
