<svg width="50" height="50" viewBox="0 0 50 50" fill="none" xmlns="http://www.w3.org/2000/svg">
<circle cx="25" cy="25" r="25" fill="#214497"/>
<mask id="mask0_1386_39074" style="mask-type:alpha" maskUnits="userSpaceOnUse" x="0" y="0" width="50" height="50">
<circle cx="25" cy="25" r="25" fill="white"/>
</mask>
<g mask="url(#mask0_1386_39074)">
<circle cx="25.8065" cy="19.3543" r="4.83871" fill="#EFD358"/>
<circle cx="14.5162" cy="11.2899" r="4.83871" fill="#EFD358"/>
<path d="M16.1292 12.0973H12.9034C12.4576 12.0973 12.0969 11.7366 12.0969 11.2908C12.0969 10.8451 12.4576 10.4844 12.9034 10.4844H16.1292C16.5749 10.4844 16.9356 10.8451 16.9356 11.2908C16.9356 11.7366 16.5749 12.0973 16.1292 12.0973Z" fill="#B29930"/>
<path d="M27.4195 20.1617H24.1937C23.7479 20.1617 23.3872 19.801 23.3872 19.3553C23.3872 18.9095 23.7479 18.5488 24.1937 18.5488H27.4195C27.8652 18.5488 28.2259 18.9095 28.2259 19.3553C28.2259 19.801 27.8652 20.1617 27.4195 20.1617Z" fill="#B29930"/>
<path d="M34.6868 34.0807L20.5572 35.3094C19.2491 35.4231 17.9375 35.135 16.7974 34.4836L12.9031 32.2583H21.9899C23.2069 32.2583 24.1934 31.2717 24.1934 30.0547V30.0547C24.1934 28.9944 23.4382 28.0844 22.396 27.889L14.2369 26.3591C12.2767 25.9916 10.2866 25.8066 8.29214 25.8066H1.61279V37.4833L14.8783 43.0134C16.3467 43.5639 17.9713 43.5561 19.4658 43.1788L37.0967 36.2905V36.2901C37.0967 34.9895 35.9826 33.968 34.6868 34.0807Z" fill="#BADEFC"/>
<path d="M4.83871 41.1288H0.806452C0.361064 41.1288 0 40.7678 0 40.3224V24.9998C0 24.5544 0.361064 24.1934 0.806452 24.1934H4.83871C5.2841 24.1934 5.64516 24.5544 5.64516 24.9998V40.3224C5.64516 40.7678 5.2841 41.1288 4.83871 41.1288Z" fill="#5A7A84"/>
</g>
</svg>
