<svg width="50" height="50" viewBox="0 0 50 50" fill="none" xmlns="http://www.w3.org/2000/svg">
<circle cx="25" cy="25" r="25" transform="rotate(-180 25 25)" fill="#214497"/>
<mask id="mask0_1386_39076" style="mask-type:alpha" maskUnits="userSpaceOnUse" x="0" y="0" width="50" height="50">
<circle cx="25" cy="25" r="25" transform="rotate(-180 25 25)" fill="white"/>
</mask>
<g mask="url(#mask0_1386_39076)">
<ellipse cx="34.4444" cy="36.6673" rx="26.6667" ry="26.6667" transform="rotate(-180 34.4444 36.6673)" fill="#1A2C57"/>
<mask id="mask1_1386_39076" style="mask-type:alpha" maskUnits="userSpaceOnUse" x="7" y="10" width="55" height="54">
<ellipse cx="34.4444" cy="36.6673" rx="26.6667" ry="26.6667" transform="rotate(-180 34.4444 36.6673)" fill="white"/>
</mask>
<g mask="url(#mask1_1386_39076)">
</g>
<path fill-rule="evenodd" clip-rule="evenodd" d="M21.8 11.5852H20.4V8.70338C20.4459 3.94652 16.7569 0.0509115 12.1582 0H11.9286C7.36233 0.00605349 3.64982 3.80946 3.6 8.53248V11.5852H2.2C-0.119596 11.5852 -2 13.5302 -2 15.9296V30.4111C-2 32.8105 -0.119596 34.7556 2.2 34.7556H21.8C24.1196 34.7556 26 32.8105 26 30.4111V15.9296C26 13.5302 24.1196 11.5852 21.8 11.5852ZM7.05882 11.0201H17.7643V8.19442C17.7818 6.71172 17.2398 5.28263 16.2579 4.22239C15.2761 3.1622 13.935 2.55799 12.5307 2.54309H12.3446C9.44712 2.54676 7.09106 5.00971 7.05882 8.06864V11.0201ZM13.3724 25.8179V28.8217H10.6276V25.8179C8.73701 25.148 7.60294 23.2106 7.94203 21.23C8.28113 19.2494 9.99475 17.8016 12 17.8016C14.0053 17.8016 15.7189 19.2494 16.058 21.23C16.3971 23.2106 15.263 25.148 13.3724 25.8179Z" fill="#4F6EF7"/>
</g>
</svg>
