<svg width="50" height="50" viewBox="0 0 50 50" fill="none" xmlns="http://www.w3.org/2000/svg">
<circle cx="25" cy="25" r="25" fill="#214497"/>
<mask id="mask0_1386_39075" style="mask-type:alpha" maskUnits="userSpaceOnUse" x="0" y="0" width="50" height="50">
<circle cx="25" cy="25" r="25" fill="white"/>
</mask>
<g mask="url(#mask0_1386_39075)">
<path fill-rule="evenodd" clip-rule="evenodd" d="M36.0628 63.334H14.3237C11.327 63.334 8.88892 60.8959 8.88892 57.8992V18.7688C8.88892 15.772 11.327 13.334 14.3237 13.334H36.0628C39.0596 13.334 41.4976 15.772 41.4976 18.7688V57.8992C41.4976 60.8959 39.0596 63.334 36.0628 63.334Z" fill="#9FAFF5"/>
<rect x="8.88892" y="19.8555" width="32.6087" height="34.7826" fill="#9FAFF5"/>
<path fill-rule="evenodd" clip-rule="evenodd" d="M38.2367 52.4641H12.1497C11.5497 52.4641 11.0627 51.9771 11.0627 51.3771V23.1163C11.0627 22.5163 11.5497 22.0293 12.1497 22.0293H38.2367C38.8367 22.0293 39.3236 22.5163 39.3236 23.1163V51.3771C39.3236 51.9771 38.8367 52.4641 38.2367 52.4641Z" fill="#4F6EF7"/>
<circle cx="25.1932" cy="16.5948" r="1.08696" fill="#4F6EF7"/>
<path fill-rule="evenodd" clip-rule="evenodd" d="M21.8182 33.3327V31.2493C21.8182 29.6411 23.2455 28.3327 25 28.3327C26.7545 28.3327 28.1818 29.6411 28.1818 31.2493V33.3327H30V31.2493C30 28.7221 27.757 26.666 25 26.666C22.243 26.666 20 28.7221 20 31.2493V33.3327H21.8182Z" fill="#17191D"/>
<path fill-rule="evenodd" clip-rule="evenodd" d="M31.3726 46.6654H18.6275C18.1582 46.6654 17.7778 46.2674 17.7778 45.7765V34.2209C17.7778 33.73 18.1582 33.332 18.6275 33.332H31.3726C31.8419 33.332 32.2223 33.73 32.2223 34.2209V45.7765C32.2223 46.2674 31.8419 46.6654 31.3726 46.6654Z" fill="#9FAFF5"/>
<path fill-rule="evenodd" clip-rule="evenodd" d="M26.6668 39.3646C26.6668 38.488 25.9207 37.7773 25.0002 37.7773C24.0797 37.7773 23.3335 38.488 23.3335 39.3646C23.3335 39.9507 23.6708 40.4568 24.1668 40.7318V43.3329H25.8335V40.7318C26.3296 40.4568 26.6668 39.9507 26.6668 39.3646Z" fill="black"/>
</g>
</svg>
