<svg width="200" height="29" viewBox="0 0 233 29" fill="none" xmlns="http://www.w3.org/2000/svg">
<path d="M27.9042 1.58076V19.7185C27.9042 20.4936 27.2841 21.1137 26.509 21.1137H20.9281V26.6945C20.9281 27.4696 20.3081 28.0897 19.5329 28.0897H8.37126C7.59614 28.0897 6.97605 27.4696 6.97605 26.6945V21.1137H1.39521C0.620093 21.1137 0 20.4936 0 19.7185V1.58076C0 0.80564 0.620093 0.185547 1.39521 0.185547H6.97605C7.75116 0.185547 8.37126 0.80564 8.37126 1.58076V12.7424H11.8438C12.6189 12.7424 13.239 13.3625 13.239 14.1376V19.7185H14.6342V14.1376C14.6342 13.3625 15.2543 12.7424 16.0294 12.7424H19.5019V1.58076C19.5019 0.80564 20.122 0.185547 20.8971 0.185547H26.478C27.3151 0.185547 27.9042 0.80564 27.9042 1.58076Z" fill="black"/>
<path d="M57.2035 1.58212V16.9294C57.2035 17.3325 57.0485 17.7045 56.7694 17.9526C56.7074 17.9836 56.6764 18.0146 56.6454 18.0456C56.5834 18.1076 56.5214 18.1386 56.4904 18.1696L56.3354 18.2316C56.3354 18.2316 56.3044 18.2626 56.2734 18.2626C56.2114 18.2936 56.1494 18.2936 56.1183 18.3246C56.0563 18.3246 55.9943 18.3556 55.9323 18.3556H47.437V19.7508H55.8083C56.5834 19.7508 57.2035 20.3709 57.2035 21.1461V26.7269C57.2035 27.502 56.5834 28.1221 55.8083 28.1221H40.461C39.6859 28.1221 39.0658 27.502 39.0658 26.7269V18.3556H37.6706V26.7269C37.6706 27.502 37.0505 28.1221 36.2754 28.1221H30.6945C29.9194 28.1221 29.2993 27.502 29.2993 26.7269V1.61312C29.2993 0.838004 29.9194 0.217911 30.6945 0.217911H55.8083C56.6144 0.186906 57.2035 0.806999 57.2035 1.58212ZM48.8323 9.95337V8.55816H37.6706V9.95337H48.8323Z" fill="black"/>
<path d="M115.802 1.58076V26.6945C115.802 27.4696 115.182 28.0897 114.407 28.0897H103.959C103.183 28.0897 102.563 27.4696 102.563 26.6945V23.9041H101.168V26.6945C101.168 27.4696 100.548 28.0897 99.773 28.0897H89.3244C88.5493 28.0897 87.9292 27.4696 87.9292 26.6945V1.58076C87.9292 0.80564 88.5493 0.185547 89.3244 0.185547H94.9052C95.6804 0.185547 96.3005 0.80564 96.3005 1.58076V19.7185H97.6957V1.58076C97.6957 0.80564 98.3158 0.185547 99.0909 0.185547H104.672C105.447 0.185547 106.067 0.80564 106.067 1.58076V19.7185H107.462V1.58076C107.462 0.80564 108.082 0.185547 108.857 0.185547H114.438C115.213 0.185547 115.802 0.80564 115.802 1.58076Z" fill="black"/>
<path d="M145.102 1.58076V26.6945C145.102 27.4696 144.482 28.0897 143.706 28.0897H118.593C117.818 28.0897 117.198 27.4696 117.198 26.6945V1.58076C117.198 0.80564 117.818 0.185547 118.593 0.185547H143.706C144.048 0.185547 144.358 0.309565 144.606 0.495593C144.606 0.526598 144.637 0.526598 144.668 0.557603L144.761 0.650617C144.792 0.681621 144.792 0.712626 144.823 0.712626C145.009 0.929659 145.102 1.23971 145.102 1.58076ZM136.73 19.7185V8.5568H125.569V19.7185H136.73Z" fill="black"/>
<path d="M174.401 1.58212V16.9294C174.401 17.3325 174.246 17.7045 173.967 17.9526C173.905 17.9836 173.874 18.0146 173.843 18.0456C173.781 18.1076 173.719 18.1386 173.688 18.1696L173.533 18.2316C173.533 18.2316 173.502 18.2626 173.471 18.2626C173.409 18.2936 173.347 18.2936 173.316 18.3246C173.254 18.3246 173.192 18.3556 173.13 18.3556H164.635V19.7508H173.006C173.781 19.7508 174.401 20.3709 174.401 21.1461V26.7269C174.401 27.502 173.781 28.1221 173.006 28.1221H157.659C156.884 28.1221 156.264 27.502 156.264 26.7269V18.3556H154.868V26.7269C154.868 27.502 154.248 28.1221 153.473 28.1221H147.892C147.117 28.1221 146.497 27.502 146.497 26.7269V1.61312C146.497 0.838004 147.117 0.217911 147.892 0.217911H173.006C173.812 0.186906 174.401 0.806999 174.401 1.58212ZM166.03 9.95337V8.55816H154.868V9.95337H166.03Z" fill="black"/>
<path d="M203.701 21.1152V26.696C203.701 27.4711 203.08 28.0912 202.305 28.0912H177.192C177.037 28.0912 176.851 28.0602 176.727 27.9982C176.696 27.9982 176.665 27.9672 176.665 27.9672L176.509 27.9052C176.447 27.8742 176.385 27.8432 176.354 27.7812C176.323 27.7501 176.292 27.7191 176.23 27.6881L176.137 27.5951C176.106 27.5331 176.075 27.5021 176.044 27.4711C175.982 27.4091 175.951 27.3471 175.92 27.3161L175.858 27.1611C175.858 27.1611 175.827 27.1301 175.827 27.0991C175.765 26.944 175.734 26.789 175.734 26.634V1.52021C175.734 0.745093 176.354 0.125 177.13 0.125H182.71C183.486 0.125 184.106 0.745093 184.106 1.52021V19.6579H202.243C203.111 19.7199 203.701 20.34 203.701 21.1152Z" fill="black"/>
<path d="M233 5.76687V22.5094C233 23.2845 232.38 23.9046 231.605 23.9046H228.814V26.695C228.814 27.4701 228.194 28.0902 227.419 28.0902H206.491C206.336 28.0902 206.15 28.0592 206.026 27.9972C205.995 27.9972 205.964 27.9662 205.964 27.9662L205.809 27.9042C205.747 27.8732 205.685 27.8422 205.654 27.7802C205.623 27.7492 205.592 27.7182 205.53 27.6872L205.437 27.5941C205.406 27.5321 205.375 27.5011 205.344 27.4701C205.313 27.4391 205.313 27.4391 205.313 27.4081L205.22 27.2841C205.096 27.0981 205.065 26.881 205.065 26.602V1.48822C205.065 1.24019 205.127 1.02315 205.22 0.806121L205.313 0.682103C205.313 0.651098 205.313 0.651098 205.344 0.620093C205.375 0.589088 205.406 0.558083 205.437 0.496074L205.53 0.40306C205.592 0.372056 205.623 0.341051 205.654 0.310047C205.716 0.248037 205.778 0.217032 205.809 0.186027L205.964 0.124019C205.964 0.124019 205.995 0.0930137 206.026 0.0930137C206.181 0.0310044 206.336 0 206.491 0H227.419C228.194 0 228.814 0.620093 228.814 1.39521V4.18563H231.605C232.411 4.37166 233 4.99175 233 5.76687ZM224.629 19.719V8.55729H213.467V19.719H224.629Z" fill="black"/>
<path d="M86.4411 13.0212L86.348 12.4942C86.193 11.192 85.852 9.88976 85.3559 8.64957C84.6428 7.00633 83.6196 5.4871 82.3794 4.21591C81.1083 2.97572 79.589 1.92156 77.9458 1.23946C76.7056 0.743385 75.4034 0.402334 74.1012 0.247311C73.7912 0.185302 73.5121 0.154297 73.2021 0.154297H71.8069C71.4968 0.154297 71.2178 0.185302 70.9077 0.247311C69.6055 0.402334 68.3033 0.743385 67.0631 1.23946C65.3889 1.92156 63.9007 2.94472 62.5985 4.21591C61.3583 5.4871 60.3041 7.00633 59.622 8.64957C59.126 9.88976 58.7849 11.192 58.6299 12.4942C58.5679 12.8042 58.5369 13.0832 58.5369 13.3933H58.5679C58.5369 13.6103 58.5369 13.8584 58.5369 14.0754C58.5369 14.2924 58.5369 14.5405 58.5679 14.7885H58.5369C58.5369 15.0985 58.5679 15.3776 58.6299 15.6876C58.7849 16.9898 59.126 18.292 59.622 19.5322C60.3351 21.1755 61.3583 22.6947 62.5985 23.9659C63.8697 25.2061 65.3889 26.2602 67.0321 26.9423C68.2723 27.4384 69.5745 27.7794 70.8767 27.9345C71.1868 27.9965 71.4658 28.0275 71.7759 28.0275V27.9965C71.9929 28.0275 72.2409 28.0275 72.489 28.0275C72.737 28.0275 72.954 28.0275 73.2021 27.9965V28.0275C73.5121 28.0275 73.7912 27.9965 74.1012 27.9345C75.4034 27.7794 76.7056 27.4384 77.9458 26.9423C79.589 26.2292 81.1083 25.2061 82.3794 23.9659C83.6196 22.6947 84.6738 21.1755 85.3559 19.5322C85.852 18.292 86.193 16.9898 86.348 15.6876C86.4101 15.3776 86.4411 15.0985 86.4411 14.7885H86.4101C86.4411 14.6645 86.4411 14.5405 86.4411 14.4164V13.0212ZM63.6216 5.20806C64.7068 4.09189 66.009 3.22376 67.3732 2.60366C66.9391 3.09974 66.5981 3.71983 66.226 4.37093C65.823 5.11504 65.5129 5.92116 65.2029 6.78929C64.3347 7.09934 63.5286 7.44039 62.7845 7.81245C62.1334 8.1845 61.5443 8.52555 61.0172 8.95962C61.6373 7.59541 62.5055 6.29322 63.6216 5.20806ZM60.0251 12.7112C60.1181 12.1841 60.3971 11.626 60.8312 11.0989C61.4513 10.3548 62.3194 9.67273 63.4666 9.05263C63.9007 8.86661 64.3037 8.61857 64.7688 8.46354C64.3967 9.88976 64.2107 11.409 64.1487 13.0212H59.9941C59.9941 12.9282 59.9941 12.8352 60.0251 12.7112ZM60.0251 15.4396C59.9631 15.0985 59.9631 14.7575 59.9321 14.4164H64.1177C64.1487 16.2457 64.3657 18.044 64.7688 19.6872C64.3037 19.5322 63.8697 19.2842 63.4666 19.0981C62.3194 18.4781 61.4513 17.827 60.8312 17.0518C60.3971 16.5248 60.1181 15.9667 60.0251 15.4396ZM63.6216 22.9427C62.5055 21.8576 61.6373 20.5864 61.0172 19.1912C61.5133 19.6252 62.1334 19.9663 62.7845 20.3383C63.5286 20.7414 64.3347 21.0514 65.2029 21.3615C65.5129 22.2296 65.854 23.0357 66.226 23.7798C66.5981 24.4309 66.9391 25.02 67.3732 25.5471C65.978 24.927 64.7068 24.0589 63.6216 22.9427ZM71.7759 26.6013C71.5588 26.6013 71.3418 26.5703 71.0938 26.5393C70.5667 26.4152 70.0086 26.1362 69.4815 25.7331C68.7374 25.113 68.0553 24.2449 67.4352 23.0977C67.2492 22.6637 67.0011 22.2606 66.8461 21.7955C68.3653 22.1676 70.0396 22.3846 71.7448 22.4466L71.7759 26.6013ZM71.7759 21.0514C69.8226 20.9894 67.9933 20.7104 66.319 20.2453C65.823 18.447 65.5439 16.4938 65.5129 14.4164H71.8069V21.0514H71.7759ZM71.7759 13.0212H65.5439C65.6369 11.223 65.885 9.4867 66.319 7.90546C67.9933 7.44039 69.8226 7.16135 71.7759 7.09934V13.0212ZM71.7759 5.70413C70.0396 5.76614 68.3963 5.98317 66.8771 6.35523C67.0321 5.89016 67.2802 5.45609 67.4662 5.05303C68.0863 3.90586 68.7374 3.03773 69.5125 2.41764C70.0396 1.98357 70.5977 1.70453 71.1248 1.61152C71.3418 1.58051 71.5588 1.54951 71.8069 1.54951L71.7759 5.70413ZM84.9528 12.7112C84.9838 12.8352 84.9838 12.9282 84.9838 13.0212H80.8292C80.7672 11.44 80.5812 9.88976 80.2091 8.46354C80.6742 8.61857 81.1083 8.86661 81.5113 9.05263C82.6585 9.67273 83.5266 10.3238 84.1467 11.0989C84.5808 11.626 84.8598 12.1841 84.9528 12.7112ZM81.3563 5.20806C82.4725 6.29322 83.3406 7.59541 83.9607 8.95962C83.4646 8.52555 82.8445 8.1845 82.1934 7.81245C81.4493 7.40939 80.6432 7.09934 79.7751 6.78929C79.465 5.92116 79.124 5.11504 78.7519 4.37093C78.3798 3.71983 78.0388 3.13074 77.6047 2.60366C78.9999 3.22376 80.2711 4.09189 81.3563 5.20806ZM73.1711 1.54951C73.3881 1.54951 73.6051 1.58051 73.8532 1.61152C74.3802 1.73553 74.9383 2.01458 75.4654 2.41764C76.2095 3.03773 76.8916 3.90586 77.5117 5.05303C77.6977 5.4871 77.9458 5.89016 78.1008 6.35523C76.5816 5.98317 74.9073 5.76614 73.2021 5.70413L73.1711 1.54951ZM73.1711 7.09934C75.1244 7.16135 76.9536 7.44039 78.6279 7.90546C79.062 9.45569 79.341 11.223 79.403 13.0212H73.1711V7.09934ZM73.1711 14.4164H79.465C79.434 16.5248 79.155 18.4781 78.6589 20.2453C76.9846 20.7104 75.1554 20.9894 73.2021 21.0514V14.4164H73.1711ZM75.4654 25.7331C74.9383 26.1672 74.3802 26.4462 73.8532 26.5393C73.6361 26.5703 73.4191 26.6013 73.1711 26.6013V22.4466C74.9073 22.3846 76.5506 22.1676 78.0698 21.7955C77.9148 22.2606 77.6667 22.6947 77.4807 23.0977C76.8916 24.2759 76.2405 25.1441 75.4654 25.7331ZM81.3563 22.9427C80.2711 24.0589 78.9689 24.927 77.6047 25.5471C78.0388 25.051 78.3798 24.4309 78.7519 23.7798C79.155 23.0357 79.465 22.2296 79.7751 21.3615C80.6432 21.0514 81.4493 20.7104 82.1934 20.3383C82.8445 19.9663 83.4336 19.6252 83.9607 19.1912C83.3406 20.5864 82.4725 21.8576 81.3563 22.9427ZM84.9528 15.4396C84.8288 15.9667 84.5498 16.5248 84.1467 17.0518C83.5266 17.7959 82.6585 18.4781 81.5113 19.0981C81.0773 19.2842 80.6742 19.5322 80.2091 19.6872C80.6122 18.044 80.8292 16.2457 80.8602 14.4164H85.0458C85.0148 14.7885 85.0148 15.1295 84.9528 15.4396Z" fill="black"/>
</svg>
