<svg width="245" height="191" viewBox="0 0 216 191" fill="none" xmlns="http://www.w3.org/2000/svg">
<g filter="url(#filter0_d_1405_39781)">
<path fill-rule="evenodd" clip-rule="evenodd" d="M9 15.1448C9 11.7511 11.7511 9 15.1448 9H200.855C204.249 9 207 11.7511 207 15.1448V176.105C207 179.499 204.249 182.25 200.855 182.25H15.1448C11.7511 182.25 9 179.499 9 176.105L9 15.1448Z" fill="white"/>
</g>
<path d="M68.4995 29.7199C68.4995 30.7035 68.3567 31.5209 68.0709 32.172C67.7852 32.8184 67.3824 33.2985 66.8624 33.6123C66.3472 33.9215 65.7359 34.0761 65.0286 34.0761C64.3213 34.0761 63.7054 33.9215 63.1807 33.6123C62.6608 33.2985 62.2556 32.8184 61.9652 32.172C61.6748 31.5209 61.5296 30.7035 61.5296 29.7199V27.9071C61.5296 26.9235 61.6725 26.1084 61.9582 25.462C62.2486 24.8156 62.6538 24.3378 63.1737 24.0287C63.6936 23.7195 64.3073 23.565 65.0146 23.565C65.7219 23.565 66.3355 23.7195 66.8554 24.0287C67.3753 24.3378 67.7782 24.8156 68.0639 25.462C68.3543 26.1084 68.4995 26.9235 68.4995 27.9071V29.7199ZM66.3776 27.619C66.3776 26.7806 66.2629 26.181 66.0333 25.8204C65.8038 25.455 65.4642 25.2723 65.0146 25.2723C64.5649 25.2723 64.2253 25.455 63.9958 25.8204C63.7662 26.181 63.6515 26.7806 63.6515 27.619V30.0009C63.6515 30.8487 63.7662 31.4553 63.9958 31.8207C64.23 32.186 64.5743 32.3687 65.0286 32.3687C65.4783 32.3687 65.8155 32.186 66.0404 31.8207C66.2652 31.4553 66.3776 30.8487 66.3776 30.0009V27.619ZM71.2116 31.7645C71.4458 31.7645 71.6543 31.8137 71.8369 31.912C72.0196 32.0104 72.1601 32.1462 72.2585 32.3195C72.3569 32.4882 72.4061 32.6779 72.4061 32.8887C72.4061 33.0994 72.3569 33.2915 72.2585 33.4648C72.1601 33.6334 72.0196 33.7669 71.8369 33.8653C71.6543 33.9637 71.4458 34.0128 71.2116 34.0128C70.9774 34.0128 70.769 33.9637 70.5863 33.8653C70.4083 33.7669 70.2701 33.6334 70.1717 33.4648C70.0734 33.2915 70.0242 33.0994 70.0242 32.8887C70.0242 32.6779 70.0734 32.4882 70.1717 32.3195C70.2701 32.1462 70.4083 32.0104 70.5863 31.912C70.769 31.8137 70.9774 31.7645 71.2116 31.7645ZM74.9214 23.7055H80.718V25.448H76.6569L76.411 27.5909C76.5796 27.4926 76.7997 27.4036 77.0714 27.3239C77.3431 27.2443 77.6288 27.2045 77.9286 27.2045C78.5891 27.2045 79.1535 27.3403 79.6219 27.612C80.0903 27.8837 80.4463 28.2772 80.6899 28.7924C80.9381 29.3077 81.0623 29.926 81.0623 30.6473C81.0623 31.2656 80.9311 31.8347 80.6688 32.3547C80.4112 32.8746 80.02 33.2915 79.4954 33.6053C78.9755 33.9192 78.3361 34.0761 77.5773 34.0761C76.973 34.0761 76.4063 33.9543 75.877 33.7107C75.3477 33.4671 74.9167 33.1182 74.5842 32.6638C74.2563 32.2048 74.0876 31.6708 74.0783 31.0619H76.1861C76.2236 31.4694 76.3641 31.7902 76.6077 32.0244C76.8559 32.254 77.1768 32.3687 77.5703 32.3687C78.0434 32.3687 78.39 32.2001 78.6101 31.8628C78.8303 31.5209 78.9404 31.0712 78.9404 30.5138C78.9404 29.9705 78.8069 29.5466 78.5399 29.2421C78.2776 28.9329 77.8794 28.7784 77.3454 28.7784C77.0175 28.7784 76.7529 28.8275 76.5515 28.9259C76.3547 29.0243 76.1744 29.1578 76.0105 29.3264L74.3242 28.9119L74.9214 23.7055ZM89.2828 29.7199C89.2828 30.7035 89.14 31.5209 88.8542 32.172C88.5685 32.8184 88.1657 33.2985 87.6458 33.6123C87.1305 33.9215 86.5192 34.0761 85.8119 34.0761C85.1046 34.0761 84.4887 33.9215 83.9641 33.6123C83.4441 33.2985 83.0389 32.8184 82.7485 32.172C82.4581 31.5209 82.3129 30.7035 82.3129 29.7199V27.9071C82.3129 26.9235 82.4558 26.1084 82.7415 25.462C83.0319 24.8156 83.4371 24.3378 83.957 24.0287C84.477 23.7195 85.0906 23.565 85.7979 23.565C86.5052 23.565 87.1188 23.7195 87.6387 24.0287C88.1587 24.3378 88.5615 24.8156 88.8472 25.462C89.1376 26.1084 89.2828 26.9235 89.2828 27.9071V29.7199ZM87.1609 27.619C87.1609 26.7806 87.0462 26.181 86.8167 25.8204C86.5871 25.455 86.2476 25.2723 85.7979 25.2723C85.3482 25.2723 85.0086 25.455 84.7791 25.8204C84.5496 26.181 84.4348 26.7806 84.4348 27.619V30.0009C84.4348 30.8487 84.5496 31.4553 84.7791 31.8207C85.0133 32.186 85.3576 32.3687 85.8119 32.3687C86.2616 32.3687 86.5989 32.186 86.8237 31.8207C87.0485 31.4553 87.1609 30.8487 87.1609 30.0009V27.619ZM97.5596 29.7199C97.5596 30.7035 97.4168 31.5209 97.131 32.172C96.8453 32.8184 96.4425 33.2985 95.9225 33.6123C95.4073 33.9215 94.796 34.0761 94.0887 34.0761C93.3814 34.0761 92.7655 33.9215 92.2408 33.6123C91.7209 33.2985 91.3157 32.8184 91.0253 32.172C90.7349 31.5209 90.5897 30.7035 90.5897 29.7199V27.9071C90.5897 26.9235 90.7326 26.1084 91.0183 25.462C91.3087 24.8156 91.7139 24.3378 92.2338 24.0287C92.7538 23.7195 93.3674 23.565 94.0747 23.565C94.782 23.565 95.3956 23.7195 95.9155 24.0287C96.4355 24.3378 96.8383 24.8156 97.124 25.462C97.4144 26.1084 97.5596 26.9235 97.5596 27.9071V29.7199ZM95.4377 27.619C95.4377 26.7806 95.323 26.181 95.0935 25.8204C94.8639 25.455 94.5243 25.2723 94.0747 25.2723C93.625 25.2723 93.2854 25.455 93.0559 25.8204C92.8264 26.181 92.7116 26.7806 92.7116 27.619V30.0009C92.7116 30.8487 92.8264 31.4553 93.0559 31.8207C93.2901 32.186 93.6344 32.3687 94.0887 32.3687C94.5384 32.3687 94.8756 32.186 95.1005 31.8207C95.3253 31.4553 95.4377 30.8487 95.4377 30.0009V27.619ZM106.096 31.7364H104.972V33.9355H102.85V31.7364H98.7189L98.6136 30.3944L102.836 23.7055H104.516H104.972V30.029H106.096V31.7364ZM102.85 30.029V26.5792L102.71 26.8251L100.693 30.029H102.85ZM110.066 33.9355V26.2068L107.663 26.9305V25.2231L111.963 23.6985H112.181V33.9355H110.066ZM118.343 33.9355V26.2068L115.94 26.9305V25.2231L120.24 23.6985H120.458V33.9355H118.343ZM134.412 32.1579V33.9355H128.995H127.505V23.7055H129.711H134.405V25.4901H129.711V27.8158H133.709V29.5372H129.711V32.1579H134.412ZM143.532 25.4901H140.412V33.9355H138.213V25.4901H135.142V23.7055H140.412H143.532V25.4901ZM153.08 23.7055V33.9355H150.881V29.5934H146.897V33.9355H144.691V23.7055H146.897V27.8158H150.881V23.7055H153.08Z" fill="#303133"/>
<path fill-rule="evenodd" clip-rule="evenodd" d="M9 50.4414H207V51.017H9L9 50.4414Z" fill="#A3A3A3" fill-opacity="0.1"/>
<g clip-path="url(#clip0_1405_39781)">
<path d="M20.7273 88.4312C20.7273 87.2789 21.6615 86.3447 22.8138 86.3447H193.186C194.338 86.3447 195.272 87.2789 195.272 88.4312V117.57H20.7273V88.4312Z" fill="white" stroke="#9BA3AE" stroke-width="0.431686"/>
<path fill-rule="evenodd" clip-rule="evenodd" d="M183.401 95.9102H176.001C175.322 95.9102 174.767 96.4282 174.767 97.0613V105.119H176.001V97.0613H183.401V95.9102ZM185.051 98.2125H178.298C177.622 98.2125 177.07 98.7305 177.07 99.3636V107.422C177.07 108.055 177.622 108.573 178.298 108.573H185.051C185.726 108.573 186.279 108.055 186.279 107.422V99.3636C186.279 98.7305 185.726 98.2125 185.051 98.2125ZM185.128 107.422H178.221V99.3636H185.128V107.422Z" fill="#2240C4"/>
<rect x="163.831" y="91.8848" width="0.575581" height="20.1453" fill="#ECEFFD"/>
</g>
<path d="M32.6676 102.918H29.4974C29.5184 103.167 29.5828 103.387 29.6908 103.579C29.7987 103.771 29.9441 103.921 30.127 104.029C30.3128 104.137 30.5287 104.191 30.7745 104.191C31.2781 104.191 31.6828 103.993 31.9886 103.597L32.5867 104.177C32.4098 104.438 32.164 104.655 31.8492 104.829C31.5344 105.003 31.1537 105.09 30.707 105.09C30.2334 105.09 29.8197 104.988 29.4659 104.784C29.1122 104.577 28.8409 104.296 28.652 103.939C28.4632 103.582 28.3687 103.182 28.3687 102.738V102.554C28.3687 102.053 28.4647 101.614 28.6565 101.236C28.8484 100.856 29.1122 100.562 29.4479 100.355C29.7837 100.148 30.1614 100.045 30.5811 100.045C31.0398 100.045 31.425 100.145 31.7368 100.346C32.0486 100.547 32.2809 100.829 32.4338 101.191C32.5897 101.551 32.6676 101.969 32.6676 102.446V102.918ZM31.5614 102.023C31.5464 101.708 31.461 101.451 31.3051 101.25C31.1492 101.046 30.9064 100.944 30.5766 100.944C30.2828 100.944 30.046 101.046 29.8661 101.25C29.6863 101.454 29.5709 101.74 29.5199 102.109H31.5614V102.023ZM35.3971 104.164C35.517 104.164 35.6444 104.149 35.7793 104.119V104.982C35.5635 105.054 35.3207 105.09 35.0509 105.09C34.6552 105.09 34.3434 104.981 34.1156 104.762C33.8877 104.543 33.7738 104.194 33.7738 103.714V100.962H32.9824V100.135H33.7738V98.9474H34.8935V100.135H35.7479V100.962H34.8935V103.637C34.8935 103.841 34.9355 103.981 35.0194 104.056C35.1033 104.128 35.2292 104.164 35.3971 104.164ZM39.0215 100.045C40.0797 100.045 40.6088 100.655 40.6088 101.875V105H39.4891V101.866C39.4891 101.539 39.4187 101.307 39.2778 101.169C39.1399 101.028 38.9271 100.957 38.6393 100.957C38.4234 100.957 38.2331 101.007 38.0682 101.106C37.9063 101.205 37.7759 101.343 37.677 101.52V105H36.5573V98.093H37.677V100.665C37.8448 100.467 38.0427 100.314 38.2705 100.206C38.5014 100.099 38.7517 100.045 39.0215 100.045ZM45.816 102.918H42.6458C42.6668 103.167 42.7313 103.387 42.8392 103.579C42.9471 103.771 43.0925 103.921 43.2754 104.029C43.4613 104.137 43.6771 104.191 43.9229 104.191C44.4266 104.191 44.8313 103.993 45.137 103.597L45.7351 104.177C45.5582 104.438 45.3124 104.655 44.9976 104.829C44.6829 105.003 44.3021 105.09 43.8555 105.09C43.3818 105.09 42.9681 104.988 42.6144 104.784C42.2606 104.577 41.9893 104.296 41.8005 103.939C41.6116 103.582 41.5172 103.182 41.5172 102.738V102.554C41.5172 102.053 41.6131 101.614 41.805 101.236C41.9968 100.856 42.2606 100.562 42.5964 100.355C42.9321 100.148 43.3099 100.045 43.7296 100.045C44.1882 100.045 44.5734 100.145 44.8852 100.346C45.197 100.547 45.4293 100.829 45.5822 101.191C45.7381 101.551 45.816 101.969 45.816 102.446V102.918ZM44.7098 102.023C44.6949 101.708 44.6094 101.451 44.4535 101.25C44.2976 101.046 44.0548 100.944 43.7251 100.944C43.4313 100.944 43.1944 101.046 43.0146 101.25C42.8347 101.454 42.7193 101.74 42.6683 102.109H44.7098V102.023ZM48.8378 100.045C48.9008 100.045 48.9712 100.051 49.0492 100.063C49.1301 100.075 49.1901 100.088 49.2291 100.103L49.2201 101.16C49.0702 101.136 48.9218 101.124 48.7749 101.124C48.2743 101.124 47.9385 101.311 47.7676 101.686V105H46.6479V100.135H47.7137L47.7451 100.683C47.868 100.479 48.0209 100.322 48.2038 100.211C48.3867 100.1 48.598 100.045 48.8378 100.045ZM54.0181 102.918H50.8479C50.8689 103.167 50.9333 103.387 51.0412 103.579C51.1492 103.771 51.2946 103.921 51.4774 104.029C51.6633 104.137 51.8791 104.191 52.125 104.191C52.6286 104.191 53.0333 103.993 53.3391 103.597L53.9371 104.177C53.7603 104.438 53.5144 104.655 53.1997 104.829C52.8849 105.003 52.5042 105.09 52.0575 105.09C51.5838 105.09 51.1701 104.988 50.8164 104.784C50.4627 104.577 50.1914 104.296 50.0025 103.939C49.8136 103.582 49.7192 103.182 49.7192 102.738V102.554C49.7192 102.053 49.8151 101.614 50.007 101.236C50.1989 100.856 50.4627 100.562 50.7984 100.355C51.1342 100.148 51.5119 100.045 51.9316 100.045C52.3903 100.045 52.7755 100.145 53.0873 100.346C53.399 100.547 53.6314 100.829 53.7842 101.191C53.9401 101.551 54.0181 101.969 54.0181 102.446V102.918ZM52.9119 102.023C52.8969 101.708 52.8115 101.451 52.6556 101.25C52.4997 101.046 52.2569 100.944 51.9271 100.944C51.6333 100.944 51.3965 101.046 51.2166 101.25C51.0367 101.454 50.9213 101.74 50.8704 102.109H52.9119V102.023ZM58.879 100.135V105H57.8223L57.7953 104.519C57.4776 104.9 57.0234 105.09 56.4328 105.09C55.9292 105.09 55.535 104.943 55.2502 104.649C54.9654 104.355 54.823 103.898 54.823 103.278V100.135H55.9427V103.287C55.9427 103.605 56.0116 103.832 56.1495 103.97C56.2904 104.105 56.4748 104.173 56.7026 104.173C57.2212 104.173 57.572 103.988 57.7549 103.62V100.135H58.879ZM65.2869 100.045C65.8025 100.045 66.1967 100.19 66.4695 100.481C66.7423 100.769 66.8787 101.226 66.8787 101.852V105H65.759V101.848C65.759 101.515 65.6871 101.284 65.5432 101.155C65.4023 101.023 65.1895 100.957 64.9047 100.957C64.6708 100.957 64.4745 101.02 64.3156 101.146C64.1597 101.272 64.0488 101.442 63.9828 101.654L63.9873 101.758V105H62.8676V101.861C62.8676 101.535 62.7942 101.302 62.6473 101.164C62.5034 101.026 62.2906 100.957 62.0088 100.957C61.5801 100.957 61.2758 101.133 61.0959 101.484V105H59.9762V100.135H61.0285L61.0645 100.647C61.2293 100.452 61.4287 100.304 61.6625 100.202C61.8993 100.097 62.1676 100.045 62.4674 100.045C62.7732 100.045 63.04 100.106 63.2678 100.229C63.4957 100.349 63.6711 100.535 63.794 100.787C63.9588 100.553 64.1672 100.371 64.419 100.242C64.6708 100.111 64.9601 100.045 65.2869 100.045ZM68.6684 103.822C68.8663 103.822 69.0237 103.88 69.1406 103.997C69.2575 104.114 69.316 104.263 69.316 104.442C69.316 104.619 69.2575 104.766 69.1406 104.883C69.0237 104.997 68.8663 105.054 68.6684 105.054C68.4676 105.054 68.3087 104.997 68.1918 104.883C68.0749 104.766 68.0164 104.619 68.0164 104.442C68.0164 104.263 68.0749 104.114 68.1918 103.997C68.3087 103.88 68.4676 103.822 68.6684 103.822ZM68.6684 100.022C68.8663 100.022 69.0237 100.081 69.1406 100.197C69.2575 100.314 69.316 100.463 69.316 100.643C69.316 100.82 69.2575 100.966 69.1406 101.083C69.0237 101.197 68.8663 101.254 68.6684 101.254C68.4676 101.254 68.3087 101.197 68.1918 101.083C68.0749 100.966 68.0164 100.82 68.0164 100.643C68.0164 100.463 68.0749 100.314 68.1918 100.197C68.3087 100.081 68.4676 100.022 68.6684 100.022ZM71.4744 103.062C71.4774 102.777 71.5014 102.54 71.5463 102.351C71.5913 102.16 71.6647 101.987 71.7667 101.834C71.8686 101.681 72.014 101.514 72.2029 101.331C72.3857 101.157 72.5221 101.02 72.6121 100.921C72.702 100.82 72.7769 100.706 72.8369 100.58C72.8998 100.451 72.9313 100.307 72.9313 100.148C72.9313 99.8722 72.8624 99.6609 72.7245 99.514C72.5896 99.3671 72.3917 99.2937 72.1309 99.2937C71.8971 99.2937 71.6977 99.3611 71.5328 99.496C71.368 99.6309 71.284 99.8318 71.281 100.099H70.1613C70.1673 99.7268 70.2558 99.4106 70.4266 99.1498C70.5975 98.8889 70.8299 98.6926 71.1236 98.5607C71.4204 98.4288 71.7562 98.3628 72.1309 98.3628C72.5326 98.3628 72.8774 98.4318 73.1652 98.5697C73.4559 98.7046 73.6763 98.9024 73.8262 99.1632C73.9791 99.4241 74.0555 99.7373 74.0555 100.103C74.0555 100.352 74.0045 100.583 73.9026 100.796C73.8037 101.005 73.6778 101.197 73.5249 101.371C73.375 101.542 73.1771 101.741 72.9313 101.969C72.7784 102.113 72.6705 102.272 72.6076 102.446C72.5476 102.617 72.5161 102.822 72.5131 103.062H71.4744ZM72.023 103.853C72.2178 103.853 72.3722 103.91 72.4861 104.024C72.6001 104.138 72.657 104.282 72.657 104.456C72.657 104.63 72.6001 104.774 72.4861 104.888C72.3722 104.999 72.2178 105.054 72.023 105.054C71.8281 105.054 71.6737 104.999 71.5598 104.888C71.4459 104.774 71.3889 104.63 71.3889 104.456C71.3889 104.282 71.4459 104.138 71.5598 104.024C71.6737 103.91 71.8281 103.853 72.023 103.853ZM77.1403 100.045C77.2032 100.045 77.2737 100.051 77.3516 100.063C77.4325 100.075 77.4925 100.088 77.5315 100.103L77.5225 101.16C77.3726 101.136 77.2242 101.124 77.0773 101.124C76.5767 101.124 76.2409 101.311 76.07 101.686V105H74.9504V100.135H76.0161L76.0476 100.683C76.1705 100.479 76.3234 100.322 76.5062 100.211C76.6891 100.1 76.9004 100.045 77.1403 100.045ZM78.3004 101.511V100.584H82.1991V101.511H78.3004ZM78.3004 103.422V102.495H82.1991V103.422H78.3004ZM85.8234 100.045C86.8817 100.045 87.4108 100.655 87.4108 101.875V105H86.2911V101.866C86.2911 101.539 86.2207 101.307 86.0798 101.169C85.9419 101.028 85.729 100.957 85.4412 100.957C85.2254 100.957 85.035 101.007 84.8701 101.106C84.7083 101.205 84.5779 101.343 84.4789 101.52V105H83.3592V98.093H84.4789V100.665C84.6468 100.467 84.8447 100.314 85.0725 100.206C85.3033 100.099 85.5536 100.045 85.8234 100.045ZM90.4011 104.164C90.521 104.164 90.6484 104.149 90.7833 104.119V104.982C90.5675 105.054 90.3247 105.09 90.0549 105.09C89.6592 105.09 89.3474 104.981 89.1195 104.762C88.8917 104.543 88.7778 104.194 88.7778 103.714V100.962H87.9864V100.135H88.7778V98.9474H89.8975V100.135H90.7519V100.962H89.8975V103.637C89.8975 103.841 89.9395 103.981 90.0234 104.056C90.1073 104.128 90.2332 104.164 90.4011 104.164ZM93.5578 104.164C93.6777 104.164 93.8051 104.149 93.94 104.119V104.982C93.7242 105.054 93.4814 105.09 93.2116 105.09C92.8159 105.09 92.5041 104.981 92.2763 104.762C92.0484 104.543 91.9345 104.194 91.9345 103.714V100.962H91.1431V100.135H91.9345V98.9474H93.0542V100.135H93.9086V100.962H93.0542V103.637C93.0542 103.841 93.0962 103.981 93.1801 104.056C93.264 104.128 93.3899 104.164 93.5578 104.164ZM97.1102 100.045C97.5149 100.045 97.8597 100.147 98.1445 100.35C98.4323 100.554 98.6496 100.842 98.7965 101.214C98.9434 101.585 99.0169 102.02 99.0169 102.518V102.612C99.0169 103.089 98.9419 103.515 98.792 103.889C98.6451 104.264 98.4293 104.558 98.1445 104.771C97.8597 104.984 97.5194 105.09 97.1237 105.09C96.6021 105.09 96.1794 104.915 95.8557 104.564V106.871H94.736V100.135H95.7657L95.8107 100.625C96.1374 100.238 96.5706 100.045 97.1102 100.045ZM97.8972 102.518C97.8972 102.056 97.8057 101.681 97.6229 101.394C97.443 101.103 97.1687 100.957 96.8 100.957C96.3623 100.957 96.0475 101.139 95.8557 101.502V103.637C96.0505 104.006 96.3683 104.191 96.809 104.191C97.1747 104.191 97.4475 104.044 97.6274 103.75C97.8072 103.456 97.8972 103.077 97.8972 102.612V102.518ZM101.607 102.967C101.049 102.851 100.619 102.678 100.316 102.45C100.014 102.223 99.8622 101.914 99.8622 101.524C99.8622 101.257 99.9387 101.011 100.092 100.787C100.247 100.559 100.468 100.379 100.753 100.247C101.04 100.112 101.372 100.045 101.746 100.045C102.145 100.045 102.491 100.112 102.785 100.247C103.082 100.382 103.31 100.568 103.469 100.805C103.627 101.038 103.707 101.302 103.707 101.596H102.587C102.587 101.467 102.554 101.349 102.488 101.241C102.425 101.13 102.331 101.041 102.205 100.975C102.079 100.909 101.926 100.876 101.746 100.876C101.492 100.876 101.295 100.933 101.157 101.047C101.019 101.161 100.95 101.304 100.95 101.475C100.95 101.582 100.979 101.674 101.036 101.749C101.096 101.824 101.198 101.891 101.342 101.951C101.486 102.011 101.685 102.068 101.94 102.122C102.335 102.206 102.664 102.308 102.925 102.428C103.185 102.548 103.386 102.704 103.527 102.896C103.668 103.087 103.738 103.327 103.738 103.615C103.738 103.9 103.656 104.155 103.491 104.379C103.329 104.604 103.098 104.78 102.799 104.906C102.499 105.028 102.153 105.09 101.76 105.09C101.334 105.09 100.965 105.012 100.654 104.856C100.342 104.7 100.105 104.498 99.9432 104.249C99.7813 104 99.7004 103.738 99.7004 103.462H100.784C100.796 103.735 100.896 103.936 101.085 104.065C101.277 104.194 101.508 104.258 101.778 104.258C102.051 104.258 102.262 104.206 102.412 104.101C102.565 103.993 102.641 103.85 102.641 103.673C102.641 103.56 102.614 103.462 102.56 103.381C102.506 103.3 102.403 103.225 102.25 103.156C102.1 103.087 101.886 103.024 101.607 102.967ZM105.362 103.822C105.56 103.822 105.717 103.88 105.834 103.997C105.951 104.114 106.009 104.263 106.009 104.442C106.009 104.619 105.951 104.766 105.834 104.883C105.717 104.997 105.56 105.054 105.362 105.054C105.161 105.054 105.002 104.997 104.885 104.883C104.768 104.766 104.71 104.619 104.71 104.442C104.71 104.263 104.768 104.114 104.885 103.997C105.002 103.88 105.161 103.822 105.362 103.822ZM105.362 100.022C105.56 100.022 105.717 100.081 105.834 100.197C105.951 100.314 106.009 100.463 106.009 100.643C106.009 100.82 105.951 100.966 105.834 101.083C105.717 101.197 105.56 101.254 105.362 101.254C105.161 101.254 105.002 101.197 104.885 101.083C104.768 100.966 104.71 100.82 104.71 100.643C104.71 100.463 104.768 100.314 104.885 100.197C105.002 100.081 105.161 100.022 105.362 100.022ZM106.594 105.562L109.152 98.4528H110.025L107.471 105.562H106.594ZM109.148 105.562L111.707 98.4528H112.579L110.025 105.562H109.148ZM115.709 100.045C116.116 100.045 116.463 100.15 116.747 100.359C117.035 100.566 117.251 100.856 117.395 101.227C117.539 101.599 117.611 102.031 117.611 102.522V102.617C117.611 103.102 117.537 103.531 117.39 103.903C117.247 104.275 117.032 104.565 116.747 104.775C116.463 104.985 116.119 105.09 115.718 105.09C115.154 105.09 114.712 104.885 114.391 104.474L114.337 105H113.325V98.093H114.445V100.598C114.757 100.229 115.178 100.045 115.709 100.045ZM116.491 102.522C116.491 102.052 116.409 101.674 116.244 101.389C116.082 101.101 115.809 100.957 115.425 100.957C114.961 100.957 114.634 101.161 114.445 101.569V103.557C114.637 103.97 114.967 104.177 115.434 104.177C115.809 104.177 116.079 104.038 116.244 103.759C116.409 103.477 116.491 103.096 116.491 102.617V102.522ZM119.149 98.2729C119.344 98.2729 119.498 98.3299 119.612 98.4438C119.726 98.5547 119.783 98.6971 119.783 98.871C119.783 99.0418 119.726 99.1827 119.612 99.2937C119.498 99.4046 119.344 99.46 119.149 99.46C118.954 99.46 118.799 99.4061 118.686 99.2981C118.572 99.1872 118.515 99.0448 118.515 98.871C118.515 98.6971 118.572 98.5547 118.686 98.4438C118.799 98.3299 118.954 98.2729 119.149 98.2729ZM118.587 105V100.135H119.706V105H118.587ZM122.778 104.164C122.897 104.164 123.025 104.149 123.16 104.119V104.982C122.944 105.054 122.701 105.09 122.431 105.09C122.036 105.09 121.724 104.981 121.496 104.762C121.268 104.543 121.154 104.194 121.154 103.714V100.962H120.363V100.135H121.154V98.9474H122.274V100.135H123.128V100.962H122.274V103.637C122.274 103.841 122.316 103.981 122.4 104.056C122.484 104.128 122.61 104.164 122.778 104.164ZM126.33 100.045C126.735 100.045 127.079 100.147 127.364 100.35C127.652 100.554 127.869 100.842 128.016 101.214C128.163 101.585 128.237 102.02 128.237 102.518V102.612C128.237 103.089 128.162 103.515 128.012 103.889C127.865 104.264 127.649 104.558 127.364 104.771C127.079 104.984 126.739 105.09 126.343 105.09C125.822 105.09 125.399 104.915 125.075 104.564V106.871H123.956V100.135H124.985L125.03 100.625C125.357 100.238 125.79 100.045 126.33 100.045ZM127.117 102.518C127.117 102.056 127.025 101.681 126.843 101.394C126.663 101.103 126.388 100.957 126.02 100.957C125.582 100.957 125.267 101.139 125.075 101.502V103.637C125.27 104.006 125.588 104.191 126.029 104.191C126.394 104.191 126.667 104.044 126.847 103.75C127.027 103.456 127.117 103.077 127.117 102.612V102.518ZM132.999 103.867C132.999 104.311 133.06 104.663 133.183 104.924V105H132.041C131.993 104.895 131.951 104.744 131.915 104.546C131.762 104.711 131.579 104.843 131.366 104.942C131.153 105.04 130.912 105.09 130.642 105.09C130.325 105.09 130.04 105.027 129.788 104.901C129.536 104.775 129.34 104.601 129.199 104.379C129.058 104.158 128.988 103.909 128.988 103.633C128.988 103.114 129.179 102.717 129.563 102.441C129.95 102.166 130.497 102.028 131.204 102.028H131.879V101.713C131.879 101.455 131.808 101.254 131.668 101.11C131.527 100.963 131.318 100.89 131.043 100.89C130.878 100.89 130.732 100.918 130.606 100.975C130.48 101.032 130.383 101.11 130.314 101.209C130.245 101.308 130.211 101.419 130.211 101.542H129.091C129.091 101.281 129.173 101.037 129.338 100.809C129.506 100.578 129.743 100.394 130.049 100.256C130.358 100.115 130.71 100.045 131.106 100.045C131.477 100.045 131.805 100.108 132.09 100.233C132.375 100.359 132.597 100.548 132.756 100.8C132.918 101.052 132.999 101.359 132.999 101.722V103.867ZM130.858 104.195C131.092 104.195 131.299 104.14 131.479 104.029C131.662 103.918 131.795 103.784 131.879 103.628V102.72H131.294C130.905 102.72 130.609 102.791 130.409 102.932C130.208 103.072 130.107 103.27 130.107 103.525C130.107 103.723 130.173 103.885 130.305 104.011C130.437 104.134 130.621 104.195 130.858 104.195ZM138.017 100.135L136.079 105.737C135.956 106.073 135.779 106.361 135.548 106.601C135.32 106.844 134.994 106.965 134.568 106.965C134.421 106.965 134.243 106.938 134.033 106.884V106.025L134.24 106.034C134.507 106.034 134.709 105.986 134.847 105.89C134.988 105.797 135.099 105.633 135.18 105.396L135.332 104.982L133.624 100.135H134.833L135.845 103.399L136.825 100.135H138.017ZM139.335 103.822C139.532 103.822 139.69 103.88 139.807 103.997C139.924 104.114 139.982 104.263 139.982 104.442C139.982 104.619 139.924 104.766 139.807 104.883C139.69 104.997 139.532 105.054 139.335 105.054C139.134 105.054 138.975 104.997 138.858 104.883C138.741 104.766 138.683 104.619 138.683 104.442C138.683 104.263 138.741 104.114 138.858 103.997C138.975 103.88 139.134 103.822 139.335 103.822ZM141.925 103.822C142.122 103.822 142.28 103.88 142.397 103.997C142.514 104.114 142.572 104.263 142.572 104.442C142.572 104.619 142.514 104.766 142.397 104.883C142.28 104.997 142.122 105.054 141.925 105.054C141.724 105.054 141.565 104.997 141.448 104.883C141.331 104.766 141.273 104.619 141.273 104.442C141.273 104.263 141.331 104.114 141.448 103.997C141.565 103.88 141.724 103.822 141.925 103.822ZM144.515 103.822C144.713 103.822 144.87 103.88 144.987 103.997C145.104 104.114 145.162 104.263 145.162 104.442C145.162 104.619 145.104 104.766 144.987 104.883C144.87 104.997 144.713 105.054 144.515 105.054C144.314 105.054 144.155 104.997 144.038 104.883C143.921 104.766 143.863 104.619 143.863 104.442C143.863 104.263 143.921 104.114 144.038 103.997C144.155 103.88 144.314 103.822 144.515 103.822Z" fill="black"/>
<path opacity="0.750744" d="M23.0873 74.9948C23.4892 74.9948 23.8362 75.0679 24.1285 75.214C24.4233 75.3577 24.6473 75.5587 24.8008 75.8169C24.9542 76.0726 25.031 76.3649 25.031 76.6937C25.031 77.0372 24.9542 77.3331 24.8008 77.5816C24.6498 77.83 24.4281 78.02 24.1358 78.1515C23.846 78.2831 23.4965 78.3488 23.0873 78.3488H21.9912V80.3145H21.0449V74.9948H23.0873ZM23.0873 77.5889C23.4258 77.5889 23.6755 77.5097 23.8362 77.3514C23.9994 77.1931 24.081 76.9763 24.081 76.701C24.081 76.5305 24.0457 76.3747 23.9751 76.2334C23.9044 76.0897 23.7948 75.9752 23.6463 75.89C23.4977 75.8023 23.3113 75.7584 23.0873 75.7584H21.9912V77.5889H23.0873ZM28.1342 79.0942H26.0919L25.6681 80.3145H24.6779L26.6837 74.9948H27.3122H27.535L29.5482 80.3145H28.558L28.1342 79.0942ZM27.8675 78.3306L27.1112 76.1494L26.3549 78.3306H27.8675ZM32.392 74.9948H33.4406L31.6613 78.3598V80.3145H30.7077V78.3598L28.9284 74.9948H29.977L31.1827 77.4975L32.392 74.9948ZM39.4338 80.3145H38.4912V78.5973L38.5826 76.2334L37.0334 80.3145H36.3575L34.8084 76.237L34.9034 78.5973V80.3145H33.9571V74.9948H34.7609H35.1847L36.6973 79.043L38.2062 74.9948H39.4338V80.3145ZM43.9474 79.5545V80.3145H41.1524H40.4582V74.9948H41.4045H43.9255V75.7584H41.4045V77.2016H43.5784V77.9469H41.4045V79.5545H43.9474ZM47.9239 80.3145L45.5819 76.5732V80.3145H44.6356V74.9948H45.5819L47.9312 78.7434V74.9948H48.8701V80.3145H47.9239ZM53.76 75.7584H52.1049V80.3145H51.1623V75.7584H49.5255V74.9948H52.1049H53.76V75.7584ZM59.3856 79.5545V80.3145H56.7294H56.0353V74.9948H56.9815V79.5545H59.3856ZM60.0958 80.3145V74.9948H61.0384V80.3145H60.0958ZM65.3985 80.3145L63.0565 76.5732V80.3145H62.1102V74.9948H63.0565L65.4058 78.7434V74.9948H66.3448V80.3145H65.3985ZM68.9146 78.0346L68.3154 78.6703V80.3145H67.3691V74.9948H68.3154V77.4793L68.8269 76.8435L70.3541 74.9948H71.505L69.5393 77.3477L71.6073 80.3145H70.482L68.9146 78.0346Z" fill="#252525"/>
<path d="M195.594 29.7215C195.594 34.6667 191.495 38.6755 186.437 38.6755C181.379 38.6755 177.28 34.6667 177.28 29.7215C177.28 24.7764 181.379 20.7676 186.437 20.7676C191.495 20.7676 195.594 24.7764 195.594 29.7215ZM179.031 29.7215C179.031 33.721 182.347 36.9632 186.437 36.9632C190.527 36.9632 193.843 33.721 193.843 29.7215C193.843 25.7221 190.527 22.4799 186.437 22.4799C182.347 22.4799 179.031 25.7221 179.031 29.7215Z" fill="#E6E6E7"/>
<path d="M193.042 23.3893C194.54 24.8541 195.473 26.7815 195.68 28.8431C195.888 30.9046 195.358 32.9728 194.181 34.6952C193.004 36.4177 191.253 37.6878 189.225 38.2891C187.198 38.8904 185.02 38.7858 183.063 37.9931C181.105 37.2003 179.49 35.7685 178.491 33.9416C177.492 32.1146 177.172 30.0056 177.586 27.9739C177.999 25.9421 179.12 24.1134 180.758 22.7992C182.395 21.485 184.448 20.7668 186.567 20.7668L186.567 22.4791C184.854 22.4791 183.193 23.06 181.869 24.1228C180.544 25.1857 179.637 26.6647 179.303 28.3079C178.969 29.9511 179.228 31.6568 180.035 33.1344C180.843 34.612 182.15 35.77 183.733 36.4111C185.316 37.0522 187.077 37.1369 188.717 36.6505C190.357 36.1642 191.773 35.137 192.725 33.7439C193.677 32.3509 194.106 30.6782 193.938 29.0109C193.77 27.3436 193.016 25.7848 191.804 24.6001L193.042 23.3893Z" fill="#4F6EF7"/>
<path d="M186.577 26.5991C186.772 26.5991 186.926 26.656 187.04 26.7699C187.154 26.8809 187.211 27.0233 187.211 27.1971C187.211 27.368 187.154 27.5089 187.04 27.6198C186.926 27.7307 186.772 27.7862 186.577 27.7862C186.382 27.7862 186.228 27.7322 186.114 27.6243C186 27.5134 185.943 27.371 185.943 27.1971C185.943 27.0233 186 26.8809 186.114 26.7699C186.228 26.656 186.382 26.5991 186.577 26.5991ZM186.015 33.3262V28.4607H187.135V33.3262H186.015Z" fill="#4F6EF7"/>
<circle cx="29.1452" cy="29.7216" r="8.63372" fill="#EDF0FE"/>
<path fill-rule="evenodd" clip-rule="evenodd" d="M32.1551 29.3777H29.935C29.6686 29.3777 29.4909 29.2001 29.4909 28.9337V26.7136C29.4909 26.4471 29.6686 26.2695 29.935 26.2695H32.1551C32.4215 26.2695 32.5991 26.4471 32.5991 26.7136V28.9337C32.5991 29.2001 32.4215 29.3777 32.1551 29.3777ZM31.859 28.9637H30.231C30.0356 28.9637 29.9054 28.8334 29.9054 28.638V27.01C29.9054 26.8146 30.0356 26.6844 30.231 26.6844H31.859C32.0544 26.6844 32.1847 26.8146 32.1847 27.01V28.638C32.1847 28.8334 32.0544 28.9637 31.859 28.9637ZM30.6011 28.4442H31.4892C31.5957 28.4442 31.6668 28.3732 31.6668 28.2666V27.3786C31.6668 27.272 31.5957 27.201 31.4892 27.201H30.6011C30.4945 27.201 30.4235 27.272 30.4235 27.3786V28.2666C30.4235 28.3732 30.4945 28.4442 30.6011 28.4442ZM30.5269 30.5851C30.5269 30.8712 30.295 31.1031 30.0089 31.1031C29.7228 31.1031 29.4909 30.8712 29.4909 30.5851C29.4909 30.299 29.7228 30.0671 30.0089 30.0671C30.295 30.0671 30.5269 30.299 30.5269 30.5851ZM32.2537 32.3118C32.2537 32.5979 32.0217 32.8299 31.7356 32.8299C31.4495 32.8299 31.2176 32.5979 31.2176 32.3118C31.2176 32.0257 31.4495 31.7938 31.7356 31.7938C32.0217 31.7938 32.2537 32.0257 32.2537 32.3118ZM30.0089 32.8299C30.295 32.8299 30.5269 32.5979 30.5269 32.3118C30.5269 32.0257 30.295 31.7938 30.0089 31.7938C29.7228 31.7938 29.4909 32.0257 29.4909 32.3118C29.4909 32.5979 29.7228 32.8299 30.0089 32.8299ZM32.2537 30.5851C32.2537 30.8712 32.0217 31.1031 31.7356 31.1031C31.4495 31.1031 31.2176 30.8712 31.2176 30.5851C31.2176 30.299 31.4495 30.0671 31.7356 30.0671C32.0217 30.0671 32.2537 30.299 32.2537 30.5851ZM26.1362 33.1763H28.3563C28.6227 33.1763 28.8003 32.9987 28.8003 32.7322V30.5121C28.8003 30.2457 28.6227 30.0681 28.3563 30.0681H26.1362C25.8697 30.0681 25.6921 30.2457 25.6921 30.5121V32.7322C25.6921 32.9987 25.8697 33.1763 26.1362 33.1763ZM26.4322 32.7611H28.0602C28.2556 32.7611 28.3858 32.6309 28.3858 32.4355V30.8074C28.3858 30.6121 28.2556 30.4818 28.0602 30.4818H26.4322C26.2368 30.4818 26.1065 30.6121 26.1065 30.8074V32.4355C26.1065 32.6309 26.2368 32.7611 26.4322 32.7611ZM27.6902 32.2426H26.8022C26.6956 32.2426 26.6245 32.1716 26.6245 32.065V31.177C26.6245 31.0704 26.6956 30.9994 26.8022 30.9994H27.6902C27.7968 30.9994 27.8678 31.0704 27.8678 31.177V32.065C27.8678 32.1716 27.7968 32.2426 27.6902 32.2426ZM26.1362 29.3777H28.3563C28.6227 29.3777 28.8003 29.2001 28.8003 28.9337V26.7136C28.8003 26.4471 28.6227 26.2695 28.3563 26.2695H26.1362C25.8697 26.2695 25.6921 26.4471 25.6921 26.7136V28.9337C25.6921 29.2001 25.8697 29.3777 26.1362 29.3777ZM26.4322 28.9637H28.0602C28.2556 28.9637 28.3858 28.8334 28.3858 28.638V27.01C28.3858 26.8146 28.2556 26.6844 28.0602 26.6844H26.4322C26.2368 26.6844 26.1065 26.8146 26.1065 27.01V28.638C26.1065 28.8334 26.2368 28.9637 26.4322 28.9637ZM27.6902 28.4442H26.8022C26.6956 28.4442 26.6245 28.3732 26.6245 28.2666V27.3786C26.6245 27.272 26.6956 27.201 26.8022 27.201H27.6902C27.7968 27.201 27.8678 27.272 27.8678 27.3786V28.2666C27.8678 28.3732 27.7968 28.4442 27.6902 28.4442Z" fill="#4F6EF7"/>
<rect x="20.5115" y="135.053" width="174.977" height="28.7791" rx="3.45349" fill="#2240C4"/>
<path d="M80.6752 144.779C81.2317 144.779 81.7123 144.88 82.117 145.082C82.525 145.281 82.8353 145.56 83.0478 145.917C83.2603 146.271 83.3665 146.676 83.3665 147.131C83.3665 147.607 83.2603 148.017 83.0478 148.361C82.8387 148.705 82.5318 148.968 82.1271 149.15C81.7257 149.332 81.2418 149.423 80.6752 149.423H79.1576V152.145H77.8473V144.779H80.6752ZM80.6752 148.371C81.144 148.371 81.4897 148.261 81.7123 148.042C81.9382 147.823 82.0512 147.522 82.0512 147.141C82.0512 146.905 82.0023 146.689 81.9045 146.494C81.8067 146.295 81.6549 146.136 81.4492 146.018C81.2435 145.897 80.9855 145.836 80.6752 145.836H79.1576V148.371H80.6752ZM88.6428 150.87C88.6428 151.369 88.712 151.765 88.8503 152.059V152.145H87.5653C87.5114 152.026 87.4641 151.856 87.4237 151.634C87.2517 151.819 87.0459 151.967 86.8065 152.079C86.567 152.19 86.2955 152.246 85.992 152.246C85.6345 152.246 85.3141 152.175 85.0308 152.033C84.7475 151.892 84.5266 151.696 84.3681 151.446C84.2096 151.197 84.1304 150.917 84.1304 150.607C84.1304 150.023 84.3462 149.576 84.7779 149.266C85.213 148.956 85.8284 148.801 86.6244 148.801H87.3832V148.447C87.3832 148.156 87.3039 147.931 87.1454 147.769C86.9869 147.603 86.7525 147.521 86.4423 147.521C86.2568 147.521 86.0932 147.553 85.9515 147.617C85.8099 147.681 85.7003 147.769 85.6227 147.88C85.5452 147.991 85.5064 148.116 85.5064 148.254H84.2467C84.2467 147.961 84.3395 147.686 84.525 147.43C84.7138 147.17 84.9803 146.963 85.3243 146.807C85.6716 146.649 86.0679 146.57 86.5131 146.57C86.9313 146.57 87.3006 146.641 87.621 146.782C87.9414 146.924 88.1909 147.136 88.3697 147.42C88.5518 147.703 88.6428 148.049 88.6428 148.457V150.87ZM86.2348 151.239C86.4979 151.239 86.7306 151.177 86.933 151.052C87.1387 150.927 87.2888 150.777 87.3832 150.602V149.58H86.7255C86.2871 149.58 85.9549 149.659 85.729 149.817C85.503 149.976 85.39 150.199 85.39 150.485C85.39 150.708 85.4642 150.89 85.6126 151.032C85.761 151.17 85.9684 151.239 86.2348 151.239ZM94.2885 146.671L92.1081 152.974C91.9699 153.352 91.7709 153.676 91.5112 153.945C91.2549 154.219 90.8873 154.355 90.4084 154.355C90.2431 154.355 90.0424 154.325 89.8064 154.264V153.298L90.0391 153.308C90.3392 153.308 90.5669 153.254 90.722 153.146C90.8805 153.042 91.0053 152.856 91.0964 152.59L91.2684 152.124L89.346 146.671H90.7068L91.8451 150.344L92.9479 146.671H94.2885ZM98.2748 144.577C98.4941 144.577 98.6677 144.641 98.7959 144.769C98.9241 144.894 98.9881 145.054 98.9881 145.249C98.9881 145.442 98.9241 145.6 98.7959 145.725C98.6677 145.85 98.4941 145.912 98.2748 145.912C98.0556 145.912 97.8819 145.851 97.7538 145.73C97.6256 145.605 97.5615 145.445 97.5615 145.249C97.5615 145.054 97.6256 144.894 97.7538 144.769C97.8819 144.641 98.0556 144.577 98.2748 144.577ZM97.6425 152.145V146.671H98.9021V152.145H97.6425ZM103.02 146.57C103.576 146.57 104.005 146.732 104.305 147.055C104.608 147.376 104.76 147.895 104.76 148.613V152.145H103.501V148.603C103.501 148.239 103.421 147.981 103.263 147.829C103.108 147.674 102.868 147.597 102.544 147.597C102.308 147.597 102.098 147.654 101.912 147.769C101.727 147.883 101.578 148.044 101.467 148.249V152.145H100.207V146.671H101.391L101.432 147.303C101.627 147.067 101.86 146.887 102.13 146.762C102.399 146.634 102.696 146.57 103.02 146.57ZM116.876 144.779L115.186 152.145H114.311H113.917L112.546 146.818L111.144 152.145H110.315H109.875L108.185 144.779H109.485L110.613 150.273L111.994 144.779H112.794H113.092L114.458 150.288L115.571 144.779H116.876ZM121.839 150.87C121.839 151.369 121.908 151.765 122.046 152.059V152.145H120.761C120.707 152.026 120.66 151.856 120.62 151.634C120.448 151.819 120.242 151.967 120.002 152.079C119.763 152.19 119.492 152.246 119.188 152.246C118.831 152.246 118.51 152.175 118.227 152.033C117.944 151.892 117.723 151.696 117.564 151.446C117.406 151.197 117.326 150.917 117.326 150.607C117.326 150.023 117.542 149.576 117.974 149.266C118.409 148.956 119.024 148.801 119.82 148.801H120.579V148.447C120.579 148.156 120.5 147.931 120.341 147.769C120.183 147.603 119.949 147.521 119.638 147.521C119.453 147.521 119.289 147.553 119.148 147.617C119.006 147.681 118.896 147.769 118.819 147.88C118.741 147.991 118.702 148.116 118.702 148.254H117.443C117.443 147.961 117.535 147.686 117.721 147.43C117.91 147.17 118.176 146.963 118.52 146.807C118.868 146.649 119.264 146.57 119.709 146.57C120.127 146.57 120.497 146.641 120.817 146.782C121.137 146.924 121.387 147.136 121.566 147.42C121.748 147.703 121.839 148.049 121.839 148.457V150.87ZM119.431 151.239C119.694 151.239 119.927 151.177 120.129 151.052C120.335 150.927 120.485 150.777 120.579 150.602V149.58H119.922C119.483 149.58 119.151 149.659 118.925 149.817C118.699 149.976 118.586 150.199 118.586 150.485C118.586 150.708 118.66 150.89 118.809 151.032C118.957 151.17 119.164 151.239 119.431 151.239ZM123.19 152.145V144.374H124.449V152.145H123.19ZM125.85 152.145V144.374H127.11V152.145H125.85ZM133.059 149.802H129.493C129.516 150.082 129.589 150.33 129.71 150.546C129.832 150.762 129.995 150.93 130.201 151.052C130.41 151.173 130.653 151.234 130.93 151.234C131.496 151.234 131.951 151.011 132.295 150.566L132.968 151.219C132.769 151.512 132.493 151.757 132.139 151.952C131.784 152.148 131.356 152.246 130.854 152.246C130.321 152.246 129.855 152.131 129.457 151.902C129.059 151.669 128.754 151.352 128.542 150.951C128.329 150.549 128.223 150.099 128.223 149.6V149.393C128.223 148.829 128.331 148.335 128.547 147.91C128.763 147.482 129.059 147.151 129.437 146.919C129.815 146.686 130.24 146.57 130.712 146.57C131.228 146.57 131.661 146.683 132.012 146.909C132.363 147.135 132.624 147.452 132.796 147.86C132.972 148.264 133.059 148.735 133.059 149.271V149.802ZM131.815 148.796C131.798 148.441 131.702 148.151 131.526 147.925C131.351 147.696 131.078 147.581 130.707 147.581C130.376 147.581 130.11 147.696 129.908 147.925C129.705 148.155 129.575 148.477 129.518 148.892H131.815V148.796ZM136.13 151.204C136.265 151.204 136.408 151.187 136.56 151.153V152.124C136.317 152.205 136.044 152.246 135.74 152.246C135.295 152.246 134.945 152.123 134.688 151.876C134.432 151.63 134.304 151.237 134.304 150.698V147.602H133.413V146.671H134.304V145.335H135.563V146.671H136.525V147.602H135.563V150.612C135.563 150.841 135.611 150.998 135.705 151.082C135.799 151.163 135.941 151.204 136.13 151.204Z" fill="white"/>
<defs>
<filter id="filter0_d_1405_39781" x="0.941861" y="0.941861" width="214.116" height="189.366" filterUnits="userSpaceOnUse" color-interpolation-filters="sRGB">
<feFlood flood-opacity="0" result="BackgroundImageFix"/>
<feColorMatrix in="SourceAlpha" type="matrix" values="0 0 0 0 0 0 0 0 0 0 0 0 0 0 0 0 0 0 127 0" result="hardAlpha"/>
<feOffset/>
<feGaussianBlur stdDeviation="4.02907"/>
<feColorMatrix type="matrix" values="0 0 0 0 0 0 0 0 0 0 0 0 0 0 0 0 0 0 0.05 0"/>
<feBlend mode="normal" in2="BackgroundImageFix" result="effect1_dropShadow_1405_39781"/>
<feBlend mode="normal" in="SourceGraphic" in2="effect1_dropShadow_1405_39781" result="shape"/>
</filter>
<clipPath id="clip0_1405_39781">
<rect width="174.977" height="31.657" fill="white" transform="translate(20.5115 86.1289)"/>
</clipPath>
</defs>
</svg>
