<svg width="50" height="49" viewBox="0 0 50 49" fill="none" xmlns="http://www.w3.org/2000/svg">
<ellipse cx="25" cy="24.4565" rx="25" ry="24.4565" fill="#214497"/>
<mask id="mask0_1747_40794" style="mask-type:alpha" maskUnits="userSpaceOnUse" x="0" y="0" width="50" height="49">
<ellipse cx="25" cy="24.4565" rx="25" ry="24.4565" fill="white"/>
</mask>
<g mask="url(#mask0_1747_40794)">
<rect x="-2.22217" y="-1.19556" width="36.6667" height="34.7826" rx="17.3913" fill="#1A2C57"/>
<path d="M56.335 19.6094C56.5297 19.5401 56.6982 19.4123 56.8172 19.2434C56.9363 19.0746 57.0002 18.873 57 18.6664V14.8914C57 14.6261 56.8946 14.3718 56.7071 14.1843C56.5196 13.9967 56.2652 13.8914 56 13.8914H52.225C52.0184 13.8912 51.8168 13.955 51.6479 14.0741C51.479 14.1932 51.3512 14.3617 51.282 14.5564C51.0453 15.2383 50.6021 15.8296 50.014 16.2481C49.4258 16.6666 48.7219 16.8914 48 16.8914C47.2781 16.8914 46.5742 16.6666 45.986 16.2481C45.3979 15.8296 44.9547 15.2383 44.718 14.5564C44.6488 14.3617 44.521 14.1932 44.3521 14.0741C44.1832 13.955 43.9816 13.8912 43.775 13.8914H40.225C40.0184 13.8912 39.8168 13.955 39.6479 14.0741C39.479 14.1932 39.3512 14.3617 39.282 14.5564C39.0453 15.2383 38.6021 15.8296 38.014 16.2481C37.4258 16.6666 36.7219 16.8914 36 16.8914C35.2781 16.8914 34.5742 16.6666 33.986 16.2481C33.3979 15.8296 32.9547 15.2383 32.718 14.5564C32.6488 14.3617 32.521 14.1932 32.3521 14.0741C32.1832 13.955 31.9816 13.8912 31.775 13.8914H28.225C28.0184 13.8912 27.8168 13.955 27.6479 14.0741C27.479 14.1932 27.3512 14.3617 27.282 14.5564C27.0453 15.2383 26.6021 15.8296 26.014 16.2481C25.4258 16.6666 24.7219 16.8914 24 16.8914C23.2781 16.8914 22.5742 16.6666 21.986 16.2481C21.3979 15.8296 20.9547 15.2383 20.718 14.5564C20.6488 14.3617 20.521 14.1932 20.3521 14.0741C20.1832 13.955 19.9816 13.8912 19.775 13.8914H16C15.7348 13.8914 15.4804 13.9967 15.2929 14.1843C15.1054 14.3718 15 14.6261 15 14.8914V18.6664C14.9998 18.873 15.0637 19.0746 15.1828 19.2434C15.3018 19.4123 15.4703 19.5401 15.665 19.6094C16.347 19.846 16.9383 20.2892 17.3567 20.8774C17.7752 21.4656 18.0001 22.1695 18.0001 22.8914C18.0001 23.6132 17.7752 24.3171 17.3567 24.9053C16.9383 25.4935 16.347 25.9367 15.665 26.1734C15.4703 26.2426 15.3018 26.3704 15.1828 26.5393C15.0637 26.7081 14.9998 26.9097 15 27.1164V30.6664C14.9998 30.873 15.0637 31.0746 15.1828 31.2434C15.3018 31.4123 15.4703 31.5401 15.665 31.6094C16.347 31.846 16.9383 32.2892 17.3567 32.8774C17.7752 33.4656 18.0001 34.1695 18.0001 34.8914C18.0001 35.6132 17.7752 36.3171 17.3567 36.9053C16.9383 37.4935 16.347 37.9367 15.665 38.1734C15.4703 38.2426 15.3018 38.3704 15.1828 38.5393C15.0637 38.7081 14.9998 38.9097 15 39.1164V42.6664C14.9998 42.873 15.0637 43.0746 15.1828 43.2434C15.3018 43.4123 15.4703 43.5401 15.665 43.6094C16.347 43.846 16.9383 44.2892 17.3567 44.8774C17.7752 45.4656 18.0001 46.1695 18.0001 46.8914C18.0001 47.6132 17.7752 48.3171 17.3567 48.9053C16.9383 49.4935 16.347 49.9367 15.665 50.1734C15.4703 50.2426 15.3018 50.3704 15.1828 50.5393C15.0637 50.7081 14.9998 50.9097 15 51.1164V54.8914C15 55.1566 15.1054 55.4109 15.2929 55.5985C15.4804 55.786 15.7348 55.8914 16 55.8914H19.775C19.9816 55.8915 20.1832 55.8277 20.3521 55.7086C20.521 55.5895 20.6488 55.421 20.718 55.2264C20.9547 54.5444 21.3979 53.9531 21.986 53.5346C22.5742 53.1161 23.2781 52.8913 24 52.8913C24.7219 52.8913 25.4258 53.1161 26.014 53.5346C26.6021 53.9531 27.0453 54.5444 27.282 55.2264C27.3512 55.421 27.479 55.5895 27.6479 55.7086C27.8168 55.8277 28.0184 55.8915 28.225 55.8914H31.775C31.9816 55.8915 32.1832 55.8277 32.3521 55.7086C32.521 55.5895 32.6488 55.421 32.718 55.2264C32.9547 54.5444 33.3979 53.9531 33.986 53.5346C34.5742 53.1161 35.2781 52.8913 36 52.8913C36.7219 52.8913 37.4258 53.1161 38.014 53.5346C38.6021 53.9531 39.0453 54.5444 39.282 55.2264C39.3512 55.421 39.479 55.5895 39.6479 55.7086C39.8168 55.8277 40.0184 55.8915 40.225 55.8914H43.775C43.9816 55.8915 44.1832 55.8277 44.3521 55.7086C44.521 55.5895 44.6488 55.421 44.718 55.2264C44.9547 54.5444 45.3979 53.9531 45.986 53.5346C46.5742 53.1161 47.2781 52.8913 48 52.8913C48.7219 52.8913 49.4258 53.1161 50.014 53.5346C50.6021 53.9531 51.0453 54.5444 51.282 55.2264C51.3512 55.421 51.479 55.5895 51.6479 55.7086C51.8168 55.8277 52.0184 55.8915 52.225 55.8914H56C56.2652 55.8914 56.5196 55.786 56.7071 55.5985C56.8946 55.4109 57 55.1566 57 54.8914V51.1164C57.0002 50.9097 56.9363 50.7081 56.8172 50.5393C56.6982 50.3704 56.5297 50.2426 56.335 50.1734C55.653 49.9367 55.0617 49.4935 54.6433 48.9053C54.2248 48.3171 53.9999 47.6132 53.9999 46.8914C53.9999 46.1695 54.2248 45.4656 54.6433 44.8774C55.0617 44.2892 55.653 43.846 56.335 43.6094C56.5297 43.5401 56.6982 43.4123 56.8172 43.2434C56.9363 43.0746 57.0002 42.873 57 42.6664V39.1164C57.0002 38.9097 56.9363 38.7081 56.8172 38.5393C56.6982 38.3704 56.5297 38.2426 56.335 38.1734C55.653 37.9367 55.0617 37.4935 54.6433 36.9053C54.2248 36.3171 53.9999 35.6132 53.9999 34.8914C53.9999 34.1695 54.2248 33.4656 54.6433 32.8774C55.0617 32.2892 55.653 31.846 56.335 31.6094C56.5297 31.5401 56.6982 31.4123 56.8172 31.2434C56.9363 31.0746 57.0002 30.873 57 30.6664V27.1164C57.0002 26.9097 56.9363 26.7081 56.8172 26.5393C56.6982 26.3704 56.5297 26.2426 56.335 26.1734C55.653 25.9367 55.0617 25.4935 54.6433 24.9053C54.2248 24.3171 53.9999 23.6132 53.9999 22.8914C53.9999 22.1695 54.2248 21.4656 54.6433 20.8774C55.0617 20.2892 55.653 19.846 56.335 19.6094Z" fill="#DFE5FF"/>
<path d="M49.75 19.8914H22.25C21.5596 19.8914 21 20.451 21 21.1414V48.6414C21 49.3317 21.5596 49.8914 22.25 49.8914H49.75C50.4404 49.8914 51 49.3317 51 48.6414V21.1414C51 20.451 50.4404 19.8914 49.75 19.8914Z" fill="#4F6EF7"/>
<path d="M35.4211 37.4914L31 48.8914L52 41.7136L47.0263 29.8914L40.3947 41.7136L35.4211 37.4914Z" fill="#DFE5FF"/>
</g>
<circle cx="32.5" cy="30.5" r="3.5" fill="#DFE5FF"/>
</svg>
