<svg xmlns="http://www.w3.org/2000/svg" width="28.75" height="28.652" viewBox="0 0 28.75 28.652"><defs><style>.a{fill:#353ef4;}.a,.b{fill-rule:evenodd;}.b{fill:#9a9ffa;}</style></defs><g transform="translate(-10223 -11593.143)"><path class="a" d="M9.917,12.007a5.092,5.092,0,1,0,6.928-1.98,5.07,5.07,0,0,0-6.928,1.98" transform="translate(10223 11593)"/><path class="a" d="M7.747,24.437q-.441.264-.854.556a.38.38,0,0,0-.06.57,29.847,29.847,0,0,0,2.444,2.328,3.792,3.792,0,0,0,3.273.815,29.734,29.734,0,0,0,3.569-1.022A27.319,27.319,0,0,0,20.966,25.4q.418-.25.828-.517a.255.255,0,0,0-.01-.431,13.634,13.634,0,0,0-14.036-.016" transform="translate(10223 11593)"/><path class="b" d="M4.372,1.076Q4.107.637,3.814.225a.383.383,0,0,0-.571-.06A29.905,29.905,0,0,0,.907,2.6,3.761,3.761,0,0,0,.089,5.863,29.554,29.554,0,0,0,1.115,9.42,27.122,27.122,0,0,0,3.4,14.25q.251.416.519.825a.256.256,0,0,0,.433-.01A13.509,13.509,0,0,0,4.372,1.076" transform="translate(10223 11599.787)"/><path class="b" d="M20.892,4.5q.441-.264.854-.556a.38.38,0,0,0,.06-.57,29.817,29.817,0,0,0-2.444-2.328A3.792,3.792,0,0,0,16.089.232,29.811,29.811,0,0,0,12.52,1.254,27.311,27.311,0,0,0,7.674,3.536q-.418.25-.828.517a.254.254,0,0,0,.01.431A13.634,13.634,0,0,0,20.892,4.5" transform="translate(10223 11593)"/><path class="b" d="M2.088,14.286q.265.439.558.851a.383.383,0,0,0,.571.06,29.9,29.9,0,0,0,2.336-2.436A3.761,3.761,0,0,0,6.371,9.5,29.554,29.554,0,0,0,5.346,5.942a27.129,27.129,0,0,0-2.29-4.83Q2.805.7,2.537.287A.256.256,0,0,0,2.1.3a13.509,13.509,0,0,0-.016,13.989" transform="translate(10245.289 11599.787)"/></g></svg>