<?xml version="1.0" encoding="UTF-8"?>
<svg width="190px" height="235px" viewBox="0 0 190 235" version="1.1" xmlns="http://www.w3.org/2000/svg" xmlns:xlink="http://www.w3.org/1999/xlink">
    <!-- Generator: Sketch 62 (91390) - https://sketch.com -->
    <title>Group 31</title>
    <desc>Created with Sketch.</desc>
    <defs>
        <path d="M5.33793103,0 L166.662069,0 C169.610127,-5.41549452e-16 172,2.38987313 172,5.33793103 L172,211.662069 C172,214.610127 169.610127,217 166.662069,217 L5.33793103,217 C2.38987313,217 4.80192507e-15,214.610127 0,211.662069 L0,5.33793103 C-3.61032968e-16,2.38987313 2.38987313,4.98244155e-15 5.33793103,0 Z" id="online-payment--conversion-path-1"></path>
        <filter x="-7.8%" y="-6.2%" width="115.7%" height="112.4%" filterUnits="objectBoundingBox" id="filter-2">
            <feMorphology radius="1" operator="dilate" in="SourceAlpha" result="shadowSpreadOuter1"></feMorphology>
            <feOffset dx="0" dy="0" in="shadowSpreadOuter1" result="shadowOffsetOuter1"></feOffset>
            <feGaussianBlur stdDeviation="3.5" in="shadowOffsetOuter1" result="shadowBlurOuter1"></feGaussianBlur>
            <feColorMatrix values="0 0 0 0 0   0 0 0 0 0   0 0 0 0 0  0 0 0 0.05 0" type="matrix" in="shadowBlurOuter1"></feColorMatrix>
        </filter>
        <path d="M18.5,37 C28.7172679,37 37,28.7172679 37,18.5 C37,8.28273213 28.7172679,0 18.5,0 C8.28273213,0 0,8.28273213 0,18.5 C0,28.7172679 8.28273213,37 18.5,37 Z" id="path-3"></path>
        <path d="M18.5,37 C28.7172679,37 37,28.7172679 37,18.5 C37,8.28273213 28.7172679,0 18.5,0 C8.28273213,0 0,8.28273213 0,18.5 C0,28.7172679 8.28273213,37 18.5,37 Z" id="path-5"></path>
    </defs>
    <g id="Page-1" stroke="none" stroke-width="1" fill="none" fill-rule="evenodd">
        <g id="Group-31" transform="translate(9.000000, 9.000000)">
            <g >
                <use fill="black" fill-opacity="1" filter="url(#filter-2)" xlink:href="#online-payment--conversion-path-1"></use>
                <use fill="#FFFFFF" fill-rule="evenodd" xlink:href="#online-payment--conversion-path-1"></use>
            </g>
            <g id="Group-33" transform="translate(50.000000, 182.000000)">
                <rect id="Rectangle" fill="#EBEBEB" x="0" y="0" width="74" height="14" rx="7"></rect>
                <path d="M14.0969238,10.9316406 L14.0969238,10.074707 C14.6330566,10.0161133 15.0541992,9.83520508 15.3603516,9.53198242 C15.6665039,9.22875977 15.8195801,8.82373047 15.8195801,8.31689453 C15.8195801,7.96533203 15.7478027,7.66723633 15.604248,7.42260742 C15.4606934,7.17797852 15.2570801,6.97216797 14.9934082,6.80517578 C14.7297363,6.63818359 14.3913574,6.47998047 13.9782715,6.33056641 C13.7087402,6.23095703 13.4978027,6.13208008 13.345459,6.03393555 C13.1931152,5.93579102 13.0839844,5.82739258 13.0180664,5.70874023 C12.9521484,5.59008789 12.9191895,5.44726562 12.9191895,5.28027344 C12.9191895,5.01367188 12.9924316,4.80200195 13.138916,4.64526367 C13.2854004,4.48852539 13.505127,4.41015625 13.7980957,4.41015625 C14.0822754,4.41015625 14.3041992,4.51416016 14.4638672,4.72216797 C14.6235352,4.93017578 14.7033691,5.21728516 14.7033691,5.58349609 L14.7033691,5.58349609 L15.7976074,5.58349609 C15.7976074,4.99755859 15.6555176,4.52734375 15.3713379,4.17285156 C15.0871582,3.81835938 14.6931152,3.60595703 14.189209,3.53564453 L14.189209,3.53564453 L14.189209,2.56884766 L13.486084,2.56884766 L13.486084,3.52685547 C13.1520996,3.56494141 12.8605957,3.66015625 12.6115723,3.8125 C12.3625488,3.96484375 12.1699219,4.16699219 12.0336914,4.41894531 C11.8974609,4.67089844 11.8293457,4.95947266 11.8293457,5.28466797 C11.8293457,5.63916016 11.9033203,5.93945312 12.0512695,6.18554688 C12.1992188,6.43164062 12.4064941,6.63818359 12.6730957,6.80517578 C12.9396973,6.97216797 13.2780762,7.12597656 13.6882324,7.26660156 C14.0661621,7.3984375 14.3342285,7.5456543 14.4924316,7.70825195 C14.6506348,7.87084961 14.7297363,8.07666016 14.7297363,8.32568359 C14.7297363,8.59228516 14.6425781,8.80322266 14.4682617,8.95849609 C14.2939453,9.11376953 14.0471191,9.19140625 13.7277832,9.19140625 C13.4318848,9.19140625 13.1828613,9.1027832 12.9807129,8.92553711 C12.7785645,8.74829102 12.6774902,8.45458984 12.6774902,8.04443359 L12.6774902,8.04443359 L11.583252,8.04443359 C11.583252,8.48095703 11.6660156,8.8449707 11.831543,9.13647461 C11.9970703,9.42797852 12.2160645,9.6484375 12.4885254,9.79785156 C12.7609863,9.94726562 13.064209,10.0395508 13.3981934,10.074707 L13.3981934,10.074707 L13.3981934,10.9316406 L14.0969238,10.9316406 Z M19.6604004,10 L19.6604004,3.57958984 L19.5241699,3.57958984 L17.0061035,4.50244141 L17.0061035,5.41650391 L18.5661621,4.89355469 L18.5661621,10 L19.6604004,10 Z M23.8395996,10.0878906 C24.2526855,10.0878906 24.623291,10.013916 24.951416,9.8659668 C25.279541,9.71801758 25.5373535,9.50195312 25.7248535,9.21777344 C25.9123535,8.93359375 26.0061035,8.59667969 26.0061035,8.20703125 C26.0061035,7.86425781 25.9182129,7.56103516 25.7424316,7.29736328 C25.5666504,7.03369141 25.2956543,6.83886719 24.9294434,6.71289062 C25.2429199,6.57226562 25.4846191,6.37451172 25.654541,6.11962891 C25.8244629,5.86474609 25.9094238,5.60253906 25.9094238,5.33300781 C25.9094238,4.94042969 25.8237305,4.60791016 25.6523438,4.33544922 C25.480957,4.06298828 25.2399902,3.85791016 24.9294434,3.72021484 C24.6188965,3.58251953 24.2556152,3.51367188 23.8395996,3.51367188 C23.4528809,3.51367188 23.1035156,3.58911133 22.7915039,3.73999023 C22.4794922,3.89086914 22.2355957,4.09960938 22.0598145,4.36621094 C21.8840332,4.6328125 21.7961426,4.93310547 21.7961426,5.26708984 L21.7961426,5.26708984 L22.8903809,5.26708984 C22.8903809,5.09130859 22.9321289,4.9375 23.015625,4.80566406 C23.0991211,4.67382812 23.2141113,4.57202148 23.3605957,4.50024414 C23.5070801,4.4284668 23.6726074,4.39257812 23.8571777,4.39257812 C24.173584,4.39257812 24.4123535,4.47460938 24.5734863,4.63867188 C24.7346191,4.80273438 24.8151855,5.03417969 24.8151855,5.33300781 C24.8151855,5.62890625 24.7243652,5.86474609 24.5427246,6.04052734 C24.361084,6.21630859 24.0959473,6.30419922 23.7473145,6.30419922 L23.7473145,6.30419922 L23.1101074,6.30419922 L23.1101074,7.16552734 L23.7473145,7.16552734 C24.1164551,7.16552734 24.402832,7.25048828 24.6064453,7.42041016 C24.8100586,7.59033203 24.9118652,7.85107422 24.9118652,8.20263672 C24.9118652,8.52197266 24.8188477,8.76953125 24.6328125,8.9453125 C24.4467773,9.12109375 24.1882324,9.20898438 23.8571777,9.20898438 C23.6520996,9.20898438 23.4719238,9.17016602 23.3166504,9.0925293 C23.161377,9.01489258 23.0412598,8.9050293 22.9562988,8.76293945 C22.8713379,8.62084961 22.8288574,8.45898438 22.8288574,8.27734375 L22.8288574,8.27734375 L21.7346191,8.27734375 C21.7346191,8.66113281 21.8305664,8.98925781 22.0224609,9.26171875 C22.2143555,9.53417969 22.4707031,9.73999023 22.7915039,9.87915039 C23.1123047,10.0183105 23.4616699,10.0878906 23.8395996,10.0878906 Z M29.1877441,10.0878906 C29.6154785,10.0878906 29.9868164,9.99267578 30.3017578,9.80224609 C30.6166992,9.61181641 30.857666,9.3503418 31.0246582,9.01782227 C31.1916504,8.68530273 31.2751465,8.3125 31.2751465,7.89941406 C31.2751465,7.51269531 31.2077637,7.15673828 31.072998,6.83154297 C30.9382324,6.50634766 30.7331543,6.24560547 30.4577637,6.04931641 C30.182373,5.85302734 29.845459,5.75488281 29.4470215,5.75488281 C29.1833496,5.75488281 28.9401855,5.80029297 28.7175293,5.89111328 C28.494873,5.98193359 28.3029785,6.11376953 28.1418457,6.28662109 C28.1828613,5.93212891 28.284668,5.61938477 28.4472656,5.34838867 C28.6098633,5.07739258 28.842041,4.86279297 29.1437988,4.70458984 C29.4455566,4.54638672 29.8161621,4.46728516 30.2556152,4.46728516 L30.2556152,4.46728516 L30.3303223,4.46728516 L30.3303223,3.56640625 L30.1984863,3.56640625 C29.4689941,3.56640625 28.8669434,3.72607422 28.392334,4.04541016 C27.9177246,4.36474609 27.5705566,4.79321289 27.3508301,5.33081055 C27.1311035,5.8684082 27.0212402,6.47412109 27.0212402,7.14794922 L27.0212402,7.14794922 L27.0212402,7.57421875 C27.0212402,8.03125 27.1069336,8.45092773 27.2783203,8.83325195 C27.449707,9.21557617 27.6994629,9.52026367 28.0275879,9.74731445 C28.3557129,9.97436523 28.7424316,10.0878906 29.1877441,10.0878906 Z M29.1745605,9.20458984 C28.9782715,9.20458984 28.800293,9.14599609 28.640625,9.02880859 C28.480957,8.91162109 28.354248,8.73803711 28.260498,8.50805664 C28.166748,8.27807617 28.119873,8.00048828 28.119873,7.67529297 L28.119873,7.67529297 L28.119873,7.33691406 C28.2019043,7.13476562 28.3381348,6.96777344 28.5285645,6.8359375 C28.7189941,6.70410156 28.9328613,6.63818359 29.170166,6.63818359 C29.3840332,6.63818359 29.5678711,6.6953125 29.7216797,6.80957031 C29.8754883,6.92382812 29.9919434,7.07836914 30.0710449,7.27319336 C30.1501465,7.46801758 30.1896973,7.68554688 30.1896973,7.92578125 C30.1896973,8.17480469 30.1486816,8.39599609 30.0666504,8.58935547 C29.9846191,8.78271484 29.8674316,8.93359375 29.7150879,9.04199219 C29.5627441,9.15039062 29.3825684,9.20458984 29.1745605,9.20458984 Z M32.8659668,10.0527344 C33.0593262,10.0527344 33.2131348,9.99633789 33.3273926,9.88354492 C33.4416504,9.77075195 33.4987793,9.62792969 33.4987793,9.45507812 C33.4987793,9.27929688 33.4416504,9.13427734 33.3273926,9.02001953 C33.2131348,8.90576172 33.0593262,8.84863281 32.8659668,8.84863281 C32.6696777,8.84863281 32.5144043,8.90576172 32.4001465,9.02001953 C32.2858887,9.13427734 32.2287598,9.27929688 32.2287598,9.45507812 C32.2287598,9.62792969 32.2858887,9.77075195 32.4001465,9.88354492 C32.5144043,9.99633789 32.6696777,10.0527344 32.8659668,10.0527344 Z M37.5593262,10 L37.5593262,3.57958984 L37.4230957,3.57958984 L34.9050293,4.50244141 L34.9050293,5.41650391 L36.4650879,4.89355469 L36.4650879,10 L37.5593262,10 Z M44.0808105,10 L44.0808105,9.12109375 L41.1364746,9.12109375 L42.5251465,7.63574219 C42.9528809,7.1875 43.2780762,6.77661133 43.5007324,6.40307617 C43.7233887,6.02954102 43.8347168,5.65527344 43.8347168,5.28027344 C43.8347168,4.91992188 43.7556152,4.60717773 43.5974121,4.34204102 C43.439209,4.0769043 43.2092285,3.87255859 42.9074707,3.72900391 C42.6057129,3.58544922 42.2424316,3.51367188 41.817627,3.51367188 C41.3693848,3.51367188 40.9812012,3.60449219 40.6530762,3.78613281 C40.3249512,3.96777344 40.0744629,4.21386719 39.9016113,4.52441406 C39.7287598,4.83496094 39.642334,5.17919922 39.642334,5.55712891 L39.642334,5.55712891 L40.7365723,5.55712891 C40.7365723,5.20556641 40.828125,4.92358398 41.0112305,4.71118164 C41.1943359,4.4987793 41.4587402,4.39257812 41.8044434,4.39257812 C42.0974121,4.39257812 42.3266602,4.48486328 42.4921875,4.66943359 C42.6577148,4.85400391 42.7404785,5.09570312 42.7404785,5.39453125 C42.7404785,5.54101562 42.7133789,5.6875 42.6591797,5.83398438 C42.6049805,5.98046875 42.5134277,6.14526367 42.3845215,6.32836914 C42.2556152,6.51147461 42.0769043,6.73046875 41.8483887,6.98535156 L41.8483887,6.98535156 L39.7653809,9.24414062 L39.7653809,10 L44.0808105,10 Z M49.6003418,10.0878906 C50.0544434,10.0878906 50.4631348,10.0036621 50.826416,9.83520508 C51.1896973,9.66674805 51.4760742,9.41552734 51.6855469,9.08154297 C51.8950195,8.74755859 51.9997559,8.34326172 51.9997559,7.86865234 L51.9997559,7.86865234 L51.9997559,3.6015625 L50.8615723,3.6015625 L50.8615723,7.86865234 C50.8615723,8.31103516 50.7524414,8.63916016 50.5341797,8.85302734 C50.315918,9.06689453 50.0046387,9.17382812 49.6003418,9.17382812 C49.2019043,9.17382812 48.8920898,9.06616211 48.6708984,8.85083008 C48.449707,8.63549805 48.3391113,8.30810547 48.3391113,7.86865234 L48.3391113,7.86865234 L48.3391113,3.6015625 L47.2053223,3.6015625 L47.2053223,7.86865234 C47.2053223,8.34619141 47.3071289,8.7512207 47.5107422,9.08374023 C47.7143555,9.41625977 47.9970703,9.66674805 48.3588867,9.83520508 C48.7207031,10.0036621 49.1345215,10.0878906 49.6003418,10.0878906 Z M55.3703613,10.0878906 C55.8303223,10.0878906 56.2324219,10.0168457 56.5766602,9.87475586 C56.9208984,9.73266602 57.1867676,9.52978516 57.3742676,9.26611328 C57.5617676,9.00244141 57.6555176,8.69189453 57.6555176,8.33447266 C57.6555176,7.99755859 57.5793457,7.703125 57.427002,7.45117188 C57.2746582,7.19921875 57.0439453,6.98095703 56.7348633,6.79638672 C56.4257812,6.61181641 56.0280762,6.44775391 55.541748,6.30419922 C55.0759277,6.16943359 54.7346191,6.02294922 54.5178223,5.86474609 C54.3010254,5.70654297 54.192627,5.51318359 54.192627,5.28466797 C54.192627,5.02685547 54.2885742,4.81811523 54.4804688,4.65844727 C54.6723633,4.4987793 54.9528809,4.41894531 55.3220215,4.41894531 C55.7145996,4.41894531 56.0112305,4.51416016 56.2119141,4.70458984 C56.4125977,4.89501953 56.5129395,5.14990234 56.5129395,5.46923828 L56.5129395,5.46923828 L57.6467285,5.46923828 C57.6467285,5.10888672 57.5529785,4.7800293 57.3654785,4.48266602 C57.1779785,4.18530273 56.9091797,3.94946289 56.559082,3.77514648 C56.2089844,3.60083008 55.8010254,3.51367188 55.3352051,3.51367188 C54.8898926,3.51367188 54.4943848,3.58911133 54.1486816,3.73999023 C53.8029785,3.89086914 53.5341797,4.10107422 53.3422852,4.37060547 C53.1503906,4.64013672 53.0544434,4.94628906 53.0544434,5.2890625 C53.0544434,5.77832031 53.2375488,6.17529297 53.6037598,6.47998047 C53.9699707,6.78466797 54.4899902,7.04101562 55.1638184,7.24902344 C55.532959,7.36035156 55.8134766,7.46728516 56.0053711,7.56982422 C56.1972656,7.67236328 56.329834,7.78295898 56.4030762,7.90161133 C56.4763184,8.02026367 56.5129395,8.16748047 56.5129395,8.34326172 C56.5129395,8.60107422 56.4147949,8.80615234 56.2185059,8.95849609 C56.0222168,9.11083984 55.739502,9.18701172 55.3703613,9.18701172 C54.9543457,9.18701172 54.6210938,9.09399414 54.3706055,8.90795898 C54.1201172,8.72192383 53.994873,8.43701172 53.994873,8.05322266 L53.994873,8.05322266 L52.8566895,8.05322266 C52.8566895,8.48681641 52.9760742,8.85742188 53.2148438,9.16503906 C53.4536133,9.47265625 53.765625,9.70336914 54.1508789,9.85717773 C54.5361328,10.0109863 54.942627,10.0878906 55.3703613,10.0878906 Z M60.4768066,10 C61.0627441,10 61.5769043,9.87475586 62.0192871,9.62426758 C62.4616699,9.3737793 62.8037109,9.01928711 63.0454102,8.56079102 C63.2871094,8.10229492 63.407959,7.56835938 63.407959,6.95898438 L63.407959,6.95898438 L63.407959,6.64697266 C63.407959,6.04052734 63.2871094,5.50732422 63.0454102,5.04736328 C62.8037109,4.58740234 62.4645996,4.23144531 62.0280762,3.97949219 C61.5915527,3.72753906 61.0891113,3.6015625 60.520752,3.6015625 L60.520752,3.6015625 L58.6223145,3.6015625 L58.6223145,10 L60.4768066,10 Z M60.4768066,9.0859375 L59.760498,9.0859375 L59.760498,4.52001953 L60.520752,4.52001953 C61.0861816,4.52001953 61.5183105,4.70166016 61.8171387,5.06494141 C62.1159668,5.42822266 62.2653809,5.95263672 62.2653809,6.63818359 L62.2653809,6.63818359 L62.2653809,6.95898438 C62.2653809,7.63574219 62.1137695,8.15942383 61.8105469,8.5300293 C61.5073242,8.90063477 61.0627441,9.0859375 60.4768066,9.0859375 L60.4768066,9.0859375 Z" id="$136.12USD" fill="#565D6E" fill-rule="nonzero"></path>
            </g>
            <g  transform="translate(68.000000, 137.000000)">
                <g  transform="translate(0.500000, 0.000000)">
                    <mask id="mask-4" fill="white">
                        <use xlink:href="#path-3"></use>
                    </mask>
                    <use  fill="#4F6EF7" opacity="0.100000001" xlink:href="#path-3"></use>
                </g>
                <g id="currency-dollar" transform="translate(12.500000, 7.000000)" fill="#4F6EF7">
                    <path d="M10.8166976,11.6365 C10.08858,11.2145 8.99797947,10.7815 7.55067486,10.338 L7.55067486,4.3815 C8.98747272,4.49 10.4022064,4.8025 11.7932999,5.327 L12.5403298,3.536 C10.9369999,2.9205 9.27325628,2.5885 7.55067486,2.532 L7.55067486,0 L5.44932514,0 L5.44932514,2.5735 C2.68815162,2.892 0.272650125,4.273 0.272650125,6.8855 C0.272650125,9.8415 2.46173119,11.019 5.44932514,11.941 L5.44932514,17.9965 C3.73935181,17.974 1.54501738,17.5085 0,16.8525 L0,18.9855 C1.49563566,19.6445 3.79766427,19.8745 5.44932514,19.885 L5.44932514,23 L7.55067486,23 L7.55067486,19.7485 C9.24909076,19.531 10.5792451,19.0295 11.5348339,18.24 C12.5114362,17.4335 13,16.4105 13,15.1705 C13,13.64 12.3769498,12.5415 10.8166976,11.6365 Z M5.44932514,9.6625 C3.84179261,9.078 2.70075972,8.465 2.70075972,6.8585 C2.70075972,5.4145 3.96314556,4.711 5.44932514,4.453 L5.44932514,9.6625 Z M7.55067486,17.845 L7.55067486,12.5835 C9.24856542,13.151 10.5582316,13.7045 10.5582316,15.349 C10.5582316,16.726 9.55115978,17.5555 7.55067486,17.845 Z" id="Shape"></path>
                </g>
            </g>
            <rect id="Rectangle" fill="#EBEBEB" x="50" y="65" width="74" height="14" rx="7"></rect>
            <g id="BTC---Light" transform="translate(68.000000, 20.000000)">
                <mask id="mask-6" fill="white">
                    <use xlink:href="#path-5"></use>
                </mask>
                <use  fill="#F7931A" xlink:href="#path-5"></use>
                <path d="M23.318674,16.3540336 C22.8278021,18.4079632 19.6018463,17.4153172 18.5500531,17.1615659 L19.4385735,13.5154509 C20.4666658,13.7692022 23.8327202,14.2080672 23.318674,16.3540336 L23.318674,16.3540336 Z M22.8041012,22.2386718 C22.2668808,24.5000743 18.3862536,23.3233546 17.1474866,23.0233249 L18.1060563,19.0080226 C19.3679975,19.3080523 23.3650224,19.8618333 22.8041012,22.2386718 Z M26.9649257,16.3540336 C27.2688239,14.1383895 25.5623591,12.9845491 23.2249238,12.199896 L23.9496446,9.20011885 L22.1030812,8.76177388 L21.4020613,11.6923934 C20.9111893,11.5769574 20.4203174,11.4615213 19.9294454,11.3694845 L20.6304654,8.43834497 L18.7607278,8 L18.0360069,11.0002971 C17.6383585,10.9077403 17.2412368,10.8385827 16.8435884,10.7460259 L14.296005,10.1464864 L13.8283073,12.0849799 C13.8283073,12.0849799 15.2076996,12.3844897 15.1608245,12.4078889 C15.9087196,12.5924825 16.0488182,13.0771059 16.025644,13.4462933 L15.2076996,16.8615362 C15.2540481,16.8849354 15.3246241,16.8849354 15.3946734,16.9306938 C15.3246241,16.9078146 15.277749,16.9078146 15.2076996,16.8849354 L14.0853304,21.6614916 C13.9921068,21.8923637 13.758258,22.2152726 13.2442118,22.1003566 C13.267386,22.1232358 11.8885204,21.7769276 11.8885204,21.7769276 L11,23.8771356 L13.4074847,24.4309167 C13.8520082,24.5463527 14.296005,24.6383895 14.7168277,24.7538256 L13.9921068,27.7770019 L15.8386702,28.2153469 L16.5633911,25.2155698 C17.0774372,25.353885 17.5683092,25.4693211 18.0360069,25.5847571 L17.3112861,28.561655 L19.1578495,29 L19.8825703,25.9773436 C23.03795,26.5311246 25.3985596,26.2768534 26.3571293,23.4387907 C27.1287252,21.1768682 26.28708,19.8847125 24.6043161,19.0309018 C25.8430831,18.7537513 26.7310768,17.9696182 26.9649257,16.3540336 L26.9649257,16.3540336 Z" id="Shape" fill="#FFFFFF" mask="url(#mask-6)"></path>
            </g>
            <g id="Group-9" transform="translate(83.000000, 88.000000)">
                <line x1="3.5" y1="0.37755102" x2="3.5" y2="36.622449" id="Path-13" stroke="#979AA1"></line>
                <polygon id="Path-14" fill="#979AA1" points="0 36 3.52810921 40 7 36"></polygon>
            </g>
            <path d="M61.9921875,75.2089844 C63.3120117,75.2089844 63.9719238,74.3346354 63.9719238,72.5859375 L63.9719238,72.5859375 L63.9719238,71.5981445 C63.9719238,70.6878255 63.7982992,70.0272217 63.4510498,69.616333 C63.1038005,69.2054443 62.6147461,69 61.9838867,69 C61.3530273,69 60.8646647,69.2054443 60.5187988,69.616333 C60.1729329,70.0272217 60,70.6878255 60,71.5981445 L60,71.5981445 L60,72.5859375 C60,73.4990234 60.1750081,74.1644694 60.5250244,74.5822754 C60.8750407,75.0000814 61.3640951,75.2089844 61.9921875,75.2089844 Z M61.9921875,74.3789062 C61.6767578,74.3789062 61.4381104,74.2495524 61.2762451,73.9908447 C61.1143799,73.732137 61.0334473,73.3122559 61.0334473,72.7312012 L61.0334473,72.7312012 L61.0334473,71.4445801 C61.0334473,70.8635254 61.1129964,70.4491781 61.2720947,70.2015381 C61.431193,69.9538981 61.668457,69.8300781 61.9838867,69.8300781 C62.3048503,69.8300781 62.5441895,69.9538981 62.7019043,70.2015381 C62.8596191,70.4491781 62.9384766,70.8635254 62.9384766,71.4445801 L62.9384766,71.4445801 L62.9384766,72.7312012 C62.9384766,73.3177897 62.8603109,73.7390544 62.7039795,73.9949951 C62.5476481,74.2509359 62.3103841,74.3789062 61.9921875,74.3789062 Z M65.5656738,75.1757812 C65.748291,75.1757812 65.8935547,75.1225179 66.0014648,75.0159912 C66.109375,74.9094645 66.1633301,74.7745768 66.1633301,74.6113281 C66.1633301,74.4453125 66.109375,74.3083496 66.0014648,74.2004395 C65.8935547,74.0925293 65.748291,74.0385742 65.5656738,74.0385742 C65.3802897,74.0385742 65.2336426,74.0925293 65.1257324,74.2004395 C65.0178223,74.3083496 64.9638672,74.4453125 64.9638672,74.6113281 C64.9638672,74.7745768 65.0178223,74.9094645 65.1257324,75.0159912 C65.2336426,75.1225179 65.3802897,75.1757812 65.5656738,75.1757812 Z M69.2180176,75.2089844 C70.5378418,75.2089844 71.1977539,74.3346354 71.1977539,72.5859375 L71.1977539,72.5859375 L71.1977539,71.5981445 C71.1977539,70.6878255 71.0241292,70.0272217 70.6768799,69.616333 C70.3296305,69.2054443 69.8405762,69 69.2097168,69 C68.5788574,69 68.0904948,69.2054443 67.7446289,69.616333 C67.398763,70.0272217 67.2258301,70.6878255 67.2258301,71.5981445 L67.2258301,71.5981445 L67.2258301,72.5859375 C67.2258301,73.4990234 67.4008382,74.1644694 67.7508545,74.5822754 C68.1008708,75.0000814 68.5899251,75.2089844 69.2180176,75.2089844 Z M69.2180176,74.3789062 C68.9025879,74.3789062 68.6639404,74.2495524 68.5020752,73.9908447 C68.34021,73.732137 68.2592773,73.3122559 68.2592773,72.7312012 L68.2592773,72.7312012 L68.2592773,71.4445801 C68.2592773,70.8635254 68.3388265,70.4491781 68.4979248,70.2015381 C68.6570231,69.9538981 68.8942871,69.8300781 69.2097168,69.8300781 C69.5306803,69.8300781 69.7700195,69.9538981 69.9277344,70.2015381 C70.0854492,70.4491781 70.1643066,70.8635254 70.1643066,71.4445801 L70.1643066,71.4445801 L70.1643066,72.7312012 C70.1643066,73.3177897 70.086141,73.7390544 69.9298096,73.9949951 C69.7734782,74.2509359 69.5362142,74.3789062 69.2180176,74.3789062 Z M74.8376465,75.1259766 L74.8376465,69.0622559 L74.7089844,69.0622559 L72.3308105,69.9338379 L72.3308105,70.7971191 L73.8041992,70.3032227 L73.8041992,75.1259766 L74.8376465,75.1259766 Z M78.784668,75.2089844 C79.1748047,75.2089844 79.524821,75.1391195 79.8347168,74.9993896 C80.1446126,74.8596598 80.3881022,74.655599 80.5651855,74.387207 C80.7422689,74.1188151 80.8308105,73.8006185 80.8308105,73.4326172 C80.8308105,73.1088867 80.7478027,72.8225098 80.5817871,72.5734863 C80.4157715,72.3244629 80.1598307,72.1404622 79.8139648,72.0214844 C80.110026,71.8886719 80.3382975,71.7019043 80.4987793,71.4611816 C80.6592611,71.220459 80.739502,70.972819 80.739502,70.7182617 C80.739502,70.3474935 80.6585693,70.0334473 80.4967041,69.776123 C80.3348389,69.5187988 80.1072591,69.3251139 79.8139648,69.1950684 C79.5206706,69.0650228 79.1775716,69 78.784668,69 C78.4194336,69 78.0894775,69.0712484 77.7947998,69.2137451 C77.5001221,69.3562419 77.2697754,69.5533854 77.1037598,69.8051758 C76.9377441,70.0569661 76.8547363,70.3405762 76.8547363,70.6560059 L76.8547363,70.6560059 L77.8881836,70.6560059 C77.8881836,70.4899902 77.9276123,70.3447266 78.0064697,70.2202148 C78.0853271,70.0957031 78.193929,69.9995524 78.3322754,69.9317627 C78.4706217,69.863973 78.6269531,69.8300781 78.8012695,69.8300781 C79.1000977,69.8300781 79.3256022,69.9075521 79.4777832,70.0625 C79.6299642,70.2174479 79.7060547,70.4360352 79.7060547,70.7182617 C79.7060547,70.9977214 79.6202799,71.220459 79.4487305,71.3864746 C79.277181,71.5524902 79.0267741,71.635498 78.6975098,71.635498 L78.6975098,71.635498 L78.0957031,71.635498 L78.0957031,72.4489746 L78.6975098,72.4489746 C79.0461426,72.4489746 79.3166097,72.5292155 79.5089111,72.6896973 C79.7012126,72.850179 79.7973633,73.0964355 79.7973633,73.4284668 C79.7973633,73.7300618 79.7095133,73.9638672 79.5338135,74.1298828 C79.3581136,74.2958984 79.1139323,74.3789062 78.8012695,74.3789062 C78.6075846,74.3789062 78.4374186,74.3422445 78.2907715,74.2689209 C78.1441243,74.1955973 78.0306803,74.0918376 77.9504395,73.9576416 C77.8701986,73.8234456 77.8300781,73.6705729 77.8300781,73.4990234 L77.8300781,73.4990234 L76.7966309,73.4990234 C76.7966309,73.8614909 76.8872477,74.1713867 77.0684814,74.4287109 C77.2497152,74.6860352 77.4918213,74.8804118 77.7947998,75.0118408 C78.0977783,75.1432699 78.4277344,75.2089844 78.784668,75.2089844 Z M84.5163574,75.1259766 L84.5163574,69.0622559 L84.3876953,69.0622559 L82.0095215,69.9338379 L82.0095215,70.7971191 L83.4829102,70.3032227 L83.4829102,75.1259766 L84.5163574,75.1259766 Z M88.5754395,75.2089844 C89.8952637,75.2089844 90.5551758,74.3346354 90.5551758,72.5859375 L90.5551758,72.5859375 L90.5551758,71.5981445 C90.5551758,70.6878255 90.3815511,70.0272217 90.0343018,69.616333 C89.6870524,69.2054443 89.197998,69 88.5671387,69 C87.9362793,69 87.4479167,69.2054443 87.1020508,69.616333 C86.7561849,70.0272217 86.583252,70.6878255 86.583252,71.5981445 L86.583252,71.5981445 L86.583252,72.5859375 C86.583252,73.4990234 86.7582601,74.1644694 87.1082764,74.5822754 C87.4582926,75.0000814 87.947347,75.2089844 88.5754395,75.2089844 Z M88.5754395,74.3789062 C88.2600098,74.3789062 88.0213623,74.2495524 87.8594971,73.9908447 C87.6976318,73.732137 87.6166992,73.3122559 87.6166992,72.7312012 L87.6166992,72.7312012 L87.6166992,71.4445801 C87.6166992,70.8635254 87.6962484,70.4491781 87.8553467,70.2015381 C88.014445,69.9538981 88.251709,69.8300781 88.5671387,69.8300781 C88.8881022,69.8300781 89.1274414,69.9538981 89.2851562,70.2015381 C89.4428711,70.4491781 89.5217285,70.8635254 89.5217285,71.4445801 L89.5217285,71.4445801 L89.5217285,72.7312012 C89.5217285,73.3177897 89.4435628,73.7390544 89.2872314,73.9949951 C89.1309001,74.2509359 88.8936361,74.3789062 88.5754395,74.3789062 Z M94.8674316,75.1259766 L94.8674316,73.7854004 L95.614502,73.7854004 L95.614502,72.9553223 L94.8674316,72.9553223 L94.8674316,69.0830078 L93.8049316,69.0830078 L91.2109375,73.154541 L91.2399902,73.7854004 L93.8339844,73.7854004 L93.8339844,75.1259766 L94.8674316,75.1259766 Z M93.8339844,72.9553223 L92.2858887,72.9553223 L93.7592773,70.614502 L93.8339844,70.4816895 L93.8339844,72.9553223 Z M100.781738,75.1259766 C101.448568,75.1259766 101.965983,74.9744873 102.333984,74.6715088 C102.701986,74.3685303 102.885986,73.9306641 102.885986,73.3579102 C102.885986,73.0286458 102.800212,72.7388102 102.628662,72.4884033 C102.457113,72.2379964 102.203939,72.0685221 101.869141,71.9799805 C102.151367,71.8637695 102.367879,71.694987 102.518677,71.4736328 C102.669474,71.2522786 102.744873,71.0004883 102.744873,70.7182617 C102.744873,70.1676432 102.562256,69.7574463 102.197021,69.4876709 C101.831787,69.2178955 101.308838,69.0830078 100.628174,69.0830078 L100.628174,69.0830078 L98.5529785,69.0830078 L98.5529785,75.1259766 L100.781738,75.1259766 Z M100.636475,71.6230469 L99.6279297,71.6230469 L99.6279297,69.9504395 L100.628174,69.9504395 C100.987874,69.9504395 101.252116,70.016154 101.420898,70.147583 C101.589681,70.279012 101.674072,70.4913737 101.674072,70.784668 C101.674072,71.050293 101.583455,71.256429 101.402222,71.4030762 C101.220988,71.5497233 100.965739,71.6230469 100.636475,71.6230469 L100.636475,71.6230469 Z M100.781738,74.2626953 L99.6279297,74.2626953 L99.6279297,72.4116211 L100.827393,72.4116211 C101.485921,72.4116211 101.815186,72.7270508 101.815186,73.3579102 C101.815186,73.6318359 101.725952,73.8511149 101.547485,74.0157471 C101.369019,74.1803792 101.11377,74.2626953 100.781738,74.2626953 L100.781738,74.2626953 Z M106.438721,75.1259766 L106.438721,69.9504395 L108.318848,69.9504395 L108.318848,69.0830078 L103.508545,69.0830078 L103.508545,69.9504395 L105.36792,69.9504395 L105.36792,75.1259766 L106.438721,75.1259766 Z M111.356934,75.2089844 C111.838379,75.2089844 112.250651,75.1218262 112.59375,74.9475098 C112.936849,74.7731934 113.203166,74.5310872 113.3927,74.2211914 C113.582235,73.9112956 113.694987,73.554362 113.730957,73.1503906 L113.730957,73.1503906 L112.660156,73.1503906 C112.626953,73.4160156 112.564006,73.6352946 112.471313,73.8082275 C112.378621,73.9811605 112.241659,74.1125895 112.060425,74.2025146 C111.879191,74.2924398 111.644694,74.3374023 111.356934,74.3374023 C110.889323,74.3374023 110.545532,74.1630859 110.325562,73.8144531 C110.105591,73.4658203 109.995605,72.9760742 109.995605,72.3452148 L109.995605,72.3452148 L109.995605,71.8596191 C109.995605,71.2176921 110.113892,70.7258708 110.350464,70.3841553 C110.587036,70.0424398 110.936361,69.871582 111.398438,69.871582 C111.81071,69.871582 112.112996,69.9732666 112.305298,70.1766357 C112.497599,70.3800049 112.617269,70.6836751 112.664307,71.0876465 L112.664307,71.0876465 L113.735107,71.0876465 C113.693604,70.6753743 113.579468,70.3122152 113.3927,69.9981689 C113.205933,69.6841227 112.94515,69.4392497 112.610352,69.2635498 C112.275553,69.0878499 111.871582,69 111.398438,69 C110.897624,69 110.459757,69.1175944 110.084839,69.3527832 C109.70992,69.587972 109.420776,69.9213867 109.217407,70.3530273 C109.014038,70.784668 108.912354,71.2896322 108.912354,71.8679199 L108.912354,71.8679199 L108.912354,72.3452148 C108.912354,72.9235026 109.011963,73.4284668 109.211182,73.8601074 C109.4104,74.291748 109.69401,74.624471 110.062012,74.8582764 C110.430013,75.0920817 110.861654,75.2089844 111.356934,75.2089844 Z" id="0.013104BTC" fill="#565D6E" fill-rule="nonzero"></path>
        </g>
    </g>
</svg>
