<?xml version="1.0" encoding="UTF-8"?>
<svg width="190px" height="196px" viewBox="0 0 190 196" version="1.1" xmlns="http://www.w3.org/2000/svg" xmlns:xlink="http://www.w3.org/1999/xlink">
    <!-- Generator: Sketch 62 (91390) - https://sketch.com -->
    <title>Group 32</title>
    <desc>Created with Sketch.</desc>
    <defs>
        <path d="M5.33793103,0 L166.662069,0 C169.610127,-5.41549452e-16 172,2.38987313 172,5.33793103 L172,172.662069 C172,175.610127 169.610127,178 166.662069,178 L5.33793103,178 C2.38987313,178 4.80192507e-15,175.610127 0,172.662069 L0,5.33793103 C-3.61032968e-16,2.38987313 2.38987313,-1.01165916e-14 5.33793103,0 Z" id="online-payments--transfer-path-1"></path>
        <filter x="-7.8%" y="-7.6%" width="115.7%" height="115.2%" filterUnits="objectBoundingBox" id="filter-2">
            <feMorphology radius="1" operator="dilate" in="SourceAlpha" result="shadowSpreadOuter1"></feMorphology>
            <feOffset dx="0" dy="0" in="shadowSpreadOuter1" result="shadowOffsetOuter1"></feOffset>
            <feGaussianBlur stdDeviation="3.5" in="shadowOffsetOuter1" result="shadowBlurOuter1"></feGaussianBlur>
            <feColorMatrix values="0 0 0 0 0   0 0 0 0 0   0 0 0 0 0  0 0 0 0.05 0" type="matrix" in="shadowBlurOuter1"></feColorMatrix>
        </filter>
        <rect id="path-3" x="0" y="0" width="23.52" height="21"></rect>
    </defs>
    <g id="Page-1" stroke="none" stroke-width="1" fill="none" fill-rule="evenodd">
        <g id="Group-32" transform="translate(9.000000, 9.000000)">
            <g id="Group-15">
                <g >
                    <use fill="black" fill-opacity="1" filter="url(#filter-2)" xlink:href="#online-payments--transfer-path-1"></use>
                    <use fill="#FFFFFF" fill-rule="evenodd" xlink:href="#online-payments--transfer-path-1"></use>
                </g>
                <g id="Group-13" transform="translate(49.000000, 113.000000)">
                    <rect id="Rectangle" fill="#EBEBEB" x="0" y="0" width="75" height="14" rx="7"></rect>
                    <path d="M10.5395508,9.35839844 L10.5395508,7.46435547 L12.2006836,7.46435547 L12.2006836,6.47119141 L10.5395508,6.47119141 L10.5395508,4.70019531 L9.48486328,4.70019531 L9.48486328,6.47119141 L7.81494141,6.47119141 L7.81494141,7.46435547 L9.48486328,7.46435547 L9.48486328,9.35839844 L10.5395508,9.35839844 Z M17.7202148,10.9316406 L17.7202148,10.074707 C18.2563477,10.0161133 18.6774902,9.83520508 18.9836426,9.53198242 C19.2897949,9.22875977 19.4428711,8.82373047 19.4428711,8.31689453 C19.4428711,7.96533203 19.3710938,7.66723633 19.2275391,7.42260742 C19.0839844,7.17797852 18.8803711,6.97216797 18.6166992,6.80517578 C18.3530273,6.63818359 18.0146484,6.47998047 17.6015625,6.33056641 C17.3320312,6.23095703 17.1210938,6.13208008 16.96875,6.03393555 C16.8164062,5.93579102 16.7072754,5.82739258 16.6413574,5.70874023 C16.5754395,5.59008789 16.5424805,5.44726562 16.5424805,5.28027344 C16.5424805,5.01367188 16.6157227,4.80200195 16.762207,4.64526367 C16.9086914,4.48852539 17.128418,4.41015625 17.4213867,4.41015625 C17.7055664,4.41015625 17.9274902,4.51416016 18.0871582,4.72216797 C18.2468262,4.93017578 18.3266602,5.21728516 18.3266602,5.58349609 L18.3266602,5.58349609 L19.4208984,5.58349609 C19.4208984,4.99755859 19.2788086,4.52734375 18.9946289,4.17285156 C18.7104492,3.81835938 18.3164062,3.60595703 17.8125,3.53564453 L17.8125,3.53564453 L17.8125,2.56884766 L17.109375,2.56884766 L17.109375,3.52685547 C16.7753906,3.56494141 16.4838867,3.66015625 16.2348633,3.8125 C15.9858398,3.96484375 15.7932129,4.16699219 15.6569824,4.41894531 C15.520752,4.67089844 15.4526367,4.95947266 15.4526367,5.28466797 C15.4526367,5.63916016 15.5266113,5.93945312 15.6745605,6.18554688 C15.8225098,6.43164062 16.0297852,6.63818359 16.2963867,6.80517578 C16.5629883,6.97216797 16.9013672,7.12597656 17.3115234,7.26660156 C17.6894531,7.3984375 17.9575195,7.5456543 18.1157227,7.70825195 C18.2739258,7.87084961 18.3530273,8.07666016 18.3530273,8.32568359 C18.3530273,8.59228516 18.2658691,8.80322266 18.0915527,8.95849609 C17.9172363,9.11376953 17.6704102,9.19140625 17.3510742,9.19140625 C17.0551758,9.19140625 16.8061523,9.1027832 16.6040039,8.92553711 C16.4018555,8.74829102 16.3007812,8.45458984 16.3007812,8.04443359 L16.3007812,8.04443359 L15.206543,8.04443359 C15.206543,8.48095703 15.2893066,8.8449707 15.454834,9.13647461 C15.6203613,9.42797852 15.8393555,9.6484375 16.1118164,9.79785156 C16.3842773,9.94726562 16.6875,10.0395508 17.0214844,10.074707 L17.0214844,10.074707 L17.0214844,10.9316406 L17.7202148,10.9316406 Z M23.2836914,10 L23.2836914,3.57958984 L23.1474609,3.57958984 L20.6293945,4.50244141 L20.6293945,5.41650391 L22.1894531,4.89355469 L22.1894531,10 L23.2836914,10 Z M27.4628906,10.0878906 C27.8759766,10.0878906 28.246582,10.013916 28.574707,9.8659668 C28.902832,9.71801758 29.1606445,9.50195312 29.3481445,9.21777344 C29.5356445,8.93359375 29.6293945,8.59667969 29.6293945,8.20703125 C29.6293945,7.86425781 29.5415039,7.56103516 29.3657227,7.29736328 C29.1899414,7.03369141 28.9189453,6.83886719 28.5527344,6.71289062 C28.8662109,6.57226562 29.1079102,6.37451172 29.277832,6.11962891 C29.4477539,5.86474609 29.5327148,5.60253906 29.5327148,5.33300781 C29.5327148,4.94042969 29.4470215,4.60791016 29.2756348,4.33544922 C29.104248,4.06298828 28.8632812,3.85791016 28.5527344,3.72021484 C28.2421875,3.58251953 27.8789062,3.51367188 27.4628906,3.51367188 C27.0761719,3.51367188 26.7268066,3.58911133 26.4147949,3.73999023 C26.1027832,3.89086914 25.8588867,4.09960938 25.6831055,4.36621094 C25.5073242,4.6328125 25.4194336,4.93310547 25.4194336,5.26708984 L25.4194336,5.26708984 L26.5136719,5.26708984 C26.5136719,5.09130859 26.5554199,4.9375 26.638916,4.80566406 C26.7224121,4.67382812 26.8374023,4.57202148 26.9838867,4.50024414 C27.1303711,4.4284668 27.2958984,4.39257812 27.4804688,4.39257812 C27.796875,4.39257812 28.0356445,4.47460938 28.1967773,4.63867188 C28.3579102,4.80273438 28.4384766,5.03417969 28.4384766,5.33300781 C28.4384766,5.62890625 28.3476562,5.86474609 28.1660156,6.04052734 C27.984375,6.21630859 27.7192383,6.30419922 27.3706055,6.30419922 L27.3706055,6.30419922 L26.7333984,6.30419922 L26.7333984,7.16552734 L27.3706055,7.16552734 C27.7397461,7.16552734 28.026123,7.25048828 28.2297363,7.42041016 C28.4333496,7.59033203 28.5351562,7.85107422 28.5351562,8.20263672 C28.5351562,8.52197266 28.4421387,8.76953125 28.2561035,8.9453125 C28.0700684,9.12109375 27.8115234,9.20898438 27.4804688,9.20898438 C27.2753906,9.20898438 27.0952148,9.17016602 26.9399414,9.0925293 C26.784668,9.01489258 26.6645508,8.9050293 26.5795898,8.76293945 C26.4946289,8.62084961 26.4521484,8.45898438 26.4521484,8.27734375 L26.4521484,8.27734375 L25.3579102,8.27734375 C25.3579102,8.66113281 25.4538574,8.98925781 25.645752,9.26171875 C25.8376465,9.53417969 26.0939941,9.73999023 26.4147949,9.87915039 C26.7355957,10.0183105 27.0849609,10.0878906 27.4628906,10.0878906 Z M32.8110352,10.0878906 C33.2387695,10.0878906 33.6101074,9.99267578 33.9250488,9.80224609 C34.2399902,9.61181641 34.480957,9.3503418 34.6479492,9.01782227 C34.8149414,8.68530273 34.8984375,8.3125 34.8984375,7.89941406 C34.8984375,7.51269531 34.8310547,7.15673828 34.6962891,6.83154297 C34.5615234,6.50634766 34.3564453,6.24560547 34.0810547,6.04931641 C33.8056641,5.85302734 33.46875,5.75488281 33.0703125,5.75488281 C32.8066406,5.75488281 32.5634766,5.80029297 32.3408203,5.89111328 C32.1181641,5.98193359 31.9262695,6.11376953 31.7651367,6.28662109 C31.8061523,5.93212891 31.907959,5.61938477 32.0705566,5.34838867 C32.2331543,5.07739258 32.465332,4.86279297 32.7670898,4.70458984 C33.0688477,4.54638672 33.4394531,4.46728516 33.8789062,4.46728516 L33.8789062,4.46728516 L33.9536133,4.46728516 L33.9536133,3.56640625 L33.8217773,3.56640625 C33.0922852,3.56640625 32.4902344,3.72607422 32.015625,4.04541016 C31.5410156,4.36474609 31.1938477,4.79321289 30.9741211,5.33081055 C30.7543945,5.8684082 30.6445312,6.47412109 30.6445312,7.14794922 L30.6445312,7.14794922 L30.6445312,7.57421875 C30.6445312,8.03125 30.7302246,8.45092773 30.9016113,8.83325195 C31.072998,9.21557617 31.3227539,9.52026367 31.6508789,9.74731445 C31.9790039,9.97436523 32.3657227,10.0878906 32.8110352,10.0878906 Z M32.7978516,9.20458984 C32.6015625,9.20458984 32.423584,9.14599609 32.263916,9.02880859 C32.104248,8.91162109 31.9775391,8.73803711 31.8837891,8.50805664 C31.7900391,8.27807617 31.7431641,8.00048828 31.7431641,7.67529297 L31.7431641,7.67529297 L31.7431641,7.33691406 C31.8251953,7.13476562 31.9614258,6.96777344 32.1518555,6.8359375 C32.3422852,6.70410156 32.5561523,6.63818359 32.793457,6.63818359 C33.0073242,6.63818359 33.1911621,6.6953125 33.3449707,6.80957031 C33.4987793,6.92382812 33.6152344,7.07836914 33.6943359,7.27319336 C33.7734375,7.46801758 33.8129883,7.68554688 33.8129883,7.92578125 C33.8129883,8.17480469 33.7719727,8.39599609 33.6899414,8.58935547 C33.6079102,8.78271484 33.4907227,8.93359375 33.3383789,9.04199219 C33.1860352,9.15039062 33.0058594,9.20458984 32.7978516,9.20458984 Z M36.4892578,10.0527344 C36.6826172,10.0527344 36.8364258,9.99633789 36.9506836,9.88354492 C37.0649414,9.77075195 37.1220703,9.62792969 37.1220703,9.45507812 C37.1220703,9.27929688 37.0649414,9.13427734 36.9506836,9.02001953 C36.8364258,8.90576172 36.6826172,8.84863281 36.4892578,8.84863281 C36.2929688,8.84863281 36.1376953,8.90576172 36.0234375,9.02001953 C35.9091797,9.13427734 35.8520508,9.27929688 35.8520508,9.45507812 C35.8520508,9.62792969 35.9091797,9.77075195 36.0234375,9.88354492 C36.1376953,9.99633789 36.2929688,10.0527344 36.4892578,10.0527344 Z M41.1826172,10 L41.1826172,3.57958984 L41.0463867,3.57958984 L38.5283203,4.50244141 L38.5283203,5.41650391 L40.0883789,4.89355469 L40.0883789,10 L41.1826172,10 Z M47.7041016,10 L47.7041016,9.12109375 L44.7597656,9.12109375 L46.1484375,7.63574219 C46.5761719,7.1875 46.9013672,6.77661133 47.1240234,6.40307617 C47.3466797,6.02954102 47.4580078,5.65527344 47.4580078,5.28027344 C47.4580078,4.91992188 47.3789062,4.60717773 47.2207031,4.34204102 C47.0625,4.0769043 46.8325195,3.87255859 46.5307617,3.72900391 C46.2290039,3.58544922 45.8657227,3.51367188 45.440918,3.51367188 C44.9926758,3.51367188 44.6044922,3.60449219 44.2763672,3.78613281 C43.9482422,3.96777344 43.6977539,4.21386719 43.5249023,4.52441406 C43.3520508,4.83496094 43.265625,5.17919922 43.265625,5.55712891 L43.265625,5.55712891 L44.3598633,5.55712891 C44.3598633,5.20556641 44.451416,4.92358398 44.6345215,4.71118164 C44.817627,4.4987793 45.0820312,4.39257812 45.4277344,4.39257812 C45.7207031,4.39257812 45.9499512,4.48486328 46.1154785,4.66943359 C46.2810059,4.85400391 46.3637695,5.09570312 46.3637695,5.39453125 C46.3637695,5.54101562 46.3366699,5.6875 46.2824707,5.83398438 C46.2282715,5.98046875 46.1367188,6.14526367 46.0078125,6.32836914 C45.8789062,6.51147461 45.7001953,6.73046875 45.4716797,6.98535156 L45.4716797,6.98535156 L43.3886719,9.24414062 L43.3886719,10 L47.7041016,10 Z M53.2236328,10.0878906 C53.6777344,10.0878906 54.0864258,10.0036621 54.449707,9.83520508 C54.8129883,9.66674805 55.0993652,9.41552734 55.3088379,9.08154297 C55.5183105,8.74755859 55.6230469,8.34326172 55.6230469,7.86865234 L55.6230469,7.86865234 L55.6230469,3.6015625 L54.4848633,3.6015625 L54.4848633,7.86865234 C54.4848633,8.31103516 54.3757324,8.63916016 54.1574707,8.85302734 C53.939209,9.06689453 53.6279297,9.17382812 53.2236328,9.17382812 C52.8251953,9.17382812 52.5153809,9.06616211 52.2941895,8.85083008 C52.072998,8.63549805 51.9624023,8.30810547 51.9624023,7.86865234 L51.9624023,7.86865234 L51.9624023,3.6015625 L50.8286133,3.6015625 L50.8286133,7.86865234 C50.8286133,8.34619141 50.9304199,8.7512207 51.1340332,9.08374023 C51.3376465,9.41625977 51.6203613,9.66674805 51.9821777,9.83520508 C52.3439941,10.0036621 52.7578125,10.0878906 53.2236328,10.0878906 Z M58.9936523,10.0878906 C59.4536133,10.0878906 59.8557129,10.0168457 60.1999512,9.87475586 C60.5441895,9.73266602 60.8100586,9.52978516 60.9975586,9.26611328 C61.1850586,9.00244141 61.2788086,8.69189453 61.2788086,8.33447266 C61.2788086,7.99755859 61.2026367,7.703125 61.050293,7.45117188 C60.8979492,7.19921875 60.6672363,6.98095703 60.3581543,6.79638672 C60.0490723,6.61181641 59.6513672,6.44775391 59.1650391,6.30419922 C58.6992188,6.16943359 58.3579102,6.02294922 58.1411133,5.86474609 C57.9243164,5.70654297 57.815918,5.51318359 57.815918,5.28466797 C57.815918,5.02685547 57.9118652,4.81811523 58.1037598,4.65844727 C58.2956543,4.4987793 58.5761719,4.41894531 58.9453125,4.41894531 C59.3378906,4.41894531 59.6345215,4.51416016 59.8352051,4.70458984 C60.0358887,4.89501953 60.1362305,5.14990234 60.1362305,5.46923828 L60.1362305,5.46923828 L61.2700195,5.46923828 C61.2700195,5.10888672 61.1762695,4.7800293 60.9887695,4.48266602 C60.8012695,4.18530273 60.5324707,3.94946289 60.182373,3.77514648 C59.8322754,3.60083008 59.4243164,3.51367188 58.9584961,3.51367188 C58.5131836,3.51367188 58.1176758,3.58911133 57.7719727,3.73999023 C57.4262695,3.89086914 57.1574707,4.10107422 56.9655762,4.37060547 C56.7736816,4.64013672 56.6777344,4.94628906 56.6777344,5.2890625 C56.6777344,5.77832031 56.8608398,6.17529297 57.2270508,6.47998047 C57.5932617,6.78466797 58.1132812,7.04101562 58.7871094,7.24902344 C59.15625,7.36035156 59.4367676,7.46728516 59.6286621,7.56982422 C59.8205566,7.67236328 59.953125,7.78295898 60.0263672,7.90161133 C60.0996094,8.02026367 60.1362305,8.16748047 60.1362305,8.34326172 C60.1362305,8.60107422 60.0380859,8.80615234 59.8417969,8.95849609 C59.6455078,9.11083984 59.362793,9.18701172 58.9936523,9.18701172 C58.5776367,9.18701172 58.2443848,9.09399414 57.9938965,8.90795898 C57.7434082,8.72192383 57.6181641,8.43701172 57.6181641,8.05322266 L57.6181641,8.05322266 L56.4799805,8.05322266 C56.4799805,8.48681641 56.5993652,8.85742188 56.8381348,9.16503906 C57.0769043,9.47265625 57.388916,9.70336914 57.7741699,9.85717773 C58.1594238,10.0109863 58.565918,10.0878906 58.9936523,10.0878906 Z M64.1000977,10 C64.6860352,10 65.2001953,9.87475586 65.6425781,9.62426758 C66.0849609,9.3737793 66.427002,9.01928711 66.6687012,8.56079102 C66.9104004,8.10229492 67.03125,7.56835938 67.03125,6.95898438 L67.03125,6.95898438 L67.03125,6.64697266 C67.03125,6.04052734 66.9104004,5.50732422 66.6687012,5.04736328 C66.427002,4.58740234 66.0878906,4.23144531 65.6513672,3.97949219 C65.2148438,3.72753906 64.7124023,3.6015625 64.144043,3.6015625 L64.144043,3.6015625 L62.2456055,3.6015625 L62.2456055,10 L64.1000977,10 Z M64.1000977,9.0859375 L63.3837891,9.0859375 L63.3837891,4.52001953 L64.144043,4.52001953 C64.7094727,4.52001953 65.1416016,4.70166016 65.4404297,5.06494141 C65.7392578,5.42822266 65.8886719,5.95263672 65.8886719,6.63818359 L65.8886719,6.63818359 L65.8886719,6.95898438 C65.8886719,7.63574219 65.7370605,8.15942383 65.4338379,8.5300293 C65.1306152,8.90063477 64.6860352,9.0859375 64.1000977,9.0859375 L64.1000977,9.0859375 Z" id="+$136.12USD" fill="#565D6E" fill-rule="nonzero"></path>
                </g>
                <g id="Group-10" transform="translate(63.000000, 43.000000)">
                    <g id="wallet-43" transform="translate(0.000000, 14.952000)" fill-rule="nonzero">
                        <path d="M42.336,8.064 C42.336,6.95059344 41.4334066,6.048 40.32,6.048 L5.04,6.048 C3.3724656,6.048 2.016,4.6915344 2.016,3.024 C2.016,2.467332 1.564668,2.016 1.008,2.016 C0.451332,2.016 0,2.467332 0,3.024 L0,35.28 C0,39.1769179 3.15908208,42.336 7.056,42.336 L40.32,42.336 C41.4334066,42.336 42.336,41.4334066 42.336,40.32 L42.336,8.064 Z" id="Path" fill="#4F6EF7"></path>
                        <path d="M45.36,19.152 L35.28,19.152 C32.5011053,19.152 30.24,21.4131053 30.24,24.192 C30.24,26.9708947 32.5011053,29.232 35.28,29.232 L45.36,29.232 C45.916668,29.232 46.368,28.780668 46.368,28.224 L46.368,20.16 C46.368,19.603332 45.916668,19.152 45.36,19.152 Z" id="Path" fill="#1A3B8B"></path>
                        <path d="M3.024,0 L31.248,0 C32.3614066,0 33.264,0.90259344 33.264,2.016 L33.264,6.048 L3.024,6.048 C1.35388512,6.048 0,4.69411488 0,3.024 L0,3.024 C0,1.35388512 1.35388512,0 3.024,0 Z" id="Path" fill="#1A3B8B"></path>
                        <circle  fill="#98AAFA" cx="35.28" cy="24.192" r="2.016"></circle>
                    </g>
                    <rect id="Rectangle" fill="#2FCFA4" x="10.08" y="0" width="23.52" height="21"></rect>
                    <g id="currency-dollar" transform="translate(10.080000, 0.000000)">
                        <mask id="mask-4" fill="white">
                            <use xlink:href="#path-3"></use>
                        </mask>
                        <use  fill="#2FCFA4" xlink:href="#path-3"></use>
                        <g mask="url(#mask-4)" fill="#FFFFFF" id="Shape">
                            <g transform="translate(7.560000, 10.080000)">
                                <path d="M7.26882082,7.819728 C6.77952574,7.536144 6.0466422,7.245168 5.0740535,6.947136 L5.0740535,2.944368 C6.03958167,3.01728 6.99028271,3.22728 7.92509755,3.579744 L8.42710159,2.376192 C7.34966395,1.962576 6.23162822,1.739472 5.0740535,1.701504 L5.0740535,0 L3.6619465,0 L3.6619465,1.729392 C1.80643789,1.943424 0.183220884,2.871456 0.183220884,4.627056 C0.183220884,6.613488 1.65428336,7.404768 3.6619465,8.024352 L3.6619465,12.093648 C2.51284442,12.078528 1.03825168,11.765712 0,11.32488 L0,12.758256 C1.00506716,13.201104 2.55203039,13.355664 3.6619465,13.36272 L3.6619465,15.456 L5.0740535,15.456 L5.0740535,13.270992 C6.21538899,13.124832 7.10925273,12.787824 7.75140839,12.25728 C8.40768512,11.715312 8.736,11.027856 8.736,10.194576 C8.736,9.16608 8.31731027,8.427888 7.26882082,7.819728 Z M3.6619465,6.4932 C2.58168464,6.100416 1.81491053,5.68848 1.81491053,4.608912 C1.81491053,3.638544 2.66323382,3.165792 3.6619465,2.992416 L3.6619465,6.4932 Z M5.0740535,11.99184 L5.0740535,8.456112 C6.21503597,8.837472 7.09513166,9.209424 7.09513166,10.314528 C7.09513166,11.239872 6.41837937,11.797296 5.0740535,11.99184 Z"></path>
                            </g>
                        </g>
                    </g>
                </g>
            </g>
        </g>
    </g>
</svg>
