<?xml version="1.0" encoding="UTF-8"?>
<svg width="190px" height="196px" viewBox="0 0 190 196" version="1.1" xmlns="http://www.w3.org/2000/svg" xmlns:xlink="http://www.w3.org/1999/xlink">
    <!-- Generator: Sketch 62 (91390) - https://sketch.com -->
    <title>Group 29</title>
    <desc>Created with Sketch.</desc>
    <defs>
        <path d="M4.92404003,0 L167.07596,0 C169.795432,-4.99558942e-16 172,2.20456781 172,4.92404003 L172,173.07596 C172,175.795432 169.795432,178 167.07596,178 L4.92404003,178 C2.20456781,178 1.22121771e-15,175.795432 0,173.07596 L0,4.92404003 C-3.33039294e-16,2.20456781 2.20456781,1.38773736e-15 4.92404003,0 Z" id="online-payments--invoice-path-1"></path>
        <filter x="-7.8%" y="-7.6%" width="115.7%" height="115.2%" filterUnits="objectBoundingBox" id="filter-2">
            <feMorphology radius="1" operator="dilate" in="SourceAlpha" result="shadowSpreadOuter1"></feMorphology>
            <feOffset dx="0" dy="0" in="shadowSpreadOuter1" result="shadowOffsetOuter1"></feOffset>
            <feGaussianBlur stdDeviation="3.5" in="shadowOffsetOuter1" result="shadowBlurOuter1"></feGaussianBlur>
            <feColorMatrix values="0 0 0 0 0   0 0 0 0 0   0 0 0 0 0  0 0 0 0.05 0" type="matrix" in="shadowBlurOuter1"></feColorMatrix>
        </filter>
        <path d="M8.76339165,17.5267833 C13.6032792,17.5267833 17.5267833,13.6032792 17.5267833,8.76339165 C17.5267833,3.92350409 13.6032792,0 8.76339165,0 C3.92350409,0 0,3.92350409 0,8.76339165 C0,13.6032792 3.92350409,17.5267833 8.76339165,17.5267833 Z" id="path-3"></path>
    </defs>
    <g id="Page-1" stroke="none" stroke-width="1" fill="none" fill-rule="evenodd">
        <g id="Group-29" transform="translate(9.000000, 9.000000)">
            <g id="Group-27">
                <g >
                    <use fill="black" fill-opacity="1" filter="url(#filter-2)" xlink:href="#online-payments--invoice-path-1"></use>
                    <use fill="#FFFFFF" fill-rule="evenodd" xlink:href="#online-payments--invoice-path-1"></use>
                </g>
                <g id="Group-11" transform="translate(143.000000, 12.000000)">
                    <path d="M16.02,8.01 C16.02,12.4338 12.4338,16.02 8.01,16.02 C3.5862,16.02 0,12.4338 0,8.01 C0,3.5862 3.5862,0 8.01,0 C12.4338,0 16.02,3.5862 16.02,8.01" id="Fill-1" fill="#E6E6E6"></path>
                    <path d="M16.02,8.01 C16.02,12.4338 12.4338,16.02 8.01,16.02 C3.5862,16.02 0,12.4338 0,8.01 L0,8.00856 L7.98,7.98 L8.00898,0 L8.01,0 C12.4338,0 16.02,3.5862 16.02,8.01" id="Fill-3" fill="#5173F4"></path>
                    <path d="M14.76,8.01 C14.76,11.73792 11.73792,14.76 8.01,14.76 C4.28208,14.76 1.26,11.73792 1.26,8.01 C1.26,4.28208 4.28208,1.26 8.01,1.26 C11.73792,1.26 14.76,4.28208 14.76,8.01" id="Fill-5" fill="#FFFFFF"></path>
                    <path d="M8.070762,11.16 L7.949262,11.16 C7.734282,11.16 7.559982,10.98576 7.559982,10.77078 L7.559982,7.82922 C7.559982,7.61424 7.734282,7.44 7.949262,7.44 L8.070762,7.44 C8.285742,7.44 8.459982,7.61424 8.459982,7.82922 L8.459982,10.77078 C8.459982,10.98576 8.285742,11.16 8.070762,11.16" id="Fill-7" fill="#4F6EF7"></path>
                    <path d="M8.7,6.03 C8.7,6.41106 8.39112,6.72 8.01,6.72 C7.62888,6.72 7.32,6.41106 7.32,6.03 C7.32,5.64894 7.62888,5.34 8.01,5.34 C8.39112,5.34 8.7,5.64894 8.7,6.03" id="Fill-9" fill="#4F6EF7"></path>
                </g>
                <g  transform="translate(59.561620, 10.992010)" fill="#565D6E" fill-rule="nonzero">
                    <path d="M5.73434744,15.4323389 L5.73434744,14.1148574 C6.55861794,14.0247732 7.20609817,13.7466382 7.67678815,13.2804524 C8.14747814,12.8142666 8.38282313,12.1915595 8.38282313,11.4123312 C8.38282313,10.8718259 8.27246997,10.4135225 8.05176367,10.0374209 C7.83105736,9.66131938 7.51801474,9.34489861 7.11263581,9.08815862 C6.70725688,8.83141863 6.18702058,8.58819127 5.55192692,8.35847654 C5.13753957,8.20533339 4.81323643,8.05331629 4.57901749,7.90242524 C4.34479855,7.7515342 4.17701671,7.58487841 4.07567198,7.40245789 C3.97432725,7.22003737 3.92365488,7.00045712 3.92365488,6.74371713 C3.92365488,6.33383399 4.03626014,6.00840479 4.26147066,5.76742954 C4.48668118,5.52645428 4.82449695,5.40596666 5.27491799,5.40596666 C5.71182639,5.40596666 6.05302032,5.56586612 6.29849979,5.88566506 C6.54397925,6.20546399 6.66671898,6.64687661 6.66671898,7.2099029 L6.66671898,7.2099029 L8.34904155,7.2099029 C8.34904155,6.30906083 8.13058735,5.58613507 7.69367894,5.04112562 C7.25677054,4.49611617 6.65095425,4.16956092 5.87623007,4.06145987 L5.87623007,4.06145987 L5.87623007,2.57507045 L4.79521958,2.57507045 L4.79521958,4.04794724 C4.2817396,4.10650197 3.83357067,4.25288881 3.4507128,4.48710775 C3.06785492,4.72132668 2.77170309,5.0321172 2.5622573,5.41947929 C2.35281152,5.80684138 2.24808863,6.2505061 2.24808863,6.75047345 C2.24808863,7.2954829 2.36181994,7.75716446 2.58928257,8.13551813 C2.81674519,8.5138718 3.13541807,8.83141863 3.54530121,9.08815862 C3.95518435,9.34489861 4.47542065,9.58136965 5.1060101,9.79757175 C5.68705323,10.0002612 6.09918848,10.2265978 6.34241584,10.4765815 C6.5856432,10.7265651 6.70725688,11.0429859 6.70725688,11.4258438 C6.70725688,11.8357269 6.57325662,12.1600301 6.3052561,12.3987532 C6.03725559,12.6374764 5.65777587,12.7568379 5.16681694,12.7568379 C4.71189169,12.7568379 4.32903381,12.6205856 4.0182433,12.3480809 C3.70745279,12.0755761 3.55205753,11.624029 3.55205753,10.9934396 L3.55205753,10.9934396 L1.86973496,10.9934396 C1.86973496,11.6645669 1.99697891,12.2242151 2.25146679,12.672384 C2.50595467,13.1205529 2.8426444,13.4594948 3.26153596,13.6892095 C3.68042752,13.9189242 4.14661329,14.0608068 4.66009327,14.1148574 L4.66009327,14.1148574 L4.66009327,15.4323389 L5.73434744,15.4323389 Z M14.2878429,14 L14.2878429,4.12902302 L14.0783971,4.12902302 L10.2070283,5.54784928 L10.2070283,6.95316291 L12.6055203,6.14916136 L12.6055203,14 L14.2878429,14 Z M20.713099,14.1351263 C21.3481926,14.1351263 21.9179752,14.021395 22.4224468,13.7939324 C22.9269183,13.5664698 23.3232888,13.2342842 23.6115583,12.7973758 C23.8998278,12.3604674 24.0439625,11.8424832 24.0439625,11.2434233 C24.0439625,10.7164307 23.9088362,10.2502449 23.6385836,9.84486595 C23.368331,9.43948702 22.9516915,9.13995703 22.3886652,8.94627599 C22.8706157,8.73007389 23.2422131,8.42603969 23.5034573,8.03417339 C23.7647015,7.64230709 23.8953236,7.23918027 23.8953236,6.82479292 C23.8953236,6.22122873 23.7635754,5.71000086 23.5000791,5.29110929 C23.2365828,4.87221773 22.8661115,4.55692301 22.3886652,4.34522512 C21.9112189,4.13352723 21.3526968,4.02767829 20.713099,4.02767829 C20.1185432,4.02767829 19.5814161,4.14366171 19.1017177,4.37562854 C18.6220193,4.60759537 18.2470438,4.92852036 17.9767912,5.3384035 C17.7065385,5.74828664 17.5714122,6.2099682 17.5714122,6.72344818 L17.5714122,6.72344818 L19.2537348,6.72344818 C19.2537348,6.45319556 19.3179198,6.21672452 19.4462898,6.01403505 C19.5746598,5.81134559 19.75145,5.65482428 19.9766606,5.54447112 C20.2018711,5.43411797 20.456359,5.37894139 20.7401242,5.37894139 C21.2265789,5.37894139 21.5936721,5.50505928 21.8414036,5.75729506 C22.0891352,6.00953084 22.213001,6.36536346 22.213001,6.82479292 C22.213001,7.27971816 22.0733705,7.64230709 21.7941094,7.91255972 C21.5148484,8.18281234 21.1072174,8.31793865 20.5712163,8.31793865 L20.5712163,8.31793865 L19.5915506,8.31793865 L19.5915506,9.64217649 L20.5712163,9.64217649 C21.1387468,9.64217649 21.5790334,9.77279859 21.892076,10.0340428 C22.2051186,10.295287 22.3616399,10.6961617 22.3616399,11.236667 C22.3616399,11.7276259 22.2186313,12.1082317 21.9326139,12.3784843 C21.6465965,12.6487369 21.2491,12.7838632 20.7401242,12.7838632 C20.4248295,12.7838632 20.1478206,12.7241824 19.9090974,12.6048208 C19.6703743,12.4854593 19.4857016,12.3165514 19.3550795,12.0980972 C19.2244574,11.879643 19.1591464,11.6307854 19.1591464,11.3515243 L19.1591464,11.3515243 L17.4768238,11.3515243 C17.4768238,11.9415759 17.6243367,12.4460474 17.9193625,12.864939 C18.2143883,13.2838306 18.6085067,13.6002513 19.1017177,13.8142013 C19.5949287,14.0281513 20.1320558,14.1351263 20.713099,14.1351263 Z M28.9355349,14.1351263 C29.5931497,14.1351263 30.1640583,13.9887395 30.6482609,13.6959658 C31.1324635,13.4031921 31.5029348,13.0011914 31.7596748,12.4899635 C32.0164148,11.9787356 32.1447848,11.4055748 32.1447848,10.7704812 C32.1447848,10.1759254 32.041188,9.62866386 31.8339943,9.12869651 C31.6268006,8.62872916 31.3115059,8.22785444 30.8881101,7.92607235 C30.4647144,7.62429025 29.9467302,7.47339921 29.3341576,7.47339921 C28.9287786,7.47339921 28.5549292,7.54321447 28.2126092,7.68284499 C27.8702892,7.82247551 27.5752634,8.02516497 27.3275318,8.29091338 C27.3905908,7.74590393 27.5471121,7.26507948 27.7970958,6.84844002 C28.0470795,6.43180056 28.4040381,6.10186716 28.8679718,5.8586398 C29.3319055,5.61541244 29.9016881,5.49379876 30.5773196,5.49379876 L30.5773196,5.49379876 L30.692177,5.49379876 L30.692177,4.10875408 L30.4894875,4.10875408 C29.3679391,4.10875408 28.4423239,4.35423354 27.7126418,4.84519247 C26.9829598,5.3361514 26.4492108,5.99489216 26.1113951,6.82141476 C25.7735793,7.64793736 25.6046714,8.57918285 25.6046714,9.61515123 L25.6046714,9.61515123 L25.6046714,10.2705138 C25.6046714,10.9731706 25.7364195,11.6183988 25.9999158,12.2061982 C26.2634122,12.7939977 26.6473961,13.2624356 27.1518676,13.6115119 C27.6563392,13.9605882 28.250895,14.1351263 28.9355349,14.1351263 Z M28.915266,12.7771069 C28.6134839,12.7771069 28.3398531,12.6870227 28.0943737,12.5068543 C27.8488942,12.3266859 27.6540871,12.0598114 27.5099524,11.7062309 C27.3658176,11.3526504 27.2937503,10.9258764 27.2937503,10.4259091 L27.2937503,10.4259091 L27.2937503,9.90567279 C27.4198682,9.59488228 27.6293139,9.33814229 27.9220876,9.13545282 C28.2148613,8.93276336 28.5436686,8.83141863 28.9085097,8.83141863 C29.237317,8.83141863 29.5199562,8.91925073 29.7564273,9.09491493 C29.9928983,9.27057913 30.1719407,9.50817623 30.2935544,9.80770622 C30.415168,10.1072362 30.4759749,10.4416738 30.4759749,10.8110191 C30.4759749,11.193877 30.4129159,11.5339448 30.286798,11.8312227 C30.1606802,12.1285006 29.9805117,12.3604674 29.7462928,12.5271232 C29.5120739,12.693779 29.2350649,12.7771069 28.915266,12.7771069 Z M34.590571,14.0810758 C34.8878489,14.0810758 35.12432,13.9943697 35.2999842,13.8209576 C35.4756484,13.6475455 35.5634805,13.4279653 35.5634805,13.1622169 C35.5634805,12.8919643 35.4756484,12.6690058 35.2999842,12.4933416 C35.12432,12.3176774 34.8878489,12.2298453 34.590571,12.2298453 C34.2887889,12.2298453 34.0500658,12.3176774 33.8744016,12.4933416 C33.6987374,12.6690058 33.6109053,12.8919643 33.6109053,13.1622169 C33.6109053,13.4279653 33.6987374,13.6475455 33.8744016,13.8209576 C34.0500658,13.9943697 34.2887889,14.0810758 34.590571,14.0810758 Z M41.806316,14 L41.806316,4.12902302 L41.5968702,4.12902302 L37.7255014,5.54784928 L37.7255014,6.95316291 L40.1239934,6.14916136 L40.1239934,14 L41.806316,14 Z M51.8326882,14 L51.8326882,12.6487369 L47.3059568,12.6487369 L49.4409525,10.3651022 C50.0985673,9.67595807 50.5985346,9.04424256 50.9408546,8.46995575 C51.2831746,7.89566893 51.4543346,7.32025605 51.4543346,6.74371713 C51.4543346,6.18969926 51.3327209,5.7088748 51.0894935,5.30124377 C50.8462662,4.89361273 50.4926857,4.57944406 50.028752,4.35873775 C49.5648183,4.13803144 49.0062963,4.02767829 48.3531858,4.02767829 C47.6640416,4.02767829 47.0672337,4.16730881 46.5627621,4.44656985 C46.0582906,4.72583089 45.6731806,5.10418456 45.4074322,5.58163086 C45.1416838,6.05907716 45.0088096,6.58832187 45.0088096,7.16936501 L45.0088096,7.16936501 L46.6911321,7.16936501 C46.6911321,6.62885977 46.8318887,6.19532952 47.1134019,5.86877427 C47.394915,5.54221902 47.80142,5.37894139 48.3329168,5.37894139 C48.7833378,5.37894139 49.1357923,5.52082402 49.3902802,5.80458927 C49.6447681,6.08835452 49.772012,6.45995188 49.772012,6.91938133 C49.772012,7.14459185 49.7303481,7.36980237 49.6470202,7.59501289 C49.5636923,7.8202234 49.4229357,8.07358524 49.2247505,8.35509838 C49.0265652,8.63661153 48.7518084,8.97330125 48.40048,9.36516755 L48.40048,9.36516755 L45.1979864,12.8379137 L45.1979864,14 L51.8326882,14 Z" id="$136.12"></path>
                </g>
                <g id="QR---BTC" transform="translate(32.367713, 41.278189)">
                    <g>
                        <g >
                            <g id="Align">
                                <path d="M22.1390947,0 C24.1769421,6.97427162e-17 25.8289438,1.65200172 25.8289438,3.68984912 L25.8289438,22.1390947 C25.8289438,24.1769421 24.1769421,25.8289438 22.1390947,25.8289438 L3.68984912,25.8289438 C1.65200172,25.8289438 1.58183196e-15,24.1769421 0,22.1390947 L0,3.68984912 C1.94524881e-16,1.65200172 1.65200172,1.70661412e-15 3.68984912,0 L22.1390947,0 Z M20.2941701,3.68984912 L5.53477368,3.68984912 C4.51584998,3.68984912 3.68984912,4.51584998 3.68984912,5.53477368 L3.68984912,5.53477368 L3.68984912,20.2941701 C3.68984912,21.3130938 4.51584998,22.1390947 5.53477368,22.1390947 L5.53477368,22.1390947 L20.2941701,22.1390947 C21.3130938,22.1390947 22.1390947,21.3130938 22.1390947,20.2941701 L22.1390947,20.2941701 L22.1390947,5.53477368 C22.1390947,4.51584998 21.3130938,3.68984912 20.2941701,3.68984912 L20.2941701,3.68984912 Z"  fill="#F7931A"></path>
                                <rect  fill="#3E414C" x="7.05024742" y="7.1142111" width="11.4648883" height="11.4617846" rx="1.84492456"></rect>
                            </g>
                            <g id="Align" transform="translate(0.000000, 82.099143)">
                                <path d="M22.1390947,0 C24.1769421,6.97427162e-17 25.8289438,1.65200172 25.8289438,3.68984912 L25.8289438,22.1390947 C25.8289438,24.1769421 24.1769421,25.8289438 22.1390947,25.8289438 L3.68984912,25.8289438 C1.65200172,25.8289438 1.58183196e-15,24.1769421 0,22.1390947 L0,3.68984912 C1.94524881e-16,1.65200172 1.65200172,1.70661412e-15 3.68984912,0 L22.1390947,0 Z M20.2941701,3.68984912 L5.53477368,3.68984912 C4.51584998,3.68984912 3.68984912,4.51584998 3.68984912,5.53477368 L3.68984912,5.53477368 L3.68984912,20.2941701 C3.68984912,21.3130938 4.51584998,22.1390947 5.53477368,22.1390947 L5.53477368,22.1390947 L20.2941701,22.1390947 C21.3130938,22.1390947 22.1390947,21.3130938 22.1390947,20.2941701 L22.1390947,20.2941701 L22.1390947,5.53477368 C22.1390947,4.51584998 21.3130938,3.68984912 20.2941701,3.68984912 L20.2941701,3.68984912 Z"  fill="#F7931A"></path>
                                <rect  fill="#3E414C" x="7.05024742" y="7.1142111" width="11.4648883" height="11.4617846" rx="1.84492456"></rect>
                            </g>
                            <g id="Align" transform="translate(82.099143, 0.000000)">
                                <path d="M22.1390947,0 C24.1769421,6.97427162e-17 25.8289438,1.65200172 25.8289438,3.68984912 L25.8289438,22.1390947 C25.8289438,24.1769421 24.1769421,25.8289438 22.1390947,25.8289438 L3.68984912,25.8289438 C1.65200172,25.8289438 1.58183196e-15,24.1769421 0,22.1390947 L0,3.68984912 C1.94524881e-16,1.65200172 1.65200172,1.70661412e-15 3.68984912,0 L22.1390947,0 Z M20.2941701,3.68984912 L5.53477368,3.68984912 C4.51584998,3.68984912 3.68984912,4.51584998 3.68984912,5.53477368 L3.68984912,5.53477368 L3.68984912,20.2941701 C3.68984912,21.3130938 4.51584998,22.1390947 5.53477368,22.1390947 L5.53477368,22.1390947 L20.2941701,22.1390947 C21.3130938,22.1390947 22.1390947,21.3130938 22.1390947,20.2941701 L22.1390947,20.2941701 L22.1390947,5.53477368 C22.1390947,4.51584998 21.3130938,3.68984912 20.2941701,3.68984912 L20.2941701,3.68984912 Z"  fill="#F7931A"></path>
                                <rect  fill="#3E414C" x="7.05024742" y="7.1142111" width="11.4648883" height="11.4617846" rx="1.84492456"></rect>
                            </g>
                            <g  fill="#3E414C">
                                <rect  x="0" y="29.6582283" width="3.70828245" height="3.70727854" rx="1.85363927"></rect>
                                <rect  x="0" y="33.3655069" width="3.70828245" height="3.70727854" rx="1.85363927"></rect>
                                <rect  x="0" y="37.0727854" width="3.70828245" height="3.70727854" rx="1.85363927"></rect>
                                <rect  x="0" y="40.780064" width="3.70828245" height="3.70727854" rx="1.85363927"></rect>
                                <rect  x="0" y="48.1946211" width="3.70828245" height="3.70727854" rx="1.85363927"></rect>
                                <rect  x="0" y="51.9018996" width="3.70828245" height="3.70727854" rx="1.85363927"></rect>
                                <rect  x="0" y="59.3164567" width="3.70828245" height="3.70727854" rx="1.85363927"></rect>
                                <rect  x="3.70828245" y="33.3655069" width="3.70828245" height="3.70727854" rx="1.85363927"></rect>
                                <rect  x="3.70828245" y="40.780064" width="3.70828245" height="3.70727854" rx="1.85363927"></rect>
                                <rect  x="3.70828245" y="44.4873425" width="3.70828245" height="3.70727854" rx="1.85363927"></rect>
                                <rect  x="3.70828245" y="51.9018996" width="3.70828245" height="3.70727854" rx="1.85363927"></rect>
                                <rect  x="3.70828245" y="59.3164567" width="3.70828245" height="3.70727854" rx="1.85363927"></rect>
                                <rect  x="7.4165649" y="33.3655069" width="3.70828245" height="3.70727854" rx="1.85363927"></rect>
                                <rect  x="7.4165649" y="37.0727854" width="3.70828245" height="3.70727854" rx="1.85363927"></rect>
                                <rect  x="7.4165649" y="44.4873425" width="3.70828245" height="3.70727854" rx="1.85363927"></rect>
                                <rect  x="7.4165649" y="51.9018996" width="3.70828245" height="3.70727854" rx="1.85363927"></rect>
                                <rect  x="7.4165649" y="55.6091782" width="3.70828245" height="3.70727854" rx="1.85363927"></rect>
                                <rect  x="7.4165649" y="66.7310138" width="3.70828245" height="3.70727854" rx="1.85363927"></rect>
                                <rect  x="7.4165649" y="70.4382923" width="3.70828245" height="3.70727854" rx="1.85363927"></rect>
                                <rect  x="11.0695474" y="29.5187929" width="3.70828245" height="3.70727854" rx="1.85363927"></rect>
                                <rect  x="11.1248473" y="44.4873425" width="3.70828245" height="3.70727854" rx="1.85363927"></rect>
                                <rect  x="11.1248473" y="63.0237352" width="3.70828245" height="3.70727854" rx="1.85363927"></rect>
                                <rect  x="11.1248473" y="66.7310138" width="3.70828245" height="3.70727854" rx="1.85363927"></rect>
                                <rect  x="11.1248473" y="70.4382923" width="3.70828245" height="3.70727854" rx="1.85363927"></rect>
                                <rect  x="11.1248473" y="74.1455709" width="3.70828245" height="3.70727854" rx="1.85363927"></rect>
                                <rect  x="14.8331298" y="29.6582283" width="3.70828245" height="3.70727854" rx="1.85363927"></rect>
                                <rect  x="14.8331298" y="44.4873425" width="3.70828245" height="3.70727854" rx="1.85363927"></rect>
                                <rect  x="14.8331298" y="48.1946211" width="3.70828245" height="3.70727854" rx="1.85363927"></rect>
                                <rect  x="14.8331298" y="51.9018996" width="3.70828245" height="3.70727854" rx="1.85363927"></rect>
                                <rect  x="14.8331298" y="55.6091782" width="3.70828245" height="3.70727854" rx="1.85363927"></rect>
                                <rect  x="14.8331298" y="70.4382923" width="3.70828245" height="3.70727854" rx="1.85363927"></rect>
                                <rect  x="14.8331298" y="74.1455709" width="3.70828245" height="3.70727854" rx="1.85363927"></rect>
                                <rect  x="18.5414122" y="29.6582283" width="3.70828245" height="3.70727854" rx="1.85363927"></rect>
                                <rect  x="18.5414122" y="33.3655069" width="3.70828245" height="3.70727854" rx="1.85363927"></rect>
                                <rect  x="18.5414122" y="44.4873425" width="3.70828245" height="3.70727854" rx="1.85363927"></rect>
                                <rect  x="18.5414122" y="48.1946211" width="3.70828245" height="3.70727854" rx="1.85363927"></rect>
                                <rect  x="18.5414122" y="55.6091782" width="3.70828245" height="3.70727854" rx="1.85363927"></rect>
                                <rect  x="18.5414122" y="63.0237352" width="3.70828245" height="3.70727854" rx="1.85363927"></rect>
                                <rect  x="18.5414122" y="66.7310138" width="3.70828245" height="3.70727854" rx="1.85363927"></rect>
                                <rect  x="18.5414122" y="70.4382923" width="3.70828245" height="3.70727854" rx="1.85363927"></rect>
                                <rect  x="18.5414122" y="74.1455709" width="3.70828245" height="3.70727854" rx="1.85363927"></rect>
                                <rect  x="22.2496947" y="29.6582283" width="3.70828245" height="3.70727854" rx="1.85363927"></rect>
                                <rect  x="22.2496947" y="37.0727854" width="3.70828245" height="3.70727854" rx="1.85363927"></rect>
                                <rect  x="22.2496947" y="44.4873425" width="3.70828245" height="3.70727854" rx="1.85363927"></rect>
                                <rect  x="22.2496947" y="51.9018996" width="3.70828245" height="3.70727854" rx="1.85363927"></rect>
                                <rect  x="22.2496947" y="59.3164567" width="3.70828245" height="3.70727854" rx="1.85363927"></rect>
                                <rect  x="22.2496947" y="66.7310138" width="3.70828245" height="3.70727854" rx="1.85363927"></rect>
                                <rect  x="22.2496947" y="74.1455709" width="3.70828245" height="3.70727854" rx="1.85363927"></rect>
                                <rect  x="25.9579771" y="29.6582283" width="3.70828245" height="3.70727854" rx="1.85363927"></rect>
                                <rect  x="25.9579771" y="33.3655069" width="3.70828245" height="3.70727854" rx="1.85363927"></rect>
                                <rect  x="25.9579771" y="40.780064" width="3.70828245" height="3.70727854" rx="1.85363927"></rect>
                                <rect  x="25.9579771" y="55.6091782" width="3.70828245" height="3.70727854" rx="1.85363927"></rect>
                                <rect  x="25.9579771" y="59.3164567" width="3.70828245" height="3.70727854" rx="1.85363927"></rect>
                                <rect  x="25.9579771" y="63.0237352" width="3.70828245" height="3.70727854" rx="1.85363927"></rect>
                                <rect  x="25.9579771" y="66.7310138" width="3.70828245" height="3.70727854" rx="1.85363927"></rect>
                                <rect  x="25.9579771" y="74.1455709" width="3.70828245" height="3.70727854" rx="1.85363927"></rect>
                                <path d="M31.5198989,0 L31.5209028,0 C32.5446395,-1.88057381e-16 33.374542,0.82990257 33.374542,1.85363927 C33.374542,2.87737597 32.5446395,3.70727854 31.5209028,3.70727854 L31.5198989,3.70727854 C30.4961622,3.70727854 29.6662596,2.87737597 29.6662596,1.85363927 C29.6662596,0.82990257 30.4961622,1.88057381e-16 31.5198989,0 Z" ></path>
                                <path d="M31.5198989,3.70727854 L31.5209028,3.70727854 C32.5446395,3.70727854 33.374542,4.53718111 33.374542,5.56091782 C33.374542,6.58465452 32.5446395,7.41455709 31.5209028,7.41455709 L31.5198989,7.41455709 C30.4961622,7.41455709 29.6662596,6.58465452 29.6662596,5.56091782 C29.6662596,4.53718111 30.4961622,3.70727854 31.5198989,3.70727854 Z" ></path>
                                <path d="M31.5198989,7.41455709 L31.5209028,7.41455709 C32.5446395,7.41455709 33.374542,8.24445966 33.374542,9.26819636 C33.374542,10.2919331 32.5446395,11.1218356 31.5209028,11.1218356 L31.5198989,11.1218356 C30.4961622,11.1218356 29.6662596,10.2919331 29.6662596,9.26819636 C29.6662596,8.24445966 30.4961622,7.41455709 31.5198989,7.41455709 Z" ></path>
                                <path d="M31.5198989,14.8291142 L31.5209028,14.8291142 C32.5446395,14.8291142 33.374542,15.6590167 33.374542,16.6827534 C33.374542,17.7064901 32.5446395,18.5363927 31.5209028,18.5363927 L31.5198989,18.5363927 C30.4961622,18.5363927 29.6662596,17.7064901 29.6662596,16.6827534 C29.6662596,15.6590167 30.4961622,14.8291142 31.5198989,14.8291142 Z" ></path>
                                <path d="M31.5198989,22.2436713 L31.5209028,22.2436713 C32.5446395,22.2436713 33.374542,23.0735738 33.374542,24.0973105 C33.374542,25.1210472 32.5446395,25.9509498 31.5209028,25.9509498 L31.5198989,25.9509498 C30.4961622,25.9509498 29.6662596,25.1210472 29.6662596,24.0973105 C29.6662596,23.0735738 30.4961622,22.2436713 31.5198989,22.2436713 Z" ></path>
                                <path d="M31.5198989,29.6582283 L31.5209028,29.6582283 C32.5446395,29.6582283 33.374542,30.4881309 33.374542,31.5118676 C33.374542,32.5356043 32.5446395,33.3655069 31.5209028,33.3655069 L31.5198989,33.3655069 C30.4961622,33.3655069 29.6662596,32.5356043 29.6662596,31.5118676 C29.6662596,30.4881309 30.4961622,29.6582283 31.5198989,29.6582283 Z" ></path>
                                <path d="M31.5198989,51.9018996 L31.5209028,51.9018996 C32.5446395,51.9018996 33.374542,52.7318022 33.374542,53.7555389 C33.374542,54.7792756 32.5446395,55.6091782 31.5209028,55.6091782 L31.5198989,55.6091782 C30.4961622,55.6091782 29.6662596,54.7792756 29.6662596,53.7555389 C29.6662596,52.7318022 30.4961622,51.9018996 31.5198989,51.9018996 Z" ></path>
                                <path d="M31.5198989,55.6091782 L31.5209028,55.6091782 C32.5446395,55.6091782 33.374542,56.4390807 33.374542,57.4628174 C33.374542,58.4865541 32.5446395,59.3164567 31.5209028,59.3164567 L31.5198989,59.3164567 C30.4961622,59.3164567 29.6662596,58.4865541 29.6662596,57.4628174 C29.6662596,56.4390807 30.4961622,55.6091782 31.5198989,55.6091782 Z" ></path>
                                <path d="M31.5198989,59.3164567 L31.5209028,59.3164567 C32.5446395,59.3164567 33.374542,60.1463593 33.374542,61.170096 C33.374542,62.1938327 32.5446395,63.0237352 31.5209028,63.0237352 L31.5198989,63.0237352 C30.4961622,63.0237352 29.6662596,62.1938327 29.6662596,61.170096 C29.6662596,60.1463593 30.4961622,59.3164567 31.5198989,59.3164567 Z" ></path>
                                <path d="M31.5198989,70.4382923 L31.5209028,70.4382923 C32.5446395,70.4382923 33.374542,71.2681949 33.374542,72.2919316 C33.374542,73.3156683 32.5446395,74.1455709 31.5209028,74.1455709 L31.5198989,74.1455709 C30.4961622,74.1455709 29.6662596,73.3156683 29.6662596,72.2919316 C29.6662596,71.2681949 30.4961622,70.4382923 31.5198989,70.4382923 Z" ></path>
                                <path d="M31.5198989,77.8528494 L31.5209028,77.8528494 C32.5446395,77.8528494 33.374542,78.682752 33.374542,79.7064887 C33.374542,80.7302254 32.5446395,81.560128 31.5209028,81.560128 L31.5198989,81.560128 C30.4961622,81.560128 29.6662596,80.7302254 29.6662596,79.7064887 C29.6662596,78.682752 30.4961622,77.8528494 31.5198989,77.8528494 Z" ></path>
                                <path d="M31.5198989,81.560128 L31.5209028,81.560128 C32.5446395,81.560128 33.374542,82.3900305 33.374542,83.4137672 C33.374542,84.4375039 32.5446395,85.2674065 31.5209028,85.2674065 L31.5198989,85.2674065 C30.4961622,85.2674065 29.6662596,84.4375039 29.6662596,83.4137672 C29.6662596,82.3900305 30.4961622,81.560128 31.5198989,81.560128 Z" ></path>
                                <path d="M31.5198989,85.2674065 L31.5209028,85.2674065 C32.5446395,85.2674065 33.374542,86.0973091 33.374542,87.1210458 C33.374542,88.1447825 32.5446395,88.974685 31.5209028,88.974685 L31.5198989,88.974685 C30.4961622,88.974685 29.6662596,88.1447825 29.6662596,87.1210458 C29.6662596,86.0973091 30.4961622,85.2674065 31.5198989,85.2674065 Z" ></path>
                                <path d="M31.5198989,88.974685 L31.5209028,88.974685 C32.5446395,88.974685 33.374542,89.8045876 33.374542,90.8283243 C33.374542,91.852061 32.5446395,92.6819636 31.5209028,92.6819636 L31.5198989,92.6819636 C30.4961622,92.6819636 29.6662596,91.852061 29.6662596,90.8283243 C29.6662596,89.8045876 30.4961622,88.974685 31.5198989,88.974685 Z" ></path>
                                <path d="M31.5198989,92.6819636 L31.5209028,92.6819636 C32.5446395,92.6819636 33.374542,93.5118662 33.374542,94.5356029 C33.374542,95.5593396 32.5446395,96.3892421 31.5209028,96.3892421 L31.5198989,96.3892421 C30.4961622,96.3892421 29.6662596,95.5593396 29.6662596,94.5356029 C29.6662596,93.5118662 30.4961622,92.6819636 31.5198989,92.6819636 Z" ></path>
                                <path d="M31.5198989,103.803799 L31.5209028,103.803799 C32.5446395,103.803799 33.374542,104.633702 33.374542,105.657438 C33.374542,106.681175 32.5446395,107.511078 31.5209028,107.511078 L31.5198989,107.511078 C30.4961622,107.511078 29.6662596,106.681175 29.6662596,105.657438 C29.6662596,104.633702 30.4961622,103.803799 31.5198989,103.803799 Z" ></path>
                                <rect  x="33.374542" y="7.41455709" width="3.70828245" height="3.70727854" rx="1.85363927"></rect>
                                <rect  x="33.374542" y="11.1218356" width="3.70828245" height="3.70727854" rx="1.85363927"></rect>
                                <rect  x="33.374542" y="25.9509498" width="3.70828245" height="3.70727854" rx="1.85363927"></rect>
                                <rect  x="33.374542" y="33.3655069" width="3.70828245" height="3.70727854" rx="1.85363927"></rect>
                                <rect  x="33.374542" y="37.0727854" width="3.70828245" height="3.70727854" rx="1.85363927"></rect>
                                <rect  x="33.374542" y="44.4873425" width="3.70828245" height="3.70727854" rx="1.85363927"></rect>
                                <rect  x="33.374542" y="48.1946211" width="3.70828245" height="3.70727854" rx="1.85363927"></rect>
                                <rect  x="33.374542" y="51.9018996" width="3.70828245" height="3.70727854" rx="1.85363927"></rect>
                                <rect  x="33.374542" y="55.6091782" width="3.70828245" height="3.70727854" rx="1.85363927"></rect>
                                <rect  x="33.374542" y="59.3164567" width="3.70828245" height="3.70727854" rx="1.85363927"></rect>
                                <rect  x="33.374542" y="66.7310138" width="3.70828245" height="3.70727854" rx="1.85363927"></rect>
                                <rect  x="33.374542" y="70.4382923" width="3.70828245" height="3.70727854" rx="1.85363927"></rect>
                                <rect  x="33.374542" y="74.1455709" width="3.70828245" height="3.70727854" rx="1.85363927"></rect>
                                <rect  x="33.374542" y="77.8528494" width="3.70828245" height="3.70727854" rx="1.85363927"></rect>
                                <rect  x="33.374542" y="88.974685" width="3.70828245" height="3.70727854" rx="1.85363927"></rect>
                                <rect  x="33.374542" y="92.6819636" width="3.70828245" height="3.70727854" rx="1.85363927"></rect>
                                <rect  x="33.374542" y="100.096521" width="3.70828245" height="3.70727854" rx="1.85363927"></rect>
                                <rect  x="33.374542" y="103.803799" width="3.70828245" height="3.70727854" rx="1.85363927"></rect>
                                <rect  x="37.0828245" y="0" width="3.70828245" height="3.70727854" rx="1.85363927"></rect>
                                <rect  x="37.0828245" y="7.41455709" width="3.70828245" height="3.70727854" rx="1.85363927"></rect>
                                <rect  x="37.0828245" y="22.2436713" width="3.70828245" height="3.70727854" rx="1.85363927"></rect>
                                <rect  x="37.0828245" y="25.9509498" width="3.70828245" height="3.70727854" rx="1.85363927"></rect>
                                <rect  x="37.0828245" y="29.6582283" width="3.70828245" height="3.70727854" rx="1.85363927"></rect>
                                <rect  x="37.0828245" y="37.0727854" width="3.70828245" height="3.70727854" rx="1.85363927"></rect>
                                <rect  x="37.0828245" y="40.780064" width="3.70828245" height="3.70727854" rx="1.85363927"></rect>
                                <rect  x="37.0828245" y="44.4873425" width="3.70828245" height="3.70727854" rx="1.85363927"></rect>
                                <rect  x="37.0828245" y="48.1946211" width="3.70828245" height="3.70727854" rx="1.85363927"></rect>
                                <rect  x="37.0828245" y="55.6091782" width="3.70828245" height="3.70727854" rx="1.85363927"></rect>
                                <rect  x="37.0828245" y="63.0237352" width="3.70828245" height="3.70727854" rx="1.85363927"></rect>
                                <rect  x="37.0828245" y="70.4382923" width="3.70828245" height="3.70727854" rx="1.85363927"></rect>
                                <rect  x="37.0828245" y="74.1455709" width="3.70828245" height="3.70727854" rx="1.85363927"></rect>
                                <rect  x="37.0828245" y="77.8528494" width="3.70828245" height="3.70727854" rx="1.85363927"></rect>
                                <rect  x="37.0828245" y="88.974685" width="3.70828245" height="3.70727854" rx="1.85363927"></rect>
                                <rect  x="37.0828245" y="92.6819636" width="3.70828245" height="3.70727854" rx="1.85363927"></rect>
                                <rect  x="37.0828245" y="96.3892421" width="3.70828245" height="3.70727854" rx="1.85363927"></rect>
                                <rect  x="37.0828245" y="100.096521" width="3.70828245" height="3.70727854" rx="1.85363927"></rect>
                                <rect  x="40.7911069" y="0" width="3.70828245" height="3.70727854" rx="1.85363927"></rect>
                                <rect  x="40.7911069" y="14.8291142" width="3.70828245" height="3.70727854" rx="1.85363927"></rect>
                                <rect  x="40.7911069" y="25.9509498" width="3.70828245" height="3.70727854" rx="1.85363927"></rect>
                                <rect  x="40.7911069" y="66.7310138" width="3.70828245" height="3.70727854" rx="1.85363927"></rect>
                                <rect  x="40.7911069" y="81.560128" width="3.70828245" height="3.70727854" rx="1.85363927"></rect>
                                <rect  x="40.7911069" y="88.974685" width="3.70828245" height="3.70727854" rx="1.85363927"></rect>
                                <rect  x="40.7911069" y="96.3892421" width="3.70828245" height="3.70727854" rx="1.85363927"></rect>
                                <rect  x="44.4993894" y="11.1218356" width="3.70828245" height="3.70727854" rx="1.85363927"></rect>
                                <rect  x="44.4993894" y="22.2436713" width="3.70828245" height="3.70727854" rx="1.85363927"></rect>
                                <rect  x="44.4993894" y="29.6582283" width="3.70828245" height="3.70727854" rx="1.85363927"></rect>
                                <rect  x="44.4993894" y="33.3655069" width="3.70828245" height="3.70727854" rx="1.85363927"></rect>
                                <rect  x="44.4993894" y="37.0727854" width="3.70828245" height="3.70727854" rx="1.85363927"></rect>
                                <rect  x="44.4993894" y="70.4382923" width="3.70828245" height="3.70727854" rx="1.85363927"></rect>
                                <rect  x="44.4993894" y="74.1455709" width="3.70828245" height="3.70727854" rx="1.85363927"></rect>
                                <rect  x="44.4993894" y="81.560128" width="3.70828245" height="3.70727854" rx="1.85363927"></rect>
                                <rect  x="44.4993894" y="92.6819636" width="3.70828245" height="3.70727854" rx="1.85363927"></rect>
                                <rect  x="44.4993894" y="96.3892421" width="3.70828245" height="3.70727854" rx="1.85363927"></rect>
                                <rect  x="44.4993894" y="100.096521" width="3.70828245" height="3.70727854" rx="1.85363927"></rect>
                                <rect  x="44.4993894" y="103.803799" width="3.70828245" height="3.70727854" rx="1.85363927"></rect>
                                <rect  x="48.2076718" y="25.9509498" width="3.70828245" height="3.70727854" rx="1.85363927"></rect>
                                <rect  x="48.2076718" y="29.6582283" width="3.70828245" height="3.70727854" rx="1.85363927"></rect>
                                <rect  x="48.2076718" y="33.3655069" width="3.70828245" height="3.70727854" rx="1.85363927"></rect>
                                <rect  x="48.2076718" y="37.0727854" width="3.70828245" height="3.70727854" rx="1.85363927"></rect>
                                <rect  x="48.2076718" y="74.1455709" width="3.70828245" height="3.70727854" rx="1.85363927"></rect>
                                <rect  x="48.2076718" y="88.974685" width="3.70828245" height="3.70727854" rx="1.85363927"></rect>
                                <rect  x="48.2076718" y="92.6819636" width="3.70828245" height="3.70727854" rx="1.85363927"></rect>
                                <rect  x="48.2076718" y="100.096521" width="3.70828245" height="3.70727854" rx="1.85363927"></rect>
                                <rect  x="51.9159543" y="14.8291142" width="3.70828245" height="3.70727854" rx="1.85363927"></rect>
                                <rect  x="51.9159543" y="22.2436713" width="3.70828245" height="3.70727854" rx="1.85363927"></rect>
                                <rect  x="51.9159543" y="70.4382923" width="3.70828245" height="3.70727854" rx="1.85363927"></rect>
                                <rect  x="51.9159543" y="74.1455709" width="3.70828245" height="3.70727854" rx="1.85363927"></rect>
                                <rect  x="51.9159543" y="77.8528494" width="3.70828245" height="3.70727854" rx="1.85363927"></rect>
                                <rect  x="51.9159543" y="81.560128" width="3.70828245" height="3.70727854" rx="1.85363927"></rect>
                                <rect  x="51.9159543" y="85.2674065" width="3.70828245" height="3.70727854" rx="1.85363927"></rect>
                                <rect  x="51.9159543" y="88.974685" width="3.70828245" height="3.70727854" rx="1.85363927"></rect>
                                <rect  x="51.9159543" y="96.3892421" width="3.70828245" height="3.70727854" rx="1.85363927"></rect>
                                <rect  x="55.6242367" y="0" width="3.70828245" height="3.70727854" rx="1.85363927"></rect>
                                <rect  x="55.6242367" y="7.41455709" width="3.70828245" height="3.70727854" rx="1.85363927"></rect>
                                <rect  x="55.6242367" y="14.8291142" width="3.70828245" height="3.70727854" rx="1.85363927"></rect>
                                <rect  x="55.6242367" y="18.5363927" width="3.70828245" height="3.70727854" rx="1.85363927"></rect>
                                <rect  x="55.6242367" y="25.9509498" width="3.70828245" height="3.70727854" rx="1.85363927"></rect>
                                <rect  x="55.6242367" y="37.0727854" width="3.70828245" height="3.70727854" rx="1.85363927"></rect>
                                <rect  x="55.6242367" y="66.7310138" width="3.70828245" height="3.70727854" rx="1.85363927"></rect>
                                <rect  x="55.6242367" y="74.1455709" width="3.70828245" height="3.70727854" rx="1.85363927"></rect>
                                <rect  x="55.6242367" y="85.2674065" width="3.70828245" height="3.70727854" rx="1.85363927"></rect>
                                <rect  x="55.6242367" y="96.3892421" width="3.70828245" height="3.70727854" rx="1.85363927"></rect>
                                <rect  x="55.6242367" y="103.803799" width="3.70828245" height="3.70727854" rx="1.85363927"></rect>
                                <rect  x="59.3325192" y="0" width="3.70828245" height="3.70727854" rx="1.85363927"></rect>
                                <rect  x="59.3325192" y="3.70727854" width="3.70828245" height="3.70727854" rx="1.85363927"></rect>
                                <rect  x="59.3325192" y="7.41455709" width="3.70828245" height="3.70727854" rx="1.85363927"></rect>
                                <rect  x="59.3325192" y="11.1218356" width="3.70828245" height="3.70727854" rx="1.85363927"></rect>
                                <rect  x="59.3325192" y="14.8291142" width="3.70828245" height="3.70727854" rx="1.85363927"></rect>
                                <rect  x="59.3325192" y="18.5363927" width="3.70828245" height="3.70727854" rx="1.85363927"></rect>
                                <rect  x="59.3325192" y="22.2436713" width="3.70828245" height="3.70727854" rx="1.85363927"></rect>
                                <rect  x="59.3325192" y="25.9509498" width="3.70828245" height="3.70727854" rx="1.85363927"></rect>
                                <rect  x="59.3325192" y="33.3655069" width="3.70828245" height="3.70727854" rx="1.85363927"></rect>
                                <rect  x="59.3325192" y="37.0727854" width="3.70828245" height="3.70727854" rx="1.85363927"></rect>
                                <rect  x="59.3325192" y="74.1455709" width="3.70828245" height="3.70727854" rx="1.85363927"></rect>
                                <rect  x="59.3325192" y="100.096521" width="3.70828245" height="3.70727854" rx="1.85363927"></rect>
                                <rect  x="63.0408016" y="0" width="3.70828245" height="3.70727854" rx="1.85363927"></rect>
                                <rect  x="63.0408016" y="11.1218356" width="3.70828245" height="3.70727854" rx="1.85363927"></rect>
                                <rect  x="63.0408016" y="29.6582283" width="3.70828245" height="3.70727854" rx="1.85363927"></rect>
                                <rect  x="66.7490841" y="40.780064" width="3.70828245" height="3.70727854" rx="1.85363927"></rect>
                                <rect  x="66.7490841" y="44.4873425" width="3.70828245" height="3.70727854" rx="1.85363927"></rect>
                                <rect  x="63.0408016" y="66.7310138" width="3.70828245" height="3.70727854" rx="1.85363927"></rect>
                                <rect  x="63.0408016" y="74.1455709" width="3.70828245" height="3.70727854" rx="1.85363927"></rect>
                                <rect  x="63.0408016" y="85.2674065" width="3.70828245" height="3.70727854" rx="1.85363927"></rect>
                                <rect  x="63.0408016" y="88.974685" width="3.70828245" height="3.70727854" rx="1.85363927"></rect>
                                <rect  x="63.0408016" y="92.6819636" width="3.70828245" height="3.70727854" rx="1.85363927"></rect>
                                <rect  x="63.0408016" y="96.3892421" width="3.70828245" height="3.70727854" rx="1.85363927"></rect>
                                <rect  x="63.0408016" y="100.096521" width="3.70828245" height="3.70727854" rx="1.85363927"></rect>
                                <rect  x="63.0408016" y="103.803799" width="3.70828245" height="3.70727854" rx="1.85363927"></rect>
                                <rect  x="66.7490841" y="0" width="3.70828245" height="3.70727854" rx="1.85363927"></rect>
                                <rect  x="66.7490841" y="3.70727854" width="3.70828245" height="3.70727854" rx="1.85363927"></rect>
                                <rect  x="66.7490841" y="11.1218356" width="3.70828245" height="3.70727854" rx="1.85363927"></rect>
                                <rect  x="66.7490841" y="22.2436713" width="3.70828245" height="3.70727854" rx="1.85363927"></rect>
                                <rect  x="66.7490841" y="37.0727854" width="3.70828245" height="3.70727854" rx="1.85363927"></rect>
                                <rect  x="66.7490841" y="66.7310138" width="3.70828245" height="3.70727854" rx="1.85363927"></rect>
                                <rect  x="66.7490841" y="81.560128" width="3.70828245" height="3.70727854" rx="1.85363927"></rect>
                                <rect  x="66.7490841" y="85.2674065" width="3.70828245" height="3.70727854" rx="1.85363927"></rect>
                                <rect  x="66.7490841" y="88.974685" width="3.70828245" height="3.70727854" rx="1.85363927"></rect>
                                <rect  x="66.7490841" y="92.6819636" width="3.70828245" height="3.70727854" rx="1.85363927"></rect>
                                <rect  x="66.7490841" y="100.096521" width="3.70828245" height="3.70727854" rx="1.85363927"></rect>
                                <path d="M72.3110058,3.70727854 L72.3120097,3.70727854 C73.3357464,3.70727854 74.165649,4.53718111 74.165649,5.56091782 C74.165649,6.58465452 73.3357464,7.41455709 72.3120097,7.41455709 L72.3110058,7.41455709 C71.2872691,7.41455709 70.4573665,6.58465452 70.4573665,5.56091782 C70.4573665,4.53718111 71.2872691,3.70727854 72.3110058,3.70727854 Z" ></path>
                                <path d="M72.3110058,14.8291142 L72.3120097,14.8291142 C73.3357464,14.8291142 74.165649,15.6590167 74.165649,16.6827534 C74.165649,17.7064901 73.3357464,18.5363927 72.3120097,18.5363927 L72.3110058,18.5363927 C71.2872691,18.5363927 70.4573665,17.7064901 70.4573665,16.6827534 C70.4573665,15.6590167 71.2872691,14.8291142 72.3110058,14.8291142 Z" ></path>
                                <path d="M72.3110058,25.9509498 L72.3120097,25.9509498 C73.3357464,25.9509498 74.165649,26.7808524 74.165649,27.8045891 C74.165649,28.8283258 73.3357464,29.6582283 72.3120097,29.6582283 L72.3110058,29.6582283 C71.2872691,29.6582283 70.4573665,28.8283258 70.4573665,27.8045891 C70.4573665,26.7808524 71.2872691,25.9509498 72.3110058,25.9509498 Z" ></path>
                                <path d="M72.3110058,33.3655069 L72.3120097,33.3655069 C73.3357464,33.3655069 74.165649,34.1954095 74.165649,35.2191462 C74.165649,36.2428829 73.3357464,37.0727854 72.3120097,37.0727854 L72.3110058,37.0727854 C71.2872691,37.0727854 70.4573665,36.2428829 70.4573665,35.2191462 C70.4573665,34.1954095 71.2872691,33.3655069 72.3110058,33.3655069 Z" ></path>
                                <path d="M72.3110058,40.780064 L72.3120097,40.780064 C73.3357464,40.780064 74.165649,41.6099665 74.165649,42.6337033 C74.165649,43.65744 73.3357464,44.4873425 72.3120097,44.4873425 L72.3110058,44.4873425 C71.2872691,44.4873425 70.4573665,43.65744 70.4573665,42.6337033 C70.4573665,41.6099665 71.2872691,40.780064 72.3110058,40.780064 Z" ></path>
                                <path d="M72.3110058,44.4873425 L72.3120097,44.4873425 C73.3357464,44.4873425 74.165649,45.3172451 74.165649,46.3409818 C74.165649,47.3647185 73.3357464,48.1946211 72.3120097,48.1946211 L72.3110058,48.1946211 C71.2872691,48.1946211 70.4573665,47.3647185 70.4573665,46.3409818 C70.4573665,45.3172451 71.2872691,44.4873425 72.3110058,44.4873425 Z" ></path>
                                <path d="M72.3110058,51.9018996 L72.3120097,51.9018996 C73.3357464,51.9018996 74.165649,52.7318022 74.165649,53.7555389 C74.165649,54.7792756 73.3357464,55.6091782 72.3120097,55.6091782 L72.3110058,55.6091782 C71.2872691,55.6091782 70.4573665,54.7792756 70.4573665,53.7555389 C70.4573665,52.7318022 71.2872691,51.9018996 72.3110058,51.9018996 Z" ></path>
                                <path d="M72.3110058,55.6091782 L72.3120097,55.6091782 C73.3357464,55.6091782 74.165649,56.4390807 74.165649,57.4628174 C74.165649,58.4865541 73.3357464,59.3164567 72.3120097,59.3164567 L72.3110058,59.3164567 C71.2872691,59.3164567 70.4573665,58.4865541 70.4573665,57.4628174 C70.4573665,56.4390807 71.2872691,55.6091782 72.3110058,55.6091782 Z" ></path>
                                <path d="M72.3110058,59.3164567 L72.3120097,59.3164567 C73.3357464,59.3164567 74.165649,60.1463593 74.165649,61.170096 C74.165649,62.1938327 73.3357464,63.0237352 72.3120097,63.0237352 L72.3110058,63.0237352 C71.2872691,63.0237352 70.4573665,62.1938327 70.4573665,61.170096 C70.4573665,60.1463593 71.2872691,59.3164567 72.3110058,59.3164567 Z" ></path>
                                <path d="M72.3110058,63.0237352 L72.3120097,63.0237352 C73.3357464,63.0237352 74.165649,63.8536378 74.165649,64.8773745 C74.165649,65.9011112 73.3357464,66.7310138 72.3120097,66.7310138 L72.3110058,66.7310138 C71.2872691,66.7310138 70.4573665,65.9011112 70.4573665,64.8773745 C70.4573665,63.8536378 71.2872691,63.0237352 72.3110058,63.0237352 Z" ></path>
                                <path d="M72.3110058,66.7310138 L72.3120097,66.7310138 C73.3357464,66.7310138 74.165649,67.5609164 74.165649,68.5846531 C74.165649,69.6083898 73.3357464,70.4382923 72.3120097,70.4382923 L72.3110058,70.4382923 C71.2872691,70.4382923 70.4573665,69.6083898 70.4573665,68.5846531 C70.4573665,67.5609164 71.2872691,66.7310138 72.3110058,66.7310138 Z" ></path>
                                <path d="M72.3110058,70.4382923 L72.3120097,70.4382923 C73.3357464,70.4382923 74.165649,71.2681949 74.165649,72.2919316 C74.165649,73.3156683 73.3357464,74.1455709 72.3120097,74.1455709 L72.3110058,74.1455709 C71.2872691,74.1455709 70.4573665,73.3156683 70.4573665,72.2919316 C70.4573665,71.2681949 71.2872691,70.4382923 72.3110058,70.4382923 Z" ></path>
                                <path d="M72.3110058,81.560128 L72.3120097,81.560128 C73.3357464,81.560128 74.165649,82.3900305 74.165649,83.4137672 C74.165649,84.4375039 73.3357464,85.2674065 72.3120097,85.2674065 L72.3110058,85.2674065 C71.2872691,85.2674065 70.4573665,84.4375039 70.4573665,83.4137672 C70.4573665,82.3900305 71.2872691,81.560128 72.3110058,81.560128 Z" ></path>
                                <path d="M72.3110058,85.2674065 L72.3120097,85.2674065 C73.3357464,85.2674065 74.165649,86.0973091 74.165649,87.1210458 C74.165649,88.1447825 73.3357464,88.974685 72.3120097,88.974685 L72.3110058,88.974685 C71.2872691,88.974685 70.4573665,88.1447825 70.4573665,87.1210458 C70.4573665,86.0973091 71.2872691,85.2674065 72.3110058,85.2674065 Z" ></path>
                                <path d="M72.3110058,88.974685 L72.3120097,88.974685 C73.3357464,88.974685 74.165649,89.8045876 74.165649,90.8283243 C74.165649,91.852061 73.3357464,92.6819636 72.3120097,92.6819636 L72.3110058,92.6819636 C71.2872691,92.6819636 70.4573665,91.852061 70.4573665,90.8283243 C70.4573665,89.8045876 71.2872691,88.974685 72.3110058,88.974685 Z" ></path>
                                <path d="M72.3110058,103.803799 L72.3120097,103.803799 C73.3357464,103.803799 74.165649,104.633702 74.165649,105.657438 C74.165649,106.681175 73.3357464,107.511078 72.3120097,107.511078 L72.3110058,107.511078 C71.2872691,107.511078 70.4573665,106.681175 70.4573665,105.657438 C70.4573665,104.633702 71.2872691,103.803799 72.3110058,103.803799 Z" ></path>
                                <path d="M76.0192882,18.5363927 L76.0202922,18.5363927 C77.0440289,18.5363927 77.8739314,19.3662953 77.8739314,20.390032 C77.8739314,21.4137687 77.0440289,22.2436713 76.0202922,22.2436713 L76.0192882,22.2436713 C74.9955515,22.2436713 74.165649,21.4137687 74.165649,20.390032 C74.165649,19.3662953 74.9955515,18.5363927 76.0192882,18.5363927 Z" ></path>
                                <path d="M76.0192882,22.2436713 L76.0202922,22.2436713 C77.0440289,22.2436713 77.8739314,23.0735738 77.8739314,24.0973105 C77.8739314,25.1210472 77.0440289,25.9509498 76.0202922,25.9509498 L76.0192882,25.9509498 C74.9955515,25.9509498 74.165649,25.1210472 74.165649,24.0973105 C74.165649,23.0735738 74.9955515,22.2436713 76.0192882,22.2436713 Z" ></path>
                                <path d="M76.0192882,25.9509498 L76.0202922,25.9509498 C77.0440289,25.9509498 77.8739314,26.7808524 77.8739314,27.8045891 C77.8739314,28.8283258 77.0440289,29.6582283 76.0202922,29.6582283 L76.0192882,29.6582283 C74.9955515,29.6582283 74.165649,28.8283258 74.165649,27.8045891 C74.165649,26.7808524 74.9955515,25.9509498 76.0192882,25.9509498 Z" ></path>
                                <path d="M76.0192882,37.0727854 L76.0202922,37.0727854 C77.0440289,37.0727854 77.8739314,37.902688 77.8739314,38.9264247 C77.8739314,39.9501614 77.0440289,40.780064 76.0202922,40.780064 L76.0192882,40.780064 C74.9955515,40.780064 74.165649,39.9501614 74.165649,38.9264247 C74.165649,37.902688 74.9955515,37.0727854 76.0192882,37.0727854 Z" ></path>
                                <path d="M76.0192882,40.780064 L76.0202922,40.780064 C77.0440289,40.780064 77.8739314,41.6099665 77.8739314,42.6337033 C77.8739314,43.65744 77.0440289,44.4873425 76.0202922,44.4873425 L76.0192882,44.4873425 C74.9955515,44.4873425 74.165649,43.65744 74.165649,42.6337033 C74.165649,41.6099665 74.9955515,40.780064 76.0192882,40.780064 Z" ></path>
                                <path d="M76.0192882,51.9018996 L76.0202922,51.9018996 C77.0440289,51.9018996 77.8739314,52.7318022 77.8739314,53.7555389 C77.8739314,54.7792756 77.0440289,55.6091782 76.0202922,55.6091782 L76.0192882,55.6091782 C74.9955515,55.6091782 74.165649,54.7792756 74.165649,53.7555389 C74.165649,52.7318022 74.9955515,51.9018996 76.0192882,51.9018996 Z" ></path>
                                <path d="M76.0192882,59.3164567 L76.0202922,59.3164567 C77.0440289,59.3164567 77.8739314,60.1463593 77.8739314,61.170096 C77.8739314,62.1938327 77.0440289,63.0237352 76.0202922,63.0237352 L76.0192882,63.0237352 C74.9955515,63.0237352 74.165649,62.1938327 74.165649,61.170096 C74.165649,60.1463593 74.9955515,59.3164567 76.0192882,59.3164567 Z" ></path>
                                <path d="M76.0192882,74.1455709 L76.0202922,74.1455709 C77.0440289,74.1455709 77.8739314,74.9754734 77.8739314,75.9992101 C77.8739314,77.0229468 77.0440289,77.8528494 76.0202922,77.8528494 L76.0192882,77.8528494 C74.9955515,77.8528494 74.165649,77.0229468 74.165649,75.9992101 C74.165649,74.9754734 74.9955515,74.1455709 76.0192882,74.1455709 Z" ></path>
                                <path d="M76.0192882,77.8528494 L76.0202922,77.8528494 C77.0440289,77.8528494 77.8739314,78.682752 77.8739314,79.7064887 C77.8739314,80.7302254 77.0440289,81.560128 76.0202922,81.560128 L76.0192882,81.560128 C74.9955515,81.560128 74.165649,80.7302254 74.165649,79.7064887 C74.165649,78.682752 74.9955515,77.8528494 76.0192882,77.8528494 Z" ></path>
                                <path d="M76.0192882,81.560128 L76.0202922,81.560128 C77.0440289,81.560128 77.8739314,82.3900305 77.8739314,83.4137672 C77.8739314,84.4375039 77.0440289,85.2674065 76.0202922,85.2674065 L76.0192882,85.2674065 C74.9955515,85.2674065 74.165649,84.4375039 74.165649,83.4137672 C74.165649,82.3900305 74.9955515,81.560128 76.0192882,81.560128 Z" ></path>
                                <path d="M76.0192882,85.2674065 L76.0202922,85.2674065 C77.0440289,85.2674065 77.8739314,86.0973091 77.8739314,87.1210458 C77.8739314,88.1447825 77.0440289,88.974685 76.0202922,88.974685 L76.0192882,88.974685 C74.9955515,88.974685 74.165649,88.1447825 74.165649,87.1210458 C74.165649,86.0973091 74.9955515,85.2674065 76.0192882,85.2674065 Z" ></path>
                                <path d="M76.0192882,88.974685 L76.0202922,88.974685 C77.0440289,88.974685 77.8739314,89.8045876 77.8739314,90.8283243 C77.8739314,91.852061 77.0440289,92.6819636 76.0202922,92.6819636 L76.0192882,92.6819636 C74.9955515,92.6819636 74.165649,91.852061 74.165649,90.8283243 C74.165649,89.8045876 74.9955515,88.974685 76.0192882,88.974685 Z" ></path>
                                <path d="M76.0192882,96.3892421 L76.0202922,96.3892421 C77.0440289,96.3892421 77.8739314,97.2191447 77.8739314,98.2428814 C77.8739314,99.2666181 77.0440289,100.096521 76.0202922,100.096521 L76.0192882,100.096521 C74.9955515,100.096521 74.165649,99.2666181 74.165649,98.2428814 C74.165649,97.2191447 74.9955515,96.3892421 76.0192882,96.3892421 Z" ></path>
                                <path d="M76.0192882,103.803799 L76.0202922,103.803799 C77.0440289,103.803799 77.8739314,104.633702 77.8739314,105.657438 C77.8739314,106.681175 77.0440289,107.511078 76.0202922,107.511078 L76.0192882,107.511078 C74.9955515,107.511078 74.165649,106.681175 74.165649,105.657438 C74.165649,104.633702 74.9955515,103.803799 76.0192882,103.803799 Z" ></path>
                                <path d="M79.7275707,29.6582283 L79.7285746,29.6582283 C80.7523113,29.6582283 81.5822139,30.4881309 81.5822139,31.5118676 C81.5822139,32.5356043 80.7523113,33.3655069 79.7285746,33.3655069 L79.7275707,33.3655069 C78.703834,33.3655069 77.8739314,32.5356043 77.8739314,31.5118676 C77.8739314,30.4881309 78.703834,29.6582283 79.7275707,29.6582283 Z" ></path>
                                <path d="M79.7275707,37.0727854 L79.7285746,37.0727854 C80.7523113,37.0727854 81.5822139,37.902688 81.5822139,38.9264247 C81.5822139,39.9501614 80.7523113,40.780064 79.7285746,40.780064 L79.7275707,40.780064 C78.703834,40.780064 77.8739314,39.9501614 77.8739314,38.9264247 C77.8739314,37.902688 78.703834,37.0727854 79.7275707,37.0727854 Z" ></path>
                                <path d="M79.7275707,40.780064 L79.7285746,40.780064 C80.7523113,40.780064 81.5822139,41.6099665 81.5822139,42.6337033 C81.5822139,43.65744 80.7523113,44.4873425 79.7285746,44.4873425 L79.7275707,44.4873425 C78.703834,44.4873425 77.8739314,43.65744 77.8739314,42.6337033 C77.8739314,41.6099665 78.703834,40.780064 79.7275707,40.780064 Z" ></path>
                                <path d="M79.7275707,48.1946211 L79.7285746,48.1946211 C80.7523113,48.1946211 81.5822139,49.0245236 81.5822139,50.0482603 C81.5822139,51.071997 80.7523113,51.9018996 79.7285746,51.9018996 L79.7275707,51.9018996 C78.703834,51.9018996 77.8739314,51.071997 77.8739314,50.0482603 C77.8739314,49.0245236 78.703834,48.1946211 79.7275707,48.1946211 Z" ></path>
                                <path d="M79.7275707,51.9018996 L79.7285746,51.9018996 C80.7523113,51.9018996 81.5822139,52.7318022 81.5822139,53.7555389 C81.5822139,54.7792756 80.7523113,55.6091782 79.7285746,55.6091782 L79.7275707,55.6091782 C78.703834,55.6091782 77.8739314,54.7792756 77.8739314,53.7555389 C77.8739314,52.7318022 78.703834,51.9018996 79.7275707,51.9018996 Z" ></path>
                                <path d="M79.7275707,55.6091782 L79.7285746,55.6091782 C80.7523113,55.6091782 81.5822139,56.4390807 81.5822139,57.4628174 C81.5822139,58.4865541 80.7523113,59.3164567 79.7285746,59.3164567 L79.7275707,59.3164567 C78.703834,59.3164567 77.8739314,58.4865541 77.8739314,57.4628174 C77.8739314,56.4390807 78.703834,55.6091782 79.7275707,55.6091782 Z" ></path>
                                <path d="M79.7275707,59.3164567 L79.7285746,59.3164567 C80.7523113,59.3164567 81.5822139,60.1463593 81.5822139,61.170096 C81.5822139,62.1938327 80.7523113,63.0237352 79.7285746,63.0237352 L79.7275707,63.0237352 C78.703834,63.0237352 77.8739314,62.1938327 77.8739314,61.170096 C77.8739314,60.1463593 78.703834,59.3164567 79.7275707,59.3164567 Z" ></path>
                                <path d="M79.7275707,74.1455709 L79.7285746,74.1455709 C80.7523113,74.1455709 81.5822139,74.9754734 81.5822139,75.9992101 C81.5822139,77.0229468 80.7523113,77.8528494 79.7285746,77.8528494 L79.7275707,77.8528494 C78.703834,77.8528494 77.8739314,77.0229468 77.8739314,75.9992101 C77.8739314,74.9754734 78.703834,74.1455709 79.7275707,74.1455709 Z" ></path>
                                <path d="M79.7275707,88.974685 L79.7285746,88.974685 C80.7523113,88.974685 81.5822139,89.8045876 81.5822139,90.8283243 C81.5822139,91.852061 80.7523113,92.6819636 79.7285746,92.6819636 L79.7275707,92.6819636 C78.703834,92.6819636 77.8739314,91.852061 77.8739314,90.8283243 C77.8739314,89.8045876 78.703834,88.974685 79.7275707,88.974685 Z" ></path>
                                <path d="M79.7275707,92.6819636 L79.7285746,92.6819636 C80.7523113,92.6819636 81.5822139,93.5118662 81.5822139,94.5356029 C81.5822139,95.5593396 80.7523113,96.3892421 79.7285746,96.3892421 L79.7275707,96.3892421 C78.703834,96.3892421 77.8739314,95.5593396 77.8739314,94.5356029 C77.8739314,93.5118662 78.703834,92.6819636 79.7275707,92.6819636 Z" ></path>
                                <path d="M79.7275707,96.3892421 L79.7285746,96.3892421 C80.7523113,96.3892421 81.5822139,97.2191447 81.5822139,98.2428814 C81.5822139,99.2666181 80.7523113,100.096521 79.7285746,100.096521 L79.7275707,100.096521 C78.703834,100.096521 77.8739314,99.2666181 77.8739314,98.2428814 C77.8739314,97.2191447 78.703834,96.3892421 79.7275707,96.3892421 Z" ></path>
                                <rect  x="81.5822139" y="40.780064" width="3.70828245" height="3.70727854" rx="1.85363927"></rect>
                                <rect  x="81.5822139" y="44.4873425" width="3.70828245" height="3.70727854" rx="1.85363927"></rect>
                                <rect  x="81.5822139" y="48.1946211" width="3.70828245" height="3.70727854" rx="1.85363927"></rect>
                                <rect  x="81.5822139" y="55.6091782" width="3.70828245" height="3.70727854" rx="1.85363927"></rect>
                                <rect  x="81.5822139" y="70.4382923" width="3.70828245" height="3.70727854" rx="1.85363927"></rect>
                                <rect  x="81.5822139" y="74.1455709" width="3.70828245" height="3.70727854" rx="1.85363927"></rect>
                                <rect  x="81.5822139" y="81.560128" width="3.70828245" height="3.70727854" rx="1.85363927"></rect>
                                <rect  x="81.5822139" y="88.974685" width="3.70828245" height="3.70727854" rx="1.85363927"></rect>
                                <rect  x="81.5822139" y="100.096521" width="3.70828245" height="3.70727854" rx="1.85363927"></rect>
                                <rect  x="81.5822139" y="103.803799" width="3.70828245" height="3.70727854" rx="1.85363927"></rect>
                                <rect  x="85.2904963" y="33.3655069" width="3.70828245" height="3.70727854" rx="1.85363927"></rect>
                                <rect  x="85.2904963" y="37.0727854" width="3.70828245" height="3.70727854" rx="1.85363927"></rect>
                                <rect  x="85.2904963" y="40.780064" width="3.70828245" height="3.70727854" rx="1.85363927"></rect>
                                <rect  x="85.2904963" y="48.1946211" width="3.70828245" height="3.70727854" rx="1.85363927"></rect>
                                <rect  x="85.2904963" y="55.6091782" width="3.70828245" height="3.70727854" rx="1.85363927"></rect>
                                <rect  x="85.2904963" y="74.1455709" width="3.70828245" height="3.70727854" rx="1.85363927"></rect>
                                <rect  x="85.2904963" y="88.974685" width="3.70828245" height="3.70727854" rx="1.85363927"></rect>
                                <rect  x="85.2904963" y="96.3892421" width="3.70828245" height="3.70727854" rx="1.85363927"></rect>
                                <rect  x="85.2904963" y="103.803799" width="3.70828245" height="3.70727854" rx="1.85363927"></rect>
                                <rect  x="88.9987788" y="29.6582283" width="3.70828245" height="3.70727854" rx="1.85363927"></rect>
                                <rect  x="88.9987788" y="33.3655069" width="3.70828245" height="3.70727854" rx="1.85363927"></rect>
                                <rect  x="88.9987788" y="37.0727854" width="3.70828245" height="3.70727854" rx="1.85363927"></rect>
                                <rect  x="88.9987788" y="40.780064" width="3.70828245" height="3.70727854" rx="1.85363927"></rect>
                                <rect  x="88.9987788" y="48.1946211" width="3.70828245" height="3.70727854" rx="1.85363927"></rect>
                                <rect  x="88.9987788" y="51.9018996" width="3.70828245" height="3.70727854" rx="1.85363927"></rect>
                                <rect  x="88.9987788" y="55.6091782" width="3.70828245" height="3.70727854" rx="1.85363927"></rect>
                                <rect  x="88.9987788" y="63.0237352" width="3.70828245" height="3.70727854" rx="1.85363927"></rect>
                                <rect  x="88.9987788" y="66.7310138" width="3.70828245" height="3.70727854" rx="1.85363927"></rect>
                                <rect  x="88.9987788" y="74.1455709" width="3.70828245" height="3.70727854" rx="1.85363927"></rect>
                                <rect  x="88.9987788" y="77.8528494" width="3.70828245" height="3.70727854" rx="1.85363927"></rect>
                                <rect  x="88.9987788" y="81.560128" width="3.70828245" height="3.70727854" rx="1.85363927"></rect>
                                <rect  x="88.9987788" y="85.2674065" width="3.70828245" height="3.70727854" rx="1.85363927"></rect>
                                <rect  x="88.9987788" y="88.974685" width="3.70828245" height="3.70727854" rx="1.85363927"></rect>
                                <rect  x="88.9987788" y="96.3892421" width="3.70828245" height="3.70727854" rx="1.85363927"></rect>
                                <rect  x="88.9987788" y="103.803799" width="3.70828245" height="3.70727854" rx="1.85363927"></rect>
                                <rect  x="92.7070612" y="40.780064" width="3.70828245" height="3.70727854" rx="1.85363927"></rect>
                                <rect  x="92.7070612" y="48.1946211" width="3.70828245" height="3.70727854" rx="1.85363927"></rect>
                                <rect  x="92.7070612" y="59.3164567" width="3.70828245" height="3.70727854" rx="1.85363927"></rect>
                                <rect  x="92.7070612" y="66.7310138" width="3.70828245" height="3.70727854" rx="1.85363927"></rect>
                                <rect  x="92.7070612" y="70.4382923" width="3.70828245" height="3.70727854" rx="1.85363927"></rect>
                                <rect  x="92.7070612" y="74.1455709" width="3.70828245" height="3.70727854" rx="1.85363927"></rect>
                                <rect  x="92.7070612" y="77.8528494" width="3.70828245" height="3.70727854" rx="1.85363927"></rect>
                                <rect  x="92.7070612" y="81.560128" width="3.70828245" height="3.70727854" rx="1.85363927"></rect>
                                <rect  x="92.7070612" y="88.974685" width="3.70828245" height="3.70727854" rx="1.85363927"></rect>
                                <rect  x="92.7070612" y="100.096521" width="3.70828245" height="3.70727854" rx="1.85363927"></rect>
                                <rect  x="96.4153437" y="29.6582283" width="3.70828245" height="3.70727854" rx="1.85363927"></rect>
                                <rect  x="96.4153437" y="33.3655069" width="3.70828245" height="3.70727854" rx="1.85363927"></rect>
                                <rect  x="96.4153437" y="37.0727854" width="3.70828245" height="3.70727854" rx="1.85363927"></rect>
                                <rect  x="96.4153437" y="48.1946211" width="3.70828245" height="3.70727854" rx="1.85363927"></rect>
                                <rect  x="96.4153437" y="51.9018996" width="3.70828245" height="3.70727854" rx="1.85363927"></rect>
                                <rect  x="96.4153437" y="55.6091782" width="3.70828245" height="3.70727854" rx="1.85363927"></rect>
                                <rect  x="96.4153437" y="63.0237352" width="3.70828245" height="3.70727854" rx="1.85363927"></rect>
                                <rect  x="96.4153437" y="70.4382923" width="3.70828245" height="3.70727854" rx="1.85363927"></rect>
                                <rect  x="96.4153437" y="74.1455709" width="3.70828245" height="3.70727854" rx="1.85363927"></rect>
                                <rect  x="96.4153437" y="96.3892421" width="3.70828245" height="3.70727854" rx="1.85363927"></rect>
                                <rect  x="96.4153437" y="100.096521" width="3.70828245" height="3.70727854" rx="1.85363927"></rect>
                                <rect  x="100.123626" y="29.6582283" width="3.70828245" height="3.70727854" rx="1.85363927"></rect>
                                <rect  x="100.123626" y="33.3655069" width="3.70828245" height="3.70727854" rx="1.85363927"></rect>
                                <rect  x="100.123626" y="48.1946211" width="3.70828245" height="3.70727854" rx="1.85363927"></rect>
                                <rect  x="100.123626" y="63.0237352" width="3.70828245" height="3.70727854" rx="1.85363927"></rect>
                                <rect  x="100.123626" y="74.1455709" width="3.70828245" height="3.70727854" rx="1.85363927"></rect>
                                <rect  x="100.123626" y="92.6819636" width="3.70828245" height="3.70727854" rx="1.85363927"></rect>
                                <rect  x="100.123626" y="96.3892421" width="3.70828245" height="3.70727854" rx="1.85363927"></rect>
                                <rect  x="103.831909" y="29.6582283" width="3.70828245" height="3.70727854" rx="1.85363927"></rect>
                                <rect  x="103.831909" y="40.780064" width="3.70828245" height="3.70727854" rx="1.85363927"></rect>
                                <rect  x="103.831909" y="44.4873425" width="3.70828245" height="3.70727854" rx="1.85363927"></rect>
                                <rect  x="103.831909" y="48.1946211" width="3.70828245" height="3.70727854" rx="1.85363927"></rect>
                                <rect  x="103.831909" y="51.9018996" width="3.70828245" height="3.70727854" rx="1.85363927"></rect>
                                <rect  x="103.831909" y="55.6091782" width="3.70828245" height="3.70727854" rx="1.85363927"></rect>
                                <rect  x="103.831909" y="66.7310138" width="3.70828245" height="3.70727854" rx="1.85363927"></rect>
                                <rect  x="103.831909" y="85.2674065" width="3.70828245" height="3.70727854" rx="1.85363927"></rect>
                                <rect  x="103.831909" y="96.3892421" width="3.70828245" height="3.70727854" rx="1.85363927"></rect>
                                <rect  x="103.831909" y="100.096521" width="3.70828245" height="3.70727854" rx="1.85363927"></rect>
                            </g>
                        </g>
                        <g id="BTC---SOLID---MASTER" transform="translate(45.200652, 45.200652)">
                            <g id="BTC---Solid">
                                <mask id="mask-4" fill="white">
                                    <use xlink:href="#path-3"></use>
                                </mask>
                                <use  fill="#F7931A" xlink:href="#path-3"></use>
                                <path d="M10.8449344,7.76040796 C10.6083407,8.72037539 9.05347349,8.25643164 8.5465233,8.13783313 L8.97477817,6.43370867 C9.47030483,6.55230717 11.0926977,6.75742427 10.8449344,7.76040796 L10.8449344,7.76040796 Z M10.5969172,10.5107754 C10.3379842,11.5677117 8.46757413,11.0177354 7.87050511,10.8775073 L8.3325228,9.0008317 C8.94076148,9.14105985 10.8672737,9.39988651 10.5969172,10.5107754 Z M12.6023786,7.76040796 C12.7488535,6.72485828 11.9263604,6.18557531 10.7997481,5.81884345 L11.1490537,4.41680494 L10.259035,4.21193088 L9.92115287,5.58164644 C9.68455919,5.52769384 9.44796552,5.47374124 9.21137184,5.43072497 L9.54925401,4.06076639 L8.64806565,3.85589233 L8.29875997,5.25817387 C8.10709878,5.21491457 7.91569145,5.18259162 7.72403027,5.13933233 L6.4961294,4.85911905 L6.27070538,5.76513388 C6.27070538,5.76513388 6.93555392,5.90511901 6.91296074,5.91605534 C7.27343609,6.0023309 7.34096175,6.2288346 7.32979209,6.40138571 L6.93555392,7.99760498 C6.95789323,8.00854131 6.99190992,8.00854131 7.02567275,8.02992793 C6.99190992,8.01923462 6.96931675,8.01923462 6.93555392,8.00854131 L6.39458705,10.2410124 C6.34965456,10.3489176 6.23694255,10.4998391 5.98917921,10.4461295 C6.00034887,10.4568228 5.33575419,10.294965 5.33575419,10.294965 L4.90749933,11.2765621 L6.06787453,11.5353887 C6.28212889,11.5893413 6.4961294,11.6323576 6.69896024,11.6863102 L6.34965456,13.0992851 L7.23967326,13.3041591 L7.58897894,11.9021206 C7.83674227,11.9667665 8.07333595,12.0207191 8.29875997,12.0746717 L7.94945428,13.4660169 L8.83947298,13.670891 L9.18877867,12.2581592 C10.7096292,12.5169858 11.8474113,12.3981443 12.3094289,11.071688 C12.6813278,10.0145087 12.2756661,9.41057982 11.4645966,9.01152501 C12.0616656,8.88199016 12.4896666,8.51550133 12.6023786,7.76040796 L12.6023786,7.76040796 Z" id="Shape" fill="#FFFFFF" mask="url(#mask-4)"></path>
                            </g>
                        </g>
                    </g>
                </g>
                <g id="Group-25" transform="translate(16.000000, 13.000000)" stroke="#5070F8" stroke-width="1.25">
                    <rect id="Rectangle" x="2.2995967" y="2.15923475" width="7.36" height="9.28" rx="0.4"></rect>
                    <polyline id="Path-21" stroke-linecap="round" stroke-linejoin="round" points="7.20124139 0 -1.44950718e-13 0 -1.44950718e-13 8.27562588"></polyline>
                </g>
            </g>
        </g>
    </g>
</svg>
