<?xml version="1.0" encoding="UTF-8" standalone="no"?>
<svg
   xmlns:dc="http://purl.org/dc/elements/1.1/"
   xmlns:cc="http://creativecommons.org/ns#"
   xmlns:rdf="http://www.w3.org/1999/02/22-rdf-syntax-ns#"
   xmlns:svg="http://www.w3.org/2000/svg"
   xmlns="http://www.w3.org/2000/svg"
   viewBox="0 0 514.08002 76.400002"
   height="76.400002"
   width="514.08002"
   xml:space="preserve"
   id="svg2"
   version="1.1"><metadata
     id="metadata8"><rdf:RDF><cc:Work
         rdf:about=""><dc:format>image/svg+xml</dc:format><dc:type
           rdf:resource="http://purl.org/dc/dcmitype/StillImage" /></cc:Work></rdf:RDF></metadata><defs
     id="defs6" /><g
     transform="matrix(1.3333333,0,0,-1.3333333,0,76.4)"
     id="g10"><g
       transform="scale(0.1)"
       id="g12"><path
         id="path14"
         style="fill:#231f20;fill-opacity:1;fill-rule:nonzero;stroke:none"
         d="m 3855.57,0.00390625 h -2160 V 573.02 h 2160 V 0.00390625" /><path
         id="path16"
         style="fill:#ffffff;fill-opacity:1;fill-rule:nonzero;stroke:none"
         d="m 2253.55,330.684 c 5.94,0 11.59,-0.731 16.9,-2.192 5.34,-1.457 9.99,-3.75 14,-6.937 3.99,-3.145 7.16,-7.239 9.52,-12.278 2.34,-5.019 3.51,-11.203 3.51,-18.484 0,-7.117 -1.08,-13.262 -3.29,-18.367 -2.19,-5.106 -5.25,-9.293 -9.15,-12.5 -3.92,-3.254 -8.58,-5.696 -13.98,-7.289 -5.42,-1.645 -11.25,-2.442 -17.51,-2.442 h -48.65 v -45.507 h -24.44 v 125.996 z m -48.65,-55.211 h 48.65 c 2.37,0 4.69,0.14 7.05,0.371 2.36,0.226 4.41,0.879 6.22,1.953 1.8,1.058 3.3,2.566 4.46,4.629 1.17,2.008 1.76,4.808 1.76,8.367 0,3.391 -0.61,6.09 -1.89,8.027 -1.26,1.934 -2.78,3.422 -4.68,4.364 -1.89,1 -3.96,1.609 -6.23,1.828 -2.27,0.242 -4.51,0.39 -6.69,0.39 h -48.65 v -29.929" /><path
         id="path18"
         style="fill:#ffffff;fill-opacity:1;fill-rule:nonzero;stroke:none"
         d="M 2424.05,330.684 2365.06,204.68 h 27.74 l 12.2,26.539 h 71.21 l 12.22,-26.539 h 27.74 l -59.67,126.004 z m 16.46,-24.571 23.5,-49.609 h -47 z" /><path
         id="path20"
         style="fill:#ffffff;fill-opacity:1;fill-rule:nonzero;stroke:none"
         d="m 3060.46,330.684 v -76.61 c 0,-3.73 0.35,-7.297 1.05,-10.672 0.71,-3.449 2.23,-6.425 4.59,-9.019 2.35,-2.586 5.78,-4.641 10.36,-6.078 4.51,-1.461 10.65,-2.192 18.31,-2.192 8.14,0 14.48,0.809 19.06,2.418 4.54,1.625 7.92,3.782 10.19,6.442 2.27,2.691 3.69,5.699 4.23,9.019 0.55,3.313 0.83,6.68 0.83,10.082 v 76.61 h 24.43 v -76.61 c 0,-6.629 -0.85,-13.172 -2.58,-19.578 -1.73,-6.391 -4.83,-12.07 -9.3,-17.023 -4.45,-4.95 -10.47,-8.969 -18.09,-12.02 -7.58,-3.105 -17.27,-4.64 -29.01,-4.64 -10.66,0 -19.66,1.386 -27.01,4.121 -7.39,2.769 -13.4,6.539 -18.1,11.32 -4.72,4.789 -8.12,10.41 -10.23,16.891 -2.14,6.531 -3.15,13.488 -3.15,20.929 v 76.61 h 24.42" /><path
         id="path22"
         style="fill:#ffffff;fill-opacity:1;fill-rule:nonzero;stroke:none"
         d="m 3346.57,330.684 v -85.106 h -0.47 l -66.73,85.106 h -24.45 V 204.68 h 24.45 v 85.14 h 0.46 l 66.74,-85.14 H 3371 v 126.004 h -24.43" /><path
         id="path24"
         style="fill:#ffffff;fill-opacity:1;fill-rule:nonzero;stroke:none"
         d="m 2715.21,242.785 c -2.21,-1.605 -4.78,-3.273 -7.72,-5.019 -3.61,-2.11 -7.62,-3.989 -11.97,-5.696 -4.39,-1.703 -9.14,-3.121 -14.21,-4.25 -5.12,-1.164 -10.33,-1.715 -15.66,-1.715 -8.78,0 -16.33,1.25 -22.65,3.762 -6.38,2.516 -11.62,5.731 -15.76,9.613 -4.15,3.918 -7.22,8.258 -9.17,13.161 -1.96,4.839 -2.95,9.617 -2.95,14.332 0,5.015 1.07,10.078 3.19,15.183 2.12,5.114 5.24,9.653 9.39,13.625 4.14,3.996 9.16,7.231 15.06,9.719 5.87,2.531 12.56,3.77 20.07,3.77 5.97,0 11.42,-0.762 16.46,-2.27 5.02,-1.57 9.56,-3.414 13.62,-5.504 4.07,-2.098 7.62,-4.359 10.69,-6.797 2.51,-1.992 4.65,-3.711 6.47,-5.14 l 8.61,26.242 c -1.24,0.887 -2.47,1.789 -3.79,2.719 -3.85,2.75 -8.23,5.304 -13.13,7.66 -4.97,2.34 -10.53,4.351 -16.7,5.957 -6.2,1.64 -13.23,2.433 -21.03,2.433 -8.49,0 -17.07,-1.382 -25.75,-4.125 -8.71,-2.757 -16.59,-6.925 -23.6,-12.539 -7.05,-5.578 -12.84,-12.566 -17.29,-20.906 -4.47,-8.359 -6.69,-18.109 -6.69,-29.312 0,-11.008 1.94,-20.676 5.9,-28.942 3.89,-8.277 9.24,-15.207 16.08,-20.894 6.81,-5.68 14.75,-9.954 23.83,-12.778 9.11,-2.836 18.71,-4.269 28.92,-4.269 4.68,0 9.76,0.398 15.28,1.238 5.46,0.781 10.98,2.012 16.44,3.625 5.47,1.629 10.88,3.711 16.21,6.219 3.65,1.711 7.03,3.633 10.16,5.648 l -8.31,25.25" /><path
         id="path26"
         style="fill:#ffffff;fill-opacity:1;fill-rule:nonzero;stroke:none"
         d="m 2928.64,271.707 c -8.23,6.402 -19.39,9.781 -33.48,10.09 l -31.76,1.191 c -2.02,0 -4.3,0.2 -6.81,0.496 -2.48,0.364 -4.83,1 -7.04,1.985 -2.18,0.949 -4.02,2.219 -5.51,3.758 -1.49,1.527 -2.24,3.511 -2.24,5.972 0,2.746 0.89,5.039 2.72,6.91 1.76,1.879 4.09,3.321 6.93,4.399 2.81,1.039 5.91,1.765 9.27,2.168 3.36,0.39 6.7,0.601 10,0.601 6.08,0 11.74,-0.492 16.91,-1.441 5.15,-0.969 9.91,-2.148 14.22,-3.539 4.32,-1.359 8.18,-2.84 11.63,-4.371 2.65,-1.196 4.96,-2.289 6.94,-3.321 l 7.94,24.071 c -0.92,0.508 -1.85,1.031 -2.89,1.621 -3.28,1.871 -7.41,3.687 -12.35,5.461 -4.92,1.765 -10.62,3.379 -17.02,4.762 -6.46,1.343 -13.64,2.05 -21.65,2.05 -10.97,0 -20.1,-1.144 -27.37,-3.386 -7.28,-2.289 -13.12,-5.231 -17.5,-8.887 -4.4,-3.641 -7.51,-7.774 -9.4,-12.41 -1.88,-4.629 -2.83,-9.27 -2.83,-13.973 0,-4.894 0.9,-9.578 2.71,-14.117 1.79,-4.555 4.53,-8.543 8.24,-12.039 3.65,-3.481 8.3,-6.32 13.87,-8.5 5.54,-2.184 12.09,-3.36 19.61,-3.539 l 36.41,-1.223 c 1.89,0 3.87,-0.238 6.01,-0.723 2.1,-0.476 4.1,-1.214 5.98,-2.156 1.88,-0.98 3.4,-2.308 4.58,-3.914 1.2,-1.637 1.77,-3.726 1.77,-6.297 0,-3.597 -1.14,-6.461 -3.41,-8.691 -2.25,-2.156 -5.09,-3.906 -8.43,-5.199 -3.39,-1.282 -7.02,-2.188 -10.84,-2.676 -3.84,-0.477 -7.24,-0.723 -10.21,-0.723 -10.83,0 -21.32,1.43 -31.5,4.246 -8.92,2.492 -18.05,6.641 -27.35,12.453 l -8.25,-25.117 c 6.96,-4.484 14.96,-8.148 23.97,-11.031 12.16,-3.902 26.51,-5.863 43.13,-5.863 10.01,0 18.64,1.113 25.84,3.308 7.2,2.184 13.16,5.114 17.86,8.864 4.7,3.73 8.16,8.101 10.34,13.14 2.2,5.02 3.28,10.371 3.28,16.059 0,13.269 -4.11,23.101 -12.32,29.531" /><path
         id="path28"
         style="fill:#231f20;fill-opacity:1;fill-rule:nonzero;stroke:none"
         d="m 73.0898,330.684 c 5.9415,0 11.5899,-0.731 16.8985,-2.192 5.3398,-1.457 9.9883,-3.75 14.0037,-6.937 3.988,-3.145 7.156,-7.239 9.516,-12.278 2.344,-5.019 3.512,-11.203 3.512,-18.484 0,-7.117 -1.079,-13.262 -3.293,-18.367 -2.188,-5.106 -5.247,-9.293 -9.145,-12.5 -3.922,-3.254 -8.582,-5.696 -13.9843,-7.289 -5.418,-1.645 -11.25,-2.442 -17.5079,-2.442 H 24.4414 V 204.688 H 0.00390625 V 330.684 Z M 24.4414,275.473 h 48.6484 c 2.3633,0 4.6915,0.14 7.0508,0.371 2.3633,0.226 4.4063,0.879 6.2188,1.953 1.8008,1.058 3.3008,2.566 4.457,4.629 1.1719,2.008 1.7656,4.808 1.7656,8.367 0,3.391 -0.6132,6.09 -1.8906,8.027 -1.2617,1.934 -2.7851,3.422 -4.6836,4.364 -1.8906,1 -3.9609,1.609 -6.2305,1.828 -2.2656,0.242 -4.5078,0.39 -6.6875,0.39 H 24.4414 v -29.929" /><path
         id="path30"
         style="fill:#231f20;fill-opacity:1;fill-rule:nonzero;stroke:none"
         d="M 243.586,330.684 184.598,204.68 h 27.738 l 12.199,26.539 h 71.211 l 12.231,-26.539 h 27.726 l -59.664,126.004 z m 16.461,-24.571 23.5,-49.609 h -47 z" /><path
         id="path32"
         style="fill:#231f20;fill-opacity:1;fill-rule:nonzero;stroke:none"
         d="m 879.996,330.684 v -76.61 c 0,-3.73 0.352,-7.297 1.055,-10.672 0.715,-3.449 2.226,-6.425 4.59,-9.019 2.355,-2.586 5.773,-4.641 10.351,-6.078 4.524,-1.461 10.656,-2.192 18.313,-2.192 8.144,0 14.48,0.809 19.062,2.418 4.539,1.625 7.918,3.782 10.196,6.442 2.265,2.691 3.679,5.699 4.226,9.019 0.547,3.313 0.832,6.68 0.832,10.082 v 76.61 h 24.422 v -76.61 c 0,-6.629 -0.848,-13.172 -2.578,-19.578 -1.727,-6.391 -4.824,-12.07 -9.297,-17.023 -4.453,-4.95 -10.469,-8.969 -18.094,-12.02 -7.57,-3.105 -17.265,-4.64 -29.004,-4.64 -10.656,0 -19.66,1.386 -27.011,4.121 -7.383,2.769 -13.399,6.539 -18.098,11.32 -4.715,4.789 -8.125,10.41 -10.234,16.891 -2.137,6.531 -3.153,13.488 -3.153,20.929 v 76.61 h 24.422" /><path
         id="path34"
         style="fill:#231f20;fill-opacity:1;fill-rule:nonzero;stroke:none"
         d="m 1166.11,330.684 v -85.106 h -0.47 l -66.73,85.106 h -24.45 V 204.68 h 24.45 v 85.14 h 0.46 l 66.74,-85.14 h 24.43 v 126.004 h -24.43" /><path
         id="path36"
         style="fill:#231f20;fill-opacity:1;fill-rule:nonzero;stroke:none"
         d="m 534.754,242.785 c -2.223,-1.605 -4.781,-3.273 -7.727,-5.019 -3.605,-2.11 -7.617,-3.989 -11.976,-5.696 -4.379,-1.703 -9.129,-3.121 -14.207,-4.25 -5.114,-1.164 -10.324,-1.715 -15.653,-1.715 -8.781,0 -16.332,1.25 -22.66,3.762 -6.371,2.516 -11.609,5.731 -15.75,9.613 -4.152,3.918 -7.218,8.258 -9.172,13.161 -1.957,4.839 -2.949,9.617 -2.949,14.332 0,5.015 1.07,10.078 3.188,15.183 2.125,5.114 5.246,9.653 9.39,13.625 4.141,3.996 9.16,7.231 15.063,9.719 5.871,2.531 12.558,3.77 20.07,3.77 5.961,0 11.41,-0.762 16.457,-2.27 5.024,-1.57 9.555,-3.414 13.621,-5.504 4.071,-2.098 7.621,-4.359 10.692,-6.797 2.511,-1.992 4.648,-3.711 6.461,-5.14 l 8.617,26.242 c -1.239,0.887 -2.469,1.789 -3.789,2.719 -3.852,2.75 -8.231,5.304 -13.137,7.66 -4.965,2.34 -10.523,4.351 -16.699,5.957 -6.192,1.64 -13.223,2.433 -21.024,2.433 -8.492,0 -17.07,-1.382 -25.75,-4.125 -8.711,-2.757 -16.586,-6.925 -23.609,-12.539 -7.039,-5.578 -12.832,-12.566 -17.281,-20.906 -4.465,-8.359 -6.688,-18.109 -6.688,-29.312 0,-11.008 1.938,-20.676 5.899,-28.942 3.882,-8.277 9.242,-15.207 16.078,-20.894 6.812,-5.68 14.75,-9.954 23.832,-12.778 9.109,-2.836 18.711,-4.269 28.922,-4.269 4.679,0 9.757,0.398 15.277,1.238 5.461,0.781 10.984,2.012 16.434,3.625 5.476,1.629 10.886,3.711 16.218,6.219 3.649,1.711 7.028,3.633 10.157,5.648 l -8.305,25.25" /><path
         id="path38"
         style="fill:#231f20;fill-opacity:1;fill-rule:nonzero;stroke:none"
         d="m 748.18,271.707 c -8.231,6.402 -19.403,9.781 -33.477,10.09 l -31.765,1.191 c -2.024,0 -4.297,0.2 -6.809,0.496 -2.481,0.364 -4.844,1 -7.039,1.985 -2.18,0.949 -4.024,2.219 -5.508,3.758 -1.496,1.527 -2.246,3.511 -2.246,5.972 0,2.746 0.898,5.039 2.723,6.91 1.757,1.879 4.093,3.321 6.933,4.399 2.793,1.039 5.91,1.765 9.27,2.168 3.359,0.39 6.699,0.601 10,0.601 6.074,0 11.738,-0.492 16.902,-1.441 5.156,-0.969 9.914,-2.148 14.231,-3.539 4.316,-1.359 8.171,-2.84 11.628,-4.371 2.649,-1.196 4.942,-2.289 6.934,-3.321 l 7.941,24.071 c -0.918,0.508 -1.847,1.031 -2.89,1.621 -3.293,1.871 -7.414,3.687 -12.344,5.461 -4.922,1.765 -10.625,3.379 -17.023,4.762 -6.465,1.343 -13.641,2.05 -21.649,2.05 -10.969,0 -20.097,-1.144 -27.375,-3.386 -7.273,-2.289 -13.113,-5.231 -17.5,-8.887 -4.394,-3.641 -7.508,-7.774 -9.394,-12.41 -1.883,-4.629 -2.832,-9.27 -2.832,-13.973 0,-4.894 0.898,-9.578 2.707,-14.117 1.797,-4.555 4.531,-8.543 8.242,-12.039 3.652,-3.481 8.301,-6.32 13.855,-8.5 5.559,-2.184 12.09,-3.36 19.621,-3.539 l 36.414,-1.223 c 1.875,0 3.868,-0.238 6.008,-0.723 2.098,-0.476 4.102,-1.214 5.985,-2.156 1.875,-0.98 3.398,-2.308 4.582,-3.914 1.191,-1.637 1.765,-3.726 1.765,-6.297 0,-3.597 -1.14,-6.461 -3.406,-8.691 -2.258,-2.156 -5.098,-3.906 -8.449,-5.199 -3.379,-1.282 -7,-2.188 -10.828,-2.676 -3.84,-0.477 -7.239,-0.723 -10.207,-0.723 -10.828,0 -21.317,1.43 -31.504,4.246 -8.914,2.492 -18.047,6.641 -27.344,12.453 l -8.25,-25.117 c 6.961,-4.484 14.961,-8.148 23.953,-11.031 12.18,-3.902 26.524,-5.863 43.145,-5.863 10.011,0 18.644,1.113 25.84,3.308 7.199,2.184 13.156,5.114 17.863,8.864 4.695,3.73 8.144,8.101 10.34,13.14 2.199,5.02 3.273,10.371 3.273,16.059 0,13.269 -4.101,23.101 -12.316,29.531" /></g></g></svg>