<?xml version="1.0" encoding="UTF-8"?>
<svg width="24px" height="21px" viewBox="0 0 24 21" version="1.1" xmlns="http://www.w3.org/2000/svg" xmlns:xlink="http://www.w3.org/1999/xlink">
    <title>BitPay - Partners</title>
    <g id="Symbols" stroke="none" stroke-width="1" fill="none" fill-rule="evenodd">
        <g id="Components/Navigation/Company" transform="translate(-35.000000, -177.000000)">
            <g id="privacy-policy" transform="translate(35.000000, 177.000000)">
                <circle  fill="#4F6EF7" cx="4.89130435" cy="2.7173913" r="2.7173913"></circle>
                <path d="M11.7744565,12.0184783 C10.4788043,11.561413 9.69130435,10.5836957 8.8576087,9.54782609 C7.7173913,8.12934783 6.4201087,6.52173913 3.80434783,6.52173913 C1.70438176,6.52443389 0.00269476266,8.22612089 0,10.326087 C0.471272786,12.5001398 0.923990885,14.7096407 1.3581543,16.9545898 C1.79231771,19.199539 3.69467207,20.432067 7.06521739,20.6521739 C7.36537215,20.6521739 7.60869565,20.4088504 7.60869565,20.1086957 L7.60869565,11.4548913 C8.48646206,12.6337757 9.68017443,13.5399419 11.0516304,14.0684783 C11.6149024,14.2582914 12.2261825,13.9604506 12.4238377,13.3998824 C12.621493,12.8393142 12.3322118,12.2239372 11.7744565,12.0184783 Z" id="Path" fill="#4F6EF7"></path>
                <circle id="Oval-Copy" fill="#DFE5FF" transform="translate(19.717391, 2.717391) scale(-1, 1) translate(-19.717391, -2.717391) " cx="19.7173913" cy="2.7173913" r="2.7173913"></circle>
                <path d="M22.8314419,10.7187391 C21.6395584,10.3263662 20.9151291,9.48703344 20.1482041,8.59777926 C19.0993065,7.38007023 17.9059231,6 15.4996581,6 C13.5678781,6.00231335 12.0024789,7.46314619 12,9.26588629 C12.4335286,11.132227 12.8499886,13.0289986 13.2493799,14.9562011 C13.6487712,16.8834035 15.3987663,17.9414815 18.4993651,18.1304348 C18.7754805,18.1304348 18.9993163,17.9215509 18.9993163,17.6638796 L18.9993163,10.2349214 C19.8067825,11.2469483 20.9048906,12.0248571 22.1665069,12.4785853 C22.6846665,12.6415326 23.2469892,12.3858477 23.4288143,11.9046214 C23.6106394,11.4233952 23.3445267,10.8951177 22.8314419,10.7187391 Z" id="Path-Copy" fill="#DFE5FF" transform="translate(17.742988, 12.065217) scale(-1, 1) translate(-17.742988, -12.065217) "></path>
            </g>
        </g>
    </g>
</svg>
