<?xml version="1.0" encoding="UTF-8"?>
<svg width="190px" height="133px" viewBox="0 0 190 133" version="1.1" xmlns="http://www.w3.org/2000/svg" xmlns:xlink="http://www.w3.org/1999/xlink">
    <title>Group 56</title>
    <defs>
        <path d="M5.33793103,0 L166.662069,0 C169.610127,3.46628968e-16 172,2.38987313 172,5.33793103 L172,109.662069 C172,112.610127 169.610127,115 166.662069,115 L5.33793103,115 C2.38987313,115 1.26571293e-14,112.610127 0,109.662069 L0,5.33793103 C5.27145452e-16,2.38987313 2.38987313,4.98244155e-15 5.33793103,0 Z" id="payouts--email-path-1"></path>
        <filter x="-7.8%" y="-11.7%" width="115.7%" height="123.5%" filterUnits="objectBoundingBox" id="filter-2">
            <feMorphology radius="1" operator="dilate" in="SourceAlpha" result="shadowSpreadOuter1"></feMorphology>
            <feOffset dx="0" dy="0" in="shadowSpreadOuter1" result="shadowOffsetOuter1"></feOffset>
            <feGaussianBlur stdDeviation="3.5" in="shadowOffsetOuter1" result="shadowBlurOuter1"></feGaussianBlur>
            <feColorMatrix values="0 0 0 0 0   0 0 0 0 0   0 0 0 0 0  0 0 0 0.05 0" type="matrix" in="shadowBlurOuter1"></feColorMatrix>
        </filter>
        <path d="M4.57851367,8 L4.57851367,7.36459961 L1.33978711,7.36459961 L1.33978711,5.55643164 L4.28441406,5.55643164 L4.28441406,4.93918555 L1.33978711,4.93918555 L1.33978711,3.31982227 L4.52405078,3.31982227 L4.52405078,2.66626758 L0.635400391,2.66626758 L0.635400391,8 L4.57851367,8 Z M6.19787695,8 L6.19751387,4.76802684 C6.19654564,4.64467444 6.19364095,4.47600892 6.1887998,4.26203027 C6.18274837,3.99455697 6.17972266,3.79546484 6.17972266,3.66475391 L6.17972266,3.66475391 L6.17972266,3.50136523 L7.71194531,8 L8.42722461,8 L9.94855469,3.50136523 C9.94855469,3.78941341 9.94613411,4.05930729 9.94129297,4.31104688 C9.93645182,4.56278646 9.93403125,4.74311914 9.93403125,4.85204492 L9.93403125,8 L10.6202637,8 L10.6202637,2.66626758 L9.59636133,2.66626758 L8.07503125,7.17579492 L6.54280859,2.66626758 L5.50801367,2.66626758 L5.50801367,8 L6.19787695,8 Z M12.0036211,8 L12.5809277,6.40242187 L14.690457,6.40242187 L15.2314551,8 L16.0229824,8 L14.0877344,2.66626758 L13.270791,2.66626758 L11.2629258,8 L12.0036211,8 Z M14.458082,5.81422266 L12.7878867,5.81422266 L13.6484004,3.45779492 L14.458082,5.81422266 Z M17.5733594,8 L17.5733594,2.66626758 L16.8435566,2.66626758 L16.8435566,8 L17.5733594,8 Z M22.1700273,8 L22.1700273,7.36459961 L19.468668,7.36459961 L19.468668,2.66626758 L18.746127,2.66626758 L18.746127,8 L22.1700273,8 Z" id="path-3"></path>
        <path d="M0.849621094,8 L1.42692773,6.40242187 L3.53645703,6.40242187 L4.07745508,8 L4.86898242,8 L2.93373437,2.66626758 L2.11679102,2.66626758 L0.108925781,8 L0.849621094,8 Z M3.30408203,5.81422266 L1.63388672,5.81422266 L2.49440039,3.45779492 L3.30408203,5.81422266 Z M6.19787695,8 L6.19751387,4.76802684 C6.19654564,4.64467444 6.19364095,4.47600892 6.1887998,4.26203027 C6.18274837,3.99455697 6.17972266,3.79546484 6.17972266,3.66475391 L6.17972266,3.66475391 L6.17972266,3.50136523 L7.71194531,8 L8.42722461,8 L9.94855469,3.50136523 C9.94855469,3.78941341 9.94613411,4.05930729 9.94129297,4.31104687 C9.93645182,4.56278646 9.93403125,4.74311914 9.93403125,4.85204492 L9.93403125,8 L10.6202637,8 L10.6202637,2.66626758 L9.59636133,2.66626758 L8.07503125,7.17579492 L6.54280859,2.66626758 L5.50801367,2.66626758 L5.50801367,8 L6.19787695,8 Z M14.0078555,8.15612695 C14.8865234,8.15612695 15.5630736,7.84629362 16.0375059,7.22662695 C16.4417415,6.69894206 16.6438594,6.03691536 16.6438594,5.24054687 C16.6438594,4.50469271 16.4671576,3.90075977 16.1137539,3.42874805 C15.6611068,2.82360482 14.9639818,2.5210332 14.0223789,2.5210332 C13.1219258,2.5210332 12.4417448,2.85023112 11.9818359,3.50862695 C11.6235911,4.02178841 11.4444687,4.63903451 11.4444687,5.36036523 C11.4444687,6.1591543 11.6538483,6.8199707 12.0726074,7.34281445 C12.5421986,7.88502279 13.1872812,8.15612695 14.0078555,8.15612695 Z M14.0949961,7.50983398 C13.4244974,7.50983398 12.9397777,7.307111 12.6408369,6.90166504 C12.3418962,6.49621908 12.1924258,5.9981862 12.1924258,5.40756641 C12.1924258,4.66929167 12.366707,4.11074447 12.7152695,3.7319248 C13.063832,3.35310514 13.5140586,3.16369531 14.0659492,3.16369531 C14.6347839,3.16369531 15.083195,3.35492057 15.4111826,3.73737109 C15.7391702,4.11982161 15.9031641,4.62451107 15.9031641,5.25143945 C15.9031641,5.84447982 15.7609554,6.369139 15.4765381,6.82541699 C15.1921208,7.28169499 14.7316068,7.50983398 14.0949961,7.50983398 Z M19.6538418,8.14160352 C20.5542949,8.14160352 21.1666999,7.81966732 21.4910566,7.17579492 C21.6677585,6.82239128 21.7561094,6.31770182 21.7561094,5.66172656 L21.7561094,5.66172656 L21.7561094,2.66626758 L21.0226758,2.66626758 L21.0226758,5.96308789 C21.0226758,6.34795898 20.9633717,6.65416146 20.8447637,6.88169531 C20.6244915,7.30045443 20.208153,7.50983398 19.595748,7.50983398 C19.0850072,7.50983398 18.7219212,7.31618815 18.5064902,6.92889648 C18.3612559,6.67231576 18.2886387,6.35037956 18.2886387,5.96308789 L18.2886387,5.96308789 L18.2886387,2.66626758 L17.5552051,2.66626758 L17.5552051,5.66172656 C17.5552051,6.31770182 17.643556,6.82239128 17.8202578,7.17579492 C18.142194,7.81966732 18.7533887,8.14160352 19.6538418,8.14160352 Z M23.5642773,8 L23.5642773,3.6829082 L26.2983145,8 L27.1079961,8 L27.1079961,2.66626758 L26.4217637,2.66626758 L26.4217637,6.98699023 L23.727666,2.66626758 L22.8744141,2.66626758 L22.8744141,8 L23.5642773,8 Z M30.3285684,8 L30.3285684,3.30166797 L32.1258438,3.30166797 L32.1258438,2.66626758 L27.7978594,2.66626758 L27.7978594,3.30166797 L29.5951348,3.30166797 L29.5951348,8 L30.3285684,8 Z" id="path-4"></path>
        <path d="M2.78324375,7 L2.78324375,0.6275625 L2.14868125,0.6275625 C2.03547292,1.12210417 1.86417083,1.43566146 1.634775,1.56823437 C1.40537917,1.70080729 1.0002125,1.79539583 0.419275,1.852 L0.419275,1.852 L0.419275,2.4686875 L1.92524375,2.4686875 L1.92524375,7 L2.78324375,7 Z M7.104525,7.17428125 C7.95656667,7.17428125 8.570275,6.76613542 8.94565,5.94984375 C9.2048375,5.38082292 9.33443125,4.66135417 9.33443125,3.7914375 C9.33443125,2.87385417 9.19143125,2.15140625 8.90543125,1.62409375 C8.53601458,0.941864583 7.93720208,0.60075 7.10899375,0.60075 C6.18843125,0.60075 5.55237917,1.08635417 5.2008375,2.0575625 C5.01315,2.57891667 4.91930625,3.20305208 4.91930625,3.92996875 C4.91930625,4.86840625 5.0757125,5.61617708 5.388525,6.17328125 C5.7639,6.84061458 6.3359,7.17428125 7.104525,7.17428125 Z M7.10005625,6.44140625 C6.58168125,6.44140625 6.21524375,6.13902083 6.00074375,5.53425 C5.86072292,5.13802083 5.7907125,4.6136875 5.7907125,3.96125 C5.7907125,3.0943125 5.90019688,2.43815104 6.11916563,1.99276562 C6.33813438,1.54738021 6.6844625,1.3246875 7.15815,1.3246875 C7.67354583,1.3246875 8.02061875,1.55929687 8.19936875,2.02851562 C8.37811875,2.49773437 8.46749375,3.09580208 8.46749375,3.82271875 C8.46749375,4.82967708 8.34385833,5.51786458 8.0965875,5.88728125 C7.84931667,6.25669792 7.51713958,6.44140625 7.10005625,6.44140625 Z M12.1944313,7.17428125 C13.0464729,7.17428125 13.6601813,6.76613542 14.0355563,5.94984375 C14.2947438,5.38082292 14.4243375,4.66135417 14.4243375,3.7914375 C14.4243375,2.87385417 14.2813375,2.15140625 13.9953375,1.62409375 C13.6259208,0.941864583 13.0271083,0.60075 12.1989,0.60075 C11.2783375,0.60075 10.6422854,1.08635417 10.2907438,2.0575625 C10.1030563,2.57891667 10.0092125,3.20305208 10.0092125,3.92996875 C10.0092125,4.86840625 10.1656188,5.61617708 10.4784313,6.17328125 C10.8538063,6.84061458 11.4258063,7.17428125 12.1944313,7.17428125 Z M12.1899625,6.44140625 C11.6715875,6.44140625 11.30515,6.13902083 11.09065,5.53425 C10.9506292,5.13802083 10.8806188,4.6136875 10.8806188,3.96125 C10.8806188,3.0943125 10.9901031,2.43815104 11.2090719,1.99276562 C11.4280406,1.54738021 11.7743688,1.3246875 12.2480563,1.3246875 C12.7634521,1.3246875 13.110525,1.55929687 13.289275,2.02851562 C13.468025,2.49773437 13.5574,3.09580208 13.5574,3.82271875 C13.5574,4.82967708 13.4337646,5.51786458 13.1864938,5.88728125 C12.9392229,6.25669792 12.6070458,6.44140625 12.1899625,6.44140625 Z M20.6984625,7.17428125 C21.8067125,7.17428125 22.5604417,6.77805208 22.95965,5.98559375 C23.1771292,5.55063542 23.2858688,4.92947917 23.2858688,4.122125 L23.2858688,4.122125 L23.2858688,0.43540625 L22.3831813,0.43540625 L22.3831813,4.49303125 C22.3831813,4.96671875 22.3101917,5.34358333 22.1642125,5.623625 C21.8931083,6.13902083 21.3806917,6.39671875 20.6269625,6.39671875 C19.9983583,6.39671875 19.5514833,6.15838542 19.2863375,5.68171875 C19.1075875,5.36592708 19.0182125,4.96969792 19.0182125,4.49303125 L19.0182125,4.49303125 L19.0182125,0.43540625 L18.115525,0.43540625 L18.115525,4.122125 C18.115525,4.92947917 18.2242646,5.55063542 18.4417438,5.98559375 C18.8379729,6.77805208 19.5902125,7.17428125 20.6984625,7.17428125 Z M27.0038688,7.19215625 C27.7039729,7.19215625 28.318426,7.03575 28.8472281,6.7229375 C29.3760302,6.410125 29.6404313,5.89026042 29.6404313,5.16334375 C29.6404313,4.57942708 29.4318896,4.13404167 29.0148063,3.8271875 C28.7734938,3.65141667 28.4308896,3.51288542 27.9869938,3.41159375 L27.9869938,3.41159375 L27.0664313,3.2015625 C26.4467646,3.0585625 26.0490458,2.93939583 25.873275,2.8440625 C25.60515,2.69510417 25.4710875,2.45975 25.4710875,2.138 C25.4710875,1.84604167 25.5857854,1.58983333 25.8151813,1.369375 C26.0445771,1.14891667 26.4214417,1.0386875 26.945775,1.0386875 C27.5952333,1.0386875 28.0555146,1.20998958 28.3266188,1.55259375 C28.4725979,1.74028125 28.5679313,2.00989583 28.6126188,2.3614375 L28.6126188,2.3614375 L29.448275,2.3614375 C29.448275,1.63154167 29.2077073,1.10050521 28.7265719,0.768328125 C28.2454365,0.436151042 27.660775,0.2700625 26.9725875,0.2700625 C26.2248167,0.2700625 25.6468583,0.459239583 25.2387125,0.83759375 C24.8305667,1.21594792 24.6264938,1.7000625 24.6264938,2.2899375 C24.6264938,2.835125 24.8350354,3.24476042 25.2521188,3.51884375 C25.4934313,3.67673958 25.9045563,3.82122917 26.4854938,3.9523125 L26.4854938,3.9523125 L27.374775,4.15340625 C27.8574,4.26363542 28.2119208,4.39322917 28.4383375,4.5421875 C28.661775,4.694125 28.7734938,4.94884375 28.7734938,5.30634375 C28.7734938,5.78301042 28.5083479,6.11369792 27.9780563,6.29840625 C27.7039729,6.39373958 27.4000979,6.44140625 27.0664313,6.44140625 C26.3216396,6.44140625 25.801775,6.22392708 25.5068375,5.78896875 C25.3519208,5.55659375 25.2640354,5.25420833 25.2431813,4.8818125 L25.2431813,4.8818125 L24.407525,4.8818125 C24.3985875,5.59085417 24.6250042,6.15242708 25.086775,6.56653125 C25.5485458,6.98361458 26.1875771,7.19215625 27.0038688,7.19215625 Z M33.4567438,7 C34.5828688,7 35.3768167,6.50247917 35.8385875,5.5074375 C36.1007542,4.944375 36.2318375,4.31428125 36.2318375,3.61715625 C36.2318375,2.71446875 36.0098896,1.97414583 35.5659938,1.3961875 C35.0684729,0.755666667 34.3683688,0.43540625 33.4656813,0.43540625 L33.4656813,0.43540625 L30.806775,0.43540625 L30.806775,7 L33.4567438,7 Z M33.2869313,6.2403125 L31.700525,6.2403125 L31.700525,1.1995625 L33.2779938,1.1995625 C33.9959729,1.1995625 34.5165823,1.42448958 34.8398219,1.87434375 C35.1630615,2.32419792 35.3246813,2.95578125 35.3246813,3.76909375 C35.3246813,3.98061458 35.3023375,4.21001042 35.25765,4.45728125 C35.1801917,4.87138542 35.0535771,5.21101042 34.8778063,5.47615625 C34.6573479,5.80684375 34.3743271,6.03028125 34.0287438,6.14646875 C33.8350979,6.20903125 33.5878271,6.2403125 33.2869313,6.2403125 L33.2869313,6.2403125 Z" id="path-5"></path>
    </defs>
    <g id="Page-1" stroke="none" stroke-width="1" fill="none" fill-rule="evenodd">
        <g id="Group-56" transform="translate(9.000000, 9.000000)">
            <g >
                <use fill="black" fill-opacity="1" filter="url(#filter-2)" xlink:href="#payouts--email-path-1"></use>
                <use fill="#FFFFFF" fill-rule="evenodd" xlink:href="#payouts--email-path-1"></use>
            </g>
            <polygon  fill-opacity="0" fill="#FFFFFF" fill-rule="nonzero" points="7.99360576e-14 0 172 0 172 115 -1.56319402e-13 115"></polygon>
            <rect id="Frame" stroke="#9BA3AE" stroke-width="0.55" fill="#FFFFFF" fill-rule="nonzero" opacity="0.597563244" x="7.2145" y="17.9425" width="157.443" height="31.031" rx="2.288"></rect>
            <g id="Label" opacity="0.750744048" transform="translate(7.572000, 4.000000)" fill-rule="nonzero">
                <g id="EMAIL">
                    <use fill="#000000" xlink:href="#path-3"></use>
                    <use fill="#434D5A" xlink:href="#path-3"></use>
                </g>
            </g>
            <path d="M17.3642578,36.0878906 C17.7304688,36.0878906 18.0527344,36.0285645 18.3310547,35.9099121 C18.609375,35.7912598 18.824707,35.6257324 18.9770508,35.4133301 C19.1293945,35.2009277 19.2055664,34.9570312 19.2055664,34.6816406 C19.2055664,34.4267578 19.1447754,34.2099609 19.0231934,34.03125 C18.9016113,33.8525391 18.7163086,33.7016602 18.4672852,33.5786133 C18.2182617,33.4555664 17.8945312,33.3486328 17.4960938,33.2578125 C17.2001953,33.1933594 16.973877,33.1274414 16.8171387,33.0600586 C16.6604004,32.9926758 16.552002,32.9172363 16.4919434,32.8337402 C16.4318848,32.7502441 16.4018555,32.6455078 16.4018555,32.5195312 C16.4018555,32.3964844 16.4348145,32.2814941 16.5007324,32.1745605 C16.5666504,32.067627 16.6699219,31.9812012 16.8105469,31.9152832 C16.9511719,31.8493652 17.128418,31.8164062 17.3422852,31.8164062 C17.5444336,31.8164062 17.7209473,31.8566895 17.8718262,31.9372559 C18.0227051,32.0178223 18.1376953,32.1210938 18.2167969,32.2470703 C18.2958984,32.3730469 18.3354492,32.503418 18.3354492,32.6381836 L18.3354492,32.6381836 L19.1572266,32.6381836 C19.1572266,32.362793 19.0847168,32.1130371 18.9396973,31.888916 C18.7946777,31.6647949 18.5844727,31.4868164 18.309082,31.3549805 C18.0336914,31.2231445 17.7114258,31.1572266 17.3422852,31.1572266 C16.996582,31.1572266 16.6896973,31.2202148 16.4216309,31.3461914 C16.1535645,31.472168 15.9462891,31.640625 15.7998047,31.8515625 C15.6533203,32.0625 15.5800781,32.2939453 15.5800781,32.5458984 C15.5800781,32.9179688 15.7243652,33.2094727 16.0129395,33.4204102 C16.3015137,33.6313477 16.7285156,33.7954102 17.2939453,33.9125977 C17.5927734,33.9741211 17.8212891,34.0458984 17.9794922,34.1279297 C18.1376953,34.2099609 18.2446289,34.2993164 18.300293,34.3959961 C18.355957,34.4926758 18.3837891,34.6069336 18.3837891,34.7387695 C18.3837891,34.8706055 18.3442383,34.9885254 18.2651367,35.0925293 C18.1860352,35.1965332 18.0695801,35.2785645 17.9157715,35.338623 C17.7619629,35.3986816 17.578125,35.4287109 17.3642578,35.4287109 C17.1796875,35.4287109 17.0046387,35.3994141 16.8391113,35.3408203 C16.673584,35.2822266 16.5351562,35.1862793 16.4238281,35.0529785 C16.3125,34.9196777 16.2509766,34.7475586 16.2392578,34.5366211 L16.2392578,34.5366211 L15.4174805,34.5366211 C15.4174805,34.8061523 15.4936523,35.0595703 15.6459961,35.296875 C15.7983398,35.5341797 16.0217285,35.7253418 16.3161621,35.8703613 C16.6105957,36.0153809 16.9599609,36.0878906 17.3642578,36.0878906 Z M21.7324219,36.0878906 C22.0078125,36.0878906 22.260498,36.0344238 22.4904785,35.9274902 C22.720459,35.8205566 22.9174805,35.6791992 23.081543,35.503418 C23.1079102,35.7202148 23.1459961,35.8857422 23.1958008,36 L23.1958008,36 L24.0527344,36 L24.0527344,35.9296875 C24,35.8066406 23.9589844,35.6564941 23.9296875,35.479248 C23.9003906,35.302002 23.8857422,35.1298828 23.8857422,34.9628906 L23.8857422,34.9628906 L23.8857422,32.7480469 C23.8857422,32.4023438 23.8110352,32.1101074 23.6616211,31.8713379 C23.512207,31.6325684 23.3049316,31.4538574 23.0397949,31.3352051 C22.7746582,31.2165527 22.4663086,31.1572266 22.1147461,31.1572266 C21.7456055,31.1572266 21.4174805,31.2253418 21.1303711,31.3615723 C20.8432617,31.4978027 20.6206055,31.6743164 20.4624023,31.8911133 C20.3041992,32.1079102 20.2250977,32.3320312 20.2250977,32.5634766 L20.2250977,32.5634766 L21.046875,32.5634766 C21.046875,32.4287109 21.0900879,32.3034668 21.1765137,32.1877441 C21.2629395,32.0720215 21.3837891,31.9797363 21.5390625,31.9108887 C21.6943359,31.842041 21.8701172,31.8076172 22.0664062,31.8076172 C22.3886719,31.8076172 22.635498,31.8903809 22.8068848,32.0559082 C22.9782715,32.2214355 23.0639648,32.4492188 23.0639648,32.7392578 L23.0639648,32.7392578 L23.0639648,33.1171875 L22.2641602,33.1171875 C21.8276367,33.1171875 21.4489746,33.1765137 21.1281738,33.295166 C20.807373,33.4138184 20.5598145,33.590332 20.385498,33.824707 C20.2111816,34.059082 20.1240234,34.3447266 20.1240234,34.6816406 C20.1240234,34.9423828 20.1906738,35.1796875 20.3239746,35.3935547 C20.4572754,35.6074219 20.6462402,35.7766113 20.8908691,35.901123 C21.135498,36.0256348 21.4160156,36.0878906 21.7324219,36.0878906 Z M21.8510742,35.3847656 C21.6577148,35.3847656 21.4936523,35.348877 21.3588867,35.2770996 C21.2241211,35.2053223 21.121582,35.1079102 21.0512695,34.9848633 C20.980957,34.8618164 20.9458008,34.7226562 20.9458008,34.5673828 C20.9458008,34.2773438 21.0703125,34.0583496 21.3193359,33.9104004 C21.5683594,33.7624512 21.9272461,33.6884766 22.3959961,33.6884766 L22.3959961,33.6884766 L23.0639648,33.6884766 L23.0639648,34.6728516 C23.0024414,34.7988281 22.9130859,34.9160156 22.7958984,35.0244141 C22.6787109,35.1328125 22.5388184,35.2199707 22.3762207,35.2858887 C22.213623,35.3518066 22.0385742,35.3847656 21.8510742,35.3847656 Z M26.5488281,36.0878906 C26.7802734,36.0878906 26.9897461,36.0585938 27.1772461,36 L27.1772461,36 L27.1728516,35.3452148 C27.1289062,35.3569336 27.0703125,35.3679199 26.9970703,35.3781738 C26.9238281,35.3884277 26.8564453,35.3935547 26.7949219,35.3935547 C26.6337891,35.3935547 26.5063477,35.3547363 26.4125977,35.2770996 C26.3188477,35.1994629 26.2719727,35.0478516 26.2719727,34.8222656 L26.2719727,34.8222656 L26.2719727,31.8647461 L27.159668,31.8647461 L27.159668,31.2451172 L26.2719727,31.2451172 L26.2719727,30.0893555 L25.4501953,30.0893555 L25.4501953,31.2451172 L24.5844727,31.2451172 L24.5844727,31.8647461 L25.4501953,31.8647461 L25.4501953,34.8178711 C25.4501953,35.2661133 25.5505371,35.5898438 25.7512207,35.7890625 C25.9519043,35.9882812 26.2177734,36.0878906 26.5488281,36.0878906 Z M29.9326172,36.0878906 C30.3691406,36.0878906 30.7507324,35.9831543 31.0773926,35.7736816 C31.4040527,35.564209 31.6552734,35.2770996 31.8310547,34.9123535 C32.0068359,34.5476074 32.0947266,34.1352539 32.0947266,33.675293 L32.0947266,33.675293 L32.0947266,33.5742188 C32.0947266,33.1142578 32.0068359,32.7011719 31.8310547,32.3349609 C31.6552734,31.96875 31.4033203,31.6809082 31.0751953,31.4714355 C30.7470703,31.2619629 30.3632812,31.1572266 29.9238281,31.1572266 C29.4902344,31.1572266 29.1101074,31.2619629 28.7834473,31.4714355 C28.4567871,31.6809082 28.2055664,31.96875 28.0297852,32.3349609 C27.8540039,32.7011719 27.7661133,33.1142578 27.7661133,33.5742188 L27.7661133,33.5742188 L27.7661133,33.675293 C27.7661133,34.1352539 27.8547363,34.5476074 28.0319824,34.9123535 C28.2092285,35.2770996 28.4611816,35.564209 28.7878418,35.7736816 C29.114502,35.9831543 29.4960938,36.0878906 29.9326172,36.0878906 Z M29.9326172,35.4287109 C29.6425781,35.4287109 29.3964844,35.3503418 29.1943359,35.1936035 C28.9921875,35.0368652 28.8405762,34.8251953 28.739502,34.5585938 C28.6384277,34.2919922 28.5878906,33.9975586 28.5878906,33.675293 L28.5878906,33.675293 L28.5878906,33.5742188 C28.5878906,33.2519531 28.6384277,32.9575195 28.739502,32.690918 C28.8405762,32.4243164 28.9914551,32.2119141 29.1921387,32.0537109 C29.3928223,31.8955078 29.6367188,31.8164062 29.9238281,31.8164062 C30.2138672,31.8164062 30.4599609,31.8955078 30.6621094,32.0537109 C30.8642578,32.2119141 31.0166016,32.4243164 31.1191406,32.690918 C31.2216797,32.9575195 31.2729492,33.2519531 31.2729492,33.5742188 L31.2729492,33.5742188 L31.2729492,33.675293 C31.2729492,33.9975586 31.2224121,34.2919922 31.1213379,34.5585938 C31.0202637,34.8251953 30.8686523,35.0368652 30.6665039,35.1936035 C30.4643555,35.3503418 30.2197266,35.4287109 29.9326172,35.4287109 Z M34.8632812,36.0878906 C35.2294922,36.0878906 35.5517578,36.0285645 35.8300781,35.9099121 C36.1083984,35.7912598 36.3237305,35.6257324 36.4760742,35.4133301 C36.628418,35.2009277 36.7045898,34.9570312 36.7045898,34.6816406 C36.7045898,34.4267578 36.6437988,34.2099609 36.5222168,34.03125 C36.4006348,33.8525391 36.215332,33.7016602 35.9663086,33.5786133 C35.7172852,33.4555664 35.3935547,33.3486328 34.9951172,33.2578125 C34.6992188,33.1933594 34.4729004,33.1274414 34.3161621,33.0600586 C34.1594238,32.9926758 34.0510254,32.9172363 33.9909668,32.8337402 C33.9309082,32.7502441 33.9008789,32.6455078 33.9008789,32.5195312 C33.9008789,32.3964844 33.9338379,32.2814941 33.9997559,32.1745605 C34.0656738,32.067627 34.1689453,31.9812012 34.3095703,31.9152832 C34.4501953,31.8493652 34.6274414,31.8164062 34.8413086,31.8164062 C35.043457,31.8164062 35.2199707,31.8566895 35.3708496,31.9372559 C35.5217285,32.0178223 35.6367188,32.1210938 35.7158203,32.2470703 C35.7949219,32.3730469 35.8344727,32.503418 35.8344727,32.6381836 L35.8344727,32.6381836 L36.65625,32.6381836 C36.65625,32.362793 36.5837402,32.1130371 36.4387207,31.888916 C36.2937012,31.6647949 36.0834961,31.4868164 35.8081055,31.3549805 C35.5327148,31.2231445 35.2104492,31.1572266 34.8413086,31.1572266 C34.4956055,31.1572266 34.1887207,31.2202148 33.9206543,31.3461914 C33.6525879,31.472168 33.4453125,31.640625 33.2988281,31.8515625 C33.1523438,32.0625 33.0791016,32.2939453 33.0791016,32.5458984 C33.0791016,32.9179688 33.2233887,33.2094727 33.5119629,33.4204102 C33.8005371,33.6313477 34.2275391,33.7954102 34.7929688,33.9125977 C35.0917969,33.9741211 35.3203125,34.0458984 35.4785156,34.1279297 C35.6367188,34.2099609 35.7436523,34.2993164 35.7993164,34.3959961 C35.8549805,34.4926758 35.8828125,34.6069336 35.8828125,34.7387695 C35.8828125,34.8706055 35.8432617,34.9885254 35.7641602,35.0925293 C35.6850586,35.1965332 35.5686035,35.2785645 35.4147949,35.338623 C35.2609863,35.3986816 35.0771484,35.4287109 34.8632812,35.4287109 C34.6787109,35.4287109 34.5036621,35.3994141 34.3381348,35.3408203 C34.1726074,35.2822266 34.0341797,35.1862793 33.9228516,35.0529785 C33.8115234,34.9196777 33.75,34.7475586 33.7382812,34.5366211 L33.7382812,34.5366211 L32.9165039,34.5366211 C32.9165039,34.8061523 32.9926758,35.0595703 33.1450195,35.296875 C33.2973633,35.5341797 33.520752,35.7253418 33.8151855,35.8703613 C34.1096191,36.0153809 34.4589844,36.0878906 34.8632812,36.0878906 Z M38.5810547,36 L38.5810547,32.5986328 C38.6982422,32.3671875 38.8571777,32.1826172 39.0578613,32.0449219 C39.2585449,31.9072266 39.4848633,31.8383789 39.7368164,31.8383789 C40.0532227,31.8383789 40.2897949,31.9204102 40.4465332,32.0844727 C40.6032715,32.2485352 40.6816406,32.512207 40.6816406,32.8754883 L40.6816406,32.8754883 L40.6816406,36 L41.503418,36 L41.503418,32.8842773 C41.503418,31.7329102 40.9951172,31.1572266 39.9785156,31.1572266 C39.6943359,31.1572266 39.4335938,31.213623 39.1962891,31.326416 C38.9589844,31.439209 38.7539062,31.5996094 38.5810547,31.8076172 L38.5810547,31.8076172 L38.5810547,29.25 L37.7592773,29.25 L37.7592773,36 L38.5810547,36 Z M43.2041016,30.4365234 C43.3564453,30.4365234 43.4758301,30.3933105 43.5622559,30.3068848 C43.6486816,30.220459 43.6918945,30.1113281 43.6918945,29.9794922 C43.6918945,29.8447266 43.6486816,29.7333984 43.5622559,29.6455078 C43.4758301,29.5576172 43.3564453,29.5136719 43.2041016,29.5136719 C43.0517578,29.5136719 42.9338379,29.5576172 42.8503418,29.6455078 C42.7668457,29.7333984 42.7250977,29.8447266 42.7250977,29.9794922 C42.7250977,30.1113281 42.7668457,30.220459 42.8503418,30.3068848 C42.9338379,30.3933105 43.0517578,30.4365234 43.2041016,30.4365234 Z M43.6083984,36 L43.6083984,31.2451172 L42.7866211,31.2451172 L42.7866211,36 L43.6083984,36 Z M48.2094727,37.9907227 C48.5024414,37.9907227 48.8005371,37.9570312 49.1037598,37.8896484 C49.4069824,37.8222656 49.6552734,37.7255859 49.8486328,37.5996094 L49.8486328,37.5996094 L49.6816406,37.1030273 C49.5,37.2084961 49.2773438,37.2919922 49.0136719,37.3535156 C48.75,37.4150391 48.487793,37.4458008 48.2270508,37.4458008 C47.6381836,37.4458008 47.1342773,37.3154297 46.715332,37.0546875 C46.2963867,36.7939453 45.9770508,36.4196777 45.7573242,35.9318848 C45.5375977,35.4440918 45.4277344,34.8632812 45.4277344,34.1894531 C45.4277344,34.1308594 45.4306641,34.0341797 45.4365234,33.8994141 C45.4658203,33.1845703 45.609375,32.5546875 45.8671875,32.0097656 C46.125,31.4648438 46.4816895,31.0415039 46.9372559,30.7397461 C47.3928223,30.4379883 47.9223633,30.2871094 48.5258789,30.2871094 C49.472168,30.2871094 50.1796875,30.5610352 50.6484375,31.1088867 C51.1171875,31.6567383 51.3515625,32.4404297 51.3515625,33.4599609 C51.3515625,33.5273438 51.3486328,33.637207 51.3427734,33.7895508 C51.328125,34.1264648 51.2753906,34.4296875 51.1845703,34.6992188 C51.09375,34.96875 50.9655762,35.1811523 50.8000488,35.3364258 C50.6345215,35.4916992 50.4375,35.5693359 50.2089844,35.5693359 C50.0478516,35.5693359 49.9130859,35.512207 49.8046875,35.3979492 C49.6962891,35.2836914 49.6420898,35.0771484 49.6420898,34.7783203 C49.6420898,34.6816406 49.6450195,34.6069336 49.6508789,34.5541992 L49.6508789,34.5541992 L49.875,32.1196289 C49.7373047,32.0141602 49.6149902,31.9299316 49.5080566,31.8669434 C49.401123,31.8039551 49.2736816,31.7519531 49.1257324,31.7109375 C48.9777832,31.6699219 48.8041992,31.6494141 48.6049805,31.6494141 C48.3032227,31.6494141 48.0153809,31.7526855 47.7414551,31.9592285 C47.4675293,32.1657715 47.2375488,32.4602051 47.0515137,32.8425293 C46.8654785,33.2248535 46.7504883,33.6650391 46.706543,34.1630859 C46.6948242,34.3212891 46.6889648,34.434082 46.6889648,34.5014648 C46.6889648,34.9936523 46.7929688,35.3818359 47.0009766,35.6660156 C47.2089844,35.9501953 47.5048828,36.0922852 47.8886719,36.0922852 C48.1083984,36.0922852 48.3208008,36.0285645 48.5258789,35.901123 C48.730957,35.7736816 48.909668,35.5898438 49.0620117,35.3496094 C49.1352539,35.5869141 49.2619629,35.7700195 49.4421387,35.8989258 C49.6223145,36.027832 49.847168,36.0922852 50.1166992,36.0922852 C50.5180664,36.0922852 50.8505859,35.980957 51.1142578,35.7583008 C51.3779297,35.5356445 51.5734863,35.25 51.7009277,34.9013672 C51.8283691,34.5527344 51.8994141,34.1821289 51.9140625,33.7895508 C51.9169922,33.7250977 51.918457,33.6298828 51.918457,33.5039062 C51.918457,32.7275391 51.7873535,32.0544434 51.5251465,31.4846191 C51.2629395,30.9147949 50.878418,30.4768066 50.371582,30.1706543 C49.8647461,29.864502 49.2553711,29.7114258 48.543457,29.7114258 C47.8227539,29.7114258 47.1855469,29.8916016 46.6318359,30.2519531 C46.078125,30.6123047 45.642334,31.1096191 45.3244629,31.7438965 C45.0065918,32.3781738 44.8300781,33.0966797 44.7949219,33.8994141 C44.7919922,33.9609375 44.7905273,34.0517578 44.7905273,34.171875 C44.7905273,34.9570312 44.9267578,35.6359863 45.1992188,36.2087402 C45.4716797,36.7814941 45.8642578,37.2216797 46.3769531,37.5292969 C46.8896484,37.8369141 47.5004883,37.9907227 48.2094727,37.9907227 Z M48.0908203,35.4638672 C47.8652344,35.4638672 47.6931152,35.376709 47.5744629,35.2023926 C47.4558105,35.0280762 47.3964844,34.7783203 47.3964844,34.453125 C47.3964844,34.359375 47.4008789,34.2626953 47.409668,34.1630859 C47.4477539,33.7441406 47.5253906,33.3881836 47.6425781,33.0952148 C47.7597656,32.8022461 47.9077148,32.5817871 48.0864258,32.4338379 C48.2651367,32.2858887 48.4614258,32.2119141 48.675293,32.2119141 C48.862793,32.2119141 49.0385742,32.2543945 49.2026367,32.3393555 L49.2026367,32.3393555 L49.0004883,34.5541992 L48.9960938,34.5893555 C48.8876953,34.8823242 48.7514648,35.1013184 48.5874023,35.2463379 C48.4233398,35.3913574 48.2578125,35.4638672 48.0908203,35.4638672 Z M55.1660156,36.0878906 C55.5498047,36.0878906 55.8808594,35.9846191 56.1591797,35.7780762 C56.4375,35.5715332 56.6491699,35.2858887 56.7941895,34.9211426 C56.939209,34.5563965 57.0117188,34.1411133 57.0117188,33.675293 L57.0117188,33.675293 L57.0117188,33.5830078 C57.0117188,33.0966797 56.939209,32.6711426 56.7941895,32.3063965 C56.6491699,31.9416504 56.4375,31.6589355 56.1591797,31.458252 C55.8808594,31.2575684 55.546875,31.1572266 55.1572266,31.1572266 C54.5800781,31.1572266 54.1289062,31.3564453 53.8037109,31.7548828 L53.8037109,31.7548828 L53.8037109,29.25 L52.9819336,29.25 L52.9819336,36 L53.7333984,36 L53.7729492,35.4594727 C54.1010742,35.878418 54.5654297,36.0878906 55.1660156,36.0878906 Z M54.9594727,35.4023438 C54.684082,35.4023438 54.4504395,35.3349609 54.2585449,35.2001953 C54.0666504,35.0654297 53.9150391,34.8852539 53.8037109,34.659668 L53.8037109,34.659668 L53.8037109,32.5810547 C53.9121094,32.3525391 54.060791,32.1716309 54.2497559,32.0383301 C54.4387207,31.9050293 54.6723633,31.8383789 54.9506836,31.8383789 C55.3813477,31.8383789 55.6955566,31.9987793 55.8933105,32.3195801 C56.0910645,32.6403809 56.1899414,33.0615234 56.1899414,33.5830078 L56.1899414,33.5830078 L56.1899414,33.675293 C56.1899414,34.1850586 56.0881348,34.6003418 55.8845215,34.9211426 C55.6809082,35.2419434 55.3725586,35.4023438 54.9594727,35.4023438 Z M58.5234375,30.4365234 C58.6757812,30.4365234 58.795166,30.3933105 58.8815918,30.3068848 C58.9680176,30.220459 59.0112305,30.1113281 59.0112305,29.9794922 C59.0112305,29.8447266 58.9680176,29.7333984 58.8815918,29.6455078 C58.795166,29.5576172 58.6757812,29.5136719 58.5234375,29.5136719 C58.3710938,29.5136719 58.2531738,29.5576172 58.1696777,29.6455078 C58.0861816,29.7333984 58.0444336,29.8447266 58.0444336,29.9794922 C58.0444336,30.1113281 58.0861816,30.220459 58.1696777,30.3068848 C58.2531738,30.3933105 58.3710938,30.4365234 58.5234375,30.4365234 Z M58.9277344,36 L58.9277344,31.2451172 L58.105957,31.2451172 L58.105957,36 L58.9277344,36 Z M61.612793,36.0878906 C61.8442383,36.0878906 62.0537109,36.0585938 62.2412109,36 L62.2412109,36 L62.2368164,35.3452148 C62.1928711,35.3569336 62.1342773,35.3679199 62.0610352,35.3781738 C61.987793,35.3884277 61.9204102,35.3935547 61.8588867,35.3935547 C61.6977539,35.3935547 61.5703125,35.3547363 61.4765625,35.2770996 C61.3828125,35.1994629 61.3359375,35.0478516 61.3359375,34.8222656 L61.3359375,34.8222656 L61.3359375,31.8647461 L62.2236328,31.8647461 L62.2236328,31.2451172 L61.3359375,31.2451172 L61.3359375,30.0893555 L60.5141602,30.0893555 L60.5141602,31.2451172 L59.6484375,31.2451172 L59.6484375,31.8647461 L60.5141602,31.8647461 L60.5141602,34.8178711 C60.5141602,35.2661133 60.614502,35.5898438 60.8151855,35.7890625 C61.0158691,35.9882812 61.2817383,36.0878906 61.612793,36.0878906 Z M63.9902344,37.828125 L63.9902344,35.5429688 C64.3212891,35.90625 64.7739258,36.0878906 65.3481445,36.0878906 C65.7319336,36.0878906 66.0622559,35.9846191 66.3391113,35.7780762 C66.6159668,35.5715332 66.8269043,35.2858887 66.9719238,34.9211426 C67.1169434,34.5563965 67.1894531,34.1411133 67.1894531,33.675293 L67.1894531,33.675293 L67.1894531,33.5830078 C67.1894531,33.0966797 67.1176758,32.6711426 66.9741211,32.3063965 C66.8305664,31.9416504 66.6196289,31.6589355 66.3413086,31.458252 C66.0629883,31.2575684 65.7275391,31.1572266 65.3349609,31.1572266 C64.7490234,31.1572266 64.2905273,31.359375 63.9594727,31.7636719 L63.9594727,31.7636719 L63.9155273,31.2451172 L63.168457,31.2451172 L63.168457,37.828125 L63.9902344,37.828125 Z M65.0976562,35.4287109 C64.6025391,35.4287109 64.2333984,35.2133789 63.9902344,34.7827148 L63.9902344,34.7827148 L63.9902344,32.4931641 C64.1015625,32.2910156 64.2480469,32.1313477 64.4296875,32.0141602 C64.6113281,31.8969727 64.8310547,31.8383789 65.0888672,31.8383789 C65.3730469,31.8383789 65.611084,31.9160156 65.8029785,32.0712891 C65.994873,32.2265625 66.1369629,32.4353027 66.229248,32.6975098 C66.3215332,32.9597168 66.3676758,33.2548828 66.3676758,33.5830078 L66.3676758,33.5830078 L66.3676758,33.675293 C66.3676758,34.003418 66.3215332,34.2993164 66.229248,34.5629883 C66.1369629,34.8266602 65.9956055,35.0368652 65.8051758,35.1936035 C65.6147461,35.3503418 65.3789062,35.4287109 65.0976562,35.4287109 Z M69.6943359,36.0878906 C69.9697266,36.0878906 70.2224121,36.0344238 70.4523926,35.9274902 C70.682373,35.8205566 70.8793945,35.6791992 71.043457,35.503418 C71.0698242,35.7202148 71.1079102,35.8857422 71.1577148,36 L71.1577148,36 L72.0146484,36 L72.0146484,35.9296875 C71.9619141,35.8066406 71.9208984,35.6564941 71.8916016,35.479248 C71.8623047,35.302002 71.8476562,35.1298828 71.8476562,34.9628906 L71.8476562,34.9628906 L71.8476562,32.7480469 C71.8476562,32.4023438 71.7729492,32.1101074 71.6235352,31.8713379 C71.4741211,31.6325684 71.2668457,31.4538574 71.001709,31.3352051 C70.7365723,31.2165527 70.4282227,31.1572266 70.0766602,31.1572266 C69.7075195,31.1572266 69.3793945,31.2253418 69.0922852,31.3615723 C68.8051758,31.4978027 68.5825195,31.6743164 68.4243164,31.8911133 C68.2661133,32.1079102 68.1870117,32.3320312 68.1870117,32.5634766 L68.1870117,32.5634766 L69.0087891,32.5634766 C69.0087891,32.4287109 69.052002,32.3034668 69.1384277,32.1877441 C69.2248535,32.0720215 69.3457031,31.9797363 69.5009766,31.9108887 C69.65625,31.842041 69.8320312,31.8076172 70.0283203,31.8076172 C70.3505859,31.8076172 70.5974121,31.8903809 70.7687988,32.0559082 C70.9401855,32.2214355 71.0258789,32.4492188 71.0258789,32.7392578 L71.0258789,32.7392578 L71.0258789,33.1171875 L70.2260742,33.1171875 C69.7895508,33.1171875 69.4108887,33.1765137 69.0900879,33.295166 C68.7692871,33.4138184 68.5217285,33.590332 68.3474121,33.824707 C68.1730957,34.059082 68.0859375,34.3447266 68.0859375,34.6816406 C68.0859375,34.9423828 68.1525879,35.1796875 68.2858887,35.3935547 C68.4191895,35.6074219 68.6081543,35.7766113 68.8527832,35.901123 C69.0974121,36.0256348 69.3779297,36.0878906 69.6943359,36.0878906 Z M69.8129883,35.3847656 C69.6196289,35.3847656 69.4555664,35.348877 69.3208008,35.2770996 C69.1860352,35.2053223 69.0834961,35.1079102 69.0131836,34.9848633 C68.9428711,34.8618164 68.9077148,34.7226562 68.9077148,34.5673828 C68.9077148,34.2773438 69.0322266,34.0583496 69.28125,33.9104004 C69.5302734,33.7624512 69.8891602,33.6884766 70.3579102,33.6884766 L70.3579102,33.6884766 L71.0258789,33.6884766 L71.0258789,34.6728516 C70.9643555,34.7988281 70.875,34.9160156 70.7578125,35.0244141 C70.640625,35.1328125 70.5007324,35.2199707 70.3381348,35.2858887 C70.1755371,35.3518066 70.0004883,35.3847656 69.8129883,35.3847656 Z M73.3374023,37.9204102 C73.7182617,37.9204102 74.0192871,37.8024902 74.2404785,37.5666504 C74.4616699,37.3308105 74.6308594,37.0532227 74.7480469,36.7338867 L74.7480469,36.7338867 L76.6552734,31.2451172 L75.7807617,31.2451172 L74.6777344,34.8046875 L73.5,31.2451172 L72.6035156,31.2451172 L74.2998047,35.9472656 L74.1196289,36.4350586 C74.0229492,36.7250977 73.8977051,36.9279785 73.7438965,37.0437012 C73.5900879,37.1594238 73.3740234,37.2172852 73.0957031,37.2172852 C73.0634766,37.2172852 73.0268555,37.2150879 72.9858398,37.2106934 C72.9448242,37.2062988 72.9082031,37.2011719 72.8759766,37.1953125 L72.8759766,37.1953125 L72.8759766,37.8500977 C72.9257812,37.8647461 72.9997559,37.880127 73.0979004,37.8962402 C73.1960449,37.9123535 73.2758789,37.9204102 73.3374023,37.9204102 Z M77.9033203,36.0483398 C78.0644531,36.0483398 78.1896973,36.0043945 78.2790527,35.9165039 C78.3684082,35.8286133 78.4130859,35.7143555 78.4130859,35.5737305 C78.4130859,35.4301758 78.3684082,35.3122559 78.2790527,35.2199707 C78.1896973,35.1276855 78.0644531,35.081543 77.9033203,35.081543 C77.7451172,35.081543 77.6213379,35.1276855 77.5319824,35.2199707 C77.442627,35.3122559 77.3979492,35.4301758 77.3979492,35.5737305 C77.3979492,35.7114258 77.442627,35.8249512 77.5319824,35.9143066 C77.6213379,36.0036621 77.7451172,36.0483398 77.9033203,36.0483398 Z M81.6650391,36.0878906 C81.9931641,36.0878906 82.3000488,36.0146484 82.5856934,35.8681641 C82.8713379,35.7216797 83.1020508,35.526123 83.277832,35.2814941 C83.4536133,35.0368652 83.5488281,34.7753906 83.5634766,34.4970703 L83.5634766,34.4970703 L82.7856445,34.4970703 C82.7709961,34.6728516 82.7109375,34.8317871 82.6054688,34.973877 C82.5,35.1159668 82.364502,35.2272949 82.1989746,35.3078613 C82.0334473,35.3884277 81.8554688,35.4287109 81.6650391,35.4287109 C81.2021484,35.4287109 80.8703613,35.2646484 80.6696777,34.9365234 C80.4689941,34.6083984 80.3686523,34.2011719 80.3686523,33.7148438 L80.3686523,33.7148438 L80.3686523,33.5302734 C80.3686523,33.2255859 80.409668,32.9450684 80.4916992,32.6887207 C80.5737305,32.432373 80.7114258,32.2229004 80.9047852,32.0603027 C81.0981445,31.8977051 81.3515625,31.8164062 81.6650391,31.8164062 C81.8759766,31.8164062 82.0634766,31.8632812 82.2275391,31.9570312 C82.3916016,32.0507812 82.5219727,32.1789551 82.6186523,32.3415527 C82.715332,32.5041504 82.7709961,32.6835938 82.7856445,32.8798828 L82.7856445,32.8798828 L83.5634766,32.8798828 C83.5488281,32.5546875 83.4609375,32.2609863 83.2998047,31.9987793 C83.1386719,31.7365723 82.916748,31.5307617 82.6340332,31.3813477 C82.3513184,31.2319336 82.0283203,31.1572266 81.6650391,31.1572266 C81.2050781,31.1572266 80.8161621,31.2634277 80.498291,31.4758301 C80.1804199,31.6882324 79.9423828,31.973877 79.7841797,32.3327637 C79.6259766,32.6916504 79.546875,33.0908203 79.546875,33.5302734 L79.546875,33.5302734 L79.546875,33.7148438 C79.546875,34.1542969 79.6259766,34.5534668 79.7841797,34.9123535 C79.9423828,35.2712402 80.1804199,35.5568848 80.498291,35.7692871 C80.8161621,35.9816895 81.2050781,36.0878906 81.6650391,36.0878906 Z M86.4287109,36.0878906 C86.8652344,36.0878906 87.2468262,35.9831543 87.5734863,35.7736816 C87.9001465,35.564209 88.1513672,35.2770996 88.3271484,34.9123535 C88.5029297,34.5476074 88.5908203,34.1352539 88.5908203,33.675293 L88.5908203,33.675293 L88.5908203,33.5742188 C88.5908203,33.1142578 88.5029297,32.7011719 88.3271484,32.3349609 C88.1513672,31.96875 87.8994141,31.6809082 87.5712891,31.4714355 C87.2431641,31.2619629 86.859375,31.1572266 86.4199219,31.1572266 C85.9863281,31.1572266 85.6062012,31.2619629 85.279541,31.4714355 C84.9528809,31.6809082 84.7016602,31.96875 84.5258789,32.3349609 C84.3500977,32.7011719 84.262207,33.1142578 84.262207,33.5742188 L84.262207,33.5742188 L84.262207,33.675293 C84.262207,34.1352539 84.3508301,34.5476074 84.5280762,34.9123535 C84.7053223,35.2770996 84.9572754,35.564209 85.2839355,35.7736816 C85.6105957,35.9831543 85.9921875,36.0878906 86.4287109,36.0878906 Z M86.4287109,35.4287109 C86.1386719,35.4287109 85.8925781,35.3503418 85.6904297,35.1936035 C85.4882812,35.0368652 85.3366699,34.8251953 85.2355957,34.5585938 C85.1345215,34.2919922 85.0839844,33.9975586 85.0839844,33.675293 L85.0839844,33.675293 L85.0839844,33.5742188 C85.0839844,33.2519531 85.1345215,32.9575195 85.2355957,32.690918 C85.3366699,32.4243164 85.4875488,32.2119141 85.6882324,32.0537109 C85.888916,31.8955078 86.1328125,31.8164062 86.4199219,31.8164062 C86.7099609,31.8164062 86.9560547,31.8955078 87.1582031,32.0537109 C87.3603516,32.2119141 87.5126953,32.4243164 87.6152344,32.690918 C87.7177734,32.9575195 87.769043,33.2519531 87.769043,33.5742188 L87.769043,33.5742188 L87.769043,33.675293 C87.769043,33.9975586 87.7185059,34.2919922 87.6174316,34.5585938 C87.5163574,34.8251953 87.3647461,35.0368652 87.1625977,35.1936035 C86.9604492,35.3503418 86.7158203,35.4287109 86.4287109,35.4287109 Z M90.4277344,36 L90.4277344,32.5107422 C90.5214844,32.2998047 90.6577148,32.1350098 90.8364258,32.0163574 C91.0151367,31.8977051 91.2407227,31.8383789 91.5131836,31.8383789 C92.1899414,31.8383789 92.5283203,32.1826172 92.5283203,32.8710938 L92.5283203,32.8710938 L92.5283203,36 L93.3500977,36 L93.3500977,32.8491211 C93.3706055,32.6586914 93.4255371,32.4873047 93.5148926,32.3349609 C93.604248,32.1826172 93.7280273,32.0617676 93.8862305,31.9724121 C94.0444336,31.8830566 94.2290039,31.8383789 94.4399414,31.8383789 C94.7709961,31.8383789 95.0222168,31.9152832 95.1936035,32.0690918 C95.3649902,32.2229004 95.4506836,32.4887695 95.4506836,32.8666992 L95.4506836,32.8666992 L95.4506836,36 L96.2724609,36 L96.2724609,32.8754883 C96.2724609,32.2866211 96.1376953,31.8530273 95.8681641,31.574707 C95.5986328,31.2963867 95.203125,31.1572266 94.6816406,31.1572266 C94.3505859,31.1572266 94.0568848,31.2246094 93.8005371,31.359375 C93.5441895,31.4941406 93.3339844,31.6787109 93.1699219,31.9130859 C93.0498047,31.6582031 92.8718262,31.4685059 92.6359863,31.3439941 C92.4001465,31.2194824 92.1254883,31.1572266 91.8120117,31.1572266 C91.5102539,31.1572266 91.2421875,31.2092285 91.0078125,31.3132324 C90.7734375,31.4172363 90.5742188,31.565918 90.4101562,31.7592773 L90.4101562,31.7592773 L90.3837891,31.2451172 L89.605957,31.2451172 L89.605957,36 L90.4277344,36 Z" id="satoshi@bitpay.com" fill="#000000" fill-rule="nonzero"></path>
            <rect id="Frame" stroke="#9BA3AE" stroke-width="0.55" fill="#FFFFFF" fill-rule="nonzero" opacity="0.597563244" x="7.2145" y="73.9425" width="157.443" height="31.031" rx="2.288"></rect>
            <g id="Label" opacity="0.750744048" transform="translate(7.572000, 60.000000)" fill-rule="nonzero">
                <g >
                    <use fill="#000000" xlink:href="#path-4"></use>
                    <use fill="#434D5A" xlink:href="#path-4"></use>
                </g>
            </g>
            <g id="Houston" transform="translate(16.008000, 85.596000)" fill="#000000" fill-rule="nonzero">
                <g id="100USD">
                    <use xlink:href="#path-5"></use>
                    <use xlink:href="#path-5"></use>
                </g>
            </g>
        </g>
    </g>
</svg>
