<svg id="Layer_1" data-name="Layer 1" xmlns="http://www.w3.org/2000/svg" viewBox="0 0 75.06 75"><defs><style>.cls-1{fill:none;}.cls-2{fill:#214497;}.cls-3{fill:#1a2c57;}.cls-4{fill:#4f6ef7;}.cls-5{fill:#badefc;}</style></defs><path class="cls-1" d="M2.05,49.73A37.5,37.5,0,0,1,37.48,0h0A37.51,37.51,0,0,0,2,49.88C2.05,49.83,2,49.78,2.05,49.73Z" transform="translate(0.06)"/><path class="cls-1" d="M11.47,64.48h-.05a37.81,37.81,0,0,0,5.93,4.66v0A37.17,37.17,0,0,1,11.47,64.48Z" transform="translate(0.06)"/><path class="cls-2" d="M0,37.5A37.45,37.45,0,0,0,2.05,49.73a4.42,4.42,0,0,1,1.56-2.79L15.67,37a4.37,4.37,0,0,1,2.77-1H30.33a42.11,42.11,0,0,1,3.07-3.61A9.81,9.81,0,0,1,30,33a10,10,0,1,1,8.87-5.38A39.75,39.75,0,0,1,62.33,20a40.19,40.19,0,0,1,8.84,1A37.5,37.5,0,0,0,0,37.5Z" transform="translate(0.06)"/><path class="cls-2" d="M17.35,47l-5.2,4.28,2.55,7.33A4.08,4.08,0,0,1,13,64a3.92,3.92,0,0,1-1.57.48,37.17,37.17,0,0,0,5.88,4.64Z" transform="translate(0.06)"/><path class="cls-3" d="M38.87,27.62a10,10,0,0,1-5.47,4.77A42.11,42.11,0,0,0,30.33,36H42.56a4.37,4.37,0,0,1,2.77,1l12.06,9.95a4.45,4.45,0,0,1,.94,5.77l-5,9.89A4,4,0,0,1,48,64a4.08,4.08,0,0,1-1.65-5.34l2.55-7.33L43.65,47V74.48A37.49,37.49,0,0,0,71.17,21a40.19,40.19,0,0,0-8.84-1A39.75,39.75,0,0,0,38.87,27.62Z" transform="translate(0.06)"/><path class="cls-4" d="M38.87,27.62A10,10,0,1,0,30,33a9.81,9.81,0,0,0,3.4-.61A10,10,0,0,0,38.87,27.62Z" transform="translate(0.06)"/><path class="cls-4" d="M48.85,51.33,46.3,58.66A4.08,4.08,0,0,0,48,64a4,4,0,0,0,5.38-1.4l5-9.89a4.45,4.45,0,0,0-.94-5.77L45.33,37a4.37,4.37,0,0,0-2.77-1H18.44a4.37,4.37,0,0,0-2.77,1L3.61,46.94a4.42,4.42,0,0,0-1.56,2.79c0,.05,0,.1,0,.15a37.57,37.57,0,0,0,9.38,14.61h.05A3.92,3.92,0,0,0,13,64a4.08,4.08,0,0,0,1.66-5.35l-2.55-7.33L17.35,47V69.15a37.4,37.4,0,0,0,26.3,5.33V47ZM38.17,48.16a1.09,1.09,0,0,1-1.09,1.1H30.5a1.1,1.1,0,0,1-1.1-1.1V44.84a1.1,1.1,0,0,1,1.1-1.1h6.58a1.09,1.09,0,0,1,1.09,1.1Z" transform="translate(0.06)"/><path class="cls-5" d="M37.08,43.74H30.5a1.1,1.1,0,0,0-1.1,1.1v3.32a1.1,1.1,0,0,0,1.1,1.1h6.58a1.09,1.09,0,0,0,1.09-1.1V44.84A1.09,1.09,0,0,0,37.08,43.74Z" transform="translate(0.06)"/></svg>