<svg id="Layer_1" data-name="Layer 1" xmlns="http://www.w3.org/2000/svg" viewBox="0 0 76 75"><defs><style>.cls-1{fill:none;}.cls-2{fill:#214497;}.cls-3{fill:#1a2c57;}.cls-4{fill:#4f6ef7;}.cls-5{fill:#badefc;}</style></defs><path class="cls-1" d="M6.74,16.53A35.43,35.43,0,0,1,8.9,13.65,35.43,35.43,0,0,0,6.74,16.53Z"/><path class="cls-1" d="M24.94,2.28a35,35,0,0,1,3.52-1.1A35,35,0,0,0,24.94,2.28Z"/><path class="cls-1" d="M3.28,22.9c.48-1.12,1-2.21,1.58-3.27C4.28,20.69,3.76,21.78,3.28,22.9Z"/><path class="cls-1" d="M16.87,6.4A37.56,37.56,0,0,1,23.24,3,37.56,37.56,0,0,0,16.87,6.4Z"/><path class="cls-1" d="M11.32,11A37.16,37.16,0,0,1,15.4,7.45,37.16,37.16,0,0,0,11.32,11Z"/><path class="cls-2" d="M6.42,24H42.55a.9.9,0,0,1,.87.75,40,40,0,0,1,28.13-3.67A37.56,37.56,0,0,0,28.46,1.18a35,35,0,0,0-3.52,1.1c-.57.21-1.14.43-1.7.67A37.56,37.56,0,0,0,16.87,6.4q-.75.51-1.47,1A37.16,37.16,0,0,0,11.32,11,36,36,0,0,0,8.9,13.65a35.43,35.43,0,0,0-2.16,2.88,36,36,0,0,0-1.88,3.1c-.58,1.06-1.1,2.15-1.58,3.27s-.86,2.2-1.22,3.33A5.4,5.4,0,0,1,6.42,24Z"/><path class="cls-2" d="M1,30.48a37.11,37.11,0,0,0,0,14Z"/><path class="cls-2" d="M41.55,25.82H6.42a3.65,3.65,0,0,0,0,7.29h26.3A40,40,0,0,1,41.55,25.82Z"/><path class="cls-3" d="M44.35,52.23a1.83,1.83,0,1,0,1.81,1.82A1.82,1.82,0,0,0,44.35,52.23Z"/><path class="cls-3" d="M43.42,24.75a.76.76,0,0,1,0,.16v5.47h-1.8V25.82h-.1a40,40,0,0,0-8.83,7.29H52.48a.91.91,0,0,1,.91.91V46.77h-9a7.29,7.29,0,0,0,0,14.57h9V71.62A37.51,37.51,0,0,0,71.55,21.08a40,40,0,0,0-28.13,3.67ZM57,58.61a.9.9,0,0,1-.9.91H44.35a5.47,5.47,0,0,1,0-10.93H56.1a.9.9,0,0,1,.9.91Z"/><path class="cls-4" d="M3.28,52.1c.48,1.12,1,2.21,1.58,3.27a36,36,0,0,0,1.88,3.1A35.43,35.43,0,0,0,8.9,61.35,36,36,0,0,0,11.32,64a37.16,37.16,0,0,0,4.08,3.53q.72.54,1.47,1a37.56,37.56,0,0,0,6.37,3.45c.56.24,1.13.46,1.7.67a35,35,0,0,0,3.52,1.1,37.61,37.61,0,0,0,24.93-2.2V61.34h-9a7.29,7.29,0,0,1,0-14.57h9V34a.91.91,0,0,0-.91-.91H6.42a3.65,3.65,0,0,1,0-7.29H41.65v4.56h1.8V24.91a.76.76,0,0,0,0-.16.9.9,0,0,0-.87-.75H6.42a5.4,5.4,0,0,0-4.36,2.23A35.19,35.19,0,0,0,1,30.48v14A37.31,37.31,0,0,0,3.28,52.1Z"/><path class="cls-5" d="M56.1,48.59H44.35a5.47,5.47,0,0,0,0,10.93H56.1a.9.9,0,0,0,.9-.91V49.5A.9.9,0,0,0,56.1,48.59ZM44.35,55.88a1.83,1.83,0,1,1,1.81-1.83A1.82,1.82,0,0,1,44.35,55.88Z"/></svg>