<svg id="Layer_1" data-name="Layer 1" xmlns="http://www.w3.org/2000/svg" viewBox="0 0 75 75"><defs><style>.cls-1{fill:#214497;}.cls-2{fill:#1a2c57;}.cls-3{fill:#efd358;}.cls-4{fill:#4f6ef7;}</style></defs><path class="cls-1" d="M22.63,64.78c-.2-.26-.4-.51-.58-.78H14a1,1,0,0,1-1-1V49a1,1,0,0,1,1-1h6a18.13,18.13,0,0,1,5.87-8.15l-2.85-8.53a1,1,0,0,1,.07-.79,1,1,0,0,1,.62-.5A13.2,13.2,0,0,1,33.8,32a40.41,40.41,0,0,1,8.6-6.66,7,7,0,0,1,13.16-4.74A40.78,40.78,0,0,1,62.33,20a40.19,40.19,0,0,1,8.84,1A37.5,37.5,0,1,0,24.38,72.64,40.19,40.19,0,0,1,22.63,64.78Z"/><path class="cls-2" d="M22.63,64.78a40.19,40.19,0,0,0,1.75,7.86,37.2,37.2,0,0,0,7.62,2V71.28A17.79,17.79,0,0,1,22.63,64.78Z"/><path class="cls-2" d="M55.56,20.58A7,7,0,1,1,42.4,25.32,40.41,40.41,0,0,0,33.8,32a13.57,13.57,0,0,1,3.75,4H57A18,18,0,0,1,73.7,47.31,37.81,37.81,0,0,0,75,37.5,37.32,37.32,0,0,0,71.17,21a40.19,40.19,0,0,0-8.84-1A40.78,40.78,0,0,0,55.56,20.58Z"/><path class="cls-2" d="M55,42H43a1,1,0,0,0,0,2H55a1,1,0,0,0,0-2Z"/><path class="cls-2" d="M44,72v2.43a37.23,37.23,0,0,0,8-2.34V72Z"/><circle class="cls-2" cx="30.5" cy="49.5" r="2.5"/><path class="cls-3" d="M49,30a7,7,0,1,0-6.6-4.68A7,7,0,0,0,49,30Z"/><path class="cls-4" d="M57,36H37.55a13.57,13.57,0,0,0-3.75-4A13.2,13.2,0,0,0,23.74,30a1,1,0,0,0-.62.5,1,1,0,0,0-.07.79l2.85,8.53A18.13,18.13,0,0,0,20,48H14a1,1,0,0,0-1,1V63a1,1,0,0,0,1,1h8.05c.18.27.38.52.58.78A17.79,17.79,0,0,0,32,71.28v3.31a37,37,0,0,0,5.5.41,37.59,37.59,0,0,0,6.5-.57V72h8v.09A37.62,37.62,0,0,0,73.7,47.31,18,18,0,0,0,57,36ZM30.5,52A2.5,2.5,0,1,1,33,49.5,2.5,2.5,0,0,1,30.5,52ZM55,44H43a1,1,0,0,1,0-2H55a1,1,0,0,1,0,2Z"/></svg>