<?xml version="1.0" encoding="UTF-8"?>
<svg width="62px" height="62px" viewBox="0 0 62 62" version="1.1" xmlns="http://www.w3.org/2000/svg" xmlns:xlink="http://www.w3.org/1999/xlink">
    <title>037656EA-E309-4D8B-B15F-9E242B3D6470</title>
    <defs>
        <circle id="fast-payments-path-1" cx="31" cy="31" r="31"></circle>
    </defs>
    <g id="Product-Pages" stroke="none" stroke-width="1" fill="none" fill-rule="evenodd">
        <g id="bitpay.com/payouts" transform="translate(-601.000000, -962.000000)">
            <g id="Group-6" transform="translate(601.000000, 962.000000)">
                <mask id="fast-payments-mask-2" fill="white">
                    <use xlink:href="#fast-payments-path-1"></use>
                </mask>
                <use  fill="#214497" fill-rule="nonzero" xlink:href="#fast-payments-path-1"></use>
                <g mask="url(#fast-payments-mask-2)" >
                    <g transform="translate(3.000000, 10.000000)">
                        <ellipse  fill="#BADEFC" fill-rule="nonzero" cx="37.372053" cy="6.10909091" rx="6.10169492" ry="6.10909091"></ellipse>
                        <path d="M12.7090022,14.8878545 L18.4293412,11.0696727 L21.1026462,12.7725818 C21.8752734,11.9394545 22.4106971,11.3682545 22.6021378,11.1765818 C23.4952734,10.2823636 24.5928157,9.67374545 25.7864598,9.37592727 L19.38807,6.38323636 C18.6429005,5.98232727 17.7375615,6.02356364 17.0343412,6.49472727 L10.1699344,11.0765455 C9.11891743,11.7783273 8.8344259,13.2002182 9.53535811,14.2532727 C10.237053,15.3055636 11.6587479,15.5904 12.7090022,14.8878545 Z" id="Path" fill="#4F6EF7" fill-rule="nonzero"></path>
                        <path d="M26.2257818,25.0090909 C24.8216293,26.0758909 23.0795954,27.4206545 21.1522225,28.9204364 L24.4059513,32.8363636 L15.7552734,37.6594909 C14.6249344,38.2253455 14.1665445,39.6014182 14.7324768,40.7331273 C15.1329005,41.5357091 15.9413751,42 16.7811208,42 C17.1251039,42 17.4744259,41.9213455 17.802392,41.7579273 L30.0057818,35.6488364 C30.616714,35.3426182 31.0590869,34.7790545 31.212392,34.1124 C31.3656971,33.4449818 31.212392,32.7447273 30.7959513,32.2025455 L26.2257818,25.0090909 Z" id="Path" fill="#4F6EF7" fill-rule="nonzero"></path>
                        <path d="M44.8359513,20.5311273 C44.3668835,19.3566545 43.0351886,18.7839273 41.8613751,19.2550909 L35.7093412,21.7193455 C35.7093412,21.7193455 32.8018835,13.8286909 31.2322225,12.2571273 C29.1469683,10.1693455 25.7666293,10.1693455 23.6821378,12.2571273 C22.2406123,13.7004 0.74891743,37.2509455 0.74891743,37.2509455 C-0.186167316,38.1016364 -0.254811383,39.5510182 0.594849633,40.4864727 C1.04561235,40.9836 1.66569709,41.2363636 2.28806997,41.2363636 C2.83722251,41.2363636 3.38790048,41.0393455 3.8264598,40.6407273 C3.8264598,40.6407273 27.8366293,21.5062909 29.0081547,21.1512 L33.3906971,25.9773818 C34.0329005,26.6852727 35.0473073,26.9181818 35.9335784,26.5638545 L43.5606971,23.5093091 C44.7337479,23.0389091 45.3050191,21.7056 44.8359513,20.5311273 Z" id="Path" fill="#BADEFC" fill-rule="nonzero"></path>
                    </g>
                </g>
            </g>
        </g>
    </g>
</svg>
