<?xml version="1.0" encoding="UTF-8"?>
<svg width="62px" height="62px" viewBox="0 0 62 62" version="1.1" xmlns="http://www.w3.org/2000/svg" xmlns:xlink="http://www.w3.org/1999/xlink">
    <title>ED5134A3-B6B5-4F89-8259-23ACB445D878</title>
    <defs>
        <circle id="payouts-setup-icon-path-1"  cx="31" cy="31" r="31"></circle>
    </defs>
    <g id="Product-Pages" stroke="none" stroke-width="1" fill="none" fill-rule="evenodd">
        <g id="bitpay.com/payouts" transform="translate(-284.000000, -958.000000)">
            <g id="Group-2" transform="translate(284.000000, 958.000000)">
                <mask id="payouts-setup-icon-mask-2" fill="white">
                    <use xlink:href="#payouts-setup-icon-path-1"></use>
                </mask>
                <use  fill="#214497" fill-rule="nonzero" xlink:href="#payouts-setup-icon-path-1"></use>
                <g mask="url(#payouts-setup-icon-mask-2)" fill-rule="nonzero" id="Path">
                    <g transform="translate(11.000000, 11.000000)">
                        <path d="M20,40 C8.972,40 0,31.028 0,20 C0,8.972 8.972,0 20,0 C31.028,0 40,8.972 40,20 C40,20.4424 39.6416,20.8 39.2,20.8 C38.7584,20.8 38.4,20.4424 38.4,20 C38.4,9.8536 30.1456,1.6 20,1.6 C9.8544,1.6 1.6,9.8536 1.6,20 C1.6,30.1464 9.8544,38.4 20,38.4 C20.4416,38.4 20.8,38.7576 20.8,39.2 C20.8,39.6424 20.4416,40 20,40 Z" fill="#4F6EF7"></path>
                        <path d="M49.7637707,40.5693853 L40.666625,31.4722698 L46.541546,25.5973682 C46.7582406,25.3806744 46.8331574,25.0600641 46.7348795,24.7700648 C46.6366017,24.4800656 46.3820459,24.2698161 46.0783512,24.2295384 L21.9116665,21.0073245 C21.660333,20.9734912 21.4130272,21.0580744 21.2358049,21.2361017 C21.0585825,21.4133234 20.9739991,21.663045 21.0070269,21.911961 L24.2292516,46.0785656 C24.2695294,46.3830648 24.478974,46.6368142 24.7689742,46.7350917 C25.0589744,46.8317581 25.3803913,46.7584528 25.5970859,46.5417589 L31.472007,40.6668573 L40.5691527,49.7639728 C40.7262361,49.9210558 40.9324585,50 41.1386809,50 C41.3449032,50 41.5511256,49.9210558 41.7082091,49.7639728 L49.7637707,41.708438 C50.0787431,41.3934666 50.0787431,40.8843568 49.7637707,40.5693853 Z" fill="#BADEFC"></path>
                        <path d="M18.9425701,31 C18.8978613,31 18.8531525,30.9967485 18.8068179,30.9886196 C13.7043261,30.1326546 10,25.7495936 10,20.5674692 C10,14.7407293 14.7407571,10 20.5675312,10 C25.749686,10 30.1327727,13.7043044 30.9887428,18.8075792 C31.0627155,19.2497871 30.764386,19.6692343 30.3213625,19.7432066 C29.8767133,19.8228691 29.4597023,19.5188511 29.3849167,19.0758303 C28.6614472,14.7586127 24.9530567,11.6257645 20.5675312,11.6257645 C15.6373715,11.6257645 11.625774,15.6373384 11.625774,20.5674692 C11.625774,24.952969 14.7594535,28.6613378 19.0766964,29.3856159 C19.518907,29.460401 19.8180494,29.8790354 19.7440767,30.3212433 C19.6774199,30.7187427 19.3327558,31 18.9425701,31 Z" fill="#4F6EF7"></path>
                    </g>
                </g>
            </g>
        </g>
    </g>
</svg>
