<svg id="Layer_1" data-name="Layer 1" xmlns="http://www.w3.org/2000/svg" viewBox="0 0 75 75">
  <defs>
    <style>.cls-1{fill:#214497;}.cls-2{fill:#1a2c57;}.cls-3{fill:#4f6ef7;}.cls-4{fill:#efd358;}</style>
  </defs>
  <path class="cls-1" d="M9.41,62.33l.64.71c0-.24,0-.47,0-.71Z"/>
  <path class="cls-1"
        d="M28.78,32c.68-.69,1.38-1.36,2.11-2H29V20.79a4,4,0,0,1,8,0v4.77c.65-.39,1.32-.76,2-1.11v-1.6A3.92,3.92,0,0,1,43,19a4,4,0,0,1,3.71,2.44A39.93,39.93,0,0,1,72,22.79,37.5,37.5,0,0,0,.41,32ZM20,22.85a4,4,0,0,1,8,0V30H20ZM14,21a4,4,0,0,1,4,3.94V30H10V24.94A4,4,0,0,1,14,21Z"/>
  <path class="cls-1"
        d="M17.33,60a39.8,39.8,0,0,1,9.48-25.83H.16C.06,35.27,0,36.38,0,37.5A37.31,37.31,0,0,0,7.63,60.17h9.71C17.34,60.11,17.33,60.06,17.33,60ZM15.9,43H7.1a1,1,0,1,1,0-2h8.8a1,1,0,1,1,0,2Z"/>
  <path class="cls-2"
        d="M46.71,21.44A3.7,3.7,0,0,1,47,22.85V30H39V24.45c-.68.35-1.35.72-2,1.11V30H30.89c-.73.64-1.43,1.31-2.11,2H58.91A1.09,1.09,0,0,1,60,33.08V61.25a1.08,1.08,0,0,1-1.09,1.08H53.48a21.43,21.43,0,0,1-2.55,10.18A37.51,37.51,0,0,0,72,22.79a39.93,39.93,0,0,0-25.29-1.35Z"/>
  <path class="cls-2"
        d="M17.34,60.17H34a15.16,15.16,0,0,1,9.69-4.3V49.33a8.68,8.68,0,0,1,8.69-8.66,1.08,1.08,0,0,1,1.08,1.08V60.17h4.35v-26h-31A39.8,39.8,0,0,0,17.33,60C17.33,60.06,17.34,60.11,17.34,60.17ZM28.5,41A6.5,6.5,0,1,1,22,47.5,6.5,6.5,0,0,1,28.5,41Z"/>
  <path class="cls-3"
        d="M58.91,62.33A1.08,1.08,0,0,0,60,61.25V33.08A1.09,1.09,0,0,0,58.91,32H.41c-.11.72-.19,1.44-.25,2.17H57.83v26H53.48V41.75a1.08,1.08,0,0,0-1.08-1.08,8.68,8.68,0,0,0-8.69,8.66v6.54A15.16,15.16,0,0,0,34,60.17H7.63c.57.74,1.16,1.46,1.78,2.16H10c0,.24,0,.47,0,.71a37.48,37.48,0,0,0,40.88,9.47,21.43,21.43,0,0,0,2.55-10.18Z"/>
  <path class="cls-3" d="M18,30V24.94a4,4,0,0,0-8,0V30Z"/>
  <path class="cls-3" d="M28,22.85a4,4,0,0,0-8,0V30h8Z"/>
  <path class="cls-3" d="M37,25.56V20.79a4,4,0,0,0-8,0V30h8Z"/>
  <path class="cls-3" d="M47,30V22.85a3.7,3.7,0,0,0-.29-1.41A4,4,0,0,0,43,19a3.92,3.92,0,0,0-4,3.85V30Z"/>
  <circle class="cls-4" cx="28.5" cy="47.5" r="6.5"/>
  <path class="cls-4" d="M15.9,41H7.1a1,1,0,1,0,0,2h8.8a1,1,0,1,0,0-2Z"/>
</svg>
