<?xml version="1.0" encoding="UTF-8"?>
<svg width="190px" height="120px" viewBox="0 0 190 120" version="1.1" xmlns="http://www.w3.org/2000/svg" xmlns:xlink="http://www.w3.org/1999/xlink">
    <title>Group 60</title>
    <defs>
        <path d="M5.33793103,0 L166.662069,0 C169.610127,-1.42972787e-15 172,2.38987313 172,5.33793103 L172,32.662069 C172,35.6101269 169.610127,38 166.662069,38 L5.33793103,38 C2.38987313,38 7.84134876e-15,35.6101269 0,32.662069 L0,5.33793103 C-3.61032968e-16,2.38987313 2.38987313,-3.46628968e-16 5.33793103,0 Z" id="payouts--confirmation-path-1"></path>
        <filter x="-7.8%" y="-35.5%" width="115.7%" height="171.1%" filterUnits="objectBoundingBox" id="filter-2">
            <feMorphology radius="1" operator="dilate" in="SourceAlpha" result="shadowSpreadOuter1"></feMorphology>
            <feOffset dx="0" dy="0" in="shadowSpreadOuter1" result="shadowOffsetOuter1"></feOffset>
            <feGaussianBlur stdDeviation="3.5" in="shadowOffsetOuter1" result="shadowBlurOuter1"></feGaussianBlur>
            <feColorMatrix values="0 0 0 0 0   0 0 0 0 0   0 0 0 0 0  0 0 0 0.05 0" type="matrix" in="shadowBlurOuter1"></feColorMatrix>
        </filter>
        <path d="M3.46359375,7 L3.46359375,5.1521875 L5.30296875,5.1521875 L5.30296875,4.4434375 L3.46359375,4.4434375 L3.46359375,2.59140625 L2.7421875,2.59140625 L2.7421875,4.4434375 L0.9028125,4.4434375 L0.9028125,5.1521875 L2.7421875,5.1521875 L2.7421875,7 L3.46359375,7 Z M9.13796875,7.99984375 L9.13796875,7.18140625 C9.64703125,7.12515625 10.0365625,7.00984375 10.3065625,6.83546875 C10.793125,6.52046875 11.0364063,5.98890625 11.0364063,5.24078125 C11.0364063,4.72328125 10.8465625,4.33234375 10.466875,4.06796875 C10.2334375,3.90765625 9.79046875,3.73609375 9.13796875,3.55328125 L9.13796875,3.55328125 L9.13796875,1.50296875 C9.52609375,1.51703125 9.80875,1.66609375 9.9859375,1.95015625 C10.0815625,2.10484375 10.1392188,2.2890625 10.1589063,2.5028125 L10.1589063,2.5028125 L10.8971875,2.5028125 C10.883125,2.0246875 10.7263281,1.64007812 10.4267969,1.34898437 C10.1272656,1.05789062 9.69765625,0.89265625 9.13796875,0.85328125 L9.13796875,0.85328125 L9.13796875,0.300625 L8.7371875,0.300625 L8.7371875,0.86171875 C8.171875,0.86734375 7.73242188,1.04171875 7.41882813,1.38484375 C7.10523438,1.72796875 6.9484375,2.11328125 6.9484375,2.54078125 C6.9484375,3.01890625 7.09328125,3.39296875 7.38296875,3.66296875 C7.67265625,3.93296875 8.12125,4.125625 8.72875,4.2409375 L8.72875,4.2409375 L8.72875,6.54015625 C8.25625,6.50078125 7.9328125,6.3221875 7.7584375,6.004375 C7.66,5.8271875 7.59953125,5.5459375 7.57703125,5.160625 L7.57703125,5.160625 L6.8303125,5.160625 C6.8303125,5.644375 6.91046875,6.02828125 7.07078125,6.31234375 C7.36328125,6.83828125 7.91875,7.12796875 8.7371875,7.18140625 L8.7371875,7.18140625 L8.7371875,7.99984375 L9.13796875,7.99984375 Z M8.72875,3.473125 C8.4165625,3.41125 8.16835938,3.3015625 7.98414063,3.1440625 C7.79992188,2.9865625 7.7078125,2.76859375 7.7078125,2.49015625 C7.7078125,2.25953125 7.78585938,2.03875 7.94195313,1.8278125 C8.09804688,1.616875 8.3603125,1.504375 8.72875,1.4903125 L8.72875,1.4903125 L8.72875,3.473125 Z M9.13796875,6.56125 L9.13796875,4.3421875 C9.48953125,4.4378125 9.73984375,4.5390625 9.88890625,4.6459375 C10.1476563,4.82875 10.2770313,5.0959375 10.2770313,5.4475 C10.2770313,5.6696875 10.2292188,5.86515625 10.1335938,6.03390625 C9.95078125,6.36296875 9.61890625,6.53875 9.13796875,6.56125 L9.13796875,6.56125 Z M14.4240625,7 L14.4240625,0.9840625 L13.825,0.9840625 C13.718125,1.4509375 13.5564063,1.74695312 13.3398438,1.87210937 C13.1232813,1.99726562 12.7407813,2.0865625 12.1923438,2.14 L12.1923438,2.14 L12.1923438,2.7221875 L13.6140625,2.7221875 L13.6140625,7 L14.4240625,7 Z M18.5035938,7.16453125 C19.3079688,7.16453125 19.8873438,6.77921875 20.2417188,6.00859375 C20.4864063,5.47140625 20.60875,4.7921875 20.60875,3.9709375 C20.60875,3.1046875 20.47375,2.42265625 20.20375,1.92484375 C19.855,1.28078125 19.2896875,0.95875 18.5078125,0.95875 C17.63875,0.95875 17.0382813,1.4171875 16.7064063,2.3340625 C16.5292188,2.82625 16.440625,3.41546875 16.440625,4.10171875 C16.440625,4.98765625 16.5882813,5.69359375 16.8835938,6.21953125 C17.2379688,6.84953125 17.7779688,7.16453125 18.5035938,7.16453125 Z M18.499375,6.47265625 C18.01,6.47265625 17.6640625,6.1871875 17.4615625,5.61625 C17.329375,5.2421875 17.2632813,4.7471875 17.2632813,4.13125 C17.2632813,3.3128125 17.3666406,2.69335937 17.5733594,2.27289062 C17.7800781,1.85242187 18.1070313,1.6421875 18.5542188,1.6421875 C19.0407813,1.6421875 19.3684375,1.86367187 19.5371875,2.30664062 C19.7059375,2.74960937 19.7903125,3.31421875 19.7903125,4.00046875 C19.7903125,4.95109375 19.6735938,5.60078125 19.4401563,5.94953125 C19.2067188,6.29828125 18.893125,6.47265625 18.499375,6.47265625 Z M23.30875,7.16453125 C24.113125,7.16453125 24.6925,6.77921875 25.046875,6.00859375 C25.2915625,5.47140625 25.4139063,4.7921875 25.4139063,3.9709375 C25.4139063,3.1046875 25.2789063,2.42265625 25.0089063,1.92484375 C24.6601563,1.28078125 24.0948438,0.95875 23.3129688,0.95875 C22.4439063,0.95875 21.8434375,1.4171875 21.5115625,2.3340625 C21.334375,2.82625 21.2457813,3.41546875 21.2457813,4.10171875 C21.2457813,4.98765625 21.3934375,5.69359375 21.68875,6.21953125 C22.043125,6.84953125 22.583125,7.16453125 23.30875,7.16453125 Z M23.3045313,6.47265625 C22.8151563,6.47265625 22.4692188,6.1871875 22.2667188,5.61625 C22.1345313,5.2421875 22.0684375,4.7471875 22.0684375,4.13125 C22.0684375,3.3128125 22.1717969,2.69335937 22.3785156,2.27289062 C22.5852344,1.85242187 22.9121875,1.6421875 23.359375,1.6421875 C23.8459375,1.6421875 24.1735938,1.86367187 24.3423438,2.30664062 C24.5110938,2.74960937 24.5954688,3.31421875 24.5954688,4.00046875 C24.5954688,4.95109375 24.47875,5.60078125 24.2453125,5.94953125 C24.011875,6.29828125 23.6982813,6.47265625 23.3045313,6.47265625 Z M27.4009375,7 L27.4009375,6.0803125 L26.5192188,6.0803125 L26.5192188,7 L27.4009375,7 Z M30.514375,7.16453125 C31.31875,7.16453125 31.898125,6.77921875 32.2525,6.00859375 C32.4971875,5.47140625 32.6195313,4.7921875 32.6195313,3.9709375 C32.6195313,3.1046875 32.4845313,2.42265625 32.2145313,1.92484375 C31.8657813,1.28078125 31.3004688,0.95875 30.5185938,0.95875 C29.6495313,0.95875 29.0490625,1.4171875 28.7171875,2.3340625 C28.54,2.82625 28.4514063,3.41546875 28.4514063,4.10171875 C28.4514063,4.98765625 28.5990625,5.69359375 28.894375,6.21953125 C29.24875,6.84953125 29.78875,7.16453125 30.514375,7.16453125 Z M30.5101563,6.47265625 C30.0207813,6.47265625 29.6748438,6.1871875 29.4723438,5.61625 C29.3401563,5.2421875 29.2740625,4.7471875 29.2740625,4.13125 C29.2740625,3.3128125 29.3774219,2.69335937 29.5841406,2.27289062 C29.7908594,1.85242187 30.1178125,1.6421875 30.565,1.6421875 C31.0515625,1.6421875 31.3792188,1.86367187 31.5479688,2.30664062 C31.7167188,2.74960937 31.8010938,3.31421875 31.8010938,4.00046875 C31.8010938,4.95109375 31.684375,5.60078125 31.4509375,5.94953125 C31.2175,6.29828125 30.9039063,6.47265625 30.5101563,6.47265625 Z M35.3195313,7.16453125 C36.1239063,7.16453125 36.7032813,6.77921875 37.0576563,6.00859375 C37.3023438,5.47140625 37.4246875,4.7921875 37.4246875,3.9709375 C37.4246875,3.1046875 37.2896875,2.42265625 37.0196875,1.92484375 C36.6709375,1.28078125 36.105625,0.95875 35.32375,0.95875 C34.4546875,0.95875 33.8542188,1.4171875 33.5223438,2.3340625 C33.3451563,2.82625 33.2565625,3.41546875 33.2565625,4.10171875 C33.2565625,4.98765625 33.4042188,5.69359375 33.6995313,6.21953125 C34.0539063,6.84953125 34.5939063,7.16453125 35.3195313,7.16453125 Z M35.3153125,6.47265625 C34.8259375,6.47265625 34.48,6.1871875 34.2775,5.61625 C34.1453125,5.2421875 34.0792188,4.7471875 34.0792188,4.13125 C34.0792188,3.3128125 34.1825781,2.69335937 34.3892969,2.27289062 C34.5960156,1.85242187 34.9229688,1.6421875 35.3701563,1.6421875 C35.8567188,1.6421875 36.184375,1.86367187 36.353125,2.30664062 C36.521875,2.74960937 36.60625,3.31421875 36.60625,4.00046875 C36.60625,4.95109375 36.4895313,5.60078125 36.2560938,5.94953125 C36.0226563,6.29828125 35.7090625,6.47265625 35.3153125,6.47265625 Z" id="path-3"></path>
        <path d="M2.1515625,6.13605469 C2.64726563,6.13605469 3.08232422,6.0253125 3.45673828,5.80382813 C3.83115234,5.58234375 4.01835938,5.21425781 4.01835938,4.69957031 C4.01835938,4.28613281 3.87070313,3.97078125 3.57539063,3.75351563 C3.40453125,3.6290625 3.16195313,3.53097656 2.84765625,3.45925781 L2.84765625,3.45925781 L2.19585937,3.31054688 C1.75710938,3.20929688 1.47550781,3.12492188 1.35105469,3.05742188 C1.16121094,2.95195313 1.06628906,2.7853125 1.06628906,2.5575 C1.06628906,2.35078125 1.1475,2.169375 1.30992188,2.01328125 C1.47234375,1.8571875 1.73917969,1.77914063 2.11042969,1.77914063 C2.57027344,1.77914063 2.89617188,1.90042969 3.088125,2.14300781 C3.19148437,2.27589844 3.25898438,2.46679688 3.290625,2.71570312 L3.290625,2.71570312 L3.88230469,2.71570312 C3.88230469,2.19890625 3.71197266,1.82291016 3.37130859,1.58771484 C3.03064453,1.35251953 2.61667969,1.23492187 2.12941406,1.23492187 C1.59996094,1.23492187 1.19074219,1.36886719 0.901757813,1.63675781 C0.612773438,1.90464844 0.46828125,2.24742188 0.46828125,2.66507813 C0.46828125,3.05109375 0.6159375,3.34113281 0.91125,3.53519531 C1.08210938,3.64699219 1.37320313,3.74929688 1.78453125,3.84210938 L1.78453125,3.84210938 L2.41417969,3.98449219 C2.75589844,4.06253906 3.00691406,4.15429688 3.16722656,4.25976562 C3.32542969,4.36734375 3.40453125,4.54769531 3.40453125,4.80082031 C3.40453125,5.13832031 3.21679688,5.37246094 2.84132812,5.50324219 C2.64726563,5.57074219 2.43210938,5.60449219 2.19585937,5.60449219 C1.66851563,5.60449219 1.30042969,5.45050781 1.09160156,5.14253906 C0.981914063,4.97800781 0.9196875,4.76390625 0.904921875,4.50023437 L0.904921875,4.50023437 L0.313242188,4.50023437 C0.306914063,5.00226562 0.467226563,5.39988281 0.794179688,5.69308594 C1.12113281,5.98839844 1.57359375,6.13605469 2.1515625,6.13605469 Z M6.06234375,6.12023438 C6.2353125,6.12023438 6.39035156,6.10335938 6.52746094,6.06960938 C6.78269531,6.01054687 6.99679687,5.89664062 7.16976563,5.72789063 C7.273125,5.63085938 7.36646484,5.50587891 7.44978516,5.35294922 C7.53310547,5.20001953 7.58214844,5.06132813 7.59691406,4.936875 L7.59691406,4.936875 L7.036875,4.936875 C6.9946875,5.08664063 6.92296875,5.21847656 6.82171875,5.33238281 C6.64453125,5.52855469 6.40722656,5.62664063 6.10980469,5.62664063 C5.79128906,5.62664063 5.55609375,5.52275391 5.40421875,5.31498047 C5.25234375,5.10720703 5.17113281,4.83140625 5.16058594,4.48757813 L5.16058594,4.48757813 L7.644375,4.48757813 C7.644375,4.14585938 7.6275,3.89695313 7.59375,3.74085938 C7.55578125,3.51304688 7.47984375,3.31371094 7.3659375,3.14285156 C7.2478125,2.96355469 7.07589844,2.81748047 6.85019531,2.70462891 C6.62449219,2.59177734 6.39140625,2.53535156 6.1509375,2.53535156 C5.67421875,2.53535156 5.28820312,2.70515625 4.99289063,3.04476563 C4.69757812,3.384375 4.54992187,3.82628906 4.54992187,4.37050781 C4.54992187,4.92316406 4.69652344,5.35294922 4.98972656,5.65986328 C5.28292969,5.96677734 5.64046875,6.12023438 6.06234375,6.12023438 Z M7.05902344,4.03511719 L5.17640625,4.03511719 C5.18695313,3.74402344 5.28082031,3.50408203 5.45800781,3.31529297 C5.63519531,3.12650391 5.85457031,3.03210937 6.11613281,3.03210937 C6.48105469,3.03210937 6.7415625,3.16921875 6.89765625,3.4434375 C6.98203125,3.59109375 7.03582031,3.78832031 7.05902344,4.03511719 L7.05902344,4.03511719 Z M8.86886719,7.35105469 L8.86886719,5.6203125 C8.99332031,5.77429687 9.10617188,5.88292969 9.20742188,5.94621094 C9.38039063,6.05800781 9.59449219,6.11390625 9.84972656,6.11390625 C10.1745703,6.11390625 10.4593359,6.01371094 10.7040234,5.81332031 C11.0900391,5.49691406 11.2830469,4.96957031 11.2830469,4.23128906 C11.2830469,3.68496094 11.1491016,3.26466797 10.8812109,2.97041016 C10.6133203,2.67615234 10.2874219,2.52902344 9.90351563,2.52902344 C9.6440625,2.52902344 9.41835937,2.59230469 9.22640625,2.71886719 C9.09140625,2.80324219 8.96695313,2.92242187 8.85304688,3.07640625 L8.85304688,3.07640625 L8.85304688,2.62710938 L8.29933594,2.62710938 L8.29933594,7.35105469 L8.86886719,7.35105469 Z M9.77378906,5.61714844 C9.38144531,5.61714844 9.11144531,5.44207031 8.96378906,5.09191406 C8.88574219,4.90839844 8.84671875,4.68585937 8.84671875,4.42429687 C8.84671875,4.09945313 8.88574219,3.8315625 8.96378906,3.620625 C9.10933594,3.22617187 9.37933594,3.02894531 9.77378906,3.02894531 C10.1661328,3.02894531 10.4361328,3.215625 10.5837891,3.58898437 C10.6618359,3.78304687 10.7008594,4.01507813 10.7008594,4.28507813 C10.7008594,4.72804688 10.612793,5.06080078 10.4366602,5.28333984 C10.2605273,5.50587891 10.0395703,5.61714844 9.77378906,5.61714844 Z M12.7448438,6.05378906 C12.8271094,6.05378906 12.9035742,6.04957031 12.9742383,6.04113281 C13.0449023,6.03269531 13.1129297,6.01898438 13.1783203,6 L13.1783203,6 L13.1783203,5.55070313 C13.1361328,5.55492187 13.0992188,5.55755859 13.0675781,5.55861328 C13.0359375,5.55966797 13.0064063,5.56019531 12.9789844,5.56019531 C12.875625,5.56019531 12.8017969,5.54859375 12.7575,5.52539062 C12.6773438,5.4853125 12.6372656,5.40621094 12.6372656,5.28808594 L12.6372656,5.28808594 L12.6372656,3.07640625 L13.1783203,3.07640625 L13.1783203,2.61128906 L12.6372656,2.61128906 L12.6372656,1.66523438 L12.0614063,1.66523438 L12.0614063,2.61128906 L11.6026172,2.61128906 L11.6026172,3.07640625 L12.0614063,3.07640625 L12.0614063,5.31972656 C12.0614063,5.53699219 12.1088672,5.71365234 12.2037891,5.84970703 C12.2987109,5.98576172 12.4790625,6.05378906 12.7448438,6.05378906 Z M15.0704297,6.12023438 C15.2433984,6.12023438 15.3984375,6.10335938 15.5355469,6.06960938 C15.7907813,6.01054687 16.0048828,5.89664062 16.1778516,5.72789063 C16.2812109,5.63085938 16.3745508,5.50587891 16.4578711,5.35294922 C16.5411914,5.20001953 16.5902344,5.06132813 16.605,4.936875 L16.605,4.936875 L16.0449609,4.936875 C16.0027734,5.08664063 15.9310547,5.21847656 15.8298047,5.33238281 C15.6526172,5.52855469 15.4153125,5.62664063 15.1178906,5.62664063 C14.799375,5.62664063 14.5641797,5.52275391 14.4123047,5.31498047 C14.2604297,5.10720703 14.1792188,4.83140625 14.1686719,4.48757813 L14.1686719,4.48757813 L16.6524609,4.48757813 C16.6524609,4.14585938 16.6355859,3.89695313 16.6018359,3.74085938 C16.5638672,3.51304688 16.4879297,3.31371094 16.3740234,3.14285156 C16.2558984,2.96355469 16.0839844,2.81748047 15.8582813,2.70462891 C15.6325781,2.59177734 15.3994922,2.53535156 15.1590234,2.53535156 C14.6823047,2.53535156 14.2962891,2.70515625 14.0009766,3.04476563 C13.7056641,3.384375 13.5580078,3.82628906 13.5580078,4.37050781 C13.5580078,4.92316406 13.7046094,5.35294922 13.9978125,5.65986328 C14.2910156,5.96677734 14.6485547,6.12023438 15.0704297,6.12023438 Z M16.0671094,4.03511719 L14.1844922,4.03511719 C14.1950391,3.74402344 14.2889063,3.50408203 14.4660938,3.31529297 C14.6432813,3.12650391 14.8626563,3.03210937 15.1242188,3.03210937 C15.4891406,3.03210937 15.7496484,3.16921875 15.9057422,3.4434375 C15.9901172,3.59109375 16.0439063,3.78832031 16.0671094,4.03511719 L16.0671094,4.03511719 Z M17.92125,6 L17.92125,4.2028125 C17.92125,3.76617187 18.0093164,3.46453125 18.1854492,3.29789062 C18.361582,3.13125 18.5572266,3.04792969 18.7723828,3.04792969 C19.0086328,3.04792969 19.17,3.12703125 19.2564844,3.28523437 C19.3113281,3.39070312 19.33875,3.55839844 19.33875,3.78832031 L19.33875,3.78832031 L19.33875,6 L19.9177734,6 L19.9177734,4.02878906 C19.9177734,3.67863281 19.998457,3.42867188 20.1598242,3.27890625 C20.3211914,3.12914062 20.5136719,3.05425781 20.7372656,3.05425781 C20.8996875,3.05425781 21.0373242,3.09644531 21.1501758,3.18082031 C21.2630273,3.26519531 21.3194531,3.42023437 21.3194531,3.6459375 L21.3194531,3.6459375 L21.3194531,6 L21.9111328,6 L21.9111328,3.74402344 C21.9111328,3.44449219 21.8668359,3.20613281 21.7782422,3.02894531 C21.6137109,2.69988281 21.3036328,2.53535156 20.8480078,2.53535156 C20.6349609,2.53535156 20.4430078,2.57912109 20.2721484,2.66666016 C20.1012891,2.75419922 19.9525781,2.88867188 19.8260156,3.07007812 C19.7500781,2.92242187 19.6657031,2.810625 19.5728906,2.7346875 C19.4083594,2.60179687 19.1910938,2.53535156 18.9210938,2.53535156 C18.6827344,2.53535156 18.4696875,2.5996875 18.2819531,2.72835938 C18.1722656,2.80429687 18.0499219,2.92558594 17.9149219,3.09222656 L17.9149219,3.09222656 L17.9149219,2.61128906 L17.3517188,2.61128906 L17.3517188,6 L17.92125,6 Z M24.2208984,6.10757812 C24.6807422,6.10757812 25.0403906,5.93039063 25.2998438,5.57601563 C25.5592969,5.22164063 25.6890234,4.7765625 25.6890234,4.24078125 C25.6890234,3.67546875 25.5577148,3.24779297 25.2950977,2.95775391 C25.0324805,2.66771484 24.6902344,2.52269531 24.2683594,2.52269531 C24.0658594,2.52269531 23.878125,2.56541016 23.7051563,2.65083984 C23.5321875,2.73626953 23.3834766,2.86019531 23.2590234,3.02261719 L23.2590234,3.02261719 L23.2590234,1.33617188 L22.7053125,1.33617188 L22.7053125,6 L23.2305469,6 L23.2305469,5.56652344 C23.3507813,5.72894531 23.4636328,5.84707031 23.5691016,5.92089844 C23.7462891,6.04535156 23.9635547,6.10757812 24.2208984,6.10757812 Z M24.1860937,5.60449219 C23.776875,5.60449219 23.4973828,5.4178125 23.3476172,5.04445313 C23.2674609,4.84617187 23.2273828,4.58777344 23.2273828,4.26925781 C23.2273828,3.82839844 23.3249414,3.51199219 23.5200586,3.32003906 C23.7151758,3.12808594 23.9424609,3.03210938 24.2019141,3.03210938 C24.4993359,3.03210938 24.7245117,3.14917969 24.8774414,3.38332031 C25.0303711,3.61746094 25.1068359,3.91277344 25.1068359,4.26925781 C25.1068359,4.67003906 25.0303711,4.99277344 24.8774414,5.23746094 C24.7245117,5.48214844 24.4940625,5.60449219 24.1860937,5.60449219 Z M27.6760547,6.12023438 C27.8490234,6.12023438 28.0040625,6.10335938 28.1411719,6.06960938 C28.3964063,6.01054687 28.6105078,5.89664062 28.7834766,5.72789063 C28.8868359,5.63085938 28.9801758,5.50587891 29.0634961,5.35294922 C29.1468164,5.20001953 29.1958594,5.06132813 29.210625,4.936875 L29.210625,4.936875 L28.6505859,4.936875 C28.6083984,5.08664063 28.5366797,5.21847656 28.4354297,5.33238281 C28.2582422,5.52855469 28.0209375,5.62664063 27.7235156,5.62664063 C27.405,5.62664063 27.1698047,5.52275391 27.0179297,5.31498047 C26.8660547,5.10720703 26.7848438,4.83140625 26.7742969,4.48757813 L26.7742969,4.48757813 L29.2580859,4.48757813 C29.2580859,4.14585938 29.2412109,3.89695313 29.2074609,3.74085938 C29.1694922,3.51304688 29.0935547,3.31371094 28.9796484,3.14285156 C28.8615234,2.96355469 28.6896094,2.81748047 28.4639063,2.70462891 C28.2382031,2.59177734 28.0051172,2.53535156 27.7646484,2.53535156 C27.2879297,2.53535156 26.9019141,2.70515625 26.6066016,3.04476563 C26.3112891,3.384375 26.1636328,3.82628906 26.1636328,4.37050781 C26.1636328,4.92316406 26.3102344,5.35294922 26.6034375,5.65986328 C26.8966406,5.96677734 27.2541797,6.12023438 27.6760547,6.12023438 Z M28.6727344,4.03511719 L26.7901172,4.03511719 C26.8006641,3.74402344 26.8945313,3.50408203 27.0717188,3.31529297 C27.2489063,3.12650391 27.4682813,3.03210937 27.7298438,3.03210937 C28.0947656,3.03210937 28.3552734,3.16921875 28.5113672,3.4434375 C28.5957422,3.59109375 28.6495313,3.78832031 28.6727344,4.03511719 L28.6727344,4.03511719 Z M30.5426953,6 L30.5426953,4.0509375 C30.5426953,3.81046875 30.6196875,3.59794922 30.7736719,3.41337891 C30.9276563,3.22880859 31.1480859,3.13652344 31.4349609,3.13652344 C31.4687109,3.13652344 31.4998242,3.13757813 31.5283008,3.1396875 C31.5567773,3.14179687 31.5878906,3.14601562 31.6216406,3.15234375 L31.6216406,3.15234375 L31.6216406,2.55117187 C31.5604688,2.54484375 31.5172266,2.540625 31.4919141,2.53851562 C31.4666016,2.53640625 31.4486719,2.53535156 31.438125,2.53535156 C31.2124219,2.53535156 31.0130859,2.61708984 30.8401172,2.78056641 C30.6671484,2.94404297 30.5585156,3.08273437 30.5142188,3.19664062 L30.5142188,3.19664062 L30.5142188,2.61128906 L29.9731641,2.61128906 L29.9731641,6 L30.5426953,6 Z M35.791875,6 L35.791875,1.48804687 L35.3425781,1.48804687 C35.2624219,1.83820313 35.1411328,2.06021484 34.9787109,2.15408203 C34.8162891,2.24794922 34.5294141,2.31492187 34.1180859,2.355 L34.1180859,2.355 L34.1180859,2.79164062 L35.184375,2.79164062 L35.184375,6 L35.791875,6 Z M38.8863281,6.12972656 C39.3757031,6.12972656 39.7543359,5.99103516 40.0222266,5.71365234 C40.2901172,5.43626953 40.4240625,5.09824219 40.4240625,4.69957031 C40.4240625,4.36207031 40.3238672,4.08785156 40.1234766,3.87691406 C40.0158984,3.76511719 39.8682422,3.66597656 39.6805078,3.57949219 C39.8492578,3.48457031 39.9737109,3.38753906 40.0538672,3.28839844 C40.1973047,3.11332031 40.2690234,2.88445312 40.2690234,2.60179687 C40.2690234,2.2959375 40.145625,2.02857422 39.8988281,1.79970703 C39.6520313,1.57083984 39.3113672,1.45640625 38.8768359,1.45640625 C38.4275391,1.45640625 38.0805469,1.57769531 37.8358594,1.82027344 C37.5911719,2.06285156 37.4688281,2.35289062 37.4688281,2.69039062 C37.4688281,2.96039062 37.5521484,3.17976562 37.7187891,3.34851562 C37.8073828,3.43921875 37.9307812,3.51832031 38.0889844,3.58582031 C37.8316406,3.68917969 37.6375781,3.83841797 37.5067969,4.03353516 C37.3760156,4.22865234 37.310625,4.46015625 37.310625,4.72804688 C37.310625,5.18367187 37.4630273,5.53119141 37.767832,5.77060547 C38.0726367,6.01001953 38.4454687,6.12972656 38.8863281,6.12972656 Z M38.8641797,3.3675 C38.6490234,3.3675 38.4623437,3.30738281 38.3041406,3.18714844 C38.1459375,3.06691406 38.0668359,2.90027344 38.0668359,2.68722656 C38.0668359,2.49738281 38.1280078,2.33179688 38.2503516,2.19046875 C38.3726953,2.04914063 38.5709766,1.97847656 38.8451953,1.97847656 C39.1215234,1.97847656 39.3271875,2.04914063 39.4621875,2.19046875 C39.5971875,2.33179688 39.6646875,2.48683594 39.6646875,2.65558594 C39.6646875,2.84964844 39.5940234,3.01681641 39.4526953,3.15708984 C39.3113672,3.29736328 39.1151953,3.3675 38.8641797,3.3675 Z M38.8989844,5.61082031 C38.5699219,5.61082031 38.3268164,5.52486328 38.169668,5.35294922 C38.0125195,5.18103516 37.9339453,4.97695312 37.9339453,4.74070312 C37.9339453,4.46648438 38.0199023,4.25185547 38.1918164,4.09681641 C38.3637305,3.94177734 38.5857422,3.86425781 38.8578516,3.86425781 C39.1383984,3.86425781 39.3683203,3.94019531 39.5476172,4.09207031 C39.7269141,4.24394531 39.8165625,4.46648438 39.8165625,4.7596875 C39.8165625,5.04234375 39.7295508,5.25486328 39.5555273,5.39724609 C39.3815039,5.53962891 39.1626562,5.61082031 38.8989844,5.61082031 Z M41.2435547,6.961875 C41.4924609,6.91757813 41.6675391,6.80050781 41.7687891,6.61066406 C41.8700391,6.42082031 41.9206641,6.20039063 41.9206641,5.949375 L41.9206641,5.949375 L41.9206641,5.31023438 L41.2435547,5.31023438 L41.2435547,6 L41.5884375,6 C41.5926562,6.01476563 41.595293,6.02794922 41.5963477,6.03955078 C41.5974023,6.05115234 41.5979297,6.06433594 41.5979297,6.07910156 C41.5979297,6.16769531 41.5821094,6.25945313 41.5504688,6.354375 C41.4914062,6.53367187 41.3891016,6.63597656 41.2435547,6.66128906 L41.2435547,6.66128906 L41.2435547,6.961875 Z M47.6191406,6 L47.6191406,5.46210938 L45.1448437,5.46210938 C45.1996875,5.23851562 45.3325781,5.03496094 45.5435156,4.85144531 C45.6616406,4.74808594 45.8240625,4.63945313 46.0307812,4.52554687 L46.0307812,4.52554687 L46.4642578,4.28507813 C46.8460547,4.07203125 47.1107812,3.890625 47.2584375,3.74085938 C47.5136719,3.48351563 47.6412891,3.1734375 47.6412891,2.810625 C47.6412891,2.46679688 47.521582,2.15460937 47.282168,1.8740625 C47.0427539,1.59351563 46.6635937,1.45324219 46.1446875,1.45324219 C45.5203125,1.45324219 45.0847266,1.67261719 44.8379297,2.11136719 C44.6987109,2.36027344 44.6259375,2.68195313 44.6196094,3.07640625 L44.6196094,3.07640625 L45.1986328,3.07640625 C45.2070703,2.79585938 45.2513672,2.57648438 45.3315234,2.41828125 C45.4812891,2.12296875 45.7512891,1.9753125 46.1415234,1.9753125 C46.4051953,1.9753125 46.6161328,2.05283203 46.7743359,2.20787109 C46.9325391,2.36291016 47.0116406,2.57226563 47.0116406,2.8359375 C47.0116406,3.06164063 46.9251562,3.26203125 46.7521875,3.43710938 C46.6425,3.54890625 46.4516016,3.68390625 46.1794922,3.84210938 L46.1794922,3.84210938 L45.5719922,4.19332031 C45.1648828,4.42957031 44.8911914,4.6921875 44.750918,4.98117188 C44.6106445,5.27015625 44.5299609,5.60976563 44.5088672,6 L44.5088672,6 L47.6191406,6 Z M49.6599609,6.12339844 C50.2632422,6.12339844 50.6977734,5.83441406 50.9635547,5.25644531 C51.1470703,4.85355469 51.2388281,4.34414063 51.2388281,3.72820313 C51.2388281,3.07851563 51.1375781,2.56699219 50.9350781,2.19363281 C50.6735156,1.71058594 50.2495312,1.4690625 49.663125,1.4690625 C49.0113281,1.4690625 48.5609766,1.81289063 48.3120703,2.50054687 C48.1791797,2.8696875 48.1127344,3.31160156 48.1127344,3.82628906 C48.1127344,4.49074219 48.2234766,5.02019531 48.4449609,5.41464844 C48.7107422,5.88714844 49.1157422,6.12339844 49.6599609,6.12339844 Z M49.6567969,5.60449219 C49.2897656,5.60449219 49.0303125,5.39039063 48.8784375,4.9621875 C48.7792969,4.68164062 48.7297266,4.31039063 48.7297266,3.8484375 C48.7297266,3.23460937 48.8072461,2.77001953 48.9622852,2.45466797 C49.1173242,2.13931641 49.3625391,1.98164063 49.6979297,1.98164063 C50.0628516,1.98164063 50.3085938,2.14775391 50.4351562,2.47998047 C50.5617187,2.81220703 50.625,3.23566406 50.625,3.75035156 C50.625,4.46332031 50.5374609,4.95058594 50.3623828,5.21214844 C50.1873047,5.47371094 49.9521094,5.60449219 49.6567969,5.60449219 Z M54.826875,6 L54.826875,5.46210938 L52.3525781,5.46210938 C52.4074219,5.23851562 52.5403125,5.03496094 52.75125,4.85144531 C52.869375,4.74808594 53.0317969,4.63945313 53.2385156,4.52554687 L53.2385156,4.52554687 L53.6719922,4.28507813 C54.0537891,4.07203125 54.3185156,3.890625 54.4661719,3.74085938 C54.7214062,3.48351563 54.8490234,3.1734375 54.8490234,2.810625 C54.8490234,2.46679688 54.7293164,2.15460937 54.4899023,1.8740625 C54.2504883,1.59351563 53.8713281,1.45324219 53.3524219,1.45324219 C52.7280469,1.45324219 52.2924609,1.67261719 52.0456641,2.11136719 C51.9064453,2.36027344 51.8336719,2.68195313 51.8273437,3.07640625 L51.8273437,3.07640625 L52.4063672,3.07640625 C52.4148047,2.79585938 52.4591016,2.57648438 52.5392578,2.41828125 C52.6890234,2.12296875 52.9590234,1.9753125 53.3492578,1.9753125 C53.6129297,1.9753125 53.8238672,2.05283203 53.9820703,2.20787109 C54.1402734,2.36291016 54.219375,2.57226563 54.219375,2.8359375 C54.219375,3.06164063 54.1328906,3.26203125 53.9599219,3.43710938 C53.8502344,3.54890625 53.6593359,3.68390625 53.3872266,3.84210938 L53.3872266,3.84210938 L52.7797266,4.19332031 C52.3726172,4.42957031 52.0989258,4.6921875 51.9586523,4.98117188 C51.8183789,5.27015625 51.7376953,5.60976563 51.7166016,6 L51.7166016,6 L54.826875,6 Z M56.8676953,6.12339844 C57.4709766,6.12339844 57.9055078,5.83441406 58.1712891,5.25644531 C58.3548047,4.85355469 58.4465625,4.34414063 58.4465625,3.72820313 C58.4465625,3.07851563 58.3453125,2.56699219 58.1428125,2.19363281 C57.88125,1.71058594 57.4572656,1.4690625 56.8708594,1.4690625 C56.2190625,1.4690625 55.7687109,1.81289063 55.5198047,2.50054687 C55.3869141,2.8696875 55.3204687,3.31160156 55.3204687,3.82628906 C55.3204687,4.49074219 55.4312109,5.02019531 55.6526953,5.41464844 C55.9184766,5.88714844 56.3234766,6.12339844 56.8676953,6.12339844 Z M56.8645312,5.60449219 C56.4975,5.60449219 56.2380469,5.39039063 56.0861719,4.9621875 C55.9870313,4.68164062 55.9374609,4.31039063 55.9374609,3.8484375 C55.9374609,3.23460937 56.0149805,2.77001953 56.1700195,2.45466797 C56.3250586,2.13931641 56.5702734,1.98164063 56.9056641,1.98164063 C57.2705859,1.98164063 57.5163281,2.14775391 57.6428906,2.47998047 C57.7694531,2.81220703 57.8327344,3.23566406 57.8327344,3.75035156 C57.8327344,4.46332031 57.7451953,4.95058594 57.5701172,5.21214844 C57.3950391,5.47371094 57.1598438,5.60449219 56.8645312,5.60449219 Z" id="path-4"></path>
        <path d="M1.80351542,6.12339844 C2.40679667,6.12339844 2.84132792,5.83441406 3.10710917,5.25644531 C3.2906248,4.85355469 3.38238261,4.34414062 3.38238261,3.72820312 C3.38238261,3.07851562 3.28113261,2.56699219 3.07863261,2.19363281 C2.81707011,1.71058594 2.39308574,1.4690625 1.80667949,1.4690625 C1.15488261,1.4690625 0.704531047,1.81289062 0.455624798,2.50054687 C0.322734173,2.8696875 0.25628886,3.31160156 0.25628886,3.82628906 C0.25628886,4.49074219 0.367031048,5.02019531 0.588515423,5.41464844 C0.854296673,5.88714844 1.25929667,6.12339844 1.80351542,6.12339844 Z M1.80035136,5.60449219 C1.43332011,5.60449219 1.17386699,5.39039063 1.02199199,4.9621875 C0.92285136,4.68164062 0.873281048,4.31039062 0.873281048,3.8484375 C0.873281048,3.23460937 0.950800579,2.77001953 1.10583964,2.45466797 C1.2608787,2.13931641 1.50609355,1.98164062 1.84148417,1.98164062 C2.20640605,1.98164062 2.45214824,2.14775391 2.57871074,2.47998047 C2.70527324,2.81220703 2.76855449,3.23566406 2.76855449,3.75035156 C2.76855449,4.46332031 2.68101542,4.95058594 2.5059373,5.21214844 C2.33085917,5.47371094 2.09566386,5.60449219 1.80035136,5.60449219 Z M4.87265605,6 L4.87265605,5.31023438 L4.21136699,5.31023438 L4.21136699,6 L4.87265605,6 Z M7.20773417,6.12339844 C7.81101542,6.12339844 8.24554667,5.83441406 8.51132792,5.25644531 C8.69484355,4.85355469 8.78660136,4.34414062 8.78660136,3.72820312 C8.78660136,3.07851562 8.68535136,2.56699219 8.48285136,2.19363281 C8.22128886,1.71058594 7.79730448,1.4690625 7.21089824,1.4690625 C6.55910136,1.4690625 6.1087498,1.81289062 5.85984355,2.50054687 C5.72695292,2.8696875 5.66050761,3.31160156 5.66050761,3.82628906 C5.66050761,4.49074219 5.7712498,5.02019531 5.99273417,5.41464844 C6.25851542,5.88714844 6.66351542,6.12339844 7.20773417,6.12339844 Z M7.20457011,5.60449219 C6.83753886,5.60449219 6.57808574,5.39039063 6.42621074,4.9621875 C6.32707011,4.68164062 6.2774998,4.31039062 6.2774998,3.8484375 C6.2774998,3.23460937 6.35501933,2.77001953 6.51005839,2.45466797 C6.66509745,2.13931641 6.9103123,1.98164062 7.24570292,1.98164062 C7.6106248,1.98164062 7.85636699,2.14775391 7.98292949,2.47998047 C8.10949199,2.81220703 8.17277323,3.23566406 8.17277323,3.75035156 C8.17277323,4.46332031 8.08523417,4.95058594 7.91015605,5.21214844 C7.73507792,5.47371094 7.49988261,5.60449219 7.20457011,5.60449219 Z M10.8116014,6.12339844 C11.4148826,6.12339844 11.8494139,5.83441406 12.1151951,5.25644531 C12.2987107,4.85355469 12.3904685,4.34414062 12.3904685,3.72820312 C12.3904685,3.07851562 12.2892185,2.56699219 12.0867185,2.19363281 C11.825156,1.71058594 11.4011717,1.4690625 10.8147654,1.4690625 C10.1629685,1.4690625 9.71261698,1.81289062 9.46371073,2.50054687 C9.33082011,2.8696875 9.2643748,3.31160156 9.2643748,3.82628906 C9.2643748,4.49074219 9.37511699,5.02019531 9.59660136,5.41464844 C9.86238261,5.88714844 10.2673826,6.12339844 10.8116014,6.12339844 Z M10.8084373,5.60449219 C10.441406,5.60449219 10.1819529,5.39039063 10.0300779,4.9621875 C9.9309373,4.68164062 9.88136698,4.31039062 9.88136698,3.8484375 C9.88136698,3.23460937 9.95888652,2.77001953 10.1139256,2.45466797 C10.2689646,2.13931641 10.5141795,1.98164062 10.8495701,1.98164062 C11.214492,1.98164062 11.4602342,2.14775391 11.5867967,2.47998047 C11.7133592,2.81220703 11.7766404,3.23566406 11.7766404,3.75035156 C11.7766404,4.46332031 11.6891014,4.95058594 11.5140232,5.21214844 C11.3389451,5.47371094 11.1037498,5.60449219 10.8084373,5.60449219 Z M14.3047264,6.1265625 C14.9649607,6.1265625 15.433242,5.77007813 15.7095701,5.05710937 C15.8762107,4.62890625 15.959531,4.13742187 15.959531,3.58265625 C15.959531,3.09117187 15.8899217,2.68195312 15.7507029,2.355 C15.4996873,1.76015625 15.0440623,1.46273437 14.3838279,1.46273437 C13.8944529,1.46273437 13.5242576,1.61882812 13.273242,1.93101562 C13.0222264,2.24320312 12.8967185,2.60496094 12.8967185,3.01628906 C12.8967185,3.44449219 13.0238084,3.79464844 13.2779881,4.06675781 C13.5321678,4.33886719 13.8775779,4.47492187 14.3142185,4.47492187 C14.5293748,4.47492187 14.7302928,4.43431641 14.9169725,4.35310547 C15.1036521,4.27189453 15.2602732,4.13109375 15.3868357,3.93070312 C15.3066795,4.6246875 15.1706248,5.08505859 14.9786717,5.31181641 C14.7867185,5.53857422 14.5546873,5.65195313 14.2825779,5.65195313 C14.137031,5.65195313 14.0062498,5.6203125 13.8902342,5.55703125 C13.664531,5.43679687 13.543242,5.21953125 13.526367,4.90523438 L13.526367,4.90523438 L12.9505076,4.90523438 C12.9505076,5.25539063 13.0654685,5.54648438 13.2953904,5.77851562 C13.5253123,6.01054688 13.8617576,6.1265625 14.3047264,6.1265625 Z M14.390156,3.975 C14.0758592,3.975 13.846992,3.88798828 13.7035545,3.71396484 C13.560117,3.53994141 13.4883982,3.30527344 13.4883982,3.00996094 C13.4883982,2.69777344 13.5701365,2.44833984 13.7336131,2.26166016 C13.8970896,2.07498047 14.1180467,1.98164062 14.3964842,1.98164062 C14.6559373,1.98164062 14.8695115,2.06337891 15.0372068,2.22685547 C15.2049021,2.39033203 15.2887498,2.63871094 15.2887498,2.97199219 C15.2887498,3.34324219 15.19541,3.60322266 15.0087303,3.75193359 C14.8220506,3.90064453 14.6158592,3.975 14.390156,3.975 Z M18.5635545,6 L18.5635545,1.48804687 L18.1142576,1.48804687 C18.0341014,1.83820312 17.9128123,2.06021484 17.7503904,2.15408203 C17.5879685,2.24794922 17.3010935,2.31492187 16.8897654,2.355 L16.8897654,2.355 L16.8897654,2.79164062 L17.9560545,2.79164062 L17.9560545,6 L18.5635545,6 Z M21.3858982,6 C21.4829295,5.5359375 21.562031,5.19949219 21.6232029,4.99066406 C21.7181248,4.66582031 21.8573435,4.30617187 22.0408592,3.91171875 C22.2264842,3.50671875 22.4400584,3.12914062 22.6815818,2.77898438 C22.9231053,2.42882812 23.1166404,2.18308594 23.2621873,2.04175781 L23.2621873,2.04175781 L23.2621873,1.545 L20.110781,1.545 L20.110781,2.11769531 L22.6167185,2.11769531 C22.2982029,2.48261719 21.9944529,2.91609375 21.7054685,3.418125 C21.2160935,4.27453125 20.8996873,5.13515625 20.7562498,6 L20.7562498,6 L21.3858982,6 Z M27.7203514,6 C28.3320701,6 28.7782029,5.81859375 29.0587498,5.45578125 C29.2464842,5.21320312 29.3403514,4.94214844 29.3403514,4.64261719 C29.3403514,4.28613281 29.2359373,4.00664062 29.0271092,3.80414062 C28.9089842,3.69023437 28.730742,3.58792969 28.4923826,3.49722656 C28.6548045,3.41496094 28.7792576,3.32425781 28.865742,3.22511719 C29.0323826,3.03738281 29.1157029,2.79691406 29.1157029,2.50371094 C29.1157029,2.25269531 29.0482029,2.03121094 28.9132029,1.83925781 C28.683281,1.51441406 28.2962107,1.35199219 27.751992,1.35199219 L27.751992,1.35199219 L25.7554685,1.35199219 L25.7554685,6 L27.7203514,6 Z M27.5178514,3.316875 L26.3724607,3.316875 L26.3724607,1.87722656 L27.4957029,1.87722656 C27.7699217,1.87722656 27.9766404,1.90675781 28.1158592,1.96582031 C28.362656,2.07128906 28.4860545,2.27589844 28.4860545,2.57964844 C28.4860545,2.88128906 28.3700389,3.09011719 28.1380076,3.20613281 C27.9903514,3.27996094 27.7836326,3.316875 27.5178514,3.316875 L27.5178514,3.316875 Z M27.7298435,5.46210937 L26.3724607,5.46210937 L26.3724607,3.82628906 L27.6222654,3.82628906 C27.8859373,3.82628906 28.0979295,3.85898438 28.258242,3.924375 C28.5598826,4.04671875 28.7107029,4.27664062 28.7107029,4.61414063 C28.7107029,4.81453125 28.6590232,4.98539063 28.5556639,5.12671875 C28.3911326,5.3503125 28.1158592,5.46210937 27.7298435,5.46210937 L27.7298435,5.46210937 Z M31.9095701,6 L31.9095701,1.90570312 L33.475781,1.90570312 L33.475781,1.35199219 L29.7042185,1.35199219 L29.7042185,1.90570312 L31.2704295,1.90570312 L31.2704295,6 L31.9095701,6 Z M35.9279295,6.12023437 C36.5544139,6.12023437 37.0522264,5.92089844 37.421367,5.52222656 C37.7293357,5.19105469 37.910742,4.78078125 37.9655857,4.29140625 L37.9655857,4.29140625 L37.3517576,4.29140625 C37.2884764,4.59726562 37.1924998,4.8440625 37.0638279,5.03179687 C36.8212498,5.38828125 36.4679295,5.56652344 36.003867,5.56652344 C35.4997264,5.56652344 35.1205662,5.39724609 34.8663865,5.05869141 C34.6122068,4.72013672 34.485117,4.27875 34.485117,3.73453125 C34.485117,3.07007812 34.6259178,2.57701172 34.9075193,2.25533203 C35.1891209,1.93365234 35.5587889,1.7728125 36.0165232,1.7728125 C36.391992,1.7728125 36.6836131,1.86035156 36.8913865,2.03542969 C37.09916,2.21050781 37.2378514,2.4478125 37.3074607,2.74734375 L37.3074607,2.74734375 L37.9212889,2.74734375 C37.8854295,2.35289062 37.7050779,2.000625 37.3802342,1.69054687 C37.0553904,1.38046875 36.5987107,1.22542969 36.0101951,1.22542969 C35.3204295,1.22542969 34.7793748,1.46378906 34.387031,1.94050781 C34.0242185,2.37925781 33.8428123,2.94140625 33.8428123,3.62695312 C33.8428123,4.52976562 34.0843357,5.19738281 34.5673826,5.62980469 C34.9344139,5.95675781 35.3879295,6.12023437 35.9279295,6.12023437 Z" id="path-5"></path>
    </defs>
    <g id="Page-1" stroke="none" stroke-width="1" fill="none" fill-rule="evenodd">
        <g id="Group-60" transform="translate(9.000000, 9.000000)">
            <g >
                <use fill="black" fill-opacity="1" filter="url(#filter-2)" xlink:href="#payouts--confirmation-path-1"></use>
                <use fill="#FFFFFF" fill-rule="evenodd" xlink:href="#payouts--confirmation-path-1"></use>
            </g>
            <polygon  fill-opacity="0" fill="#FFFFFF" fill-rule="nonzero" points="7.99360576e-14 0 172 0 172 111 -1.56319402e-13 111"></polygon>
            <g id="+$100.00" transform="translate(126.900000, 9.480000)" fill="#000000" fill-rule="nonzero">
                <g id="+$100.00">
                    <use xlink:href="#path-3"></use>
                    <use xlink:href="#path-3"></use>
                </g>
            </g>
            <g id="Group-5" transform="translate(4.860000, 9.180000)" fill="#2FCFA4" fill-rule="nonzero">
                <circle id="Oval-204" opacity="0.101872" cx="10.8" cy="10.8" r="10.8"></circle>
                <g id="Generic/Small/Back-" transform="translate(11.480000, 10.416000) rotate(-90.000000) translate(-11.480000, -10.416000) translate(5.480000, 5.416000)">
                    <g id="arrow-left" transform="translate(0.129600, 0.194400)">
                        <polygon id="Path" points="4.30542 8.4672 5.20506 7.58256714 2.44188 4.8654806 10.2816 4.8654806 10.2816 3.6017194 2.44188 3.6017194 5.20506 0.884632838 4.30542 0 0 4.2336"></polygon>
                    </g>
                </g>
            </g>
            <g id="September-18,-2020" transform="translate(31.940000, 20.900000)" fill-rule="nonzero">
                <g id="September18,2020">
                    <use fill="#000000" xlink:href="#path-4"></use>
                    <use fill="#7A7E91" xlink:href="#path-4"></use>
                </g>
            </g>
            <g id="0.00917-BTC" transform="translate(127.900000, 20.900000)" fill-rule="nonzero">
                <g id="0.00917BTC">
                    <use fill="#000000" xlink:href="#path-5"></use>
                    <use fill="#7A7E91" xlink:href="#path-5"></use>
                </g>
            </g>
            <path d="M35.1245117,16 L35.1245117,13.609375 L37.3261719,9.6015625 L36.359375,9.6015625 L34.6982422,12.8183594 L33.0415039,9.6015625 L32.065918,9.6015625 L34.2675781,13.609375 L34.2675781,16 L35.1245117,16 Z M39.6904297,16.0878906 C40.1269531,16.0878906 40.5085449,15.9831543 40.8352051,15.7736816 C41.1618652,15.564209 41.4130859,15.2770996 41.5888672,14.9123535 C41.7646484,14.5476074 41.8525391,14.1352539 41.8525391,13.675293 L41.8525391,13.675293 L41.8525391,13.5742188 C41.8525391,13.1142578 41.7646484,12.7011719 41.5888672,12.3349609 C41.4130859,11.96875 41.1611328,11.6809082 40.8330078,11.4714355 C40.5048828,11.2619629 40.1210938,11.1572266 39.6816406,11.1572266 C39.2480469,11.1572266 38.8679199,11.2619629 38.5412598,11.4714355 C38.2145996,11.6809082 37.9633789,11.96875 37.7875977,12.3349609 C37.6118164,12.7011719 37.5239258,13.1142578 37.5239258,13.5742188 L37.5239258,13.5742188 L37.5239258,13.675293 C37.5239258,14.1352539 37.6125488,14.5476074 37.7897949,14.9123535 C37.967041,15.2770996 38.2189941,15.564209 38.5456543,15.7736816 C38.8723145,15.9831543 39.2539062,16.0878906 39.6904297,16.0878906 Z M39.6904297,15.4287109 C39.4003906,15.4287109 39.1542969,15.3503418 38.9521484,15.1936035 C38.75,15.0368652 38.5983887,14.8251953 38.4973145,14.5585938 C38.3962402,14.2919922 38.3457031,13.9975586 38.3457031,13.675293 L38.3457031,13.675293 L38.3457031,13.5742188 C38.3457031,13.2519531 38.3962402,12.9575195 38.4973145,12.690918 C38.5983887,12.4243164 38.7492676,12.2119141 38.9499512,12.0537109 C39.1506348,11.8955078 39.3945312,11.8164062 39.6816406,11.8164062 C39.9716797,11.8164062 40.2177734,11.8955078 40.4199219,12.0537109 C40.6220703,12.2119141 40.7744141,12.4243164 40.8769531,12.690918 C40.9794922,12.9575195 41.0307617,13.2519531 41.0307617,13.5742188 L41.0307617,13.5742188 L41.0307617,13.675293 C41.0307617,13.9975586 40.9802246,14.2919922 40.8791504,14.5585938 C40.7780762,14.8251953 40.6264648,15.0368652 40.4243164,15.1936035 C40.222168,15.3503418 39.9775391,15.4287109 39.6904297,15.4287109 Z M44.4145508,16.0878906 C45.0268555,16.0878906 45.4912109,15.9018555 45.8076172,15.5297852 L45.8076172,15.5297852 L45.8208008,16 L46.6030273,16 L46.6030273,11.2451172 L45.78125,11.2451172 L45.78125,14.7124023 C45.5732422,15.1723633 45.1616211,15.4023438 44.5463867,15.4023438 C44.2915039,15.4023438 44.0827637,15.3210449 43.920166,15.1584473 C43.7575684,14.9958496 43.6762695,14.7167969 43.6762695,14.3212891 L43.6762695,14.3212891 L43.6762695,11.2451172 L42.8544922,11.2451172 L42.8544922,14.3125 C42.8544922,14.921875 42.9921875,15.3701172 43.2675781,15.6572266 C43.5429688,15.9443359 43.925293,16.0878906 44.4145508,16.0878906 Z M48.6552734,16 L48.6552734,12.6206055 C48.7460938,12.4038086 48.8815918,12.2353516 49.0617676,12.1152344 C49.2419434,11.9951172 49.4667969,11.9350586 49.7363281,11.9350586 C49.8769531,11.9350586 50.0102539,11.9467773 50.1362305,11.9702148 L50.1362305,11.9702148 L50.1362305,11.21875 C50.1069336,11.2041016 50.0527344,11.1901855 49.9736328,11.177002 C49.8945312,11.1638184 49.8286133,11.1572266 49.7758789,11.1572266 C49.5239258,11.1572266 49.3041992,11.2121582 49.1166992,11.3220215 C48.9291992,11.4318848 48.7739258,11.5864258 48.6508789,11.7856445 L48.6508789,11.7856445 L48.6333008,11.2451172 L47.8334961,11.2451172 L47.8334961,16 L48.6552734,16 Z M55.5239258,16.0878906 C56.0219727,16.0878906 56.4445801,15.9978027 56.791748,15.817627 C57.138916,15.6374512 57.4077148,15.3884277 57.5981445,15.0705566 C57.7885742,14.7526855 57.9072266,14.3857422 57.9541016,13.9697266 L57.9541016,13.9697266 L57.1015625,13.9697266 C57.0488281,14.2890625 56.9675293,14.5527344 56.857666,14.7607422 C56.7478027,14.96875 56.5852051,15.1276855 56.369873,15.2375488 C56.154541,15.3474121 55.8725586,15.4023438 55.5239258,15.4023438 C55.1606445,15.4023438 54.855957,15.3027344 54.6098633,15.1035156 C54.3637695,14.9042969 54.1806641,14.6333008 54.0605469,14.2905273 C53.9404297,13.9477539 53.8803711,13.5595703 53.8803711,13.1259766 L53.8803711,13.1259766 L53.8803711,12.4711914 C53.8803711,12.0141602 53.9455566,11.6157227 54.0759277,11.2758789 C54.2062988,10.9360352 54.4003906,10.6723633 54.6582031,10.4848633 C54.9160156,10.2973633 55.230957,10.2036133 55.6030273,10.2036133 C56.0717773,10.2036133 56.421875,10.3259277 56.6533203,10.5705566 C56.8847656,10.8151855 57.0341797,11.1762695 57.1015625,11.6538086 L57.1015625,11.6538086 L57.9541016,11.6538086 C57.9101562,11.2231445 57.7937012,10.8474121 57.6047363,10.5266113 C57.4157715,10.2058105 57.152832,9.95678711 56.815918,9.77954102 C56.4790039,9.60229492 56.074707,9.51367188 55.6030273,9.51367188 C55.081543,9.51367188 54.6259766,9.63598633 54.2363281,9.88061523 C53.8466797,10.1252441 53.5471191,10.4716797 53.3376465,10.9199219 C53.1281738,11.3681641 53.0234375,11.8881836 53.0234375,12.4799805 L53.0234375,12.4799805 L53.0234375,13.1259766 C53.0234375,13.7148438 53.1274414,14.2333984 53.3354492,14.6816406 C53.543457,15.1298828 53.8364258,15.4763184 54.2143555,15.7209473 C54.5922852,15.9655762 55.0288086,16.0878906 55.5239258,16.0878906 Z M60.9291992,16.0878906 C61.3657227,16.0878906 61.7473145,15.9831543 62.0739746,15.7736816 C62.4006348,15.564209 62.6518555,15.2770996 62.8276367,14.9123535 C63.003418,14.5476074 63.0913086,14.1352539 63.0913086,13.675293 L63.0913086,13.675293 L63.0913086,13.5742188 C63.0913086,13.1142578 63.003418,12.7011719 62.8276367,12.3349609 C62.6518555,11.96875 62.3999023,11.6809082 62.0717773,11.4714355 C61.7436523,11.2619629 61.3598633,11.1572266 60.9204102,11.1572266 C60.4868164,11.1572266 60.1066895,11.2619629 59.7800293,11.4714355 C59.4533691,11.6809082 59.2021484,11.96875 59.0263672,12.3349609 C58.8505859,12.7011719 58.7626953,13.1142578 58.7626953,13.5742188 L58.7626953,13.5742188 L58.7626953,13.675293 C58.7626953,14.1352539 58.8513184,14.5476074 59.0285645,14.9123535 C59.2058105,15.2770996 59.4577637,15.564209 59.7844238,15.7736816 C60.111084,15.9831543 60.4926758,16.0878906 60.9291992,16.0878906 Z M60.9291992,15.4287109 C60.6391602,15.4287109 60.3930664,15.3503418 60.190918,15.1936035 C59.9887695,15.0368652 59.8371582,14.8251953 59.736084,14.5585938 C59.6350098,14.2919922 59.5844727,13.9975586 59.5844727,13.675293 L59.5844727,13.675293 L59.5844727,13.5742188 C59.5844727,13.2519531 59.6350098,12.9575195 59.736084,12.690918 C59.8371582,12.4243164 59.9880371,12.2119141 60.1887207,12.0537109 C60.3894043,11.8955078 60.6333008,11.8164062 60.9204102,11.8164062 C61.2104492,11.8164062 61.456543,11.8955078 61.6586914,12.0537109 C61.8608398,12.2119141 62.0131836,12.4243164 62.1157227,12.690918 C62.2182617,12.9575195 62.2695312,13.2519531 62.2695312,13.5742188 L62.2695312,13.5742188 L62.2695312,13.675293 C62.2695312,13.9975586 62.2189941,14.2919922 62.1179199,14.5585938 C62.0168457,14.8251953 61.8652344,15.0368652 61.6630859,15.1936035 C61.4609375,15.3503418 61.2163086,15.4287109 60.9291992,15.4287109 Z M64.9282227,16 L64.9282227,12.5107422 C65.0219727,12.2998047 65.1582031,12.1350098 65.3369141,12.0163574 C65.515625,11.8977051 65.7412109,11.8383789 66.0136719,11.8383789 C66.6904297,11.8383789 67.0288086,12.1826172 67.0288086,12.8710938 L67.0288086,12.8710938 L67.0288086,16 L67.8505859,16 L67.8505859,12.8491211 C67.8710938,12.6586914 67.9260254,12.4873047 68.0153809,12.3349609 C68.1047363,12.1826172 68.2285156,12.0617676 68.3867188,11.9724121 C68.5449219,11.8830566 68.7294922,11.8383789 68.9404297,11.8383789 C69.2714844,11.8383789 69.5227051,11.9152832 69.6940918,12.0690918 C69.8654785,12.2229004 69.9511719,12.4887695 69.9511719,12.8666992 L69.9511719,12.8666992 L69.9511719,16 L70.7729492,16 L70.7729492,12.8754883 C70.7729492,12.2866211 70.6381836,11.8530273 70.3686523,11.574707 C70.0991211,11.2963867 69.7036133,11.1572266 69.1821289,11.1572266 C68.8510742,11.1572266 68.557373,11.2246094 68.3010254,11.359375 C68.0446777,11.4941406 67.8344727,11.6787109 67.6704102,11.9130859 C67.550293,11.6582031 67.3723145,11.4685059 67.1364746,11.3439941 C66.9006348,11.2194824 66.6259766,11.1572266 66.3125,11.1572266 C66.0107422,11.1572266 65.7426758,11.2092285 65.5083008,11.3132324 C65.2739258,11.4172363 65.074707,11.565918 64.9106445,11.7592773 L64.9106445,11.7592773 L64.8842773,11.2451172 L64.1064453,11.2451172 L64.1064453,16 L64.9282227,16 Z M72.8208008,17.828125 L72.8208008,15.5429688 C73.1518555,15.90625 73.6044922,16.0878906 74.1787109,16.0878906 C74.5625,16.0878906 74.8928223,15.9846191 75.1696777,15.7780762 C75.4465332,15.5715332 75.6574707,15.2858887 75.8024902,14.9211426 C75.9475098,14.5563965 76.0200195,14.1411133 76.0200195,13.675293 L76.0200195,13.675293 L76.0200195,13.5830078 C76.0200195,13.0966797 75.9482422,12.6711426 75.8046875,12.3063965 C75.6611328,11.9416504 75.4501953,11.6589355 75.171875,11.458252 C74.8935547,11.2575684 74.5581055,11.1572266 74.1655273,11.1572266 C73.5795898,11.1572266 73.1210938,11.359375 72.7900391,11.7636719 L72.7900391,11.7636719 L72.7460938,11.2451172 L71.9990234,11.2451172 L71.9990234,17.828125 L72.8208008,17.828125 Z M73.9282227,15.4287109 C73.4331055,15.4287109 73.0639648,15.2133789 72.8208008,14.7827148 L72.8208008,14.7827148 L72.8208008,12.4931641 C72.9321289,12.2910156 73.0786133,12.1313477 73.2602539,12.0141602 C73.4418945,11.8969727 73.6616211,11.8383789 73.9194336,11.8383789 C74.2036133,11.8383789 74.4416504,11.9160156 74.6335449,12.0712891 C74.8254395,12.2265625 74.9675293,12.4353027 75.0598145,12.6975098 C75.1520996,12.9597168 75.1982422,13.2548828 75.1982422,13.5830078 L75.1982422,13.5830078 L75.1982422,13.675293 C75.1982422,14.003418 75.1520996,14.2993164 75.0598145,14.5629883 C74.9675293,14.8266602 74.8261719,15.0368652 74.6357422,15.1936035 C74.4453125,15.3503418 74.2094727,15.4287109 73.9282227,15.4287109 Z M78.5249023,16.0878906 C78.800293,16.0878906 79.0529785,16.0344238 79.282959,15.9274902 C79.5129395,15.8205566 79.7099609,15.6791992 79.8740234,15.503418 C79.9003906,15.7202148 79.9384766,15.8857422 79.9882812,16 L79.9882812,16 L80.8452148,16 L80.8452148,15.9296875 C80.7924805,15.8066406 80.7514648,15.6564941 80.722168,15.479248 C80.6928711,15.302002 80.6782227,15.1298828 80.6782227,14.9628906 L80.6782227,14.9628906 L80.6782227,12.7480469 C80.6782227,12.4023438 80.6035156,12.1101074 80.4541016,11.8713379 C80.3046875,11.6325684 80.0974121,11.4538574 79.8322754,11.3352051 C79.5671387,11.2165527 79.2587891,11.1572266 78.9072266,11.1572266 C78.5380859,11.1572266 78.2099609,11.2253418 77.9228516,11.3615723 C77.6357422,11.4978027 77.4130859,11.6743164 77.2548828,11.8911133 C77.0966797,12.1079102 77.0175781,12.3320312 77.0175781,12.5634766 L77.0175781,12.5634766 L77.8393555,12.5634766 C77.8393555,12.4287109 77.8825684,12.3034668 77.9689941,12.1877441 C78.0554199,12.0720215 78.1762695,11.9797363 78.331543,11.9108887 C78.4868164,11.842041 78.6625977,11.8076172 78.8588867,11.8076172 C79.1811523,11.8076172 79.4279785,11.8903809 79.5993652,12.0559082 C79.770752,12.2214355 79.8564453,12.4492188 79.8564453,12.7392578 L79.8564453,12.7392578 L79.8564453,13.1171875 L79.0566406,13.1171875 C78.6201172,13.1171875 78.2414551,13.1765137 77.9206543,13.295166 C77.5998535,13.4138184 77.3522949,13.590332 77.1779785,13.824707 C77.0036621,14.059082 76.9165039,14.3447266 76.9165039,14.6816406 C76.9165039,14.9423828 76.9831543,15.1796875 77.1164551,15.3935547 C77.2497559,15.6074219 77.4387207,15.7766113 77.6833496,15.901123 C77.9279785,16.0256348 78.2084961,16.0878906 78.5249023,16.0878906 Z M78.6435547,15.3847656 C78.4501953,15.3847656 78.2861328,15.348877 78.1513672,15.2770996 C78.0166016,15.2053223 77.9140625,15.1079102 77.84375,14.9848633 C77.7734375,14.8618164 77.7382812,14.7226562 77.7382812,14.5673828 C77.7382812,14.2773438 77.862793,14.0583496 78.1118164,13.9104004 C78.3608398,13.7624512 78.7197266,13.6884766 79.1884766,13.6884766 L79.1884766,13.6884766 L79.8564453,13.6884766 L79.8564453,14.6728516 C79.7949219,14.7988281 79.7055664,14.9160156 79.5883789,15.0244141 C79.4711914,15.1328125 79.3312988,15.2199707 79.1687012,15.2858887 C79.0061035,15.3518066 78.8310547,15.3847656 78.6435547,15.3847656 Z M82.7744141,16 L82.7744141,12.5986328 C82.8916016,12.3671875 83.0505371,12.1826172 83.2512207,12.0449219 C83.4519043,11.9072266 83.6782227,11.8383789 83.9301758,11.8383789 C84.246582,11.8383789 84.4831543,11.9204102 84.6398926,12.0844727 C84.7966309,12.2485352 84.875,12.512207 84.875,12.8754883 L84.875,12.8754883 L84.875,16 L85.6967773,16 L85.6967773,12.8842773 C85.6967773,11.7329102 85.1884766,11.1572266 84.171875,11.1572266 C83.8818359,11.1572266 83.6166992,11.2158203 83.3764648,11.3330078 C83.1362305,11.4501953 82.9296875,11.6157227 82.7568359,11.8295898 L82.7568359,11.8295898 L82.7304688,11.2451172 L81.9526367,11.2451172 L81.9526367,16 L82.7744141,16 Z M87.1381836,17.9204102 C87.519043,17.9204102 87.8200684,17.8024902 88.0412598,17.5666504 C88.2624512,17.3308105 88.4316406,17.0532227 88.5488281,16.7338867 L88.5488281,16.7338867 L90.4560547,11.2451172 L89.581543,11.2451172 L88.4785156,14.8046875 L87.3007812,11.2451172 L86.4042969,11.2451172 L88.1005859,15.9472656 L87.9204102,16.4350586 C87.8237305,16.7250977 87.6984863,16.9279785 87.5446777,17.0437012 C87.3908691,17.1594238 87.1748047,17.2172852 86.8964844,17.2172852 C86.8642578,17.2172852 86.8276367,17.2150879 86.7866211,17.2106934 C86.7456055,17.2062988 86.7089844,17.2011719 86.6767578,17.1953125 L86.6767578,17.1953125 L86.6767578,17.8500977 C86.7265625,17.8647461 86.8005371,17.880127 86.8986816,17.8962402 C86.9968262,17.9123535 87.0766602,17.9204102 87.1381836,17.9204102 Z M94.3935547,16 L94.3935547,13.4907227 L95.9052734,13.4907227 C96.3857422,13.4907227 96.7937012,13.4152832 97.1291504,13.2644043 C97.4645996,13.1135254 97.71875,12.8930664 97.8916016,12.6030273 C98.0644531,12.3129883 98.1508789,11.9628906 98.1508789,11.5527344 C98.1508789,11.1689453 98.0637207,10.8305664 97.8894043,10.5375977 C97.7150879,10.2446289 97.4587402,10.0153809 97.1203613,9.84985352 C96.7819824,9.68432617 96.3769531,9.6015625 95.9052734,9.6015625 L95.9052734,9.6015625 L93.5410156,9.6015625 L93.5410156,16 L94.3935547,16 Z M95.9052734,12.8051758 L94.3935547,12.8051758 L94.3935547,10.2915039 L95.9052734,10.2915039 C96.21875,10.2915039 96.4802246,10.3493652 96.6896973,10.4650879 C96.8991699,10.5808105 97.0529785,10.7346191 97.151123,10.9265137 C97.2492676,11.1184082 97.2983398,11.3300781 97.2983398,11.5615234 C97.2983398,11.9453125 97.1848145,12.2485352 96.9577637,12.4711914 C96.7307129,12.6938477 96.3798828,12.8051758 95.9052734,12.8051758 L95.9052734,12.8051758 Z M100.519531,16.0878906 C100.794922,16.0878906 101.047607,16.0344238 101.277588,15.9274902 C101.507568,15.8205566 101.70459,15.6791992 101.868652,15.503418 C101.89502,15.7202148 101.933105,15.8857422 101.98291,16 L101.98291,16 L102.839844,16 L102.839844,15.9296875 C102.787109,15.8066406 102.746094,15.6564941 102.716797,15.479248 C102.6875,15.302002 102.672852,15.1298828 102.672852,14.9628906 L102.672852,14.9628906 L102.672852,12.7480469 C102.672852,12.4023438 102.598145,12.1101074 102.44873,11.8713379 C102.299316,11.6325684 102.092041,11.4538574 101.826904,11.3352051 C101.561768,11.2165527 101.253418,11.1572266 100.901855,11.1572266 C100.532715,11.1572266 100.20459,11.2253418 99.9174805,11.3615723 C99.6303711,11.4978027 99.4077148,11.6743164 99.2495117,11.8911133 C99.0913086,12.1079102 99.012207,12.3320312 99.012207,12.5634766 L99.012207,12.5634766 L99.8339844,12.5634766 C99.8339844,12.4287109 99.8771973,12.3034668 99.963623,12.1877441 C100.050049,12.0720215 100.170898,11.9797363 100.326172,11.9108887 C100.481445,11.842041 100.657227,11.8076172 100.853516,11.8076172 C101.175781,11.8076172 101.422607,11.8903809 101.593994,12.0559082 C101.765381,12.2214355 101.851074,12.4492188 101.851074,12.7392578 L101.851074,12.7392578 L101.851074,13.1171875 L101.05127,13.1171875 C100.614746,13.1171875 100.236084,13.1765137 99.9152832,13.295166 C99.5944824,13.4138184 99.3469238,13.590332 99.1726074,13.824707 C98.998291,14.059082 98.9111328,14.3447266 98.9111328,14.6816406 C98.9111328,14.9423828 98.9777832,15.1796875 99.111084,15.3935547 C99.2443848,15.6074219 99.4333496,15.7766113 99.6779785,15.901123 C99.9226074,16.0256348 100.203125,16.0878906 100.519531,16.0878906 Z M100.638184,15.3847656 C100.444824,15.3847656 100.280762,15.348877 100.145996,15.2770996 C100.01123,15.2053223 99.9086914,15.1079102 99.8383789,14.9848633 C99.7680664,14.8618164 99.7329102,14.7226562 99.7329102,14.5673828 C99.7329102,14.2773438 99.8574219,14.0583496 100.106445,13.9104004 C100.355469,13.7624512 100.714355,13.6884766 101.183105,13.6884766 L101.183105,13.6884766 L101.851074,13.6884766 L101.851074,14.6728516 C101.789551,14.7988281 101.700195,14.9160156 101.583008,15.0244141 C101.46582,15.1328125 101.325928,15.2199707 101.16333,15.2858887 C101.000732,15.3518066 100.825684,15.3847656 100.638184,15.3847656 Z M104.162598,17.9204102 C104.543457,17.9204102 104.844482,17.8024902 105.065674,17.5666504 C105.286865,17.3308105 105.456055,17.0532227 105.573242,16.7338867 L105.573242,16.7338867 L107.480469,11.2451172 L106.605957,11.2451172 L105.50293,14.8046875 L104.325195,11.2451172 L103.428711,11.2451172 L105.125,15.9472656 L104.944824,16.4350586 C104.848145,16.7250977 104.7229,16.9279785 104.569092,17.0437012 C104.415283,17.1594238 104.199219,17.2172852 103.920898,17.2172852 C103.888672,17.2172852 103.852051,17.2150879 103.811035,17.2106934 C103.77002,17.2062988 103.733398,17.2011719 103.701172,17.1953125 L103.701172,17.1953125 L103.701172,17.8500977 C103.750977,17.8647461 103.824951,17.880127 103.923096,17.8962402 C104.02124,17.9123535 104.101074,17.9204102 104.162598,17.9204102 Z M109.027344,16 L109.027344,12.6206055 C109.118164,12.4038086 109.253662,12.2353516 109.433838,12.1152344 C109.614014,11.9951172 109.838867,11.9350586 110.108398,11.9350586 C110.249023,11.9350586 110.382324,11.9467773 110.508301,11.9702148 L110.508301,11.9702148 L110.508301,11.21875 C110.479004,11.2041016 110.424805,11.1901855 110.345703,11.177002 C110.266602,11.1638184 110.200684,11.1572266 110.147949,11.1572266 C109.895996,11.1572266 109.67627,11.2121582 109.48877,11.3220215 C109.30127,11.4318848 109.145996,11.5864258 109.022949,11.7856445 L109.022949,11.7856445 L109.005371,11.2451172 L108.205566,11.2451172 L108.205566,16 L109.027344,16 Z M113.057129,16.0878906 C113.493652,16.0878906 113.875244,15.9831543 114.201904,15.7736816 C114.528564,15.564209 114.779785,15.2770996 114.955566,14.9123535 C115.131348,14.5476074 115.219238,14.1352539 115.219238,13.675293 L115.219238,13.675293 L115.219238,13.5742188 C115.219238,13.1142578 115.131348,12.7011719 114.955566,12.3349609 C114.779785,11.96875 114.527832,11.6809082 114.199707,11.4714355 C113.871582,11.2619629 113.487793,11.1572266 113.04834,11.1572266 C112.614746,11.1572266 112.234619,11.2619629 111.907959,11.4714355 C111.581299,11.6809082 111.330078,11.96875 111.154297,12.3349609 C110.978516,12.7011719 110.890625,13.1142578 110.890625,13.5742188 L110.890625,13.5742188 L110.890625,13.675293 C110.890625,14.1352539 110.979248,14.5476074 111.156494,14.9123535 C111.33374,15.2770996 111.585693,15.564209 111.912354,15.7736816 C112.239014,15.9831543 112.620605,16.0878906 113.057129,16.0878906 Z M113.057129,15.4287109 C112.76709,15.4287109 112.520996,15.3503418 112.318848,15.1936035 C112.116699,15.0368652 111.965088,14.8251953 111.864014,14.5585938 C111.762939,14.2919922 111.712402,13.9975586 111.712402,13.675293 L111.712402,13.675293 L111.712402,13.5742188 C111.712402,13.2519531 111.762939,12.9575195 111.864014,12.690918 C111.965088,12.4243164 112.115967,12.2119141 112.31665,12.0537109 C112.517334,11.8955078 112.76123,11.8164062 113.04834,11.8164062 C113.338379,11.8164062 113.584473,11.8955078 113.786621,12.0537109 C113.98877,12.2119141 114.141113,12.4243164 114.243652,12.690918 C114.346191,12.9575195 114.397461,13.2519531 114.397461,13.5742188 L114.397461,13.5742188 L114.397461,13.675293 C114.397461,13.9975586 114.346924,14.2919922 114.24585,14.5585938 C114.144775,14.8251953 113.993164,15.0368652 113.791016,15.1936035 C113.588867,15.3503418 113.344238,15.4287109 113.057129,15.4287109 Z M117.130859,16 L117.130859,9.25 L116.309082,9.25 L116.309082,16 L117.130859,16 Z M119.319336,16 L119.319336,9.25 L118.497559,9.25 L118.497559,16 L119.319336,16 Z" id="YourCompanyPayroll" fill="#000000" fill-rule="nonzero"></path>
        </g>
    </g>
</svg>
