<svg xmlns="http://www.w3.org/2000/svg" xmlns:xlink="http://www.w3.org/1999/xlink" width="41.282" height="46.346" viewBox="0 0 41.282 46.346"><defs><style>.a{fill:#349334;}.b{fill:#4cb649;}.c{fill:#118011;}.d{fill:url(#a);}.e{fill:#fff;}.f{fill:url(#b);}.g{fill:url(#c);}.h{fill:url(#d);}</style><linearGradient id="a" x1="0.5" y1="0.999" x2="0.5" y2="0.088" gradientUnits="objectBoundingBox"><stop offset="0" stop-color="#4cb649"/><stop offset="1" stop-color="#78b280"/></linearGradient><radialGradient id="b" cx="4.257" cy="0.539" r="33.324" gradientTransform="translate(3.758 0.476) scale(0.117 0.117)" gradientUnits="userSpaceOnUse"><stop offset="0"/><stop offset="0.19" stop-color="#030303"/><stop offset="0.324" stop-color="#0c0c0c"/><stop offset="0.44" stop-color="#1c1c1c"/><stop offset="0.546" stop-color="#323232"/><stop offset="0.646" stop-color="#4e4e4e"/><stop offset="0.74" stop-color="#717171"/><stop offset="0.831" stop-color="#9a9a9a"/><stop offset="0.916" stop-color="#c9c9c9"/><stop offset="0.998" stop-color="#fefefe"/><stop offset="1" stop-color="#fff"/></radialGradient><linearGradient id="c" x1="-0.488" y1="-0.665" x2="0.565" y2="0.577" gradientUnits="objectBoundingBox"><stop offset="0" stop-color="#23ff16"/><stop offset="1" stop-color="#189a33"/></linearGradient><linearGradient id="d" x1="1.743" y1="-1.16" x2="0.243" y2="0.843" xlink:href="#c"/></defs><g transform="translate(-0.917 -3.037)"><path class="a" d="M38.63,19.825H36.749V18.144a15.192,15.192,0,0,0-30.384,0v1.682H4.487a3.559,3.559,0,0,0-3.57,3.55V37.245a3.482,3.482,0,0,0,.42,2.083,2.253,2.253,0,0,0,1.945.665H6.3l.461,7.3c0,.017,0,.046,0,.082a2.2,2.2,0,0,0,.267,1.065,1.684,1.684,0,0,0,1.568.808h7.679l3.988-4.23h2.979L27.1,49.383h6.886a2.891,2.891,0,0,0,1.607-.288,2.479,2.479,0,0,0,.887-1.9c.2-1.472.244-5.5.335-7.2h3.018a2.489,2.489,0,0,0,1.93-.516,2.9,2.9,0,0,0,.435-1.969V23.377A3.561,3.561,0,0,0,38.63,19.825Z"/><path class="b" d="M41.577,37.364c0,.909-.087,1.417-.312,1.651-.21.244-.666.363-1.576.36H36.218l-.012.224c-.084,1.6-.14,5.888-.342,7.387-.13.968-.383,1.378-.676,1.566a2.513,2.513,0,0,1-1.347.21H27.169L23.313,44.4h-3.4l-3.988,4.23H8.451A1.2,1.2,0,0,1,7.3,48.059a1.726,1.726,0,0,1-.2-.826c0-.046,0-.065,0-.065v-.019L6.6,39.374H3.136c-.9,0-1.334-.168-1.563-.475a3.118,3.118,0,0,1-.327-1.8V23.229a3.089,3.089,0,0,1,3.095-3.078H6.7V18a14.716,14.716,0,0,1,29.431,0v2.154h2.357a3.087,3.087,0,0,1,3.092,3.078V37.364Z" transform="translate(0.146 0.145)"/><rect class="c" width="28.59" height="0.933" transform="translate(7.296 39.138)"/><path class="c" d="M5,33.769V15.863h.475V33.769Z" transform="translate(1.818 5.705)"/><path class="c" d="M25.121,33.769V15.863H25.6V33.769Z" transform="translate(10.767 5.705)"/><ellipse class="d" cx="10.238" cy="1.875" rx="10.238" ry="1.875" transform="translate(11.105 23.557)"/><path class="e" d="M27.42,18.933V16.195a9.339,9.339,0,0,0-18.677,0v2.738Z" transform="translate(3.481 1.699)"/><rect class="f" width="8.325" height="0.975" transform="translate(17.625 17.782)"/><circle cx="1.725" cy="1.725" r="1.725" transform="translate(16.725 11.931)"/><circle cx="1.725" cy="1.725" r="1.725" transform="translate(22.876 11.931)"/><rect class="e" width="6.266" height="4.681" transform="translate(18.209 31.038)"/><path class="e" d="M13.776,22.832a2.259,2.259,0,0,1,4.379,0H18.9a2.988,2.988,0,0,0-5.867,0Z" transform="translate(5.389 7.729)"/><path class="c" d="M29.3,29.111c.168,0,.321-.006.468-.013v-.523a6.271,6.271,0,0,1-.945.058H25.8c-.046.845-.079,2.264-.127,3.658h.491c.04-1.234.072-2.433.111-3.18Z" transform="translate(11.013 11.36)"/><path class="g" d="M29.615,29.2v-.26c-.147.007-.3.012-.468.013H26.128c-.04.748-.072,1.948-.111,3.18h.7A2.916,2.916,0,0,0,29.615,29.2Z" transform="translate(11.165 11.521)"/><path class="c" d="M5.938,28.66H2.917a3.818,3.818,0,0,1-1.178-.146v.608a5.244,5.244,0,0,0,.626.032H5.387l.2,3.164H6.17Z" transform="translate(0.366 11.333)"/><path class="h" d="M2.365,28.968a5.566,5.566,0,0,1-.626-.032V29.2a2.916,2.916,0,0,0,2.9,2.933h.951l-.2-3.164Z" transform="translate(0.366 11.521)"/></g></svg>