<svg xmlns="http://www.w3.org/2000/svg" width="44.023" height="50.314" viewBox="0 0 44.023 50.314">
  <g id="Logo" transform="translate(-25.437 -0.643)">
    <path id="Path_1" data-name="Path 1" d="M66.323,50.957H28.582a3.158,3.158,0,0,1-3.145-3.145V6.932l6.3-3.145V.643h31.44V3.788l6.283,3.145v40.88a3.144,3.144,0,0,1-3.138,3.145Z" fill="#0078ff"/>
    <path id="Path_2" data-name="Path 2" d="M33.283.643H72.845l1.623,6.289h-42.6Z" transform="translate(-5.614)" fill="#0078ff" fill-rule="evenodd"/>
    <path id="Path_3" data-name="Path 3" d="M25.437,6.932,32.55,3.788,27.681.643H67.237L62.367,3.788l7.094,3.145" fill="#0157b8"/>
    <g id="Group_1" data-name="Group 1" transform="translate(40.486 17.765)">
      <path id="Path_4" data-name="Path 4" d="M144.587,136.625a32.749,32.749,0,0,1,5.421-.422c2.792,0,4.837.649,6.135,1.818a5.881,5.881,0,0,1,1.915,4.577,6.44,6.44,0,0,1-1.688,4.674,9.065,9.065,0,0,1-6.687,2.4,9.721,9.721,0,0,1-2.272-.195v8.764h-2.824Zm2.824,10.55a9.473,9.473,0,0,0,2.337.227c3.408,0,5.486-1.655,5.486-4.674,0-2.889-2.045-4.285-5.161-4.285a11.852,11.852,0,0,0-2.662.227Z" transform="translate(-144.587 -136.203)" fill="#fff" stroke="#fff" stroke-miterlimit="10" stroke-width="2"/>
    </g>
  </g>
</svg>
