<?xml version="1.0" encoding="UTF-8"?>
<svg width="25px" height="25px" viewBox="0 0 25 25" version="1.1" xmlns="http://www.w3.org/2000/svg" xmlns:xlink="http://www.w3.org/1999/xlink">
    <title>BitPay - Press</title>
    <g id="Symbols" stroke="none" stroke-width="1" fill="none" fill-rule="evenodd">
        <g id="Components/Navigation/Company" transform="translate(-32.000000, -221.000000)">
            <g id="document" transform="translate(32.000000, 221.000000)">
                <path d="M25,1.08695652 L25,22.826087 C25,24.0266304 24.0308442,25 22.8354978,25 L2.27272727,25 L4.43722944,16.8478261 L4.43722944,1.08695652 C4.43722944,0.486413043 4.9215368,0 5.51948052,0 L23.9177489,0 C24.5156926,0 25,0.486413043 25,1.08695652 Z" id="Path" fill="#DFE5FF"></path>
                <path d="M19.8863636,6.06060606 L16.4772727,6.06060606 C16.1630682,6.06060606 15.9090909,5.89090909 15.9090909,5.68181818 C15.9090909,5.47272727 16.1630682,5.3030303 16.4772727,5.3030303 L19.8863636,5.3030303 C20.2005682,5.3030303 20.4545455,5.47272727 20.4545455,5.68181818 C20.4545455,5.89090909 20.2005682,6.06060606 19.8863636,6.06060606 Z" id="Path" fill="#4F6EF7"></path>
                <path d="M19.8863636,10.6060606 L16.4772727,10.6060606 C16.1630682,10.6060606 15.9090909,10.4363636 15.9090909,10.2272727 C15.9090909,10.0181818 16.1630682,9.84848485 16.4772727,9.84848485 L19.8863636,9.84848485 C20.2005682,9.84848485 20.4545455,10.0181818 20.4545455,10.2272727 C20.4545455,10.4363636 20.2005682,10.6060606 19.8863636,10.6060606 Z" id="Path" fill="#4F6EF7"></path>
                <path d="M19.9035813,15.1515152 L8.88429752,15.1515152 C8.57961433,15.1515152 8.33333333,14.9818182 8.33333333,14.7727273 C8.33333333,14.5636364 8.57961433,14.3939394 8.88429752,14.3939394 L19.9035813,14.3939394 C20.2082645,14.3939394 20.4545455,14.5636364 20.4545455,14.7727273 C20.4545455,14.9818182 20.2082645,15.1515152 19.9035813,15.1515152 Z" id="Path" fill="#4F6EF7"></path>
                <path d="M19.9035813,19.6969697 L8.88429752,19.6969697 C8.57961433,19.6969697 8.33333333,19.5272727 8.33333333,19.3181818 C8.33333333,19.1090909 8.57961433,18.9393939 8.88429752,18.9393939 L19.9035813,18.9393939 C20.2082645,18.9393939 20.4545455,19.1090909 20.4545455,19.3181818 C20.4545455,19.5272727 20.2082645,19.6969697 19.9035813,19.6969697 Z" id="Path" fill="#4F6EF7"></path>
                <path d="M13.8636364,10.6060606 L9.62121212,10.6060606 C9.32795455,10.6060606 9.09090909,10.3684848 9.09090909,10.0757576 L9.09090909,5.83333333 C9.09090909,5.54060606 9.32795455,5.3030303 9.62121212,5.3030303 L13.8636364,5.3030303 C14.1568939,5.3030303 14.3939394,5.54060606 14.3939394,5.83333333 L14.3939394,10.0757576 C14.3939394,10.3684848 14.1568939,10.6060606 13.8636364,10.6060606 Z" id="Path" fill="#4F6EF7"></path>
                <path d="M2.27272727,25 C3.52784091,25 4.54545455,24.042246 4.54545455,22.8609626 L4.54545455,15.9090909 L0.568181818,15.9090909 C0.254545455,15.9090909 0,16.1486631 0,16.4438503 L0,22.8609626 C0,24.042246 1.01761364,25 2.27272727,25 Z" id="Path" fill="#BABCC6"></path>
            </g>
        </g>
    </g>
</svg>
