<svg xmlns="http://www.w3.org/2000/svg" xmlns:xlink="http://www.w3.org/1999/xlink" width="44.276" height="44.113" viewBox="0 0 44.276 44.113"><defs><style>.a{fill:none;}.b{clip-path:url(#a);}.c{fill:url(#b);}</style><clipPath id="a"><path class="a" d="M113.107,50.545H116.6a10.924,10.924,0,0,1-8.683,4.3,10.762,10.762,0,0,1-2.424-.281l-3.986,6.354,1.869-7.072a.007.007,0,0,1-.006,0l.646-2.479a8.343,8.343,0,0,0,9.091-.823m-7.194-4.7L102.6,44.091l9.7-3.547.044-.035-.016.024.016-.006-.024.021-5.254,8.9Zm-8.928-1.892a10.516,10.516,0,0,1,.163-1.786l-6.139-4.7,6.757,2.484,0-.007,2.354.853a8.323,8.323,0,0,0,1.279,8.455l-.008,3.417a10.859,10.859,0,0,1-4.408-8.719M115.4,47.771a8.321,8.321,0,0,0-1.544-9.755v-.65l0-2.545a10.878,10.878,0,0,1,4.994,9.133,10.429,10.429,0,0,1-.27,2.354l6.381,4.178-7.115-2.037s0,.009,0,.014Zm-1.677-20.877-1.682,6.992a.05.05,0,0,1,.013,0l-.589,2.481a8.354,8.354,0,0,0-9.519,1.676l-3.115-.14a10.935,10.935,0,0,1,9.085-4.847,10.655,10.655,0,0,1,2.011.2ZM85.651,44.116A22.138,22.138,0,1,0,107.789,22.06,22.1,22.1,0,0,0,85.651,44.116"/></clipPath><linearGradient id="b" x1="0.5" x2="0.5" y2="1" gradientUnits="objectBoundingBox"><stop offset="0" stop-color="#6bcf99"/><stop offset="1" stop-color="#0d7487"/></linearGradient></defs><g transform="translate(-85.651 -22.06)"><g class="b"><path class="c" d="M63.517,44.117l44.272,44.115,44.272-44.115L107.789,0Z"/></g></g></svg>