<?xml version="1.0" encoding="UTF-8"?>
<svg width="400px" height="400px" viewBox="0 0 400 400" version="1.1" xmlns="http://www.w3.org/2000/svg" xmlns:xlink="http://www.w3.org/1999/xlink">
    <!-- Generator: Sketch 60.1 (88133) - https://sketch.com -->
    <title>QEEQ</title>
    <desc>Created with Sketch.</desc>
    <defs>
        <polygon  points="0.299514948 0.219942409 48.2945395 0.219942409 48.2945395 50.0817629 0.299514948 50.0817629"></polygon>
        <polygon id="path-3" points="0.000691469274 0.0388338051 178.532348 0.0388338051 178.532348 190.434194 0.000691469274 190.434194"></polygon>
    </defs>
    <g id="QEEQ" stroke="none" stroke-width="1" fill="none" fill-rule="evenodd">
        <circle id="椭圆形" fill="#FFFFFF" cx="200" cy="200" r="200"></circle>
        <g id="编组" transform="translate(103.000000, 70.000000)">
            <path d="M92.0345652,228.37477 L95.3942168,219.769054 L63.0789593,219.769054 C61.1466379,219.769054 59.5774094,221.521916 59.5774094,223.45841 L59.5774094,265.50205 C59.5774094,267.826679 61.459649,269.708918 63.780104,269.708918 L95.3608289,269.583714 L91.2374305,260.919569 L67.5529301,260.919569 L67.5529301,248.91664 L91.0997056,249.02515 L91.0997056,240.811741 L67.5529301,240.811741 L67.5529301,228.37477 L92.0345652,228.37477 Z" id="Fill-1" fill="#3570E6"></path>
            <path d="M134.107419,228.37477 L137.471245,219.769054 L104.96818,219.769054 C103.14437,219.769054 101.654437,221.26316 101.654437,223.082797 L101.654437,265.50205 C101.654437,267.826679 103.532503,269.708918 105.852958,269.708918 L137.433683,269.583714 L133.310285,260.919569 L109.625784,260.919569 L109.625784,248.91664 L133.176733,249.02515 L133.176733,240.811741 L109.625784,240.811741 L109.625784,228.37477 L134.107419,228.37477 Z" id="Fill-3" fill="#3570E6"></path>
            <g transform="translate(143.427775, 219.627990)">
                <mask  fill="white">
                    <use xlink:href="#path-1"></use>
                </mask>
                <g id="Clip-6"></g>
                <path d="M20.9457235,42.1634214 C10.704003,42.1675923 8.52127283,37.1969773 8.51709935,25.1982216 C8.51709935,13.5625587 10.6998295,8.16624878 20.94155,8.16624878 C31.2416993,8.16624878 33.4244354,13.5583852 33.4244354,25.1940482 C33.4286029,37.1928038 31.2500462,42.1634214 20.9457235,42.1634214 L20.9457235,42.1634214 Z M40.477611,41.6709481 C39.9058442,41.6792951 39.3549448,41.4622741 38.9459438,41.0657935 L38.7289228,40.861293 C40.9283469,36.8338845 42.0510131,31.5502586 42.0510131,25.1439664 C42.0468396,5.66633412 34.9268823,0.219942409 21.1710914,0.219942409 C7.48207625,0.224115889 0.295343285,5.67468108 0.299514948,25.1523134 C0.303690245,44.7008948 7.45703537,49.7716733 21.1794384,50.0763373 C25.7452258,50.1723274 29.5764806,49.2332943 32.6690295,47.3468813 L33.5538073,48.1690569 C34.8475862,49.4002335 36.56706,50.0012147 38.3533096,49.9761738 L43.5826803,49.9803473 L48.2945395,41.6709481 L40.477611,41.6709481 Z" id="Fill-5" fill="#3570E6" mask="url(#mask-2)"></path>
            </g>
            <path d="M38.9812844,222.122897 C27.1202536,215.382726 18.2056998,216.559648 8.61504218,233.437202 C-1.01735021,250.381531 2.68452676,258.29445 14.4245267,265.322591 C22.0828629,269.896725 29.2737694,269.658837 35.5590306,265.047141 L29.565913,259.463024 C26.4483232,261.407866 22.9551203,261.099029 18.1222302,258.352879 C9.24941117,253.307141 9.80448404,247.927525 15.7141321,237.527212 C21.4484939,227.444084 25.9934139,223.846544 34.8704064,228.892282 C43.7933071,233.967234 43.0253867,239.714116 37.2951984,249.797244 C36.6691763,250.899043 36.0598482,251.921546 35.4588671,252.860579 L41.7441283,258.715971 C42.7958453,257.288641 43.8141745,255.719413 44.7949424,254.004112 C54.3855999,237.126558 50.8965705,228.896455 38.9812844,222.122897" id="Fill-7" fill="#3570E6"></path>
            <path d="M53.3196931,261.42456 L48.6245278,269.708918 L43.411851,269.700571 C41.6297749,269.729786 39.9144746,269.132978 38.6290427,267.910148 L36.546476,265.96948 L35.5573612,265.047141 L29.5684171,259.463024 C31.5967285,258.202633 33.4706211,255.982342 35.4613712,252.860579 L41.7466324,258.715971 L42.5813284,259.496412 L44.0044852,260.819406 C44.4093128,261.215886 44.9602122,261.432907 45.523632,261.42456 L53.3196931,261.42456 Z" id="Fill-9" fill="#3570E6"></path>
            <g id="编组-2">
                <g id="编组">
                    <mask id="mask-4" fill="white">
                        <use xlink:href="#path-3"></use>
                    </mask>
                    <g id="Clip-12"></g>
                    <path d="M135.630948,14.5549101 C90.789177,-10.9363511 57.0789288,-6.4905068 20.7943752,57.3447525 C-15.6217123,121.405498 -1.6340263,151.342604 42.7680453,177.904927 C71.7280423,195.222298 98.9142112,194.312836 122.691774,176.882721 L100.034128,155.762142 C88.2374202,163.124279 75.0389373,161.944233 56.7482151,151.553058 C23.1920495,132.480649 25.2965912,112.130483 47.6423142,72.8093758 C69.3190937,34.6833482 86.5124477,21.0714732 120.07613,40.1551566 C153.831475,59.3440671 150.926456,81.0809763 129.260951,119.207004 C126.893341,123.374748 124.585862,127.238085 122.315963,130.797016 L146.082252,152.928526 C150.065849,147.539397 153.917912,141.605341 157.608376,135.115084 C193.896688,71.2835831 180.698205,40.1739471 135.630948,14.5549101" id="Fill-11" fill="#3570E6" mask="url(#mask-4)"></path>
                </g>
                <path d="M189.851834,163.183658 L172.098521,194.511264 L152.383475,194.481199 C145.656458,194.586426 139.16996,192.33156 134.303207,187.690294 L126.426208,180.361979 L122.690647,176.885727 L100.036759,155.76139 C107.714578,150.98859 114.794857,142.604246 122.314836,130.796264 L146.084883,152.927775 L149.241695,155.885408 L154.623309,160.906243 C156.167892,162.390696 158.238611,163.213722 160.376976,163.183658 L189.851834,163.183658 Z" id="Fill-13" fill="#00E9F4"></path>
            </g>
        </g>
    </g>
</svg>
