<svg width="34" height="34" viewBox="0 0 34 34" fill="none" xmlns="http://www.w3.org/2000/svg">
<circle cx="17" cy="17" r="17" fill="#ECEFFD"/>
<path d="M16.085 19.2031C16.0908 18.6582 16.1377 18.1982 16.2256 17.8232C16.3135 17.4424 16.457 17.0996 16.6562 16.7949C16.8613 16.4902 17.1396 16.1709 17.4912 15.8369C17.8955 15.4561 18.2354 15.0986 18.5107 14.7646C18.792 14.4248 18.9326 14.0088 18.9326 13.5166C18.9326 12.9775 18.7979 12.5615 18.5283 12.2686C18.2588 11.9756 17.8662 11.8291 17.3506 11.8291C16.9287 11.8291 16.5479 11.958 16.208 12.2158C15.8682 12.4678 15.6953 12.875 15.6895 13.4375H13.5098C13.5156 12.6816 13.6885 12.0518 14.0283 11.5479C14.374 11.0439 14.834 10.666 15.4082 10.4141C15.9883 10.1562 16.6357 10.0273 17.3506 10.0273C18.5342 10.0273 19.457 10.3262 20.1191 10.9238C20.7812 11.5156 21.1123 12.3506 21.1123 13.4287C21.1123 13.9443 21.0098 14.4102 20.8047 14.8262C20.5996 15.2363 20.3301 15.623 19.9961 15.9863C19.668 16.3438 19.3135 16.7012 18.9326 17.0586C18.6104 17.3516 18.3906 17.6709 18.2734 18.0166C18.1621 18.3623 18.1035 18.7578 18.0977 19.2031H16.085ZM15.9092 21.9277C15.9092 21.5996 16.0176 21.3213 16.2344 21.0928C16.457 20.8643 16.7617 20.75 17.1484 20.75C17.5352 20.75 17.8369 20.8643 18.0537 21.0928C18.2764 21.3213 18.3877 21.5996 18.3877 21.9277C18.3877 22.2617 18.2764 22.54 18.0537 22.7627C17.8369 22.9854 17.5352 23.0967 17.1484 23.0967C16.7617 23.0967 16.457 22.9854 16.2344 22.7627C16.0176 22.54 15.9092 22.2617 15.9092 21.9277Z" fill="#2240C4"/>
</svg>
