<svg id="Layer_1" data-name="Layer 1" xmlns="http://www.w3.org/2000/svg" viewBox="0 0 157.96 35.58"><defs><style>.cls-1{font-size:16.08px;font-family:MyriadPro-Regular, Myriad Pro;}</style></defs><title>ROYANI</title><path d="M64.29,136.91,62,134.08q-3-3.69-5.1-6.51a14.1,14.1,0,0,0,5.27-1.92,6.65,6.65,0,0,0,3.42-5.77,6,6,0,0,0-2.32-5.15c-1.55-1.14-3.87-1.71-7-1.71-.5,0-1.06,0-1.7,0s-1.34,0-2.12.08c-.48,0-1.17,0-2.06,0L47.12,113a10.6,10.6,0,0,1,.14,1.43c0,.7.07,2,.13,3.77q.07,4.13.08,9.35t-.08,9.33c-.06,1.82-.1,3.07-.12,3.76a12,12,0,0,1-.15,1.44,23.06,23.06,0,0,1,4.29,0,11.75,11.75,0,0,1-.13-1.45c0-.7-.08-1.94-.13-3.74q-.09-4-.09-9.07h1.43c1.44,1.7,3.08,3.71,4.89,6l2.36,3c1.11,1.39,1.92,2.43,2.41,3.12a15.49,15.49,0,0,1,1.28,2.07c.77-.07,1.65-.1,2.64-.1s1.87,0,2.64.1c-.16-.15-.54-.57-1.13-1.27S65.89,138.83,64.29,136.91ZM51,126V115.1c1.08-.08,2.26-.13,3.55-.14a8.42,8.42,0,0,1,5.1,1.32,4.45,4.45,0,0,1,1.78,3.79,4.93,4.93,0,0,1-2.32,4.27,10.61,10.61,0,0,1-6.17,1.6A17.57,17.57,0,0,0,51,126Z" transform="translate(-47.12 -107)"/><path d="M94.58,137.05a10.24,10.24,0,0,1-8.27,3.69,10.48,10.48,0,0,1-8.24-3.5Q75,133.75,75,127.92q0-6.15,3.09-9.85a10.22,10.22,0,0,1,8.24-3.69,10.5,10.5,0,0,1,8.27,3.5q3.08,3.5,3.08,9.34a21.1,21.1,0,0,1-.18,2.7h4.3a20,20,0,0,0,.22-2.85,13.75,13.75,0,0,0-4.28-10.5q-4.27-4-11.18-4a15.75,15.75,0,0,0-11.49,4.31,15,15,0,0,0-4.41,11.21,13.74,13.74,0,0,0,4.28,10.5,15.66,15.66,0,0,0,11.16,4,15.82,15.82,0,0,0,11.51-4.3A13.94,13.94,0,0,0,101,133H96.78A12.35,12.35,0,0,1,94.58,137.05Z" transform="translate(-47.12 -107)"/><path d="M124.67,113c-.32.92-.64,1.73-1,2.42s-.82,1.62-1.48,2.78l-1.77,3.22q-1.87,3.44-3.44,6h0c-1.08-1.76-2.32-3.86-3.69-6.31l-1.57-2.85q-1.12-2-1.62-3a18.75,18.75,0,0,1-.9-2.2c-.76.07-1.63.1-2.6.1s-1.84,0-2.6-.1a13.57,13.57,0,0,1,.89,1.27q.67,1,2.52,3.93l2.62,4.21q2.7,4.44,4.56,7.74v1.53q0,4.88-.06,6.94a29.2,29.2,0,0,1-.27,3.46,23.06,23.06,0,0,1,4.29,0,29.2,29.2,0,0,1-.27-3.46q-.06-2.07-.06-6.94v-2.4c1.2-2.07,2.62-4.47,4.27-7.18l2.44-3.9q1.83-2.89,2.52-3.93a11.79,11.79,0,0,1,.89-1.27,14.47,14.47,0,0,1-1.84.1A14.91,14.91,0,0,1,124.67,113Z" transform="translate(-47.12 -107)"/><path d="M149.56,136.9q.84,2,1.2,3.06a19.48,19.48,0,0,1,.63,2.14,22.87,22.87,0,0,1,2.31-.1c.87,0,1.65,0,2.34.1l-2.46-5.2c-.38-.82-.77-1.69-1.16-2.57h-3.94Z" transform="translate(-47.12 -107)"/><path d="M149.47,127.65q-3.78-8.67-6.11-14.53h-1Q140,119,136.12,127.69c-1.54,3.42-3,6.48-4.3,9.21-.92,1.88-1.56,3.17-1.92,3.86a11.57,11.57,0,0,1-.74,1.34,12.09,12.09,0,0,1,1.67-.1,12.35,12.35,0,0,1,1.7.1,21.48,21.48,0,0,1,.64-2.3c.23-.7.6-1.66,1.11-2.9q1-2.64,2.35-5.66a22.45,22.45,0,0,1,5.3-.35,47.11,47.11,0,0,1,5.26.35H151C150.53,130.09,150,128.9,149.47,127.65Zm-7.55,1.12a25.39,25.39,0,0,1-4.13-.25l.45-1.07q2-4.64,3.72-8.36h0l3.65,8.4.41,1A39.34,39.34,0,0,1,141.92,128.77Z" transform="translate(-47.12 -107)"/><path d="M182.14,113a11.11,11.11,0,0,1,.13,1.43c0,.7.08,2,.13,3.77.06,2.86.09,6.08.09,9.64l0,7.43-7-7.22q-8.4-8.83-13.79-14.95h-1.24a11.42,11.42,0,0,1,.14,1.46c0,.69.08,1.94.13,3.74.06,2.74.08,5.82.08,9.25s0,6.54-.08,9.33c-.05,1.8-.1,3-.13,3.75a11.21,11.21,0,0,1-.14,1.45A9.26,9.26,0,0,1,162,142a9,9,0,0,1,1.46.1c0-.32-.1-.82-.14-1.52s-.09-1.92-.14-3.69q-.13-4.14-.15-9.35v-7.21l7,7.29q8.4,8.83,13.79,15h1.15q-.21-5.91-.2-14.74c0-3.57,0-6.77.08-9.62,0-1.82.1-3.07.13-3.77a10.6,10.6,0,0,1,.14-1.43,9.26,9.26,0,0,1-1.47.1A9,9,0,0,1,182.14,113Z" transform="translate(-47.12 -107)"/><path d="M196.39,136.9c0-2.77-.08-5.88-.08-9.35s0-6.55.08-9.33c.06-1.8.1-3,.13-3.75a11.21,11.21,0,0,1,.14-1.45,23.06,23.06,0,0,1-4.29,0,11.75,11.75,0,0,1,.13,1.45c0,.7.08,2,.13,3.75q.09,4.13.09,9.35t-.09,9.33c0,1.8-.09,3-.12,3.74a13.4,13.4,0,0,1-.14,1.46,23.06,23.06,0,0,1,4.29,0,11.21,11.21,0,0,1-.14-1.45C196.49,140,196.45,138.7,196.39,136.9Z" transform="translate(-47.12 -107)"/><text class="cls-1" transform="translate(151.22 13.46)">®️</text></svg>