<svg xmlns="http://www.w3.org/2000/svg" width="201.4" height="32.813" viewBox="0 0 201.4 32.813">
  <g id="main-horiz-3c" transform="translate(100.7 16.406)">
    <g id="main-horiz-3c-2" data-name="main-horiz-3c" transform="translate(-100.7 -16.407)">
      <g id="Group_144" data-name="Group 144" transform="translate(0 0.013)">
        <path id="Path_339" data-name="Path 339" d="M8.4,32.5H0V0H35.4V8.4H8.4Z" fill="#0093cf"/>
        <rect id="Rectangle_163" data-name="Rectangle 163" width="38.3" height="8.35" transform="translate(40.6)" fill="#0093cf"/>
        <path id="Path_340" data-name="Path 340" d="M20.7,32.5H12.4V12.1h23v8.3H20.7Z" fill="#2069bb"/>
        <rect id="Rectangle_164" data-name="Rectangle 164" width="38.3" height="8.35" transform="translate(40.6 12.1)" fill="#2069bb"/>
        <rect id="Rectangle_165" data-name="Rectangle 165" width="38.3" height="8.35" transform="translate(40.6 24.2)" fill="#3f3aa6"/>
      </g>
      <g id="Group_145" data-name="Group 145" transform="translate(0 0.013)">
        <path id="Path_341" data-name="Path 341" d="M90.1,0h6.4a5.6,5.6,0,0,1,4.1,1.4,4.4,4.4,0,0,1,1.2,3.2h0a4.4,4.4,0,0,1-3,4.4l3.4,5H98.7l-3-4.5H93.2V14H90.1Zm6.2,6.9c1.5,0,2.4-.8,2.4-2h0c0-1.3-.9-2-2.4-2H93.2v4Z" fill="#0093cf"/>
        <path id="Path_342" data-name="Path 342" d="M104.8,0h6.4a5.6,5.6,0,0,1,4.1,1.4,4.4,4.4,0,0,1,1.2,3.2h0a4.4,4.4,0,0,1-3,4.4l3.4,5h-3.6l-3-4.5h-2.4V14h-3.1ZM111,6.9c1.5,0,2.4-.8,2.4-2h0c0-1.3-.9-2-2.4-2h-3.1v4Z" fill="#0093cf"/>
        <path id="Path_343" data-name="Path 343" d="M119.5,0h10.6V2.8h-7.6V5.6h6.7V8.4h-6.7v3h7.7v2.8H119.5Z" fill="#0093cf"/>
        <path id="Path_344" data-name="Path 344" d="M88.9,18.4h3.4L96,28.3l3.7-9.9H103L97.3,32.6H94.6Z" fill="#3f3aa6"/>
        <path id="Path_345" data-name="Path 345" d="M105.1,18.4h10.6v2.8h-7.6V24h6.7v2.8h-6.7v3h7.7v2.8H105.1Z" fill="#3f3aa6"/>
        <path id="Path_346" data-name="Path 346" d="M118.9,18.4h2.9l6.6,8.7V18.4h3.1V32.5h-2.6l-6.8-9v9H119Z" fill="#3f3aa6"/>
        <path id="Path_347" data-name="Path 347" d="M137.9,21.2h-4.3V18.4h11.7v2.9H141V32.5h-3.1Z" fill="#3f3aa6"/>
        <path id="Path_348" data-name="Path 348" d="M147.4,26.4v-8h3.1v8c0,2.3,1.1,3.5,3,3.5s3-1.1,3-3.4V18.4h3.1v8c0,4.3-2.4,6.4-6.2,6.4S147.4,30.6,147.4,26.4Z" fill="#3f3aa6"/>
        <path id="Path_349" data-name="Path 349" d="M163.1,18.4h6.4a5.6,5.6,0,0,1,4.1,1.4,4.4,4.4,0,0,1,1.2,3.2h0a4.4,4.4,0,0,1-3,4.4l3.4,5h-3.6l-3-4.5h-2.4v4.5h-3.1Zm6.2,6.9c1.5,0,2.4-.8,2.4-2h0c0-1.3-.9-2-2.4-2h-3.1v4.1Z" fill="#3f3aa6"/>
        <path id="Path_350" data-name="Path 350" d="M177.8,18.4h10.6v2.8h-7.6V24h6.7v2.8h-6.7v3h7.7v2.8H177.8Z" fill="#3f3aa6"/>
        <path id="Path_351" data-name="Path 351" d="M190.4,30.4l1.8-2.2a6.5,6.5,0,0,0,4.2,1.7c1.3,0,2-.5,2-1.3h0c0-.8-.5-1.2-2.8-1.8s-4.7-1.5-4.7-4.3h0c0-2.6,2.1-4.3,4.9-4.3A8.2,8.2,0,0,1,201,20l-1.6,2.3a6.6,6.6,0,0,0-3.7-1.4c-1.2,0-1.8.5-1.8,1.2h0c0,.9.6,1.2,3,1.9s4.5,1.8,4.5,4.2h0c0,2.8-2.1,4.4-5.2,4.4a9,9,0,0,1-5.8-2.2Z" fill="#3f3aa6"/>
      </g>
    </g>
  </g>
</svg>
