<svg xmlns="http://www.w3.org/2000/svg" width="184.069" height="204.24" viewBox="0 0 184.069 204.24"><defs><style>.a{fill:#5c6670;}.b{fill:#5b2b82;}.c{fill:#fff;}</style></defs><g transform="translate(-8.44 -16.3)"><path class="a" d="M73.29,156.57c28.46,0,49.63,11.88,65.08,20.55,10.53,5.91,16,8.93,23.18,10.21,9.42,1.69,12-2.41,12-2.41a94.8,94.8,0,0,0,18.12-39.43H58.6c.88,4.07,1.9,8,3,11.72a108.871,108.871,0,0,1,11.65-.64"/><path class="a" d="M9.18,145.49A91.7,91.7,0,0,0,23.13,179c4.17-7.31,12.5-16.38,28.87-20.24-1.26-4.2-2.38-8.67-3.33-13.32H9.18Z"/><path class="a" d="M29.66,187.68a92.84,92.84,0,0,0,70,32.86c-2.53-1.29-5-2.72-7.39-4.25-11.39-7.36-27-21.68-37.14-48.23-15.91,3.47-22.64,12.48-25.49,19.62"/><path class="a" d="M65,166.67c7.17,18,18,31.89,32.24,41.19a72.54,72.54,0,0,0,24.36,10.23,93,93,0,0,0,40.26-20.77c-9.07-1-18.37-6.21-28.19-11.72-15.33-8.6-34.42-19.31-60.19-19.31-2.78,0-5.63.13-8.47.38"/><path class="b" d="M103.71,98.65H70.56V138H84.34V106.39H94.68V138H107.8V104.11c0-3-1.84-5.46-4.09-5.46"/><path class="b" d="M113.6,98.65v33.93c0,3,1.82,5.45,4.07,5.45h33.11V114.09H137.56v16.16H127.22v-24h23.56v-7.6Z"/><path class="b" d="M33.92,98.66l-7.49,15.86H22.11V98.66L8.44,98.65v39.38H22.11V122.17h4.32l7.49,15.86H47.61l-9.66-19.69,9.66-19.68Z"/><rect class="b" width="14.19" height="39.37" transform="translate(51.26 98.66)"/><path class="b" d="M192.47,109.26V98.65H156.09v18c0,3,1.82,5.45,4.07,5.45H178.7v8.6H156.1V138h36.4V119.9c0-2.8-1.57-5.44-3.64-5.44H169.74V106.2h9.56v3h13.16Z"/><path class="b" d="M153.81,58.39H142.19l23.96-23.97L148.04,16.3,123.92,40.23,100,16.3,57.94,58.39H46.33L70.24,34.38,52.17,16.3,28.25,40.23,8.45,19.61V91.17H192.51V19.66Z"/><path class="c" d="M48.61,83.76a1.86,1.86,0,0,0,1.85,1.85H60.81V82.84H52.38v-9h8.43V71.05H48.61Z"/><path class="c" d="M41.88,71.05H31.75V85.61h3.76v-3.8h4.67v3.81h3.77V72.91a1.94,1.94,0,0,0-2.07-1.86m-1.7,8H35.51V73.83h4.67V79Z"/><path class="c" d="M183.78,71.05h-8.53a1.85,1.85,0,0,0-1.85,1.84V83.78a1.85,1.85,0,0,0,1.85,1.84h8.53a1.85,1.85,0,0,0,1.85-1.85V72.9a1.85,1.85,0,0,0-1.85-1.84m-1.93,11.76H177.2v-9h4.65v9Z"/><path class="c" d="M14.87,77.87a1.86,1.86,0,0,0,1.86,1.85H23.3v3.12H14.87v2.77h12.2V78.8a1.83,1.83,0,0,0-1.7-1.85H18.63V73.83h8.44V71.05H14.87v6.81Z"/><path class="c" d="M92.37,71.05H82V85.61h3.8v-3.8h4.67v3.81h3.77V72.91a1.87,1.87,0,0,0-1.86-1.86m-1.9,8H85.8V73.83h4.67V79Z"/><path class="c" d="M156.99,73.82h4.23V85.61h3.75V73.82h4.22V71.05h-12.2Z"/><path class="c" d="M118,71.06H99.23V85.61H103V73.83h4.62V85.61h3.82V73.83H116V85.61h3.77V72.91A1.86,1.86,0,0,0,118,71.06"/><path class="c" d="M151.32,71.06a1.86,1.86,0,0,1,1.86,1.85v12.7h-3.77V73.83h-4.67V85.61H141V71.06h10.34Z"/><path class="c" d="M124.93,83.76a1.85,1.85,0,0,0,1.85,1.85h10.33V82.84H128.7V79.72h8.42V77H128.7V73.83h8.42V71.05H124.93Z"/><path class="c" d="M75.32,80.32h2V72.91a1.93,1.93,0,0,0-2.07-1.86H65.14V85.61H68.9V80.32h2.73l2.25,5.29h3.67Zm-1.75-2.77H68.9V73.83h4.67Z"/></g></svg>