<?xml version="1.0" encoding="UTF-8" standalone="no"?>
<svg
   xmlns:dc="http://purl.org/dc/elements/1.1/"
   xmlns:cc="http://creativecommons.org/ns#"
   xmlns:rdf="http://www.w3.org/1999/02/22-rdf-syntax-ns#"
   xmlns:svg="http://www.w3.org/2000/svg"
   xmlns="http://www.w3.org/2000/svg"
   viewBox="0 0 1052.5601 707.91998"
   height="707.91998"
   width="1052.5601"
   xml:space="preserve"
   id="svg2"
   version="1.1"><metadata
     id="metadata8"><rdf:RDF><cc:Work
         rdf:about=""><dc:format>image/svg+xml</dc:format><dc:type
           rdf:resource="http://purl.org/dc/dcmitype/StillImage" /></cc:Work></rdf:RDF></metadata><defs
     id="defs6" /><g
     transform="matrix(1.3333333,0,0,-1.3333333,0,707.92)"
     id="g10"><g
       transform="scale(0.1)"
       id="g12"><path
         id="path14"
         style="fill:#211d1d;fill-opacity:1;fill-rule:nonzero;stroke:none"
         d="M 834.719,5232.45 H 1246.16 V 4708.53 H 834.719 v 76.96 c 0,120.35 -58.231,177.6 -174.641,171.69 -116.457,5.91 -174.64,-51.34 -174.64,-171.69 v -331.52 c 0,-80.94 41.441,-134.22 124.324,-159.84 h 100.636 c 15.774,3.93 35.52,5.92 59.204,5.92 67.058,0 144.531,-14.8 232.358,-44.31 87.78,-29.5 144.53,-61.97 170.2,-97.4 49.3,-66.97 74,-182.08 74,-345.44 v -203.73 c 0,-198.78 -61.19,-332.63 -183.52,-401.54 -80.941,-45.28 -215.113,-67.9 -402.562,-67.9 H 74 v 541.68 h 411.438 v -103.6 c 0,-122.37 57.722,-180.56 173.16,-174.64 117.382,-5.92 176.121,52.54 176.121,175.43 v 330.04 c 0,83.25 -43.242,136.76 -129.735,160.53 h -88.468 c -220.153,0 -376.434,46.25 -468.797,138.75 C 98.5586,4272.86 74,4388.02 74,4553.36 v 200.77 c 0,183.06 53.281,310.99 159.84,383.83 80.89,57.08 202.25,85.61 364.082,85.61 47.355,0 126.258,-3.98 236.797,-11.84 z m -74,59.2 c -57.258,5.92 -110.539,8.88 -159.84,8.88 C 200.266,5300.53 0,5117.98 0,4752.93 V 4551.65 C 0,4368.13 30.4297,4236.88 91.3867,4157.97 199.52,4047.43 374.438,3992.21 616.234,3992.21 h 79.594 c 43.242,-13.83 64.891,-42.46 64.891,-85.84 v -328.56 c 0,-71.04 -34.039,-104.62 -102.121,-100.64 -66.137,-3.98 -99.16,29.6 -99.16,100.64 v 177.6 H 0 v -692.64 h 663.035 c 195.363,0 340.405,25.53 435.125,76.59 148,82.51 222,237.68 222,465.6 v 203.32 c 0,155.16 -20.72,272.04 -62.16,350.62 -39.5,70.72 -113.5,124.73 -222,162.06 -86.859,29.45 -180.562,44.21 -281.199,44.21 -23.684,0 -41.442,0 -53.281,0 h -79.922 c -41.438,13.79 -62.16,42.41 -62.16,85.84 v 331.52 c 0,69.05 33.531,101.61 100.64,97.68 67.067,3.93 100.641,-28.63 100.641,-97.68 v -150.96 h 559.441 v 677.84 H 760.719 v -17.76" /><path
         id="path16"
         style="fill:#211d1d;fill-opacity:1;fill-rule:nonzero;stroke:none"
         d="M 2255.48,4365.17 H 2054.2 v 426.24 c 0,71.04 33.02,104.57 99.16,100.64 h 2.96 c 66.09,3.93 99.16,-29.6 99.16,-100.64 z m -102.12,603.84 c -115.44,5.92 -173.16,-52.82 -173.16,-176.16 v -504.64 h 349.28 v 504.64 c 0,123.34 -58.74,182.08 -176.12,176.16" /><path
         id="path18"
         style="fill:#211d1d;fill-opacity:1;fill-rule:nonzero;stroke:none"
         d="m 2740.92,3903.39 v -763.66 h -411.44 v 929.44 H 1980.2 v -929.44 h -411.44 v 1623.38 c 0,200.72 58.18,334.52 174.64,401.44 76.96,45.24 214.09,67.9 411.44,67.9 187.45,0 320.65,-22.66 399.6,-67.9 124.32,-68.91 186.48,-202.71 186.48,-401.44 z m -148,1329.06 c -94.72,51.29 -240.78,76.96 -438.08,76.96 -209.19,0 -359.18,-25.67 -449.92,-76.96 -140.14,-80.93 -210.16,-236.8 -210.16,-467.68 v -1702 h 559.44 v 929.44 h 201.28 v -929.44 h 559.44 v 753.96 86.66 861.38 c 0,228.89 -74,384.8 -222,467.68" /><path
         id="path20"
         style="fill:#211d1d;fill-opacity:1;fill-rule:nonzero;stroke:none"
         d="m 5127.13,4365.17 h -201.28 v 426.24 c 0,71.04 33.03,104.57 99.16,100.64 h 2.96 c 66.09,3.93 99.16,-29.6 99.16,-100.64 z m -102.12,603.84 c -115.44,5.92 -173.15,-52.82 -173.15,-176.16 v -504.64 h 349.27 v 504.64 c 0,123.34 -58.74,182.08 -176.12,176.16" /><path
         id="path22"
         style="fill:#211d1d;fill-opacity:1;fill-rule:nonzero;stroke:none"
         d="m 5612.57,3903.39 v -763.66 h -411.44 v 929.44 h -349.27 v -929.44 h -411.45 v 1623.38 c 0,200.72 58.18,334.52 174.64,401.44 76.96,45.24 214.09,67.9 411.44,67.9 187.46,0 320.66,-22.66 399.6,-67.9 124.32,-68.91 186.48,-202.71 186.48,-401.44 z m -148,1329.06 c -94.72,51.29 -240.77,76.96 -438.08,76.96 -209.19,0 -359.18,-25.67 -449.92,-76.96 -140.13,-80.93 -210.15,-236.8 -210.15,-467.68 v -1702 h 559.43 v 929.44 h 201.28 v -929.44 h 559.44 v 753.96 86.66 861.38 c 0,228.89 -74,384.8 -222,467.68" /><path
         id="path24"
         style="fill:#211d1d;fill-opacity:1;fill-rule:nonzero;stroke:none"
         d="m 3812.4,5232.45 h 411.45 V 4708.53 H 3812.4 v 76.96 c 0,120.35 -58.23,177.6 -174.64,171.69 -116.45,5.91 -174.63,-51.86 -174.63,-173.22 v -334.48 c 0,-81.67 42.82,-135.42 128.53,-161.27 h 52.03 v -219.04 h -48.98 c -87.74,-23.68 -131.58,-76.96 -131.58,-159.84 v -769.6 h -411.45 v 407 73.33 1133.52 c 0,183.24 53.29,311.35 159.84,384.29 80.9,57.12 202.25,85.7 364.09,85.7 47.35,0 126.26,-3.98 236.79,-11.84 z m -74,59.2 c -57.25,5.92 -110.53,8.88 -159.84,8.88 -400.61,0 -600.87,-182.55 -600.87,-547.6 v -1132.87 -73.33 -483.96 h 559.43 v 843.6 c 0,43.38 21.69,72.01 65.13,85.84 h 115.44 v 372.96 h -114.75 c -43.89,13.79 -65.82,42.41 -65.82,85.84 v 331.52 c 0,69.05 33.53,101.61 100.64,97.68 67.07,3.93 100.64,-28.63 100.64,-97.68 v -150.96 h 559.44 v 677.84 H 3738.4 v -17.76" /><path
         id="path26"
         style="fill:#211d1d;fill-opacity:1;fill-rule:nonzero;stroke:none"
         d="m 7094.99,4552.62 c 0,-167.52 -30.62,-290.68 -91.77,-369.49 61.15,-80.8 91.77,-203.96 91.77,-369.49 V 3139.73 H 6686.5 v 769.6 c 0,82.88 -43.42,136.16 -130.23,159.84 h -222 v -929.44 h -411.45 v 522 29.95 c 0,0.87 0,1.69 0,2.55 v 0 1538.22 h 411.45 v -20.72 c 112.48,7.86 191.38,11.84 236.79,11.84 163.77,0 285.14,-28.58 364.09,-85.7 106.56,-72.94 159.84,-201.05 159.84,-384.29 z m -526.88,747.91 c -49.35,0 -102.63,-2.96 -159.84,-8.88 v 17.76 h -559.44 v -1619.12 -28.56 -598.96 h 559.44 v 929.44 h 139.11 c 43.39,-13.83 65.13,-42.46 65.13,-85.84 v -843.6 h 556.47 v 748.88 c 0,167.71 -24.69,291.05 -73.99,370 49.3,76.96 73.99,200.26 73.99,370 v 201.28 c 0,365.05 -200.3,547.6 -600.87,547.6" /><path
         id="path28"
         style="fill:#211d1d;fill-opacity:1;fill-rule:nonzero;stroke:none"
         d="m 6612.51,4451.01 c 0,-43.43 -21.74,-72.05 -65.13,-85.84 h -139.11 v 417.36 c 0,69.05 33.53,101.61 100.64,97.68 69.05,3.93 103.6,-28.63 103.6,-97.68 z m -103.6,506.17 c -116.46,5.91 -174.64,-51.34 -174.64,-171.69 v -491.36 h 224.96 c 84.82,25.62 127.27,78.9 127.27,159.84 v 331.52 c 0,120.35 -59.2,177.6 -177.59,171.69" /><path
         id="path30"
         style="fill:#211d1d;fill-opacity:1;fill-rule:nonzero;stroke:none"
         d="m 7820.18,3139.73 h -411.45 v 2092.72 h 411.45 z M 7334.74,5309.41 V 3062.77 h 559.44 v 2246.64 h -559.44" /><path
         id="path32"
         style="fill:#211d1d;fill-opacity:1;fill-rule:nonzero;stroke:none"
         d="M 223.945,319.918 C 74.6094,533.18 0,876.43 0,1349.69 c 0,473.2 73.2969,816.43 219.945,1029.76 146.598,213.26 385.227,319.93 715.836,319.93 215.949,0 442.529,-42.68 679.849,-127.97 l -55.99,-203.96 c -242.63,82.61 -450.59,123.98 -623.859,123.98 -250.625,0 -429.898,-88.68 -537.875,-265.94 -107.968,-177.33 -161.965,-466.58 -161.965,-867.8 0,-401.292 55.993,-693.221 167.965,-875.799 111.973,-182.653 281.25,-273.942 507.887,-273.942 135.967,0 299.927,31.992 491.887,95.981 v 799.81 H 951.777 V 1299.7 H 1623.62 V 147.961 C 1349,49.3008 1111.74,0 911.793,0 602.484,0 373.227,106.602 223.945,319.918" /><path
         id="path34"
         style="fill:#211d1d;fill-opacity:1;fill-rule:nonzero;stroke:none"
         d="m 2151.5,795.82 v 1863.57 h 219.95 V 823.801 c 0,-410.59 187.96,-615.852 563.87,-615.852 189.26,0 330.55,56.61 423.9,169.973 93.29,113.277 139.96,261.93 139.96,445.879 V 2659.39 h 219.96 V 795.82 c 0,-258.629 -67.37,-455.902 -201.96,-591.859 C 3382.53,67.9883 3185.89,0 2927.32,0 2668.7,0 2474.74,70.6094 2345.45,211.949 2216.11,353.23 2151.5,547.871 2151.5,795.82" /><path
         id="path36"
         style="fill:#211d1d;fill-opacity:1;fill-rule:nonzero;stroke:none"
         d="M 4846.88,2459.42 H 4486.95 V 1303.7 h 319.93 c 245.26,0 433.22,44.61 563.87,133.98 130.61,89.28 195.96,243.25 195.96,461.88 0,218.58 -57.99,366.53 -173.96,443.9 -115.97,77.29 -297.93,115.96 -545.87,115.96 z m 247.94,-1343.68 c -143.97,-8 -237.32,-12 -279.93,-12 H 4486.95 V 39.9883 H 4267.01 V 2659.39 h 587.86 c 325.24,0 563.87,-56 715.83,-167.96 151.97,-111.98 227.95,-309.31 227.95,-591.87 0,-189.33 -37.99,-341.3 -113.97,-455.9 C 5608.7,1329 5486.73,1235.71 5318.77,1163.73 5500.04,819.82 5665.31,445.219 5814.66,39.9883 H 5574.71 C 5428.06,429.219 5268.1,787.82 5094.82,1115.74" /><path
         id="path38"
         style="fill:#211d1d;fill-opacity:1;fill-rule:nonzero;stroke:none"
         d="m 6326.54,795.82 v 1863.57 h 219.95 V 823.801 c 0,-410.59 187.95,-615.852 563.86,-615.852 189.27,0 330.56,56.61 423.91,169.973 93.3,113.277 139.96,261.93 139.96,445.879 V 2659.39 h 219.96 V 795.82 c 0,-258.629 -67.36,-455.902 -201.95,-591.859 C 7557.56,67.9883 7360.93,0 7102.36,0 6843.73,0 6649.78,70.6094 6520.49,211.949 6391.14,353.23 6326.54,547.871 6326.54,795.82" /></g></g></svg>