<svg xmlns="http://www.w3.org/2000/svg" xmlns:xlink="http://www.w3.org/1999/xlink" width="69.809" height="65" viewBox="0 0 69.809 65"><defs><style>.a{fill:url(#a);}.b{fill:#fff;}</style><linearGradient id="a" y1="0.5" x2="1" y2="0.5" gradientUnits="objectBoundingBox"><stop offset="0" stop-color="#00669f"/><stop offset="1" stop-color="#4394d0"/></linearGradient></defs><g transform="translate(-838.947 -272.63)"><path class="a" d="M864.017,272.63a17.143,17.143,0,0,0-13.392,7.736l-9.839,17.027a17.2,17.2,0,0,0,0,15.473l9.839,17.027a17.143,17.143,0,0,0,13.392,7.736h19.67a17.143,17.143,0,0,0,13.392-7.736l9.839-17.027a17.2,17.2,0,0,0,0-15.473l-9.839-17.027a17.143,17.143,0,0,0-13.392-7.736Z" transform="translate(0 0)"/><path class="b" d="M872.332,319.714c3.7,0,3.65,2.554,8.506,2.554,3.317,0,6.248-.881,6.248-4.657.163-3.2-3.309-3.939-7.144-4.442-5.834-.9-11.845-3.628-11.778-11.845.429-7.048,6.885-10.727,13.563-10.727a14.429,14.429,0,0,1,12.585,6.574l-6.359,4.257a7.188,7.188,0,0,0-6.2-3.517c-2.961,0-5.515,1.1-5.678,3.7v.052c.059,3.05,3.154,3.472,6.419,4.153,6.463,1.207,12.771,3.576,12.4,12.349-.629,7-7.4,11.527-14.14,10.772-3.272-.355-8.047-.555-12.889-7.085a6.471,6.471,0,0,1,4.494-2.11" transform="translate(-7.508 -4.664)"/></g></svg>