<svg xmlns="http://www.w3.org/2000/svg" xmlns:xlink="http://www.w3.org/1999/xlink" width="95.001" height="95" viewBox="0 0 95.001 95"><defs><style>.a{fill:#303133;opacity:0.251;}.b{filter:url(#a);}</style><filter id="a" x="0" y="0" width="95.001" height="95" filterUnits="userSpaceOnUse"><feOffset input="SourceAlpha"/><feGaussianBlur stdDeviation="7" result="b"/><feFlood flood-color="#303133" flood-opacity="0.078"/><feComposite operator="in" in2="b"/><feComposite in="SourceGraphic"/></filter></defs><g transform="translate(-1670.999 -1382)"><g class="b" transform="matrix(1, 0, 0, 1, 1671, 1382)"><path class="a" d="M-10686.5-5295a26.339,26.339,0,0,1-10.315-2.083,26.4,26.4,0,0,1-8.425-5.679,26.4,26.4,0,0,1-5.679-8.423A26.337,26.337,0,0,1-10713-5321.5a26.344,26.344,0,0,1,2.083-10.316,26.4,26.4,0,0,1,5.679-8.423,26.409,26.409,0,0,1,8.425-5.68A26.339,26.339,0,0,1-10686.5-5348a26.326,26.326,0,0,1,10.313,2.083,26.41,26.41,0,0,1,8.424,5.68,26.4,26.4,0,0,1,5.679,8.423A26.326,26.326,0,0,1-10660-5321.5a26.323,26.323,0,0,1-2.083,10.314,26.4,26.4,0,0,1-5.679,8.423,26.4,26.4,0,0,1-8.424,5.679A26.326,26.326,0,0,1-10686.5-5295Zm0-38.632a3,3,0,0,0-2.489,1.323l-9.858,14.634a2.955,2.955,0,0,0-.163,3.084,2.957,2.957,0,0,0,2.649,1.591h19.721a2.959,2.959,0,0,0,2.65-1.591,2.955,2.955,0,0,0-.16-3.084l-9.862-14.634A2.994,2.994,0,0,0-10686.5-5333.632Z" transform="translate(10734 5369)"/></g></g></svg>