<svg xmlns="http://www.w3.org/2000/svg" width="2000" height="2000" viewBox="0 0 2000 2000"><defs><style>.a{fill:#231f20;}.b{fill:#626061;}.c{fill:#fff;}</style></defs><g transform="translate(-13428 -12398)"><path class="a" d="M0,1000V0H2000V2000H0Z" transform="translate(13428 12398)"/><path class="a" d="M0,1000V0H2000V2000H0Zm1900,900c0-7-303-10-890-10H120V120l893-3,892-2-897-3-898-2v894c0,706,3,895,13,899C148,1914,1900,1910,1900,1900Zm-70-50c-9-6-321-10-830-10s-821,4-830,10c-10,6,281,10,830,10S1840,1856,1830,1850ZM170,1750c0-43-5-82-10-85-6-4-10,27-10,85s4,89,10,85C166,1832,170,1793,170,1750ZM1847,963c-1-164-2-32-2,292,0,325,1,459,2,298C1849,1393,1849,1127,1847,963Zm-197,292V860l-497,2-498,3,492,2,493,3v770l-738,3-737,2,743,3,742,2Zm-70,345c-21-13-1397-13-1405,0-4,7,234,10,707,10C1346,1610,1590,1606,1580,1600ZM170,1505c0-28.5-20-68-20,0s3,95,10,85C165,1582,170,1544,170,1505Zm1240-244c0-89-4-152-10-156-7-4-10,48-10,149,0,97,4,156,10,156S1410,1354,1410,1261Zm-357,92c-160-2-426-2-590,0-164,1-32,2,292,2C1080,1355,1214,1354,1053,1353ZM170,760c0-375-4-581-10-585-7-4-10,193-10,585s3,589,10,585C166,1341,170,1135,170,760Zm1187,447c-2-23-3-1-3,48,0,50,1,68,3,42S1359,1230,1357,1207Zm-259-54c-137-2-359-2-496,0-136,1-24,2,248,2S1234,1154,1098,1153ZM407,588c-1-95-3-18-3,172s2,267,3,173C409,838,409,682,407,588ZM1585,910c4-7-160-10-484-10H610V620l618-1c353,0,608-4,597-9s-291-9-622-9l-603-1V754c0,114,3,156,13,159C638,923,1579,920,1585,910ZM657,713c-2-27-3-5-3,47s1,74,3,48C659,781,659,739,657,713Zm1173-53c10-6-192-10-580-10s-590,4-580,10c9,6,232,10,580,10S1821,666,1830,660Zm17-197c-2-27-3-5-3,47s1,74,3,48C1849,531,1849,489,1847,463Zm-364-60c-193-2-513-2-710,0-197,1-38,2,352,2C1516,405,1677,404,1483,403Zm355-38c-7-7-1479-7-1486,0-3,3,331,5,743,5S1841,368,1838,365Zm8-192c-4-11-152-13-843-11l-838,3,838,2,837,3,2,93,2,92,3-84C1849,225,1849,181,1846,173Z" transform="translate(13428 12398)"/><path class="a" d="M0,1000V0H2000V2000H0Zm1900,10V110H110v894c0,706,3,895,13,899,6,3,409,6,895,6l882,1Z" transform="translate(13428 12398)"/><path class="a" d="M998,1843l-827-3-3-91c-2-55,1-93,7-95,6-3,340-3,743-2l732,3V855H665l-3-95-3-95H1840v593c0,325-3,591-7,590C1828,1846,1453,1844,998,1843Z" transform="translate(13428 12398)"/><path class="b" d="M0,1000V0H2000V2000H0Zm1900,10V110H100V1910H1900Z" transform="translate(13428 12398)"/><path class="b" d="M170,1750v-90H1650V850H660V670H1840V1840H170Z" transform="translate(13428 12398)"/><path class="b" d="M170,760V170l833,2,832,3V355l-740,2-740,3-3,400-2,400,492,2,493,3v180l-582,3-583,2Z" transform="translate(13428 12398)"/><path class="c" d="M0,1000V0H2000V2000H0Zm1900,10V110H100V1910H1900Z" transform="translate(13428 12398)"/><path class="c" d="M170,1660H1650V850H660V670H1840V1840H170Z" transform="translate(13428 12398)"/><path class="c" d="M170,1500v-90H1411l-3-152-3-153-495-5-495-5V425H1835V595l-617,3-617,2-3,156c-2,86-1,158,1,160s226,4,498,4h493v670H170Z" transform="translate(13428 12398)"/><path class="c" d="M170,760V170l833,2,832,3V355l-740,2-740,3-3,400-2,400,492,2,493,3v180l-582,3-583,2Z" transform="translate(13428 12398)"/></g></svg>