<svg xmlns="http://www.w3.org/2000/svg" width="82" height="82" viewBox="0 0 82 82"><defs><style>.a{fill:#1d1d1b;}</style></defs><g transform="translate(-5721 -11224)"><path class="a" d="M9.6,42.2a2.57,2.57,0,0,0-2.3,2.4l-.2,1c-.2,1-.5,1.4-1.2,1.5-1,.1-1.3-.5-1.3-.9a.9.9,0,0,1,.2-.9,1.506,1.506,0,0,1,.8-.4l.4-.1L5.6,43l-.4.1c-1.7.2-2.5,1.3-2.2,3.2A2.746,2.746,0,0,0,5.7,49h.5a2.579,2.579,0,0,0,2.4-2.4l.2-1.1a1.347,1.347,0,0,1,1.3-1.4,1.086,1.086,0,0,1,1.3,1.1,1.311,1.311,0,0,1-.2,1.1,1.626,1.626,0,0,1-1.1.5l-.4.1.3,1.8.4-.1c1.1-.2,3-.8,2.6-3.4-.3-2.3-1.5-3.2-3.4-3" transform="translate(5721 11224)"/><path class="a" d="M3.2,35.4l3.7.5-.2,2.4-3.8-.5-.2,1.9,9.7,1.1.2-1.9-4.3-.5.2-2.3,4.4.5.2-1.9L3.4,33.6Z" transform="translate(5721 11224)"/><path class="a" d="M11.2,28.5l-.6,1.7L7.4,28ZM5,28.1l8.1,6.1.7-1.8L11.9,31l.9-2.3,2.4.3.7-1.8-10-1.1Z" transform="translate(5721 11224)"/><path class="a" d="M10.5,20.6l.6-.9a1.078,1.078,0,0,1,1.8-.2,1.242,1.242,0,0,1,.3,1.9l-.6.8Zm8.3.8c-.4-.3-.9-.6-1.4-.9l-.2-.1c-.9-.6-1.6-.7-2.2-.3a2.318,2.318,0,0,0-1.2-2.2,2.4,2.4,0,0,0-2.1-.5,2.3,2.3,0,0,0-1.5,1.1l-2,2.8L16.1,27l1.1-1.5L13.9,23l.6-.8c.5-.7.9-.8,1.7-.2.2.1.4.3.6.4l.9.6a2.3,2.3,0,0,0,.9.3h.1l1.4-1.9-.5.2a1.345,1.345,0,0,1-.8-.2" transform="translate(5721 11224)"/><path class="a" d="M19.1,15.2l-.7.6-1.9-2.2.6-.5c.8-.6,1.4-.6,2,.2.9.9.4,1.6,0,1.9m1.2,1a2.654,2.654,0,0,0,.3-4.1c-1.2-1.4-2.7-1.6-4-.4l-2.4,2,6.3,7.4,1.4-1.2L19.4,17Z" transform="translate(5721 11224)"/><path class="a" d="M26.8,10.1l-1.1.1c-1,.1-1.5-.1-1.8-.7A.966.966,0,0,1,24.3,8a1.009,1.009,0,0,1,.9-.1,1.12,1.12,0,0,1,.8.7l.2.3,1.7-.8-.2-.3A2.454,2.454,0,0,0,24,6.7c-1.7.9-2.3,2.4-1.5,3.9a2.642,2.642,0,0,0,3.1,1.5l1.1-.1a1.452,1.452,0,0,1,1.8.8,1.1,1.1,0,0,1-.6,1.6c-.8.4-1.4.2-1.9-.8l-.2-.4L24,14l.2.4A4.483,4.483,0,0,0,25.6,16a1.8,1.8,0,0,0,1,.2,3.429,3.429,0,0,0,1.6-.4A3.742,3.742,0,0,0,30,14.1a3.206,3.206,0,0,0-.2-2.5,2.685,2.685,0,0,0-3-1.5" transform="translate(5721 11224)"/><path class="a" d="M37,7.4l-.3-2.9.8-.1c.5,0,.9,0,1.1.3a1.528,1.528,0,0,1,.4,1,1.558,1.558,0,0,1-.3,1.2,1.222,1.222,0,0,1-.9.4Zm3.1-3.8A2.649,2.649,0,0,0,37.9,3l-3.1.3.9,9.7,1.8-.2-.4-3.9,1.1-.1a3,3,0,0,0,2.1-1,3.8,3.8,0,0,0,.6-2.2,2.85,2.85,0,0,0-.8-2" transform="translate(5721 11224)"/><rect class="a" width="9.7" height="1.9" transform="matrix(0.085, -0.996, 0.996, 0.085, 5763.564, 11236.565)"/><path class="a" d="M54.3,5l-1.9-.5L50.3,6.9l-.6-3.1-1.9-.5,1,5.2L45,12.6l2,.5,2.3-2.6.6,3.4,2,.6L50.8,9Z" transform="translate(5721 11224)"/><path class="a" d="M54.6,14.2,58.5,7l-1.7-.9-4.6,8.6,4.9,2.6.7-1.4Z" transform="translate(5721 11224)"/><path class="a" d="M61.9,15.8,64.4,18l1.1-1.2-2.6-2.2,1.5-1.7,2.7,2.3L68.2,14l-4.1-3.6-6.4,7.4,4.2,3.6,1-1.2-2.7-2.4Z" transform="translate(5721 11224)"/><path class="a" d="M72.8,19.8l-3.9,1,2.2-3.4-1.2-1.6-3.3,5.5-3.1,2.2L64.6,25l3.1-2.2L74,21.4Z" transform="translate(5721 11224)"/><path class="a" d="M70.8,35.6l-1-3.5,7.8-2.2-.5-1.8-9.4,2.7,1.5,5.3Z" transform="translate(5721 11224)"/><path class="a" d="M77.3,36.5l-8,.8.1,1.8,8.1-.7.2,2.1,1.6-.1-.6-6.3-1.6.2Z" transform="translate(5721 11224)"/><path class="a" d="M77.4,46.1a1.172,1.172,0,0,1-.9,1.1,5.858,5.858,0,0,1-2.7,0c-2.8-.4-3.3-1-3.1-2l.1-1,6.7,1Zm-8.2-1.2c-.5,3.2,1.8,3.8,4.3,4.1a13.665,13.665,0,0,0,1.9.2c1.7,0,3-.6,3.4-2.9l.4-2.8-9.6-1.4Z" transform="translate(5721 11224)"/><path class="a" d="M21.1,61.5,14.9,69l4.3,3.5,1-1.3-2.8-2.3,5.1-6.2Z" transform="translate(5721 11224)"/><path class="a" d="M28.8,68.8a8.115,8.115,0,0,1-.9,2.9,6.146,6.146,0,0,1-1.7,2.5.909.909,0,0,1-1.1.1.961.961,0,0,1-.6-.9,8.115,8.115,0,0,1,.9-2.9A7,7,0,0,1,27.1,68a.735.735,0,0,1,.6-.2.9.9,0,0,1,.5.1.961.961,0,0,1,.6.9m0-2.2a2.569,2.569,0,0,0-2.8.1,6.723,6.723,0,0,0-2.3,3.1c-.7,1.6-1.1,2.8-.9,3.7a2.718,2.718,0,0,0,1.7,2.2,4.293,4.293,0,0,0,1.4.4,2.5,2.5,0,0,0,1.4-.4,6.723,6.723,0,0,0,2.3-3.1,7.789,7.789,0,0,0,.9-3.7,2.565,2.565,0,0,0-1.7-2.3" transform="translate(5721 11224)"/><path class="a" d="M36.6,75.5l-1.3-6.6-2.1-.3-1.6,9.6,1.7.3,1.1-6.4,1.3,6.8,2.1.3,1.6-9.6-1.7-.3Z" transform="translate(5721 11224)"/><path class="a" d="M43.9,77.6l-.7-6.7,1.1-.1a1.145,1.145,0,0,1,1.3.6,7.655,7.655,0,0,1,.7,2.6,7.848,7.848,0,0,1-.1,2.8,1.206,1.206,0,0,1-1.1.8ZM47,70.4a3.009,3.009,0,0,0-3-1.1l-2.8.3,1.1,9.7L45,79c3.2-.4,3.2-2.7,2.9-5.2a7.129,7.129,0,0,0-.9-3.4" transform="translate(5721 11224)"/><path class="a" d="M54.8,75.3c-.7.3-1.5.1-2.7-2.8a6.864,6.864,0,0,1-.7-2.9,1.107,1.107,0,0,1,.7-.9.6.6,0,0,1,.4-.1c.6,0,1.3.6,2.2,2.8,1.3,2.9.8,3.6.1,3.9m-.4-7.8a2.551,2.551,0,0,0-2.8-.2,2.7,2.7,0,0,0-1.9,2.1,7.322,7.322,0,0,0,.7,3.8,6.328,6.328,0,0,0,2.1,3.2,2.976,2.976,0,0,0,1.5.5,3.452,3.452,0,0,0,1.3-.3,2.7,2.7,0,0,0,1.9-2.1,7.322,7.322,0,0,0-.7-3.8,6.823,6.823,0,0,0-2.1-3.2" transform="translate(5721 11224)"/><path class="a" d="M67,69.2l-6-7.7-1.4,1.1,3.9,5-5.8-3.5L56,65.4l6,7.7L63.4,72l-4-5.1,5.9,3.6Z" transform="translate(5721 11224)"/><path class="a" d="M41,15A26.05,26.05,0,1,0,67.1,41,25.948,25.948,0,0,0,41,15m0,52.9A26.9,26.9,0,1,1,67.9,41,26.973,26.973,0,0,1,41,67.9" transform="translate(5721 11224)"/><path class="a" d="M41,.8A40.2,40.2,0,1,0,81.2,41,40.331,40.331,0,0,0,41,.8M41,82A41,41,0,1,1,82,41,41.056,41.056,0,0,1,41,82" transform="translate(5721 11224)"/><path class="a" d="M23.5,32.7h-.9V30.6h.7c.7,0,1.1.2,1.1,1,.1.7-.2,1.1-.9,1.1m.3,3.8H22.7V34h1a1.078,1.078,0,0,1,1.1,1.2c0,.9-.3,1.3-1,1.3m2.7-1.1a1.979,1.979,0,0,0-1.2-2.1,1.912,1.912,0,0,0,.9-1.8,2.109,2.109,0,0,0-2.4-2.2H21v8.6h2.8a2.472,2.472,0,0,0,2.7-2.5" transform="translate(5721 11224)"/><path class="a" d="M30.2,38c1.8,0,2.7-.9,2.7-2.8v-6H31.2v6.1c0,1.2-.5,1.3-1,1.3s-1-.1-1-1.3V29.2H27.5v6c0,1.9.9,2.8,2.7,2.8" transform="translate(5721 11224)"/><path class="a" d="M35.8,29.3H34.1v8.6H39V36.4H35.8Z" transform="translate(5721 11224)"/><path class="a" d="M44.6,36.4H41.4V29.3H39.7v8.6h4.9Z" transform="translate(5721 11224)"/><rect class="a" width="1.7" height="8.6" transform="translate(5766.4 11253.3)"/><path class="a" d="M51.2,36.7c-.4,0-1.2,0-1.2-3.1s.8-3.1,1.2-3.1,1.2,0,1.2,3.1-.8,3.1-1.2,3.1m2.9-3.1c0-3-.9-4.5-2.9-4.5s-2.9,1.4-2.9,4.5c0,3,.9,4.5,2.9,4.5,1.9-.1,2.9-1.5,2.9-4.5" transform="translate(5721 11224)"/><path class="a" d="M56.9,32.3,59,37.9h1.9V29.3H59.3v5.4l-2.1-5.4H55.3v8.6h1.6Z" transform="translate(5721 11224)"/><path class="a" d="M21.4,43.1h-.9V41h.7c.7,0,1.1.2,1.1,1a.867.867,0,0,1-.9,1.1m.2,3.7H20.5V44.3h1a1.078,1.078,0,0,1,1.1,1.2c.1.9-.3,1.3-1,1.3m1.6-3.2a1.912,1.912,0,0,0,.9-1.8,2.109,2.109,0,0,0-2.4-2.2H18.9v8.6h2.8a2.453,2.453,0,0,0,2.7-2.4c-.1-1.2-.4-1.9-1.2-2.2" transform="translate(5721 11224)"/><path class="a" d="M27.2,40.9h.9c.7,0,1.1.4,1.1,1.2a1.078,1.078,0,0,1-1.1,1.2h-.9Zm3.6,6.4V45.7c0-.9-.3-1.5-.9-1.7a2.207,2.207,0,0,0,1-2,2.06,2.06,0,0,0-2.3-2.3H25.5v8.6h1.7V44.7h.9c.8,0,1,.3,1,1.1v1.6c0,.4.1.7.3.8l.1.1h2.2l-.5-.3a1.012,1.012,0,0,1-.4-.7" transform="translate(5721 11224)"/><path class="a" d="M34.8,47c-.4,0-1.2,0-1.2-3.1s.8-3.1,1.2-3.1,1.2,0,1.2,3.1c.1,3.1-.7,3.1-1.2,3.1m0-7.6c-2,0-2.9,1.4-2.9,4.5,0,3,.9,4.5,2.9,4.5s2.9-1.4,2.9-4.5-.9-4.5-2.9-4.5" transform="translate(5721 11224)"/><path class="a" d="M44.8,39.6H42.9l-2.2,3.2V39.6H39v8.6h1.7V45.4l.5-.8,1.9,3.6H45l-2.7-5Z" transform="translate(5721 11224)"/><path class="a" d="M47.1,44.4h3V43h-3V41.1h3.2V39.6H45.5v8.6h4.8V46.7H47.1Z" transform="translate(5721 11224)"/><path class="a" d="M53.1,40.9H54c.7,0,1.1.4,1.1,1.2A1.078,1.078,0,0,1,54,43.3h-.9Zm3.7,6.4V45.7c0-.9-.3-1.5-.9-1.7a2.207,2.207,0,0,0,1-2,2.06,2.06,0,0,0-2.3-2.3H51.5v8.6h1.7V44.7H54c.8,0,1,.3,1,1.1v1.6c0,.4.1.7.3.8l.1.1h2.2l-.5-.3a.908.908,0,0,1-.3-.7" transform="translate(5721 11224)"/><path class="a" d="M61.6,43.3l-.9-.3c-.8-.3-1.1-.6-1.1-1.2,0-.9.6-1,.9-1,.7,0,1,.3,1,1v.3h1.7v-.4c0-1.6-.8-2.3-2.5-2.3A2.421,2.421,0,0,0,58,41.9a2.324,2.324,0,0,0,1.8,2.4l.9.3a1.13,1.13,0,0,1,1,1.3.973.973,0,0,1-1.1,1c-.8,0-1.2-.4-1.2-1.3v-.4H57.7v.4a2.424,2.424,0,0,0,2.7,2.7c1.9,0,2.9-.9,2.9-2.7.1-1.1-.4-1.8-1.7-2.3" transform="translate(5721 11224)"/><path class="a" d="M15,60.6a1.2,1.2,0,1,0,1.2,1.2A1.216,1.216,0,0,0,15,60.6" transform="translate(5721 11224)"/><path class="a" d="M67.1,60.6a1.2,1.2,0,1,0,1.2,1.2,1.155,1.155,0,0,0-1.2-1.2" transform="translate(5721 11224)"/></g></svg>