<svg id="Layer_1" data-name="Layer 1" xmlns="http://www.w3.org/2000/svg" xmlns:xlink="http://www.w3.org/1999/xlink" viewBox="0 0 218.28 49.39"><defs><clipPath id="clip-path"><polygon points="0 0 24.7 24.7 0 49.39 24.7 49.39 49.39 24.7 24.7 0 0 0" fill="none"/></clipPath></defs><title>logo</title><path d="M53.94,17c0-3.13,1.77-4.83,5-4.83h6.23c3.13,0,4.9,1.7,4.9,4.83v2.42H65.71V17.09c0-.78-.44-1.19-1.33-1.19H59.62c-.88,0-1.33.41-1.33,1.19v2.69c0,.82.17,1.12,1,1.29l7.76,2c2.21.58,3.3,1.94,3.3,4v4.25c0,3.13-1.77,4.83-5,4.83H58.63c-3.17,0-4.9-1.7-4.9-4.83V29.14h4.36v2.14c0,.78.44,1.19,1.33,1.19h5.17c.88,0,1.33-.41,1.33-1.19V28a1.14,1.14,0,0,0-1-1.19L57,24.71c-2-.51-3.06-1.94-3.06-4.25Z" fill="#283746"/><path d="M74.42,36V12.33h4.42V36Z" fill="#283746"/><path d="M92.26,28.87,87.8,20.43V36H83.68V12.33H88l5.79,11.44,5.68-11.44h4.29V36H99.58V20.32l-4.39,8.54H92.26Z" fill="#283746"/><path d="M113,27.54v8.51h-4.42V12.33h11.2c3.23,0,5,1.77,5,5v5.21c0,3.23-1.77,5-5,5Zm0-11.4V23.7H119a1.16,1.16,0,0,0,1.29-1.33v-4.9A1.16,1.16,0,0,0,119,16.14Z" fill="#283746"/><path d="M128.39,36V12.33h4.43V32.2h9.66V36Z" fill="#283746"/><path d="M151.81,36h-4.42V27.81L141.77,19a3.27,3.27,0,0,1-.54-2.08V12.33h4.42v4.05A2.86,2.86,0,0,0,146,18l3.74,5.85,3.57-5.55a3,3,0,0,0,.41-1.6V12.32h4.22v4.59a3.53,3.53,0,0,1-.58,2.08l-5.55,8.65V36Z" fill="#283746"/><path d="M175.84,12.33h4.42V31.18c0,3.23-1.77,5-5,5h-4.73c-3.23,0-5-1.77-5-5V28.29h4.36V31a1.18,1.18,0,0,0,1.33,1.33h3.3A1.18,1.18,0,0,0,175.85,31V12.33Z" fill="#283746"/><path d="M185,36V12.33h14.84v3.78H189.42V22h9.53v3.71h-9.53v6.6h10.69V36Z" fill="#283746"/><path d="M218.27,16.17h-5.82V36H208V16.17h-5.85V12.32h16.1v3.85Z" fill="#283746"/><polygon points="12.35 37.04 37.04 37.04 24.7 49.39 12.35 37.04" fill="#fff"/><polygon points="12.35 12.35 37.04 12.35 24.7 24.7 12.35 12.35" fill="#fff"/><polygon points="12.35 37.04 24.7 24.7 37.04 37.04 12.35 37.04" fill="#fff"/><polygon points="0 49.39 12.35 37.04 24.7 49.39 0 49.39" fill="#fff"/><rect x="28.31" y="15.96" width="17.46" height="17.46" transform="translate(-6.61 33.42) rotate(-45)" fill="#fff"/><polygon points="12.35 12.35 24.7 0 37.04 12.35 12.35 12.35" fill="#fff"/><polygon points="0 0 24.7 0 12.35 12.35 0 0" fill="#fff"/><polygon points="12.35 37.04 37.04 37.04 24.7 49.39 12.35 37.04" fill="#1b80c4" opacity="0.75" style="isolation:isolate"/><polygon points="0 0 24.7 0 12.35 12.35 0 0" fill="#1b80c4" opacity="0.75" style="isolation:isolate"/><polygon points="12.35 12.35 37.04 12.35 24.7 24.7 12.35 12.35" fill="#1b80c4" opacity="0.75" style="isolation:isolate"/><polygon points="12.35 37.04 24.7 24.7 37.04 37.04 12.35 37.04" fill="#1b80c4" opacity="0.5" style="isolation:isolate"/><polygon points="12.35 12.35 24.7 0 37.04 12.35 12.35 12.35" fill="#1b80c4" opacity="0.5" style="isolation:isolate"/><rect x="28.31" y="15.96" width="17.46" height="17.46" transform="translate(-6.61 33.42) rotate(-45)" fill="#1b80c4"/><polygon points="0 49.39 12.35 37.04 24.7 49.39 0 49.39" fill="#1b80c4" opacity="0.35" style="isolation:isolate"/><g clip-path="url(#clip-path)"><path d="M17.5,24.7V27l-1,18H19c.74,0,1-1.1,1-1.1l4.8-17H34.2s7.5.11,7.5-2.27-7.5-2.27-7.5-2.27H24.75L20,5.44s-.21-1.1-1-1.1H16.47l1,18Z" fill="#fff" opacity="0.5" style="isolation:isolate"/></g></svg>