<svg xmlns="http://www.w3.org/2000/svg" xmlns:xlink="http://www.w3.org/1999/xlink" viewBox="0 0 1100.58 1257.93"><defs><style>.cls-1,.cls-15,.cls-35,.cls-36,.cls-40{fill:none;}.cls-2{fill:url(#linear-gradient);}.cls-22,.cls-3,.cls-33,.cls-34,.cls-5{fill:#fff;}.cls-3{opacity:0.42;}.cls-4{fill:url(#linear-gradient-2);}.cls-5{opacity:0.2;}.cls-6{opacity:0.79;}.cls-7{fill:#2b58d6;}.cls-8{fill:#36d8a9;}.cls-9{fill:#2fcfa4;}.cls-10,.cls-13{fill:#75efcc;}.cls-11{fill:#31ad86;}.cls-12{fill:#4f6ef7;}.cls-13{stroke:#75efcc;stroke-width:2.27px;}.cls-13,.cls-15{stroke-miterlimit:10;}.cls-14{clip-path:url(#clip-path);}.cls-15{stroke:#17388d;stroke-width:1.88px;}.cls-16{fill:#ef476f;}.cls-17{fill:#e8e9ed;}.cls-18{fill:#0c204e;}.cls-19{fill:#17388d;}.cls-20{fill:url(#linear-gradient-3);}.cls-21{fill:#d0d1d8;}.cls-22{opacity:0.34;}.cls-23{fill:url(#linear-gradient-4);}.cls-24{fill:url(#linear-gradient-5);}.cls-25{clip-path:url(#clip-path-2);}.cls-26{fill:url(#linear-gradient-6);}.cls-27{fill:url(#linear-gradient-7);}.cls-28{fill:url(#linear-gradient-8);}.cls-29{fill:url(#linear-gradient-9);}.cls-30{fill:url(#linear-gradient-10);}.cls-31{fill:url(#linear-gradient-11);}.cls-32{fill:url(#linear-gradient-12);}.cls-33{opacity:0.12;}.cls-34{opacity:0.4;}.cls-35,.cls-36{stroke:#fff;}.cls-35,.cls-36,.cls-40{stroke-linecap:round;stroke-linejoin:round;}.cls-35{stroke-dasharray:2.02 3.02;}.cls-36{stroke-width:1.48px;stroke-dasharray:2.93 4.4;}.cls-37,.cls-43,.cls-44,.cls-45{fill:#f6f7fc;}.cls-38{fill:url(#linear-gradient-13);}.cls-39{fill:url(#linear-gradient-14);}.cls-40{stroke:#bcc2c9;stroke-width:4.13px;}.cls-41{fill:url(#linear-gradient-15);}.cls-42{fill:url(#linear-gradient-16);}.cls-43{opacity:0.47;}.cls-44{opacity:0.29;}.cls-45{opacity:0.49;}</style><linearGradient id="linear-gradient" x1="561.57" y1="1192.09" x2="545.44" y2="-218.86" gradientUnits="userSpaceOnUse"><stop offset="0" stop-color="#4f6ef7"/><stop offset="0.05" stop-color="#4563df"/><stop offset="0.14" stop-color="#3651b8"/><stop offset="0.24" stop-color="#294297"/><stop offset="0.35" stop-color="#1e367d"/><stop offset="0.47" stop-color="#162c68"/><stop offset="0.6" stop-color="#102559"/><stop offset="0.75" stop-color="#0d2151"/><stop offset="1" stop-color="#0c204e"/></linearGradient><linearGradient id="linear-gradient-2" x1="566.08" y1="943.25" x2="566.08" y2="1370.19" gradientUnits="userSpaceOnUse"><stop offset="0.22" stop-color="#75efcc"/><stop offset="0.54" stop-color="#4cc8a2"/><stop offset="0.79" stop-color="#31ad86"/></linearGradient><clipPath id="clip-path"><circle class="cls-1" cx="540.29" cy="216.43" r="29.5"/></clipPath><linearGradient id="linear-gradient-3" x1="466.99" y1="1017.77" x2="591.22" y2="1111.05" xlink:href="#linear-gradient"/><linearGradient id="linear-gradient-4" x1="631.56" y1="729.21" x2="673.69" y2="785.23" xlink:href="#linear-gradient"/><linearGradient id="linear-gradient-5" x1="516.04" y1="919.59" x2="558.17" y2="975.61" xlink:href="#linear-gradient"/><clipPath id="clip-path-2"><path class="cls-1" d="M566.93,1029.81V1123H501.38v-93.17c0-.49,0-1,0-1.47a32.77,32.77,0,0,1,65.48,0Q566.93,1029.07,566.93,1029.81Z"/></clipPath><linearGradient id="linear-gradient-6" x1="540.44" y1="1127.24" x2="540.61" y2="1105.91" gradientUnits="userSpaceOnUse"><stop offset="0" stop-color="#9ba3ae"/><stop offset="0.03" stop-color="#a2a9b4"/><stop offset="0.17" stop-color="#bcc2cd"/><stop offset="0.32" stop-color="#d1d5e0"/><stop offset="0.48" stop-color="#e0e3ee"/><stop offset="0.68" stop-color="#e8ebf6"/><stop offset="1" stop-color="#ebedf8"/></linearGradient><linearGradient id="linear-gradient-7" x1="549.91" y1="1114.07" x2="549.33" y2="1093.61" xlink:href="#linear-gradient-6"/><linearGradient id="linear-gradient-8" x1="557.77" y1="1100.89" x2="558.35" y2="1079.85" xlink:href="#linear-gradient-6"/><linearGradient id="linear-gradient-9" x1="566.91" y1="1088.72" x2="566.62" y2="1065.95" xlink:href="#linear-gradient-6"/><linearGradient id="linear-gradient-10" x1="574.96" y1="1073.69" x2="574.67" y2="1055.54" xlink:href="#linear-gradient-6"/><linearGradient id="linear-gradient-11" x1="583.86" y1="1064.76" x2="583.28" y2="1040.84" xlink:href="#linear-gradient-6"/><linearGradient id="linear-gradient-12" x1="591.3" y1="1050.98" x2="591.3" y2="1029.08" xlink:href="#linear-gradient-6"/><linearGradient id="linear-gradient-13" x1="614.97" y1="1319.71" x2="414.83" y2="1415.15" gradientTransform="matrix(0.98, -0.13, -0.06, 0.54, -67.93, -499.78)" gradientUnits="userSpaceOnUse"><stop offset="0" stop-color="#fff"/><stop offset="0.02" stop-color="#fff" stop-opacity="0.95"/><stop offset="0.14" stop-color="#fff" stop-opacity="0.73"/><stop offset="0.25" stop-color="#fff" stop-opacity="0.54"/><stop offset="0.37" stop-color="#fff" stop-opacity="0.37"/><stop offset="0.49" stop-color="#fff" stop-opacity="0.24"/><stop offset="0.61" stop-color="#fff" stop-opacity="0.13"/><stop offset="0.74" stop-color="#fff" stop-opacity="0.06"/><stop offset="0.86" stop-color="#fff" stop-opacity="0.01"/><stop offset="1" stop-color="#fff" stop-opacity="0"/></linearGradient><linearGradient id="linear-gradient-14" x1="537.95" y1="1410.59" x2="427.43" y2="1463.3" xlink:href="#linear-gradient-13"/><linearGradient id="linear-gradient-15" x1="871.97" y1="2076.69" x2="671.84" y2="2172.13" gradientTransform="matrix(0.91, 0.39, -0.33, 0.44, 689.94, -899.27)" xlink:href="#linear-gradient-13"/><linearGradient id="linear-gradient-16" x1="794.95" y1="2167.58" x2="684.43" y2="2220.28" gradientTransform="matrix(0.91, 0.39, -0.33, 0.44, 689.94, -899.27)" xlink:href="#linear-gradient-13"/></defs><title>Asset 7</title><g id="Layer_2" data-name="Layer 2"><g id="Layer_1-2" data-name="Layer 1"><path class="cls-2" d="M471.79,1135.93c-10.14-90.8-32.89-189.33-63.68-275.37-32-89.52-88.15-175.51-177.31-215-27-12-55.09-23.62-75.93-44.53s-32.66-54-19.93-80.63c8.6-18,26.41-29.68,44.17-38.76s36.73-16.77,51.23-30.48c22.28-21.06,22.88-49.4,5.46-73.36-20.27-27.88-54.11-42.28-87.21-51.93s-67.74-16.09-97.51-33.47S-3.27,243.08.36,208.8c3.6-34,33.33-59.64,64.63-73.33,97-42.41,211.7-1.87,314-28.95C438.93,90.65,490.38,52.7,547.6,28.87A379.08,379.08,0,0,1,754.44,5.08c29.18,4.87,64.14,21.24,63,50.81-.83,21.5-21,45.58-6.32,61.31,3.83,4.12,9.31,6.24,14.7,7.85,32.55,9.7,67.47,4.81,100.95-.9s67.84-12.16,101.13-5.4,65.7,30.35,71.56,63.81c13.94,79.63-105.73,128.22-157.93,163.24-17.54,11.77-35.76,24.28-45.67,42.93-36.13,68.08,73.79,89.18,110.67,114.68,30.73,21.25,46.23,62.35,37.18,98.6-9,35.91-39.06,63.57-72.76,78.89C925.54,701.55,858,692.33,822,730.28c-28.93,30.52-36.47,89.27-50.06,128l-59.57,169.67c-8.28,23.57-15.16,54.53-35.42,70.57-15.52-16-36.08-11.06-54.51-2.74-21.16,9.55-136.5,81.92-150.66,40.17"/><path class="cls-3" d="M245.79,761.93h259s-8.69-38.24-46.06-28.68c0,0-17.38-35.63-61.71-29.55,0,0-23.46-26.94-71.27-16.51s-49.54,45.19-49.54,45.19S250.14,728.9,245.79,761.93Z"/><path class="cls-4" d="M75.79,1257.93s436.42-437.52,980.58,0Z"/><path class="cls-5" d="M598.79,835.93h298s-10-44-53-33c0,0-20-41-71-34,0,0-27-31-82-19s-57,52-57,52S603.79,797.93,598.79,835.93Z"/><g class="cls-6"><rect class="cls-1" x="663.27" y="93.24" width="30.62" height="17.01" transform="translate(1308.69 -169.91) rotate(148.15)"/><rect class="cls-7" x="682.26" y="84.27" width="43.1" height="2.27" transform="translate(60.87 384.18) rotate(-31.84)"/><rect class="cls-8" x="712.41" y="62.71" width="30.62" height="17.01" rx="2.04" transform="translate(71.98 394.73) rotate(-31.85)"/><rect class="cls-9" x="664.23" y="92.64" width="30.62" height="17.01" rx="2.04" transform="translate(48.94 373.82) rotate(-31.85)"/><polygon class="cls-7" points="679.64 44.34 676.75 46.13 690.37 68.06 687.48 69.86 691.82 76.83 699.52 72.04 695.19 65.07 693.26 66.27 679.64 44.34"/><path class="cls-10" d="M700.27,44.88l-31.71,19.7s-.74,1.3.18,2.07c3.57,3,13.42,9.51,24.9,2.37,12-7.48,9.16-19.58,7.86-23.42C701.24,44.83,700.27,44.88,700.27,44.88Z"/><path class="cls-11" d="M718,95.3l4.19,6.74a3.33,3.33,0,0,1-1.09,4.69l-6.75,4.19a3.33,3.33,0,0,1-4.68-1.1l-4.19-6.74Z"/><polygon class="cls-8" points="707.1 71.34 688.79 82.72 688.69 76.1 700.25 68.92 707.1 71.34"/><rect class="cls-9" x="673.93" y="43.05" width="7.94" height="3.4" rx="0.84" transform="translate(1277.34 -274.95) rotate(148.15)"/><path class="cls-8" d="M683.7,55.17l-15.14,9.41s-.73,1.29.18,2.07c13,11.12,23.94,3,23.94,3Z"/><path class="cls-5" d="M717.79,108.76l-3.47,2.16a3.33,3.33,0,0,1-4.68-1.1l-4.19-6.74,6.36-4Z"/><path class="cls-12" d="M707.1,71.34,720.54,93a1.72,1.72,0,0,1-.53,2.39l-15.14,9.4s-1.74,1-2.63-.4L688.79,82.72Z"/><path class="cls-5" d="M698.43,76.73l-9.64,6s12.5,20.27,13.45,21.65a1.75,1.75,0,0,0,.52.53,1.94,1.94,0,0,0,.5.2,1.75,1.75,0,0,0,1.27-.14c.32-.16.61-.39.92-.58l1-.61c3.31-2,6-3.7,6-3.7Z"/><line class="cls-13" x1="692.25" y1="92.58" x2="666.24" y2="108.74"/><line class="cls-13" x1="681.54" y1="89.89" x2="690.51" y2="104.35"/><line class="cls-13" x1="675.06" y1="93.92" x2="684.03" y2="108.37"/><line class="cls-13" x1="668.54" y1="97.97" x2="677.52" y2="112.42"/><line class="cls-13" x1="740.42" y1="62.66" x2="714.41" y2="78.82"/><line class="cls-13" x1="729.71" y1="59.97" x2="738.68" y2="74.42"/><line class="cls-13" x1="723.23" y1="63.99" x2="732.21" y2="78.45"/><line class="cls-13" x1="716.71" y1="68.04" x2="725.69" y2="82.49"/></g><circle class="cls-12" cx="540.29" cy="216.43" r="29.5"/><g class="cls-14"><path class="cls-5" d="M531.57,186.93s6.87,5.75,8.72,6.87a11.17,11.17,0,0,0,10.58-.38c4.45-2.41,5.38-5.19,5.38-5.19L539,184.52Z"/><path class="cls-5" d="M516.92,195.65s3.71.37,5.56.74a113.05,113.05,0,0,1,10.95,3.34c3,1.12,10.39,1.67,13.91.75s9.1-5.76,10.58-6.5a41.7,41.7,0,0,1,6.49-1.67l.75,4.27-3.72,1.11s-4.63,1.3-5.93,2.6-2.6,2.78-2.6,4.08,2,1.3,3.71,1.3,9.06-1,11.3-.8,3.54,4.7,3.54,4.7l-2.3.78a10.47,10.47,0,0,0-7-.6c-4.27.93-7.42,2.6-10.58,3.34s-8.16,0-10.39-.74-6.68-4.27-8.35-5.38-5.93-4.83-9.83-4.64a92.36,92.36,0,0,0-11.32,1.86Z"/><path class="cls-5" d="M508,212.72l2.78.68a38.39,38.39,0,0,1,6.68-.68c3.34,0,9.65,1.3,12.43,2.78s10,4.46,13.36,4.83,11.51.74,18.56-1.12a71.26,71.26,0,0,0,11.68-4.08l-2,6.68a29.38,29.38,0,0,1-11.5,4.45c-6.49.93-16.7.38-16.7.38s-4.82.37-5.19,3,1.11,4.64,3.15,5.94,18,5.57,18,5.57l-8.91,6.12s-5.19-3.53-8.72-4.64-8.53-3.89-9.27-6.31.18-7.6-5.94-12.24-11.5-4.45-14.1-3.71-7.42,1.85-7.42,1.85Z"/><path class="cls-5" d="M569.43,226.86c-.11.29-2,.66-2.36.77-.89.27-1.78.52-2.68.76-1.66.43-3.35.8-5,1.15-1.87.38-3.76.72-5.65,1-1,.14-1.9.27-2.85.38a10.14,10.14,0,0,0-2.53.31,1.29,1.29,0,0,0-.78,1.54c.3,1,1.69,1.45,2.59,1.66,3.89.93,14.65,4.45,14.65,4.45C566.33,234.87,567.85,230.85,569.43,226.86Z"/></g><ellipse class="cls-15" cx="937.69" cy="211.49" rx="107.44" ry="12" transform="translate(-23.23 236.46) rotate(-14.2)"/><circle class="cls-9" cx="859.79" cy="238.93" r="7"/><circle class="cls-16" cx="1024.79" cy="197.93" r="5"/><circle class="cls-12" cx="921.79" cy="202.93" r="15"/><path class="cls-17" d="M738.22,867.05c-.19,4.94-.35,13-.35,18V1113.7a9,9,0,0,1-9,9H444.76a9,9,0,0,1-9-9V885c0-4.95.08-10,.18-11.28l.06-1.25c1.3-28-6.92-89.62,28.68-141,37.17-53.7,100.31-66.09,148.69-60.78S706,713.78,723.71,748.6,738.22,867.05,738.22,867.05Z"/><path class="cls-18" d="M739.31,857.27s-.14,13.9-.23,16.92c0,1.41-304.35.89-304.31.22,0-.52.06-1.06.09-1.61.2-4.4.12-15.55.12-15.55h76.77c.33-16.16.81-32.35.61-48.51-.15-11.53-.91-22.55-.62-33.52a108.55,108.55,0,0,1,4.41-29.59c7.21-23.55,21.49-43,39.73-59.25,7.75-6.91,17-16.12,27.94-16.63a192.57,192.57,0,0,1,29.75.93c7,.76,20.57,4.19,20.57,4.19s-2.87,2-21.68,17.16c-13.37,10.78-32.17,44.92-35.81,77.09-.42,3.69-.08,74.4,0,88.13Z"/><path class="cls-19" d="M582.65,669.85c-6.13.27-15.11,6.41-21.24,11.55a270,270,0,0,0-22.34,22.27c-4.8,5.56-13.41,18.11-20.11,33.68s-6,35-6,35v84.81H493.49V775.8s-1.64-22.93,14.57-57c11.53-24.28,30.95-35.81,57.05-47.34Z"/><path class="cls-12" d="M574.82,1030.72V1123H493.49v-92.26c0-.61,0-1.21.05-1.82a40.66,40.66,0,0,1,81.24,0C574.81,1029.51,574.82,1030.11,574.82,1030.72Z"/><path class="cls-20" d="M566.93,1029.81V1123H501.38v-93.17c0-.49,0-1,0-1.47a32.77,32.77,0,0,1,65.48,0Q566.93,1029.07,566.93,1029.81Z"/><path class="cls-21" d="M434.62,873.85H739.31l-1.52,239.08S693.18,875.67,434.62,873.85Z"/><path class="cls-22" d="M634.12,675c39.93,11.95,74.46,43.87,89.59,73.63,12.71,25,14.47,79.73,14.45,108.67,0,6.07-12.91-54.9-41.29-105.21C672,708,631,674,634.12,675Z"/><circle class="cls-23" cx="650.39" cy="754.26" r="21.55"/><path class="cls-18" d="M647,738.22c-19.38,2.77-14.64,31.1-17.3,22.21a21.55,21.55,0,0,1,40.5-14.56C671.33,748.45,663.88,735.81,647,738.22Z"/><circle class="cls-24" cx="534.88" cy="944.63" r="21.55"/><path class="cls-18" d="M531.53,928.59c-19.38,2.77-14.64,31.11-17.3,22.22a21.55,21.55,0,0,1,40.5-14.57C555.82,938.82,548.37,926.19,531.53,928.59Z"/><g class="cls-25"><rect class="cls-26" x="506.38" y="1110.37" width="68.28" height="12.61"/><rect class="cls-27" x="515.48" y="1097.77" width="68.28" height="12.61"/><rect class="cls-28" x="523.89" y="1085.16" width="68.28" height="12.61"/><rect class="cls-29" x="532.64" y="1072.55" width="68.28" height="12.61"/><rect class="cls-30" x="540.7" y="1059.95" width="68.28" height="12.61"/><rect class="cls-31" x="549.45" y="1047.34" width="68.28" height="12.61"/><rect class="cls-32" x="557.15" y="1034.74" width="68.28" height="12.61"/></g><path class="cls-18" d="M417.72,669.68,517.86,769.83s15.18,4.85,38.85-21.25,22.46-38.24,22.46-38.24L479.63,610.2s-13.36-5.47-40.06,21.24S417.72,669.68,417.72,669.68Z"/><polygon class="cls-33" points="446.57 657.75 455.2 621.73 459.81 618.86 452.45 652.7 450 655.15 446.57 657.75"/><path class="cls-33" d="M441.06,661.73l7.41-34.91c-.06.3-1.05.89-1.28,1.08-.75.64-1.52,1.27-2.28,1.91-2.53,2.14-5,4.37-7.43,6.6L428.15,668l3.05-1.09a39.28,39.28,0,0,0,5.2-2.48C438,663.62,439.54,662.69,441.06,661.73Z"/><path class="cls-12" d="M501.6,753.56l15.56,15.57S532.34,774,556,747.88s22.46-38.24,22.46-38.24L562.72,693.8s6.64,12.81-20.06,39.52S501.6,753.56,501.6,753.56Z"/><path class="cls-17" d="M417,669l5.47,5.47s-1.83-12.15,21.84-38.25,39.44-21.83,39.44-21.83l-4.84-4.87s-13.36-5.47-40.06,21.24S417,669,417,669Z"/><path class="cls-12" d="M416.49,668.45l16.06,16.06s17.24,2.68,40.91-23.42S493,623.71,493,623.71l-14.69-14.78s5.43,12.71-21.27,39.41S416.49,668.45,416.49,668.45Z"/><path class="cls-34" d="M556,747.88l.33-.36c23.33-25.85,22.13-37.88,22.13-37.88L478.93,609.5s-13.32-5.45-40,21.13l-.1.11,5.18,5.5s4.68-6.62,15.76-14,18.91-8.06,18.91-8.06-2.38,10.55-7,17-15,17.45-15,17.45Z"/><ellipse class="cls-16" cx="146.29" cy="182.43" rx="18.5" ry="16.5"/><ellipse class="cls-35" cx="147.74" cy="182.85" rx="36.11" ry="29.5" transform="translate(-42.73 45.08) rotate(-15.18)"/><ellipse class="cls-36" cx="148.11" cy="182.98" rx="55.46" ry="42.15" transform="translate(-42.75 45.18) rotate(-15.18)"/><path class="cls-37" d="M271.41,293c5.74-1.73,8-7.36,8-7.36s1.14,4.76,7.34,7.36c0,0-6.2,3.9-7.34,8a14.52,14.52,0,0,0-3.32-5.23,13.5,13.5,0,0,0-4.72-2.79"/><path class="cls-37" d="M276.54,322.62a6.9,6.9,0,0,0,4-3.68,6,6,0,0,0,3.67,3.68s-3.1,1.95-3.67,4A7.34,7.34,0,0,0,278.9,324a6.81,6.81,0,0,0-2.36-1.39"/><path class="cls-37" d="M425.17,255.61a6.83,6.83,0,0,0,4-3.68,6,6,0,0,0,3.68,3.68s-3.1,1.95-3.68,4a7,7,0,0,0-1.65-2.61,6.87,6.87,0,0,0-2.36-1.4"/><path class="cls-37" d="M888.1,278c4.36,4.11,10.39,3.29,10.39,3.29s-3.56,3.37-2.72,10c0,0-6.47-3.43-10.61-2.37a14.33,14.33,0,0,0,2.88-5.47,13.76,13.76,0,0,0,.06-5.49"/><path class="cls-37" d="M865,297.21a6.89,6.89,0,0,0,5.2,1.65,6,6,0,0,0-1.36,5s-3.23-1.72-5.3-1.19a7.28,7.28,0,0,0,1.43-2.74,6.59,6.59,0,0,0,0-2.74"/><path class="cls-37" d="M913.3,299a6.88,6.88,0,0,0,5.19,1.64,6,6,0,0,0-1.35,5s-3.24-1.71-5.31-1.18a7.08,7.08,0,0,0,1.44-2.74,7,7,0,0,0,0-2.74"/><path class="cls-38" d="M427.49,156h.05c-81.13,16.15-134.87,50.41-136.62,51.33,67.23-43.46,132.6-55.7,134.36-56.1,4.33-1,8.1-.65,8.41.74S431.26,155,427.49,156Z"/><path class="cls-39" d="M360.12,207.69l0,0c-44.8,8.91-74.48,27.83-75.44,28.34,37.12-24,73.22-30.76,74.2-31,2.38-.54,4.47-.36,4.64.41S362.2,207.13,360.12,207.69Z"/><circle class="cls-21" cx="761.34" cy="556.71" r="86.76"/><path class="cls-40" d="M706.77,521.61s8.26,4.13,16.52,0a14.68,14.68,0,0,0,8.27-12.4"/><path class="cls-40" d="M777,513.34s8.26,4.14,16.53,0A14.67,14.67,0,0,0,801.79,501"/><path class="cls-40" d="M789.39,550.53a14.67,14.67,0,0,1-8.26,12.39c-8.26,4.13-16.52,0-16.52,0"/><path class="cls-40" d="M756.34,616.63s8.27,4.13,16.53,0a14.69,14.69,0,0,0,8.26-12.4"/><path class="cls-40" d="M702.64,587.71s8.26,4.13,16.52,0a14.68,14.68,0,0,0,8.27-12.4"/><path class="cls-41" d="M771.65,348.82l0,.05c-78.12-27.21-141.82-24.9-143.79-25,80-3.39,142.54,19.18,144.26,19.73,4.23,1.35,7.31,3.55,6.88,4.9S775.42,349.85,771.65,348.82Z"/><path class="cls-42" d="M687.36,359.25l0,0c-43.14-15-78.32-13.75-79.4-13.8,44.17-1.88,78.71,10.59,79.66,10.89,2.33.75,4,2,3.8,2.71S689.44,359.81,687.36,359.25Z"/><path class="cls-37" d="M753.1,176c4.36,4.11,10.39,3.29,10.39,3.29s-3.56,3.37-2.72,10c0,0-6.47-3.43-10.61-2.37a14.33,14.33,0,0,0,2.88-5.47,13.76,13.76,0,0,0,.06-5.49"/><path class="cls-37" d="M569,94.21a6.89,6.89,0,0,0,5.2,1.65,6,6,0,0,0-1.36,5s-3.23-1.72-5.3-1.19A7.28,7.28,0,0,0,568.94,97a6.59,6.59,0,0,0,0-2.74"/><circle class="cls-9" cx="45.79" cy="210.93" r="3"/><circle class="cls-9" cx="628.79" cy="231.93" r="3"/><circle class="cls-9" cx="707.29" cy="253.43" r="2.5"/><circle class="cls-16" cx="175.79" cy="284.93" r="3"/><path class="cls-37" d="M552.17,323.61a6.83,6.83,0,0,0,4-3.68,6,6,0,0,0,3.68,3.68s-3.1,1.95-3.68,4a7,7,0,0,0-1.65-2.61,6.87,6.87,0,0,0-2.36-1.4"/><path class="cls-5" d="M537.79,602.93h244s-8.18-36-43.39-27c0,0-16.38-33.57-58.14-27.84,0,0-22.1-25.38-67.14-15.56s-46.67,42.58-46.67,42.58S541.89,571.82,537.79,602.93Z"/><path class="cls-5" d="M725.79,622.93h188s-6.31-27.76-33.43-20.82c0,0-12.62-25.87-44.8-21.45,0,0-17-19.56-51.73-12s-36,32.81-36,32.81S729,599,725.79,622.93Z"/><path class="cls-37" d="M387.17,370.61a6.83,6.83,0,0,0,4-3.68,6,6,0,0,0,3.68,3.68s-3.1,1.95-3.68,4a7,7,0,0,0-1.65-2.61,6.87,6.87,0,0,0-2.36-1.4"/><path class="cls-43" d="M175.1,513c4.36,4.11,10.39,3.29,10.39,3.29s-3.56,3.37-2.72,10c0,0-6.47-3.43-10.61-2.37a14.33,14.33,0,0,0,2.88-5.47,13.76,13.76,0,0,0,.06-5.49"/><path class="cls-44" d="M554,445.21a6.89,6.89,0,0,0,5.2,1.65,6,6,0,0,0-1.36,5s-3.23-1.72-5.3-1.19a7.28,7.28,0,0,0,1.43-2.74,6.59,6.59,0,0,0,0-2.74"/><path class="cls-45" d="M322.3,474a6.88,6.88,0,0,0,5.19,1.64,6,6,0,0,0-1.35,5s-3.24-1.71-5.31-1.18a7.08,7.08,0,0,0,1.44-2.74,7,7,0,0,0,0-2.74"/><path class="cls-43" d="M489.1,481c4.36,4.11,10.39,3.29,10.39,3.29s-3.56,3.37-2.72,10c0,0-6.47-3.43-10.61-2.37a14.33,14.33,0,0,0,2.88-5.47,13.76,13.76,0,0,0,.06-5.49"/><path class="cls-43" d="M881.1,520c4.36,4.11,10.39,3.29,10.39,3.29s-3.56,3.37-2.72,10c0,0-6.47-3.43-10.61-2.37a14.33,14.33,0,0,0,2.88-5.47,13.76,13.76,0,0,0,.06-5.49"/><path class="cls-44" d="M477,390.21a6.89,6.89,0,0,0,5.2,1.65,6,6,0,0,0-1.36,5s-3.23-1.72-5.3-1.19a7.28,7.28,0,0,0,1.43-2.74,6.59,6.59,0,0,0,0-2.74"/><path class="cls-44" d="M755,419.21a6.89,6.89,0,0,0,5.2,1.65,6,6,0,0,0-1.36,5s-3.23-1.72-5.3-1.19a7.28,7.28,0,0,0,1.43-2.74,6.59,6.59,0,0,0,0-2.74"/><path class="cls-44" d="M946,572.21a6.89,6.89,0,0,0,5.2,1.65,6,6,0,0,0-1.36,5s-3.23-1.72-5.3-1.19a7.28,7.28,0,0,0,1.43-2.74,6.59,6.59,0,0,0,0-2.74"/><path class="cls-44" d="M231,591.21a6.89,6.89,0,0,0,5.2,1.65,6,6,0,0,0-1.36,5s-3.23-1.72-5.3-1.19a7.28,7.28,0,0,0,1.43-2.74,6.59,6.59,0,0,0,0-2.74"/></g></g></svg>