<svg xmlns="http://www.w3.org/2000/svg" viewBox="0 0 174.91 34.1"><defs><style>.cls-1{fill:#ff8000;}</style></defs><g id="Layer_2" data-name="Layer 2"><g id="Layer_1-2" data-name="Layer 1"><path class="cls-1" d="M32.11,15.8a41.31,41.31,0,0,0-3.5-5.1c-.1-.1-.2-.3-.3-.4a2,2,0,0,1-.5-1.4c-.4-4-.8-5.8-.8-6.3s-.3-1.1-1.1-1.2a18.7,18.7,0,0,0-2.7-.2,1,1,0,0,0-1,.9V3.6c0,.1,0,.2-.2.3s-.1,0-.2-.1A39.26,39.26,0,0,0,17.21.5a1.69,1.69,0,0,0-1.1-.5,1.67,1.67,0,0,0-.9.3,45.75,45.75,0,0,0-15,15.4,1.07,1.07,0,0,0-.1,1.1,1,1,0,0,0,.8.5s2.2.3,2.6.3.5.4.5.4a108,108,0,0,0,.8,13.6.91.91,0,0,0,.9.8c.3,0,1.4-.1,4.4-.1.2,0,.2-.1.2-.2-.3-3-.4-5.5-.4-5.7a.2.2,0,0,0-.2-.2,3.58,3.58,0,0,1-1.8-3.1c0-5.9.4-10.4.4-10.4a.59.59,0,0,1,.6-.6c.5,0,.5.7.5.7-.2,2.5-.3,7.1-.3,7.1s0,.9.8.9.8-.9.8-.9c0-3.6.3-7.1.3-7.1a.59.59,0,0,1,.6-.6c.5,0,.5.7.5.7-.2,3.1-.3,7.1-.3,7.1s0,.9.8.9.8-.9.8-.9c0-3,.3-7.1.3-7.1a.59.59,0,0,1,.6-.6c.5,0,.5.6.5.6-.3,3.2-.3,8.1-.3,10.2a3.48,3.48,0,0,1-1.7,3.1.22.22,0,0,0-.1.3c.1,1.9.2,4.1.4,5.7a.22.22,0,0,0,.2.2h6.8a.22.22,0,0,0,.2-.2c.3-2.8.4-4.8.4-5a.2.2,0,0,0-.2-.2c-.4,0-1.2-.2-2-.3s-.8-1-.8-1a21.18,21.18,0,0,1,4-14.2,1,1,0,0,1,1.1-.4,1,1,0,0,1,.6.9A122.64,122.64,0,0,1,23,32.1c0,.2.1.3.2.3,2,.1,2.9.1,3.1.1a1,1,0,0,0,.9-.8A88.76,88.76,0,0,0,28,18.1a.55.55,0,0,1,.5-.5c.4,0,2.6-.3,2.6-.3a1,1,0,0,0,.8-.5.82.82,0,0,0,.2-1"/><path d="M50.81,14.8V12.6a.47.47,0,0,0-.5-.5H38.41a.47.47,0,0,0-.5.5v2.2a.47.47,0,0,0,.5.5h3.9a.32.32,0,0,1,.3.3V28a.47.47,0,0,0,.5.5h2.6a.47.47,0,0,0,.5-.5V15.5a.22.22,0,0,1,.2-.2h3.9c.2,0,.4-.2.5-.5"/><path d="M57.41,17.8a3.09,3.09,0,0,0-1.6-1.1,6.25,6.25,0,0,0-2.5-.4,8.42,8.42,0,0,0-2.7.4,6.92,6.92,0,0,0-1.9,1,.48.48,0,0,0,0,.7l1.1,1.1a.48.48,0,0,0,.7,0l.9-.6a4.19,4.19,0,0,1,1.6-.4,3,3,0,0,1,1.6.5c.4.3.6.9.7,1.9,0,.1-.1.2-.3.2h-1.3c-.6,0-1.1.1-1.7.1a7.49,7.49,0,0,0-1.6.4,6.11,6.11,0,0,0-1.4.7,5.24,5.24,0,0,0-1,1.1,3.77,3.77,0,0,0-.4,1.6,3.34,3.34,0,0,0,.3,1.5,3.13,3.13,0,0,0,.9,1.1,5.39,5.39,0,0,0,1.3.7,7.72,7.72,0,0,0,1.5.2,4.48,4.48,0,0,0,2-.4,3.81,3.81,0,0,0,1.3-.9h.2l.1.1v.4a.47.47,0,0,0,.5.5h2.2a.47.47,0,0,0,.5-.5V22.5a28.51,28.51,0,0,0-.2-3.1,4,4,0,0,0-.8-1.6m-2.1,6.5a2,2,0,0,1-.2.9.9.9,0,0,1-.6.6,2,2,0,0,1-.8.4,3.08,3.08,0,0,1-1,.1,2,2,0,0,1-1.1-.3.87.87,0,0,1-.5-.9,1,1,0,0,1,.4-.9,4.05,4.05,0,0,1,.9-.5,4.25,4.25,0,0,1,1.1-.2h1.6c.1,0,.2.1.2.3Zm36.5-6.5a3.09,3.09,0,0,0-1.6-1.1,6.25,6.25,0,0,0-2.5-.4,8.42,8.42,0,0,0-2.7.4,6.92,6.92,0,0,0-1.9,1,.48.48,0,0,0,0,.7l1.1,1.1a.48.48,0,0,0,.7,0l.9-.6a4.19,4.19,0,0,1,1.6-.4A3,3,0,0,1,89,19c.4.3.6.9.7,1.9,0,.1-.1.2-.3.2h-1.3c-.6,0-1.1.1-1.7.1a7.49,7.49,0,0,0-1.6.4,6.11,6.11,0,0,0-1.4.7,5.24,5.24,0,0,0-1,1.1A3.77,3.77,0,0,0,82,25a3.34,3.34,0,0,0,.3,1.5,3.13,3.13,0,0,0,.9,1.1,5.39,5.39,0,0,0,1.3.7,7.72,7.72,0,0,0,1.5.2,4.48,4.48,0,0,0,2-.4,3.81,3.81,0,0,0,1.3-.9h.2l.1.1v.4a.47.47,0,0,0,.5.5h2.2a.47.47,0,0,0,.5-.5V22.5a28.51,28.51,0,0,0-.2-3.1,4,4,0,0,0-.8-1.6m-2.1,6.5a2,2,0,0,1-.2.9.9.9,0,0,1-.6.6,2,2,0,0,1-.8.4,3.08,3.08,0,0,1-1,.1A2,2,0,0,1,86,26a.87.87,0,0,1-.5-.9,1,1,0,0,1,.4-.9,4.05,4.05,0,0,1,.9-.5,4.25,4.25,0,0,1,1.1-.2h1.6c.1,0,.2.1.2.3Zm31.8-6.5a3.09,3.09,0,0,0-1.6-1.1,6.25,6.25,0,0,0-2.5-.4,8.42,8.42,0,0,0-2.7.4,6.92,6.92,0,0,0-1.9,1,.48.48,0,0,0,0,.7l1.1,1.1a.48.48,0,0,0,.7,0l.9-.6a4.19,4.19,0,0,1,1.6-.4,3,3,0,0,1,1.6.5c.4.3.6.9.7,1.9,0,.1-.1.2-.3.2h-1.3c-.6,0-1.1.1-1.7.1a7.49,7.49,0,0,0-1.6.4,6.11,6.11,0,0,0-1.4.7,5.24,5.24,0,0,0-1,1.1,3.77,3.77,0,0,0-.4,1.6,3.34,3.34,0,0,0,.3,1.5,3.13,3.13,0,0,0,.9,1.1,5.39,5.39,0,0,0,1.3.7,7.72,7.72,0,0,0,1.5.2,4.48,4.48,0,0,0,2-.4,3.81,3.81,0,0,0,1.3-.9h.2l.1.1v.4a.47.47,0,0,0,.5.5H122a.47.47,0,0,0,.5-.5V22.5a28.51,28.51,0,0,0-.2-3.1,4,4,0,0,0-.8-1.6m-2.1,6.5a2,2,0,0,1-.2.9.9.9,0,0,1-.6.6,2,2,0,0,1-.8.4,3.08,3.08,0,0,1-1,.1,2,2,0,0,1-1.1-.3.87.87,0,0,1-.5-.9,1,1,0,0,1,.4-.9,4.05,4.05,0,0,1,.9-.5,4.25,4.25,0,0,1,1.1-.2h1.6c.1,0,.2.1.2.3Zm-38.9-6.4a5.23,5.23,0,0,0-1.7-1.2,5.38,5.38,0,0,0-2.2-.4,6.05,6.05,0,0,0-2.4.4,6.66,6.66,0,0,0-2,1.2,4.31,4.31,0,0,0-1.3,1.9,8.21,8.21,0,0,0-.5,2.8,8.68,8.68,0,0,0,.5,2.8,8,8,0,0,0,1.3,1.9,6.39,6.39,0,0,0,4.4,1.6,5.83,5.83,0,0,0,2.6-.6,5.23,5.23,0,0,0,1.7-1.2.48.48,0,0,0,0-.7l-1.6-1.2V25c-.2-.1-.5-.1-.6.1a3.74,3.74,0,0,1-.7.6,2.3,2.3,0,0,1-1.4.4,2.52,2.52,0,0,1-1.7-.6,3.4,3.4,0,0,1-.9-2c0-.1.1-.2.2-.3h7.3a.47.47,0,0,0,.5-.5v-.6a6.05,6.05,0,0,0-.4-2.4,7.84,7.84,0,0,0-1.1-1.8m-2.3,3h-4c-.1,0-.3-.1-.3-.2a.76.76,0,0,1,.2-.5,1.79,1.79,0,0,1,.5-.7,3,3,0,0,1,.7-.5,3,3,0,0,1,1-.2,2,2,0,0,1,1.5.6,3.1,3.1,0,0,1,.6,1.3.22.22,0,0,1-.2.2"/><path d="M67.21,22.7l-.1-.1a.45.45,0,0,1,0-.5l4-5a.3.3,0,0,0,0-.4.35.35,0,0,0-.2-.1h-3.2a1.23,1.23,0,0,0-.8.4l-.2.2-3.1,4h-.2a.1.1,0,0,0-.1-.1V11.5a.47.47,0,0,0-.5-.5h-2.5a.47.47,0,0,0-.5.5V27.9a.47.47,0,0,0,.5.5h2.5a.47.47,0,0,0,.5-.5V23.3a.1.1,0,0,1,.1-.1c.1-.1.2-.1.2,0l.1.1,3,4.5.2.2a.91.91,0,0,0,.8.4h3.5a.37.37,0,0,0,.1-.3ZM112,17.4a.77.77,0,0,0,.1-.3V17a.46.46,0,0,0-.5-.4h-2a1.08,1.08,0,0,0-1,.8l-.1.2-1.7,6.1a.25.25,0,0,1-.4,0v-.1l-1.7-6.2v-.1a1,1,0,0,0-1-.7h-2.1a1.08,1.08,0,0,0-1,.8v.3l-1.5,6.1c0,.1-.1.1-.2.1s-.1,0-.2-.1l-1.8-6.1-.1-.3v-.1a1,1,0,0,0-1-.7h-2.2a.66.66,0,0,0-.5.4v.1a.37.37,0,0,0,.1.3l3.6,10.3v.1a1.15,1.15,0,0,0,.9.6h2.1a1,1,0,0,0,.9-.7l.1-.3,1.6-5.9a.35.35,0,0,1,.2-.1c.1,0,.1,0,.2.1l1.9,6a1,1,0,0,0,.1.3,1.15,1.15,0,0,0,.9.6h2a1.15,1.15,0,0,0,.9-.6,1,1,0,0,0,.1-.4l3.3-10m22.8-.4h0a.51.51,0,0,0-.5-.4h-2.1a1,1,0,0,0-.9.6v.3l-.1.2-1.9,6.2V24c0,.1-.1.2-.3.2a.22.22,0,0,1-.2-.2l-2.3-6.3v-.1l-.2-.4a1.05,1.05,0,0,0-.9-.5H123c-.2,0-.3.2-.4.3v.4l4.5,11a1.63,1.63,0,0,1,0,.7l-.1.2a6.89,6.89,0,0,1-.3.8,1.84,1.84,0,0,1-1,1,2.48,2.48,0,0,1-.9.1h-1.5a.47.47,0,0,0-.5.5v1.9a.47.47,0,0,0,.5.5h2a10.31,10.31,0,0,0,2-.2,5.39,5.39,0,0,0,1.3-.7,3.6,3.6,0,0,0,.8-1.2c.2-.5.4-1,.7-1.6l4.8-13.1a.77.77,0,0,1-.1-.3m-.5,9a1,1,0,0,0-.9.4,1.8,1.8,0,0,0-.4.9,1.22,1.22,0,0,0,.4.9,1.21,1.21,0,0,0,1.8,0,1.8,1.8,0,0,0,.4-.9,1.22,1.22,0,0,0-.4-.9,1,1,0,0,0-.9-.4m21.5-8.1a5.67,5.67,0,0,0-1.8-1.2,6.81,6.81,0,0,0-4.6,0,5.52,5.52,0,0,0-3,3,9.25,9.25,0,0,0-.4,2.9,7.66,7.66,0,0,0,.4,2.7,5.52,5.52,0,0,0,3,3,6.81,6.81,0,0,0,4.6,0,5.52,5.52,0,0,0,3-3,7.66,7.66,0,0,0,.4-2.7,8.85,8.85,0,0,0-.4-2.9,5.67,5.67,0,0,0-1.2-1.8m-.6,6.7a3.53,3.53,0,0,1-.8,1.3,2.73,2.73,0,0,1-1.2.9,4.42,4.42,0,0,1-3.2,0,2.73,2.73,0,0,1-1.2-.9,5.67,5.67,0,0,1-.8-1.3,5.82,5.82,0,0,1-.3-1.9,7.8,7.8,0,0,1,.3-2.2,3.53,3.53,0,0,1,.8-1.3,3.45,3.45,0,0,1,1.2-.9,4.42,4.42,0,0,1,3.2,0,2.73,2.73,0,0,1,1.2.9,5.67,5.67,0,0,1,.8,1.3,7.8,7.8,0,0,1,.3,2.2,6.28,6.28,0,0,1-.3,1.9m-16.5-5.4a2.73,2.73,0,0,1,1.2-.9,4.15,4.15,0,0,1,1.6-.3,4,4,0,0,1,1.5.3,5.5,5.5,0,0,1,.9.7.48.48,0,0,0,.7,0l.7-.6a.62.62,0,0,0,.1-.7,13,13,0,0,0-1.5-1,6.81,6.81,0,0,0-4.6,0,5.52,5.52,0,0,0-3,3,8,8,0,0,0-.4,2.7,8.63,8.63,0,0,0,.4,2.8,7.84,7.84,0,0,0,1.1,1.8,5.67,5.67,0,0,0,1.8,1.2,5.87,5.87,0,0,0,2.3.4,6.2,6.2,0,0,0,2.3-.4,3.07,3.07,0,0,0,1.5-1,.48.48,0,0,0,0-.7l-.6-.6a.48.48,0,0,0-.7,0,3.38,3.38,0,0,1-2.5,1,3.34,3.34,0,0,1-1.5-.3,3.45,3.45,0,0,1-1.2-.9,3.29,3.29,0,0,1-.7-1.3,6.93,6.93,0,0,1-.3-2,12.31,12.31,0,0,1,.2-2,2.92,2.92,0,0,1,.7-1.2m36.1-.2a3.09,3.09,0,0,0-.7-1.4,3,3,0,0,0-1.3-.9,5.62,5.62,0,0,0-2-.3,4.65,4.65,0,0,0-2.1.5,6.79,6.79,0,0,0-1.2,1.2.1.1,0,0,1-.1.1l-.1.1c-.1,0-.1,0-.2-.1v-.1c-.1-.1-.1-.2-.2-.3a3.74,3.74,0,0,0-.6-.7,3.13,3.13,0,0,0-1-.5,6.05,6.05,0,0,0-1.5-.2,5.07,5.07,0,0,0-1.3.2,3.13,3.13,0,0,0-1,.5,2.7,2.7,0,0,0-.8.7c-.1.1-.1.2-.2.3l-.1.1a.35.35,0,0,1-.2-.1v-.8a.47.47,0,0,0-.5-.5H159a.47.47,0,0,0-.5.5V28.1a.47.47,0,0,0,.5.5h.8a.47.47,0,0,0,.5-.5V22.4a8.81,8.81,0,0,1,.2-1.7,2.62,2.62,0,0,1,.6-1.3,2.84,2.84,0,0,1,1-.9,3.34,3.34,0,0,1,1.5-.3,1.82,1.82,0,0,1,1.6.8,5.39,5.39,0,0,1,.5,2.6v6.6a.47.47,0,0,0,.5.5h.8a.47.47,0,0,0,.5-.5V21.5a5.07,5.07,0,0,1,.2-1.3,3.33,3.33,0,0,1,.6-1,5.5,5.5,0,0,1,.9-.7,2,2,0,0,1,1.1-.2,2.5,2.5,0,0,1,1.3.3,2.7,2.7,0,0,1,.8.7,3,3,0,0,1,.4,1,4.1,4.1,0,0,1,.1,1.1v6.9a.47.47,0,0,0,.5.5h.8a.47.47,0,0,0,.5-.5v-7a4.61,4.61,0,0,0,.1-2.3"/></g></g></svg>