<svg xmlns="http://www.w3.org/2000/svg" viewBox="0 0 1119.11 1134.85"><defs><style>.cls-1{fill:#1476c6;}</style></defs><g id="Layer_2" data-name="Layer 2"><g id="Layer_1-2" data-name="Layer 1"><path d="M602.47,67.69A325.06,325.06,0,0,1,705.93,21.06c38.88-9.83,78.39-13.3,118.5-11.32,41.5,2.06,81.9,9.14,120.69,24.18,62,24,111,63.07,141.35,123.32,14.53,28.84,22.45,59.57,25.78,91.65,4.78,46.22-.14,91-18.3,134.05-15.07,35.67-37.92,66-64.52,93.84-20.84,21.81-45.6,38.65-69.46,56.65q-72.79,54.93-145.89,109.46c-6.62,4.94-13.82,9.09-20.89,13.7,1.08,1.12,2.45.6,3.62.6q136.35-.18,272.69-.41c15.15,0,30.3,0,45.44-.23,3.1,0,4.34.5,4.15,4.05-1.38,26.92-2.54,53.85-3.78,80.77-.75,16.29-1.56,32.57-2.29,48.86-1,23.27-2.13,46.54-3,69.81-.13,3.62-2.18,3-4.24,3q-36.7.09-73.42.17-78.66.14-157.32.26-200.27.29-400.54.68c-4.86,0-5.93-1.17-5.92-6q.24-91.14,0-182.29a8.56,8.56,0,0,1,3.87-7.77C565.69,598,659.25,528.27,751.87,457.35c33.14-25.37,64-53.67,87.91-88.59,13.65-20,23.33-41.62,26.12-65.77,3.62-31.34-1.75-60.34-25.33-83.45-14-13.72-31.4-20-50.79-20.86-25.71-1.16-48.56,5.94-67.09,24.4-15.8,15.73-24.92,35.34-31.2,56.36a248.86,248.86,0,0,0-10.08,60.14c-.18,4.12-.9,5.09-5.46,4.18C618.19,332.23,560.37,321,502.56,309.69c-10.23-2-20.41-4.34-30.72-5.81-4.1-.59-3.43-2.71-3.11-5a409.23,409.23,0,0,1,9.48-47.67,375.18,375.18,0,0,1,14.06-42.77c-.7-2.29.44-4.24,1.25-6.21a315.56,315.56,0,0,1,24.82-47.74,304.1,304.1,0,0,1,50.72-61.34A308.43,308.43,0,0,1,598,69.45C599.31,68.5,600.58,67.27,602.47,67.69Z"/><path class="cls-1" d="M602.47,67.69C582.6,82,564.24,98.05,548.09,116.56a320,320,0,0,0-55.82,91.85c-6.11-1.1-12.27-.25-18.41-.31-14.32-.13-28.64.12-43-.13-4.4-.08-5.9.87-5.89,5.68q.48,219.25.66,438.53.1,102.63.18,205.28c0,4.2-.74,5.57-5.34,5.56q-120.13-.19-240.26.1c-5,0-6.27-1.12-6.27-6.21q0-319.41-.4-638.82c0-9.51,0-9.51-9.76-9.51-52.78,0-105.56,0-158.34.18-4.3,0-5.49-.89-5.48-5.38Q.26,105,0,6.59C0,2.22.88.81,5.61.82Q135,1,264.35.82,370.24.72,476.12.5,536.55.38,597,0c4.12,0,5.36,1.07,5.33,5.26C602.19,26.07,602.39,46.88,602.47,67.69Z"/><path d="M931.68,976.45c-3.29,13.83-6.45,26.48-9.21,39.22-.67,3.12-1.79,4.17-4.88,4-5.46-.27-12,1.59-16.11-.82s-3.49-9.5-4.88-14.56c-5.43-19.66-10.61-39.4-15.86-59.11-.26-1-.37-1.93-.64-3.35,6.85,0,13.47.08,20.08,0,2.8,0,2.6,2.06,3,3.7q4.53,18.62,9,37.25c.17.71-.08,1.69,1.5,2.15,2.5-10.61,5-21.15,7.47-31.72,2.62-11.39,2.59-11,14.27-11.56,5.8-.27,7.86,1.5,9,7.14,2.54,12.14,6,24.07,9.36,36.93,2.5-5.3,3-10.36,4.25-15.19q3.24-12.53,6-25.18c.54-2.52,1.32-3.77,4.15-3.59,4.8.29,9.61.22,14.42.31-.19,4.81-2,9.24-3.23,13.82-5.09,19.59-10.36,39.13-15.29,58.76-1,4-2.55,5.55-6.68,5-4.9-.63-11.17,2-14.44-1.07-3-2.79-2.78-8.91-4-13.57Z"/><path d="M447.86,973c6.19-9.23,12.45-18.41,18.52-27.72,1.43-2.18,2.91-3.21,5.6-3.11,5.62.21,11.25.06,17.86.06-4.72,6.9-8.56,13.7-13.56,19.49-5.46,6.33-5.43,11.65-1.36,18.83,6.94,12.24,12.68,25.16,18.92,37.8.13.28.18.6.48,1.63H470c-2.31,0-2.43-2-3.07-3.42-3.92-8.41-7.74-16.87-11.54-25.2-7.93,6.24-9.72,14.63-8.5,24,.46,3.57-.51,5.05-4.46,4.72a124.72,124.72,0,0,0-14.47-.05c-2.44.09-3.47-.39-3.46-3.19q.13-35.68-.05-71.37c0-2.73,1-3.38,3.48-3.3,5,.17,10,.23,15,0,3-.15,4,.7,4,3.85-.21,8.91-.08,17.84-.08,26.76Z"/><path d="M556.14,981.3c0-11.64.07-23.28,0-34.93,0-3,.37-4.41,4-4.36,17,.19,33.94.12,50.9,0,2.85,0,3.76.81,3.58,3.62-.29,4.61,1.48,10.7-.83,13.47s-8.71.74-13.31.87c-5.65.15-11.32.3-17,0-3.47-.18-4.39,1.12-4,4.23a12.37,12.37,0,0,1,0,3.49c-.46,3.1.77,4,3.85,3.87,6.81-.23,13.65.1,20.46-.17,3-.12,4.32.37,4,3.65-.42,4.43,1.78,10.13-.84,13-2.46,2.66-8.18.59-12.46.78-2.66.11-5.33,0-8,0-7,0-6.67,0-7.09,7-.28,4.61,1.16,5.8,5.65,5.6,8.64-.37,17.3,0,25.95-.17,2.89-.06,3.72.87,3.57,3.67-.27,4.79,1.61,11.05-.77,14-2.49,3.1-9,.87-13.76.92-13,.15-26-.05-38.93.17-3.71.07-5.1-.64-5-4.76.32-11.3.11-22.61.11-33.93Z"/><path d="M258.33,1092c.44,12.53-.22,25,.1,37.38.08,3.29-.51,4.87-4.25,4.52-4.27-.4-9.89,1.34-12.53-.8-2.79-2.26-.83-8.09-.85-12.34-.11-17.65,0-35.3-.13-52.94,0-3.68.57-5.39,4.76-5,5.28.49,11.53-1.34,15.65.94,3.91,2.15,5.64,8.3,8.3,12.71,4.86,8,9.7,16.12,15.54,24-.15-2.85-.12-5.72-.48-8.54-1.1-8.63-.47-17.3-.73-25.94-.07-2.35.61-3,3-3.14,14.66-.66,14.66-.73,14.66,13.57,0,17.48-.09,35,.07,52.44,0,3.63-.64,4.68-4.7,5.21-9.9,1.3-15.77-2.12-20.19-11.16C271.38,1112.18,263.87,1102.7,258.33,1092Z"/><path d="M426.12,1097.75c0-10.15.13-20.31-.08-30.45-.06-3.34.63-4.59,4.3-4.54q22.47.33,44.93,0c3.67,0,4.33,1.17,4.3,4.52-.11,11.93,0,11.93-11.83,11.93-5.49,0-11,.3-16.47-.09-5-.36-3.65,3-3.7,5.51s-1.12,5.41,3.56,5.12c6.3-.4,12.64,0,19-.16,2.65-.07,3.29.83,3.37,3.41.36,12.48.44,12.48-11.8,12.48-2.33,0-4.67-.1-7,0s-5.8-1.09-6.52.61c-1.14,2.69-.67,6.15-.52,9.26.11,2.42,2.28,1.37,3.51,1.38,8.16.1,16.31.18,24.46,0,3-.07,4.28.63,3.93,3.83-.47,4.25,1.77,9.75-.9,12.47-2.44,2.49-7.9.66-12,.69-12.14.1-24.3-.09-36.44.12-3.35.06-4.18-.93-4.13-4.16C426.24,1119.05,426.12,1108.4,426.12,1097.75Z"/><path d="M1085.54,1062.86c7.65,0,15.31.11,23-.06,2.75-.07,3.85.63,3.63,3.54-.32,4.11,1.24,9.51-.83,12s-7.77.68-11.86.8c-5.32.15-10.65.21-16,0s-3,3.59-3.28,5.87-.88,5,3.42,4.72c6.3-.39,12.64,0,19-.17,2.91-.1,3.49.9,3.52,3.63.14,12.27.23,12.27-11.88,12.27-2.33,0-4.66-.11-7,0s-5.76-1.12-6.51.67c-1.13,2.7-.62,6.15-.51,9.27.07,2.11,2,1.32,3.12,1.33,8.49.06,17,.14,25.45,0,2.63,0,3.56.7,3.33,3.34-.38,4.42,1.81,10.15-.86,13-2.45,2.57-8.18.67-12.46.71-11.81.09-23.62-.17-35.43.14-3.95.1-4.52-1.2-4.49-4.73.17-20.62.2-41.25,0-61.87,0-3.92,1.17-4.65,4.74-4.52C1070.9,1063.05,1078.22,1062.86,1085.54,1062.86Z"/><path d="M761.63,1090.91a12.17,12.17,0,0,0-2.49,0c-4.44,1-7.26.41-7.65-5.27-.3-4.45-3.3-7.66-8.24-7.82s-7.56,3.27-8.67,7.5a52.94,52.94,0,0,0-.44,25.18c1.05,4.71,3.8,7.78,8.84,8,4.51.21,8.41-2.87,9.11-8.21.5-3.73,2.23-3.69,4.93-3.44a90,90,0,0,0,11.45.75c3.92-.12,4.33,1.47,3.52,4.75-3,12.26-10.68,19.95-23.06,21.9-12.79,2-24.27-1-32.09-12.34-9-13-8.44-36,1.2-48.57,8.67-11.31,20.65-13.31,33.66-10.4,12.14,2.71,18.09,11.47,20.44,23.16.62,3,.12,4.81-3.52,4.5-2.32-.21-4.66,0-7,0Z"/><path d="M955.31,1062.87c6.88,0,13,.19,19.18-.08,2.94-.13,4,1,4.73,3.62,3.5,12.46,7.21,24.86,10.82,37.29.33,1.11.43,2.3,1.73,3.31,3.82-13.26,7.77-26.33,11.28-39.52,1-3.77,2.59-5.06,6.43-4.71,4.09.38,8.25.09,12.89.09-5,16.11-9.83,31.77-14.69,47.43-2.12,6.82-4.42,13.58-6.33,20.45-.67,2.43-1.73,3.16-4.13,3.09-5.32-.15-10.65-.08-16,0-1.74,0-3.18,0-3.86-2.11C970.13,1109,962.82,1086.23,955.31,1062.87Z"/><path d="M794.28,941.88c8,0,16,.08,24,0,2.3,0,3.25.48,3.13,3-.2,4.15-.18,8.32,0,12.47.11,2.54-.59,3.61-3.31,3.41-3-.23-6,.17-9-.12-3.13-.3-3.85.81-3.82,3.86.17,16.8-.08,33.6.23,50.39.07,4.34-1.25,5.34-5.26,5a93,93,0,0,0-13.46,0c-3.32.22-4.21-.87-4.18-4.14.13-16.79-.09-33.59.09-50.39,0-3.62-.71-4.77-4.56-4.69-11.77.22-11.77,0-11.78-11.69,0-7,0-7,7-7h21Z"/><path d="M202,942.67c7.81,0,15.64.19,23.45-.09,3.46-.13,4.27,1.12,4.08,4.26a97.92,97.92,0,0,0,0,11c.13,2.56-.67,3.79-3.35,3.43a10.58,10.58,0,0,0-1.49,0c-11.19.06-11.19.07-11.17,11,0,14.63,0,29.27.14,43.91,0,3.15-.63,4.48-4.07,4.3a135.77,135.77,0,0,0-15,.1c-3.21.2-3.83-1-3.81-4,.12-17,0-33.93.11-50.9,0-3.42-.79-4.59-4.36-4.5-3.91.1-9.12,1.91-11.41-.84-1.92-2.3-.67-7.3-.71-11.1-.07-6.54,0-6.54,6.58-6.54h21Z"/><path d="M353.65,1106.87c0-7.66-.1-15.32.06-23,.05-2.79-.31-4.32-3.7-4.09-3.6.24-8.55,1.21-10.51-.66-2.36-2.24-.33-7.24-.83-11-.57-4.34.84-5.55,5.31-5.44,13.65.34,27.3.21,40.95.06,3,0,4.45.57,3.87,3.77a9.38,9.38,0,0,0,0,1.5c-.12,3.79,1.1,8.58-.75,11.08s-6.84.78-10.43.66c-3.22-.11-3.38,1.47-3.37,3.94.07,15.15-.09,30.3.12,45.44.06,3.69-.78,5.08-4.63,4.66-5.23-.56-12.29,2.16-15.27-1.07-2.6-2.82-.74-9.78-.8-14.91C353.62,1114.2,353.65,1110.53,353.65,1106.87Z"/><path d="M823,1106.74c0-7.82-.09-15.65.05-23.47,0-2.58-.69-3.78-3.36-3.38a2.78,2.78,0,0,1-.5,0c-3.59-.31-9.46,1.5-10.33-.73-1.69-4.35-.65-9.75-.71-14.72,0-1.77,1.31-1.58,2.47-1.58,15,0,30,0,45,0,1.84,0,2.87.43,2.65,2.47-.09.83,0,1.67,0,2.5-.06,3.81,1.27,8.66-.58,11.15-2,2.68-7.12.92-10.85.84-3.34-.07-3.28,1.67-3.27,4,.05,15.32-.08,30.64.1,46,0,3.32-.9,4.26-4.13,4.07a129,129,0,0,0-13.48,0c-2.46.1-3.08-.76-3-3.11C823.11,1122.73,823,1114.74,823,1106.74Z"/><path d="M918.05,1098.58c0,10.46-.12,20.93.08,31.38.06,3.08-.76,4-3.86,3.89-5-.26-10-.23-14.94,0-2.71.12-3.28-.83-3.26-3.37q.13-32.13,0-64.26c0-2.5.52-3.53,3.26-3.42,5.14.22,10.3.2,15.44,0,2.67-.1,3.37.82,3.34,3.4C918,1077,918.05,1087.79,918.05,1098.58Z"/><path d="M176.51,1098.12c0-10.49.12-21-.07-31.45-.05-3.06.77-4.05,3.89-3.88,5,.26,10,.18,15,0,2.4-.08,3.13.69,3.12,3.09q-.1,32.44,0,64.89c0,2.47-.76,3.11-3.11,3-5-.17-10-.23-15,0-3,.15-4-.6-3.92-3.78C176.65,1119.41,176.51,1108.76,176.51,1098.12Z"/><path d="M691.81,991.86c-6.64,0-13.29-.1-19.92,0-2.51.06-3.53-.51-3.41-3.26.22-5.3.15-10.62,0-15.93-.06-2.17.62-2.86,2.81-2.85q20.66.12,41.33,0c2.14,0,2.9.53,2.84,2.76-.15,5.48-.2,11,0,16.44.11,2.71-1.17,2.85-3.27,2.82C705.42,991.8,698.61,991.86,691.81,991.86Z"/><path d="M1116,968.57c-3.57-15.84-15.48-26.49-31.07-27.8-18.4-1.55-32.24,6-38.48,21.09-3.11,7.52-3.83,15.42-3.27,23.46,1.68,24.59,23.22,40.09,47,33.87,17-4.44,27.09-18.89,27-40.1A45.48,45.48,0,0,0,1116,968.57Zm-26.22,26.73c-1.64,4.39-4.65,7.37-9.62,7.36s-8.16-2.92-9.55-7.4a47.23,47.23,0,0,1,.45-30.33c1.44-4,4.3-6.8,8.85-6.9,4.79-.11,7.6,2.76,9.35,6.92,2.18,5.16,2.4,10.64,2.7,15.56C1091.76,985.91,1091.42,990.73,1089.73,995.3Z"/><path d="M571,1106.16c-.65-1.57-1.9-3.09.75-4.39,9.49-4.6,12-14.13,9.67-23.27-2.36-9.4-9.34-13.82-18.47-14.91-13.74-1.65-27.57-.32-41.35-.75-3.07-.1-2.48,2-2.48,3.69,0,21.29,0,42.57-.08,63.86,0,3,1.16,3.54,3.78,3.45,4.82-.17,9.66-.22,14.47,0,3,.15,4.08-.65,4-3.83-.25-6.31-.17-12.64,0-19,0-1.47-1.48-4.07,1.64-4.27,2.45-.15,5.08-.93,6.31,2.86,2.3,7.08,5.34,13.92,7.82,20.95.86,2.45,2,3.31,4.63,3.23,6.64-.18,13.29-.06,20.27-.06a5.83,5.83,0,0,0-.11-1.43Q576.41,1119.25,571,1106.16Zm-15.9-15.42a26.42,26.42,0,0,1-11.8.77c-4.49-.66-.85-4.71-2.15-6.48.18-8.24-1.2-7,6.85-7.12,2.47,0,5-.16,7.35.79a6.19,6.19,0,0,1,4.14,6.14A5.78,5.78,0,0,1,555.09,1090.74Z"/><path d="M338.23,944.76c-.65-2.1-1.91-2.31-3.7-2.3-6.15.06-12.32.23-18.45-.06-3.21-.16-4.28,1.25-5.07,4-2.46,8.43-5.12,16.8-7.7,25.19-4.58,14.89-9.18,29.77-13.7,44.67-.42,1.39-2.58,3.83,1,4,5.47.19,11.39,1.12,16.28-.62,3.36-1.19,2.84-7.28,4.37-11.07a11.49,11.49,0,0,0,.59-1.89,1.93,1.93,0,0,1,2.12-1.67c6.15,0,12.73-1.28,18.29.54,3.51,1.15,3,7.85,4.52,12a4.26,4.26,0,0,1,.1.49,2.48,2.48,0,0,0,2.76,2.25c7.28,0,14.56,0,22.32,0C353.92,994.66,346,969.73,338.23,944.76Zm-21.7,42.7c1.87-6.78,3.75-13.59,6.06-21.94,2.34,8,4.29,14.74,6.38,21.94Z"/><path d="M661.71,1065c-.71-2.31-2.12-2.1-3.75-2.1-5.48,0-11,.12-16.45-.06-2.6-.08-3.71.74-4.46,3.32-3.41,11.6-7.09,23.13-10.68,34.68-3.37,10.85-6.75,21.7-10.27,33,4.14,0,7.68-.4,11.08.1,5.38.79,7.46-1.43,8.67-6.51,1.82-7.66,2.21-7.57,10.14-7.57,10.82,0,11,0,13.89,10.34.85,3.06,2.21,3.81,5.15,3.71,5.8-.22,11.61-.07,18.26-.07C676,1110.47,668.76,1087.75,661.71,1065Zm-12,39.51c-10.05-.15-7.87.53-6-7.32.92-3.85,2.19-7.61,3.3-11.41l1-.1c1.49,5.18,2.86,10.4,4.5,15.53C653.44,1104.12,652.27,1104.52,649.7,1104.48Z"/></g></g></svg>