<?xml version="1.0" encoding="UTF-8"?>
<svg width="162px" height="29px" viewBox="0 0 162 29" version="1.1" xmlns="http://www.w3.org/2000/svg" xmlns:xlink="http://www.w3.org/1999/xlink">
    <!-- Generator: Sketch 51.3 (57544) - http://www.bohemiancoding.com/sketch -->
    <title>takeaway-netherlands-avatar</title>
    <desc>Created with Sketch.</desc>
    <defs></defs>
    <g id="Logos" stroke="none" stroke-width="1" fill="none" fill-rule="evenodd">
        <g id="takeaway-netherlands-avatar" transform="translate(-1.000000, 0.000000)" fill="#FF8001" fill-rule="nonzero">
            <g id="LieferandoDE_Full_Colour">
                <path d="M14.12,0.3 C14.6533333,-0.1 15.3866667,-0.1 15.92,0.3 C17.32,1.2 18.62,2.1 19.92,3.1 C19.92,3.1 20.22,3.3 20.32,2.9 C20.2612857,2.39809279 20.2951805,1.88967162 20.42,1.4 C20.5250657,1.10278416 20.8047745,0.902992139 21.12,0.9 C21.12,0.9 22.62,1 23.62,1.1 C24.0576471,1.18782764 24.3840884,1.55507408 24.42,2 C24.42,2 25.02,6.2 25.22,7.7 C25.4295177,8.49287656 25.8432769,9.21695509 26.42,9.8 C27.3213623,11.0205784 28.1559192,12.2891049 28.92,13.6 C28.92,13.6 29.42,14.7 28.32,14.8 C28.32,14.8 26.22,15 26.02,15.1 C25.7183523,15.1315988 25.4966853,15.3975992 25.52,15.7 C25.52,15.7 25.42,23 24.92,26.6 C24.92,26.6 24.82,28 24.02,28 C24.02,28 21.92,27.9 21.42,27.9 C21.42,27.9 21.22,27.9 21.22,27.6 C21.22,27.6 22.32,16.2 21.62,10.4 C21.6135081,10.0083866 21.3789924,9.65661306 21.02,9.5 C21.02,9.5 20.52,9.3 20.02,10 C17.8598122,13.0047449 16.6731218,16.5997188 16.62,20.3 C16.5550818,21.0724621 16.6227232,21.8503374 16.82,22.6 C16.82,22.6 17.02,22.9 17.92,23 L19.02,23.2 C19.02,23.2 19.22,23.2 19.22,23.5 C19.22,23.5 18.92,26.9 18.92,27.5 C18.9349638,27.6409598 18.8995374,27.7826655 18.82,27.9 C18.7034149,27.9811999 18.5610809,28.0167834 18.42,28 L12.92,28 C12.8116965,28.0007376 12.7062002,27.9655722 12.62,27.9 C12.52,27.7 12.32,23.6 12.32,23 C12.32,22.9 12.42,22.8 12.52,22.7 C13.2976469,22.2184376 13.8131174,21.4084125 13.92,20.5 C13.9969281,19.8690027 13.9969281,19.2309973 13.92,18.6 C13.92,18.6 14.12,12.2 14.12,11.1 C14.12,11.1 14.22,10.8 13.72,10.7 C13.6136534,10.6630867 13.4964138,10.6752247 13.3998851,10.7331419 C13.3033564,10.7910591 13.2374749,10.8887938 13.22,11 C13.22,11 12.92,15.3 12.92,16.9 C12.92,16.9 13.02,18 12.32,18 C12.32,18 11.62,18.1 11.52,17.2 C11.52,17.2 11.62,13.1 11.72,11 C11.7054832,10.7853864 11.5346136,10.6145168 11.32,10.6 C11.12,10.5 10.82,10.7 10.82,11 C10.82,11 10.52,15 10.52,17 C10.52,17 10.62,18 9.82,18 C9.82,18 9.12,18.1 9.12,17.2 C9.12,17.2 9.32,11.5 9.32,11.1 C9.34358332,10.8526569 9.16648715,10.6312867 8.92,10.6 L8.82,10.6 C8.62,10.6 8.32,10.7 8.32,11 L8.32,11.1 C8.32,11.1 8,17.9 8,19.9 C8.01252475,21.0496669 8.56895408,22.1254303 9.5,22.8 C9.61417646,22.8585549 9.68986336,22.9720852 9.7,23.1 C9.7,23.1 9.9,26.7 10,27.9 C10,27.9 10.1,28.2 9.8,28.2 L6,28 C6,28 5.4,28.1 5.2,27.3 C4.73422051,23.4843589 4.5004574,19.643965 4.5,15.8 C4.5233147,15.4975992 4.30164773,15.2315988 4,15.2 C4,15.2 2.1,15 1.6,14.9 C1.16006826,14.7869927 0.892685647,14.341355 1,13.9 C1,13.8 1.1,13.8 1.1,13.7 C4.35715102,8.29565456 8.81156622,3.71123339 14.12,0.3 Z" id="House"></path>
            </g>
            <g id="ThuisbezorgdNL-2" transform="translate(35.000000, 9.000000)">
                <path d="M82.33,5.9 C81.8598652,5.47484911 81.3181722,5.13629096 80.73,4.9 C79.426636,4.5002045 78.033364,4.5002045 76.73,4.9 C76.1121016,5.07367203 75.5568741,5.42068921 75.13,5.9 C74.6553248,6.31103438 74.2793501,6.82372723 74.03,7.4 C73.5301904,8.85836506 73.5301904,10.4416349 74.03,11.9 C74.2437267,12.4959436 74.6258561,13.0170291 75.13,13.4 C75.6001348,13.8251509 76.1418278,14.163709 76.73,14.4 C78.0164431,14.900081 79.4435569,14.900081 80.73,14.4 C81.3478984,14.226328 81.9031259,13.8793108 82.33,13.4 C82.7827047,12.9691765 83.1551721,12.4612665 83.43,11.9 C83.9298096,10.4416349 83.9298096,8.85836506 83.43,7.4 C83.1648715,6.83292546 82.7911596,6.32331842 82.33,5.9 M80.43,11.7 C79.4749951,12.599123 77.9850049,12.599123 77.03,11.7 C76.6098738,11.1202237 76.3983953,10.4152956 76.43,9.7 C76.4139031,8.98671677 76.6239283,8.28663267 77.03,7.7 C77.9850049,6.80087703 79.4749951,6.80087703 80.43,7.7 C80.8501262,8.27977633 81.0616047,8.9847044 81.03,9.7 C81.0759446,10.4170056 80.8630394,11.1266896 80.43,11.7" id="Shape"></path>
                <path d="M10.53,1.2 L0.73,1.2 C0.515386449,1.21451684 0.344516841,1.38538645 0.33,1.6 L0.33,3.4 C0.344516841,3.61461355 0.515386449,3.78548316 0.73,3.8 L3.93,3.8 C4.03636671,3.80930074 4.12069926,3.89363329 4.13,4 L4.13,14.2 C4.14451684,14.4146136 4.31538645,14.5854832 4.53,14.6 L6.73,14.6 C6.94461355,14.5854832 7.11548316,14.4146136 7.13,14.2 L7.13,4 C7.13930074,3.89363329 7.22363329,3.80930074 7.33,3.8 L10.53,3.8 C10.7446136,3.78548316 10.9154832,3.61461355 10.93,3.4 L10.93,1.6 C10.9392332,1.49134474 10.900066,1.38414955 10.8229582,1.30704177 C10.7458505,1.22993399 10.6386553,1.19076676 10.53,1.2" id="Shape"></path>
                <path d="M63.23,5.9 C62.8512852,5.45811876 62.3708222,5.11493088 61.83,4.9 C61.250176,4.7032992 60.642277,4.6019827 60.03,4.6 C59.3517059,4.59421218 58.6767444,4.69545641 58.03,4.9 C57.4121016,5.07367203 56.8568741,5.42068921 56.43,5.9 C55.9553248,6.31103438 55.5793501,6.82372723 55.33,7.4 C54.8301904,8.85836506 54.8301904,10.4416349 55.33,11.9 C55.5437267,12.4959436 55.9258561,13.0170291 56.43,13.4 C56.9001348,13.8251509 57.4418278,14.163709 58.03,14.4 C58.6767444,14.6045436 59.3517059,14.7057878 60.03,14.7 C60.7888293,14.6776598 61.536056,14.5078356 62.23,14.2 C62.7565118,13.959591 63.2318255,13.6200813 63.63,13.2 C63.7295577,13.0123897 63.7295577,12.7876103 63.63,12.6 L62.33,11.6 L62.33,11.8 C62.13,11.7 61.93,11.7 61.83,11.9 C61.6557931,12.0953863 61.4535976,12.2638825 61.23,12.4 C60.4024455,12.8644021 59.3767924,12.7855057 58.63,12.2 C58.2006549,11.7757992 57.9501526,11.2032225 57.93,10.6 C57.9393007,10.4936333 58.0236333,10.4093007 58.13,10.4 L64.13,10.4 C64.3446136,10.3854832 64.5154832,10.2146136 64.53,10 L64.53,9.6 C64.5357878,8.92170591 64.4345436,8.24674438 64.23,7.6 C63.9794218,6.98855483 63.6426789,6.41609185 63.23,5.9 M61.33,8.4 L58,8.4 C57.8936333,8.39069926 57.8093007,8.30636671 57.8,8.2 C57.8,8.1 57.9,7.9 57.9,7.8 C57.9749279,7.59399687 58.1154689,7.41832055 58.3,7.3 C58.710098,6.93437609 59.2525472,6.75355967 59.8,6.8 C60.2774368,6.81471463 60.7357536,6.99099034 61.1,7.3 C61.3626794,7.57599999 61.5368077,7.92425648 61.6,8.3 C61.5,8.3 61.4,8.4 61.3,8.4" id="Shape"></path>
                <path d="M53.13,6.1 C52.7667842,5.65770419 52.3263137,5.2849983 51.83,5 C51.2739697,4.71523478 50.6543045,4.57753142 50.03,4.6 C49.4503679,4.60228124 48.8754015,4.7037459 48.33,4.9 C47.9755812,5.00299956 47.6613914,5.21245939 47.43,5.5 L47.33,5.5 C47.2747715,5.5 47.23,5.45522847 47.23,5.4 L47.23,0.6 C47.2154832,0.385386449 47.0446136,0.214516841 46.83,0.2 L44.83,0.2 C44.6153864,0.214516841 44.4445168,0.385386449 44.43,0.6 L44.43,14.2 C44.4445168,14.4146136 44.6153864,14.5854832 44.83,14.6 L46.63,14.6 C46.8446136,14.5854832 47.0154832,14.4146136 47.03,14.2 L47.03,13.8 C47.03,13.7447715 47.0747715,13.7 47.13,13.7 L47.23,13.7 L47.43,13.9 C47.63,14.1 47.83,14.2 48.03,14.4 C48.2902036,14.5164537 48.5573839,14.6166463 48.83,14.7 C49.1224836,14.782476 49.4265457,14.8162607 49.73,14.8 C50.3749812,14.7981625 51.0158301,14.6969759 51.63,14.5 C52.1565118,14.259591 52.6318255,13.9200813 53.03,13.5 C53.4434555,13.0774783 53.751754,12.5636474 53.93,12 C54.3302208,10.5946045 54.3302208,9.10539555 53.93,7.7 C53.8081966,7.10576093 53.5323092,6.55398615 53.13,6.1 M50.83,11.7 C49.8749951,12.599123 48.3850049,12.599123 47.43,11.7 C47.0098738,11.1202237 46.7983953,10.4152956 46.83,9.7 C46.7975708,9.01545171 47.010311,8.34177413 47.43,7.8 C48.3850049,6.90087703 49.8749951,6.90087703 50.83,7.8 C51.249689,8.34177413 51.4624292,9.01545171 51.43,9.7 C51.4616047,10.4152956 51.2501262,11.1202237 50.83,11.7" id="Shape"></path>
                <path d="M112,0.3 L110,0.3 C109.785386,0.314516841 109.614517,0.485386449 109.6,0.7 L109.6,5.5 C109.6,5.55522847 109.555228,5.6 109.5,5.6 L109.4,5.6 L108.5,5 C107.9569,4.79522457 107.380386,4.69348674 106.8,4.7 C106.17673,4.68831379 105.55966,4.82544049 105,5.1 C104.482255,5.35334622 104.035547,5.73132966 103.7,6.2 C103.335633,6.67861814 103.064274,7.22133522 102.9,7.8 C102.499779,9.20539555 102.499779,10.6946045 102.9,12.1 C103.078246,12.6636474 103.386545,13.1774783 103.8,13.6 C104.198174,14.0200813 104.673488,14.359591 105.2,14.6 C105.799503,14.8530584 106.451693,14.9560357 107.1,14.9 C107.403454,14.9162607 107.707516,14.882476 108,14.8 C108.272616,14.7166463 108.539796,14.6164537 108.8,14.5 C109.023598,14.3638825 109.225793,14.1953863 109.4,14 L109.6,13.8 C109.626332,13.7731246 109.662374,13.7579796 109.7,13.7579796 C109.737626,13.7579796 109.773668,13.7731246 109.8,13.8 L109.8,14.2 C109.814517,14.4146136 109.985386,14.5854832 110.2,14.6 L112,14.6 C112.214614,14.5854832 112.385483,14.4146136 112.4,14.2 L112.4,0.7 C112.385483,0.485386449 112.214614,0.314516841 112,0.3 M109.2,11.7 C108.244995,12.599123 106.755005,12.599123 105.8,11.7 C105.379874,11.1202237 105.168395,10.4152956 105.2,9.7 C105.167571,9.01545171 105.380311,8.34177413 105.8,7.8 C106.755005,6.90087703 108.244995,6.90087703 109.2,7.8 C109.619689,8.34177413 109.832429,9.01545171 109.8,9.7 C109.831605,10.4152956 109.620126,11.1202237 109.2,11.7" id="Shape"></path>
                <path d="M33.13,0.3 C32.1911159,0.3 31.43,1.06111593 31.43,2 C31.43,2.93888407 32.1911159,3.7 33.13,3.7 C34.0688841,3.7 34.83,2.93888407 34.83,2 C34.8139895,1.55268437 34.6363469,1.1263421 34.33,0.8 C33.9936948,0.509403512 33.5731473,0.334175417 33.13,0.3" id="Shape"></path>
                <path d="M34,4.9 L32,4.9 C31.7853864,4.91451684 31.6145168,5.08538645 31.6,5.3 L31.6,14.3 C31.6145168,14.5146136 31.7853864,14.6854832 32,14.7 L34,14.7 C34.2146136,14.6854832 34.3854832,14.5146136 34.4,14.3 L34.4,5.3 C34.5,5.1 34.3,4.9 34,4.9" id="Shape"></path>
                <path d="M101,4.9 L99.2,4.9 C98.9853864,4.91451684 98.8145168,5.08538645 98.8,5.3 L98.8,5.7 C98.8,5.8 98.7,5.8 98.6,5.8 L98.5,5.8 L98.3,5.6 C98.084264,5.40997886 97.8497182,5.2424461 97.6,5.1 C97.3166879,4.95556159 97.0133127,4.85443654 96.7,4.8 C96.3395223,4.71720334 95.9694987,4.68356483 95.6,4.7 C94.97673,4.68831379 94.3596599,4.82544049 93.8,5.1 C93.2822552,5.35334622 92.8355475,5.73132966 92.5,6.2 C92.1569299,6.65534155 91.8870162,7.16142975 91.7,7.7 C91.3,9.07142857 91.3,10.5285714 91.7,11.9 C91.878246,12.4636474 92.1865445,12.9774783 92.6,13.4 C92.9981745,13.8200813 93.4734882,14.159591 94,14.4 C94.599503,14.6530584 95.2516927,14.7560357 95.9,14.7 C96.3822602,14.6966845 96.8587261,14.5945847 97.3,14.4 C97.6424056,14.2723742 97.9504971,14.0669799 98.2,13.8 L98.3,13.7 L98.4,13.7 C98.4265216,13.7 98.451957,13.7105357 98.4707107,13.7292893 C98.4894643,13.748043 98.5,13.7734784 98.5,13.8 L98.5,14.3 C98.5160374,14.8911258 98.3007684,15.4651764 97.9,15.9 C97.3658361,16.3340152 96.6865459,16.5485279 96,16.5 C95.4529269,16.4974348 94.9108427,16.395794 94.4,16.2 C94,16 93.7,15.8 93.3,15.6 C93.1024848,15.4819713 92.8485591,15.5242923 92.7,15.7 L91.6,17.4 C91.5,17.6 91.5,17.9 91.7,18 C92.2637844,18.4085222 92.9138007,18.6822133 93.6,18.8 C94.3846569,18.9981137 95.1907199,19.0988715 96,19.1 C97.474949,19.249409 98.9401502,18.7365886 100,17.7 C100.944222,16.5904702 101.411516,15.1526447 101.3,13.7 L101.3,5.1 C101.4,5 101.2,4.9 101,4.9 M98.6,10.8 C98.492712,11.0705078 98.3210897,11.3107791 98.1,11.5 C97.8918976,11.6994285 97.6561412,11.8678259 97.4,12 C96.8166034,12.1996198 96.1833966,12.1996198 95.6,12 C95.3294922,11.892712 95.0892209,11.7210897 94.9,11.5 C94.6789103,11.3107791 94.507288,11.0705078 94.4,10.8 C94.2762966,10.4460281 94.2088117,10.0748614 94.2,9.7 C94.1684766,9.28970464 94.2371118,8.87789343 94.4,8.5 C94.507288,8.22949217 94.6789103,7.9892209 94.9,7.8 C95.0892209,7.57891032 95.3294922,7.40728798 95.6,7.3 C96.1832697,7.0996183 96.8167303,7.0996183 97.4,7.3 C97.6705078,7.40728798 97.9107791,7.57891032 98.1,7.8 C98.3210897,7.9892209 98.492712,8.22949217 98.6,8.5 C98.7152617,8.89036836 98.7824253,9.29335047 98.8,9.7 C98.8392593,10.0782238 98.7698815,10.4598018 98.6,10.8" id="Shape"></path>
                <path d="M19.83,5.9 C19.5993539,5.50250806 19.2495073,5.18764616 18.83,5 C18.2522167,4.79528919 17.6429444,4.6937438 17.03,4.7 C16.6936897,4.68831391 16.3573366,4.72194922 16.03,4.8 C15.73,4.9 15.53,5 15.23,5.1 C15.017266,5.21316369 14.8431637,5.38726603 14.73,5.6 L14.73,5.7 L14.53,5.7 L14.53,0.8 C14.5154832,0.585386449 14.3446136,0.414516841 14.13,0.4 L12.13,0.4 C11.9153864,0.414516841 11.7445168,0.585386449 11.73,0.8 L11.73,14.2 C11.7445168,14.4146136 11.9153864,14.5854832 12.13,14.6 L14.13,14.6 C14.3446136,14.5854832 14.5154832,14.4146136 14.53,14.2 L14.53,8.6 C14.5360531,8.35345525 14.6048894,8.11252833 14.73,7.9 C14.8431637,7.68726603 15.017266,7.51316369 15.23,7.4 C15.5175161,7.28609447 15.8213019,7.21858654 16.13,7.2 C16.687712,7.1696745 17.2057422,7.4884623 17.43,8 C17.53,8.2 17.53,8.5 17.63,8.8 L17.63,14.2 C17.6445168,14.4146136 17.8153864,14.5854832 18.03,14.6 L20.03,14.6 C20.2446136,14.5854832 20.4154832,14.4146136 20.43,14.2 L20.43,9 C20.449586,8.43145681 20.4161077,7.86232592 20.33,7.3 C20.2699555,6.80185431 20.0991076,6.32348031 19.83,5.9" id="Shape"></path>
                <path d="M90.83,4.6 L90.33,4.6 C89.7693686,4.57738507 89.2140325,4.71621909 88.73,5 C88.4150086,5.21351496 88.143515,5.48500857 87.93,5.8 L87.83,5.8 C87.73,5.8 87.73,5.8 87.73,5.7 L87.73,5.1 C87.7154832,4.88538645 87.5446136,4.71451684 87.33,4.7 L85.33,4.7 C85.1153864,4.71451684 84.9445168,4.88538645 84.93,5.1 L84.93,14.1 C84.9445168,14.3146136 85.1153864,14.4854832 85.33,14.5 L87.33,14.5 C87.5446136,14.4854832 87.7154832,14.3146136 87.73,14.1 L87.73,10.1 C87.7171746,9.66434744 87.7506963,9.22856571 87.83,8.8 C87.8362308,8.4454357 87.9400288,8.09944217 88.13,7.8 C88.2850201,7.52349923 88.5330432,7.31090796 88.83,7.2 C89.1519706,7.08555313 89.4887783,7.01819159 89.83,7 L90.83,7 C91.0446136,6.98548316 91.2154832,6.81461355 91.23,6.6 L91.23,4.9 C91.33,4.8 91.13,4.6 90.83,4.6" id="Shape"></path>
                <path d="M42,9.3 C41.627441,9.07389467 41.2228826,8.90532866 40.8,8.8 L39.6,8.5 L38.7,8.2 C38.512611,8.10441778 38.3961542,7.91032307 38.4,7.7 C38.3932562,7.46239054 38.5058662,7.23717067 38.7,7.1 C38.9125283,6.97488939 39.1534552,6.90605313 39.4,6.9 C39.9079532,6.91360268 40.3983512,7.08874483 40.8,7.4 C40.9876103,7.49955765 41.2123897,7.49955765 41.4,7.4 L42.6,6.2 C42.6995577,6.01238966 42.6995577,5.78761034 42.6,5.6 C42.2252968,5.27118895 41.7807706,5.03182867 41.3,4.9 C40.720176,4.7032992 40.112277,4.6019827 39.5,4.6 C39.0270024,4.61029389 38.55696,4.67744282 38.1,4.8 C37.6563179,4.8970674 37.2438632,5.10329479 36.9,5.4 C36.5242373,5.65643872 36.2155772,5.99939432 36,6.4 C35.6,7.36 35.6,8.44 36,9.4 C36.2475586,9.74821947 36.5517805,10.0524414 36.9,10.3 C37.272559,10.5261053 37.6771174,10.6946713 38.1,10.8 L39.3,11.1 L40.2,11.4 C40.4129058,11.520197 40.5315859,11.7575571 40.5,12 C40.5,12.2 40.4,12.5 40.1,12.5 C39.8075164,12.582476 39.5034543,12.6162607 39.2,12.6 C38.8119919,12.6088482 38.4297917,12.5046117 38.1,12.3 C37.8764024,12.1638825 37.6742069,11.9953863 37.5,11.8 C37.3123897,11.7004423 37.0876103,11.7004423 36.9,11.8 L35.7,13.2 C35.5819713,13.3975152 35.6242923,13.6514409 35.8,13.8 C36.2112393,14.1307642 36.688645,14.3694671 37.2,14.5 C37.8467444,14.7045436 38.5217059,14.8057878 39.2,14.8 C39.7020795,14.8165198 40.2045566,14.7830214 40.7,14.7 C41.1814504,14.5780537 41.650224,14.4106346 42.1,14.2 C42.5041676,13.9459519 42.8459519,13.6041676 43.1,13.2 C43.3837809,12.7159675 43.5226149,12.1606314 43.5,11.6 C43.497428,11.0853564 43.3955657,10.5760448 43.2,10.1 C42.7,9.8 42.4,9.5 42,9.3" id="Shape"></path>
                <path d="M29.93,4.9 L27.93,4.9 C27.7153864,4.91451684 27.5445168,5.08538645 27.53,5.3 L27.53,10.9 C27.5239469,11.1465448 27.4551106,11.3874717 27.33,11.6 C27.2168363,11.812734 27.042734,11.9868363 26.83,12.1 C26.5424839,12.2139055 26.2386981,12.2814135 25.93,12.3 C25.6473767,12.3417698 25.3597171,12.2698549 25.13,12.1 C24.9205746,11.9627643 24.7761308,11.7460987 24.73,11.5 C24.63,11.3 24.63,11 24.53,10.7 L24.53,5.3 C24.5154832,5.08538645 24.3446136,4.91451684 24.13,4.9 L22.13,4.9 C21.9153864,4.91451684 21.7445168,5.08538645 21.73,5.3 L21.73,10.5 C21.710414,11.0685432 21.7438923,11.6376741 21.83,12.2 C21.8900445,12.6981457 22.0608924,13.1765197 22.33,13.6 C22.5606461,13.9974919 22.9104927,14.3123538 23.33,14.5 C23.9077833,14.7047108 24.5170556,14.8062562 25.13,14.8 C25.4334543,14.8162607 25.7375164,14.782476 26.03,14.7 C26.33,14.6 26.53,14.5 26.83,14.4 C27.0535976,14.2638825 27.2557931,14.0953863 27.43,13.9 C27.43,13.8 27.53,13.8 27.53,13.7 L27.63,13.7 C27.6565216,13.7 27.681957,13.7105357 27.7007107,13.7292893 C27.7194643,13.748043 27.73,13.7734784 27.73,13.8 L27.73,14.2 C27.7445168,14.4146136 27.9153864,14.5854832 28.13,14.6 L30,14.6 C30.2146136,14.5854832 30.3854832,14.4146136 30.4,14.2 L30.4,5.2 C30.3044178,5.01261104 30.1103231,4.89615421 29.9,4.9" id="Shape"></path>
                <path d="M72.73,12.4 L68.33,12.4 C68.3034784,12.4 68.278043,12.3894643 68.2592893,12.3707107 C68.2405357,12.351957 68.23,12.3265216 68.23,12.3 L68.23,12.2 L72.33,8.3 L72.53,8.1 C72.7241338,7.96282933 72.8367438,7.73760946 72.83,7.5 L72.83,5.5 C72.8154832,5.28538645 72.6446136,5.11451684 72.43,5.1 L65.33,5.1 C65.1153864,5.11451684 64.9445168,5.28538645 64.93,5.5 L64.93,6.9 C64.9445168,7.11461355 65.1153864,7.28548316 65.33,7.3 L69.23,7.3 C69.2565216,7.3 69.281957,7.31053568 69.3007107,7.32928932 C69.3194643,7.34804296 69.33,7.37347835 69.33,7.4 L69.33,7.5 L65.63,11.1 L65.13,11.6 L65.03,11.7 C64.904398,11.8752782 64.8346853,12.0844162 64.83,12.3 L64.83,14.2 C64.8445168,14.4146136 65.0153864,14.5854832 65.23,14.6 L72.63,14.6 C72.8446136,14.5854832 73.0154832,14.4146136 73.03,14.2 L73.03,12.8 C73.23,12.6 73.03,12.4 72.73,12.4" id="Shape"></path>
                <path d="M127.23,0.1 L126.53,0.1 C126.315386,0.114516841 126.144517,0.285386449 126.13,0.5 L126.13,14.2 C126.144517,14.4146136 126.315386,14.5854832 126.53,14.6 L127.13,14.6 C127.344614,14.5854832 127.515483,14.4146136 127.53,14.2 L127.53,0.5 C127.63,0.3 127.43,0.1 127.23,0.1" id="Shape"></path>
                <path d="M123.93,5.7 C123.629025,5.37668188 123.25036,5.13571313 122.83,5 C122.353955,4.80443429 121.844644,4.70257196 121.33,4.7 C120.665722,4.7117972 120.014039,4.88329266 119.43,5.2 C119.173859,5.33217408 118.938102,5.50057154 118.73,5.7 L118.63,5.8 L118.63,5.9 L118.53,5.9 C118.43,5.9 118.43,5.9 118.43,5.8 L118.43,5.2 C118.415483,4.98538645 118.244614,4.81451684 118.03,4.8 L117.33,4.8 C117.115386,4.81451684 116.944517,4.98538645 116.93,5.2 L116.93,14.2 C116.944517,14.4146136 117.115386,14.5854832 117.33,14.6 L118.03,14.6 C118.244614,14.5854832 118.415483,14.4146136 118.43,14.2 L118.43,9.5 C118.397803,9.02447355 118.465944,8.54749026 118.63,8.1 C118.735265,7.70841254 118.904184,7.33679161 119.13,7 C119.362589,6.69095678 119.673213,6.44935996 120.03,6.3 C120.440667,6.12877199 120.886856,6.06012766 121.33,6.1 C121.946532,6.0528802 122.546173,6.31522326 122.93,6.8 C123.246248,7.34804406 123.418281,7.96736449 123.43,8.6 L123.43,14.2 C123.444517,14.4146136 123.615386,14.5854832 123.83,14.6 L124.53,14.6 C124.744614,14.5854832 124.915483,14.4146136 124.93,14.2 L124.93,8.3 C124.912617,7.79465678 124.845629,7.29224368 124.73,6.8 C124.487457,6.41638139 124.220227,6.04893959 123.93,5.7" id="Shape"></path>
                <path d="M114.63,12.7 C114.360386,12.6715524 114.09534,12.7851435 113.93,13 C113.531265,13.4205052 113.531265,14.0794948 113.93,14.5 C114.119833,14.7152504 114.392999,14.8385622 114.68,14.8385622 C114.967001,14.8385622 115.240167,14.7152504 115.43,14.5 C115.828735,14.0794948 115.828735,13.4205052 115.43,13 C115.195457,12.8293324 114.91893,12.7256349 114.63,12.7" id="Shape"></path>
            </g>
        </g>
    </g>
</svg>