<?xml version="1.0" encoding="UTF-8"?>
<svg width="148px" height="29px" viewBox="0 0 148 29" version="1.1" xmlns="http://www.w3.org/2000/svg" xmlns:xlink="http://www.w3.org/1999/xlink">
    <!-- Generator: Sketch 51.3 (57544) - http://www.bohemiancoding.com/sketch -->
    <title>takeaway-switzerland-avatar</title>
    <desc>Created with Sketch.</desc>
    <defs></defs>
    <g id="Logos" stroke="none" stroke-width="1" fill="none" fill-rule="evenodd">
        <g id="takeaway-switzerland-avatar" transform="translate(-1.000000, 0.000000)" fill="#FF8001" fill-rule="nonzero">
            <g id="LieferandoDE_Full_Colour">
                <path d="M14.12,0.3 C14.6533333,-0.1 15.3866667,-0.1 15.92,0.3 C17.32,1.2 18.62,2.1 19.92,3.1 C19.92,3.1 20.22,3.3 20.32,2.9 C20.2612857,2.39809279 20.2951805,1.88967162 20.42,1.4 C20.5250657,1.10278416 20.8047745,0.902992139 21.12,0.9 C21.12,0.9 22.62,1 23.62,1.1 C24.0576471,1.18782764 24.3840884,1.55507408 24.42,2 C24.42,2 25.02,6.2 25.22,7.7 C25.4295177,8.49287656 25.8432769,9.21695509 26.42,9.8 C27.3213623,11.0205784 28.1559192,12.2891049 28.92,13.6 C28.92,13.6 29.42,14.7 28.32,14.8 C28.32,14.8 26.22,15 26.02,15.1 C25.7183523,15.1315988 25.4966853,15.3975992 25.52,15.7 C25.52,15.7 25.42,23 24.92,26.6 C24.92,26.6 24.82,28 24.02,28 C24.02,28 21.92,27.9 21.42,27.9 C21.42,27.9 21.22,27.9 21.22,27.6 C21.22,27.6 22.32,16.2 21.62,10.4 C21.6135081,10.0083866 21.3789924,9.65661306 21.02,9.5 C21.02,9.5 20.52,9.3 20.02,10 C17.8598122,13.0047449 16.6731218,16.5997188 16.62,20.3 C16.5550818,21.0724621 16.6227232,21.8503374 16.82,22.6 C16.82,22.6 17.02,22.9 17.92,23 L19.02,23.2 C19.02,23.2 19.22,23.2 19.22,23.5 C19.22,23.5 18.92,26.9 18.92,27.5 C18.9349638,27.6409598 18.8995374,27.7826655 18.82,27.9 C18.7034149,27.9811999 18.5610809,28.0167834 18.42,28 L12.92,28 C12.8116965,28.0007376 12.7062002,27.9655722 12.62,27.9 C12.52,27.7 12.32,23.6 12.32,23 C12.32,22.9 12.42,22.8 12.52,22.7 C13.2976469,22.2184376 13.8131174,21.4084125 13.92,20.5 C13.9969281,19.8690027 13.9969281,19.2309973 13.92,18.6 C13.92,18.6 14.12,12.2 14.12,11.1 C14.12,11.1 14.22,10.8 13.72,10.7 C13.6136534,10.6630867 13.4964138,10.6752247 13.3998851,10.7331419 C13.3033564,10.7910591 13.2374749,10.8887938 13.22,11 C13.22,11 12.92,15.3 12.92,16.9 C12.92,16.9 13.02,18 12.32,18 C12.32,18 11.62,18.1 11.52,17.2 C11.52,17.2 11.62,13.1 11.72,11 C11.7054832,10.7853864 11.5346136,10.6145168 11.32,10.6 C11.12,10.5 10.82,10.7 10.82,11 C10.82,11 10.52,15 10.52,17 C10.52,17 10.62,18 9.82,18 C9.82,18 9.12,18.1 9.12,17.2 C9.12,17.2 9.32,11.5 9.32,11.1 C9.34358332,10.8526569 9.16648715,10.6312867 8.92,10.6 L8.82,10.6 C8.62,10.6 8.32,10.7 8.32,11 L8.32,11.1 C8.32,11.1 8,17.9 8,19.9 C8.01252475,21.0496669 8.56895408,22.1254303 9.5,22.8 C9.61417646,22.8585549 9.68986336,22.9720852 9.7,23.1 C9.7,23.1 9.9,26.7 10,27.9 C10,27.9 10.1,28.2 9.8,28.2 L6,28 C6,28 5.4,28.1 5.2,27.3 C4.73422051,23.4843589 4.5004574,19.643965 4.5,15.8 C4.5233147,15.4975992 4.30164773,15.2315988 4,15.2 C4,15.2 2.1,15 1.6,14.9 C1.16006826,14.7869927 0.892685647,14.341355 1,13.9 C1,13.8 1.1,13.8 1.1,13.7 C4.35715102,8.29565456 8.81156622,3.71123339 14.12,0.3 Z" id="House"></path>
            </g>
            <g id="TakeawayCOM-2" transform="translate(35.000000, 9.000000)">
                <path d="M10.92,3.3 L10.92,1.5 C10.9054832,1.28538645 10.7346136,1.11451684 10.52,1.1 L0.72,1.1 C0.505386449,1.11451684 0.334516841,1.28538645 0.32,1.5 L0.32,3.3 C0.334516841,3.51461355 0.505386449,3.68548316 0.72,3.7 L3.92,3.7 C4.02636671,3.70930074 4.11069926,3.79363329 4.12,3.9 L4.12,14.1 C4.13451684,14.3146136 4.30538645,14.4854832 4.52,14.5 L6.72,14.5 C6.93461355,14.4854832 7.10548316,14.3146136 7.12,14.1 L7.12,3.9 C7.12930074,3.79363329 7.21363329,3.70930074 7.32,3.7 L10.52,3.7 C10.7346136,3.68548316 10.9054832,3.51461355 10.92,3.3" id="Shape"></path>
                <path d="M16.42,5.8 C16.0749422,5.38914957 15.6260163,5.07835471 15.12,4.9 C14.437439,4.70244794 13.7305731,4.60146709 13.02,4.6 C12.2674498,4.5867742 11.5197315,4.72272298 10.82,5 C10.2850287,5.1495846 9.77827631,5.38606907 9.32,5.7 C9.22044235,5.88761034 9.22044235,6.11238966 9.32,6.3 L10.22,7.2 C10.2919912,7.29259798 10.4027092,7.34676192 10.52,7.34676192 C10.6372908,7.34676192 10.7480088,7.29259798 10.82,7.2 C11.0281024,7.00057154 11.2638588,6.83217408 11.52,6.7 C11.9224192,6.49557774 12.3686966,6.39259066 12.82,6.4 C13.2867567,6.37736463 13.7467044,6.51888699 14.12,6.8 C14.494252,7.24483061 14.6743748,7.82122353 14.62,8.4 C14.6106993,8.50636671 14.5263667,8.59069926 14.42,8.6 L13.32,8.6 C12.8511055,8.58347647 12.3817857,8.61699931 11.92,8.7 C11.4699526,8.70381798 11.02621,8.80622012 10.62,9 C10.1839262,9.11780619 9.77588924,9.32182467 9.42,9.6 C9.07999644,9.82577683 8.80435726,10.1358709 8.62,10.5 C8.41521087,10.9379066 8.31262723,11.4166302 8.32,11.9 C8.32431626,12.3180165 8.42709483,12.7291308 8.62,13.1 C8.82152356,13.4234407 9.05611711,13.725061 9.32,14 C9.65679161,14.2258161 10.0284125,14.3947347 10.42,14.5 C10.8103684,14.6152617 11.2133505,14.6824253 11.62,14.7 C12.1996321,14.6977188 12.7745985,14.5962541 13.32,14.4 C13.7320063,14.2501443 14.0833589,13.9690622 14.32,13.6 L14.52,13.6 L14.52,14 C14.5345168,14.2146136 14.7053864,14.3854832 14.92,14.4 L16.72,14.4 C16.9346136,14.3854832 17.1054832,14.2146136 17.12,14 L17.12,9.7 C17.1530015,8.82853633 17.0858959,7.95616387 16.92,7.1 C16.9840969,6.60997151 16.7959467,6.12078098 16.42,5.8 Z M14.72,11.1 C14.7457205,11.6295968 14.4762985,12.129952 14.02,12.4 C13.7948379,12.5180822 13.560792,12.6183876 13.32,12.7 C13.0617699,12.7823281 12.7905499,12.8162306 12.52,12.8 C12.2113019,12.7814135 11.9075161,12.7139055 11.62,12.6 C11.32,12.5 11.22,12.2 11.22,11.8 C11.2128582,11.5340297 11.3224755,11.2782562 11.52,11.1 C11.7530508,10.9079833 12.0265562,10.7712306 12.32,10.7 C12.6124836,10.617524 12.9165457,10.5837393 13.22,10.6 L14.52,10.6 C14.6263667,10.6093007 14.7106993,10.6936333 14.72,10.8 L14.72,11.1 Z" id="Shape"></path>
                <path d="M44.92,5.8 C44.5749422,5.38914957 44.1260163,5.07835471 43.62,4.9 C42.937439,4.70244794 42.2305731,4.60146709 41.52,4.6 C40.7674498,4.5867742 40.0197315,4.72272298 39.32,5 C38.7584358,5.20601209 38.2217482,5.47435592 37.72,5.8 C37.6204423,5.98761034 37.6204423,6.21238966 37.72,6.4 L38.62,7.3 C38.6895568,7.39635502 38.8011621,7.45343592 38.92,7.45343592 C39.0388379,7.45343592 39.1504432,7.39635502 39.22,7.3 C39.4281024,7.10057154 39.6638588,6.93217408 39.92,6.8 C40.3224192,6.59557774 40.7686966,6.49259066 41.22,6.5 C41.6867567,6.47736463 42.1467044,6.61888699 42.52,6.9 C42.894252,7.34483061 43.0743748,7.92122353 43.02,8.5 C43.0106993,8.60636671 42.9263667,8.69069926 42.82,8.7 L41.72,8.7 C41.2511055,8.68347647 40.7817857,8.71699931 40.32,8.8 C39.8699526,8.80381798 39.42621,8.90622012 39.02,9.1 C38.5839262,9.21780619 38.1758892,9.42182467 37.82,9.7 C37.4799964,9.92577683 37.2043573,10.2358709 37.02,10.6 C36.8152109,11.0379066 36.7126272,11.5166302 36.72,12 C36.7243163,12.4180165 36.8270948,12.8291308 37.02,13.2 C37.2215236,13.5234407 37.4561171,13.825061 37.72,14.1 C38.0567916,14.3258161 38.4284125,14.4947347 38.82,14.6 C39.7735953,14.8686351 40.7871743,14.8336841 41.72,14.5 C42.1320063,14.3501443 42.4833589,14.0690622 42.72,13.7 L42.92,13.7 L42.92,14.1 C42.9345168,14.3146136 43.1053864,14.4854832 43.32,14.5 L45.32,14.5 C45.5346136,14.4854832 45.7054832,14.3146136 45.72,14.1 L45.72,9.8 C45.7530015,8.92853633 45.6858959,8.05616387 45.52,7.2 C45.4248859,6.6950411 45.220064,6.21712323 44.92,5.8 Z M43.12,11.1 C43.1457205,11.6295968 42.8762985,12.129952 42.42,12.4 C42.1948379,12.5180822 41.960792,12.6183876 41.72,12.7 C41.4617699,12.7823281 41.1905499,12.8162306 40.92,12.8 C40.6113019,12.7814135 40.3075161,12.7139055 40.02,12.6 C39.72,12.5 39.62,12.2 39.62,11.8 C39.6128582,11.5340297 39.7224755,11.2782562 39.92,11.1 C40.1530508,10.9079833 40.4265562,10.7712306 40.72,10.7 C41.0124836,10.617524 41.3165457,10.5837393 41.62,10.6 L42.92,10.6 C43.0263667,10.6093007 43.1106993,10.6936333 43.12,10.8 L43.12,11.1 Z" id="Shape"></path>
                <path d="M69.42,5.8 C69.0749422,5.38914957 68.6260163,5.07835471 68.12,4.9 C67.437439,4.70244794 66.7305731,4.60146709 66.02,4.6 C65.2674498,4.5867742 64.5197315,4.72272298 63.82,5 C63.2778845,5.12971629 62.7676378,5.36783143 62.32,5.7 C62.2204423,5.88761034 62.2204423,6.11238966 62.32,6.3 L63.22,7.2 C63.2895568,7.29635502 63.4011621,7.35343592 63.52,7.35343592 C63.6388379,7.35343592 63.7504432,7.29635502 63.82,7.2 C64.0281024,7.00057154 64.2638588,6.83217408 64.52,6.7 C64.9224192,6.49557774 65.3686966,6.39259066 65.82,6.4 C66.2867567,6.37736463 66.7467044,6.51888699 67.12,6.8 C67.494252,7.24483061 67.6743748,7.82122353 67.62,8.4 C67.6106993,8.50636671 67.5263667,8.59069926 67.42,8.6 L66.32,8.6 C65.8511055,8.58347647 65.3817857,8.61699931 64.92,8.7 C64.4699526,8.70381798 64.02621,8.80622012 63.62,9 C63.1839262,9.11780619 62.7758892,9.32182467 62.42,9.6 C62.0799964,9.82577683 61.8043573,10.1358709 61.62,10.5 C61.4152109,10.9379066 61.3126272,11.4166302 61.32,11.9 C61.3243163,12.3180165 61.4270948,12.7291308 61.62,13.1 C61.7958773,13.4405739 62.0331981,13.7457007 62.32,14 C62.6567916,14.2258161 63.0284125,14.3947347 63.42,14.5 C64.3735953,14.7686351 65.3871743,14.7336841 66.32,14.4 C66.7320063,14.2501443 67.0833589,13.9690622 67.32,13.6 L67.52,13.6 L67.52,14 C67.5345168,14.2146136 67.7053864,14.3854832 67.92,14.4 L69.72,14.4 C69.9346136,14.3854832 70.1054832,14.2146136 70.12,14 L70.12,9.7 C70.1530015,8.82853633 70.0858959,7.95616387 69.92,7.1 C69.9356753,6.61693475 69.7553388,6.1480598 69.42,5.8 Z M67.62,11.1 C67.6457205,11.6295968 67.3762985,12.129952 66.92,12.4 C66.6948379,12.5180822 66.460792,12.6183876 66.22,12.7 C65.9617699,12.7823281 65.6905499,12.8162306 65.42,12.8 C65.1113019,12.7814135 64.8075161,12.7139055 64.52,12.6 C64.22,12.5 64.12,12.2 64.12,11.8 C64.1128582,11.5340297 64.2224755,11.2782562 64.42,11.1 C64.6530508,10.9079833 64.9265562,10.7712306 65.22,10.7 C65.5124836,10.617524 65.8165457,10.5837393 66.12,10.6 L67.42,10.6 C67.5263667,10.6093007 67.6106993,10.6936333 67.62,10.8 L67.62,11.1 Z" id="Shape"></path>
                <path d="M35.52,5.8 C35.1412852,5.35811876 34.6608222,5.01493088 34.12,4.8 C33.540176,4.6032992 32.932277,4.5019827 32.32,4.5 C31.6417059,4.49421218 30.9667444,4.59545641 30.32,4.8 C29.7021016,4.97367203 29.1468741,5.32068921 28.72,5.8 C28.2672953,6.2308235 27.8948279,6.73873354 27.62,7.3 C27.1201904,8.75836506 27.1201904,10.3416349 27.62,11.8 C27.8337267,12.3959436 28.2158561,12.9170291 28.72,13.3 C29.1901348,13.7251509 29.7318278,14.063709 30.32,14.3 C30.9667444,14.5045436 31.6417059,14.6057878 32.32,14.6 C33.0788293,14.5776598 33.826056,14.4078356 34.52,14.1 C35.0465118,13.859591 35.5218255,13.5200813 35.92,13.1 C36.0195577,12.9123897 36.0195577,12.6876103 35.92,12.5 L34.62,11.5 L34.52,11.4 C34.32,11.3 34.12,11.3 34.02,11.5 C33.8457931,11.6953863 33.6435976,11.8638825 33.42,12 C32.5924455,12.4644021 31.5667924,12.3855057 30.82,11.8 C30.3906549,11.3757992 30.1401526,10.8032225 30.12,10.2 C30.1293007,10.0936333 30.2136333,10.0093007 30.32,10 L36.32,10 C36.5346136,9.98548316 36.7054832,9.81461355 36.72,9.6 L36.72,9.2 C36.7257878,8.52170591 36.6245436,7.84674438 36.42,7.2 C36.169491,6.70331148 35.8678591,6.23410633 35.52,5.8 M33.62,8.3 L30.32,8.3 C30.2136333,8.29069926 30.1293007,8.20636671 30.12,8.1 C30.12,8 30.22,7.8 30.22,7.7 C30.2949279,7.49399687 30.4354689,7.31832055 30.62,7.2 C30.7953137,7.03291026 30.998335,6.89756276 31.22,6.8 C31.4782301,6.71767192 31.7494501,6.68376942 32.02,6.7 C32.4974368,6.71471463 32.9557536,6.89099034 33.32,7.2 C33.5826794,7.47599999 33.7568077,7.82425648 33.82,8.2 C33.7660611,8.2543054 33.6958076,8.28943214 33.62,8.3" id="Shape"></path>
                <path d="M24.52,9.8 C24.4476039,9.64358378 24.4133329,9.47222887 24.42,9.3 L27.72,5.1 C27.766299,5.06400438 27.793381,5.00864539 27.793381,4.95 C27.793381,4.89135461 27.766299,4.83599562 27.72,4.8 L25,4.8 C24.7340297,4.79285825 24.4782562,4.90247546 24.3,5.1 L24.2,5.3 L21.6,8.6 L21.4,8.6 L21.4,0.5 C21.3854832,0.285386449 21.2146136,0.114516841 21,0.1 L18.9,0.1 C18.6853864,0.114516841 18.5145168,0.285386449 18.5,0.5 L18.5,14.1 C18.5145168,14.3146136 18.6853864,14.4854832 18.9,14.5 L20.9,14.5 C21.1146136,14.4854832 21.2854832,14.3146136 21.3,14.1 L21.3,10.2 L21.5,10.2 L24,13.9 L24.1,14.1 C24.2782562,14.2975245 24.5340297,14.4071418 24.8,14.4 L27.7,14.4 C27.8,14.3 27.8,14.2 27.7,14.2 L24.52,9.8 Z" id="Shape"></path>
                <path d="M61.52,5.4 L61.52,5.1 C61.52,4.9 61.32,4.8 61.12,4.8 L59.52,4.8 C59.1033344,4.82270176 58.7445671,5.10174305 58.62,5.5 L58.62,5.7 L57.22,10.7 L57.12,10.8 C57.02,10.8 57.02,10.8 57.02,10.7 L57.02,10.6 L55.62,5.5 L55.62,5.4 C55.5409971,5.02802038 55.1992212,4.77168846 54.82,4.8 L53,4.8 C52.5833344,4.82270176 52.2245671,5.10174305 52.1,5.5 L52.1,5.6 L50.8,10.6 C50.8,10.7 50.7,10.7 50.6,10.6 L49.1,5.6 L49,5.4 C48.8863967,5.05141272 48.5664527,4.81145469 48.2,4.8 L46.3,4.8 C46.1,4.8 45.9,4.9 45.9,5.1 L45.9,5.4 L48.8,13.9 L48.8,14 C48.9050657,14.2972158 49.1847745,14.4970079 49.5,14.5 L51.2,14.5 C51.5547005,14.4572656 51.8596588,14.2285469 52,13.9 L52.1,13.7 L53.5,8.8 L53.6,8.7 C53.6265216,8.7 53.651957,8.71053568 53.6707107,8.72928932 C53.6894643,8.74804296 53.7,8.77347835 53.7,8.8 L55.3,13.8 C55.3,13.9 55.4,14 55.4,14.1 C55.5050657,14.3972158 55.7847745,14.5970079 56.1,14.6 L57.8,14.6 C58.1152255,14.5970079 58.3949343,14.3972158 58.5,14.1 C58.5490338,14.0059368 58.5827891,13.9046709 58.6,13.8 L61.5,5.4" id="Shape"></path>
                <path d="M80.32,5.1 C80.22,4.9 80.12,4.8 79.92,4.8 L78.22,4.8 C77.886533,4.82250396 77.5863543,5.01011563 77.42,5.3 L77.42,5.4 L77.42,5.7 L75.82,10.8 C75.82,10.9 75.72,10.9 75.62,10.9 C75.52,10.9 75.42,10.9 75.42,10.8 L73.52,5.6 L73.52,5.5 L73.42,5.2 C73.3019694,4.92548985 73.0164243,4.76232123 72.72,4.8 L70.72,4.8 C70.62,4.8 70.52,4.9 70.42,5 L70.42,5.1 L70.42,5.3 L74.12,14.4 L74.12,15 L74.02,15.2 C73.92,15.4 73.82,15.7 73.72,15.9 C73.62,16.1 73.52,16.2 73.42,16.4 C73.2674506,16.5218399 73.0992938,16.622734 72.92,16.7 C72.6628863,16.7872934 72.3906901,16.8213179 72.12,16.8 L70.92,16.8 C70.7053864,16.8145168 70.5345168,16.9853864 70.52,17.2 L70.52,18.8 C70.5345168,19.0146136 70.7053864,19.1854832 70.92,19.2 L72.62,19.2 C73.1939502,19.2315478 73.7690424,19.1638899 74.32,19 C74.7039468,18.8999697 75.0510571,18.6917035 75.32,18.4 C75.6087073,18.10907 75.8454622,17.7708487 76.02,17.4 C76.2465023,16.9921166 76.4148016,16.5545387 76.52,16.1 L80.52,5.3 C80.32,5.2 80.32,5.2 80.32,5.1" id="Shape"></path>
                <path d="M79.92,12.6 C79.6540297,12.5928582 79.3982562,12.7024755 79.22,12.9 C78.8057865,13.3142136 78.8057865,13.9857864 79.22,14.4 C79.6342136,14.8142135 80.3057864,14.8142135 80.72,14.4 C81.1187349,13.9794948 81.1187349,13.3205052 80.72,12.9 C80.5023072,12.7000728 80.2154741,12.5925104 79.92,12.6" id="Shape"></path>
                <path d="M97.72,5.9 C97.2858585,5.47712543 96.7773233,5.13810194 96.22,4.9 C94.9680277,4.40025588 93.5719723,4.40025588 92.32,4.9 C91.7311911,5.07570794 91.2086569,5.42406408 90.82,5.9 C90.376868,6.31739159 90.0348492,6.83041985 89.82,7.4 C89.5818014,8.17895141 89.4473099,8.98590048 89.42,9.8 C89.4067742,10.5525502 89.542723,11.3002685 89.82,12 C90.3263659,13.1063107 91.2136893,13.9936341 92.32,14.5 C93.5719723,14.9997441 94.9680277,14.9997441 96.22,14.5 C96.8088089,14.3242921 97.3313431,13.9759359 97.72,13.5 C98.163132,13.0826084 98.5051508,12.5695801 98.72,12 C98.9583012,11.2896835 99.0930185,10.5487383 99.12,9.8 C99.1505688,8.98116691 99.0144839,8.16465766 98.72,7.4 C98.5442921,6.81119111 98.1959359,6.2886569 97.72,5.9 M97.22,11.4 C97.0809171,11.7967521 96.8782753,12.168262 96.62,12.5 C96.32907,12.7887073 95.9908487,13.0254622 95.62,13.2 C94.7792672,13.49984 93.8607328,13.49984 93.02,13.2 C92.6491513,13.0254622 92.31093,12.7887073 92.02,12.5 C91.7253382,12.1935072 91.518158,11.8136767 91.42,11.4 C91.2980246,10.8750461 91.2309971,10.3388262 91.22,9.8 C91.2370764,9.19552255 91.3039697,8.59348257 91.42,8 C91.7333754,7.20324534 92.3424377,6.55835585 93.12,6.2 C93.9607328,5.90016003 94.8792672,5.90016003 95.72,6.2 C96.0908487,6.37453779 96.42907,6.61129272 96.72,6.9 C97.0146618,7.20649283 97.221842,7.58632327 97.32,8 C97.4360303,8.59348257 97.5029236,9.19552255 97.52,9.8 C97.5080747,10.3461405 97.4067319,10.8866357 97.22,11.4" id="Shape"></path>
                <path d="M83.52,6.9 C83.7633967,6.55909608 84.1163773,6.3120097 84.52,6.2 C84.933204,6.03799108 85.3772074,5.96968288 85.82,6 C86.2266495,6.01757466 86.6296316,6.08473835 87.02,6.2 C87.3079516,6.32990743 87.5770482,6.49809284 87.82,6.7 C88.0071596,6.80135259 88.2328404,6.80135259 88.42,6.7 L88.92,6.2 C89.12,6.1 89.12,5.8 88.92,5.6 C88.5247066,5.27595636 88.0874115,5.00685171 87.62,4.8 C86.3848764,4.40022714 85.0551236,4.40022714 83.82,4.8 C83.2504199,5.01484916 82.7373916,5.356868 82.32,5.8 C81.907845,6.24271261 81.5701366,6.74927511 81.32,7.3 C80.9201206,8.77334941 80.9201206,10.3266506 81.32,11.8 C81.498246,12.3636474 81.8065445,12.8774783 82.22,13.3 C82.6373916,13.743132 83.1504199,14.0851508 83.72,14.3 C84.9373068,14.8000901 86.3026932,14.8000901 87.52,14.3 C88.0064929,14.1313365 88.4501985,13.858287 88.82,13.5 C88.9195577,13.3123897 88.9195577,13.0876103 88.82,12.9 L88.32,12.5 C88.1323897,12.4004423 87.9076103,12.4004423 87.72,12.5 C87.1753594,13.005065 86.4627157,13.2901225 85.72,13.3 C85.2699526,13.296182 84.82621,13.1937799 84.42,13 C84.0632132,12.85064 83.7525887,12.6090432 83.52,12.3 C83.2253382,11.9935072 83.018158,11.6136767 82.92,11.2 C82.7983111,10.6411685 82.7313284,10.0718151 82.72,9.5 C82.7372097,8.92860333 82.8041289,8.35978944 82.92,7.8 C83.1429139,7.51592454 83.3435126,7.21502645 83.52,6.9" id="Shape"></path>
                <path d="M113.42,6.8 C113.302194,6.36392619 113.098175,5.95588924 112.82,5.6 C112.536891,5.25586628 112.15165,5.01071278 111.72,4.9 C111.209157,4.704206 110.667073,4.60256519 110.12,4.6 C109.527646,4.57775095 108.940284,4.71595367 108.42,5 C108.038536,5.28145189 107.701452,5.61853612 107.42,6 L107.42,6.1 L107.32,6.1 C107.264772,6.1 107.22,6.05522847 107.22,6 L107.22,5.9 C107.22,5.8 107.12,5.8 107.12,5.7 C106.983883,5.47640241 106.815386,5.27420691 106.62,5.1 C106.386949,4.90798328 106.113444,4.77123058 105.82,4.7 C105.066397,4.49984603 104.273603,4.49984603 103.52,4.7 C103.202872,4.79086865 102.899957,4.92549729 102.62,5.1 C102.363859,5.23217408 102.128102,5.40057154 101.92,5.6 L101.72,5.8 L101.62,5.8 C101.52,5.8 101.52,5.8 101.52,5.7 L101.52,5.1 C101.505483,4.88538645 101.334614,4.71451684 101.12,4.7 L100.62,4.7 C100.405386,4.71451684 100.234517,4.88538645 100.22,5.1 L100.22,14.1 C100.234517,14.3146136 100.405386,14.4854832 100.62,14.5 L101.22,14.5 C101.434614,14.4854832 101.605483,14.3146136 101.62,14.1 L101.62,9.4 C101.587803,8.92447355 101.655944,8.44749026 101.82,8 C101.925265,7.60841254 102.094184,7.23679161 102.32,6.9 C102.552589,6.59095678 102.863213,6.34935996 103.22,6.2 C103.630667,6.02877199 104.076856,5.96012766 104.52,6 C105.031308,5.94197814 105.532427,6.17326384 105.82,6.6 C106.109169,7.26113357 106.245878,7.97885756 106.22,8.7 L106.22,14.1 C106.234517,14.3146136 106.405386,14.4854832 106.62,14.5 L107.22,14.5 C107.434614,14.4854832 107.605483,14.3146136 107.62,14.1 L107.62,8.6 C107.588496,8.22211198 107.657495,7.8426137 107.82,7.5 C107.926277,7.20003494 108.096939,6.92697526 108.32,6.7 C108.528102,6.50057154 108.763859,6.33217408 109.02,6.2 C109.304176,6.07555352 109.609863,6.00762318 109.92,6 C110.297888,5.96849576 110.677386,6.03749545 111.02,6.2 C111.290508,6.30728798 111.530779,6.47891032 111.72,6.7 C111.919927,6.91769278 112.02749,7.2045259 112.02,7.5 C112.102476,7.7924836 112.136261,8.09654566 112.12,8.4 L112.12,14.1 C112.134517,14.3146136 112.305386,14.4854832 112.52,14.5 L113.12,14.5 C113.334614,14.4854832 113.505483,14.3146136 113.52,14.1 L113.52,8.3 C113.58662,7.79832083 113.552625,7.28839615 113.42,6.8" id="Shape"></path>
            </g>
        </g>
    </g>
</svg>