<?xml version="1.0" encoding="utf-8"?>
<!-- Generator: Adobe Illustrator 25.2.0, SVG Export Plug-In . SVG Version: 6.00 Build 0)  -->
<svg version="1.1" id="Layer_1" xmlns="http://www.w3.org/2000/svg" xmlns:xlink="http://www.w3.org/1999/xlink" x="0px" y="0px"
	 viewBox="0 0 351.95 168.48" style="enable-background:new 0 0 351.95 168.48;" xml:space="preserve">
<style type="text/css">
	.st0{fill:#184367;stroke:#184367;stroke-width:1.8;}
	.st1{fill:#FFFFFF;}
</style>
<path class="st0" d="M18.43,84.42c0,46.89,315.56,121.63,315.56,0C333.99-37.21,18.43,37.52,18.43,84.42"/>
<g>
	<path class="st1" d="M36.49,72.63h18.61v1.9H46.9v21.56h-2.23V74.53h-8.18V72.63z"/>
	<path class="st1" d="M57.64,72.63h2.07v9.43h0.06c0.76-2.04,3.02-3.42,5.42-3.42c4.77,0,6.21,2.5,6.21,6.54v10.91h-2.07V85.51
		c0-2.92-0.95-5.13-4.31-5.13c-3.29,0-5.26,2.5-5.32,5.82v9.89h-2.07V72.63z"/>
	<path class="st1" d="M76.06,86.43c0.33-3.09,2.2-6.05,5.59-6.05c3.35,0,5.29,2.92,5.39,6.05H76.06z M89.11,88.17
		c0.16-4.76-2-9.53-7.46-9.53c-5.39,0-7.66,4.5-7.66,8.97c0,4.83,2.27,8.97,7.66,8.97c4.27,0,6.51-2.23,7.39-6.08h-2.07
		c-0.66,2.56-2.3,4.34-5.32,4.34c-3.98,0-5.55-3.65-5.59-6.68H89.11z"/>
	<path class="st1" d="M111.52,90.37c0,2.37-2.56,3.22-4.21,3.22c-1.31,0-3.45-0.49-3.45-2.17c0-1.97,1.45-2.57,3.06-2.83
		c1.64-0.29,3.45-0.27,4.6-1.02V90.37z M115.27,83.57c0-3.58-3.48-4.93-6.8-4.93c-3.75,0-7.46,1.28-7.72,5.65h3.75
		c0.16-1.84,1.64-2.7,3.75-2.7c1.51,0,3.52,0.36,3.52,2.3c0,2.2-2.4,1.91-5.1,2.4c-3.15,0.36-6.54,1.05-6.54,5.29
		c0,3.32,2.76,4.96,5.82,4.96c2.01,0,4.41-0.63,5.88-2.07c0.3,1.55,1.38,2.07,2.89,2.07c0.63,0,1.81-0.23,2.37-0.43v-2.59
		c-0.39,0.06-0.69,0.06-0.92,0.06c-0.69,0-0.89-0.36-0.89-1.28V83.57z"/>
	<path class="st1" d="M117.14,79.1h4.08l4.3,13.05h0.07l4.14-13.05h3.88l-6.08,16.99h-4.21L117.14,79.1z"/>
	<path class="st1" d="M136.15,79.1h3.75v16.99h-3.75V79.1z M136.15,72.63h3.75v3.55h-3.75V72.63z"/>
	<path class="st1" d="M154.43,90.37c0,2.37-2.56,3.22-4.21,3.22c-1.32,0-3.45-0.49-3.45-2.17c0-1.97,1.45-2.57,3.06-2.83
		c1.64-0.29,3.45-0.27,4.6-1.02V90.37z M158.17,83.57c0-3.58-3.48-4.93-6.8-4.93c-3.75,0-7.46,1.28-7.73,5.65h3.75
		c0.16-1.84,1.64-2.7,3.75-2.7c1.51,0,3.52,0.36,3.52,2.3c0,2.2-2.4,1.91-5.09,2.4c-3.16,0.36-6.54,1.05-6.54,5.29
		c0,3.32,2.76,4.96,5.82,4.96c2,0,4.4-0.63,5.88-2.07c0.29,1.55,1.38,2.07,2.89,2.07c0.63,0,1.81-0.23,2.37-0.43v-2.59
		c-0.39,0.06-0.69,0.06-0.92,0.06c-0.69,0-0.89-0.36-0.89-1.28V83.57z"/>
	<path class="st1" d="M160.51,79.1h2.83v-5.09h3.75v5.09h3.38v2.8h-3.38v9.07c0,1.55,0.13,2.33,1.81,2.33c0.52,0,1.05,0,1.57-0.13
		v2.89c-0.82,0.06-1.61,0.19-2.43,0.19c-3.91,0-4.64-1.51-4.7-4.34V81.9h-2.83V79.1z"/>
	<path class="st1" d="M173.58,79.1h3.75v16.99h-3.75V79.1z M173.58,72.63h3.75v3.55h-3.75V72.63z"/>
	<path class="st1" d="M188.9,93.6c-3.36,0-4.83-3.06-4.83-6.02c0-2.93,1.48-5.98,4.83-5.98c3.35,0,4.83,3.05,4.83,5.98
		C193.74,90.54,192.26,93.6,188.9,93.6z M188.9,96.56c5.46,0,8.58-3.75,8.58-8.98c0-5.19-3.12-8.94-8.58-8.94
		c-5.46,0-8.58,3.75-8.58,8.94C180.33,92.81,183.45,96.56,188.9,96.56z"/>
	<path class="st1" d="M200.61,79.1h3.55v2.5l0.06,0.07c1.12-1.88,3.05-3.03,5.29-3.03c3.68,0,6.01,1.97,6.01,5.79v11.66h-3.75V85.41
		c-0.06-2.66-1.12-3.81-3.32-3.81c-2.5,0-4.11,1.97-4.11,4.47v10.02h-3.75V79.1z"/>
	<path class="st1" d="M235.15,80.88h-3.35v15.21h-2.07V80.88h-2.89v-1.74h2.89v-1.55c-0.03-2.92,0.79-4.96,4.11-4.96
		c0.59,0,1.09,0.03,1.74,0.13v1.77c-0.56-0.1-1.02-0.16-1.51-0.16c-2.3,0-2.23,1.45-2.27,3.29v1.48h3.35V80.88z"/>
	<path class="st1" d="M248.06,89.52c0.03,3.32-2.76,5.33-5.92,5.33c-1.94,0-3.78-1.29-3.78-3.35c0-3.32,4.37-3.29,7.89-3.91
		c0.56-0.1,1.48-0.26,1.74-0.76h0.07V89.52z M239.08,84.33c0.06-2.76,1.97-3.94,4.54-3.94c2.43,0,4.44,0.69,4.44,3.48
		c0,1.87-0.95,2.1-2.66,2.3c-4.47,0.53-9.11,0.69-9.11,5.46c0,3.42,2.56,4.96,5.69,4.96c3.26,0,4.73-1.25,6.18-3.45h0.07
		c0,1.77,0.33,2.96,2.43,2.96c0.56,0,0.89-0.03,1.35-0.13v-1.74c-0.16,0.07-0.43,0.13-0.66,0.13c-0.82,0-1.22-0.46-1.22-1.25v-9
		c0-4.54-3.25-5.46-6.24-5.46c-3.88,0-6.67,1.71-6.87,5.69H239.08z"/>
	<path class="st1" d="M266.15,84.46c-0.56-2.53-2.11-4.07-4.8-4.07c-3.98,0-5.95,3.61-5.95,7.23c0,3.61,1.97,7.23,5.95,7.23
		c2.56,0,4.67-2,4.93-4.83h2.07c-0.56,4.07-3.22,6.57-7,6.57c-5.19,0-8.02-4.11-8.02-8.97c0-4.86,2.83-8.97,8.02-8.97
		c3.62,0,6.41,1.94,6.87,5.82H266.15z"/>
	<path class="st1" d="M274.7,79.14h3.45v1.74h-3.45v11.44c0,1.35,0.2,2.14,1.68,2.23c0.59,0,1.18-0.03,1.78-0.1v1.78
		c-0.63,0-1.21,0.06-1.84,0.06c-2.76,0-3.71-0.92-3.68-3.81v-11.6h-2.96v-1.74h2.96v-5.1h2.07V79.14z"/>
	<path class="st1" d="M287.37,80.39c3.98,0,5.95,3.61,5.95,7.23c0,3.61-1.97,7.23-5.95,7.23c-3.98,0-5.95-3.62-5.95-7.23
		C281.42,84,283.4,80.39,287.37,80.39z M287.37,78.64c-5.19,0-8.02,4.11-8.02,8.97c0,4.86,2.83,8.97,8.02,8.97
		c5.19,0,8.02-4.11,8.02-8.97C295.39,82.75,292.56,78.64,287.37,78.64z"/>
	<path class="st1" d="M297.95,79.14h1.91v3.98h0.07c1.05-2.73,3.35-4.34,6.41-4.21v2.07c-3.75-0.2-6.31,2.56-6.31,6.08v9.04h-2.07
		V79.14z"/>
	<path class="st1" d="M308.71,79.14h2.2l5.59,14.46l5.23-14.46h2.07l-7.37,19.56c-1.18,2.86-1.87,3.68-4.47,3.68
		c-0.82-0.04-1.25-0.04-1.58-0.16v-1.75c0.49,0.1,0.95,0.16,1.42,0.16c1.84,0,2.27-1.08,2.96-2.66l0.72-1.94L308.71,79.14z"/>
</g>
<g>
	<path class="st1" d="M153.41,100.44h1.32l7.26,10.54h0.04v-10.54h1.19v12.46h-1.32l-7.27-10.54h-0.04v10.54h-1.18V100.44z"/>
	<path class="st1" d="M166.76,109.41c0.06,1.69,1.33,2.83,3,2.83c1.89,0,3.06-1.55,3.06-3.33c0-1.8-1.31-3.18-3.13-3.18
		c-1.08,0-2.13,0.52-2.72,1.45h-0.94l1.18-6.34h6.11v1.01h-5.34l-0.79,4.05l0.04,0.04c0.61-0.71,1.64-1.13,2.59-1.13
		c2.51,0,4.1,1.76,4.1,4.22c0,2.39-1.91,4.13-4.24,4.13c-2.27,0-3.96-1.43-4.02-3.75H166.76z"/>
	<path class="st1" d="M174.8,103.83h3.23v9.08h1.1v-12.22h-0.89c-0.33,2.25-1.52,2.29-3.44,2.36V103.83z"/>
	<path class="st1" d="M184.25,106.19c-1.45,0-2.62-1.17-2.62-2.62c-0.02-1.43,1.17-2.62,2.62-2.62c1.43,0,2.62,1.19,2.62,2.62
		C186.87,105.02,185.69,106.19,184.25,106.19z M184.24,101.65c-1.05,0-1.92,0.87-1.9,1.92c0,1.07,0.86,1.92,1.92,1.92
		c1.05,0,1.92-0.85,1.92-1.92C186.17,102.52,185.3,101.65,184.24,101.65z"/>
	<path class="st1" d="M194.48,103.04c1.92-0.07,3.11-0.1,3.44-2.36h0.89v12.22h-1.1v-9.08h-3.23V103.04z"/>
	<path class="st1" d="M201.16,103.04c1.92-0.07,3.11-0.1,3.44-2.36h0.89v12.22h-1.1v-9.08h-3.23V103.04z"/>
	<path class="st1" d="M209.98,112.9v-1.85h-1.47v1.85H209.98z"/>
	<path class="st1" d="M213.09,108.94l4.61-6.64h0.04v6.64H213.09z M212.1,109.87h5.64v3.04h1.01v-3.04h1.84v-0.93h-1.84v-8.25h-1
		l-5.65,8.12V109.87z"/>
	<path class="st1" d="M222.69,100.44h1.1v4.25h-1.1V100.44z"/>
	<path class="st1" d="M232.27,100.44h8.61v1.02h-7.41v4.5h6.95v1.01h-6.95v4.92h7.5v1.01h-8.7V100.44z"/>
	<path class="st1" d="M247.28,101.51c2.79,0,3.16,3.25,3.16,5.36c0,2.13-0.37,5.38-3.16,5.38s-3.16-3.25-3.16-5.38
		C244.12,104.76,244.49,101.51,247.28,101.51z M247.28,100.58c-3.56,0-4.26,3.44-4.26,6.3c0,2.85,0.7,6.28,4.26,6.28
		c3.56,0,4.26-3.44,4.26-6.3C251.54,104.02,250.84,100.58,247.28,100.58z"/>
	<path class="st1" d="M253.41,108.81l5.65-8.12h1v8.25h1.83v0.93h-1.83v3.04h-1.01v-3.04h-5.64V108.81z M259.05,108.94v-6.64h-0.04
		l-4.61,6.64H259.05z"/>
	<path class="st1" d="M267.92,103.57c0-1.43-1.19-2.62-2.62-2.62c-1.45,0-2.64,1.19-2.62,2.62c0,1.45,1.17,2.62,2.62,2.62
		C266.73,106.19,267.92,105.02,267.92,103.57z M267.22,103.57c0,1.07-0.88,1.92-1.92,1.92c-1.07,0-1.92-0.85-1.92-1.92
		c-0.02-1.05,0.86-1.92,1.9-1.92C266.35,101.65,267.22,102.52,267.22,103.57z"/>
	<path class="st1" d="M282.67,112.9h-8.05c0.09-3.63,3.8-4.52,5.88-6.6c0.66-0.69,1.02-1.33,1.02-2.31c0-1.58-1.26-2.49-2.74-2.49
		c-2,0-2.79,1.61-2.76,3.4h-1.1c-0.05-2.51,1.25-4.33,3.91-4.33c2.13,0,3.79,1.17,3.79,3.44c0,2.04-1.48,3.32-3.07,4.34
		c-1.18,0.8-3.37,1.89-3.66,3.53h6.79V112.9z"/>
	<path class="st1" d="M284.59,100.84h7.86v1.01c-1.52,1.59-4.66,5.36-4.94,11.05h-1.19c0.3-4.13,1.64-7.19,5.03-11.05h-6.75V100.84z
		"/>
	<path class="st1" d="M290.87,112.9v-1.85h1.47v1.85H290.87z"/>
	<path class="st1" d="M299.09,105.87c1.86,0,2.95,1.45,2.95,3.23c0,1.7-1.18,3.14-2.93,3.14c-2.13,0-3.05-1.41-3.05-3.14
		C296.05,107.3,297.17,105.87,299.09,105.87z M302.84,103.78c-0.26-2.13-1.61-3.2-3.75-3.2c-4,0-4.36,4.64-4.36,6.09
		c0,4.77,1.3,6.49,4.28,6.49c2.41,0,4.14-1.76,4.14-4.13c0-2.39-1.59-4.08-4.04-4.08c-1.38,0-2.67,0.82-3.25,2.02h-0.04
		c0-2.21,0.53-5.46,3.38-5.46c1.41,0,2.36,0.93,2.54,2.27H302.84z"/>
	<path class="st1" d="M305.97,104.69h1.1v-4.25h-1.1V104.69z"/>
</g>
</svg>
