<svg xmlns="http://www.w3.org/2000/svg" xmlns:xlink="http://www.w3.org/1999/xlink" viewBox="0 0 82.02 81"><defs><style>.cls-1{fill:none;}.cls-2{fill:#1a3b8b;}.cls-3{clip-path:url(#clip-path);}.cls-4{fill:#4f6ef7;}.cls-5{fill:#0c204e;}.cls-6{fill:#badefc;}.cls-7{fill:#fff;}.cls-8{fill:#e86c60;}.cls-9{fill:#efd358;}</style><clipPath id="clip-path" transform="translate(0.85)"><circle class="cls-1" cx="40.5" cy="40.69" r="40.5"/></clipPath></defs><g id="Layer_2" data-name="Layer 2"><g id="Layer_1-2" data-name="Layer 1"><circle class="cls-2" cx="41.52" cy="40.5" r="40.5"/><g class="cls-3"><rect class="cls-4" y="37.98" width="18" height="5"/></g><path class="cls-5" d="M44.65,34.65s-2,.88-2,1.29-.13,8-.13,8,0,.27.41.54,2.59,1.23,2.59,1.23l-.14-11Z" transform="translate(0.85)"/><path class="cls-4" d="M63.61,32.53A18.23,18.23,0,0,0,53,28a19.45,19.45,0,0,0-10.36,1.91s-.54.14-.13.95,1.36,3.41,1.36,3.41.27.14.82-.27.27,11.45.27,11.45l-.68.41a.58.58,0,0,0-.82.4c-.27.69-1.09,3.27-1.09,3.27s-.27.41.55.82a19.64,19.64,0,0,0,21.26-3.27C74.11,38.53,63.61,32.53,63.61,32.53Z" transform="translate(0.85)"/><path class="cls-6" d="M44.67,46.16c15.81,9,32.3-4.77,32.3-4.77a6.54,6.54,0,0,0,1-.82.94.94,0,0,0,0-1.23l-1.09-1c-17.17-13.08-32.16-4.63-32.16-4.63s-.55.13-.55,1V45.2A1,1,0,0,0,44.67,46.16Z" transform="translate(0.85)"/><path class="cls-4" d="M56.25,40.43s1.09-.4,0-1S47.53,38,43,39.48c0,0-1.36.55,0,1.23S53.66,41.8,56.25,40.43Z" transform="translate(0.85)"/><path class="cls-4" d="M71.57,45A36.41,36.41,0,0,0,77,41.4a6.88,6.88,0,0,0,1-.82,1,1,0,0,0,0-1.24l-1.1-1a41.16,41.16,0,0,0-5.45-3.51l0,0s-2.3,5.31.2,10.1Z" transform="translate(0.85)"/><circle class="cls-4" cx="65.08" cy="39.96" r="4.16"/><circle class="cls-7" cx="65.09" cy="40.05" r="2.97"/><path class="cls-8" d="M40.07,40.9c0,3.4-3,6.93-8.08,6.93-4.84,0-12.39-6.37-12.71-6.64a.38.38,0,0,1,0-.58C19.6,40.34,27.15,34,32,34,37.05,34,40.07,37.49,40.07,40.9Z" transform="translate(0.85)"/><path class="cls-9" d="M34.84,40.9A2.6,2.6,0,0,1,32,43.34c-.91,0-2.94-1-5.1-2.44,2.17-1.4,4.2-2.41,5.11-2.45A2.6,2.6,0,0,1,34.84,40.9Z" transform="translate(0.85)"/></g></g></svg>