<?xml version="1.0" standalone="no"?>
<!DOCTYPE svg PUBLIC "-//W3C//DTD SVG 20010904//EN"
 "http://www.w3.org/TR/2001/REC-SVG-20010904/DTD/svg10.dtd">
<svg version="1.0" xmlns="http://www.w3.org/2000/svg"
 width="2077.000000pt" height="1190.000000pt" viewBox="0 0 2077.000000 1190.000000"
 preserveAspectRatio="xMidYMid meet">

<g transform="translate(0.000000,1190.000000) scale(0.100000,-0.100000)"
fill="#000000" stroke="none">
<path d="M1460 5950 l0 -5950 2165 0 2165 0 0 5950 0 5950 -2165 0 -2165 0 0
-5950z m2001 2035 l0 -340 -53 0 -53 0 -15 224 c-15 220 -15 224 -38 232 -31
12 -226 29 -324 29 l-78 0 0 -1038 0 -1039 118 -24 117 -24 3 -67 3 -68 -431
0 -431 0 3 67 3 67 123 25 122 25 0 1040 0 1039 -162 -6 c-90 -3 -185 -12
-213 -19 l-50 -13 -16 -225 c-9 -124 -17 -226 -18 -227 0 -2 -23 -3 -51 -3
l-50 0 0 345 0 345 745 -2 746 -3 0 -340z m1429 -914 c254 -66 402 -206 472
-446 21 -73 23 -99 22 -300 0 -193 -3 -230 -22 -300 -53 -194 -164 -346 -302
-413 -115 -56 -202 -73 -422 -79 l-198 -6 0 -402 0 -403 23 -5 c12 -3 84 -15
160 -28 l138 -22 -3 -71 -3 -71 -495 0 -495 0 0 70 0 70 89 22 c48 12 99 24
112 27 l24 6 0 1094 0 1095 -52 10 c-29 6 -82 17 -118 24 l-65 13 -3 73 -3 72
528 -4 c506 -3 532 -4 613 -26z"/>
<path d="M4447 6883 c-4 -3 -7 -260 -7 -570 l0 -563 93 0 c293 0 397 154 397
585 0 296 -51 449 -172 511 -63 33 -289 60 -311 37z"/>
<path d="M6450 8775 l0 -205 45 0 c51 0 47 -10 64 164 6 55 14 103 20 109 11
11 353 29 364 18 4 -4 6 -284 5 -622 l-3 -614 -105 -15 -105 -15 -3 -37 -3
-38 375 0 376 0 0 39 0 38 -105 13 -105 13 0 620 0 619 180 -4 c104 -2 184 -8
190 -14 6 -6 15 -51 20 -100 5 -49 12 -108 15 -131 l6 -43 45 0 44 0 0 205 0
205 -660 0 -660 0 0 -205z"/>
<path d="M7930 8941 l0 -39 73 -12 c39 -6 82 -13 95 -16 l22 -4 -2 -623 -3
-622 -92 -14 -93 -14 0 -39 0 -38 361 0 360 0 -3 38 -3 37 -90 15 -90 15 -3
622 -2 623 22 5 c26 5 149 25 161 25 4 0 7 18 7 40 l0 40 -360 0 -360 0 0 -39z"/>
<path d="M8750 8775 l0 -205 45 0 c29 0 45 4 45 13 3 63 30 251 38 259 12 12
354 30 365 19 4 -4 6 -284 5 -622 l-3 -614 -105 -15 -105 -15 -3 -37 -3 -38
375 0 376 0 0 39 0 38 -105 13 -105 13 0 620 0 619 180 -4 c100 -2 184 -8 190
-14 5 -5 15 -59 20 -119 16 -163 13 -155 65 -155 l45 0 0 205 0 205 -660 0
-660 0 0 -205z"/>
<path d="M10150 8940 c0 -22 3 -40 8 -40 11 0 134 -20 160 -25 l22 -5 -2 -623
-3 -622 -92 -14 -93 -14 0 -39 0 -38 660 0 660 0 0 23 c0 12 9 107 20 212 10
104 16 193 14 197 -3 4 -25 8 -48 8 l-43 0 -45 -152 -45 -153 -34 -8 c-19 -4
-163 -11 -321 -14 l-288 -6 0 621 0 622 23 4 c23 5 184 26 199 26 4 0 8 18 8
40 l0 40 -380 0 -380 0 0 -40z"/>
<path d="M11640 8941 l0 -39 73 -12 c39 -6 79 -12 87 -13 13 -2 15 -81 18
-628 l2 -626 -90 -13 -90 -13 0 -38 0 -39 654 0 654 0 6 38 c3 20 8 110 12
200 l6 162 -49 0 -50 0 -29 -132 -30 -133 -40 -7 c-21 -4 -166 -7 -321 -7
l-283 -1 0 280 0 280 189 0 c172 0 190 -2 195 -17 3 -10 10 -46 17 -80 l12
-63 48 0 49 0 0 220 0 220 -49 0 -48 0 -12 -62 c-7 -35 -14 -71 -17 -80 -5
-16 -23 -18 -195 -18 l-189 0 0 270 0 270 228 -1 c125 -1 254 -4 286 -8 69 -7
65 -1 86 -153 l12 -88 49 0 49 0 0 185 0 185 -620 0 -620 0 0 -39z"/>
<path d="M17695 6900 c-184 -29 -310 -121 -350 -254 -20 -64 -20 -206 -1 -268
47 -158 152 -241 431 -338 211 -74 275 -112 312 -184 23 -43 21 -141 -4 -197
-40 -89 -114 -129 -253 -136 -113 -6 -186 7 -268 47 -85 43 -98 61 -121 170
-12 52 -23 105 -26 118 -5 19 -12 22 -50 22 l-45 0 0 -199 0 -200 57 -16 c173
-50 466 -70 602 -41 194 41 313 146 350 307 18 78 13 229 -9 294 -53 153 -170
238 -465 335 -176 58 -262 114 -286 188 -25 75 14 169 87 209 57 32 168 47
249 34 73 -11 182 -56 194 -80 5 -9 18 -58 31 -109 l22 -93 47 3 46 3 3 172
c2 157 1 172 -15 177 -102 31 -427 53 -538 36z"/>
<path d="M8204 6220 l-259 -680 -55 -18 c-53 -16 -55 -19 -58 -54 l-3 -38 225
0 226 0 0 39 c0 43 4 41 -115 57 -27 3 -55 9 -61 13 -7 4 12 70 55 191 l66
185 281 3 c261 2 282 1 289 -15 12 -31 66 -175 101 -271 24 -66 30 -94 21 -97
-7 -2 -45 -9 -84 -15 l-73 -12 0 -39 0 -39 680 0 680 0 0 39 0 39 -92 14 -93
14 -3 257 -2 257 90 0 90 0 205 -310 204 -310 236 0 235 0 0 39 c0 43 -1 43
-93 56 -26 4 -56 15 -66 24 -18 15 -381 516 -381 525 0 2 29 18 64 34 85 40
139 91 176 166 81 166 57 372 -57 477 -52 48 -120 81 -229 111 -75 21 -103 22
-541 26 l-463 3 0 -39 0 -40 90 -13 90 -14 3 -623 c2 -616 2 -623 -18 -627
-101 -22 -150 -25 -201 -14 -30 7 -58 17 -62 23 -5 6 -123 314 -263 683 l-254
673 -161 0 -161 0 -259 -680z m2078 517 c50 -24 61 -35 85 -85 26 -52 28 -67
28 -167 0 -129 -18 -195 -68 -243 -56 -54 -97 -65 -254 -70 l-143 -4 0 302 0
302 148 -4 c137 -3 151 -5 204 -31z m-1748 -109 c9 -24 60 -164 114 -313 l99
-270 -119 -3 c-65 -1 -171 -1 -236 0 l-119 3 116 312 c64 172 119 313 123 313
3 0 14 -19 22 -42z"/>
<path d="M6460 6851 l0 -39 100 -12 100 -13 -2 -626 -3 -625 -78 -12 c-105
-16 -107 -17 -107 -59 l0 -35 410 0 410 0 0 40 c0 22 -5 40 -11 40 -19 0 -203
21 -226 26 l-23 4 0 229 0 228 183 6 c133 4 202 11 259 26 243 63 346 202 336
455 -3 82 -9 111 -29 156 -61 129 -185 203 -399 235 -71 11 -198 15 -507 15
l-413 0 0 -39z m855 -116 c49 -24 64 -38 83 -75 61 -122 50 -351 -23 -446 -47
-61 -145 -94 -282 -94 l-63 0 0 326 0 326 113 -3 c101 -4 118 -7 172 -34z"/>
<path d="M11080 6685 l0 -205 40 0 c24 0 43 5 45 13 3 6 10 68 17 137 l13 124
37 8 c21 4 107 9 190 10 l153 3 3 -617 2 -618 -22 -4 c-13 -3 -62 -10 -110
-17 l-88 -11 0 -39 0 -39 375 0 375 0 0 39 0 39 -87 11 c-49 7 -98 14 -110 17
l-23 4 0 615 c0 339 4 616 9 619 14 9 361 -10 371 -20 5 -5 15 -68 22 -139
l13 -130 48 -3 47 -3 0 205 0 206 -660 0 -660 0 0 -205z"/>
<path d="M12452 6853 l3 -38 93 -15 92 -14 0 -623 c0 -583 -1 -622 -17 -627
-10 -2 -53 -10 -95 -17 l-78 -12 0 -38 0 -39 260 0 260 0 0 40 c0 25 -5 40
-12 41 -7 0 -49 6 -93 12 l-80 12 -3 528 c-1 291 1 526 5 524 5 -3 206 -264
448 -580 l440 -576 68 0 67 -1 0 679 0 678 90 12 90 13 0 39 0 39 -260 0 -260
0 0 -34 c0 -19 4 -37 8 -40 5 -3 50 -11 100 -17 l92 -13 0 -408 c0 -225 -4
-407 -8 -404 -5 3 -166 210 -358 461 l-349 455 -253 0 -253 0 3 -37z"/>
<path d="M14082 6853 l3 -38 93 -14 92 -14 -2 -626 -3 -625 -78 -12 c-105 -16
-107 -17 -107 -59 l0 -35 659 0 659 0 6 63 c3 34 8 126 12 205 l7 142 -47 0
c-55 0 -53 3 -86 -150 -12 -58 -29 -112 -36 -120 -12 -13 -65 -16 -324 -18
l-310 -4 0 281 0 281 189 0 c172 0 190 -2 195 -17 3 -10 10 -46 17 -80 l12
-63 48 0 49 0 0 226 0 225 -47 -3 -48 -3 -13 -60 c-26 -115 -5 -105 -217 -105
l-185 0 0 270 0 270 229 0 c125 0 255 -3 288 -6 69 -7 59 13 84 -161 l11 -83
49 0 49 0 0 185 0 185 -626 0 -625 0 3 -37z"/>
<path d="M15600 6852 l0 -39 93 -14 92 -14 3 -622 c2 -586 1 -622 -15 -627
-10 -2 -51 -10 -90 -16 l-73 -12 0 -39 0 -39 355 0 355 0 0 39 0 38 -77 12
c-43 7 -86 15 -95 17 -17 5 -18 26 -18 260 l0 254 90 0 c81 0 91 -2 106 -22 9
-13 101 -152 205 -310 l190 -288 239 0 240 0 0 35 c0 41 -12 48 -97 60 -28 3
-58 12 -66 18 -12 10 -360 489 -380 523 -4 7 22 26 67 48 138 68 203 172 213
337 14 217 -92 349 -328 411 -79 20 -110 22 -546 25 l-463 4 0 -39z m843 -99
c117 -32 152 -100 152 -289 -1 -104 -3 -116 -30 -170 -26 -51 -38 -63 -89 -89
-56 -28 -66 -30 -203 -34 l-143 -3 0 301 0 301 127 0 c88 0 145 -5 186 -17z"/>
<path d="M7270 4618 c-86 -25 -130 -90 -138 -204 l-4 -72 -39 -11 c-28 -9 -39
-17 -39 -31 0 -17 7 -20 40 -20 l40 0 0 -214 0 -214 -30 -7 c-21 -5 -30 -13
-30 -26 0 -18 9 -19 155 -19 144 0 155 1 155 19 0 13 -11 20 -42 27 l-43 9 0
210 0 210 53 3 c50 3 52 4 52 33 0 28 -1 29 -49 29 -28 0 -53 5 -56 10 -4 6
-3 47 1 91 5 62 12 87 28 106 29 33 60 24 72 -20 6 -17 17 -33 27 -35 15 -3
17 5 17 61 0 64 0 65 -31 71 -43 8 -97 6 -139 -6z"/>
<path d="M10587 4613 c-15 -14 -5 -32 23 -42 l30 -10 0 -351 0 -352 -30 -11
c-19 -7 -29 -18 -28 -27 3 -12 27 -15 136 -18 126 -2 132 -2 132 18 0 13 -9
22 -25 26 l-25 6 0 204 0 203 38 10 c54 16 68 14 99 -13 l28 -24 3 -190 3
-190 -25 -6 c-17 -4 -26 -13 -26 -26 0 -20 6 -20 132 -18 109 3 133 6 136 18
1 9 -9 20 -28 27 l-30 11 0 197 c0 218 -8 253 -61 280 -44 23 -135 18 -204
-10 -33 -14 -61 -25 -62 -25 -2 0 -3 72 -3 160 l0 160 -103 0 c-57 0 -107 -3
-110 -7z"/>
<path d="M12350 4601 c0 -14 9 -23 25 -27 l25 -6 0 -358 0 -358 -30 -7 c-21
-5 -30 -13 -30 -26 0 -18 9 -19 140 -19 133 0 140 1 140 20 0 13 -9 22 -25 26
l-25 6 -2 382 -3 381 -107 3 c-103 3 -108 2 -108 -17z"/>
<path d="M13984 4606 c-78 -34 -63 -146 22 -161 91 -17 140 107 61 156 -37 22
-42 23 -83 5z"/>
<path d="M14580 4601 c0 -14 9 -23 25 -27 25 -6 25 -7 25 -118 l0 -111 -87 4
c-98 4 -149 -8 -193 -46 -110 -93 -116 -361 -10 -457 22 -20 52 -39 67 -43 51
-14 156 -9 192 9 30 16 35 16 45 3 17 -24 209 -17 214 7 2 11 -6 18 -27 23
l-31 7 -2 381 -3 382 -107 3 c-103 3 -108 2 -108 -17z m13 -307 l37 -7 -2
-206 -3 -206 -43 -14 c-61 -19 -98 -2 -126 58 -17 38 -21 65 -21 156 0 94 3
117 23 156 31 63 58 75 135 63z"/>
<path d="M8367 4570 c-114 -29 -175 -111 -165 -220 11 -110 70 -167 234 -226
136 -49 174 -81 174 -146 0 -83 -60 -128 -168 -128 -44 0 -72 7 -113 28 -53
27 -54 28 -69 92 -13 54 -20 66 -38 68 -22 3 -23 2 -20 -105 l3 -108 55 -13
c30 -8 109 -15 175 -15 113 -2 123 0 178 26 68 34 101 77 117 154 17 77 -1
153 -48 205 -42 46 -73 63 -199 108 -115 41 -155 72 -155 121 0 20 5 47 12 59
40 74 258 61 276 -17 14 -64 21 -78 42 -81 21 -3 22 0 22 91 l0 94 -37 7 c-69
12 -237 16 -276 6z"/>
<path d="M11590 4550 c0 -14 9 -21 38 -25 20 -4 43 -8 50 -10 17 -6 18 -640 0
-651 -7 -4 -28 -10 -48 -14 -26 -4 -35 -10 -35 -25 0 -19 8 -20 198 -23 l198
-2 -3 22 c-2 16 -11 24 -28 26 -14 1 -40 5 -57 8 l-33 5 0 135 0 135 92 -3 93
-3 9 -47 c7 -42 11 -48 32 -48 l24 0 0 130 0 130 -25 0 c-20 0 -25 -6 -30 -37
-11 -65 -7 -63 -105 -63 l-90 0 0 160 0 160 99 0 c54 0 118 -3 143 -6 l45 -6
9 -67 c8 -61 11 -66 34 -66 25 0 25 1 28 103 l3 102 -321 0 c-311 0 -320 -1
-320 -20z"/>
<path d="M16210 4550 c0 -14 9 -21 38 -25 20 -4 43 -8 50 -10 9 -3 12 -78 12
-329 l0 -326 -22 -5 c-13 -2 -34 -6 -48 -7 -17 -2 -26 -10 -28 -25 l-3 -23
191 0 191 0 -3 23 c-2 15 -11 23 -28 25 -14 1 -35 5 -47 7 l-23 5 0 326 c0
251 3 326 13 329 6 2 29 6 50 10 28 4 37 11 37 25 0 19 -8 20 -190 20 -182 0
-190 -1 -190 -20z"/>
<path d="M10272 4429 c-45 -81 -52 -88 -92 -100 -28 -9 -40 -18 -40 -31 0 -14
8 -18 35 -18 l35 0 0 -190 c0 -229 6 -250 76 -282 80 -35 215 -11 222 39 3 21
0 22 -45 17 -41 -5 -51 -3 -68 16 -18 20 -20 36 -20 209 l0 186 58 3 c56 3 57
4 57 32 0 28 -1 29 -57 32 l-58 3 -3 58 -3 57 -40 0 c-34 0 -42 -4 -57 -31z"/>
<path d="M13695 4341 c-22 -10 -61 -37 -87 -60 -25 -22 -49 -41 -52 -41 -3 0
-6 23 -6 50 l0 50 -116 0 c-103 0 -115 -2 -112 -17 2 -9 18 -21 36 -25 l32 -9
0 -218 0 -219 -36 -6 c-26 -5 -34 -12 -32 -24 3 -15 22 -17 153 -20 82 -1 155
0 162 2 24 10 0 36 -38 42 l-39 7 2 166 3 166 40 19 c22 10 58 21 80 23 38 5
41 3 58 -32 29 -61 42 -40 42 66 0 93 0 94 -25 97 -14 1 -43 -6 -65 -17z"/>
<path d="M6605 4337 c-55 -22 -74 -37 -99 -80 -72 -124 -48 -349 45 -420 89
-66 244 -62 328 9 57 49 76 106 76 229 0 141 -36 218 -119 256 -48 22 -182 25
-231 6z m150 -61 c29 -30 38 -95 34 -250 -4 -97 -7 -119 -25 -143 -29 -38 -79
-39 -107 -1 -17 22 -21 47 -25 150 -5 145 8 230 41 253 30 21 54 19 82 -9z"/>
<path d="M9005 4338 c-55 -20 -87 -51 -113 -107 -22 -47 -26 -71 -26 -146 -1
-110 16 -172 61 -225 84 -98 298 -91 377 13 90 118 64 371 -44 443 -37 25 -53
28 -134 31 -50 1 -104 -2 -121 -9z m144 -57 c33 -33 43 -96 39 -238 -3 -115
-6 -136 -24 -160 -34 -46 -91 -44 -114 4 -16 33 -25 228 -15 309 11 89 68 131
114 85z"/>
<path d="M12855 4331 c-52 -24 -91 -66 -110 -120 -17 -50 -20 -206 -5 -262 26
-92 98 -148 204 -156 178 -15 276 86 276 282 0 132 -42 219 -125 256 -56 26
-185 26 -240 0z m160 -55 c30 -30 38 -81 33 -238 -3 -110 -6 -130 -24 -155
-26 -35 -73 -42 -97 -15 -40 44 -49 321 -13 390 25 48 64 55 101 18z"/>
<path d="M15070 4343 c-73 -11 -70 -8 -70 -78 0 -57 2 -65 18 -65 13 0 24 13
34 39 13 32 23 41 54 50 105 29 150 -9 142 -120 l-3 -44 -95 -6 c-157 -10
-210 -53 -210 -169 0 -75 24 -118 78 -142 65 -29 143 -19 234 30 3 1 9 -6 13
-18 6 -19 13 -21 103 -18 77 2 97 6 100 18 1 9 -9 20 -28 27 l-30 11 0 201 0
200 -30 34 c-16 18 -47 39 -68 45 -37 11 -185 14 -242 5z m178 -370 l-3 -98
-36 -9 c-79 -19 -117 20 -106 111 7 63 40 93 103 93 l45 0 -3 -97z"/>
<path d="M16993 4332 c-23 -9 -45 -20 -49 -24 -14 -14 -32 -8 -37 12 -5 18
-14 20 -106 20 -92 0 -101 -2 -101 -19 0 -12 9 -21 25 -25 l25 -6 0 -219 0
-219 -25 -6 c-16 -4 -25 -13 -25 -26 0 -19 7 -20 130 -20 120 0 130 1 130 18
0 11 -11 24 -25 30 l-25 12 0 194 c0 143 3 196 13 204 6 5 31 13 54 17 39 6
46 4 73 -23 l30 -30 0 -185 0 -185 -26 -6 c-17 -5 -24 -12 -22 -24 3 -15 20
-17 136 -20 125 -2 132 -2 132 17 0 12 -11 23 -30 30 l-30 10 0 201 c0 222 -5
247 -60 275 -38 20 -134 18 -187 -3z"/>
<path d="M17521 4324 c-87 -44 -131 -129 -131 -254 0 -128 39 -204 129 -247
47 -23 68 -28 141 -28 108 0 180 24 180 61 0 21 -3 23 -32 16 -62 -13 -161 -7
-190 12 -84 55 -85 309 -2 387 20 18 36 24 70 23 55 -1 80 -23 89 -75 6 -33
11 -39 31 -39 23 0 24 2 24 74 0 49 -4 78 -12 82 -7 5 -65 10 -128 12 -109 3
-118 2 -169 -24z"/>
<path d="M9460 4321 c0 -12 9 -21 25 -25 l25 -6 1 -193 c0 -218 7 -250 59
-285 30 -21 44 -23 100 -19 39 2 82 13 107 26 53 26 73 27 73 1 0 -19 7 -20
105 -20 98 0 105 1 105 20 0 13 -9 22 -25 26 l-25 6 0 244 0 244 -110 0 c-92
0 -110 -3 -110 -15 0 -9 11 -21 25 -27 l25 -11 0 -202 c0 -229 5 -215 -83
-215 -68 0 -71 11 -77 253 l-5 212 -107 3 c-101 2 -108 1 -108 -17z"/>
<path d="M13880 4324 c0 -8 14 -20 30 -25 l30 -11 0 -218 0 -218 -30 -7 c-21
-5 -30 -13 -30 -26 0 -18 9 -19 140 -19 131 0 140 1 140 19 0 12 -11 23 -30
30 l-30 10 0 240 0 241 -110 0 c-93 0 -110 -2 -110 -16z"/>
<path d="M15592 3954 c-16 -11 -22 -25 -22 -54 0 -34 6 -44 40 -71 22 -18 40
-40 40 -50 0 -25 -57 -88 -86 -95 -18 -5 -24 -13 -24 -35 l0 -28 43 15 c122
43 201 150 183 247 -14 73 -114 114 -174 71z"/>
<path d="M17986 3939 c-15 -17 -26 -43 -26 -59 0 -16 11 -42 26 -59 21 -26 33
-31 69 -31 36 0 48 5 69 31 56 66 16 148 -71 149 -34 0 -46 -5 -67 -31z"/>
</g>
</svg>
