<?xml version="1.0" standalone="no"?>
<!DOCTYPE svg PUBLIC "-//W3C//DTD SVG 20010904//EN"
 "http://www.w3.org/TR/2001/REC-SVG-20010904/DTD/svg10.dtd">
<svg version="1.0" xmlns="http://www.w3.org/2000/svg"
 width="654.000000pt" height="48.000000pt" viewBox="0 0 654.000000 48.000000"
 preserveAspectRatio="xMidYMid meet">

<g transform="translate(0.000000,48.000000) scale(0.100000,-0.100000)"
fill="#000000" stroke="none">
<path d="M4745 472 c-110 -10 -200 -58 -243 -131 -22 -37 -27 -58 -26 -106 1
-95 45 -157 144 -204 48 -23 68 -26 160 -26 87 0 113 4 152 22 54 25 118 73
118 89 0 6 -18 20 -40 33 l-40 22 -33 -25 c-97 -74 -238 -75 -314 -4 -71 67
-34 196 65 229 79 26 211 0 257 -51 13 -14 23 -17 38 -10 12 4 35 13 51 19
l29 12 -38 39 c-61 62 -179 101 -280 92z"/>
<path d="M7 423 c1 -21 2 -41 2 -45 1 -5 48 -8 106 -8 l105 0 0 -180 0 -180
55 0 55 0 0 180 0 180 105 0 105 0 0 45 0 45 -267 0 -268 0 2 -37z"/>
<path d="M760 235 l0 -225 55 0 55 0 0 80 0 81 102 -3 103 -3 53 -77 53 -78
60 0 c32 0 59 2 59 5 0 3 -22 39 -50 80 -27 41 -50 76 -50 79 0 3 13 12 30 21
43 22 63 67 58 132 -3 38 -11 61 -29 79 -45 49 -72 54 -294 54 l-205 0 0 -225z
m401 125 c23 -13 26 -62 3 -84 -12 -13 -41 -16 -155 -16 l-139 0 0 55 0 55
136 0 c74 0 144 -5 155 -10z"/>
<path d="M1533 291 c2 -199 6 -207 101 -255 110 -56 297 -45 385 21 53 41 61
73 61 248 l0 155 -57 0 -58 0 3 -87 c1 -49 -1 -121 -5 -162 -7 -64 -12 -77
-35 -94 -34 -25 -158 -35 -212 -17 -61 20 -67 39 -69 207 l-2 148 -57 3 -58 3
3 -170z"/>
<path d="M2354 447 c-2 -7 -3 -107 -2 -222 l3 -210 253 -3 252 -2 0 45 0 45
-195 0 -195 0 0 45 0 44 128 3 127 3 0 45 0 45 -127 3 -128 3 0 39 0 40 185 0
185 0 0 45 0 45 -240 0 c-186 0 -242 -3 -246 -13z"/>
<path d="M3130 235 l0 -225 55 0 54 0 3 91 3 91 125 2 125 1 3 43 3 42 -130 0
-131 0 0 45 0 45 185 0 c169 0 185 1 186 18 0 9 2 29 3 45 l2 27 -243 0 -243
0 0 -225z"/>
<path d="M3826 242 c-64 -120 -116 -222 -116 -225 0 -4 24 -7 53 -7 53 0 53 0
79 47 l25 48 141 3 141 3 28 -51 28 -50 53 0 c28 0 52 3 52 6 0 4 -52 105
-116 225 l-115 219 -69 0 -69 0 -115 -218z m233 38 c22 -41 41 -79 41 -83 0
-4 -40 -6 -90 -5 -49 2 -90 5 -90 8 -1 15 86 168 92 162 3 -4 25 -41 47 -82z"/>
<path d="M5310 235 l0 -225 250 0 250 0 0 45 0 45 -195 0 -195 0 0 48 0 47
130 -3 130 -3 0 45 0 46 -130 0 -130 0 0 45 0 45 185 0 c102 0 185 3 186 8 1
4 2 24 3 45 l1 37 -242 0 -243 0 0 -225z"/>
<path d="M6000 415 l0 -45 105 0 105 0 0 -180 0 -180 55 0 55 0 0 180 0 179
107 3 108 3 1 43 0 42 -268 0 -268 0 0 -45z"/>
</g>
</svg>
