<svg xmlns="http://www.w3.org/2000/svg" viewBox="0 0 2558.57 1578.69"><defs><style>.cls-1{fill:#6441a5;}.cls-2{fill:#fefefe;}.cls-3{fill:#6441a4;}</style></defs><g id="Layer_2" data-name="Layer 2"><g id="Layer_1-2" data-name="Layer 1"><path class="cls-1" d="M0,730.45c2.15.1,4.31.29,6.46.29q132.93,0,265.86,0a11.7,11.7,0,0,1,9.17,3.72q62.06,62.31,124.24,124.48a11.12,11.12,0,0,0,8.71,3.54q294.09-.12,588.18.06c5.15,0,6.2-1.34,6.17-6.27-.21-39.8,0-79.6-.22-119.4,0-4.64.88-6.18,5.9-6.18q242.87.21,485.73,0c4.64,0,5.81,1.27,5.79,5.82-.18,39.8,0,79.6-.21,119.4,0,5,.9,6.67,6.36,6.63,39.81-.27,79.62,0,119.43-.27,5,0,5.91,1.41,5.86,6.06-.26,22-.12,43.93-.12,66,2.35-.08,3.17-2,4.36-3.16q32.58-32.43,65-65a12.12,12.12,0,0,1,9.57-3.88c45.31.15,90.62.07,135.92.17a10.06,10.06,0,0,0,7.82-3.28q62.26-62.43,124.63-124.79a11.18,11.18,0,0,1,8.68-3.69q133.44.17,266.86,0c4.95,0,5.94,1.38,5.92,6.08-.2,40,0,79.94-.24,119.9,0,5,1.42,5.87,6.07,5.86,49.81-.18,99.61-.08,149.42-.18a11.65,11.65,0,0,1,9.18,3.66q62.05,62.31,124.37,124.36a11.18,11.18,0,0,1,3.67,8.71q-.14,214.07,0,428.14c0,3.81-1.19,6-4.33,8q-105.61,70.21-211,140.65a15.1,15.1,0,0,1-8.79,2.78q-68.21-.15-136.42,0c-4.3,0-5.16-1.3-5.12-5.32.19-22.29.09-44.57.09-66.94-2.32-.14-3.48,1.49-4.88,2.49q-46.76,33.33-93.43,66.78a14.67,14.67,0,0,1-9.18,3q-60.46-.15-120.94,0c-4.22,0-5.65-.76-5.59-5.38.3-20.64.13-41.29.13-61.94v-5.7c-2,1.9-3.33,3.07-4.58,4.31q-32.68,32.67-65.32,65.41a10.05,10.05,0,0,1-7.83,3.27q-112.2-.14-224.38,0a10.64,10.64,0,0,1-8.26-3.5q-32.57-32.79-65.35-65.38c-1.25-1.25-2.22-2.9-4.57-3.61-2.5,12.41-5,24.71-7.46,37-2.09,10.43-4.24,20.85-6.13,31.32-.59,3.3-2.07,4.15-5.31,4.15q-98.2-.15-196.4,0a9.37,9.37,0,0,1-6.65-2.6q-38.33-33.6-76.76-67c-1.11-1-2.26-1.89-4-3.39-.5,6.72-1,12.76-1.39,18.81-1.07,16.45-2.31,32.88-3,49.34-.19,4.54-2,4.91-5.69,4.9q-110.45-.14-220.88,0c-4.8,0-6.1-1.54-6.55-6-2.22-22-4.78-44-7.27-66.36-2.5,1.07-3.63,3.18-5.06,4.84q-27.87,32.37-55.62,64.84a7,7,0,0,1-6,2.64q-173.65-.07-347.31,0a17.74,17.74,0,0,1-6.74-1.54c-21.6-8.67-43.24-17.23-64.79-26-3.88-1.58-5.19-1.31-5,3.25.33,6.65-.12,13.33.17,20,.15,3.62-1.16,4.4-4.55,4.38-22.49-.14-45-.08-67.46-.08q-56.72,0-113.44,0a14.66,14.66,0,0,1-8-2.16q-106.1-63.77-212.27-127.37a36.2,36.2,0,0,1-7-5.52q-62-62-124-124C2.84,1318.3,1.38,1317.2,0,1316Z"/><path class="cls-1" d="M2193,0q0,201.84.07,403.69a12.21,12.21,0,0,1-4,9.54q-113.39,113.1-226.54,226.42a11.09,11.09,0,0,1-8.7,3.64c-35.32-.13-70.63,0-105.95-.18a13.26,13.26,0,0,0-10.39,4.41c-21.55,21.79-43.34,43.35-64.9,65.13a11.55,11.55,0,0,1-9.16,3.71c-20.65-.16-41.31-.2-62,0-4.26,0-5.66-.85-5.61-5.42.28-20.64,0-41.3.25-62,.08-5-1.49-5.94-6.16-5.92-40.14.19-80.29,0-120.44.2-4,0-5.34-.81-5.33-5.1q.16-259.05.19-518.09c0-10,4.1-19.46,6.46-29.12,7.28-29.7,14.81-59.34,22.23-89a11.76,11.76,0,0,0,.18-2Z"/><path class="cls-2" d="M658,1388.58q-121.18,0-242.37.12c-5,0-6.37-1.07-6.37-6.25q.24-227.57.13-455.13c0-6.39,0-6.39,6.46-6.39q73.47,0,146.92,0c8.29,0,7.28-1,7.28,7q0,146.63,0,293.26c0,7.55-.57,6.57,6.78,6.58,15.49,0,31-.18,46.48.14,4.55.09,5.4-1.31,5.4-5.58q-.19-147.37-.08-294.76c0-7.59-1.12-6.68,6.52-6.69,49.64,0,99.28,0,148.92-.11,4.37,0,5.52,1.07,5.51,5.49q-.2,147.39-.08,294.77c0,7.66-1,6.72,6.49,6.74,15.32.05,30.65-.21,46,.14,5,.12,5.92-1.48,5.91-6.14q-.21-147.13-.11-294.27c0-6.63,0-6.63,6.73-6.63q74.46,0,148.93-.09c4.09,0,5.28,1,5.28,5.18q-.18,178.11,0,356.21a9,9,0,0,1-2.88,7q-48.14,48-96.08,96.12a10.66,10.66,0,0,1-8.34,3.32Q779.72,1388.53,658,1388.58Z"/><path class="cls-2" d="M2046.81,1088.67q0-146.63-.12-293.24c0-5,1.21-6.25,6.24-6.23q74.71.31,149.41,0c4.53,0,5.44,1.26,5.42,5.56-.16,40,0,79.93-.21,119.89,0,4.89,1,6.41,6.2,6.39,59.63-.21,119.26-.1,178.89-.2a11.15,11.15,0,0,1,8.75,3.55q47.4,47.63,95.07,95a11.12,11.12,0,0,1,3.51,8.73q-.13,177.34,0,354.69c0,4.34-.79,5.9-5.61,5.88q-75-.3-149.91,0c-4.36,0-5.56-1-5.55-5.51q.21-147.87.21-295.74c0-4.75-1.05-6.09-6-6.07q-60,.33-119.93,0c-4.77,0-5.68,1.46-5.68,5.87q.18,147.38.09,294.74c0,6.6,0,6.6-6.79,6.6-49.47,0-98.94-.06-148.41.11-4.62,0-5.76-1.23-5.75-5.78Q2046.9,1235.79,2046.81,1088.67Z"/><path class="cls-2" d="M1286.45,1038q0-121.4-.12-242.79c0-4.87,1.23-6,6-5.95q75,.28,149.92,0c4.16,0,5.2,1,5.18,5.19-.16,40.46,0,80.92-.19,121.39,0,4.14,1,5.23,5.22,5.22,40.31-.17,80.62,0,120.93-.21,4.7,0,5.74,1.36,5.73,5.85q-.24,74.69,0,149.38c0,4.38-1.07,5.56-5.51,5.54-40.31-.18-80.62,0-120.93-.22-4.46,0-5.47,1.16-5.45,5.52q.26,68,0,135.89c0,4.21,1.19,5.17,5.28,5.16,40.31-.16,80.62,0,120.93-.21,4.75,0,5.67,1.45,5.66,5.86q-.22,74.7,0,149.38c0,4.76-1.45,5.71-5.89,5.7q-89.68-.2-179.39,0a11.21,11.21,0,0,1-8.7-3.74q-47.6-47.79-95.4-95.37a10.57,10.57,0,0,1-3.36-8.3Q1286.51,1159.6,1286.45,1038Z"/><path class="cls-2" d="M58.57,1038q0-121.39-.11-242.78c0-4.77,1.09-6,6-6q74.7.3,149.41,0c4.4,0,5.5,1.07,5.48,5.48-.18,40-.11,79.92-.11,119.89,0,6.33,0,6.34,6.56,6.34,40,0,79.95.06,119.92-.1,4.08,0,5.29.91,5.28,5.16q-.24,75.18,0,150.37c0,4.13-1,5.24-5.19,5.22-40.31-.16-80.62,0-120.92-.21-4.72,0-5.75,1.4-5.73,5.88q.22,67.44,0,134.88c0,4.53,1.11,5.85,5.77,5.82,40.31-.19,80.61,0,120.92-.21,4.23,0,5.17,1.15,5.16,5.25q-.22,75.18,0,150.36c0,4-.8,5.34-5.11,5.33q-90.19-.21-180.38,0a10.08,10.08,0,0,1-7.84-3.32q-47.78-48-95.75-95.72a10.62,10.62,0,0,1-3.35-8.31Q58.63,1159.65,58.57,1038Z"/><path class="cls-2" d="M1637.32,1154.35q0-63-.07-125.9a11.07,11.07,0,0,1,3.49-8.76q47.85-47.54,95.45-95.35a10.62,10.62,0,0,1,8.27-3.48q119.19.14,238.38,0c4.47,0,5.46,1.2,5.45,5.54q-.24,74.94,0,149.88c0,4.67-1.5,5.34-5.63,5.33-59.64-.12-119.28,0-178.92-.2-4.64,0-5.71,1.27-5.69,5.78q.26,67.69,0,135.39c0,4.55,1.3,5.41,5.57,5.4,59.64-.14,119.27,0,178.91-.2,4.49,0,5.79,1,5.77,5.69q-.27,74.7,0,149.39c0,4.34-.79,5.89-5.62,5.88q-118.94-.26-237.88,0a10.66,10.66,0,0,1-8.32-3.39q-47.78-48-95.76-95.74a10.58,10.58,0,0,1-3.46-8.27Q1637.42,1217.8,1637.32,1154.35Z"/><path class="cls-2" d="M1067.32,1154.61q0-113.91-.12-227.81c0-4.87,1.26-6,6-6q74.71.29,149.42,0c4.35,0,5.58,1,5.58,5.5q-.2,228.3,0,456.62c0,4.72-1.39,5.74-5.87,5.73q-74.7-.23-149.41,0c-4.62,0-5.75-1.23-5.74-5.78Q1067.43,1268.76,1067.32,1154.61Z"/><path class="cls-2" d="M1147.43,862.35c-25.16,0-50.31-.07-75.47.09-3.66,0-4.77-.82-4.73-4.64q.29-32,0-63.95c0-3.88,1.19-4.61,4.79-4.6q75.72.18,151.43,0c3.66,0,4.82.81,4.79,4.65q-.3,32,0,64c0,3.95-1.29,4.6-4.85,4.58C1198.07,862.28,1172.75,862.35,1147.43,862.35Z"/><path class="cls-2" d="M1783.5,569.87v-6.11c0-25.48-.08-51,.08-76.43,0-3.89-1-5-5-5-40.3.15-80.6,0-120.91.2-4.63,0-5.72-1.24-5.72-5.77q.19-206.29,0-412.58c0-4.68,1.34-5.69,5.8-5.68q235.32.16,470.65,0c4.77,0,6.1,1.11,6.09,6q-.22,155.34-.05,310.69a10.65,10.65,0,0,1-3.39,8.3q-48,47.75-95.74,95.72a10.62,10.62,0,0,1-8.35,3.29c-50.13-.09-100.26,0-150.39-.13a11.68,11.68,0,0,0-9.17,3.72q-39.42,39.7-79.08,79.17C1787.07,566.5,1785.74,567.73,1783.5,569.87Z"/><path class="cls-3" d="M1812.93,262.8c0-27.47.09-54.94-.09-82.41,0-4.19,1.19-5.26,5.3-5.2,16.32.23,32.64.17,49,0,3.26,0,4.2.92,4.2,4.22q-.15,83.66,0,167.32c0,3.4-1.13,4.09-4.25,4.07-16.32-.14-32.65-.21-49,0-4.1.06-5.29-.91-5.26-5.15C1813,318.08,1812.93,290.44,1812.93,262.8Z"/><path class="cls-3" d="M1973.74,262.8c0-27.31.12-54.62-.12-81.93,0-4.76,1.45-5.75,5.89-5.68,16.15.25,32.31.18,48.46,0,3.27,0,4.19.92,4.18,4.22q-.15,83.67,0,167.34c0,3.43-1.16,4.07-4.27,4.05-16.32-.14-32.64-.21-49,0-4.07.06-5.33-.87-5.3-5.14C1973.84,318.08,1973.74,290.44,1973.74,262.8Z"/></g></g></svg>