<svg xmlns="http://www.w3.org/2000/svg" viewBox="0 0 231.64 77.21"><defs><style>.cls-1{fill:#fff;}.cls-2{fill:#9146ff;}</style></defs><g id="Layer_2" data-name="Layer 2"><g id="Layer_1-2" data-name="Layer 1"><g id="Layer_2-2" data-name="Layer 2"><g id="Layer_1-2-2" data-name="Layer 1-2"><polygon class="cls-1" points="34.54 34.55 20.32 34.55 20.32 38.61 34.54 38.61 34.54 54.87 12.19 54.87 4.06 46.74 4.06 4.06 20.32 4.06 20.32 18.29 34.54 18.29 34.54 34.55"/><polygon class="cls-1" points="95.5 54.87 46.73 54.87 38.61 46.74 38.61 18.29 54.86 18.29 54.86 38.61 58.93 38.61 58.93 18.29 75.18 18.29 75.18 38.61 79.25 38.61 79.25 18.29 95.5 18.29 95.5 54.87"/><rect class="cls-1" x="99.57" y="18.29" width="16.26" height="36.58"/><rect class="cls-1" x="99.57" y="4.06" width="16.26" height="10.16"/><polygon class="cls-1" points="150.37 34.55 136.14 34.55 136.14 38.61 150.37 38.61 150.37 54.87 128.01 54.87 119.89 46.74 119.89 4.06 136.14 4.06 136.14 18.29 150.37 18.29 150.37 34.55"/><polygon class="cls-1" points="186.94 34.55 170.69 34.55 170.69 38.61 186.94 38.61 186.94 54.87 162.56 54.87 154.43 46.74 154.43 26.42 162.56 18.29 186.94 18.29 186.94 34.55"/><polygon class="cls-1" points="227.58 54.87 211.32 54.87 211.32 34.55 207.26 34.55 207.26 54.87 191 54.87 191 4.06 207.26 4.06 207.26 18.29 219.45 18.29 227.58 26.42 227.58 54.87"/><path class="cls-2" d="M221.48,14.22H211.32V0H189L178.76,14.22H160.53l-6.1,6.1v-6.1H140.21V0H95.5V14.22H32.61L22.35,0H0V48.77L28.45,77.21H56.9V69.09L65,77.21h54.87V69.09L128,77.21h26.42V69.09l8.13,8.12h50.8l18.28-18.28V24.38ZM34.54,34.54H20.32v4.07H34.54V54.86H12.19L4.06,46.74V4.06H20.32V18.29H34.54Zm61,20.32H46.74l-8.13-8.12V18.29H54.86V38.61h4.07V18.29H75.18V38.61h4.07V18.29H95.5Zm20.32,0H99.57V18.29h16.25Zm0-40.64H99.57V4.06h16.25Zm34.55,20.32H136.14v4.07h14.23V54.86H128l-8.12-8.12V4.06h16.25V18.29h14.23Zm36.57,0H170.69v4.07h16.25V54.86H162.56l-8.13-8.12V26.42l8.13-8.13h24.38Zm40.64,20.32H211.32V34.54h-4.06V54.86H191V4.06h16.26V18.29h12.19l8.13,8.13Z"/></g></g></g></g></svg>