<?xml version="1.0" standalone="no"?>
<!DOCTYPE svg PUBLIC "-//W3C//DTD SVG 20010904//EN"
 "http://www.w3.org/TR/2001/REC-SVG-20010904/DTD/svg10.dtd">
<svg version="1.0" xmlns="http://www.w3.org/2000/svg"
 width="900.000000pt" height="360.000000pt" viewBox="0 0 900.000000 360.000000"
 preserveAspectRatio="xMidYMid meet">

<g transform="translate(0.000000,360.000000) scale(0.100000,-0.100000)"
fill="#000000" stroke="none">
<path d="M3776 3194 c-12 -12 -16 -38 -16 -114 0 -132 -2 -130 154 -130 81 0
126 4 134 12 16 16 16 220 0 236 -8 8 -53 12 -134 12 -98 0 -126 -3 -138 -16z"/>
<path d="M4325 3186 c-23 -35 -18 -762 5 -776 8 -5 72 -10 142 -10 116 0 128
2 138 19 6 13 10 153 10 389 0 345 -1 370 -18 385 -15 14 -41 17 -140 17 -117
0 -122 -1 -137 -24z"/>
<path d="M4887 3192 c-13 -15 -17 -39 -17 -114 0 -128 0 -128 158 -128 150 0
152 2 152 130 0 128 -2 130 -154 130 -106 0 -125 -2 -139 -18z"/>
<path d="M3530 2876 c-198 -55 -330 -226 -330 -426 0 -79 28 -178 65 -232 14
-20 25 -40 25 -43 0 -3 -11 -22 -24 -43 -94 -144 -85 -356 22 -497 47 -62 118
-116 191 -147 54 -22 67 -23 409 -26 l352 -3 0 155 0 156 -315 0 c-350 0 -369
3 -405 62 -56 92 13 198 129 198 l41 0 0 145 0 145 -41 0 c-23 0 -57 8 -76 17
-92 43 -97 170 -10 223 30 19 52 20 355 20 l322 0 0 155 0 155 -332 -1 c-234
-1 -346 -5 -378 -13z"/>
<path d="M4690 2735 l0 -155 320 0 c348 0 356 -1 399 -56 14 -18 21 -41 21
-71 0 -80 -60 -133 -150 -133 l-40 0 0 -145 0 -145 40 0 c90 0 150 -53 150
-133 0 -30 -7 -53 -21 -71 -43 -55 -51 -56 -399 -56 l-320 0 0 -155 0 -155
328 0 c346 0 394 5 481 49 72 37 148 117 188 198 32 65 37 86 41 163 5 102
-18 198 -64 265 -21 31 -24 42 -15 55 6 8 26 44 44 80 30 62 32 71 32 180 0
109 -2 119 -32 183 -57 120 -176 217 -304 246 -25 6 -187 11 -371 11 l-328 0
0 -155z"/>
<path d="M3776 2494 c-14 -13 -16 -57 -16 -323 0 -225 3 -310 12 -319 17 -17
259 -17 276 0 17 17 17 629 0 646 -8 8 -53 12 -134 12 -98 0 -126 -3 -138 -16z"/>
<path d="M4881 2496 c-8 -9 -11 -105 -9 -332 l3 -319 134 -3 c90 -2 138 1 147
9 11 9 14 69 14 320 0 266 -2 310 -16 323 -21 22 -255 23 -273 2z"/>
<path d="M4147 2312 c-14 -15 -17 -40 -17 -131 0 -62 5 -121 10 -132 10 -18
25 -19 330 -19 305 0 320 1 330 19 5 11 10 71 10 134 0 98 -3 116 -18 130 -16
15 -54 17 -324 17 -283 0 -306 -1 -321 -18z"/>
<path d="M4326 1928 c-24 -34 -24 -732 0 -766 14 -21 22 -22 139 -22 99 0 127
3 139 16 14 13 16 63 16 389 0 326 -2 376 -16 389 -12 13 -40 16 -139 16 -117
0 -125 -1 -139 -22z"/>
<path d="M3772 1388 c-8 -8 -12 -48 -12 -114 0 -136 -2 -134 146 -134 64 0
124 5 135 10 17 10 19 22 19 118 0 71 -4 112 -12 120 -8 8 -53 12 -138 12 -85
0 -130 -4 -138 -12z"/>
<path d="M4886 1384 c-23 -22 -23 -190 0 -222 14 -21 22 -22 139 -22 153 0
155 1 155 130 0 129 -2 130 -155 130 -99 0 -127 -3 -139 -16z"/>
<path d="M3239 786 c-98 -26 -149 -95 -149 -202 0 -120 75 -189 205 -189 44 0
88 7 118 18 l47 19 0 56 c0 60 6 75 30 85 8 3 -21 6 -65 6 -71 1 -77 -1 -55
-12 22 -11 25 -20 28 -69 3 -50 0 -58 -24 -77 -36 -29 -101 -28 -144 2 -50 34
-75 90 -74 167 1 108 48 174 139 198 28 7 33 10 15 10 -14 0 -46 -5 -71 -12z"/>
<path d="M486 778 c28 -13 34 -45 34 -183 0 -144 -6 -172 -39 -190 -24 -13
-17 -14 84 -14 142 0 193 10 222 44 25 28 31 82 12 117 -6 11 -27 27 -47 35
l-36 15 27 14 c74 39 60 131 -26 163 -38 15 -260 14 -231 -1z m215 -27 c64
-64 15 -151 -86 -151 l-35 0 0 90 0 90 46 0 c37 0 51 -5 75 -29z m-8 -172 c59
-30 74 -97 33 -142 -28 -30 -87 -44 -122 -28 -23 10 -24 15 -24 96 l0 85 46 0
c25 0 55 -5 67 -11z"/>
<path d="M1095 771 c-164 -76 -149 -312 24 -370 52 -17 101 -13 158 13 69 33
105 86 111 166 9 122 -72 210 -192 210 -38 0 -76 -8 -101 -19z m160 -13 c91
-71 85 -281 -9 -339 -98 -60 -196 25 -196 171 0 116 53 190 135 190 28 0 51
-7 70 -22z"/>
<path d="M1525 742 c-4 -24 -4 -46 -1 -50 3 -3 6 0 6 6 0 6 12 24 26 41 23 28
32 31 80 31 l54 0 0 -175 0 -174 -27 -15 c-27 -14 -23 -15 62 -15 83 0 88 1
64 14 -34 18 -39 46 -39 199 0 166 0 166 65 166 50 0 56 -3 84 -37 32 -38 37
-34 25 23 l-5 29 -194 0 -193 0 -7 -43z"/>
<path d="M2050 769 c0 -9 -3 -32 -6 -50 -5 -30 -4 -32 7 -14 32 54 51 65 111
65 l58 0 0 -92 c0 -51 -3 -130 -7 -176 -5 -76 -8 -84 -32 -97 -24 -13 -19 -14
64 -14 85 0 89 1 63 15 l-28 15 0 174 0 175 54 0 c51 0 57 -3 85 -37 32 -38
37 -34 25 23 l-5 29 -195 0 c-172 0 -194 -2 -194 -16z"/>
<path d="M2610 777 c25 -12 25 -14 28 -167 3 -177 1 -193 -30 -208 -18 -8 16
-10 146 -9 l170 2 6 25 c24 91 25 89 -14 43 -20 -23 -52 -47 -72 -53 -36 -12
-118 -9 -132 5 -4 4 -9 45 -11 91 l-3 84 37 0 c48 0 74 -15 90 -53 13 -30 14
-27 13 58 0 50 -3 80 -5 69 -6 -34 -38 -56 -88 -61 l-45 -6 0 92 0 91 54 0
c68 0 102 -12 144 -53 l33 -32 -18 48 -17 47 -156 0 c-131 0 -151 -2 -130 -13z"/>
<path d="M3373 773 c28 -11 46 -29 67 -67 l30 -51 0 64 c0 54 -2 62 -14 52
-11 -10 -21 -9 -45 3 -16 9 -40 16 -53 15 -18 0 -15 -3 15 -16z"/>
<path d="M3822 767 c-12 -13 -22 -27 -22 -31 0 -11 -110 -267 -128 -298 -8
-14 -25 -31 -36 -37 -17 -7 -7 -10 44 -10 59 -1 63 0 40 12 -29 15 -29 33 -1
101 l21 47 72 -3 72 -3 20 -62 c20 -62 20 -63 0 -78 -17 -13 -12 -14 61 -15
75 0 78 1 57 16 -29 20 -48 59 -113 236 -30 81 -57 148 -60 148 -3 0 -15 -10
-27 -23z m48 -199 c0 -5 -29 -8 -64 -8 l-65 0 26 63 c45 110 42 109 74 26 16
-41 29 -77 29 -81z"/>
<path d="M4573 770 c-41 -25 -58 -79 -39 -125 17 -39 44 -60 111 -81 27 -9 60
-26 73 -37 49 -45 9 -127 -63 -127 -48 0 -70 13 -105 62 l-30 41 0 -50 c0 -46
2 -51 23 -51 12 0 47 -3 78 -7 106 -14 169 28 169 112 0 58 -26 83 -113 112
-77 26 -112 60 -102 101 8 31 23 50 50 60 20 9 20 9 0 9 -11 1 -34 -8 -52 -19z"/>
<path d="M4696 775 c17 -9 40 -33 52 -53 l22 -37 0 45 c0 36 -4 46 -17 47 -10
1 -34 5 -53 8 l-35 6 31 -16z"/>
<path d="M4980 777 c25 -12 25 -14 28 -167 3 -177 1 -193 -30 -208 -18 -8 16
-10 146 -9 l169 2 13 45 c19 63 17 69 -10 31 -41 -55 -64 -66 -138 -66 -36 0
-70 3 -74 8 -4 4 -10 45 -12 92 l-5 85 37 0 c49 0 75 -15 91 -53 14 -30 14
-28 14 53 0 58 -3 78 -9 64 -13 -33 -50 -54 -92 -54 l-38 0 0 74 c0 103 2 106
67 106 61 0 83 -9 132 -54 26 -24 32 -26 26 -11 -4 11 -12 32 -17 48 l-10 27
-156 0 c-133 0 -153 -2 -132 -13z"/>
<path d="M5480 779 c13 -6 28 -15 32 -22 10 -15 9 -296 -1 -321 -4 -10 -18
-24 -32 -32 -22 -12 -18 -13 46 -13 68 0 69 0 43 15 -36 19 -39 35 -36 197 l3
138 150 -175 c82 -96 153 -172 158 -169 5 3 5 23 2 46 -6 33 -32 68 -139 193
l-131 154 -60 -1 c-50 0 -56 -2 -35 -10z"/>
<path d="M5793 778 c30 -11 34 -21 46 -118 l8 -65 2 75 c1 84 6 95 41 109 20
8 9 10 -50 10 -62 -1 -70 -2 -47 -11z"/>
<path d="M6225 770 c-17 -18 -47 -86 -118 -259 -12 -30 -36 -69 -53 -87 l-31
-34 54 0 55 0 -23 19 -23 19 25 58 25 59 71 3 71 3 21 -56 c26 -70 26 -79 -1
-93 -19 -9 -7 -11 60 -11 l82 -1 -30 28 c-22 20 -45 68 -90 192 -34 91 -65
168 -69 173 -4 4 -16 -2 -26 -13z m19 -130 c16 -39 26 -73 23 -76 -2 -3 -32
-4 -65 -2 l-60 3 32 77 c17 42 34 75 37 73 3 -2 18 -36 33 -75z"/>
<path d="M6546 765 c-3 -11 -6 -31 -6 -44 0 -23 0 -23 22 5 32 41 37 44 96 44
l52 0 0 -168 c0 -178 -2 -187 -50 -205 -8 -3 28 -5 80 -6 72 0 89 3 70 10 -13
6 -28 15 -32 22 -4 7 -8 87 -8 180 l0 167 60 0 c59 0 60 -1 91 -42 l32 -43 -7
34 c-3 18 -6 41 -6 50 0 14 -22 16 -194 16 -187 0 -195 -1 -200 -20z"/>
<path d="M7181 768 c-64 -31 -101 -94 -101 -170 0 -73 17 -114 63 -155 79 -69
195 -69 273 -1 42 37 61 72 70 125 13 81 -40 179 -113 209 -50 21 -141 18
-192 -8z m182 -21 c78 -78 76 -230 -3 -309 -31 -32 -45 -38 -78 -38 -51 0
-105 43 -123 98 -17 51 -15 149 4 195 26 60 62 87 118 87 41 0 53 -5 82 -33z"/>
<path d="M7660 783 c35 -13 40 -35 40 -186 0 -155 -6 -182 -43 -197 -15 -6 8
-9 73 -9 90 0 93 0 63 14 l-33 14 0 81 c0 64 3 80 15 80 24 0 80 -56 125 -125
l42 -65 57 0 56 0 -31 20 c-17 11 -56 56 -87 99 -55 79 -55 79 -31 85 26 7 64
59 64 89 0 34 -31 79 -65 93 -23 9 -71 14 -147 13 -62 0 -106 -3 -98 -6z m209
-29 c26 -21 31 -33 31 -68 0 -56 -31 -86 -94 -93 l-46 -6 0 97 0 96 39 0 c28
0 49 -8 70 -26z"/>
<path d="M8200 777 c25 -12 25 -14 28 -167 3 -177 1 -193 -30 -208 -18 -8 16
-10 146 -9 l170 2 6 25 c24 91 25 89 -14 43 -20 -23 -52 -47 -72 -53 -36 -12
-118 -9 -132 5 -4 4 -9 45 -11 91 l-3 84 37 0 c48 0 74 -15 90 -53 13 -30 14
-27 13 58 0 50 -3 80 -5 69 -6 -34 -38 -56 -88 -61 l-45 -6 0 92 0 91 54 0
c68 0 102 -12 144 -53 l33 -32 -18 48 -17 47 -156 0 c-131 0 -151 -2 -130 -13z"/>
</g>
</svg>
