<svg xmlns="http://www.w3.org/2000/svg" xmlns:xlink="http://www.w3.org/1999/xlink" width="56" height="56" viewBox="0 0 56 56">
  <defs>
    <circle id="unikrn_avatar-a" cx="28.005" cy="28" r="28"/>
  </defs>
  <g fill="none" fill-rule="evenodd">
    <mask id="unikrn_avatar-b" fill="#fff">
      <use xlink:href="#unikrn_avatar-a"/>
    </mask>
    <use fill="#000" fill-rule="nonzero" xlink:href="#unikrn_avatar-a"/>
    <g fill="#FFF" fill-rule="nonzero" mask="url(#unikrn_avatar-b)">
      <g transform="translate(4 20)">
        <path d="M15.143662 11.7633803L15.143662 6.53521127 11.3352113 6.53521127 11.3352113 11.7633803 9.14929577 11.7633803 9.14929577 4.5971831C9.14929577 4.57464789 9.17183099 4.5971831 9.1943662 4.5971831L17.3295775 4.5971831 17.3295775 11.7859155 15.143662 11.7859155 15.143662 11.7633803zM28.0338028 7.48169014C28.0788732 7.57183099 28.1239437 7.63943662 28.1464789 7.75211268 28.1915493 7.93239437 28.2140845 8.13521127 28.1915493 8.33802817 27.9661972 8.24788732 27.7408451 8.13521127 27.5380282 7.97746479 27.515493 7.95492958 27.515493 7.90985915 27.515493 7.88732394 27.515493 7.81971831 27.5380282 7.72957746 27.5380282 7.66197183 27.5605634 7.54929577 27.5605634 7.36901408 27.5830986 7.25633803 27.7859155 7.25633803 27.9211268 7.34647887 28.0338028 7.48169014M32.7661972 2.68169014L23.8197183 6.4 23.8197183 4.5971831 21.6338028 4.5971831 21.6338028 11.7859155 23.8197183 11.7859155 23.8197183 10.1859155C23.8197183 8.90140845 25.5323944 8.22535211 25.4197183 8.58591549 25.3295775 9.01408451 25.4647887 9.44225352 25.7802817 9.75774648 25.8704225 9.82535211 26.3211268 10.1408451 26.456338 10.2309859 26.7267606 10.4112676 26.9521127 10.6591549 27.1323944 10.9295775 27.2 11.0422535 27.5380282 11.628169 27.628169 11.7183099 27.6507042 11.7633803 27.7183099 11.7859155 27.7633803 11.7859155 28.484507 11.7859155 30.0394366 11.7859155 30.0394366 11.7859155L29.3633803 9.91549296C29.0253521 9.08169014 28.8225352 8.18028169 28.7549296 7.27887324 28.7549296 7.14366197 28.6647887 7.0084507 28.5295775 6.96338028 28.4394366 6.91830986 27.8985915 6.73802817 27.8985915 6.46760563L32.7661972 2.68169014z"/>
        <rect width="2.276" height="7.189" x="18.344" y="4.597"/>
        <polygon points="19.493 0 19.042 1.352 17.623 1.352 18.772 2.186 18.344 3.538 19.493 2.704 20.642 3.538 20.192 2.186 21.341 1.352 19.921 1.352"/>
        <path d="M32.7211268,6.58028169 L36.5070423,6.58028169 L36.5070423,7.57183099 L32.7211268,7.57183099 L32.7211268,6.58028169 Z M37.0478873,9.57746479 L38.6704225,9.57746479 L38.6704225,4.5971831 L30.5352113,4.5971831 L30.5352113,11.7859155 L32.7211268,11.7859155 L32.7211268,9.57746479 L33.4422535,9.57746479 L36.5070423,11.7859155 L38.6929577,11.7859155 L38.6929577,10.771831 L37.0478873,9.57746479 Z"/>
        <polygon points="6.017 4.597 5.994 9.78 2.186 9.78 2.186 4.597 0 4.597 0 11.763 8.158 11.763 8.158 4.597"/>
        <path d="M45.7239437,11.7633803 L45.7239437,6.53521127 L41.915493,6.53521127 L41.915493,11.7633803 L39.7295775,11.7633803 L39.7295775,4.5971831 C39.7295775,4.57464789 39.7521127,4.5971831 39.7746479,4.5971831 L47.9098592,4.5971831 L47.9098592,11.7859155 L45.7239437,11.7859155 L45.7239437,11.7633803 Z"/>
      </g>
    </g>
  </g>
</svg>
