<?xml version="1.0" encoding="utf-8"?>
<svg version="1.1" id="Calque_1" xmlns="http://www.w3.org/2000/svg" xmlns:xlink="http://www.w3.org/1999/xlink" x="0px" y="0px"
	 viewBox="270 270 310 60" style="enable-background:new 0 0 841.89 595.28;" xml:space="preserve">
<style type="text/css">
	.st0{fill:#E53B08;}
	.st1{fill:#181716;}
	.st2{fill:none;}
</style>
<g>
	<g>
		<path class="st0" d="M536.06,317.95h-3.93l-1.14,6.87h1.65l0.41-2.52h2.19l1.11,2.52h1.77l-1.27-2.67
			c1.16-0.31,1.94-1.21,1.88-2.19c-0.03-0.48-0.27-0.98-0.67-1.36C537.61,318.19,536.97,317.95,536.06,317.95z M536.87,320.68
			c-0.24,0.23-0.57,0.35-0.96,0.35h-2.65l0.29-1.8h2.41c0.39,0,0.64,0.05,0.87,0.25c0.2,0.18,0.28,0.39,0.29,0.57
			C537.14,320.3,537.04,320.52,536.87,320.68z M404.1,319.56c-0.02-0.38-0.22-0.75-0.54-1.03c-0.41-0.37-0.95-0.58-1.81-0.58h-4.13
			l-1.1,6.87h4.59c1.1,0,1.82-0.27,2.35-0.78c0.46-0.44,0.66-0.96,0.63-1.49c-0.05-0.68-0.48-1.18-1.08-1.43
			C403.69,320.81,404.14,320.18,404.1,319.56z M402.13,323.26c-0.25,0.23-0.66,0.33-1.16,0.33h-2.65l0.31-1.74h2.79
			c0.24,0,0.5,0.07,0.7,0.26c0.15,0.14,0.25,0.33,0.26,0.53C402.4,322.87,402.3,323.1,402.13,323.26z M402.22,320.49
			c-0.17,0.17-0.42,0.27-0.82,0.27h-2.58l0.25-1.55h2.4c0.29,0,0.55,0.04,0.75,0.22c0.13,0.12,0.21,0.28,0.22,0.47
			C402.46,320.11,402.39,320.33,402.22,320.49z M522.04,324.82h1.62l0.48-2.88h2.73l0.21-1.29h-2.73l0.23-1.39h4.5l0.21-1.3h-6.12
			L522.04,324.82z M488.76,324.82h6.44l0.22-1.29h-4.82l0.28-1.64h2.73l0.21-1.29h-2.74l0.23-1.34h4.56l0.2-1.3h-6.18L488.76,324.82
			z M541.26,324.82h6.44l0.22-1.29h-4.82l0.28-1.64h2.73l0.21-1.29h-2.74l0.23-1.34h4.56l0.2-1.3h-6.18L541.26,324.82z
			 M410.42,317.95l-4.57,6.87h1.78l0.92-1.45H412l0.44,1.45h1.7l-2.32-6.87H410.42z M409.29,322.18l1.53-2.43h0.07l0.74,2.43H409.29
			z M381.08,319.56c-0.03-0.38-0.22-0.75-0.55-1.03c-0.41-0.37-0.95-0.58-1.81-0.58h-4.12l-1.1,6.87h4.59c1.1,0,1.82-0.27,2.35-0.78
			c0.46-0.44,0.66-0.96,0.63-1.49c-0.04-0.68-0.47-1.18-1.08-1.43C380.68,320.81,381.12,320.18,381.08,319.56z M379.11,323.26
			c-0.25,0.23-0.66,0.33-1.16,0.33h-2.65l0.31-1.74h2.8c0.24,0,0.5,0.07,0.7,0.26c0.15,0.14,0.25,0.33,0.26,0.53
			C379.38,322.87,379.28,323.1,379.11,323.26z M379.2,320.49c-0.17,0.17-0.43,0.27-0.82,0.27h-2.58l0.25-1.55h2.4
			c0.3,0,0.55,0.04,0.75,0.22c0.13,0.12,0.21,0.28,0.22,0.47C379.44,320.11,379.37,320.33,379.2,320.49z M386.86,320.34l-1.41-2.39
			h-1.9l2.33,3.71l-0.51,3.16h1.64l0.51-3.11l3.58-3.75h-2.04L386.86,320.34z M551.83,317.95l-1.12,6.87h1.64l1.12-6.87H551.83z
			 M469.2,319.26h2.68l-0.9,5.57h1.64l0.92-5.57h2.67l0.21-1.3h-6.99L469.2,319.26z M421.97,322.41c-0.15,0.92-0.86,1.33-1.74,1.33
			c-0.86,0-1.67-0.41-1.73-1.25c-0.02-0.24,0.02-0.58,0.12-1.18l0.54-3.35h-1.62c-0.16,1.01-0.37,2.17-0.52,3.17
			c-0.12,0.76-0.14,1.27-0.13,1.53c0.1,1.5,1.66,2.39,3.41,2.39c1.67,0,3.01-0.8,3.29-2.44l0.75-4.64h-1.65L421.97,322.41z
			 M483.78,322.34h-0.01l-3.07-4.38h-1.39l-1.12,6.87h1.64l0.71-4.39h0.01l3.07,4.39h1.4l1.12-6.87h-1.65L483.78,322.34z
			 M503.26,317.95h-3.93l-1.14,6.87h1.65l0.41-2.52h2.19l1.11,2.52h1.77l-1.27-2.67c1.16-0.31,1.94-1.21,1.88-2.19
			c-0.03-0.48-0.27-0.98-0.67-1.36C504.81,318.19,504.17,317.95,503.26,317.95z M504.07,320.68c-0.23,0.23-0.57,0.35-0.95,0.35
			h-2.65l0.29-1.8h2.41c0.39,0,0.64,0.05,0.87,0.25c0.21,0.18,0.28,0.39,0.29,0.57C504.34,320.3,504.24,320.52,504.07,320.68z
			 M464.06,317.95h-3.93l-1.14,6.87h1.65l0.41-2.52h2.19l1.11,2.52h1.77l-1.27-2.67c1.16-0.31,1.94-1.21,1.88-2.19
			c-0.03-0.48-0.27-0.98-0.67-1.36C465.61,318.19,464.97,317.95,464.06,317.95z M464.87,320.68c-0.23,0.23-0.57,0.35-0.95,0.35
			h-2.65l0.29-1.8h2.41c0.39,0,0.64,0.05,0.87,0.25c0.21,0.18,0.28,0.39,0.29,0.57C465.14,320.3,465.04,320.52,464.87,320.68z
			 M431.26,321.72h-0.02l-1.82-3.76h-1.49l-1.12,6.87h1.58l0.66-3.99h0.06l1.55,3.21h0.46l2.61-3.21h0.06l-0.66,3.99h1.64l1.12-6.87
			h-1.58L431.26,321.72z M442.73,319.05c0.99,0,2.04,0.37,2.65,0.86l1.05-0.95c-1.03-0.74-2.33-1.22-3.72-1.22
			c-2.47,0-4.43,1.89-4.29,3.97c0.14,2.04,2.04,3.32,4.22,3.32c1.02,0,2.14-0.26,3.07-0.74l0.56-3.43h-3.77l-0.2,1.24h2.23
			l-0.22,1.34c-0.4,0.19-0.99,0.29-1.54,0.29c-1.52,0-2.57-0.82-2.65-2.05C440.01,320.25,441.25,319.05,442.73,319.05z
			 M452.6,317.95l-4.57,6.87h1.79l0.91-1.45h3.44l0.44,1.45h1.71l-2.32-6.87H452.6z M451.47,322.18l1.53-2.43h0.07l0.74,2.43H451.47
			z M514.99,320.05l0.03-0.18l0.23-1.36h-1.54l-0.23,1.36l-0.03,0.18l-0.1,0.58h-2.12l-0.26,1.54h2.11l-0.1,0.58l-0.05,0.3
			l-0.21,1.24h1.54l0.21-1.24l0.05-0.3l0.1-0.58h2.12l0.26-1.54h-2.12L514.99,320.05z"/>
		<path class="st1" d="M307.17,296.8c-0.7,3.96-2.44,5.51-6.49,5.51h-8.72c-4.05,0-5.24-1.55-4.55-5.51l3.3-18.75h-9.87l-3.47,19.73
			c-1.36,7.75,2.12,11.46,11.2,11.46h13.08c9.08,0,13.86-3.71,15.23-11.46l3.47-19.73h-9.87L307.17,296.8z M467.25,284.98l1.22-6.93
			h-36.21l-5.48,31.19h36.2l1.22-6.93h-26.33l0.91-5.19h23.54l1.21-6.94H440l0.92-5.2H467.25z M357.15,278.05h-29.67l-5.48,31.19
			h9.87l1.68-9.53h15.53c3.07,0,3.85,1.07,3.28,4.35l-0.91,5.18h9.88l1.05-6.01c0.9-5.13-1.46-6.38-4.3-6.89l0.01-0.09
			c4.72-1.04,6.13-3.49,6.87-7.67l0.22-1.26C366.15,281.71,364.75,278.05,357.15,278.05z M355.54,288.26l-0.22,1.25
			c-0.39,2.24-1.57,3.28-4.24,3.28h-16.32l1.4-7.8h15.44C354.71,284.98,356.03,285.5,355.54,288.26z M418.33,278.05l-10.77,22.53
			l-4.49-22.52l0.01-0.01h-9.04l0,0.01l-11.44,22.52l-3.81-22.53h-9.08l5.16,31.19h11.02l10.59-19.2l3.88,19.2h11.02l16.04-31.19
			H418.33z M503.62,278.05h-29.67l-5.49,31.19h9.88l1.68-9.53h15.52c3.07,0,3.86,1.07,3.28,4.35l-0.91,5.18h9.88l1.06-6.01
			c0.9-5.13-1.46-6.38-4.3-6.89l0.02-0.09c4.72-1.04,6.13-3.49,6.86-7.67l0.23-1.26C512.63,281.71,511.23,278.05,503.62,278.05z
			 M502.02,288.26l-0.23,1.25c-0.39,2.24-1.57,3.28-4.24,3.28h-16.32l1.4-7.8h15.43C501.19,284.98,502.5,285.5,502.02,288.26z
			 M544.85,278.05l-18,14.24l2.5-14.24h-9.88L514,309.24h9.87l2.51-14.25l14.5,14.25h13.96l-16.68-15.94l20.12-15.25H544.85z
			 M566.07,273.1c-2.43,0-4.4,1.97-4.4,4.4c0,2.43,1.96,4.4,4.4,4.4c2.43,0,4.4-1.97,4.4-4.4
			C570.46,275.07,568.5,273.1,566.07,273.1z M566.07,280.92c-1.9,0-3.36-1.46-3.36-3.42c0-1.96,1.46-3.41,3.36-3.41
			s3.35,1.46,3.35,3.41C569.42,279.46,567.96,280.92,566.07,280.92z M567.92,276.63c0-0.78-0.61-1.47-1.56-1.47h-1.91v4.68h1.04
			v-1.81h0.5l0.85,1.81h1.19l-0.98-1.97C567.51,277.69,567.92,277.28,567.92,276.63z M566.24,277.24h-0.73v-1.22h0.73
			c0.39,0,0.65,0.29,0.65,0.61C566.88,276.96,566.62,277.24,566.24,277.24z"/>
	</g>
	<rect x="248.36" y="251.36" class="st2" width="345.87" height="93.54"/>
</g>
</svg>