<svg id="Layer_1" data-name="Layer 1" xmlns="http://www.w3.org/2000/svg" viewBox="0 0 49.68 49.68"><defs><style>.cls-1{fill:#e9f9f4;}.cls-2{fill:#3acda4;}.cls-3{fill:#8fe3cb;}</style></defs><title>pricingicon</title><circle class="cls-1" cx="24.52" cy="25.02" r="24"/><path class="cls-2" d="M20.54,35.57h-7c-.87,0-1-.11-1-1,0-1.15,0-2.3,0-3.45a2.71,2.71,0,0,1,1.84-2.73,18,18,0,0,1,12.35,0,2.69,2.69,0,0,1,1.86,2.71c0,1.17,0,2.35,0,3.52,0,.7-.24,1-.94.95C25.28,35.55,22.91,35.57,20.54,35.57Z"/><path class="cls-2" d="M25.75,19.84a6.73,6.73,0,0,1-3.17,5.24,3.74,3.74,0,0,1-3,.42c-2.89-.77-5.4-5.27-3.44-8.44a5.3,5.3,0,0,1,5.81-2.26A5.1,5.1,0,0,1,25.75,19.84Z"/><path class="cls-3" d="M32.94,15.71a4.49,4.49,0,0,1,3.79,2.44A4.85,4.85,0,0,1,36.41,23,5.27,5.27,0,0,1,35,24.73a3.58,3.58,0,0,1-4.92-.16c-2-1.71-2.73-5-1.27-6.92A4.94,4.94,0,0,1,32.94,15.71Z"/><path class="cls-3" d="M34.21,33.36c-1.29,0-2.59,0-3.89,0-.45,0-.61-.14-.59-.59s0-1,0-1.54a3.6,3.6,0,0,0-1.13-2.91c-.31-.3-.4-.46.15-.58a16.75,16.75,0,0,1,8.32.15A2.35,2.35,0,0,1,39,30.43c0,.66,0,1.32,0,2s-.24,1-1,1C36.76,33.33,35.49,33.36,34.21,33.36Z"/></svg>