<svg xmlns="http://www.w3.org/2000/svg" xmlns:xlink="http://www.w3.org/1999/xlink" viewBox="0 0 954.96 807.68"><defs><style>.a,.aa,.ab,.ac,.ad,.ae,.af,.ag,.ah,.ai,.aj,.ak,.al,.am,.an,.ao,.ap,.aq,.ar,.as,.at,.av,.aw,.ax,.ay,.az,.ba,.bb,.bc,.bd,.be,.bf,.bh,.bi,.bj,.bk,.bl,.bm,.bn,.bo,.bp,.bq,.br,.bs,.bt,.bu,.bv,.c,.e,.g,.i,.k,.l,.m,.n,.o,.p,.q,.r,.s,.t,.u,.v,.w,.x,.y,.z{fill:#161616;}.a,.aa,.ab,.ac,.ad,.ae,.af,.ag,.ah,.ai,.aj,.ak,.al,.am,.an,.ao,.ap,.aq,.ar,.as,.bh,.bu,.c,.e,.g,.i,.k,.l,.m,.n,.o,.p,.q,.r,.s,.t,.u,.v,.w,.x,.y,.z{stroke-linecap:round;}.a,.ag,.ah,.ai,.am,.c,.e,.g,.i,.k,.l,.m,.n,.o,.p,.q,.r,.s{stroke-width:1.15px;}.a{stroke:url(#a);}.b,.d,.f,.h,.j{fill:#f7df97;}.b,.d,.f,.h{stroke-width:0.13px;}.b{stroke:url(#b);}.c{stroke:url(#c);}.d{stroke:url(#d);}.e{stroke:url(#e);}.f{stroke:url(#f);}.g{stroke:url(#g);}.h{stroke:url(#h);}.i{stroke:url(#i);}.k{stroke:url(#j);}.l{stroke:url(#k);}.m{stroke:url(#l);}.n{stroke:url(#m);}.o{stroke:url(#n);}.p{stroke:url(#o);}.q{stroke:url(#p);}.r{stroke:url(#q);}.s{stroke:url(#r);}.aa,.ab,.ac,.ad,.ae,.af,.aj,.ak,.al,.an,.ao,.ap,.aq,.ar,.as,.at,.av,.aw,.ax,.ay,.az,.ba,.bb,.bc,.bd,.be,.bf,.bi,.bj,.bk,.bl,.bm,.bn,.bo,.bp,.bq,.br,.bs,.bt,.bu,.bv,.t,.u,.v,.w,.x,.y,.z{stroke-miterlimit:11.34;}.t,.u,.v,.w,.x,.y{stroke-width:5.31px;}.t{stroke:url(#s);}.u{stroke:url(#t);}.v{stroke:url(#u);}.w{stroke:url(#v);}.x{stroke:url(#w);}.y{stroke:url(#x);}.aa,.ab,.ac,.ad,.ae,.af,.aj,.ak,.al,.an,.ao,.ap,.aq,.ar,.as,.at,.av,.aw,.ax,.ay,.az,.ba,.bb,.bc,.bd,.be,.bf,.bh,.bi,.bj,.bk,.bl,.bm,.bn,.bo,.bp,.bq,.br,.bs,.bt,.z{stroke-width:3.26px;}.z{stroke:url(#y);}.aa{stroke:url(#z);}.ab{stroke:url(#aa);}.ac{stroke:url(#ab);}.ad{stroke:url(#ac);}.ae{stroke:url(#ad);}.af{stroke:url(#ae);}.ag{stroke:url(#af);}.ah{stroke:url(#ag);}.ai{stroke:url(#ah);}.aj{stroke:url(#ai);}.ak{stroke:url(#aj);}.al{stroke:url(#ak);}.am{stroke:url(#al);}.an{stroke:url(#am);}.ao{stroke:url(#an);}.ap{stroke:url(#ao);}.aq{stroke:url(#ap);}.ar{stroke:url(#aq);}.as{stroke:url(#ar);}.at{stroke:url(#as);}.au{fill:#f8e2a0;}.av{stroke:url(#at);}.aw{stroke:url(#au);}.ax{stroke:url(#av);}.ay{stroke:url(#aw);}.az{stroke:url(#ax);}.ba{stroke:url(#ay);}.bb{stroke:url(#az);}.bc{stroke:url(#ba);}.bd{stroke:url(#bb);}.be{stroke:url(#bc);}.bf{stroke:url(#bd);}.bg{fill:url(#be);}.bh{stroke-linejoin:round;stroke:url(#bf);}.bi{stroke:url(#bg);}.bj{stroke:url(#bh);}.bk{stroke:url(#bi);}.bl{stroke:url(#bj);}.bm{stroke:url(#bk);}.bn{stroke:url(#bl);}.bo{stroke:url(#bm);}.bp{stroke:url(#bn);}.bq{stroke:url(#bo);}.br{stroke:url(#bp);}.bs{stroke:#dea500;}.bt{stroke:url(#bq);}.bu,.bv{stroke:#161616;stroke-width:0.38px;}.bw{fill:url(#br);}.bx{fill:#fafafa;}.by{fill:url(#bs);}.bz{fill:url(#bt);}</style><linearGradient id="a" x1="1726.98" y1="6.88" x2="1723.17" y2="-0.18" gradientTransform="matrix(-3.15, -2.38, 3.49, -4.14, 6111.96, 5150.93)" gradientUnits="userSpaceOnUse"><stop offset="0" stop-color="#dea500"/><stop offset="1" stop-color="#ecce80"/></linearGradient><linearGradient id="b" x1="1725.46" y1="7.7" x2="1721.65" y2="0.64" xlink:href="#a"/><linearGradient id="c" x1="1310.28" y1="250.41" x2="1306.47" y2="243.34" gradientTransform="matrix(3.15, -2.38, -3.49, -4.14, -2039.13, 5183.43)" xlink:href="#a"/><linearGradient id="d" x1="1308.32" y1="251.47" x2="1304.5" y2="244.41" gradientTransform="matrix(3.15, -2.38, -3.49, -4.14, -2039.13, 5183.43)" xlink:href="#a"/><linearGradient id="e" x1="1737.02" y1="-38.58" x2="1733.21" y2="-45.64" gradientTransform="matrix(-2.74, -2.84, 4.08, -3.55, 5578.48, 5783.75)" xlink:href="#a"/><linearGradient id="f" x1="1734.55" y1="-37.24" x2="1730.74" y2="-44.31" gradientTransform="matrix(-2.74, -2.84, 4.08, -3.55, 5578.48, 5783.75)" xlink:href="#a"/><linearGradient id="g" x1="1379.29" y1="251.4" x2="1375.48" y2="244.34" gradientTransform="matrix(2.74, -2.84, -4.08, -3.55, -1503.46, 5811.75)" xlink:href="#a"/><linearGradient id="h" x1="1377.1" y1="252.59" x2="1373.28" y2="245.52" gradientTransform="matrix(2.74, -2.84, -4.08, -3.55, -1503.46, 5811.75)" xlink:href="#a"/><linearGradient  x1="1740.49" y1="-84.95" x2="1734.98" y2="-92.23" gradientTransform="matrix(-2.29, -3.21, 4.57, -2.9, 5034.1, 6252.58)" xlink:href="#a"/><linearGradient id="j" x1="1448.59" y1="242.34" x2="1443.08" y2="235.06" gradientTransform="matrix(2.29, -3.21, -4.57, -2.9, -958.28, 6276.08)" xlink:href="#a"/><linearGradient id="k" x1="1721.54" y1="-176.03" x2="1716.03" y2="-183.31" gradientTransform="matrix(-1.29, -3.73, 5.2, -1.49, 3809.89, 7028.48)" xlink:href="#a"/><linearGradient id="l" x1="1572.82" y1="202.79" x2="1567.31" y2="195.51" gradientTransform="matrix(1.29, -3.73, -5.2, -1.49, 262.04, 7048.48)" xlink:href="#a"/><linearGradient id="m" x1="1661.64" y1="-274.17" x2="1656.13" y2="-281.45" gradientTransform="matrix(-0.02, -3.95, 5.4, 0.26, 2220.33, 7471)" xlink:href="#a"/><linearGradient id="n" x1="1690.12" y1="126.87" x2="1684.6" y2="119.6" gradientTransform="matrix(0.02, -3.95, -5.4, 0.26, 1858.01, 7487.5)" xlink:href="#a"/><linearGradient id="o" x1="1576.3" y1="-341.34" x2="1570.78" y2="-348.61" gradientTransform="matrix(1.08, -3.8, 5.12, 1.75, 774.92, 7388.62)" xlink:href="#a"/><linearGradient  x1="1755.49" y1="44.32" x2="1749.98" y2="37.04" gradientTransform="matrix(-1.08, -3.8, -5.12, 1.75, 3308.02, 7400.62)" xlink:href="#a"/><linearGradient id="q" x1="1785.73" y1="-57.3" x2="1780.22" y2="-64.58" gradientTransform="matrix(-2.22, -3.26, -4.3, 3.28, 4877.75, 6796.15)" xlink:href="#a"/><linearGradient id="r" x1="1451.57" y1="-389.05" x2="1446.06" y2="-396.33" gradientTransform="matrix(2.22, -3.26, 4.3, 3.28, -793.33, 6789.15)" xlink:href="#a"/><linearGradient id="s" x1="1578.1" y1="-357.48" x2="1572.59" y2="-364.76" gradientTransform="matrix(-3.92, 0.48, 0.95, 5.33, 7632.72, 1792.5)" xlink:href="#a"/><linearGradient id="t" x1="1746.66" y1="-237.29" x2="1741.15" y2="-244.57" gradientTransform="matrix(-3.6, -1.62, -1.95, 5.05, 6983.25, 4787.42)" xlink:href="#a"/><linearGradient id="u" x1="1664.44" y1="-315.53" x2="1658.93" y2="-322.81" gradientTransform="matrix(-3.92, -0.46, -0.35, 5.4, 7551.78, 3175.41)" xlink:href="#a"/><linearGradient id="v" x1="1233.13" y1="-402.32" x2="1227.62" y2="-409.6" gradientTransform="matrix(3.6, -1.62, 1.95, 5.05, -2894.22, 4790.42)" xlink:href="#a"/><linearGradient id="w" x1="1114.73" y1="-362.31" x2="1109.22" y2="-369.59" gradientTransform="matrix(3.92, -0.46, 0.35, 5.4, -3461.98, 3173.91)" xlink:href="#a"/><linearGradient id="x" x1="1035.96" y1="-308.76" x2="1030.45" y2="-316.03" gradientTransform="matrix(3.92, 0.48, -0.95, 5.33, -3541.68, 1794)" xlink:href="#a"/><linearGradient id="y" x1="1895.75" y1="59.9" x2="1890.24" y2="52.62" gradientTransform="matrix(-2.07, -1.93, 1.93, -2.07, 4510.73, 4735.73)" xlink:href="#a"/><linearGradient id="z" x1="1907.2" y1="-33.88" x2="1901.69" y2="-41.16" gradientTransform="translate(4110.24 5122.03) rotate(-128.12) scale(2.83)" xlink:href="#a"/><linearGradient id="aa" x1="1895.18" y1="-55.23" x2="1889.67" y2="-62.51" gradientTransform="matrix(-1.68, -2.28, 2.28, -1.68, 3992.46, 5115.01)" xlink:href="#a"/><linearGradient id="ab" x1="1425.01" y1="566.03" x2="1419.5" y2="558.76" gradientTransform="matrix(1.75, -2.23, -2.23, -1.75, 1.61, 5068.65)" xlink:href="#a"/><linearGradient id="ac" x1="1668.8" y1="465.94" x2="1663.29" y2="458.66" gradientTransform="matrix(0.77, -2.72, -2.72, -0.77, 1197.96, 5768.93)" xlink:href="#a"/><linearGradient id="ad" x1="1792.6" y1="-435.27" x2="1787.09" y2="-442.55" gradientTransform="translate(1817.62 5933.04) rotate(-88.38) scale(2.83)" xlink:href="#a"/><linearGradient id="ae" x1="1804.22" y1="341.24" x2="1798.7" y2="333.97" gradientTransform="matrix(-0.01, -2.83, -2.83, 0.01, 2168.41, 5931.55)" xlink:href="#a"/><linearGradient id="af" x1="1716.5" y1="-703.95" x2="1710.99" y2="-711.23" gradientTransform="matrix(0.79, -2.06, 1.97, 0.87, 752.17, 4966.25)" xlink:href="#a"/><linearGradient id="ag" x1="2117.29" y1="236.8" x2="2111.78" y2="229.52" gradientTransform="matrix(-0.79, -2.06, -1.97, 0.87, 3333.52, 4980.25)" xlink:href="#a"/><linearGradient id="ah" x1="2138.94" y1="111.09" x2="2133.43" y2="103.81" gradientTransform="matrix(-1.09, -1.91, -1.81, 1.16, 3708.91, 4747.66)" xlink:href="#a"/><linearGradient id="ai" x1="1957.07" y1="-218.84" x2="1951.55" y2="-226.12" gradientTransform="matrix(-2.27, -1.69, -1.69, 2.27, 5200.33, 4570.48)" xlink:href="#a"/><linearGradient id="aj" x1="1877.06" y1="-389.46" x2="1871.55" y2="-396.74" gradientTransform="matrix(-2.69, -0.91, -0.91, 2.69, 5829.88, 3501.73)" xlink:href="#a"/><linearGradient id="ak" x1="1757.08" y1="-547.73" x2="1751.56" y2="-555" gradientTransform="matrix(-2.83, 0, 0, 2.83, 6083.76, 2258.86)" xlink:href="#a"/><linearGradient id="al" x1="1606.07" y1="-766.16" x2="1600.56" y2="-773.44" gradientTransform="matrix(1.09, -1.91, 1.81, 1.16, 377.82, 4747.16)" xlink:href="#a"/><linearGradient id="am" x1="1341.48" y1="-672.39" x2="1335.96" y2="-679.67" gradientTransform="translate(-1121.42 4561.41) rotate(-36.83) scale(2.84)" xlink:href="#a"/><linearGradient id="an" x1="1152.64" y1="-629.13" x2="1147.13" y2="-636.41" gradientTransform="translate(-1749.27 3471.73) rotate(-18.69) scale(2.84)" xlink:href="#a"/><linearGradient id="ao" x1="991.08" y1="-547.26" x2="985.56" y2="-554.53" gradientTransform="translate(-1996.16 2254.45) scale(2.83)" xlink:href="#a"/><linearGradient id="ap" x1="1870.35" y1="-268.64" x2="1864.84" y2="-275.92" gradientTransform="translate(2880.33 5757.55) rotate(-105.75) scale(2.84)" xlink:href="#a"/><linearGradient id="aq" x1="1339.75" y1="584.27" x2="1334.24" y2="577" gradientTransform="matrix(2.07, -1.93, -1.93, -2.07, -438.23, 4760.5)" xlink:href="#a"/><linearGradient id="ar" x1="1439.15" y1="570.95" x2="1433.64" y2="563.68" gradientTransform="matrix(1.75, -2.23, -2.23, -1.75, -27.14, 5149.28)" xlink:href="#a"/><linearGradient id="as" x1="1104.07" y1="-515.05" x2="1110.39" y2="-521.44" gradientTransform="translate(-1993.16 2249.95) scale(2.83)" xlink:href="#a"/><linearGradient id="at" x1="1862.72" y1="-512.96" x2="1869.04" y2="-519.35" gradientTransform="matrix(-2.83, 0, 0, 2.83, 6036.21, 2238.7)" xlink:href="#a"/><linearGradient id="au" x1="1110.43" y1="-504.86" x2="1115.3" y2="-508.72" gradientTransform="translate(-1993.16 2249.95) scale(2.83)" xlink:href="#a"/><linearGradient id="av" x1="1870.6" y1="-504.86" x2="1875.47" y2="-508.72" gradientTransform="matrix(-2.83, 0, 0, 2.83, 6044.75, 2250.82)" xlink:href="#a"/><linearGradient id="aw" x1="1114.79" y1="-496.71" x2="1118.91" y2="-498.47" gradientTransform="translate(-1993.16 2249.95) scale(2.83)" xlink:href="#a"/><linearGradient id="ax" x1="1874.93" y1="-496.77" x2="1879.05" y2="-498.53" gradientTransform="matrix(-2.83, 0, 0, 2.83, 6044.98, 2250.95)" xlink:href="#a"/><linearGradient id="ay" x1="992.08" y1="-357.95" x2="996.2" y2="-359.72" gradientTransform="translate(-1813.64 1061.48) rotate(16.39) scale(2.84)" xlink:href="#a"/><linearGradient id="az" x1="1722.31" y1="-575.45" x2="1726.43" y2="-577.22" gradientTransform="matrix(-2.71, 0.8, 0.8, 2.71, 5872.93, 1064.98)" xlink:href="#a"/><linearGradient id="ba" x1="923.98" y1="-244.82" x2="928.1" y2="-246.58" gradientTransform="translate(-1458.76 284.26) rotate(28.47) scale(2.83)" xlink:href="#a"/><linearGradient id="bb" x1="1594.93" y1="-609.21" x2="1599.04" y2="-610.97" gradientTransform="matrix(-2.49, 1.35, 1.35, 2.49, 5527.93, 279.32)" xlink:href="#a"/><linearGradient id="bc" x1="876.86" y1="-83.1" x2="880.98" y2="-84.86" gradientTransform="translate(-793.56 -579.8) rotate(43.43) scale(2.84)" xlink:href="#a"/><linearGradient id="bd" x1="1434.56" y1="-609.56" x2="1438.68" y2="-611.32" gradientTransform="matrix(-2.06, 1.94, 1.94, 2.06, 4882.29, -576.25)" xlink:href="#a"/><linearGradient id="be" x1="994.3" y1="-489.7" x2="1087.27" y2="-489.7" gradientTransform="translate(-1993.16 2249.95) scale(2.83)" gradientUnits="userSpaceOnUse"><stop offset="0" stop-color="#edc735"/><stop offset="0.51" stop-color="#f7e098"/><stop offset="1" stop-color="#fff3ea"/></linearGradient><linearGradient id="bf" x1="1020.56" y1="-553.07" x2="1108.26" y2="-553.07" gradientTransform="translate(-1993.16 2249.95) scale(2.83)" xlink:href="#a"/><linearGradient id="bg" x1="1001.02" y1="-553.36" x2="1026.6" y2="-553.36" gradientTransform="translate(-1993.16 2249.95) scale(2.83)" xlink:href="#a"/><linearGradient id="bh" x1="1070.1" y1="-514.96" x2="1130.23" y2="-514.96" gradientTransform="translate(-1993.16 2249.95) scale(2.83)" xlink:href="#a"/><linearGradient id="bi" x1="947.51" y1="-523.89" x2="1008.34" y2="-523.89" gradientTransform="translate(-1993.16 2249.95) scale(2.83)" xlink:href="#a"/><linearGradient id="bj" x1="947.49" y1="-480.2" x2="995.66" y2="-480.2" gradientTransform="translate(-1993.16 2249.95) scale(2.83)" xlink:href="#a"/><linearGradient id="bk" x1="957.17" y1="-427.66" x2="1004.97" y2="-475.46" gradientTransform="translate(-1993.16 2249.95) scale(2.83)" xlink:href="#a"/><linearGradient id="bl" x1="1087.1" y1="-474.6" x2="1131.1" y2="-474.6" gradientTransform="translate(-1993.16 2249.95) scale(2.83)" xlink:href="#a"/><linearGradient id="bm" x1="1079.93" y1="-462.3" x2="1125.05" y2="-462.3" gradientTransform="translate(-1993.16 2249.95) scale(2.83)" xlink:href="#a"/><linearGradient id="bn" x1="976.45" y1="-437.26" x2="1017.32" y2="-437.26" gradientTransform="translate(-1993.16 2249.95) scale(2.83)" xlink:href="#a"/><linearGradient id="bo" x1="1066.57" y1="-445.08" x2="1117.14" y2="-445.08" gradientTransform="translate(-1993.16 2249.95) scale(2.83)" xlink:href="#a"/><linearGradient id="bp" x1="1002.96" y1="-407.86" x2="1038.56" y2="-407.86" gradientTransform="translate(-1993.16 2249.95) scale(2.83)" xlink:href="#a"/><linearGradient id="bq" x1="1035.55" y1="-400.68" x2="1053.14" y2="-400.68" gradientTransform="translate(-1993.16 2249.95) scale(2.83)" xlink:href="#a"/><linearGradient id="br" x1="1015.22" y1="-428.87" x2="1067.57" y2="-428.87" xlink:href="#be"/><linearGradient id="bs" x1="1113.83" y1="-515.2" x2="1085.38" y2="-515.24" xlink:href="#be"/><linearGradient id="bt" x1="967.48" y1="-516.59" x2="995.91" y2="-516.59" xlink:href="#be"/></defs><path class="a" d="M595.31,1198.72c26.63-30.92,80.35-97.09,106.9-199.87l37.64,6.16C714.2,1078.05,673.08,1185.17,595.31,1198.72Z" transform="translate(-477.48 -408.13)"/><path class="b" d="M642.18,1153.67c32.65-33.36,49.61-75,69.79-129.43l1.88,2.16c-15.32,38.44-29.76,87.56-71.67,127.27Z" transform="translate(-477.48 -408.13)"/><path class="c" d="M1315.07,1215c-26.64-30.92-80.36-97.09-106.91-199.87l-37.64,6.16c25.65,73,66.78,180.18,144.55,193.71Z" transform="translate(-477.48 -408.13)"/><path class="d" d="M1265.94,1169.94c-32.65-33.36-47.36-75-67.53-129.43l-4.13,2.16C1209.59,1081.1,1224,1130.23,1265.94,1169.94Z" transform="translate(-477.48 -408.13)"/><path class="e" d="M528,1161c31.07-26.45,101.5-80.88,143.53-178.36l34.5,11C669.4,1061.88,606.87,1159.63,528,1161Z" transform="translate(-477.48 -408.13)"/><path class="f" d="M587.68,1119.07c36.45-29.5,62.42-59.65,90.73-110.38l3.91,3.74C661.28,1048.05,635.19,1086.27,587.68,1119.07Z" transform="translate(-477.48 -408.13)"/><path class="g" d="M1383.52,1175c-31.07-26.45-101.5-80.88-143.53-178.36l-34.5,11C1242.08,1075.88,1304.6,1173.63,1383.52,1175Z" transform="translate(-477.48 -408.13)"/><path class="h" d="M1323.78,1133.07c-37.39-28-59.42-59.65-87.73-110.38l-3.92,3.74c21,35.62,44.13,73.84,91.65,106.64Z" transform="translate(-477.48 -408.13)"/><path class="i" d="M504,1081.05c29.14-14.13,118-55.72,169.27-148.77L711.88,947c-37.78,63.61-123.5,149.5-207.93,134Z" transform="translate(-477.48 -408.13)"/><path class="j" d="M564.84,1057c42.42-20,79.7-50.16,113.88-97.24l8.15,1.54C661.05,993.4,622.37,1038.21,564.84,1057Z" transform="translate(-477.48 -408.13)"/><path class="k" d="M1407.92,1092.8c-29.14-14.13-118-55.72-169.26-148.77L1200,958.76C1237.77,1022.37,1323.49,1108.26,1407.92,1092.8Z" transform="translate(-477.48 -408.13)"/><path class="j" d="M1347,1068.73c-42.41-20-79.7-50.16-113.88-97.24L1225,973C1250.82,1005.15,1289.5,1050,1347,1068.73Z" transform="translate(-477.48 -408.13)"/><path class="l" d="M478.85,990.45c31.94-5.34,115.25-11.19,188.59-90.2l40,16.37C654.28,963.7,555,1050.76,478.85,990.45Z" transform="translate(-477.48 -408.13)"/><path class="j" d="M537.89,988.9c48.38-2,101.68-31.21,146.74-70l3.12,6.1C653.91,948.57,601,992.45,537.89,988.9Z" transform="translate(-477.48 -408.13)"/><path class="m" d="M1431.07,1000.45c-31.93-5.34-115.24-11.19-188.58-90.2l-40,16.37C1255.64,973.7,1354.92,1060.76,1431.07,1000.45Z" transform="translate(-477.48 -408.13)"/><path class="j" d="M1372,998.9c-48.38-2-101.69-31.21-146.74-70l-3.12,6.1C1256,958.57,1308.88,1002.45,1372,998.9Z" transform="translate(-477.48 -408.13)"/><path class="n" d="M501.28,879.33c14,7.69,98.2,41.08,191.34-14.63l32.66,28.4C662.54,913.23,546.28,985.43,501.28,879.33Z" transform="translate(-477.48 -408.13)"/><path class="j" d="M546,903.14c41.57,20.27,106,13,156.9-15.21l.5,8.2C664.93,909.89,587.78,934.67,546,903.14Z" transform="translate(-477.48 -408.13)"/><path class="o" d="M1411.83,887.58c-14,7.69-98.18,41.08-191.33-14.63l-32.63,28.4C1250.59,921.48,1366.87,993.68,1411.83,887.58Z" transform="translate(-477.48 -408.13)"/><path class="j" d="M1367.14,911.39c-41.56,20.27-106,13-156.89-15.21l-.5,8.2C1248.19,918.14,1325.35,942.9,1367.14,911.39Z" transform="translate(-477.48 -408.13)"/><path class="p" d="M523.66,779.5C534.93,790.77,612,869.33,713.45,827l23.45,36.35C654.84,885.3,538.36,916.33,523.66,779.5Z" transform="translate(-477.48 -408.13)"/><path class="j" d="M558.12,825c59.12,61,102.74,32.89,159.5,19.94l-.42,5.5C676.46,853,612.78,897.7,558.12,825Z" transform="translate(-477.48 -408.13)"/><path class="q" d="M1391.78,785.5C1380.51,796.77,1303.4,875.33,1202,833l-23.45,36.35c82.06,21.92,198.54,53,213.24-83.88Z" transform="translate(-477.48 -408.13)"/><path class="j" d="M1357.31,831c-59.12,61-102.74,32.89-159.5,19.94l.42,5.5C1239,859,1302.64,903.7,1357.31,831Z" transform="translate(-477.48 -408.13)"/><path class="r" d="M1351.4,684.24c-29.57,58.62-58.62,120.47-168.2,112.38l-26,63.45c112,1.59,222.5-45.32,194.18-175.83Z" transform="translate(-477.48 -408.13)"/><path class="j" d="M1333.48,745.41c-33.94,82.19-86.29,86.79-144.15,94.73l2.13,5.08c38.77-7.63,113.73-10.78,142-99.81Z" transform="translate(-477.48 -408.13)"/><path class="s" d="M564.78,680.74c29.56,58.62,58.61,120.47,168.2,112.38l26,63.45C646.89,858.17,536.45,811.25,564.78,680.74Z" transform="translate(-477.48 -408.13)"/><path class="j" d="M582.68,741.91c34,82.19,86.3,86.79,144.15,94.73l-2.13,5.08c-38.77-7.63-113.73-10.78-142-99.81Z" transform="translate(-477.48 -408.13)"/><path class="t" d="M1116.42,417.55s33.56,77.5,41.16,122.56c20.86,123.53-13.5,174-13.5,174l21.39,33.28s50.3-75.47,41.16-161.29C1195.89,485.17,1116.42,417.55,1116.42,417.55Z" transform="translate(-477.48 -408.13)"/><path class="j" d="M1163.34,505.64c24.23,78.73,30.34,129.76,21.13,183.5l6.13,0c11.16-55.58-5.11-127-27.26-183.5Z" transform="translate(-477.48 -408.13)"/><path class="u" d="M1282.42,575.63c-10.78,95.17,2.07,138.21-95.57,188.61l11,67.67C1294.22,774.67,1348.62,703.53,1282.42,575.63Z" transform="translate(-477.48 -408.13)"/><path class="j" d="M1288.59,656.43c2.36,100.47-47.33,111.78-91,145.3l4.47,3.21c27.87-18,100.8-46.6,86.5-148.5Z" transform="translate(-477.48 -408.13)"/><path class="v" d="M1202.53,490.27s16.88,79.85,13.5,125.4c-9.25,124.94-54.65,165.79-54.65,165.79l12.83,37.42C1241.18,724.11,1318.89,639.86,1202.53,490.27Z" transform="translate(-477.48 -408.13)"/><path class="j" d="M1231.86,575.57c22.86,112.87-7.21,125-26.17,175.91l5.94,1.5C1222.92,706.37,1262.68,685.49,1231.86,575.57Z" transform="translate(-477.48 -408.13)"/><path class="w" d="M636.06,577.13c10.78,95.17-2.07,138.21,95.57,188.61l-11,67.67C624.28,776.17,569.86,705,636.06,577.13Z" transform="translate(-477.48 -408.13)"/><path class="j" d="M629.88,657.93c-2.36,100.47,47.34,111.78,91,145.3l-4.47,3.21C688.54,788.48,615.6,759.84,629.88,657.93Z" transform="translate(-477.48 -408.13)"/><path class="x" d="M716.33,489.52s-16.89,79.85-13.5,125.4c9.25,124.94,54.65,165.79,54.65,165.79l-12.82,37.42C677.68,723.36,600,639.11,716.33,489.52Z" transform="translate(-477.48 -408.13)"/><path class="j" d="M687,574.82c-22.86,112.87,7.21,125,26.17,175.91l-5.94,1.5C695.93,705.62,656.18,684.73,687,574.82Z" transform="translate(-477.48 -408.13)"/><path class="y" d="M803.06,418.3S769.5,495.8,761.9,540.86c-20.86,123.53,13.5,174,13.5,174L754,748.17s-50.31-75.46-41.16-161.28C723.58,485.92,803.06,418.3,803.06,418.3Z" transform="translate(-477.48 -408.13)"/><path class="j" d="M761.14,501.7c-33,91.86-35.28,130.88-27.63,183.67l-4.63,2.3c-11.16-55.57,6-133.45,32.26-186Z" transform="translate(-477.48 -408.13)"/><path class="z" d="M652.87,1081.37c41.94-36.09,52.43-79.65,65.75-99.28l22.79,25.16C731.57,1029,698.62,1075.21,652.87,1081.37Z" transform="translate(-477.48 -408.13)"/><path class="j" d="M692.22,1047.7c23.42-29.08,30.19-49.71,32.53-59.8l2.36,3.64A121.74,121.74,0,0,1,692.22,1047.7Z" transform="translate(-477.48 -408.13)"/><path class="aa" d="M630.16,1041.17c47.09-29.06,64.28-70.43,80.53-87.72l18.55,28.42C716.11,1001.82,676.31,1042.27,630.16,1041.17Z" transform="translate(-477.48 -408.13)"/><path class="j" d="M675.21,1013.56c28.23-24.43,39.63-38.13,43.73-47.65l1.39,2.05c-6.71,13.5-20.44,30-45.12,45.6Z" transform="translate(-477.48 -408.13)"/><path class="ab" d="M614,992.14c46.87-25.91,64.2-53.39,80.91-70.23l16.33,24.19C697.52,965.67,658.74,996.67,614,992.14Z" transform="translate(-477.48 -408.13)"/><path class="j" d="M663.13,965.26c32-23.56,33.5-25.38,37.83-33.21l1.33,2.08C696.25,945.27,688.71,950.33,663.13,965.26Z" transform="translate(-477.48 -408.13)"/><path class="ac" d="M1296.28,1001.67c-46.15-27.18-62.72-55.12-79-72.41l-17,23.73c13.13,20,51,52,96,48.68Z" transform="translate(-477.48 -408.13)"/><path class="j" d="M1249.68,975c-31.36-24.43-34.64-27.82-38.73-35.78l-1.39,2C1215.29,952.57,1224.51,959.38,1249.68,975Z" transform="translate(-477.48 -408.13)"/><path class="ad" d="M1309.16,936.24c-53-7.64-77-30.7-98.59-40.53l-11.46,30c19.72,13.5,71.24,33.37,110.05,10.5Z" transform="translate(-477.48 -408.13)"/><path class="j" d="M1259,928.78C1225,916,1213,910.71,1208.59,902.56l-3,1.57c5.75,12.89,27.38,17.46,53.5,24.65Z" transform="translate(-477.48 -408.13)"/><path class="ae" d="M611,864.67c56.44,8.61,73-2.84,94-7.93l9.11,31.33C693.85,896.22,655.49,921.79,611,864.67Z" transform="translate(-477.48 -408.13)"/><path class="j" d="M659.59,876.26c36.71-2.26,45-1,57.72-16.67l5.5,4.72c-8.84,15.34-35.67,17.59-63.22,12Z" transform="translate(-477.48 -408.13)"/><path class="af" d="M1303.28,872.63c-56.65,7.15-72.94-4.73-93.72-10.35l-9.92,31.08C1219.65,902,1257.33,928.58,1303.28,872.63Z" transform="translate(-477.48 -408.13)"/><path class="j" d="M1254.41,883c-36.64-3.21-44.91-2.15-57.27-18.16l-5.61,4.59C1200,884.94,1226.73,887.88,1254.41,883Z" transform="translate(-477.48 -408.13)"/><path class="ag" d="M621.9,806.67s27.21,10.07,44.59,15.5c26.07,8.09,65.31,1,65.31,1l6.76,26.37s-46,23.23-76.89,8.3C627.39,841.3,621.9,806.67,621.9,806.67Z" transform="translate(-477.48 -408.13)"/><path class="j" d="M666.75,832.91c27,8,47.13,8,63.77-6.1l2.93,4.92C712.85,848.28,685.7,842.59,666.75,832.91Z" transform="translate(-477.48 -408.13)"/><path class="ah" d="M1294.9,813.67s-27.21,10.07-44.58,15.5c-26.07,8.12-65.32,1-65.32,1l-6.76,26.37s46,23.23,76.9,8.3c34.27-16.54,39.76-51.18,39.76-51.18Z" transform="translate(-477.48 -408.13)"/><path class="j" d="M1250.06,839.91c-27,8-47.14,8-63.78-6.1l-2.92,4.92C1204,855.28,1231.1,849.59,1250.06,839.91Z" transform="translate(-477.48 -408.13)"/><path class="ai" d="M1269.82,762s-20.14,15.17-36.5,23.15c-24.53,12-64.4,10.92-64.4,10.92l-2.69,27.08s42.36,22.39,70.66,3c31.37-21.55,32.93-64.1,32.93-64.1Z" transform="translate(-477.48 -408.13)"/><path class="j" d="M1236.14,796.58c-24,14.82-43.33,20.21-63.11,11l-1.5,5.5C1195.78,823.62,1220.42,810.93,1236.14,796.58Z" transform="translate(-477.48 -408.13)"/><path class="aj" d="M1238,698.2c-18.15,29.63-26.63,39.67-34,48.62-22.9,28-36.32,33-36.32,33l.42,25.21c48.19-1.39,93.11-37.85,69.85-106.85Z" transform="translate(-477.48 -408.13)"/><path class="j" d="M1221.53,750.32c-24.55,27.39-47.1,41.61-76.06,38.44l.29,7.24C1181,799,1207.28,773.86,1221.53,750.32Z" transform="translate(-477.48 -408.13)"/><path class="ak" d="M1199.61,638.07s-4.67,40.09-14.91,61.92c-15.35,32.75-45.15,53-45.15,53l22.6,30.39s33.38-2.09,46.5-45.32c14.54-47.9-9-100-9-100Z" transform="translate(-477.48 -408.13)"/><path class="j" d="M1196.54,696.08c-6,36.29-17.34,60.4-43.5,73.31l4.15,5.94C1188.48,758.91,1197.19,723.58,1196.54,696.08Z" transform="translate(-477.48 -408.13)"/><path class="al" d="M1143.73,585.13s8.4,39.5,5.69,63.44c-4.08,35.94-25.81,64.68-25.81,64.68l31.12,21.57s31-12.65,29.55-57.82c-1.55-50-40.56-91.87-40.56-91.87Z" transform="translate(-477.48 -408.13)"/><path class="j" d="M1159.38,641.08c5.95,36.29,2.89,62.77-17.73,83.36l5.82,4.3C1171.85,703.17,1168.78,666.92,1159.38,641.08Z" transform="translate(-477.48 -408.13)"/><path class="am" d="M647.5,761.72s20.14,15.17,36.5,23.15c24.54,12,64.41,10.92,64.41,10.92l2.68,27.08s-42.35,22.39-70.66,3c-31.37-21.55-32.92-64.1-32.92-64.1Z" transform="translate(-477.48 -408.13)"/><path class="j" d="M681.19,796.33c23.95,14.82,43.33,20.21,63.11,11l1.5,5.5C721.57,823.37,696.9,810.67,681.19,796.33Z" transform="translate(-477.48 -408.13)"/><path class="an" d="M679.9,693c18.15,29.63,26.63,39.67,34,48.62,22.9,28,36.32,33,36.32,33l-.42,25.21c-48.19-1.39-93.11-37.85-69.85-106.85Z" transform="translate(-477.48 -408.13)"/><path class="j" d="M696.4,745.07c24.55,27.39,47.1,41.61,76.07,38.44l-.3,7.24C737,793.71,710.63,768.61,696.4,745.07Z" transform="translate(-477.48 -408.13)"/><path class="ao" d="M714.66,623.07s4.66,40.09,14.9,61.92c15.36,32.75,45.15,53,45.15,53l-22.59,30.39s-33.39-2.09-46.5-45.32c-14.54-47.9,9-100,9-100Z" transform="translate(-477.48 -408.13)"/><path class="j" d="M717.72,681.08c6,36.29,17.35,60.4,43.47,73.31l-4.14,5.94C725.78,743.91,717.07,708.58,717.72,681.08Z" transform="translate(-477.48 -408.13)"/><path class="ap" d="M774,582.92s-8.4,39.5-5.69,63.44c4.07,35.94,25.81,64.69,25.81,64.69L763,732.61s-31-12.66-29.57-57.81C735,624.76,774,582.92,774,582.92Z" transform="translate(-477.48 -408.13)"/><path class="j" d="M758.38,638.87c-6,36.3-2.89,62.77,17.73,83.36l-5.83,4.31C745.91,701,749,664.71,758.38,638.87Z" transform="translate(-477.48 -408.13)"/><path class="aq" d="M605.9,926.74c53-7.64,77-30.7,98.59-40.53l11.46,30c-19.72,13.5-71.23,33.37-110.05,10.5Z" transform="translate(-477.48 -408.13)"/><path class="j" d="M656,919.28c34.06-12.77,46.06-18.07,50.45-26.22l3,1.57c-5.75,12.89-27.38,17.46-53.5,24.65Z" transform="translate(-477.48 -408.13)"/><path class="ar" d="M1258.11,1093.62c-41.94-36.09-52.43-79.65-65.76-99.28l-22.79,25.16C1179.4,1041.27,1212.36,1087.46,1258.11,1093.62Z" transform="translate(-477.48 -408.13)"/><path class="j" d="M1222.51,1057.45c-23.43-29.08-34-47.21-36.28-57.3l-2.37,3.64C1188.06,1018.26,1201,1037.67,1222.51,1057.45Z" transform="translate(-477.48 -408.13)"/><path class="as" d="M1285.35,1054.8c-47.09-29.06-64.28-70.44-80.53-87.73l-18.54,28.42C1199.4,1015.45,1239.2,1055.9,1285.35,1054.8Z" transform="translate(-477.48 -408.13)"/><path class="j" d="M1237.18,1024.67c-28.23-24.43-36.5-35.63-40.61-45.15l-1.39,2.05c6.71,13.5,17.31,27.5,42,43.1Z" transform="translate(-477.48 -408.13)"/><path class="at" d="M1166.28,732.27s7.5,20.84,7.74,29.24c.69,22.67-19.59,28-19.59,28l-13.2-21.84c9.74-7.42,16.5-16.3,25-35.38Z" transform="translate(-477.48 -408.13)"/><path class="au" d="M1165,752.23a194.67,194.67,0,0,1-14.38,21.88l3.44,2.81s.57-.39,10.94-24.68Z" transform="translate(-477.48 -408.13)"/><path class="av" d="M729.23,726.67s-7.5,20.84-7.75,29.24c-.69,22.67,19.59,28,19.59,28l13.18-21.83c-9.74-7.42-16.5-16.3-25-35.38Z" transform="translate(-477.48 -408.13)"/><path class="au" d="M730.46,746.61a193.15,193.15,0,0,0,14.37,21.87l-3.44,2.82s-.57-.4-10.93-24.69Z" transform="translate(-477.48 -408.13)"/><path class="aw" d="M1187.66,770.84s4.78,21.62,4,30c-2.19,22.59-23,25.27-23,25.27l-10.3-23.32C1169,796.64,1176.78,788.67,1187.66,770.84Z" transform="translate(-477.48 -408.13)"/><path class="au" d="M1183.89,794c-9.89,9.5-20.4,18.79-20.4,18.79l.86,2.35S1166.9,813.78,1183.89,794Z" transform="translate(-477.48 -408.13)"/><path class="ax" d="M712.09,771.28s-4.78,21.62-4,30c2.19,22.58,23,25.27,23,25.27l10.3-23.33C730.81,797.08,723,789.13,712.09,771.28Z" transform="translate(-477.48 -408.13)"/><path class="au" d="M715.87,794.48c9.91,9.52,20.41,18.79,20.41,18.79l-.85,2.35S732.85,814.22,715.87,794.48Z" transform="translate(-477.48 -408.13)"/><path class="ay" d="M1207.84,816.3s-3.37,17-8.44,23.75c-7.7,10.19-23.44,9.68-23.44,9.68l-7.5-20.93C1176.91,828.71,1196.87,825.46,1207.84,816.3Z" transform="translate(-477.48 -408.13)"/><path class="au" d="M1191.7,830.92c-10.83,8.9-19.14,6.91-19.14,6.91l.85,2.35s6,2,18.29-9.26Z" transform="translate(-477.48 -408.13)"/><path class="az" d="M692,816.8s3.37,17,8.43,23.75c7.7,10.19,23.44,9.68,23.44,9.68l7.5-20.93C723,829.21,703,826,692,816.8Z" transform="translate(-477.48 -408.13)"/><path class="au" d="M708.17,831.42c10.83,8.9,19.14,6.91,19.14,6.91l-.85,2.35s-6,2-18.29-9.26Z" transform="translate(-477.48 -408.13)"/><path class="ba" d="M1220.63,868s-8.05,15.4-14.8,20.4c-10.27,7.6-25.22,2.67-25.22,2.67l-1.28-22.21C1187.46,871.2,1207.52,873.73,1220.63,868Z" transform="translate(-477.48 -408.13)"/><path class="au" d="M1201,877.5c-12.9,5.5-20.32,1.22-20.32,1.22l.16,2.5s5.17,3.65,20.16-3.71Z" transform="translate(-477.48 -408.13)"/><path class="bb" d="M684.4,866.79s8.06,15.38,14.81,20.38c10.27,7.6,25.22,2.67,25.22,2.67l1.28-22.17C717.58,870,697.52,872.48,684.4,866.79Z" transform="translate(-477.48 -408.13)"/><path class="au" d="M704,876.25c12.9,5.5,20.32,1.22,20.32,1.22l-.16,2.5S719,883.62,704,876.26Z" transform="translate(-477.48 -408.13)"/><path class="bc" d="M1226.28,923.92c-18.36,14.79-33.08,18-44.91,9.18l6.22-21.67C1195.05,915.38,1198.82,920.49,1226.28,923.92Z" transform="translate(-477.48 -408.13)"/><path class="au" d="M1205.43,926.88c-13.45-.78-20.12-4.62-20.12-4.62l-.38,2.5c1.56,0,6.38,4.34,20.5,2.15Z" transform="translate(-477.48 -408.13)"/><path class="bd" d="M683.28,919.92c18.35,14.79,33.08,18,44.9,9.18L722,907.43C714.48,911.38,710.71,916.49,683.28,919.92Z" transform="translate(-477.48 -408.13)"/><path class="au" d="M704.1,922.88c13.45-.78,20.12-4.62,20.12-4.62l.38,2.5c-1.56,0-6.38,4.34-20.5,2.15Z" transform="translate(-477.48 -408.13)"/><path class="be" d="M1220.66,975.35c-18.09,3.66-35.65,2.36-43.88-6.38l9.68-15.6c6.2,5.73,8.55,11.63,34.2,22Z" transform="translate(-477.48 -408.13)"/><path class="au" d="M1201.28,971.37c-12.8-4.2-18.27-9.62-18.27-9.62l-1,2.29C1183.5,964.44,1187.05,969.87,1201.28,971.37Z" transform="translate(-477.48 -408.13)"/><path class="bf" d="M693.88,974.1c18.1,3.66,35.65,2.36,43.89-6.38l-9.68-15.6c-6.21,5.73-8.55,11.63-34.21,22Z" transform="translate(-477.48 -408.13)"/><path class="au" d="M713.28,970.12c12.79-4.2,18.26-9.62,18.26-9.62l1,2.29C731.05,963.17,727.5,968.62,713.28,970.12Z" transform="translate(-477.48 -408.13)"/><path class="bg" d="M881.15,982.3l150.6.84s-1.23-8.72,14.4-18.84c7.67-15.35,6-59.25,6-59.25S1040,891.62,1036.4,877.3c-2.28-10.08,14.86-25.83,16.88-23.81,2.82,3.8,5.28,18.73,6.37,29.06l3.86,17.8s17.78-20.36,21.06-33c2.14-8.25-1.53-20.5-1.54-25.55,0-1.81,4.62-2.85,4.62-2.85l-7.73-33.44s-19.54-16.66-19.59-19.35c-.06-3.65,7.67-7.81,7.67-7.81-3.43-13.1-20.62-20.38-30.77-22.79a14.22,14.22,0,0,1,.3-6.91s-27.5.2-29.84,1.88-8.34,18.43-13.5,20.05c-4.33,1.35-21.88-10.9-25.39-10.05-1.56.38-6.26,10.78-11.71,12.45-2.79.85-46.12-24.64-46.12-24.64-11.33-1.34-15.05-6.09-30.67-.9,0,0-42.5,20.86-42.07,26.46s6.18,3.5,12.15,10.35c-7.68,7.13-16.39,13.86-20,22-3.88,8.87-2.84,26.91-2.84,26.91-14.27,14.62-6,31.77-1.53,42.89,1.67,4.16,11.29,13.27,21.56,18.95,3.82-16.79,3.34-27.3,5.19-41,.26-1.92,14.29,11.11,15.91,18.59-2.62,13.71-10,21.5-13.78,34.24l-1,36.42c-.21,8,15.47,36.23,27.19,39Z" transform="translate(-477.48 -408.13)"/><path class="bh" d="M1045.57,750s48.81,2.5,98.26-29.93c1.26-3.25,4-32.57-5.93-43.2-2.14-2.29-16.86-.46-30.94,4.68-14.23,5.2-39.37,22.71-39.37,22.71s26.1-28.38,74.54-31.9c-1.1-6.77-32.5-24.45-51.38-24-16.8.39-25.67,4.85-44.61,23.46-12.45,12.22-30.78,42.32-30.78,42.32s20.5-60,61-67.76c-1-8.41-12.95-20.23-23.16-20.05-25.56.45-56.18,52.24-56.18,52.24s21.77-44.5,46.87-55.34c-16.77-12.72-51.11-5.09-51.11-5.09s-16.22,27.93-22,42.94c-10.88,28.41-15.3,70-15.3,70s-1-47.55,6-69.83c6-18.86,29.82-51.3,29.82-51.3-25.5-14.3-48.46-21.55-85.83-5.65l.85,63.53s-13.18,28.26-9,43.77c8,29.93,18.54,44,60.71,62.68,0,0,6.94-12.43,11-13.56,7.61,1.78,20.55,10.76,24.85,9.89,5.77-6.66,13.55-19.5,13.55-19.5Z" transform="translate(-477.48 -408.13)"/><path class="bi" d="M913.66,748.2c-1.41,2.11-10.67-3.91-23.68-3.62-15.14,3.62-19.62,7.68-29.43,11.5,0,0-9.79-25.21-8.75-37.76.66-7.85,7.68-13.19,13.44-23,1.5-22.32-6.57-28.85-24.1-45.65,3-9.15,16.22-20.74,29-27.93C886.57,612.48,902.92,609,903,611c0,0,2.5,37.56,1.7,56.74-.93,4.63-7.53,17.82-8.74,22.18-2.45,8.85-3.66,18.71-1.07,27.5s15,28,18.77,30.72Z" transform="translate(-477.48 -408.13)"/><path class="bj" d="M1145.9,720.55c14.13,15.87,25,26.69,29.44,43.68,3.88,14.94,1.87,31.5-3.94,46.13,0,0,24.71,42.11,36,52.5-40.43-7.93-55.29-10.62-101.25-9.56-7.61.17-19.31-12.19-19.31-12.19l2.81-2.63-2.44-5.25-5.43-27.37s-10.07-9-19.88-19.5c1.81-3.38,3.63-5.25,7.69-7.31-3.15-14.84-32.63-25.13-32.63-25.13s43.44-5.5,62.07-11.06C1119.34,736,1130.84,728.92,1145.9,720.55Z" transform="translate(-477.48 -408.13)"/><path class="bk" d="M858.15,757.23l-22.81,16.88,13.12,9.69-20,22.5-3.13,30.31s-19,21.88-32.87,29.19c-6.58,3.46-36.73,2.24-62.19,5.07A159,159,0,0,0,694,879.73l27.88-54.33c-2.46-48.5-3.35-63.5,13.18-88.17,7.57-11.29,23.62-19.78,35-20.93,7.66-.78,54-7.67,66.56,38.12C832,734,825.19,726.89,813.15,718.48c-13.25-9.25-27.44-4-47.19-11.25,13.87-22.5,38.82-59.85,65.31-56.25,11.9,2.07,19.43,15.39,25.31,25.94,3.56,6.38,5.32,21.25,5.32,21.25s-8.62,9.2-10.62,15c-2.4,7-2,14.87-.94,22.19C851.5,743,858.15,757.23,858.15,757.23Z" transform="translate(-477.48 -408.13)"/><path class="bl" d="M825,839.73c-4.18,14.08-7,23.28.93,38.44,0,0-26.21,24.5-41.87,32.81-9,4.78-20.46,3.94-29.06,9.38-16.7,10.55-37.65,43.56-40.63,43.12-1.36-11.86-1.68-13.36-5.62-18.43-3.82-4.91-23.25-11.06-15.94-9.69,22.52-2,30-24.69,30-24.69S710.79,930.26,691,932.86c3.43-14.43,2.06-23.37-1.56-32.19,12.41-20.2,25.72-23.63,40-25.94,0,0,45.7,4.5,65.63-4.68C807.94,864.11,825,839.73,825,839.73Z" transform="translate(-477.48 -408.13)"/><path class="bm" d="M826.9,879.42s19.12,8.93,20,17.81c-4.26,38.84-34.95,60.6-61.87,93.13-15.06,18.2-10.26,40.28-17.19,68.75-14.5-3.11-16.55-5.8-20.94-14.06-6.5-12.27-5-37.5-5-37.5l38.75-65.94s-19.13,15.55-41.25,60.94c-4.85,4.21-4.37-11.5-8.44-15.94-3.77-4.11-8.72-4.82-14.06-9.06,20.5-23.26,33.74-56.68,54.07-61.25,10.5-1.86,15.17-3.94,21.87-7.82C805.76,901,826.9,879.42,826.9,879.42Z" transform="translate(-477.48 -408.13)"/><path class="bn" d="M1085.34,841.61S1098,857.85,1115,858.8c11.43.63,20-3.42,30-2.82,21,1.28,46.12,8.33,61.56,13.44,3,1,2.93,27.85-1.25,39.06-19.85-11.74-67.5-15.31-67.5-15.31s61.87,11.73,70.31,24.06c3,4.39,1,23-.62,34.38-2.76,19.45-13.75,26.87-13.75,26.87A83.9,83.9,0,0,0,1175,947.55c-15.06-15.46-38.86-17.25-58.13-20.32C1096.66,924,1086,874.11,1086,874.11Z" transform="translate(-477.48 -408.13)"/><path class="bo" d="M1083.78,871.61c-4,11.87-9.23,17.62-18.75,29.06,2.34,19,3.33,22.14,8.43,31.88a81.63,81.63,0,0,0,21.88,25.62c5.78,4.56,13.8,5.59,19.69,10,19.58,14.67,22.34,21,50.31,53.44,11.85-9.84,27.67-31.62,27.19-37.5-9.75-20.25-17.2-32.27-31.25-43.13a37.23,37.23,0,0,0-18.44-7.18c-6.18-.69-12.4,4.28-18.44,2.81-8.26-2-15.4-8.29-20.62-15C1092.78,907.44,1083.78,871.61,1083.78,871.61Z" transform="translate(-477.48 -408.13)"/><path class="bp" d="M853.15,854.73s13.5,10.22,14.69,17.82c1.93,12.28-13.34,22.25-13.75,34.68-.41,12.6-.22,20.87,0,36.57.14,9.94,5.24,19.82,11.56,27.5,5.11,6.2,20,13.43,20,13.43S884.33,1007,881.9,1026c-2.33,18.22-24.68,51.57-24.68,51.57s-9.37,14.33-11.25,22.5c-4.19,18.17.62,55.93.62,55.93s-23.53-27-36.25-45.31c.41-19,1.38-28.22,7.23-45,6.71-19.23,17.15-46.57,17.15-46.57s-15.84,24.69-21.57,38.12c-5.84,13.71-12.81,42.82-12.81,42.82s-19.34-4.5-27.19-18.13c1.85-23.53,1.74-43.42,7.82-64.06,4.24-14.44,11.5-28,19.68-40.63,9-13.82,31.88-37.81,31.88-37.81s11.75-23.57,15-36.24c4.09-15.73,5.59-48.45,5.59-48.45Z" transform="translate(-477.48 -408.13)"/><path class="bq" d="M1055,852.23c-7.82,4.59-16.61,11.62-18.44,21.57,7.69,24.25,14.69,31.87,14.69,31.87s2.45,26.55-.32,39.38c-1.84,8.57-1.66,15.64-10.62,24.06-3.61,3.39-7.81,15-7.81,15s18.18,37.73,35.62,70c8.94,16.54,7.17,46.57,3.31,74.5,33.15-14.07,39.71-18.86,52.63-43.25-7.29-20.35-6.24-18.85-17.16-42.5-6.25-13.5-12.62-21.54-19.72-40,0,0,15,21.3,21.35,32.63,8.72,15.5,10.58,18.55,23,48.18,12.19-16.87,46.45-40.16,32.62-56.06-23.12-26.61-23.8-34.39-48.81-56-6.54-5.66-11.06-2.56-26.56-16.88-7.93-7.32-16.22-15.5-19.38-25.94C1061.23,901.72,1055,852.23,1055,852.23Z" transform="translate(-477.48 -408.13)"/><path class="br" d="M882.84,1022.2s4.74,18.36,29.06,31.6c12.26,6.67,33.75,12.18,33.75,12.18s-7.54,35.65-7.81,53.75c-.22,14.58,5,43.44,5,43.44s-20.12,1.31-29.69-1.25c-8-2.15-22.19-11.56-22.19-11.56s2-21.89,3.26-32.8c1.87-16.08,6.43-48.14,6.43-48.14s-9.36,26.92-15.31,50c-3.64,14.13-.62,43.75-.62,43.75s-25.37-20.79-31.57-35.31c-4.22-9.9-7.14-21.69-2.5-32.19,11.69-26.4,23.86-44.82,32.19-73.47Z" transform="translate(-477.48 -408.13)"/><path class="bs" d="M1031.58,987.07c16.3,27.81,10.32,20.67,34.38,76.92,5.6,13.09,1.65,36.11,1.57,44.68-5.65,15-17,39.73-36.94,52.44,3.54-30.19,3.75-50.55-1.69-74.94-2.82-12.67-15.75-35.62-15.75-35.62s10.21,23.24,12.38,35.62c3.53,20.2,3.2,47.63.75,61.5-15.82,17.84-18,21.89-42.38,18.75,15.11-31.37,1.83-69.15-11.22-99.55,0,0,31.3-14.81,42.75-27.23,7-7.54,13.08-17.24,14.36-27.2C1031.11,1002.2,1031.58,987.07,1031.58,987.07Z" transform="translate(-477.48 -408.13)"/><path class="bt" d="M948.46,1066.92s6.25,2.31,10.32,2.19a46,46,0,0,0,12.18-1.88s14.17,35.37,15.63,54.07c1.1,14.13,1.65,34.47-5.31,42.18-12.89,4.83-23.16,3.69-34.38-.62-4.45-21.61-6.35-29.86-6.25-45C940.77,1100.68,948.46,1066.92,948.46,1066.92Z" transform="translate(-477.48 -408.13)"/><path class="bu" d="M894.28,886.8c18.87,13,38,25.63,61.4,27.53,19.75-2.19,36.57-7.44,60.94-27.88.19,17-9.34,30.47-25.78,36.47l16.59,1.53-44.81,16.79-13.41-.1-43.68-17,16.87-1.12C909.34,916.92,899.46,914.11,894.28,886.8Z" transform="translate(-477.48 -408.13)"/><path class="bu" d="M1006.59,855.73c1.9.17-.09-8.9,4.78-11.06,15.28-6.19,13.88-2.15,29.91-7.12,3.93-1.22,9-4.5,11.15-9.66s2-14.94.57-12.56c-4.14,6.9-23.42,5.55-23,8.53,1.53,10.26-7,10-12.38,8.62-6.67-2-2.9-7.31-4.4-9.56s-9.73,5.39-12.47,9.94a18.07,18.07,0,0,0-2.25,11.81c.49,4.59,5.05,10.8,8.06,11.06Z" transform="translate(-477.48 -408.13)"/><path class="bu" d="M901.4,861.27s9-6.76,9.1-17.54-16.68-22.3-15.47-16.87c.76,3.43,2.37,9.33-8.25,9.37s-6.89-4.56-8.44-9.28c-1.16-3.53-8.93-1.9-13.41-2.81-8-1.63-8.38-8-9.28-6.19-2.77,5.79,1.41,14.35,1.41,14.35,5.31,6.47,10.34,9.28,17.25,10.22,8.59,2.28,19.15,1.46,25.22,7.68C899.53,850.2,902.05,853.91,901.4,861.27Z" transform="translate(-477.48 -408.13)"/><path class="bv" d="M962.62,941.23v41.82h65.53c6.88,0,0,20.62,0,20.62h-147s-6.87-20.73,0-20.62c8.5.12,67.88,0,67.88,0v-42Z" transform="translate(-477.48 -408.13)"/><path class="bw" d="M883.91,1004.58c4,.07,132.28,0,142.54,0,6.6,0,3.21,17.27-9.47,32.34-13.66,16.23-37.75,30.33-61.28,31-23.22.67-46.28-9.77-59.92-26.16-13-15.65-17.33-37.28-11.86-37.19Z" transform="translate(-477.48 -408.13)"/><path class="bx" d="M886.78,1004.05l7.87-16.13,8.25,16.5Z" transform="translate(-477.48 -408.13)"/><path class="bx" d="M1008.28,1004.42l8.25-15.75,6.75,15.38Z" transform="translate(-477.48 -408.13)"/><path class="by" d="M1120,823.59c2.07,7.79,1.57,11.8-.68,17.3,13.38-12.88,30.27-19.55,40.13-38.65,0,0,2.07-7,1.35-10.4-2.1-10.09-5.5-23.54-8.24-28.37-5.34-9.39-17.3-20-24.73-20.54-17.94-1.38-48.16,23.06-48.1,32,1.42,9.54,18.85,42.07,28.24,40.12s15-6.27,19-9.32c.15-3.35-2.11-11.5-5.54-15.94-2.25-2.93-9.18-6.22-9.18-6.22s-5.88-1.8-4.46-7.29,12.62-9.06,15.8-8.65c3.15,4,11.85,8.5,16,14.33a22.1,22.1,0,0,1,3.63,8.91c.66,3.82.73,10.16-.54,11.62-6.16,7.1-22.7,21.08-22.7,21.08Z" transform="translate(-477.48 -408.13)"/><path class="bz" d="M787.37,837.29c-2.07-5.7-2.28-11.16-.62-17.86l-21.58-19.71c-4.63-9.47-1.94-14,1-19.84,4-6.12,4.42-6.16,8.31-7.69,0,0,6.36-8.11,11.16-8.06,3.88,0,12.84,1.47,13.5,9.42.35,4.17-9.06,8.68-9.06,8.68-9.13,5.66-9.22,11.85-9.92,16.25-.78,5,7,7.11,11.41,9.92,6.78,3.47,13.68,2.6,18.48-4.47,8.14-10,12.75-20.83,16.62-32.36-1.75-12.05-25.35-30.31-45.89-32.86-6.27.42-17.6,9-17.6,9-14,15-14.5,28-17.12,45.76,3.1,10.7,7.32,14.09,13,21,0,0,18.11,13.48,28.28,22.82Z" transform="translate(-477.48 -408.13)"/></svg>
