<svg xmlns="http://www.w3.org/2000/svg" viewBox="0 0 69.93 69.93"><defs><style>.cls-1{fill:none;}.cls-2{fill:#1a3b8b;}.cls-3{fill:#4f6ef7;}.cls-4{fill:#badefc;}.cls-5{fill:#fff;}</style></defs><title>Asset 7@100x</title><g id="Layer_2" data-name="Layer 2"><g id="Layer_1-2" data-name="Layer 1"><path class="cls-1" d="M35,69.93a34.94,34.94,0,0,0,8.74-1.1A34.94,34.94,0,0,1,35,69.93Z"/><path class="cls-1" d="M35,0h0A34.94,34.94,0,0,1,43.7,1.1,34.94,34.94,0,0,0,35,0Z"/><path class="cls-1" d="M47,67.81c-1.07.39-2.17.73-3.29,1C44.82,68.54,45.92,68.2,47,67.81Z"/><path class="cls-1" d="M43.7,1.1c1.12.29,2.22.63,3.29,1C45.92,1.73,44.82,1.39,43.7,1.1Z"/><path class="cls-2" d="M5.73,37.16,12.8,24.78,22.72,43l6.14-12.29,7,5.28,6.92-8a6.69,6.69,0,0,1,5-6.27V2.45c-.28-.11-.55-.23-.83-.33-1.07-.39-2.17-.73-3.29-1A35,35,0,0,0,0,33.21H1.78Z"/><path class="cls-2" d="M69.93,35a35.55,35.55,0,0,0-.65-6.73l-4.13,7.23L55.8,30.38a6.7,6.7,0,0,1-4.64,4.28V65.87a35.94,35.94,0,0,1-3.34,1.52V34.66a6.7,6.7,0,0,1-3.94-2.83l-7.5,8.66-6.32-4.74L22.85,50.17,12.73,31.63l-6.27,11L.39,36.55H0c0-.54,0-1.08,0-1.62v0A35,35,0,0,0,43.7,68.83c1.12-.29,2.22-.63,3.29-1A35,35,0,0,0,69.93,35Z"/><path class="cls-2" d="M56,26.69,63.87,31l4.18-7.31A35,35,0,0,0,51.16,4V21.71A6.71,6.71,0,0,1,56,26.69Z"/><path class="cls-3" d="M56,26.69a6.58,6.58,0,0,1-.21,3.69l9.35,5.08,4.13-7.23a35.52,35.52,0,0,0-1.23-4.58L63.87,31Z"/><path class="cls-3" d="M.39,36.55l6.07,6.06,6.27-11L22.85,50.17l7.21-14.42,6.32,4.74,7.5-8.66a6.68,6.68,0,0,1-1.08-3.64,1.48,1.48,0,0,1,0-.21l-6.92,8-7-5.28L22.72,43,12.8,24.78,5.73,37.16,1.78,33.21H0c0,.57,0,1.14,0,1.72S0,36,0,36.55Z"/><path class="cls-4" d="M49.49,21.5a7.07,7.07,0,0,1,1.67.21V4a33.58,33.58,0,0,0-3.34-1.53V21.71A7,7,0,0,1,49.49,21.5Z"/><path class="cls-4" d="M47.82,34.66V67.39a35.94,35.94,0,0,0,3.34-1.52V34.66a6.45,6.45,0,0,1-3.34,0Z"/><path class="cls-5" d="M56,26.69a6.71,6.71,0,0,0-4.85-5,6.75,6.75,0,0,0-3.34,0,6.69,6.69,0,0,0-5,6.27,1.48,1.48,0,0,0,0,.21,6.68,6.68,0,0,0,5,6.47,6.45,6.45,0,0,0,3.34,0,6.68,6.68,0,0,0,4.85-8Z"/></g></g></svg>