<svg xmlns="http://www.w3.org/2000/svg" viewBox="0 0 253.82 253.82">
  <defs>
    <style>
      .cls-1{fill:#fff;}.cls-2{fill:#214497;}.cls-3{fill:#1a2c57;}.cls-3,.cls-4,.cls-5{fill-rule:evenodd;}.cls-4{fill:#4f6ef7;}.cls-5{fill:#2a3f90;}
    </style>
  </defs>
  <g id="wallet-hero--qr-code__layer-1" data-name="wallet-hero--qr-code__layer-1">
    <g id="wallet-hero--qr-code__layer-2" data-name="wallet-hero--qr-code__layer-2">
      <rect class="cls-1" width="253.82" height="253.82" rx="34.59"/>
      <path class="cls-2" d="M20.26,96.93a3.35,3.35,0,1,0-3.35-3.35A3.35,3.35,0,0,0,20.26,96.93Z"/>
      <path class="cls-2" d="M20.26,110.23a3.35,3.35,0,1,0-3.35-3.35A3.35,3.35,0,0,0,20.26,110.23Z"/>
      <path class="cls-2" d="M20.26,116.89a3.35,3.35,0,1,0-3.35-3.35A3.35,3.35,0,0,0,20.26,116.89Z"/>
      <path class="cls-2" d="M20.26,136.89a3.35,3.35,0,1,0-3.35-3.35A3.35,3.35,0,0,0,20.26,136.89Z"/>
      <path class="cls-2" d="M20.26,143.55a3.35,3.35,0,1,0-3.35-3.35A3.35,3.35,0,0,0,20.26,143.55Z"/>
      <path class="cls-2" d="M20.26,163.55a3.35,3.35,0,1,0-3.35-3.35A3.35,3.35,0,0,0,20.26,163.55Z"/>
      <path class="cls-2" d="M20.26,170.25a3.35,3.35,0,1,0-3.35-3.35A3.35,3.35,0,0,0,20.26,170.25Z"/>
      <path class="cls-2" d="M20.26,183.56a3.35,3.35,0,1,0-3.35-3.35A3.35,3.35,0,0,0,20.26,183.56Z"/>
      <path class="cls-2" d="M26.91,83.57a3.35,3.35,0,1,0-3.34-3.34A3.34,3.34,0,0,0,26.91,83.57Z"/>
      <path class="cls-2" d="M26.91,103.58a3.35,3.35,0,1,0-3.34-3.35A3.35,3.35,0,0,0,26.91,103.58Z"/>
      <path class="cls-2" d="M26.91,110.23a3.35,3.35,0,1,0-3.34-3.35A3.35,3.35,0,0,0,26.91,110.23Z"/>
      <path class="cls-2" d="M26.91,123.59a3.35,3.35,0,1,0-3.34-3.35A3.35,3.35,0,0,0,26.91,123.59Z"/>
      <path class="cls-2" d="M26.91,130.24a3.35,3.35,0,1,0-3.34-3.35A3.35,3.35,0,0,0,26.91,130.24Z"/>
      <path class="cls-2" d="M26.91,136.89a3.35,3.35,0,1,0-3.34-3.35A3.35,3.35,0,0,0,26.91,136.89Z"/>
      <path class="cls-2" d="M26.91,156.9a3.35,3.35,0,1,0-3.34-3.35A3.35,3.35,0,0,0,26.91,156.9Z"/>
      <path class="cls-2" d="M26.91,183.56a3.35,3.35,0,1,0-3.34-3.35A3.35,3.35,0,0,0,26.91,183.56Z"/>
      <path class="cls-2" d="M33.57,76.92a3.35,3.35,0,1,0-3.35-3.35A3.35,3.35,0,0,0,33.57,76.92Z"/>
      <path class="cls-2" d="M33.57,83.57a3.35,3.35,0,1,0-3.35-3.34A3.34,3.34,0,0,0,33.57,83.57Z"/>
      <path class="cls-2" d="M33.57,103.58a3.35,3.35,0,1,0-3.35-3.35A3.35,3.35,0,0,0,33.57,103.58Z"/>
      <path class="cls-2" d="M33.57,116.89a3.35,3.35,0,1,0-3.35-3.35A3.35,3.35,0,0,0,33.57,116.89Z"/>
      <path class="cls-2" d="M33.57,150.25a3.35,3.35,0,1,0-3.35-3.35A3.35,3.35,0,0,0,33.57,150.25Z"/>
      <path class="cls-2" d="M33.57,163.55a3.35,3.35,0,1,0-3.35-3.35A3.35,3.35,0,0,0,33.57,163.55Z"/>
      <path class="cls-2" d="M33.57,176.9a3.35,3.35,0,1,0-3.35-3.35A3.35,3.35,0,0,0,33.57,176.9Z"/>
      <path class="cls-2" d="M33.57,183.56a3.35,3.35,0,1,0-3.35-3.35A3.35,3.35,0,0,0,33.57,183.56Z"/>
      <path class="cls-2" d="M40.22,76.92a3.35,3.35,0,1,0-3.35-3.35A3.35,3.35,0,0,0,40.22,76.92Z"/>
      <path class="cls-2" d="M40.22,83.57a3.35,3.35,0,1,0-3.35-3.34A3.34,3.34,0,0,0,40.22,83.57Z"/>
      <path class="cls-2" d="M40.22,90.23a3.35,3.35,0,1,0-3.35-3.35A3.35,3.35,0,0,0,40.22,90.23Z"/>
      <path class="cls-2" d="M40.22,110.23a3.35,3.35,0,1,0-3.35-3.35A3.35,3.35,0,0,0,40.22,110.23Z"/>
      <path class="cls-2" d="M40.22,130.24a3.35,3.35,0,1,0-3.35-3.35A3.35,3.35,0,0,0,40.22,130.24Z"/>
      <path class="cls-2" d="M40.22,136.89a3.35,3.35,0,1,0-3.35-3.35A3.35,3.35,0,0,0,40.22,136.89Z"/>
      <path class="cls-2" d="M40.22,143.55a3.35,3.35,0,1,0-3.35-3.35A3.35,3.35,0,0,0,40.22,143.55Z"/>
      <path class="cls-2" d="M40.22,150.25a3.35,3.35,0,1,0-3.35-3.35A3.35,3.35,0,0,0,40.22,150.25Z"/>
      <path class="cls-2" d="M40.22,163.55a3.35,3.35,0,1,0-3.35-3.35A3.35,3.35,0,0,0,40.22,163.55Z"/>
      <path class="cls-2" d="M40.22,176.9a3.35,3.35,0,1,0-3.35-3.35A3.35,3.35,0,0,0,40.22,176.9Z"/>
      <path class="cls-2" d="M40.22,183.56a3.35,3.35,0,1,0-3.35-3.35A3.35,3.35,0,0,0,40.22,183.56Z"/>
      <path class="cls-2" d="M46.92,96.93a3.35,3.35,0,1,0-3.35-3.35A3.35,3.35,0,0,0,46.92,96.93Z"/>
      <path class="cls-2" d="M46.92,110.23a3.35,3.35,0,1,0-3.35-3.35A3.35,3.35,0,0,0,46.92,110.23Z"/>
      <path class="cls-2" d="M46.92,130.24a3.35,3.35,0,1,0-3.35-3.35A3.35,3.35,0,0,0,46.92,130.24Z"/>
      <path class="cls-2" d="M46.92,150.25a3.35,3.35,0,1,0-3.35-3.35A3.35,3.35,0,0,0,46.92,150.25Z"/>
      <path class="cls-2" d="M46.92,170.25a3.35,3.35,0,1,0-3.35-3.35A3.35,3.35,0,0,0,46.92,170.25Z"/>
      <path class="cls-2" d="M46.92,176.9a3.35,3.35,0,1,0-3.35-3.35A3.35,3.35,0,0,0,46.92,176.9Z"/>
      <path class="cls-2" d="M46.92,183.56a3.35,3.35,0,1,0-3.35-3.35A3.35,3.35,0,0,0,46.92,183.56Z"/>
      <path class="cls-2" d="M53.58,83.57a3.35,3.35,0,1,0-3.35-3.34A3.33,3.33,0,0,0,53.58,83.57Z"/>
      <path class="cls-2" d="M53.58,90.23a3.35,3.35,0,1,0-3.35-3.35A3.34,3.34,0,0,0,53.58,90.23Z"/>
      <path class="cls-2" d="M53.58,110.23a3.35,3.35,0,1,0-3.35-3.35A3.34,3.34,0,0,0,53.58,110.23Z"/>
      <path class="cls-2" d="M53.58,116.89a3.35,3.35,0,1,0-3.35-3.35A3.34,3.34,0,0,0,53.58,116.89Z"/>
      <path class="cls-2" d="M53.58,130.24a3.35,3.35,0,1,0-3.35-3.35A3.34,3.34,0,0,0,53.58,130.24Z"/>
      <path class="cls-2" d="M53.58,136.89a3.35,3.35,0,1,0-3.35-3.35A3.34,3.34,0,0,0,53.58,136.89Z"/>
      <path class="cls-2" d="M53.58,150.25a3.35,3.35,0,1,0-3.35-3.35A3.34,3.34,0,0,0,53.58,150.25Z"/>
      <path class="cls-2" d="M53.58,156.9a3.35,3.35,0,1,0-3.35-3.35A3.34,3.34,0,0,0,53.58,156.9Z"/>
      <path class="cls-2" d="M53.58,176.9a3.35,3.35,0,1,0-3.35-3.35A3.34,3.34,0,0,0,53.58,176.9Z"/>
      <path class="cls-2" d="M53.58,183.56a3.35,3.35,0,1,0-3.35-3.35A3.34,3.34,0,0,0,53.58,183.56Z"/>
      <path class="cls-2" d="M60.23,76.92a3.35,3.35,0,1,0-3.35-3.35A3.35,3.35,0,0,0,60.23,76.92Z"/>
      <path class="cls-2" d="M60.23,90.23a3.35,3.35,0,1,0-3.35-3.35A3.35,3.35,0,0,0,60.23,90.23Z"/>
      <path class="cls-2" d="M60.23,103.58a3.35,3.35,0,1,0-3.35-3.35A3.35,3.35,0,0,0,60.23,103.58Z"/>
      <path class="cls-2" d="M60.23,116.89a3.35,3.35,0,1,0-3.35-3.35A3.35,3.35,0,0,0,60.23,116.89Z"/>
      <path class="cls-2" d="M60.23,130.24a3.35,3.35,0,1,0-3.35-3.35A3.35,3.35,0,0,0,60.23,130.24Z"/>
      <path class="cls-2" d="M60.23,143.55a3.35,3.35,0,1,0-3.35-3.35A3.35,3.35,0,0,0,60.23,143.55Z"/>
      <path class="cls-2" d="M60.23,156.9a3.35,3.35,0,1,0-3.35-3.35A3.35,3.35,0,0,0,60.23,156.9Z"/>
      <path class="cls-2" d="M60.23,170.25a3.35,3.35,0,1,0-3.35-3.35A3.35,3.35,0,0,0,60.23,170.25Z"/>
      <path class="cls-2" d="M60.23,183.56a3.35,3.35,0,1,0-3.35-3.35A3.35,3.35,0,0,0,60.23,183.56Z"/>
      <path class="cls-2" d="M66.93,96.93a3.35,3.35,0,1,0-3.35-3.35A3.35,3.35,0,0,0,66.93,96.93Z"/>
      <path class="cls-2" d="M66.93,123.59a3.35,3.35,0,1,0-3.35-3.35A3.35,3.35,0,0,0,66.93,123.59Z"/>
      <path class="cls-2" d="M66.93,136.89a3.35,3.35,0,1,0-3.35-3.35A3.35,3.35,0,0,0,66.93,136.89Z"/>
      <path class="cls-2" d="M66.93,150.25a3.35,3.35,0,1,0-3.35-3.35A3.35,3.35,0,0,0,66.93,150.25Z"/>
      <path class="cls-2" d="M66.93,176.9a3.35,3.35,0,1,0-3.35-3.35A3.35,3.35,0,0,0,66.93,176.9Z"/>
      <path class="cls-2" d="M66.93,183.56a3.35,3.35,0,1,0-3.35-3.35A3.35,3.35,0,0,0,66.93,183.56Z"/>
      <path class="cls-2" d="M73.59,43.56a3.35,3.35,0,1,0-3.35-3.35A3.35,3.35,0,0,0,73.59,43.56Z"/>
      <path class="cls-2" d="M73.59,50.26a3.35,3.35,0,1,0-3.35-3.35A3.35,3.35,0,0,0,73.59,50.26Z"/>
      <path class="cls-2" d="M73.59,63.57a3.35,3.35,0,1,0-3.35-3.35A3.35,3.35,0,0,0,73.59,63.57Z"/>
      <path class="cls-2" d="M73.59,70.26a3.35,3.35,0,1,0-3.35-3.34A3.34,3.34,0,0,0,73.59,70.26Z"/>
      <path class="cls-2" d="M73.59,96.93a3.35,3.35,0,1,0-3.35-3.35A3.35,3.35,0,0,0,73.59,96.93Z"/>
      <path class="cls-2" d="M73.59,110.23a3.35,3.35,0,1,0-3.35-3.35A3.35,3.35,0,0,0,73.59,110.23Z"/>
      <path class="cls-2" d="M73.59,130.24a3.35,3.35,0,1,0-3.35-3.35A3.35,3.35,0,0,0,73.59,130.24Z"/>
      <path class="cls-2" d="M73.59,143.55a3.35,3.35,0,1,0-3.35-3.35A3.35,3.35,0,0,0,73.59,143.55Z"/>
      <path class="cls-2" d="M73.59,150.25a3.35,3.35,0,1,0-3.35-3.35A3.35,3.35,0,0,0,73.59,150.25Z"/>
      <path class="cls-2" d="M73.59,156.9a3.35,3.35,0,1,0-3.35-3.35A3.35,3.35,0,0,0,73.59,156.9Z"/>
      <path class="cls-2" d="M73.59,176.9a3.35,3.35,0,1,0-3.35-3.35A3.35,3.35,0,0,0,73.59,176.9Z"/>
      <path class="cls-2" d="M73.59,183.56a3.35,3.35,0,1,0-3.35-3.35A3.35,3.35,0,0,0,73.59,183.56Z"/>
      <path class="cls-2" d="M73.59,216.87a3.35,3.35,0,1,0-3.35-3.35A3.35,3.35,0,0,0,73.59,216.87Z"/>
      <path class="cls-2" d="M73.59,223.57a3.35,3.35,0,1,0-3.35-3.35A3.35,3.35,0,0,0,73.59,223.57Z"/>
      <path class="cls-2" d="M80.24,23.6a3.35,3.35,0,1,0-3.35-3.35A3.35,3.35,0,0,0,80.24,23.6Z"/>
      <path class="cls-2" d="M80.24,36.91a3.35,3.35,0,1,0-3.35-3.35A3.35,3.35,0,0,0,80.24,36.91Z"/>
      <path class="cls-2" d="M80.24,43.56a3.35,3.35,0,1,0-3.35-3.35A3.35,3.35,0,0,0,80.24,43.56Z"/>
      <path class="cls-2" d="M80.24,50.26a3.35,3.35,0,1,0-3.35-3.35A3.35,3.35,0,0,0,80.24,50.26Z"/>
      <path class="cls-2" d="M80.24,70.26a3.35,3.35,0,1,0-3.35-3.34A3.34,3.34,0,0,0,80.24,70.26Z"/>
      <path class="cls-2" d="M80.24,90.23a3.35,3.35,0,1,0-3.35-3.35A3.35,3.35,0,0,0,80.24,90.23Z"/>
      <path class="cls-2" d="M80.24,130.24a3.35,3.35,0,1,0-3.35-3.35A3.35,3.35,0,0,0,80.24,130.24Z"/>
      <path class="cls-2" d="M80.24,136.89a3.35,3.35,0,1,0-3.35-3.35A3.35,3.35,0,0,0,80.24,136.89Z"/>
      <path class="cls-2" d="M80.24,150.25a3.35,3.35,0,1,0-3.35-3.35A3.35,3.35,0,0,0,80.24,150.25Z"/>
      <path class="cls-2" d="M80.24,156.9a3.35,3.35,0,1,0-3.35-3.35A3.35,3.35,0,0,0,80.24,156.9Z"/>
      <path class="cls-2" d="M80.24,163.55a3.35,3.35,0,1,0-3.35-3.35A3.35,3.35,0,0,0,80.24,163.55Z"/>
      <path class="cls-2" d="M80.24,170.25a3.35,3.35,0,1,0-3.35-3.35A3.35,3.35,0,0,0,80.24,170.25Z"/>
      <path class="cls-2" d="M80.24,176.9a3.35,3.35,0,1,0-3.35-3.35A3.35,3.35,0,0,0,80.24,176.9Z"/>
      <path class="cls-2" d="M80.24,190.21a3.35,3.35,0,1,0-3.35-3.35A3.35,3.35,0,0,0,80.24,190.21Z"/>
      <path class="cls-2" d="M80.24,203.56a3.35,3.35,0,1,0-3.35-3.35A3.35,3.35,0,0,0,80.24,203.56Z"/>
      <path class="cls-2" d="M80.24,210.22a3.35,3.35,0,1,0-3.35-3.35A3.35,3.35,0,0,0,80.24,210.22Z"/>
      <path class="cls-2" d="M80.24,216.87a3.35,3.35,0,1,0-3.35-3.35A3.35,3.35,0,0,0,80.24,216.87Z"/>
      <path class="cls-2" d="M86.89,36.91a3.35,3.35,0,1,0-3.35-3.35A3.35,3.35,0,0,0,86.89,36.91Z"/>
      <path class="cls-2" d="M86.89,43.56a3.35,3.35,0,1,0-3.35-3.35A3.35,3.35,0,0,0,86.89,43.56Z"/>
      <path class="cls-2" d="M86.89,56.91a3.35,3.35,0,1,0-3.35-3.35A3.35,3.35,0,0,0,86.89,56.91Z"/>
      <path class="cls-2" d="M86.89,63.57a3.35,3.35,0,1,0-3.35-3.35A3.35,3.35,0,0,0,86.89,63.57Z"/>
      <path class="cls-2" d="M86.89,70.26a3.35,3.35,0,1,0-3.35-3.34A3.34,3.34,0,0,0,86.89,70.26Z"/>
      <path class="cls-2" d="M86.89,83.57a3.35,3.35,0,1,0-3.35-3.34A3.34,3.34,0,0,0,86.89,83.57Z"/>
      <path class="cls-2" d="M86.89,96.93a3.35,3.35,0,1,0-3.35-3.35A3.35,3.35,0,0,0,86.89,96.93Z"/>
      <path class="cls-2" d="M86.89,123.59a3.35,3.35,0,1,0-3.35-3.35A3.35,3.35,0,0,0,86.89,123.59Z"/>
      <path class="cls-2" d="M86.89,136.89a3.35,3.35,0,1,0-3.35-3.35A3.35,3.35,0,0,0,86.89,136.89Z"/>
      <path class="cls-2" d="M86.89,170.25a3.35,3.35,0,1,0-3.35-3.35A3.35,3.35,0,0,0,86.89,170.25Z"/>
      <path class="cls-2" d="M86.89,176.9a3.35,3.35,0,1,0-3.35-3.35A3.35,3.35,0,0,0,86.89,176.9Z"/>
      <path class="cls-2" d="M86.89,183.56a3.35,3.35,0,1,0-3.35-3.35A3.35,3.35,0,0,0,86.89,183.56Z"/>
      <path class="cls-2" d="M86.89,196.91a3.35,3.35,0,1,0-3.35-3.35A3.35,3.35,0,0,0,86.89,196.91Z"/>
      <path class="cls-2" d="M86.89,203.56a3.35,3.35,0,1,0-3.35-3.35A3.35,3.35,0,0,0,86.89,203.56Z"/>
      <path class="cls-2" d="M86.89,216.87a3.35,3.35,0,1,0-3.35-3.35A3.35,3.35,0,0,0,86.89,216.87Z"/>
      <path class="cls-2" d="M86.89,230.22a3.35,3.35,0,1,0-3.35-3.35A3.35,3.35,0,0,0,86.89,230.22Z"/>
      <path class="cls-2" d="M86.89,236.88a3.35,3.35,0,1,0-3.35-3.35A3.35,3.35,0,0,0,86.89,236.88Z"/>
      <path class="cls-2" d="M93.59,30.26a3.35,3.35,0,1,0-3.34-3.35A3.35,3.35,0,0,0,93.59,30.26Z"/>
      <path class="cls-2" d="M93.59,36.91a3.35,3.35,0,1,0-3.34-3.35A3.35,3.35,0,0,0,93.59,36.91Z"/>
      <path class="cls-2" d="M93.59,50.26a3.35,3.35,0,1,0-3.34-3.35A3.35,3.35,0,0,0,93.59,50.26Z"/>
      <path class="cls-2" d="M93.59,56.91a3.35,3.35,0,1,0-3.34-3.35A3.35,3.35,0,0,0,93.59,56.91Z"/>
      <path class="cls-2" d="M93.59,90.23a3.35,3.35,0,1,0-3.34-3.35A3.35,3.35,0,0,0,93.59,90.23Z"/>
      <path class="cls-2" d="M93.59,103.58a3.35,3.35,0,1,0-3.34-3.35A3.35,3.35,0,0,0,93.59,103.58Z"/>
      <path class="cls-2" d="M93.59,116.89a3.35,3.35,0,1,0-3.34-3.35A3.35,3.35,0,0,0,93.59,116.89Z"/>
      <path class="cls-2" d="M93.59,130.24a3.35,3.35,0,1,0-3.34-3.35A3.35,3.35,0,0,0,93.59,130.24Z"/>
      <path class="cls-2" d="M93.59,143.55a3.35,3.35,0,1,0-3.34-3.35A3.35,3.35,0,0,0,93.59,143.55Z"/>
      <path class="cls-2" d="M93.59,163.55a3.35,3.35,0,1,0-3.34-3.35A3.35,3.35,0,0,0,93.59,163.55Z"/>
      <path class="cls-2" d="M93.59,170.25a3.35,3.35,0,1,0-3.34-3.35A3.35,3.35,0,0,0,93.59,170.25Z"/>
      <path class="cls-2" d="M93.59,203.56a3.35,3.35,0,1,0-3.34-3.35A3.35,3.35,0,0,0,93.59,203.56Z"/>
      <path class="cls-2" d="M93.59,210.22a3.35,3.35,0,1,0-3.34-3.35A3.35,3.35,0,0,0,93.59,210.22Z"/>
      <path class="cls-2" d="M93.59,223.57a3.35,3.35,0,1,0-3.34-3.35A3.35,3.35,0,0,0,93.59,223.57Z"/>
      <path class="cls-2" d="M93.59,236.88a3.35,3.35,0,1,0-3.34-3.35A3.35,3.35,0,0,0,93.59,236.88Z"/>
      <path class="cls-2" d="M100.25,23.6a3.35,3.35,0,1,0-3.35-3.35A3.35,3.35,0,0,0,100.25,23.6Z"/>
      <path class="cls-2" d="M100.25,30.26a3.35,3.35,0,1,0-3.35-3.35A3.35,3.35,0,0,0,100.25,30.26Z"/>
      <path class="cls-2" d="M100.25,36.91a3.35,3.35,0,1,0-3.35-3.35A3.35,3.35,0,0,0,100.25,36.91Z"/>
      <path class="cls-2" d="M100.25,43.56a3.35,3.35,0,1,0-3.35-3.35A3.35,3.35,0,0,0,100.25,43.56Z"/>
      <path class="cls-2" d="M100.25,50.26a3.35,3.35,0,1,0-3.35-3.35A3.35,3.35,0,0,0,100.25,50.26Z"/>
      <path class="cls-2" d="M100.25,63.57a3.35,3.35,0,1,0-3.35-3.35A3.35,3.35,0,0,0,100.25,63.57Z"/>
      <path class="cls-2" d="M100.25,70.26a3.35,3.35,0,1,0-3.35-3.34A3.34,3.34,0,0,0,100.25,70.26Z"/>
      <path class="cls-2" d="M100.25,90.23a3.35,3.35,0,1,0-3.35-3.35A3.35,3.35,0,0,0,100.25,90.23Z"/>
      <path class="cls-2" d="M100.25,96.93a3.35,3.35,0,1,0-3.35-3.35A3.35,3.35,0,0,0,100.25,96.93Z"/>
      <path class="cls-2" d="M100.25,183.56a3.35,3.35,0,1,0-3.35-3.35A3.35,3.35,0,0,0,100.25,183.56Z"/>
      <path class="cls-2" d="M100.25,196.91a3.35,3.35,0,1,0-3.35-3.35A3.35,3.35,0,0,0,100.25,196.91Z"/>
      <path class="cls-2" d="M100.25,203.56a3.35,3.35,0,1,0-3.35-3.35A3.35,3.35,0,0,0,100.25,203.56Z"/>
      <path class="cls-2" d="M100.25,210.22a3.35,3.35,0,1,0-3.35-3.35A3.35,3.35,0,0,0,100.25,210.22Z"/>
      <path class="cls-2" d="M100.25,230.22a3.35,3.35,0,1,0-3.35-3.35A3.35,3.35,0,0,0,100.25,230.22Z"/>
      <path class="cls-2" d="M100.25,236.88a3.35,3.35,0,1,0-3.35-3.35A3.35,3.35,0,0,0,100.25,236.88Z"/>
      <path class="cls-2" d="M106.9,36.91a3.35,3.35,0,1,0-3.35-3.35A3.35,3.35,0,0,0,106.9,36.91Z"/>
      <path class="cls-2" d="M106.9,56.91a3.35,3.35,0,1,0-3.35-3.35A3.35,3.35,0,0,0,106.9,56.91Z"/>
      <path class="cls-2" d="M106.9,83.57a3.35,3.35,0,1,0-3.35-3.34A3.34,3.34,0,0,0,106.9,83.57Z"/>
      <path class="cls-2" d="M106.9,176.9a3.35,3.35,0,1,0-3.35-3.35A3.35,3.35,0,0,0,106.9,176.9Z"/>
      <path class="cls-2" d="M106.9,190.21a3.35,3.35,0,1,0-3.35-3.35A3.35,3.35,0,0,0,106.9,190.21Z"/>
      <path class="cls-2" d="M106.9,203.56a3.35,3.35,0,1,0-3.35-3.35A3.35,3.35,0,0,0,106.9,203.56Z"/>
      <path class="cls-2" d="M106.9,230.22a3.35,3.35,0,1,0-3.35-3.35A3.35,3.35,0,0,0,106.9,230.22Z"/>
      <path class="cls-2" d="M113.56,43.56a3.35,3.35,0,1,0-3.35-3.35A3.35,3.35,0,0,0,113.56,43.56Z"/>
      <path class="cls-2" d="M113.56,56.91a3.35,3.35,0,1,0-3.35-3.35A3.35,3.35,0,0,0,113.56,56.91Z"/>
      <path class="cls-2" d="M113.56,63.57a3.35,3.35,0,1,0-3.35-3.35A3.35,3.35,0,0,0,113.56,63.57Z"/>
      <path class="cls-2" d="M113.56,70.26a3.35,3.35,0,1,0-3.35-3.34A3.34,3.34,0,0,0,113.56,70.26Z"/>
      <path class="cls-2" d="M113.56,90.23a3.35,3.35,0,1,0-3.35-3.35A3.35,3.35,0,0,0,113.56,90.23Z"/>
      <path class="cls-2" d="M113.56,96.93a3.35,3.35,0,1,0-3.35-3.35A3.35,3.35,0,0,0,113.56,96.93Z"/>
      <path class="cls-2" d="M113.56,203.56a3.35,3.35,0,1,0-3.35-3.35A3.35,3.35,0,0,0,113.56,203.56Z"/>
      <path class="cls-2" d="M113.56,216.87a3.35,3.35,0,1,0-3.35-3.35A3.35,3.35,0,0,0,113.56,216.87Z"/>
      <path class="cls-2" d="M120.26,30.26a3.35,3.35,0,1,0-3.35-3.35A3.35,3.35,0,0,0,120.26,30.26Z"/>
      <path class="cls-2" d="M120.26,50.26a3.35,3.35,0,1,0-3.35-3.35A3.35,3.35,0,0,0,120.26,50.26Z"/>
      <path class="cls-2" d="M120.26,70.26a3.35,3.35,0,1,0-3.35-3.34A3.34,3.34,0,0,0,120.26,70.26Z"/>
      <path class="cls-2" d="M120.26,76.92a3.35,3.35,0,1,0-3.35-3.35A3.35,3.35,0,0,0,120.26,76.92Z"/>
      <path class="cls-2" d="M120.26,83.57a3.35,3.35,0,1,0-3.35-3.34A3.34,3.34,0,0,0,120.26,83.57Z"/>
      <path class="cls-2" d="M120.26,96.93a3.35,3.35,0,1,0-3.35-3.35A3.35,3.35,0,0,0,120.26,96.93Z"/>
      <path class="cls-2" d="M120.26,183.56a3.35,3.35,0,1,0-3.35-3.35A3.35,3.35,0,0,0,120.26,183.56Z"/>
      <path class="cls-2" d="M120.26,190.21a3.35,3.35,0,1,0-3.35-3.35A3.35,3.35,0,0,0,120.26,190.21Z"/>
      <path class="cls-2" d="M120.26,203.56a3.35,3.35,0,1,0-3.35-3.35A3.35,3.35,0,0,0,120.26,203.56Z"/>
      <path class="cls-2" d="M120.26,210.22a3.35,3.35,0,1,0-3.35-3.35A3.35,3.35,0,0,0,120.26,210.22Z"/>
      <path class="cls-2" d="M120.26,223.57a3.35,3.35,0,1,0-3.35-3.35A3.35,3.35,0,0,0,120.26,223.57Z"/>
      <path class="cls-2" d="M120.26,236.88a3.35,3.35,0,1,0-3.35-3.35A3.35,3.35,0,0,0,120.26,236.88Z"/>
      <path class="cls-2" d="M126.91,23.6a3.35,3.35,0,1,0-3.35-3.35A3.35,3.35,0,0,0,126.91,23.6Z"/>
      <path class="cls-2" d="M126.91,30.26a3.35,3.35,0,1,0-3.35-3.35A3.35,3.35,0,0,0,126.91,30.26Z"/>
      <path class="cls-2" d="M126.91,36.91a3.35,3.35,0,1,0-3.35-3.35A3.35,3.35,0,0,0,126.91,36.91Z"/>
      <path class="cls-2" d="M126.91,43.56a3.35,3.35,0,1,0-3.35-3.35A3.35,3.35,0,0,0,126.91,43.56Z"/>
      <path class="cls-2" d="M126.91,56.91a3.35,3.35,0,1,0-3.35-3.35A3.35,3.35,0,0,0,126.91,56.91Z"/>
      <path class="cls-2" d="M126.91,63.57a3.35,3.35,0,1,0-3.35-3.35A3.35,3.35,0,0,0,126.91,63.57Z"/>
      <path class="cls-2" d="M126.91,190.21a3.35,3.35,0,1,0-3.35-3.35A3.35,3.35,0,0,0,126.91,190.21Z"/>
      <path class="cls-2" d="M126.91,196.91a3.35,3.35,0,1,0-3.35-3.35A3.35,3.35,0,0,0,126.91,196.91Z"/>
      <path class="cls-2" d="M126.91,203.56a3.35,3.35,0,1,0-3.35-3.35A3.35,3.35,0,0,0,126.91,203.56Z"/>
      <path class="cls-2" d="M126.91,210.22a3.35,3.35,0,1,0-3.35-3.35A3.35,3.35,0,0,0,126.91,210.22Z"/>
      <path class="cls-2" d="M126.91,216.87a3.35,3.35,0,1,0-3.35-3.35A3.35,3.35,0,0,0,126.91,216.87Z"/>
      <path class="cls-2" d="M126.91,236.88a3.35,3.35,0,1,0-3.35-3.35A3.35,3.35,0,0,0,126.91,236.88Z"/>
      <path class="cls-2" d="M133.57,56.91a3.35,3.35,0,1,0-3.35-3.35A3.35,3.35,0,0,0,133.57,56.91Z"/>
      <path class="cls-2" d="M133.57,83.57a3.35,3.35,0,1,0-3.35-3.34A3.34,3.34,0,0,0,133.57,83.57Z"/>
      <path class="cls-2" d="M133.57,170.25a3.35,3.35,0,1,0-3.35-3.35A3.35,3.35,0,0,0,133.57,170.25Z"/>
      <path class="cls-2" d="M133.57,183.56a3.35,3.35,0,1,0-3.35-3.35A3.35,3.35,0,0,0,133.57,183.56Z"/>
      <path class="cls-2" d="M133.57,196.91a3.35,3.35,0,1,0-3.35-3.35A3.35,3.35,0,0,0,133.57,196.91Z"/>
      <path class="cls-2" d="M133.57,203.56a3.35,3.35,0,1,0-3.35-3.35A3.35,3.35,0,0,0,133.57,203.56Z"/>
      <path class="cls-2" d="M133.57,210.22a3.35,3.35,0,1,0-3.35-3.35A3.35,3.35,0,0,0,133.57,210.22Z"/>
      <path class="cls-2" d="M133.57,216.87a3.35,3.35,0,1,0-3.35-3.35A3.35,3.35,0,0,0,133.57,216.87Z"/>
      <path class="cls-2" d="M133.57,236.88a3.35,3.35,0,1,0-3.35-3.35A3.35,3.35,0,0,0,133.57,236.88Z"/>
      <path class="cls-2" d="M140.22,30.26a3.35,3.35,0,1,0-3.35-3.35A3.35,3.35,0,0,0,140.22,30.26Z"/>
      <path class="cls-2" d="M140.22,50.26a3.35,3.35,0,1,0-3.35-3.35A3.35,3.35,0,0,0,140.22,50.26Z"/>
      <path class="cls-2" d="M140.22,56.91a3.35,3.35,0,1,0-3.35-3.35A3.35,3.35,0,0,0,140.22,56.91Z"/>
      <path class="cls-2" d="M140.22,63.57a3.35,3.35,0,1,0-3.35-3.35A3.35,3.35,0,0,0,140.22,63.57Z"/>
      <path class="cls-2" d="M140.22,70.26a3.35,3.35,0,1,0-3.35-3.34A3.34,3.34,0,0,0,140.22,70.26Z"/>
      <path class="cls-2" d="M140.22,76.92a3.35,3.35,0,1,0-3.35-3.35A3.35,3.35,0,0,0,140.22,76.92Z"/>
      <path class="cls-2" d="M140.22,83.57a3.35,3.35,0,1,0-3.35-3.34A3.34,3.34,0,0,0,140.22,83.57Z"/>
      <path class="cls-2" d="M140.22,90.23a3.35,3.35,0,1,0-3.35-3.35A3.35,3.35,0,0,0,140.22,90.23Z"/>
      <path class="cls-2" d="M140.22,96.93a3.35,3.35,0,1,0-3.35-3.35A3.35,3.35,0,0,0,140.22,96.93Z"/>
      <path class="cls-2" d="M140.22,170.25a3.35,3.35,0,1,0-3.35-3.35A3.35,3.35,0,0,0,140.22,170.25Z"/>
      <path class="cls-2" d="M140.22,176.9a3.35,3.35,0,1,0-3.35-3.35A3.35,3.35,0,0,0,140.22,176.9Z"/>
      <path class="cls-2" d="M140.22,190.21a3.35,3.35,0,1,0-3.35-3.35A3.35,3.35,0,0,0,140.22,190.21Z"/>
      <path class="cls-2" d="M140.22,210.22a3.35,3.35,0,1,0-3.35-3.35A3.35,3.35,0,0,0,140.22,210.22Z"/>
      <path class="cls-2" d="M140.22,216.87a3.35,3.35,0,1,0-3.35-3.35A3.35,3.35,0,0,0,140.22,216.87Z"/>
      <path class="cls-2" d="M140.22,223.57a3.35,3.35,0,1,0-3.35-3.35A3.35,3.35,0,0,0,140.22,223.57Z"/>
      <path class="cls-2" d="M140.22,236.88a3.35,3.35,0,1,0-3.35-3.35A3.35,3.35,0,0,0,140.22,236.88Z"/>
      <path class="cls-2" d="M146.92,23.6a3.35,3.35,0,1,0-3.35-3.35A3.35,3.35,0,0,0,146.92,23.6Z"/>
      <path class="cls-2" d="M146.92,50.26a3.35,3.35,0,1,0-3.35-3.35A3.35,3.35,0,0,0,146.92,50.26Z"/>
      <path class="cls-2" d="M146.92,83.57a3.35,3.35,0,1,0-3.35-3.34A3.34,3.34,0,0,0,146.92,83.57Z"/>
      <path class="cls-2" d="M146.92,176.9a3.35,3.35,0,1,0-3.35-3.35A3.35,3.35,0,0,0,146.92,176.9Z"/>
      <path class="cls-2" d="M146.92,183.56a3.35,3.35,0,1,0-3.35-3.35A3.35,3.35,0,0,0,146.92,183.56Z"/>
      <path class="cls-2" d="M146.92,190.21a3.35,3.35,0,1,0-3.35-3.35A3.35,3.35,0,0,0,146.92,190.21Z"/>
      <path class="cls-2" d="M146.92,196.91a3.35,3.35,0,1,0-3.35-3.35A3.35,3.35,0,0,0,146.92,196.91Z"/>
      <path class="cls-2" d="M146.92,216.87a3.35,3.35,0,1,0-3.35-3.35A3.35,3.35,0,0,0,146.92,216.87Z"/>
      <path class="cls-2" d="M146.92,223.57a3.35,3.35,0,1,0-3.35-3.35A3.35,3.35,0,0,0,146.92,223.57Z"/>
      <path class="cls-2" d="M146.92,230.22a3.35,3.35,0,1,0-3.35-3.35A3.35,3.35,0,0,0,146.92,230.22Z"/>
      <path class="cls-2" d="M153.58,23.6a3.35,3.35,0,1,0-3.35-3.35A3.34,3.34,0,0,0,153.58,23.6Z"/>
      <path class="cls-2" d="M153.58,30.26a3.35,3.35,0,1,0-3.35-3.35A3.34,3.34,0,0,0,153.58,30.26Z"/>
      <path class="cls-2" d="M153.58,43.56a3.35,3.35,0,1,0-3.35-3.35A3.34,3.34,0,0,0,153.58,43.56Z"/>
      <path class="cls-2" d="M153.58,50.26a3.35,3.35,0,1,0-3.35-3.35A3.34,3.34,0,0,0,153.58,50.26Z"/>
      <path class="cls-2" d="M153.58,56.91a3.35,3.35,0,1,0-3.35-3.35A3.34,3.34,0,0,0,153.58,56.91Z"/>
      <path class="cls-2" d="M153.58,63.57a3.35,3.35,0,1,0-3.35-3.35A3.34,3.34,0,0,0,153.58,63.57Z"/>
      <path class="cls-2" d="M153.58,70.26a3.35,3.35,0,1,0-3.35-3.34A3.33,3.33,0,0,0,153.58,70.26Z"/>
      <path class="cls-2" d="M153.58,83.57a3.35,3.35,0,1,0-3.35-3.34A3.33,3.33,0,0,0,153.58,83.57Z"/>
      <path class="cls-2" d="M153.58,216.87a3.35,3.35,0,1,0-3.35-3.35A3.34,3.34,0,0,0,153.58,216.87Z"/>
      <path class="cls-2" d="M153.58,236.88a3.35,3.35,0,1,0-3.35-3.35A3.34,3.34,0,0,0,153.58,236.88Z"/>
      <path class="cls-2" d="M160.23,23.6a3.35,3.35,0,1,0-3.35-3.35A3.35,3.35,0,0,0,160.23,23.6Z"/>
      <path class="cls-2" d="M160.23,43.56a3.35,3.35,0,1,0-3.35-3.35A3.35,3.35,0,0,0,160.23,43.56Z"/>
      <path class="cls-2" d="M160.23,176.9a3.35,3.35,0,1,0-3.35-3.35A3.35,3.35,0,0,0,160.23,176.9Z"/>
      <path class="cls-2" d="M160.23,203.56a3.35,3.35,0,1,0-3.35-3.35A3.35,3.35,0,0,0,160.23,203.56Z"/>
      <path class="cls-2" d="M160.23,210.22a3.35,3.35,0,1,0-3.35-3.35A3.35,3.35,0,0,0,160.23,210.22Z"/>
      <path class="cls-2" d="M166.93,23.6a3.35,3.35,0,1,0-3.35-3.35A3.35,3.35,0,0,0,166.93,23.6Z"/>
      <path class="cls-2" d="M166.93,43.56a3.35,3.35,0,1,0-3.35-3.35A3.35,3.35,0,0,0,166.93,43.56Z"/>
      <path class="cls-2" d="M166.93,50.26a3.35,3.35,0,1,0-3.35-3.35A3.35,3.35,0,0,0,166.93,50.26Z"/>
      <path class="cls-2" d="M166.93,63.57a3.35,3.35,0,1,0-3.35-3.35A3.35,3.35,0,0,0,166.93,63.57Z"/>
      <path class="cls-2" d="M166.93,76.92a3.35,3.35,0,1,0-3.35-3.35A3.35,3.35,0,0,0,166.93,76.92Z"/>
      <path class="cls-2" d="M166.93,83.57a3.35,3.35,0,1,0-3.35-3.34A3.34,3.34,0,0,0,166.93,83.57Z"/>
      <path class="cls-2" d="M166.93,103.58a3.35,3.35,0,1,0-3.35-3.35A3.35,3.35,0,0,0,166.93,103.58Z"/>
      <path class="cls-2" d="M166.93,110.23a3.35,3.35,0,1,0-3.35-3.35A3.35,3.35,0,0,0,166.93,110.23Z"/>
      <path class="cls-2" d="M166.93,123.59a3.35,3.35,0,1,0-3.35-3.35A3.35,3.35,0,0,0,166.93,123.59Z"/>
      <path class="cls-2" d="M166.93,136.89a3.35,3.35,0,1,0-3.35-3.35A3.35,3.35,0,0,0,166.93,136.89Z"/>
      <path class="cls-2" d="M166.93,143.55a3.35,3.35,0,1,0-3.35-3.35A3.35,3.35,0,0,0,166.93,143.55Z"/>
      <path class="cls-2" d="M166.93,156.9a3.35,3.35,0,1,0-3.35-3.35A3.35,3.35,0,0,0,166.93,156.9Z"/>
      <path class="cls-2" d="M166.93,163.55a3.35,3.35,0,1,0-3.35-3.35A3.35,3.35,0,0,0,166.93,163.55Z"/>
      <path class="cls-2" d="M166.93,176.9a3.35,3.35,0,1,0-3.35-3.35A3.35,3.35,0,0,0,166.93,176.9Z"/>
      <path class="cls-2" d="M166.93,183.56a3.35,3.35,0,1,0-3.35-3.35A3.35,3.35,0,0,0,166.93,183.56Z"/>
      <path class="cls-2" d="M166.93,196.91a3.35,3.35,0,1,0-3.35-3.35A3.35,3.35,0,0,0,166.93,196.91Z"/>
      <path class="cls-2" d="M166.93,203.56a3.35,3.35,0,1,0-3.35-3.35A3.35,3.35,0,0,0,166.93,203.56Z"/>
      <path class="cls-2" d="M166.93,223.57a3.35,3.35,0,1,0-3.35-3.35A3.35,3.35,0,0,0,166.93,223.57Z"/>
      <path class="cls-2" d="M166.93,236.88a3.35,3.35,0,1,0-3.35-3.35A3.35,3.35,0,0,0,166.93,236.88Z"/>
      <path class="cls-2" d="M173.58,23.6a3.35,3.35,0,1,0-3.35-3.35A3.35,3.35,0,0,0,173.58,23.6Z"/>
      <path class="cls-2" d="M173.58,36.91a3.35,3.35,0,1,0-3.35-3.35A3.35,3.35,0,0,0,173.58,36.91Z"/>
      <path class="cls-2" d="M173.58,43.56a3.35,3.35,0,1,0-3.35-3.35A3.35,3.35,0,0,0,173.58,43.56Z"/>
      <path class="cls-2" d="M173.58,50.26a3.35,3.35,0,1,0-3.35-3.35A3.35,3.35,0,0,0,173.58,50.26Z"/>
      <path class="cls-2" d="M173.58,70.26a3.35,3.35,0,1,0-3.35-3.34A3.34,3.34,0,0,0,173.58,70.26Z"/>
      <path class="cls-2" d="M173.58,76.92a3.35,3.35,0,1,0-3.35-3.35A3.35,3.35,0,0,0,173.58,76.92Z"/>
      <path class="cls-2" d="M173.58,96.93a3.35,3.35,0,1,0-3.35-3.35A3.35,3.35,0,0,0,173.58,96.93Z"/>
      <path class="cls-2" d="M173.58,110.23a3.35,3.35,0,1,0-3.35-3.35A3.35,3.35,0,0,0,173.58,110.23Z"/>
      <path class="cls-2" d="M173.58,123.59a3.35,3.35,0,1,0-3.35-3.35A3.35,3.35,0,0,0,173.58,123.59Z"/>
      <path class="cls-2" d="M173.58,130.24a3.35,3.35,0,1,0-3.35-3.35A3.35,3.35,0,0,0,173.58,130.24Z"/>
      <path class="cls-2" d="M173.58,136.89a3.35,3.35,0,1,0-3.35-3.35A3.35,3.35,0,0,0,173.58,136.89Z"/>
      <path class="cls-2" d="M173.58,150.25a3.35,3.35,0,1,0-3.35-3.35A3.35,3.35,0,0,0,173.58,150.25Z"/>
      <path class="cls-2" d="M173.58,156.9a3.35,3.35,0,1,0-3.35-3.35A3.35,3.35,0,0,0,173.58,156.9Z"/>
      <path class="cls-2" d="M173.58,183.56a3.35,3.35,0,1,0-3.35-3.35A3.35,3.35,0,0,0,173.58,183.56Z"/>
      <path class="cls-2" d="M173.58,203.56a3.35,3.35,0,1,0-3.35-3.35A3.35,3.35,0,0,0,173.58,203.56Z"/>
      <path class="cls-2" d="M173.58,210.22a3.35,3.35,0,1,0-3.35-3.35A3.35,3.35,0,0,0,173.58,210.22Z"/>
      <path class="cls-2" d="M173.58,223.57a3.35,3.35,0,1,0-3.35-3.35A3.35,3.35,0,0,0,173.58,223.57Z"/>
      <path class="cls-2" d="M180.24,23.6a3.35,3.35,0,1,0-3.35-3.35A3.35,3.35,0,0,0,180.24,23.6Z"/>
      <path class="cls-2" d="M180.24,30.26a3.35,3.35,0,1,0-3.35-3.35A3.35,3.35,0,0,0,180.24,30.26Z"/>
      <path class="cls-2" d="M180.24,36.91a3.35,3.35,0,1,0-3.35-3.35A3.35,3.35,0,0,0,180.24,36.91Z"/>
      <path class="cls-2" d="M180.24,43.56a3.35,3.35,0,1,0-3.35-3.35A3.35,3.35,0,0,0,180.24,43.56Z"/>
      <path class="cls-2" d="M180.24,50.26a3.35,3.35,0,1,0-3.35-3.35A3.35,3.35,0,0,0,180.24,50.26Z"/>
      <path class="cls-2" d="M180.24,63.57a3.35,3.35,0,1,0-3.35-3.35A3.35,3.35,0,0,0,180.24,63.57Z"/>
      <path class="cls-2" d="M180.24,76.92a3.35,3.35,0,1,0-3.35-3.35A3.35,3.35,0,0,0,180.24,76.92Z"/>
      <path class="cls-2" d="M180.24,83.57a3.35,3.35,0,1,0-3.35-3.34A3.34,3.34,0,0,0,180.24,83.57Z"/>
      <path class="cls-2" d="M180.24,90.23a3.35,3.35,0,1,0-3.35-3.35A3.35,3.35,0,0,0,180.24,90.23Z"/>
      <path class="cls-2" d="M180.24,103.58a3.35,3.35,0,1,0-3.35-3.35A3.35,3.35,0,0,0,180.24,103.58Z"/>
      <path class="cls-2" d="M180.24,110.23a3.35,3.35,0,1,0-3.35-3.35A3.35,3.35,0,0,0,180.24,110.23Z"/>
      <path class="cls-2" d="M180.24,143.55a3.35,3.35,0,1,0-3.35-3.35A3.35,3.35,0,0,0,180.24,143.55Z"/>
      <path class="cls-2" d="M180.24,156.9a3.35,3.35,0,1,0-3.35-3.35A3.35,3.35,0,0,0,180.24,156.9Z"/>
      <path class="cls-2" d="M180.24,176.9a3.35,3.35,0,1,0-3.35-3.35A3.35,3.35,0,0,0,180.24,176.9Z"/>
      <path class="cls-2" d="M180.24,183.56a3.35,3.35,0,1,0-3.35-3.35A3.35,3.35,0,0,0,180.24,183.56Z"/>
      <path class="cls-2" d="M180.24,190.21a3.35,3.35,0,1,0-3.35-3.35A3.35,3.35,0,0,0,180.24,190.21Z"/>
      <path class="cls-2" d="M180.24,196.91a3.35,3.35,0,1,0-3.35-3.35A3.35,3.35,0,0,0,180.24,196.91Z"/>
      <path class="cls-2" d="M180.24,203.56a3.35,3.35,0,1,0-3.35-3.35A3.35,3.35,0,0,0,180.24,203.56Z"/>
      <path class="cls-2" d="M180.24,210.22a3.35,3.35,0,1,0-3.35-3.35A3.35,3.35,0,0,0,180.24,210.22Z"/>
      <path class="cls-2" d="M180.24,230.22a3.35,3.35,0,1,0-3.35-3.35A3.35,3.35,0,0,0,180.24,230.22Z"/>
      <path class="cls-2" d="M180.24,236.88a3.35,3.35,0,1,0-3.35-3.35A3.35,3.35,0,0,0,180.24,236.88Z"/>
      <path class="cls-2" d="M186.89,76.92a3.35,3.35,0,1,0-3.35-3.35A3.35,3.35,0,0,0,186.89,76.92Z"/>
      <path class="cls-2" d="M186.89,83.57a3.35,3.35,0,1,0-3.35-3.34A3.34,3.34,0,0,0,186.89,83.57Z"/>
      <path class="cls-2" d="M186.89,90.23a3.35,3.35,0,1,0-3.35-3.35A3.35,3.35,0,0,0,186.89,90.23Z"/>
      <path class="cls-2" d="M186.89,116.89a3.35,3.35,0,1,0-3.35-3.35A3.35,3.35,0,0,0,186.89,116.89Z"/>
      <path class="cls-2" d="M186.89,130.24a3.35,3.35,0,1,0-3.35-3.35A3.35,3.35,0,0,0,186.89,130.24Z"/>
      <path class="cls-2" d="M186.89,143.55a3.35,3.35,0,1,0-3.35-3.35A3.35,3.35,0,0,0,186.89,143.55Z"/>
      <path class="cls-2" d="M186.89,150.25a3.35,3.35,0,1,0-3.35-3.35A3.35,3.35,0,0,0,186.89,150.25Z"/>
      <path class="cls-2" d="M186.89,183.56a3.35,3.35,0,1,0-3.35-3.35A3.35,3.35,0,0,0,186.89,183.56Z"/>
      <path class="cls-2" d="M186.89,210.22a3.35,3.35,0,1,0-3.35-3.35A3.35,3.35,0,0,0,186.89,210.22Z"/>
      <path class="cls-2" d="M186.89,223.57a3.35,3.35,0,1,0-3.35-3.35A3.35,3.35,0,0,0,186.89,223.57Z"/>
      <path class="cls-2" d="M186.89,230.22a3.35,3.35,0,1,0-3.35-3.35A3.35,3.35,0,0,0,186.89,230.22Z"/>
      <path class="cls-2" d="M193.59,76.92a3.35,3.35,0,1,0-3.35-3.35A3.35,3.35,0,0,0,193.59,76.92Z"/>
      <path class="cls-2" d="M193.59,83.57a3.35,3.35,0,1,0-3.35-3.34A3.34,3.34,0,0,0,193.59,83.57Z"/>
      <path class="cls-2" d="M193.59,90.23a3.35,3.35,0,1,0-3.35-3.35A3.35,3.35,0,0,0,193.59,90.23Z"/>
      <path class="cls-2" d="M193.59,96.93a3.35,3.35,0,1,0-3.35-3.35A3.35,3.35,0,0,0,193.59,96.93Z"/>
      <path class="cls-2" d="M193.59,103.58a3.35,3.35,0,1,0-3.35-3.35A3.35,3.35,0,0,0,193.59,103.58Z"/>
      <path class="cls-2" d="M193.59,123.59a3.35,3.35,0,1,0-3.35-3.35A3.35,3.35,0,0,0,193.59,123.59Z"/>
      <path class="cls-2" d="M193.59,130.24a3.35,3.35,0,1,0-3.35-3.35A3.35,3.35,0,0,0,193.59,130.24Z"/>
      <path class="cls-2" d="M193.59,136.89a3.35,3.35,0,1,0-3.35-3.35A3.35,3.35,0,0,0,193.59,136.89Z"/>
      <path class="cls-2" d="M193.59,143.55a3.35,3.35,0,1,0-3.35-3.35A3.35,3.35,0,0,0,193.59,143.55Z"/>
      <path class="cls-2" d="M193.59,150.25a3.35,3.35,0,1,0-3.35-3.35A3.35,3.35,0,0,0,193.59,150.25Z"/>
      <path class="cls-2" d="M193.59,163.55a3.35,3.35,0,1,0-3.35-3.35A3.35,3.35,0,0,0,193.59,163.55Z"/>
      <path class="cls-2" d="M193.59,170.25a3.35,3.35,0,1,0-3.35-3.35A3.35,3.35,0,0,0,193.59,170.25Z"/>
      <path class="cls-2" d="M193.59,176.9a3.35,3.35,0,1,0-3.35-3.35A3.35,3.35,0,0,0,193.59,176.9Z"/>
      <path class="cls-2" d="M193.59,183.56a3.35,3.35,0,1,0-3.35-3.35A3.35,3.35,0,0,0,193.59,183.56Z"/>
      <path class="cls-2" d="M193.59,196.91a3.35,3.35,0,1,0-3.35-3.35A3.35,3.35,0,0,0,193.59,196.91Z"/>
      <path class="cls-2" d="M193.59,210.22a3.35,3.35,0,1,0-3.35-3.35A3.35,3.35,0,0,0,193.59,210.22Z"/>
      <path class="cls-2" d="M193.59,223.57a3.35,3.35,0,1,0-3.35-3.35A3.35,3.35,0,0,0,193.59,223.57Z"/>
      <path class="cls-2" d="M200.25,90.23a3.35,3.35,0,1,0-3.35-3.35A3.35,3.35,0,0,0,200.25,90.23Z"/>
      <path class="cls-2" d="M200.25,96.93a3.35,3.35,0,1,0-3.35-3.35A3.35,3.35,0,0,0,200.25,96.93Z"/>
      <path class="cls-2" d="M200.25,123.59a3.35,3.35,0,1,0-3.35-3.35A3.35,3.35,0,0,0,200.25,123.59Z"/>
      <path class="cls-2" d="M200.25,143.55a3.35,3.35,0,1,0-3.35-3.35A3.35,3.35,0,0,0,200.25,143.55Z"/>
      <path class="cls-2" d="M200.25,150.25a3.35,3.35,0,1,0-3.35-3.35A3.35,3.35,0,0,0,200.25,150.25Z"/>
      <path class="cls-2" d="M200.25,183.56a3.35,3.35,0,1,0-3.35-3.35A3.35,3.35,0,0,0,200.25,183.56Z"/>
      <path class="cls-2" d="M200.25,210.22a3.35,3.35,0,1,0-3.35-3.35A3.35,3.35,0,0,0,200.25,210.22Z"/>
      <path class="cls-2" d="M200.25,216.87a3.35,3.35,0,1,0-3.35-3.35A3.35,3.35,0,0,0,200.25,216.87Z"/>
      <path class="cls-2" d="M200.25,223.57a3.35,3.35,0,1,0-3.35-3.35A3.35,3.35,0,0,0,200.25,223.57Z"/>
      <path class="cls-2" d="M200.25,230.22a3.35,3.35,0,1,0-3.35-3.35A3.35,3.35,0,0,0,200.25,230.22Z"/>
      <path class="cls-2" d="M206.9,76.92a3.35,3.35,0,1,0-3.35-3.35A3.35,3.35,0,0,0,206.9,76.92Z"/>
      <path class="cls-2" d="M206.9,83.57a3.35,3.35,0,1,0-3.35-3.34A3.34,3.34,0,0,0,206.9,83.57Z"/>
      <path class="cls-2" d="M206.9,90.23a3.35,3.35,0,1,0-3.35-3.35A3.35,3.35,0,0,0,206.9,90.23Z"/>
      <path class="cls-2" d="M206.9,96.93a3.35,3.35,0,1,0-3.35-3.35A3.35,3.35,0,0,0,206.9,96.93Z"/>
      <path class="cls-2" d="M206.9,103.58a3.35,3.35,0,1,0-3.35-3.35A3.35,3.35,0,0,0,206.9,103.58Z"/>
      <path class="cls-2" d="M206.9,116.89a3.35,3.35,0,1,0-3.35-3.35A3.35,3.35,0,0,0,206.9,116.89Z"/>
      <path class="cls-2" d="M206.9,123.59a3.35,3.35,0,1,0-3.35-3.35A3.35,3.35,0,0,0,206.9,123.59Z"/>
      <path class="cls-2" d="M206.9,130.24a3.35,3.35,0,1,0-3.35-3.35A3.35,3.35,0,0,0,206.9,130.24Z"/>
      <path class="cls-2" d="M206.9,156.9a3.35,3.35,0,1,0-3.35-3.35A3.35,3.35,0,0,0,206.9,156.9Z"/>
      <path class="cls-2" d="M206.9,163.55a3.35,3.35,0,1,0-3.35-3.35A3.35,3.35,0,0,0,206.9,163.55Z"/>
      <path class="cls-2" d="M206.9,176.9a3.35,3.35,0,1,0-3.35-3.35A3.35,3.35,0,0,0,206.9,176.9Z"/>
      <path class="cls-2" d="M206.9,183.56a3.35,3.35,0,1,0-3.35-3.35A3.35,3.35,0,0,0,206.9,183.56Z"/>
      <path class="cls-2" d="M206.9,190.21a3.35,3.35,0,1,0-3.35-3.35A3.35,3.35,0,0,0,206.9,190.21Z"/>
      <path class="cls-2" d="M206.9,196.91a3.35,3.35,0,1,0-3.35-3.35A3.35,3.35,0,0,0,206.9,196.91Z"/>
      <path class="cls-2" d="M206.9,203.56a3.35,3.35,0,1,0-3.35-3.35A3.35,3.35,0,0,0,206.9,203.56Z"/>
      <path class="cls-2" d="M206.9,210.22a3.35,3.35,0,1,0-3.35-3.35A3.35,3.35,0,0,0,206.9,210.22Z"/>
      <path class="cls-2" d="M206.9,216.87a3.35,3.35,0,1,0-3.35-3.35A3.35,3.35,0,0,0,206.9,216.87Z"/>
      <path class="cls-2" d="M206.9,230.22a3.35,3.35,0,1,0-3.35-3.35A3.35,3.35,0,0,0,206.9,230.22Z"/>
      <path class="cls-2" d="M213.55,76.92a3.35,3.35,0,1,0-3.35-3.35A3.35,3.35,0,0,0,213.55,76.92Z"/>
      <path class="cls-2" d="M213.55,83.57a3.35,3.35,0,1,0-3.35-3.34A3.34,3.34,0,0,0,213.55,83.57Z"/>
      <path class="cls-2" d="M213.55,90.23a3.35,3.35,0,1,0-3.35-3.35A3.35,3.35,0,0,0,213.55,90.23Z"/>
      <path class="cls-2" d="M213.55,156.9a3.35,3.35,0,1,0-3.35-3.35A3.35,3.35,0,0,0,213.55,156.9Z"/>
      <path class="cls-2" d="M213.55,183.56a3.35,3.35,0,1,0-3.35-3.35A3.35,3.35,0,0,0,213.55,183.56Z"/>
      <path class="cls-2" d="M213.55,190.21a3.35,3.35,0,1,0-3.35-3.35A3.35,3.35,0,0,0,213.55,190.21Z"/>
      <path class="cls-2" d="M213.55,203.56a3.35,3.35,0,1,0-3.35-3.35A3.35,3.35,0,0,0,213.55,203.56Z"/>
      <path class="cls-2" d="M213.55,236.88a3.35,3.35,0,1,0-3.35-3.35A3.35,3.35,0,0,0,213.55,236.88Z"/>
      <path class="cls-2" d="M220.26,83.57a3.35,3.35,0,1,0-3.35-3.34A3.34,3.34,0,0,0,220.26,83.57Z"/>
      <path class="cls-2" d="M220.26,103.58a3.35,3.35,0,1,0-3.35-3.35A3.35,3.35,0,0,0,220.26,103.58Z"/>
      <path class="cls-2" d="M220.26,123.59a3.35,3.35,0,1,0-3.35-3.35A3.35,3.35,0,0,0,220.26,123.59Z"/>
      <path class="cls-2" d="M220.26,136.89a3.35,3.35,0,1,0-3.35-3.35A3.35,3.35,0,0,0,220.26,136.89Z"/>
      <path class="cls-2" d="M220.26,150.25a3.35,3.35,0,1,0-3.35-3.35A3.35,3.35,0,0,0,220.26,150.25Z"/>
      <path class="cls-2" d="M220.26,163.55a3.35,3.35,0,1,0-3.35-3.35A3.35,3.35,0,0,0,220.26,163.55Z"/>
      <path class="cls-2" d="M220.26,183.56a3.35,3.35,0,1,0-3.35-3.35A3.35,3.35,0,0,0,220.26,183.56Z"/>
      <path class="cls-2" d="M220.26,210.22a3.35,3.35,0,1,0-3.35-3.35A3.35,3.35,0,0,0,220.26,210.22Z"/>
      <path class="cls-2" d="M220.26,230.22a3.35,3.35,0,1,0-3.35-3.35A3.35,3.35,0,0,0,220.26,230.22Z"/>
      <path class="cls-2" d="M220.26,236.88a3.35,3.35,0,1,0-3.35-3.35A3.35,3.35,0,0,0,220.26,236.88Z"/>
      <path class="cls-2" d="M226.91,83.57a3.35,3.35,0,1,0-3.35-3.34A3.34,3.34,0,0,0,226.91,83.57Z"/>
      <path class="cls-2" d="M226.91,110.23a3.35,3.35,0,1,0-3.35-3.35A3.35,3.35,0,0,0,226.91,110.23Z"/>
      <path class="cls-2" d="M226.91,116.89a3.35,3.35,0,1,0-3.35-3.35A3.35,3.35,0,0,0,226.91,116.89Z"/>
      <path class="cls-2" d="M226.91,136.89a3.35,3.35,0,1,0-3.35-3.35A3.35,3.35,0,0,0,226.91,136.89Z"/>
      <path class="cls-2" d="M226.91,156.9a3.35,3.35,0,1,0-3.35-3.35A3.35,3.35,0,0,0,226.91,156.9Z"/>
      <path class="cls-2" d="M226.91,170.25a3.35,3.35,0,1,0-3.35-3.35A3.35,3.35,0,0,0,226.91,170.25Z"/>
      <path class="cls-2" d="M226.91,176.9a3.35,3.35,0,1,0-3.35-3.35A3.35,3.35,0,0,0,226.91,176.9Z"/>
      <path class="cls-2" d="M226.91,190.21a3.35,3.35,0,1,0-3.35-3.35A3.35,3.35,0,0,0,226.91,190.21Z"/>
      <path class="cls-2" d="M226.91,196.91a3.35,3.35,0,1,0-3.35-3.35A3.35,3.35,0,0,0,226.91,196.91Z"/>
      <path class="cls-2" d="M226.91,223.57a3.35,3.35,0,1,0-3.35-3.35A3.35,3.35,0,0,0,226.91,223.57Z"/>
      <path class="cls-2" d="M226.91,230.22a3.35,3.35,0,1,0-3.35-3.35A3.35,3.35,0,0,0,226.91,230.22Z"/>
      <path class="cls-2" d="M226.91,236.88a3.35,3.35,0,1,0-3.35-3.35A3.35,3.35,0,0,0,226.91,236.88Z"/>
      <path class="cls-2" d="M233.57,83.57a3.35,3.35,0,1,0-3.35-3.34A3.35,3.35,0,0,0,233.57,83.57Z"/>
      <path class="cls-2" d="M233.57,136.89a3.35,3.35,0,1,0-3.35-3.35A3.36,3.36,0,0,0,233.57,136.89Z"/>
      <path class="cls-2" d="M233.57,150.25a3.35,3.35,0,1,0-3.35-3.35A3.36,3.36,0,0,0,233.57,150.25Z"/>
      <path class="cls-2" d="M233.57,163.55a3.35,3.35,0,1,0-3.35-3.35A3.36,3.36,0,0,0,233.57,163.55Z"/>
      <path class="cls-2" d="M233.57,170.25a3.35,3.35,0,1,0-3.35-3.35A3.36,3.36,0,0,0,233.57,170.25Z"/>
      <path class="cls-2" d="M233.57,176.9a3.35,3.35,0,1,0-3.35-3.35A3.36,3.36,0,0,0,233.57,176.9Z"/>
      <path class="cls-2" d="M233.57,183.56a3.35,3.35,0,1,0-3.35-3.35A3.36,3.36,0,0,0,233.57,183.56Z"/>
      <path class="cls-2" d="M233.57,210.22a3.35,3.35,0,1,0-3.35-3.35A3.36,3.36,0,0,0,233.57,210.22Z"/>
      <path class="cls-2" d="M233.57,216.87a3.35,3.35,0,1,0-3.35-3.35A3.36,3.36,0,0,0,233.57,216.87Z"/>
      <path class="cls-3"
            d="M55.41,190.26a8.17,8.17,0,0,1,8.17,8.17v30.32a8.17,8.17,0,0,1-8.17,8.17H25.08a8.24,8.24,0,0,1-8.17-8.22V198.38a8.17,8.17,0,0,1,8.17-8.17H55.41Zm-2.59,6.65H27.67A4.08,4.08,0,0,0,23.61,201v25.14a4.08,4.08,0,0,0,4.06,4.07H52.82a4.08,4.08,0,0,0,4.06-4.07V201A4.08,4.08,0,0,0,52.82,196.91Z"/>
      <path class="cls-4"
            d="M33.75,203.07H46.3a4.08,4.08,0,0,1,4.06,4.06v12.55a4.08,4.08,0,0,1-4.06,4.06H33.75a4.08,4.08,0,0,1-4.07-4.06V207.13A4,4,0,0,1,33.75,203.07Z"/>
      <path class="cls-3"
            d="M228.74,17a8.18,8.18,0,0,1,8.18,8.17V55.44a8.18,8.18,0,0,1-8.18,8.17H198.42a8.18,8.18,0,0,1-8.18-8.17V25.08a8.18,8.18,0,0,1,8.18-8.18h30.32Zm-2.59,6.65H201a4.08,4.08,0,0,0-4.07,4.07V52.81A4.08,4.08,0,0,0,201,56.87h25.14a4.08,4.08,0,0,0,4.07-4.06V27.67A4.09,4.09,0,0,0,226.15,23.6Z"/>
      <path class="cls-4"
            d="M207.08,29.76h12.55a4.08,4.08,0,0,1,4.06,4.07V46.38a4.08,4.08,0,0,1-4.06,4.06H207.08A4.08,4.08,0,0,1,203,46.38V33.83A4,4,0,0,1,207.08,29.76Z"/>
      <path class="cls-3"
            d="M55.41,16.9a8.17,8.17,0,0,1,8.17,8.18V55.4a8.17,8.17,0,0,1-8.17,8.17H25.08a8.17,8.17,0,0,1-8.17-8.17V25.08a8.2,8.2,0,0,1,8.17-8.18Zm-2.59,6.66H27.67a4.08,4.08,0,0,0-4.06,4.06V52.76a4.08,4.08,0,0,0,4.06,4.07H52.82a4.08,4.08,0,0,0,4.06-4.07V27.67A4,4,0,0,0,52.82,23.56Z"/>
      <path class="cls-4"
            d="M33.75,29.76H46.3a4.08,4.08,0,0,1,4.06,4.07V46.38a4.08,4.08,0,0,1-4.06,4.06H33.75a4.08,4.08,0,0,1-4.07-4.06V33.83A4.08,4.08,0,0,1,33.75,29.76Z"/>
      <path class="cls-5"
            d="M130.57,120.91a7.64,7.64,0,0,1,3.31.71,6,6,0,0,1,2.32,1.92,7.4,7.4,0,0,1,1.34,2.81,12.59,12.59,0,0,1,.45,3.49,13.91,13.91,0,0,1-1,5.4,14.73,14.73,0,0,1-2.77,4.42,12.62,12.62,0,0,1-9.33,4c-.23,0-.67,0-1.25,0a12.05,12.05,0,0,1-2.06-.18c-.8-.14-1.61-.27-2.45-.49a13.46,13.46,0,0,1-2.46-.9l6.92-30,6.21-1-2.46,10.62a8.31,8.31,0,0,1,1.57-.58A6.76,6.76,0,0,1,130.57,120.91Zm-5.22,17.63a5,5,0,0,0,2.63-.71,7,7,0,0,0,2.15-1.88,9.42,9.42,0,0,0,1.43-2.63,10.18,10.18,0,0,0,.49-3.08,6.61,6.61,0,0,0-.63-3.08,2.54,2.54,0,0,0-2.45-1.07,5.92,5.92,0,0,0-1.34.17,3.41,3.41,0,0,0-1.61.9l-2.59,11.34a6.6,6.6,0,0,0,1.25.13A1.41,1.41,0,0,1,125.35,138.54Z"/>
    </g>
  </g>
</svg>
