<svg xmlns="http://www.w3.org/2000/svg" viewBox="0 0 2306.41 493.09"><g id="Layer_2" data-name="Layer 2"><g id="Layer_1-2" data-name="Layer 1"><path d="M2125.9,455.37c-3.91-6.57-6.21-11.37-9.34-15.55q-30.21-40.38-60.74-80.52c-4.42-5.84-10.1-9.63-17.62-10-6.24-.33-9.35,1.92-10.69,8a37.57,37.57,0,0,0-.64,7.94c0,19.64,0,39.28.28,58.92A116.53,116.53,0,0,0,2029,441c1.55,9.68,7.47,15.4,17,17.18,6.2,1.16,12.51,1.79,18.76,2.69,7.29,1.05,10,5.05,9.3,13.43-.71,7.92-3.53,10.46-11.34,10.37-43.61-.52-87.23-1.18-130.84-1.42-15-.08-30,.87-44.92,1.42-4.41.17-9,.72-10.94-4.54-2-5.5-2.42-11.22,1-16.26,1-1.56,3.82-2.4,5.94-2.72,6.24-.95,12.59-1.28,18.84-2.21,14.13-2.12,19.67-7.64,21.65-21.89a145.52,145.52,0,0,0,1.57-19.87q.18-159.79.13-319.6c0-2-.11-4-.1-6,.07-12.85-5-22.48-17.19-27.78a45.87,45.87,0,0,1-9.66-5.16A15.07,15.07,0,0,1,1893,51.8c-2.51-8,.84-13.18,9-15.49,18.55-5.25,37.19-10.24,55.57-16,17.12-5.41,33.94-11.74,50.9-17.65,2.51-.87,5-2.05,7.59-2.42,8.38-1.2,13.19,3.12,12.83,11.6-4.21,99.5-1.16,199-2.09,298.58,0,1.66-.06,3.33,0,5,.47,6.88,2.29,9.67,9,9.19,8.84-.62,18-1.81,26.2-4.91a61.19,61.19,0,0,0,19.86-12.95c13.74-13.07,26.73-26.93,39.85-40.64a78.26,78.26,0,0,0,9.22-11.77c5.48-8.51,3.79-12.37-6.29-14.46-5.85-1.21-11.85-1.74-17.78-2.55-8.1-1.12-11.26-4.42-11.55-12.13-.32-8.28,3.28-12.11,11.75-12.33,19-.47,38-.3,56.91-1.48,32.22-2,64.38-4.84,96.56-7.41,4.69-.37,9.42-1.53,12.15,3.94s3.19,11,.06,16.22c-1,1.67-3.57,2.79-5.64,3.33a144,144,0,0,1-15.63,3.23,114.51,114.51,0,0,0-48,18.66c-19.8,13.44-39.15,27.58-58.25,42-10.43,7.88-10.63,11.79-3.23,22.59,25.79,37.65,54.17,73.32,82.57,109,16.86,21.2,37.63,33.08,64.13,35.93,2.31.25,4.62.63,6.9,1.1,8.68,1.79,11.59,5.55,10.57,13.54-1.07,8.46-4.51,11.24-13.26,11.1-37.28-.59-74.57-1.44-111.85-1.56-23.3-.07-46.6.9-69.9,1.57-4.54.13-8.74.15-11.16-4.54-2.78-5.38-3.41-11.07.09-16.09,1.45-2.08,4.85-3.08,7.57-3.92C2113,458.45,2118.37,457.28,2125.9,455.37Z"/><path d="M1218.79,375.76c1.85-3.41,3.32-5.62,4.33-8q20.43-48.8,40.67-97.65a109.19,109.19,0,0,0,4.65-15.25c2.33-9.38,1.14-11.65-8.18-14.68-5.36-1.74-11-2.73-16.47-4-3.86-.87-8.14-.91-9.26-6-1.26-5.72-1.7-11.55,2.44-16.07,1.65-1.81,5.27-2.57,8-2.53,10,.15,20,1.28,29.94,1.22,27-.16,53.93-.63,80.89-1.21,11.88-.25,16.4,4.71,14.18,16.24-.82,4.32-2.67,7.15-7.56,7.87a157,157,0,0,0-18.52,4,36.87,36.87,0,0,0-22.59,17c-2.57,4.28-5.19,8.55-7.38,13q-51.2,104.4-102.28,208.86c-2.59,5.28-4,11.39-11.12,13-8.66,2-17.32,2.66-25.37-1.35-2.88-1.43-5-5.11-6.62-8.23q-36-70.71-71.76-141.55c-1.62-3.2-3.53-6.25-5.91-10.44-2.66,4.48-4.8,7.8-6.67,11.27q-37,69.07-73.9,138.22c-3,5.68-5.68,11.31-13,12.54-8.35,1.4-16.82,2.23-24.31-2.21-3.08-1.82-5.16-5.88-6.9-9.33-26.06-51.7-51.87-103.52-78-155.19-9.76-19.3-20.13-38.29-30.31-57.37-2.19-4.11-4.64-8.08-7.16-12a36.7,36.7,0,0,0-22.92-16.47c-4.2-1-8.41-2-12.57-3.2C806,233.61,802.44,221,809,213.92a10,10,0,0,1,5.12-2.46c1.91-.41,4-.07,6,0,119.56,3.17,239.11,2.49,358.67.09,5.33-.1,10.66-.31,16-.17,6.24.16,8.27,2,9.12,8.18a34.52,34.52,0,0,1,.07,7c-.33,5.26-2.6,8.3-8.4,9.22a233,233,0,0,0-27.27,6c-9,2.56-10.09,4.85-6.93,13.85a219.43,219.43,0,0,0,9.44,23.08c14.78,30.54,29.83,61,44.8,91.41C1216.24,371.54,1217.15,372.92,1218.79,375.76Zm-195.58,0c9.75-13.34,36.56-63.25,40.81-77a73.41,73.41,0,0,0,3.35-20.52c.21-17-14.64-35-31.38-37.62-20.13-3.19-40.45-2.82-60.72-.78a29.69,29.69,0,0,0-6.77,1.68c-6.34,2.23-8.19,4.75-6.47,11.31a101.52,101.52,0,0,0,7.22,19.58c14.49,28.81,29.28,57.47,44.07,86.13C1016.19,364.09,1019.54,369.4,1023.21,375.75Z"/><path d="M285.28,329.84c-2.75,4.76-5,8.37-7,12.1Q241.62,410.6,205,479.28c-2.81,5.26-4.94,10.89-11.91,12.35-8.67,1.83-17.39,2.59-25.31-1.69-3.11-1.68-5.31-5.74-7-9.17-21.63-43.11-42.86-86.42-64.66-129.44-14.13-27.89-29-55.4-43.59-83.06-1.86-3.53-3.94-6.94-6-10.36C40.57,248,32.22,241.42,20.73,239c-3.58-.73-7.11-1.72-10.63-2.69-9.44-2.58-13.32-14.34-7-21.93a9.86,9.86,0,0,1,5.87-2.93c3.26-.45,6.64,0,10,0,114.19,3,228.37,2.28,342.56.26,8.66-.16,17.31-.41,26-.44,8.15,0,10.34,1.9,11.15,9.29,1.05,9.52-1.18,13.37-8.61,15-8.45,1.82-17,3.29-25.31,5.59-11.38,3.14-12.8,5.28-8.08,16.33,9.55,22.31,19.7,44.37,30.12,66.29,8.13,17.09,17.05,33.81,26.25,51.93,1.91-3.1,3.49-5,4.4-7.21Q438.77,317,460,265.32a74.33,74.33,0,0,0,3.06-10.53c2.26-9.34,1.1-11.64-8.26-14.65-5.36-1.73-11-2.74-16.46-4-8.19-1.9-10.32-4.65-9.95-13,.39-8.82,3.5-11.9,12.24-11.69,22.63.54,45.25,1.53,67.88,1.66,14.63.08,29.27-1,43.9-1.63,4.46-.2,8.69-.42,11,4.57s2,14.14-1.3,17.11c-1.57,1.41-4,2-6.21,2.55-5.81,1.42-11.75,2.35-17.51,4a37.07,37.07,0,0,0-22.59,17c-2.74,4.56-5.49,9.13-7.83,13.9Q457,374.44,406.2,478.42c-2.58,5.26-3.93,11.42-11.05,13.07-8.64,2-17.31,2.67-25.35-1.31-2.88-1.42-5-5.12-6.61-8.23q-36.3-71.08-72.36-142.3C289.34,336.73,287.61,333.94,285.28,329.84ZM218,375.44a26.46,26.46,0,0,0,2.87-3.49c11.95-22.64,24-45.2,35.62-68,2.5-4.92,3.22-10.76,4.77-16.17,5.47-19-11.51-48-37-48.24-16.62-.16-33.25-.29-49.88-.11a40.11,40.11,0,0,0-11.7,2.27c-5.91,1.92-7.65,4.5-6.21,10.56a80.28,80.28,0,0,0,6.21,17.82c16.54,32.62,33.38,65.08,50.19,97.57A91.88,91.88,0,0,0,218,375.44Z"/><path d="M1495.43,491.77c-35.61.05-67.28-5-97.18-18.57-36.54-16.6-63.65-42.26-75.15-81.71-14.86-50.95-2.08-109,45.73-147.07,26.15-20.81,56.17-32.85,88.83-38.17,41.46-6.76,82.41-4.19,121.7,11.42a182.25,182.25,0,0,1,38.44,20.77c34.36,24.55,52.31,58.58,54,100.86,2.49,63.57-27.83,111-86.71,135.54C1555.45,487.2,1524.38,491.94,1495.43,491.77Zm65.32-131.26c-1.79-16.49-2.88-33.1-5.55-49.44-3.29-20.15-9.59-39.46-22.39-55.89-22.84-29.32-62.39-28.19-83.8,2.27-6.59,9.36-10.8,19.8-13.54,30.85-7.22,29.17-7.16,58.59-2.76,88.12,2.45,16.53,6.81,32.5,14.6,47.4,5.45,10.44,12.4,19.64,21.93,26.76,21.65,16.18,60.46,16,77.26-18.05a108,108,0,0,0,7-18.59C1558.43,396.54,1559.76,378.65,1560.75,360.51Z"/><path d="M696.34,322.62c-25.64,0-51.28-.15-76.92.06-14.88.12-16,1.52-15.59,16.11,1.16,44.45,32.34,81.55,77.69,92,19,4.37,38.21,5.22,57.45,1.07a74.14,74.14,0,0,0,43.24-26.78c5.53-6.85,10.5-7.5,17.74-2.52,6.84,4.69,8.17,10.61,3.59,18-23.07,37.2-56.72,59.57-99.24,67.79-40.52,7.84-80.44,4-118.13-13.46-44.33-20.54-71.82-55.07-77.35-104-6.06-53.67,13.22-98.06,55.65-131.73,28-22.2,60.56-33,95.87-35.58,24.06-1.75,47.9-.21,71,7.68,16.95,5.79,32.18,14.34,44.76,27.25,16,16.48,24.21,36.38,25.19,59.23.69,16-4.88,22.35-21.07,24.21a105.9,105.9,0,0,1-12,.58q-36,.08-71.94,0Zm-41.53-29.31c0-.19,0-.38,0-.58,7.32,0,14.67.53,21.93-.13a221.93,221.93,0,0,0,25.47-4c5.81-1.22,8.63-5.64,9.63-11.41,3.46-19.95-8.29-37.54-28-41.74-24.58-5.25-52.33,5.7-66.41,26.61a50.51,50.51,0,0,0-6.64,14.35c-2.67,9.53.3,14,10.2,15C632.23,292.48,643.54,292.7,654.81,293.31Z"/><path d="M1744.46,482.43l-89.88,2.44c-11.49.32-15.75-4.53-13.67-15.62,1.14-6.15,2.71-7.53,9.21-8.21,5.63-.59,11.28-1.06,16.88-1.85,12.3-1.74,17.82-6.7,19.85-18.86a144.84,144.84,0,0,0,1.92-22.87c.21-41.62.16-83.24.18-124.86,0-1.66-.18-3.33-.15-5,.31-15-6.1-25.48-20.21-31.12-6-2.42-9.93-6.44-9.51-13.63.39-6.7,2.09-9,9.12-11.1,15.61-4.66,31.45-8.69,46.78-14.15,19.4-6.91,38.33-15.12,57.59-22.44a22,22,0,0,1,11.37-1.27c5.69,1.09,7.16,4.23,6.48,10.31-.7,6.28-1.51,12.55-2.18,18.84-.42,4-1,8.07,2.93,10.91,4.25,3.06,7.55.22,10.89-1.86,8.17-5.13,16.22-10.47,24.46-15.5,12.34-7.53,25.44-13.49,40.08-14a63.71,63.71,0,0,1,21.54,2.57c16,5.16,25.72,16.44,27,33.54,1.34,17.83-5.13,32.38-21.6,40.49-19.25,9.48-38.32,9.73-56.47-3.78a115.42,115.42,0,0,0-21.29-12.84c-12.64-5.68-19.54-2.07-22.78,11.46a85.8,85.8,0,0,0-2.33,19.75q-.07,67.41.44,134.83a75.81,75.81,0,0,0,2.06,14.77c1.66,8,6.69,13.12,14.75,14.3,9.86,1.46,19.81,2.39,29.74,3.22,4.51.38,8.55.54,10.21,5.91,1.81,5.83,1.61,11.39-2.35,16-1.39,1.61-4.73,2.14-7.16,2.11-11.32-.18-22.64-1-34-1.1-20-.2-40-.06-59.94-.06C1744.47,483.29,1744.47,482.86,1744.46,482.43Z"/></g></g></svg>