<svg xmlns="http://www.w3.org/2000/svg" viewBox="0 0 1258 588.49"><g id="Layer_2" data-name="Layer 2"><g id="Layer_1-2" data-name="Layer 1"><path d="M102,498.57v2.78c-8.11,0-10.57.93-14,8.73L76.63,535.35l17.09,41,23.62-60.7c.87-2.38,4.34-9.92,2.17-12.43-1.59-1.85-5.07-1.85-9.42-1.85v-2.78h27.67v2.76c-8,.79-9.27,2.78-12.17,9.92L95,588.49H87.75L70.8,548,53.71,588.49H46L16.62,514.71C12.45,504.13,8,501.35,0,501.35v-2.78ZM54.92,512.46c-4.2-9.65-6.52-11.11-18.11-11.11H35.07c-5.5,0-8.4,2-8.4,6s2.61,8.73,3.62,11.37L52.75,576l14.77-34.91Zm28.25-8.07c0-1.58-2-3-6.23-3H70c-5.08,0-6.52,1.46-6.52,2.91s1.44,4.36,3.18,8.46l7.1,16.93,7.1-16.8a29,29,0,0,0,2.29-8.54Z"/><path d="M172.05,583.6h3.81v2.75H139v-2.78c9.08,0,10.92-2.25,10.92-11.64v-59c0-9.39-1.84-11.64-10.92-11.64v-2.78s25.89-1,30.31-1c24.67,0,35.84,10.44,35.84,25.12,0,9.65-5.52,17.32-15.71,23.54L200,564.29c4.67,8.07,10.8,17.59,18.41,20.5v2.64c-14.85,0-19.14-4.62-30.68-23.14l-9.45-15.07H161.13V572C161.13,581.35,163,583.6,172.05,583.6Zm-4.54-36.76c14.61,0,25.16-6,25.16-23.14,0-15.74-8.47-23.14-25.4-23.14-2.34,0-4.54.13-6.14.13v46.15Z"/><path d="M222.22,501.35v-2.78h39v2.78c-10.72,0-12.89,2.25-12.89,11.64v59c0,9.39,2.17,11.64,12.89,11.64v2.72h-39v-2.78c10.72,0,12.89-2.25,12.89-11.64v-59C235.11,503.6,232.94,501.35,222.22,501.35Z"/><path d="M311.88,499l2.41,17.72H312c-4.31-9.12-10.26-16.66-21.29-16.66-9.39,0-15.22,4.76-15.22,13.35,0,9.13,7.1,14.42,16.23,20.1l7.35,4.63c12.93,8.2,19,13.75,19,25.65,0,15.48-11,24.73-28.27,24.73-7.86,0-16.86-3.83-18.51-3.83a2.07,2.07,0,0,0-1.78,1.32h-2l-2.92-21h2.28c3.68,12.3,9.38,19.84,22.82,19.84,9.89,0,18.51-6.61,18.51-16.27,0-8.86-4.82-13.48-15.47-20.23l-7.86-5c-12.29-7.8-20-14.28-20-25.66,0-12,9.51-21.15,25.87-21.15,7.86,0,15.84,3.83,16.86,3.83.63,0,.89-.26,2.53-1.32Z"/><path d="M359.55,503.47H334.92c-8,0-10.43,1.32-13.76,15.73h-2.61l2.32-22.87h2.47c1,1.85,1.73,2.24,3.18,2.24h79.24c1.45,0,2.18-.39,3.19-2.24h2.46l2.32,22.87h-2.61c-3.33-14.41-5.79-15.73-13.76-15.73H372.73V572c0,9.39,2.18,11.64,12.9,11.64h4.49v2.75h-48v-2.78h4.49c10.72,0,12.89-2.25,12.89-11.64Z"/><path d="M486.61,497.12,516.12,572c3.88,9.66,6.65,11.64,14.27,11.64v2.75h-40v-2.78h4.85c9.84,0,11.64-2.78,8.73-10l-10.25-26H463.47l-6.79,17.78c-5.54,14.55-6.79,18.25,9.42,18.25v2.75H432.57v-2.78c7.21,0,10.53-1.72,13.72-10L475,500.16l-1.11-3Zm4.57,44.3L478.44,509l-12.61,32.4Z"/><path d="M560,583.6v2.75H526v-2.78c9.35,0,11.25-2.25,11.25-11.64v-59c0-9.39-1.9-11.64-11.25-11.64v-2.78h62.58V515H586c0-9.52-2.53-11.9-12.77-11.9H548.71v33.59h23.77c7.72,0,10.62-2.78,10.88-9.39h2.4v25h-2.4c-.38-8.59-3.42-10.71-10.88-10.71H548.71v30.28C548.71,581.35,550.61,583.6,560,583.6Z"/><path d="M596.18,501.35v-2.78h37.27v2.78c-10.25,0-12.33,2.25-12.33,11.64v59c0,9.39,2.08,11.64,12.33,11.64v2.72H596.18v-2.78c10.26,0,12.33-2.25,12.33-11.64v-59C608.51,503.6,606.44,501.35,596.18,501.35Z"/><path d="M715.86,501.35h2.76l1,20.89h-2c-6.12-15.6-15.63-22.34-30.51-22.34-19.89,0-36.9,14.67-36.9,40.59,0,27.51,17.63,44.43,36.77,44.43,14,0,26.14-6.74,33.52-20.36h2.25l-.75,2.25a89.66,89.66,0,0,1-7.75,18.11h-3.5c-5.63,0-12.89,3.57-27.15,3.57-25.89,0-46.15-17.45-46.15-43.24,0-29.88,19.76-48.79,47.4-48.79,9.64,0,16.76,1.58,25.14,4.36,0,0,3.13,1.06,4.88,1.59C715.36,502.54,715.86,502.14,715.86,501.35Z"/><path d="M727.31,501.35v-2.78h37.27v2.78c-10.25,0-12.33,2.25-12.33,11.64v59c0,9.39,2.08,11.64,12.33,11.64v2.72H727.31v-2.78c10.25,0,12.33-2.25,12.33-11.64v-59C739.64,503.6,737.56,501.35,727.31,501.35Z"/><path d="M818.51,588.49c-30.19,0-48-20.1-48-46s21.22-46,48-46c30.19,0,48,20.1,48,46S845.28,588.49,818.51,588.49ZM815.6,499.9c-19,0-33.09,15.47-33.09,40.86,0,10.31,2.65,20.49,9.22,29.35a36.78,36.78,0,0,0,29.68,14.81c19,0,33.1-15.47,33.1-40.86,0-10.31-2.66-20.49-9.23-29.35A37.45,37.45,0,0,0,815.6,499.9Z"/><path d="M962.83,513v74h-3.56L886.8,511.88v60c0,9.39,2,11.64,11.75,11.64v2.83H868.72v-2.78c9.77,0,11.75-2.25,11.75-11.64V505.45c-5-3-7.92-4.1-11.88-4.1v-2.78h21.78l66.12,68.63V513c0-9.39-2-11.64-11.74-11.64v-2.78h29.83v2.78C964.81,501.35,962.83,503.6,962.83,513Z"/><path d="M1023.86,497.12,1053.38,572c3.88,9.66,6.65,11.64,14.27,11.64v2.75h-40v-2.78h4.84c9.84,0,11.64-2.78,8.73-10l-10.25-26h-30.2L994,565.42c-5.54,14.55-6.79,18.25,9.42,18.25v2.68H969.87v-2.78c7.21,0,10.53-1.72,13.72-10l28.68-73.39-1.11-3Zm4.58,44.3L1015.69,509l-12.61,32.4Z"/><path d="M1155.52,539.17c0,29.35-25.19,47.21-54,47.21h-36.3V583.6c9.23,0,11.11-2.25,11.11-11.64V513c0-9.39-1.88-11.64-11.11-11.64v-2.78l42.29-1.19C1138.06,496.46,1155.52,514.57,1155.52,539.17Zm-57,44.43h5c22,0,39.79-15.74,39.79-42.45,0-23.4-14.47-41.12-40.54-40.46l-15.09.4v71.8C1087.67,581.48,1090.41,583.6,1098.52,583.6Z"/><path d="M1211,588.49c-29.57,0-47-20.1-47-46s20.77-46,47-46c29.56,0,47,20.1,47,46S1237.23,588.49,1211,588.49Zm-2.85-88.59c-18.55,0-32.4,15.47-32.4,40.86,0,10.31,2.59,20.49,9,29.35a35.81,35.81,0,0,0,29.07,14.81c18.55,0,32.41-15.47,32.41-40.86,0-10.31-2.6-20.49-9-29.35a36.45,36.45,0,0,0-29.07-14.81Z"/><path d="M718.31,245.57,689.9,166.84l-.92-2.23a5.19,5.19,0,0,0-4.85-3.2h-2.58a5.22,5.22,0,0,0-4.83,3.17l-.11.29-28.87,80.75-18.32-43.53,12.87-28.5c3.93-8.73,6.8-10,15.84-10.07v-2.11H543.82v2.11c9.52.13,14.3,4,18.8,15.28l33.13,82.37h8l19.66-46.12,17,40.15,1.3,2.88a5.42,5.42,0,0,0,9.81-.05c1.32-3,2.51-5.83,2.62-6.1L668,217.28h28L706.71,247c1.62,4.42,1.76,7.23.45,9.1s-4.47,2.91-9.93,2.91h-4.51v2.14H733V259C725.15,258.92,722.21,256.17,718.31,245.57ZM603,246.28l-24.94-63c-.25-.66-.6-1.46-1-2.33-1.29-3-3.07-7-3.07-10.23,0-4.09,3-6.17,9-6.17h2c12.9,0,15.33,1.48,20,12.15l14.17,31.81Zm16.17-69.71c-.48-1.12-.94-2.14-1.35-3.08-1.29-2.89-2.22-5-2.22-6.21,0-1.75,2.51-2.76,6.88-2.76h7.86c4.49,0,6.54,1.51,6.54,2.91,0,1.77-1.25,6.28-2.58,9.29l-7.56,17.73Zm52.65,33.85,10.79-27,9.73,27Z"/><path d="M637.09,417c-115,0-208.5-93.53-208.5-208.5S522.12,0,637.09,0s208.5,93.54,208.5,208.5S752.06,417,637.09,417Zm0-412c-112.21,0-203.5,91.29-203.5,203.5S524.88,412,637.09,412s203.5-91.29,203.5-203.5S749.3,5,637.09,5Z"/><path d="M637.09,406c-108.9,0-197.5-88.6-197.5-197.5S528.19,11,637.09,11s197.5,88.6,197.5,197.5S746,406,637.09,406Zm0-390C531,16,444.59,102.36,444.59,208.5S531,401,637.09,401s192.5-86.35,192.5-192.5S743.24,16,637.09,16Z"/><path d="M718.92,88.84,741,56.26l4.32,2.92L723.23,91.76Z"/><path d="M762.54,135.14l34.57-18.79,2.49,4.58L765,139.72Z"/><path d="M766.35,142.35,802,125.56l2.22,4.72L768.6,147.05Z"/><path d="M781.05,199.54,820.39,198l.2,5.21-39.34,1.55Z"/><path d="M781.31,206.46l39.37.64-.09,5.21-39.36-.64Z"/><path d="M781.22,213.35l39.32,2-.26,5.2-39.32-2Z"/><path d="M770.58,263.15l36.16,15.57-2.06,4.78-36.16-15.56Z"/><path d="M763.56,277.85l41.74,6.42-2.82,4.89-29.89-5.4c-2.4-.43-4.6-.91-6.62-1.43q2.34,2.4,4.53,5.06L790,310.87l-2.65,4.61-26.43-33Z"/><path d="M715.66,329.45l33.77,25.35-4.79,3-23.81-18.86q-2.87-2.26-5.16-4.38c.62,2.15,1.15,4.34,1.6,6.59l6.11,29.9-4.52,2.81-7.74-41.56Z"/><path d="M644.61,352.52l16.5,38.86-5.63.18-11.14-28.21c-.9-2.26-1.65-4.39-2.27-6.37q-.81,3.24-1.92,6.51l-9.72,28.92-5.31.17,14.15-39.84Z"/><path d="M627.24,352.35l-3.32,39.23-5.2-.45,3.33-39.22Z"/><path d="M567.77,335l-6.41,41.73-4.89-2.81,5.39-29.9c.43-2.39.91-4.6,1.42-6.61-1.59,1.56-3.28,3.07-5,4.53L534.8,361.41l-4.61-2.65,33-26.44Z"/><path d="M553.19,325.8,529.7,357.4l-4.18-3.11L549,322.69Z"/><path d="M547.7,321.66l-25,30.45-4-3.3,25-30.45Z"/><path d="M519,291.28l-24.15,34.63-3.15-4.67,18-24.46q2.16-3,4.19-5.32-3.18,1-6.53,1.84l-29.67,7.15-3-4.41,41.27-9.2Z"/><path d="M509.51,275.77l-35.13,17.79L472,288.91l35.12-17.78Z"/><path d="M506.05,268.79l-36,15.84-2.1-4.76L504,264Z"/><path d="M503,261.64l-36.84,13.87-1.84-4.88,36.85-13.87Z"/><path d="M493.15,217.35,453.82,219l-.23-5.21,39.34-1.69Z"/><path d="M562.06,85.52l-22.92-32,4.23-3,22.92,32Z"/><path d="M647.06,65.2l1.71-39.33,5.2.22-1.71,39.34Z"/><path d="M638.42,65.2l1.71-39.33,5.21.22-1.71,39.34Z"/><path d="M637.09,344c-74.71,0-135.5-60.78-135.5-135.5S562.38,73,637.09,73s135.5,60.79,135.5,135.5S711.81,344,637.09,344Zm0-266a130.5,130.5,0,1,0,130.5,130.5A130.5,130.5,0,0,0,637.09,78Z"/><path d="M637.09,334.67A126.17,126.17,0,1,1,763.26,208.5,126.17,126.17,0,0,1,637.09,334.67Zm0-247.33A121.17,121.17,0,1,0,758.26,208.51h0A121.3,121.3,0,0,0,637.09,87.35Z"/><path d="M617,65.35l9.06-20.52-8-18.85h3.69L626,36.08q1.32,3.14,1.88,4.83.78-2.14,1.86-4.48L634.45,26h3.37l-8.23,18.56,8.87,20.81h-3.83l-5.9-14c-.33-.81-.67-1.69-1-2.64-.52,1.44-.9,2.42-1.12,3l-5.94,13.64Z"/><path d="M639.18,65.83h-4.93l-6-14.35c-.18-.45-.37-.91-.56-1.4-.29.78-.51,1.35-.66,1.72l-6,14h-4.82l9.28-21-8.2-19.35H622l4.38,10.4c.59,1.41,1.07,2.6,1.44,3.58q.61-1.57,1.38-3.24l4.85-10.74h4.46l-8.45,19.06Zm-4.26-1h2.74L629,44.51l8-18h-2.28l-4.58,10.15c-.7,1.55-1.32,3-1.84,4.45l-.49,1.36-.45-1.37c-.37-1.11-1-2.72-1.87-4.8l-4.13-9.79h-2.6l7.78,18.36-8.84,20h2.63l5.75-13.42c.22-.52.59-1.51,1.11-2.93l.46-1.28.48,1.28c.35.94.68,1.82,1,2.62Z"/><path d="M543.8,99.56l-5.68-21.7-18-9.78,2.89-2.3L532.62,71q3,1.63,4.48,2.61c-.48-1.45-.93-3-1.34-4.67L533,57.87l2.64-2.1,5.11,19.65,19.9,10.77-3,2.39-13.36-7.33c-.76-.42-1.58-.89-2.44-1.42.48,1.45.8,2.45,1,3l3.94,14.4Z"/><path d="M543.51,100.43,537.69,78.2l-18.46-10,3.74-3,9.9,5.42c1.34.73,2.46,1.37,3.35,1.9-.33-1.08-.64-2.22-.93-3.4L532.4,57.7l3.49-2.78,5.25,20.18,20.37,11-3.85,3.06L544,81.69,542.69,81c.26.78.44,1.37.55,1.75l4,14.73ZM521,68l17.52,9.52,5.54,21.17,2-1.64L542.21,83c-.16-.55-.48-1.55-1-3l-.43-1.29,1.17.7c.86.52,1.67,1,2.42,1.42L557.43,88l2.15-1.71L540.16,75.74l-5-19.12L533.37,58l2.74,10.8c.4,1.64.85,3.2,1.33,4.63l.45,1.36-1.2-.78c-1-.64-2.47-1.51-4.45-2.59l-9.32-5.1Z"/><path d="M503.85,153.12l-12.67-18.51-20.24-3.13,1.95-3.14,10.82,1.71q3.36.52,5.1.94-1.41-1.8-2.84-3.94l-6.4-9.51,1.78-2.86,11.44,16.76,22.37,3.42-2,3.26-15-2.38c-.86-.14-1.78-.32-2.77-.52.94,1.2,1.58,2,1.92,2.51L505.88,150Z"/><path d="M503.87,154l-13-19-20.77-3.22,2.51-4.06,11.16,1.75c1.5.24,2.77.46,3.8.66-.68-.9-1.36-1.87-2-2.88L479,117.55l2.35-3.79L493.1,131l22.9,3.5-2.59,4.19L498,136.23l-1.47-.26,1.11,1.47,8.76,12.5ZM471.76,131.1l19.71,3,12.36,18.05,1.38-2.23-8.38-12c-.33-.47-1-1.3-1.91-2.49l-.84-1.07,1.33.27c1,.2,1.91.37,2.76.52l14.72,2.33,1.44-2.34L492.5,131.8l-11.13-16.31-1.2,1.94,6.22,9.24c.94,1.42,1.88,2.73,2.81,3.91l.89,1.13-1.4-.34c-1.13-.27-2.84-.58-5.06-.93l-10.49-1.65Z"/><path d="M493,211.52l-20.39-9.35-19,7.72V206.2l10.16-4.11c2.11-.85,3.73-1.46,4.86-1.81-1.43-.55-2.91-1.18-4.46-1.92l-10.38-4.86v-3.37l18.44,8.49L493.17,190l-.06,3.84L479,199.58c-.81.32-1.69.64-2.64,1,1.42.54,2.4.93,2.94,1.16L493,207.8Z"/><path d="M493.44,212.29l-20.89-9.58-19.46,7.93.07-4.78,10.46-4.23c1.41-.57,2.61-1,3.6-1.39-1-.43-2.12-.91-3.22-1.43l-10.67-5,.06-4.46,18.94,8.72,21.44-8.78-.07,4.93L479.26,200l-1.4.54c.78.3,1.34.52,1.7.68l14,6.21Zm-20.86-10.67,19.88,9.12v-2.62l-13.34-5.94c-.52-.23-1.47-.6-2.91-1.15l-1.27-.49,1.28-.45c1-.34,1.82-.66,2.63-1l13.82-5.57v-2.75l-20.43,8.37-17.94-8.26v2.28l10.08,4.73c1.53.72,3,1.36,4.43,1.9l1.34.51-1.37.43c-1.12.36-2.74,1-4.82,1.81l-9.85,4v2.6Z"/></g></g></svg>