<svg width="150" height="150" viewBox="0 0 150 150" fill="none" xmlns="http://www.w3.org/2000/svg">
<rect width="150" height="150" rx="20" fill="#0B0E11"/>
<path d="M54.0254 66.3825L74.9998 45.408L95.9841 66.3915L108.188 54.1875L74.9998 21L41.8223 54.1776L54.0258 66.3816L54.0254 66.3825ZM21 75L33.2044 62.7938L45.4079 74.9974L33.2035 87.2018L21 75ZM54.0254 83.6188L74.9998 104.592L95.9837 83.6089L108.194 95.8064L108.188 95.8129L74.9998 129L41.8223 95.8224L41.805 95.8051L54.0267 83.6175L54.0254 83.6188ZM104.592 75.0052L116.796 62.8008L129 75.0043L116.796 87.2088L104.592 75.0052Z" fill="#F3BA2F"/>
<path d="M87.377 74.9936H87.3822L74.9994 62.6099L65.8466 71.7601L64.7952 72.812L62.6265 74.9811L62.6093 74.9979L62.6265 75.0156L74.9994 87.3903L87.3831 75.0066L87.3891 74.9996L87.3779 74.9936" fill="#F3BA2F"/>
</svg>
