<svg width="151" height="151" viewBox="0 0 151 151" fill="none" xmlns="http://www.w3.org/2000/svg">
<rect width="150.25" height="150.25" rx="20" fill="#2364E6"/>
<mask id="mask0" style="mask-type:alpha" maskUnits="userSpaceOnUse" x="0" y="0" width="151" height="151">
<rect width="150.25" height="150.25" rx="20" fill="white"/>
</mask>
<g mask="url(#mask0)">
<path d="M-138.855 230.022C-149.871 229.843 -158.709 220.883 -158.734 209.865L-159.214 -2.93944C-159.239 -14.0236 -150.339 -23.0586 -139.257 -23.2828C-47.1292 -25.1468 159.771 -33.4716 160.085 104.096C160.457 236.071 -46.8055 231.517 -138.855 230.022Z" fill="black"/>
<path fill-rule="evenodd" clip-rule="evenodd" d="M-138.855 230.022C-149.871 229.843 -158.709 220.883 -158.734 209.865L-159.214 -2.93944C-159.239 -14.0236 -150.339 -23.0586 -139.257 -23.2828C-47.1292 -25.1468 159.771 -33.4716 160.085 104.096C160.457 236.071 -46.8055 231.517 -138.855 230.022Z" fill="url(#paint0_linear)" fill-opacity="0.85"/>
</g>
<path fill-rule="evenodd" clip-rule="evenodd" d="M69.522 105.538C72.1773 105.538 74.6402 104.972 76.9136 103.555C79.19 102.328 81.274 100.628 82.9791 98.4563C84.6842 96.3788 86.0133 93.9238 86.9606 91.28C87.9079 88.5415 88.3815 85.803 88.3815 82.876C88.3815 79.2877 87.8131 76.5492 86.5817 74.4717C85.3473 72.3942 82.8844 71.5447 79.6637 71.5447C78.6217 71.5447 77.5767 71.6388 75.8716 72.0167C74.1665 72.3942 72.7456 73.2443 71.3247 74.3773L64.0278 105.161C66.3013 105.538 68.6694 105.538 69.522 105.538ZM84.2213 57.4518C87.817 57.4518 90.9371 58.1135 93.5873 59.4366C96.2346 60.6655 98.3147 62.3668 100.111 64.6354C101.816 66.8097 103.045 69.3618 103.896 72.2917C104.747 75.2222 105.125 78.3415 105.125 81.7441C105.125 86.9429 104.18 91.7638 102.194 96.3954C100.206 100.932 97.6528 105.091 94.3437 108.4C91.0316 111.802 87.1552 114.544 82.614 116.434C78.0757 118.419 73.2509 119.364 68.0479 119.364C67.386 119.364 66.1569 119.364 64.4551 119.27C62.7503 119.27 60.7648 119.081 58.6848 118.797C56.5102 118.419 54.1435 118.041 51.7799 117.474C49.3217 116.907 47.0496 116.056 44.875 115.016L64.3605 33.4429L81.7631 30.7017L74.8582 59.6256C76.3709 58.9642 77.7921 58.397 79.3048 58.1132C80.9121 57.6408 82.5194 57.4518 84.2213 57.4518Z" fill="#FFFFFE"/>
<defs>
<linearGradient id="paint0_linear" x1="-261.236" y1="-49.9651" x2="-153.475" y2="269.379" gradientUnits="userSpaceOnUse">
<stop stop-color="#1A38BD"/>
<stop offset="1" stop-color="#030C38"/>
</linearGradient>
</defs>
</svg>
