<svg width="150" height="150" viewBox="0 0 150 150" fill="none" xmlns="http://www.w3.org/2000/svg">
<rect width="150" height="150" rx="20" fill="white"/>
<path d="M34.4454 61.9263L29.9385 66.4332C28.683 67.6243 27.6851 69.0729 27.009 70.6504C26.333 72.2278 25.9789 73.9662 25.9789 75.7045C25.9789 77.4429 26.333 79.1491 27.009 80.7265C27.6851 82.3039 28.683 83.7526 29.9385 84.9437L66.2514 121.643C67.1206 122.512 68.1185 123.252 69.213 123.8V79.3423L34.4454 61.9263Z" fill="#3D89F5"/>
<path d="M116.343 61.9263L120.849 66.4332C122.105 67.6243 123.103 69.0729 123.779 70.6504C124.455 72.2278 124.809 73.9662 124.809 75.6724C124.809 77.3785 124.455 79.1169 123.779 80.6943C123.103 82.2718 122.105 83.7204 120.849 84.9115L84.5366 121.611C83.6674 122.48 82.6695 123.22 81.575 123.768V79.3423L116.343 61.9263Z" fill="#1656B9"/>
<path d="M107.618 52.7195L84.8906 29.9275C83.6995 28.672 82.2509 27.7062 80.6413 27.0302C79.0317 26.3541 77.3577 26 75.6193 26C73.8809 26 72.1747 26.3541 70.5973 27.0302C69.0199 27.7062 67.5712 28.7041 66.3479 29.9275L43.588 52.7195L75.5227 68.6547L107.618 52.7195Z" fill="#85B5F8"/>
</svg>
