<svg width="150" height="150" viewBox="0 0 150 150" fill="none" xmlns="http://www.w3.org/2000/svg">
<rect width="150" height="150" rx="20" fill="url(#paint0_linear)"/>
<path d="M113.686 55.2857C113.686 45.2571 106.743 36 88.2286 36H38.8571C36.6971 36 35 37.6971 35 39.8571V109.286C35 111.446 36.6971 113.143 38.8571 113.143H89C108.286 113.143 116 102.96 116 92.3143C116 81.6686 105.817 73.8 95.1714 73.8C105.817 73.8 113.686 65.3143 113.686 55.2857ZM67.4 82.2857H90.5429C94.4 82.2857 97.4857 85.3714 97.4857 89.2286C97.4857 93.0857 94.4 96.1714 90.5429 96.1714H53.5143V52.9714H88.2286C92.0857 52.9714 95.1714 55.2857 95.1714 59.1429C95.1714 63 92.0857 65.3143 88.2286 65.3143H67.4C65.24 65.3143 63.5429 67.0114 63.5429 69.1714V78.4286C63.5429 80.5886 65.24 82.2857 67.4 82.2857Z" fill="white"/>
<defs>
<linearGradient id="paint0_linear" x1="150" y1="0" x2="-5.67506e-06" y2="143.5" gradientUnits="userSpaceOnUse">
<stop stop-color="#F9A538"/>
<stop offset="0.9999" stop-color="#FF5292"/>
<stop offset="1" stop-color="#FF4F94"/>
</linearGradient>
</defs>
</svg>
