<svg width="150" height="150" viewBox="0 0 150 150" fill="none" xmlns="http://www.w3.org/2000/svg">
<rect width="150" height="150" rx="20" fill="#171826"/>
<path d="M93.8051 74.9384L121.855 102.996H111.958C110.261 102.994 108.635 102.318 107.436 101.117L81.3269 74.9384L107.457 48.7384C108.659 47.5454 110.286 46.8781 111.979 46.8819H121.855L93.8051 74.9384ZM42.3985 48.7384C41.196 47.5454 39.5695 46.8781 37.876 46.8819H28L56.0502 74.9384L28 102.996H37.8975C39.5942 102.994 41.2207 102.318 42.4194 101.117L68.5284 74.9384L42.3985 48.7384ZM74.9276 81.3396L48.7334 107.476C47.541 108.678 46.8737 110.305 46.8775 111.999V121.877L74.9276 93.8209L102.977 121.877V111.999C102.982 110.305 102.314 108.678 101.122 107.476L74.9276 81.3396ZM74.9276 68.5378L101.122 42.4017C102.314 41.1992 102.982 39.5727 102.977 37.8785V28L74.9276 56.0565L46.8775 28V37.8785C46.8737 39.5727 47.541 41.1992 48.7334 42.4017L74.9276 68.5378Z" fill="url(#paint0_linear)"/>
<defs>
<linearGradient id="paint0_linear" x1="28" y1="74.9387" x2="121.855" y2="74.9387" gradientUnits="userSpaceOnUse">
<stop stop-color="#00BFFF"/>
<stop offset="1" stop-color="#6619FF"/>
</linearGradient>
</defs>
</svg>
