<svg width="150" height="150" viewBox="0 0 150 150" fill="none" xmlns="http://www.w3.org/2000/svg">
<rect width="150" height="150" rx="20" fill="#5741D9"/>
<path d="M71.7836 36.1102C80.472 35.5243 89.3275 37.2819 97.0969 41.2157C108.626 46.9072 117.815 57.1183 122.076 69.1708C123.997 74.5275 125 80.1352 125 85.8267V106.835C125 107.672 125 108.592 124.833 109.429C124.332 111.522 122.828 113.447 120.823 114.368C119.403 115.037 117.815 115.121 116.395 114.87C113.221 114.284 110.714 111.271 110.714 108.007C110.714 101.478 110.714 94.9497 110.714 88.4213C110.798 86.58 110.798 84.5712 109.795 82.981C108.208 79.9678 104.198 78.545 101.107 79.8004C98.4336 80.7211 96.5121 83.4831 96.4286 86.3289C96.4286 92.941 96.4286 99.5531 96.4286 106.165C96.4286 107.421 96.5121 108.676 96.0944 109.848C95.4261 112.191 93.5046 114.033 91.1654 114.702C88.0744 115.539 84.5656 114.2 83.0618 111.354C81.9758 109.681 82.0593 107.588 82.1429 105.663C82.1429 99.0509 82.1429 92.5225 82.1429 85.9104C82.0593 82.5625 79.3024 79.5493 76.0443 79.1308C73.8722 78.7961 71.6165 79.5493 70.0292 81.0559C68.609 82.3951 67.8571 84.3201 67.8571 86.2452V105.412C67.8571 107.002 68.0242 108.676 67.4394 110.183C66.5205 112.945 63.7636 114.953 60.8396 114.87C57.8321 115.037 54.9081 112.945 53.9891 110.183C53.4879 108.76 53.5714 107.337 53.5714 105.83C53.5714 99.2183 53.5714 92.6062 53.5714 85.9941C53.5714 82.7298 50.9816 79.7167 47.807 79.1308C44.883 78.545 41.7084 79.9678 40.2047 82.6461C39.6199 83.7342 39.2857 84.9897 39.2857 86.2452V107.755C39.2857 109.848 38.3667 111.94 36.7794 113.28C34.3567 115.372 30.4302 115.539 27.924 113.614C26.086 112.359 25 110.183 25 107.923V86.1615C25 77.9591 27.0886 69.7567 31.015 62.475C34.1896 56.5324 38.6174 51.2595 43.8805 47.0746C51.65 40.5461 61.5915 36.6961 71.7836 36.1102Z" fill="white"/>
</svg>
