<svg width="150" height="150" viewBox="0 0 150 150" fill="none" xmlns="http://www.w3.org/2000/svg">
<rect width="150" height="150" rx="20" fill="white"/>
<path d="M103.817 59.4008C103.692 59.1774 103.521 58.9876 103.339 58.8076C100.626 56.1246 95.1181 43.8387 105.001 40.9477C105.407 40.829 105.852 40.8618 106.232 41.0479C107.384 41.613 108.362 42.3556 109.35 43.4137C117.197 51.8126 122 63.0919 122 75.4929C122 100.78 102.031 121.402 77.0016 122.451C75.898 122.497 75 121.598 75 120.493V110.493C75 109.388 75.8977 108.499 77.0003 108.433C94.2943 107.399 108 93.0467 108 75.4929C108 69.6498 106.481 64.1614 103.817 59.4008Z" fill="url(#paint0_linear)"/>
<path d="M99.2611 69.7258L103.728 59.0637C103.732 59.0715 103.737 59.0792 103.741 59.087C104.441 55.383 107.694 52.5815 111.602 52.5815C113.932 52.5815 116.03 53.5779 117.492 55.1677C115.414 50.8411 112.692 46.8818 109.452 43.4137C108.299 42.1791 107.16 41.3739 105.741 40.7793C100.647 38.6453 94.7876 41.0447 92.6536 46.1385L85.2338 63.8491C84.5936 65.3773 85.3134 67.1351 86.8416 67.7753L95.3349 71.3336C96.863 71.9738 98.6209 71.254 99.2611 69.7258Z" fill="url(#paint1_linear)"/>
<path d="M46.1827 90.0924C46.3078 90.3158 46.479 90.5055 46.661 90.6855C49.3741 93.3686 54.8819 105.654 44.9992 108.546C44.5934 108.664 44.1481 108.631 43.7684 108.445C42.6157 107.88 41.6383 107.138 40.6498 106.08C32.8028 97.6806 28 86.4013 28 74.0003C28 48.7134 47.9695 28.0907 72.9984 27.0421C74.102 26.9958 75 27.8957 75 29.0002L75 39.0002C75 40.1048 74.1023 40.9939 72.9997 41.0599C55.7057 42.0939 42 56.4465 42 74.0003C42 79.8434 43.5186 85.3318 46.1827 90.0924Z" fill="url(#paint2_linear)"/>
<path d="M50.7389 79.7674L46.2721 90.4294C46.2677 90.4217 46.2632 90.4139 46.2588 90.4062C45.5588 94.1102 42.3056 96.9116 38.3981 96.9116C36.0679 96.9116 33.9703 95.9153 32.5082 94.3254C34.5865 98.652 37.3077 102.611 40.5479 106.079C41.7013 107.314 42.8397 108.119 44.2591 108.714C49.353 110.848 55.2124 108.449 57.3464 103.355L64.7662 85.6441C65.4064 84.1159 64.6866 82.3581 63.1584 81.7178L54.6651 78.1596C53.137 77.5194 51.3791 78.2392 50.7389 79.7674Z" fill="url(#paint3_linear)"/>
<defs>
<linearGradient id="paint0_linear" x1="98.5" y1="40.0005" x2="98.5" y2="122.493" gradientUnits="userSpaceOnUse">
<stop stop-color="#286BE0"/>
<stop offset="1" stop-color="#97B8FF"/>
</linearGradient>
<linearGradient id="paint1_linear" x1="95" y1="41" x2="101.246" y2="71.5673" gradientUnits="userSpaceOnUse">
<stop offset="0.0670532" stop-color="#6490F1"/>
<stop offset="1" stop-color="#6490F1"/>
</linearGradient>
<linearGradient id="paint2_linear" x1="51.5" y1="109.493" x2="51.5" y2="26.9997" gradientUnits="userSpaceOnUse">
<stop stop-color="#286BE0"/>
<stop offset="1" stop-color="#97B8FF"/>
</linearGradient>
<linearGradient id="paint3_linear" x1="55" y1="108.493" x2="48.7541" y2="77.9258" gradientUnits="userSpaceOnUse">
<stop offset="0.0670532" stop-color="#6490F1"/>
<stop offset="1" stop-color="#6490F1"/>
</linearGradient>
</defs>
</svg>
