<svg width="150" height="150" viewBox="0 0 150 150" fill="none" xmlns="http://www.w3.org/2000/svg">
<rect width="150" height="150" rx="20" fill="white"/>
<path d="M129.077 19L82.2317 53.7928L90.8946 33.2655L129.077 19Z" fill="#E2761B" stroke="#E2761B" stroke-linecap="round" stroke-linejoin="round"/>
<path d="M20.9323 19L67.4012 54.1224L59.162 33.2655L20.9323 19Z" fill="#E4761B" stroke="#E4761B" stroke-linecap="round" stroke-linejoin="round"/>
<path d="M112.222 99.6499L99.7458 118.765L126.441 126.109L134.115 100.074L112.222 99.6499Z" fill="#E4761B" stroke="#E4761B" stroke-linecap="round" stroke-linejoin="round"/>
<path d="M15.9888 100.074L23.6159 126.109L50.3108 118.765L37.8343 99.6499L15.9888 100.074Z" fill="#E4761B" stroke="#E4761B" stroke-linecap="round" stroke-linejoin="round"/>
<path d="M48.8041 67.352L41.3654 78.6043L67.8719 79.7814L66.9303 51.2974L48.8041 67.352Z" fill="#E4761B" stroke="#E4761B" stroke-linecap="round" stroke-linejoin="round"/>
<path d="M101.205 67.3524L82.8437 50.9683L82.2317 79.7818L108.691 78.6048L101.205 67.3524Z" fill="#E4761B" stroke="#E4761B" stroke-linecap="round" stroke-linejoin="round"/>
<path d="M50.3108 118.765L66.2242 110.996L52.4765 100.262L50.3108 118.765Z" fill="#E4761B" stroke="#E4761B" stroke-linecap="round" stroke-linejoin="round"/>
<path d="M83.7854 110.996L99.7459 118.765L97.5331 100.262L83.7854 110.996Z" fill="#E4761B" stroke="#E4761B" stroke-linecap="round" stroke-linejoin="round"/>
<path d="M99.7459 118.764L83.7854 110.996L85.0566 121.401L84.9153 125.78L99.7459 118.764Z" fill="#D7C1B3" stroke="#D7C1B3" stroke-linecap="round" stroke-linejoin="round"/>
<path d="M50.3108 118.764L65.1413 125.78L65.0471 121.401L66.2242 110.996L50.3108 118.764Z" fill="#D7C1B3" stroke="#D7C1B3" stroke-linecap="round" stroke-linejoin="round"/>
<path d="M65.3767 93.3879L52.0999 89.4802L61.469 85.1958L65.3767 93.3879Z" fill="#233447" stroke="#233447" stroke-linecap="round" stroke-linejoin="round"/>
<path d="M84.6328 93.3879L88.5405 85.1958L97.9567 89.4802L84.6328 93.3879Z" fill="#233447" stroke="#233447" stroke-linecap="round" stroke-linejoin="round"/>
<path d="M50.3108 118.764L52.5707 99.6494L37.8344 100.073L50.3108 118.764Z" fill="#CD6116" stroke="#CD6116" stroke-linecap="round" stroke-linejoin="round"/>
<path d="M97.486 99.6494L99.7459 118.764L112.222 100.073L97.486 99.6494Z" fill="#CD6116" stroke="#CD6116" stroke-linecap="round" stroke-linejoin="round"/>
<path d="M108.691 78.6045L82.2317 79.7815L84.6799 93.3879L88.5876 85.1958L98.0038 89.4802L108.691 78.6045Z" fill="#CD6116" stroke="#CD6116" stroke-linecap="round" stroke-linejoin="round"/>
<path d="M52.0999 89.4802L61.5161 85.1958L65.3768 93.3879L67.8721 79.7815L41.3655 78.6045L52.0999 89.4802Z" fill="#CD6116" stroke="#CD6116" stroke-linecap="round" stroke-linejoin="round"/>
<path d="M41.3654 78.6045L52.4765 100.262L52.0998 89.4802L41.3654 78.6045Z" fill="#E4751F" stroke="#E4751F" stroke-linecap="round" stroke-linejoin="round"/>
<path d="M98.0038 89.4802L97.533 100.262L108.691 78.6045L98.0038 89.4802Z" fill="#E4751F" stroke="#E4751F" stroke-linecap="round" stroke-linejoin="round"/>
<path d="M67.872 79.7817L65.3767 93.3881L68.484 109.443L69.1903 88.3034L67.872 79.7817Z" fill="#E4751F" stroke="#E4751F" stroke-linecap="round" stroke-linejoin="round"/>
<path d="M82.2316 79.7817L80.9604 88.2563L81.5254 109.443L84.6799 93.3881L82.2316 79.7817Z" fill="#E4751F" stroke="#E4751F" stroke-linecap="round" stroke-linejoin="round"/>
<path d="M84.6799 93.3877L81.5255 109.442L83.7854 110.996L97.5331 100.262L98.0039 89.48L84.6799 93.3877Z" fill="#F6851B" stroke="#F6851B" stroke-linecap="round" stroke-linejoin="round"/>
<path d="M52.0999 89.48L52.4765 100.262L66.2242 110.996L68.484 109.442L65.3767 93.3877L52.0999 89.48Z" fill="#F6851B" stroke="#F6851B" stroke-linecap="round" stroke-linejoin="round"/>
<path d="M84.9153 125.78L85.0565 121.401L83.8795 120.365H66.13L65.0471 121.401L65.1413 125.78L50.3108 118.765L55.4897 123.002L65.9888 130.299H84.0208L94.5669 123.002L99.7458 118.765L84.9153 125.78Z" fill="#C0AD9E" stroke="#C0AD9E" stroke-linecap="round" stroke-linejoin="round"/>
<path d="M83.7853 110.996L81.5255 109.442H68.484L66.2241 110.996L65.0471 121.401L66.13 120.365H83.8795L85.0565 121.401L83.7853 110.996Z" fill="#161616" stroke="#161616" stroke-linecap="round" stroke-linejoin="round"/>
<path d="M131.055 56.0527L135.056 36.8437L129.077 19L83.7853 52.6158L101.205 67.3522L125.829 74.5556L131.29 68.1996L128.936 66.5047L132.702 63.0678L129.783 60.8079L133.55 57.936L131.055 56.0527Z" fill="#763D16" stroke="#763D16" stroke-linecap="round" stroke-linejoin="round"/>
<path d="M15 36.8437L19.0019 56.0527L16.4595 57.936L20.226 60.8079L17.354 63.0678L21.1205 66.5047L18.7665 68.1996L24.1808 74.5556L48.8041 67.3522L66.2241 52.6158L20.9322 19L15 36.8437Z" fill="#763D16" stroke="#763D16" stroke-linecap="round" stroke-linejoin="round"/>
<path d="M125.829 74.5554L101.205 67.3521L108.691 78.6044L97.5331 100.262L112.222 100.073H134.115L125.829 74.5554Z" fill="#F6851B" stroke="#F6851B" stroke-linecap="round" stroke-linejoin="round"/>
<path d="M48.8042 67.3521L24.1809 74.5554L15.9888 100.073H37.8343L52.4765 100.262L41.3654 78.6044L48.8042 67.3521Z" fill="#F6851B" stroke="#F6851B" stroke-linecap="round" stroke-linejoin="round"/>
<path d="M82.2317 79.7816L83.7853 52.6159L90.9417 33.2656H59.162L66.2241 52.6159L67.872 79.7816L68.4369 88.3504L68.484 109.443H81.5255L81.6196 88.3504L82.2317 79.7816Z" fill="#F6851B" stroke="#F6851B" stroke-linecap="round" stroke-linejoin="round"/>
</svg>
