<svg width="50" height="50" viewBox="0 0 50 50" fill="none" xmlns="http://www.w3.org/2000/svg">
    <path d="M36.1853 4.40155C34.8988 5.68802 33.7202 7.08234 32.6726 8.5691L32.3413 8.46125C30.4309 7.83727 28.4511 7.4521 26.4559 7.32115C25.855 7.27492 23.6133 7.27492 22.8815 7.32115C20.6706 7.46751 18.9759 7.79876 17.05 8.46895C16.973 8.49977 16.9036 8.52288 16.8343 8.54599C15.7481 7.06693 14.5387 5.68032 13.206 4.40925C19.5998 1.1353 27.0799 0.742426 33.7741 3.32307C34.4906 3.59269 35.1916 3.90853 35.8772 4.24748L36.1853 4.40155Z" fill="#F00500"/>
    <path d="M48.1102 33.6206C47.1396 36.3861 45.6836 38.9514 43.7963 41.1854C42.7717 42.3871 41.6393 43.4887 40.4222 44.4901C37.5719 46.7858 34.244 48.4266 30.6928 49.2894C26.764 50.2369 22.6658 50.2369 18.737 49.2894C15.1781 48.4266 11.8579 46.7858 9.00763 44.4901C7.79049 43.4887 6.65808 42.3871 5.63353 41.1854C0.202616 34.7684 -1.44592 25.9557 1.31961 18.0135C1.84344 16.5421 2.49823 15.1247 3.28398 13.7766C3.64604 13.1603 4.09285 12.467 4.30854 12.182C5.04807 15.3635 5.95707 18.1598 6.29602 19.169C6.27291 19.2229 6.2421 19.2845 6.21128 19.3384C4.41639 22.9745 3.44576 26.4795 3.21466 30.208C3.21466 30.2542 3.20695 30.3081 3.20695 30.3543C3.14532 31.4713 3.17614 32.0029 3.36102 32.7039C3.93877 34.8994 5.71827 37.3182 8.50691 39.6909C13.075 43.5734 19.2686 46.3775 23.96 46.701C28.8516 47.0323 36.0697 44.1743 40.8767 39.999C41.6316 39.3288 42.3403 38.6201 43.0028 37.8652C43.4804 37.3105 44.1891 36.3553 44.1352 36.3553C44.1198 36.3553 44.1352 36.3399 44.166 36.3245C44.1891 36.3091 44.2122 36.286 44.1968 36.2706C44.1891 36.2629 44.2045 36.2398 44.2277 36.2321C44.2508 36.2244 44.2662 36.2089 44.2585 36.1935C44.2508 36.1781 44.2585 36.1627 44.2893 36.155C44.3124 36.1473 44.3201 36.1242 44.3124 36.1088C44.3047 36.0934 44.3124 36.078 44.3278 36.078C44.3432 36.078 44.3586 36.0549 44.3586 36.0395C44.3586 36.0241 44.374 36.001 44.3894 36.001C44.4048 36.001 44.4202 35.9856 44.4202 35.9701C44.4434 35.9085 44.4819 35.8469 44.5204 35.793C44.6359 35.6158 45.0981 34.7915 45.1598 34.6529C45.5989 33.6591 45.8762 32.7732 46.0071 31.8873C46.0688 31.4636 46.1073 30.6856 46.0765 30.5007C46.0688 30.4699 46.0688 30.416 46.0611 30.3312C46.0457 30.1772 46.038 29.9461 46.0226 29.715C46.0072 29.3683 45.9763 28.883 45.9532 28.6442C45.622 25.1468 44.7284 22.2889 43.0336 19.2614C42.9643 19.1459 42.9027 19.0303 42.8642 18.9379C42.8488 18.9148 42.841 18.8917 42.8333 18.8762C43.0721 18.1598 44.0505 15.1632 44.8285 11.7352L44.8439 11.7506L44.9595 11.9046C45.1598 12.1743 45.6913 12.9754 45.9301 13.3606C47.0163 15.1324 47.8637 17.0351 48.4645 19.0226C49.8589 23.8064 49.7433 28.9061 48.1102 33.6206Z" fill="#F00500"/>
    <path d="M38.1111 24.415C38.088 24.5383 37.726 24.908 37.3639 25.1777C36.3008 25.9557 34.3981 26.6798 32.4645 27.0265C31.363 27.2268 30.2614 27.2576 29.9301 27.0958C29.7144 26.988 29.6836 26.9032 29.7606 26.6259C29.9224 26.0481 30.4463 25.4165 31.2628 24.8233C31.6788 24.5229 33.3658 23.4983 34.1516 23.0669C35.4458 22.3582 36.4934 21.9345 37.2021 21.8344C37.4255 21.8036 37.6952 21.7959 37.7799 21.8344C37.9186 21.8883 38.0726 22.2966 38.1342 22.7896C38.1651 23.0515 38.1496 24.207 38.1111 24.415Z" fill="black"/>
    <path d="M19.9619 26.9649C19.9157 27.0573 19.6846 27.1575 19.4226 27.196C19.1607 27.2345 18.3596 27.2114 17.9051 27.1575C16.2719 26.9418 14.5387 26.4411 13.2753 25.8248C12.5666 25.4781 12.0582 25.1315 11.6807 24.754L11.465 24.5306L11.4419 24.2379C11.4034 23.7294 11.4111 22.9283 11.4727 22.6432C11.5112 22.4044 11.596 22.1733 11.7115 21.9653C11.7732 21.8883 11.7732 21.8883 12.0505 21.8883C12.3894 21.8883 12.6745 21.9422 13.1367 22.0886C14.0842 22.3813 15.4939 23.09 17.2118 24.1223C18.6292 24.9697 19.1607 25.3857 19.569 25.9557C19.8463 26.3101 20.0312 26.8108 19.9619 26.9649Z" fill="black"/>
    <path d="M30.8699 37.688C30.8699 37.7111 30.7775 38.0809 30.662 38.52C30.5464 38.9591 30.454 39.3134 30.454 39.3288C30.3692 39.3365 30.2922 39.3443 30.2075 39.3365H29.9609L29.622 40.1377C29.4371 40.5768 29.2676 40.9851 29.2445 41.0467L29.1983 41.1546L29.0365 40.8926L28.8748 40.6307V38.4969L28.8131 38.5123C28.6822 38.5431 27.7501 38.6664 27.3418 38.7049C25.6547 38.8743 23.96 38.8358 22.2806 38.597C22.011 38.5585 21.7799 38.5277 21.7722 38.5354C21.7645 38.5431 21.7722 39.0361 21.7876 39.6447L21.8107 40.7386L21.6797 40.9389C21.6104 41.0467 21.5411 41.1391 21.5411 41.1468C21.518 41.17 21.4409 41.0467 21.2638 40.6923C21.0712 40.3226 20.9325 39.9297 20.8324 39.5214L20.7784 39.298L20.5396 39.3134L20.3008 39.3365L20.2392 39.0515C20.2084 38.8975 20.1699 38.6586 20.1545 38.5277L20.1314 38.2812L19.9311 38.104C19.8155 38.0039 19.7 37.9037 19.6769 37.8883C19.6383 37.8575 19.6229 37.8036 19.6229 37.7574V37.6649L20.5859 37.6726L21.5488 37.6803L21.5796 37.7805L21.6104 37.8806L21.9417 37.896C22.1266 37.9037 22.712 37.9191 23.2358 37.9345L24.1988 37.9576L24.4453 37.5725L24.6995 37.1873H25.023L25.0153 36.3861L25.0076 35.585L24.5839 35.4001C23.2204 34.7992 22.4193 34.1136 22.1188 33.2817C22.0572 33.1122 22.0572 33.0506 22.0418 32.2802C22.0341 31.5176 22.0341 31.4483 22.088 31.2788C22.1959 30.8936 22.4963 30.5932 22.8815 30.493C23.0124 30.4545 23.3591 30.4545 25.1771 30.4545L27.3187 30.4622L27.5575 30.5778C27.8425 30.7164 27.9735 30.8166 28.1352 31.0323C28.3201 31.2788 28.374 31.4714 28.374 31.9413C28.374 32.6115 28.3278 33.1892 28.2585 33.4203C28.1583 33.7362 28.0043 34.0366 27.8117 34.3062C27.4265 34.7992 26.7255 35.2923 26.0861 35.5157L25.9012 35.585L25.9089 36.3939L25.9166 37.2027L26.0861 37.2181L26.2556 37.2335L26.4867 37.5802L26.7101 37.9268H27.7424C28.3124 37.9268 28.8131 37.9345 28.8594 37.9422C28.9364 37.9576 28.9518 37.9499 29.0288 37.819L29.1213 37.6803H30.0072C30.6697 37.6495 30.8699 37.6649 30.8699 37.688Z" fill="black"/>
    <path d="M26.8025 39.8989C26.6562 39.9837 26.556 40.0222 26.5329 40.0068C26.5098 39.9991 26.4019 39.9066 26.2864 39.8219L26.0784 39.6524L25.8627 39.8835C25.3928 40.3919 25.3774 40.4151 25.2387 40.4228C25.023 40.4459 24.9768 40.4074 24.7149 40.0145C24.5762 39.8142 24.4684 39.6447 24.4684 39.6447C24.4684 39.6447 24.3682 39.6293 24.2527 39.6216L24.037 39.5985L23.9368 39.8065L23.8367 40.0145L23.6595 39.9606C23.5209 39.9143 23.3822 39.8604 23.2512 39.7988L23.0201 39.6832V39.2441L25.0693 39.2518L27.1184 39.2595L27.1261 39.4675C27.1338 39.714 27.1415 39.7063 26.8025 39.8989Z" fill="black"/>
    <path d="M46.0611 30.5007C46.0534 30.4699 46.0534 30.416 46.0457 30.3312C44.1968 30.131 38.92 30.0077 34.0206 34.052C34.0206 34.052 32.4414 26.8108 25.0461 26.8108C17.6509 26.8108 14.9084 34.052 14.9084 34.052C10.764 29.5917 5.21754 29.9153 3.21465 30.208C3.21465 30.2542 3.20694 30.3081 3.20694 30.3544C3.14532 31.4714 3.17613 32.0029 3.36101 32.7039C3.93877 34.8994 5.71826 37.3182 8.5069 39.6909C13.075 43.5734 19.2686 46.3774 23.96 46.701C28.8516 47.0322 36.0697 44.1743 40.8767 39.999C41.6316 39.3288 42.3403 38.6201 43.0028 37.8652C43.4804 37.3105 44.1891 36.3553 44.1352 36.3553C44.1198 36.3553 44.1352 36.3399 44.166 36.3245C44.1891 36.3091 44.2122 36.286 44.1968 36.2706C44.1891 36.2629 44.2045 36.2398 44.2277 36.2321C44.2508 36.2244 44.2662 36.2089 44.2585 36.1935C44.2508 36.1781 44.2585 36.1627 44.2893 36.155C44.3124 36.1473 44.3201 36.1242 44.3124 36.1088C44.3047 36.0934 44.3124 36.078 44.3278 36.078C44.3432 36.078 44.3586 36.0549 44.3586 36.0395C44.3586 36.0241 44.374 36.001 44.3894 36.001C44.4048 36.001 44.4202 35.9856 44.4202 35.9701C44.4433 35.9085 44.4819 35.8469 44.5204 35.793C44.6359 35.6158 45.0981 34.7915 45.1598 34.6529C45.5989 33.6591 45.8762 32.7732 46.0071 31.8873C46.0534 31.4637 46.0919 30.6856 46.0611 30.5007ZM26.8025 39.8989C26.6562 39.9836 26.556 40.0221 26.5329 40.0067C26.5098 39.999 26.4019 39.9066 26.2864 39.8219L26.0784 39.6524L25.8627 39.8835C25.3928 40.3919 25.3774 40.415 25.2387 40.4227C25.023 40.4458 24.9768 40.4073 24.7149 40.0144C24.5762 39.8141 24.4684 39.6447 24.4684 39.6447C24.4684 39.6447 24.3682 39.6293 24.2527 39.6216L24.037 39.5984L23.9368 39.8064L23.8367 40.0144L23.6595 39.9605C23.5209 39.9143 23.3822 39.8604 23.2512 39.7987L23.0201 39.6832V39.2441L25.0693 39.2518L27.1184 39.2595L27.1261 39.4675C27.1338 39.714 27.1415 39.7063 26.8025 39.8989ZM30.6542 38.5123C30.5387 38.9514 30.4462 39.3057 30.4462 39.3211C30.3615 39.3288 30.2845 39.3365 30.1997 39.3288H29.9532L29.622 40.1377C29.4371 40.5768 29.2676 40.9851 29.2445 41.0467L29.1983 41.1545L29.0365 40.8926L28.8747 40.6307V38.4969L28.8131 38.5123C28.6822 38.5431 27.75 38.6663 27.3418 38.7049C25.6547 38.8743 23.96 38.8358 22.2806 38.597C22.011 38.5585 21.7799 38.5277 21.7722 38.5354C21.7645 38.5431 21.7722 39.0361 21.7876 39.6447L21.8107 40.7386L21.6797 40.9388C21.6104 41.0467 21.5411 41.1391 21.5411 41.1468C21.518 41.1699 21.4409 41.0467 21.2638 40.6923C21.0712 40.3226 20.9325 39.9297 20.8324 39.5214L20.7784 39.298L20.5396 39.3134L20.3008 39.3365L20.2392 39.0515C20.2084 38.8974 20.1699 38.6586 20.1545 38.5277L20.1314 38.2812L19.9311 38.104C19.8155 38.0038 19.7 37.9037 19.6769 37.8883C19.6383 37.8575 19.6229 37.8036 19.6229 37.7573V37.6649L20.5859 37.6726L21.5488 37.6803L21.5796 37.7804L21.6104 37.8806L21.9417 37.896C22.1265 37.9037 22.712 37.9191 23.2358 37.9345L24.1988 37.9576L24.4453 37.5725L24.6995 37.1873H25.023L25.0153 36.3861L25.0076 35.585L24.5839 35.4001C23.2204 34.7992 22.4193 34.1136 22.1188 33.2817C22.0572 33.1122 22.0572 33.0506 22.0418 32.2802C22.0341 31.5176 22.0341 31.4482 22.088 31.2788C22.1959 30.8936 22.4963 30.5932 22.8815 30.493C23.0124 30.4545 23.3591 30.4545 25.1771 30.4545L27.3186 30.4622L27.5574 30.5778C27.8425 30.7164 27.9734 30.8166 28.1352 31.0323C28.3201 31.2788 28.374 31.4714 28.374 31.9413C28.374 32.6115 28.3278 33.1892 28.2585 33.4203C28.1583 33.7362 28.0043 34.0366 27.8117 34.3062C27.4265 34.7992 26.7255 35.2922 26.0861 35.5156L25.9012 35.585L25.9089 36.3938L25.9166 37.2027L26.0861 37.2181L26.2556 37.2335L26.4867 37.5802L26.7101 37.9268H27.7423C28.3124 37.9268 28.8131 37.9345 28.8593 37.9422C28.9364 37.9576 28.9518 37.9499 29.0288 37.819L29.1212 37.6803H30.0071C30.6927 37.6803 30.893 37.688 30.893 37.7111C30.8699 37.7034 30.7698 38.0809 30.6542 38.5123Z" fill="white"/>
    <path d="M45.9994 29.715C45.984 29.3683 45.9532 28.883 45.9301 28.6442C45.5989 25.1469 44.7053 22.2889 43.0105 19.2614C42.9412 19.1459 42.8796 19.0303 42.841 18.9379C42.8256 18.9148 42.8179 18.8917 42.8102 18.8763C43.049 18.1599 44.0274 15.1632 44.8054 11.7352C45.8608 7.08233 46.531 1.64371 44.4819 0.0105864C44.4819 0.0105864 40.9383 -0.25133 36.193 4.40154C34.9065 5.68801 33.7279 7.08233 32.6802 8.56909L32.349 8.46124C30.4385 7.83727 28.4588 7.4521 26.4636 7.32114C25.8627 7.27492 23.621 7.27492 22.8892 7.32114C20.6783 7.4675 18.9836 7.79875 17.0577 8.46895C16.9807 8.49976 16.9113 8.52287 16.842 8.54598C15.7558 7.06692 14.5464 5.68031 13.2137 4.40924C8.2758 -0.266737 4.60127 0.00288248 4.60127 0.00288248C2.42891 1.68993 3.16844 7.37506 4.29314 12.182C5.03266 15.3635 5.94167 18.1599 6.28062 19.169C6.25751 19.2229 6.2267 19.2846 6.19588 19.3385C4.40098 22.9745 3.43035 26.4796 3.19925 30.208C5.20984 29.9153 10.7486 29.584 14.9007 34.052C14.9007 34.052 17.6432 26.8108 25.0384 26.8108C32.4337 26.8108 34.0129 34.052 34.0129 34.052C38.9123 30.0077 44.1891 30.1387 46.038 30.3313C46.0303 30.1772 46.0149 29.9461 45.9994 29.715ZM7.73657 16.2648C7.73657 16.2648 4.85548 9.06211 5.59501 4.94848C5.71827 4.25517 5.94937 3.6466 6.31143 3.1844C6.31143 3.1844 9.57768 3.50794 14.8468 9.36255C14.8468 9.36255 13.8454 9.84786 12.505 10.8801C12.505 10.8801 12.4973 10.8878 12.4896 10.8878C11.0336 12.0048 9.1694 13.7766 7.73657 16.2648ZM19.9619 26.9649C19.9157 27.0573 19.6846 27.1575 19.4226 27.196C19.1607 27.2345 18.3596 27.2114 17.9051 27.1575C16.272 26.9418 14.5387 26.441 13.2753 25.8248C12.5666 25.4781 12.0582 25.1315 11.6807 24.754L11.465 24.5306L11.4419 24.2379C11.4034 23.7294 11.4111 22.9283 11.4727 22.6433C11.5112 22.4044 11.596 22.1733 11.7115 21.9653C11.7732 21.8883 11.7732 21.8883 12.0505 21.8883C12.3894 21.8883 12.6745 21.9422 13.1367 22.0886C14.0842 22.3813 15.4939 23.09 17.2118 24.1223C18.6292 24.9697 19.1607 25.3857 19.569 25.9557C19.8463 26.3101 20.0312 26.8108 19.9619 26.9649ZM38.1111 24.415C38.088 24.5383 37.726 24.9081 37.3639 25.1777C36.3008 25.9557 34.3981 26.6798 32.4645 27.0265C31.363 27.2268 30.2614 27.2576 29.9301 27.0958C29.7144 26.988 29.6836 26.9032 29.7606 26.6259C29.9224 26.0482 30.4462 25.4165 31.2628 24.8233C31.6788 24.5229 33.3658 23.4983 34.1516 23.0669C35.4458 22.3582 36.4934 21.9345 37.2021 21.8344C37.4255 21.8036 37.6952 21.7959 37.7799 21.8344C37.9186 21.8883 38.0726 22.2966 38.1343 22.7896C38.1651 23.0515 38.1497 24.2071 38.1111 24.415ZM36.8324 10.8801L36.817 10.8724C35.5228 9.84016 34.5522 9.35484 34.5522 9.35484C39.6441 3.50024 42.7948 3.1767 42.7948 3.1767C43.1415 3.6466 43.3649 4.24747 43.4881 4.94078C44.2046 9.05441 41.4236 16.2648 41.4236 16.2648C40.2604 14.1926 38.6966 12.3592 36.8324 10.8801Z" fill="#FFA409"/>
    <path d="M43.4958 4.94078C42.895 4.86375 40.0524 4.84834 36.8324 10.8801L36.817 10.8724C35.5228 9.84015 34.5522 9.35484 34.5522 9.35484C39.6441 3.50024 42.7948 3.1767 42.7948 3.1767C43.1492 3.64661 43.3726 4.24747 43.4958 4.94078Z" fill="#FF9300"/>
    <path d="M41.4313 16.2648C40.2604 14.1849 38.7043 12.3592 36.8324 10.8801C40.0524 4.84834 42.8872 4.86374 43.4958 4.94078C44.2122 9.06211 41.4313 16.2648 41.4313 16.2648Z" fill="#FF8300"/>
    <path d="M43.6114 4.9639C43.5729 4.9562 43.5343 4.9485 43.4958 4.9408L43.6114 4.9639Z" fill="#FF8300"/>
    <path d="M14.8468 9.35484C14.8468 9.35484 13.8454 9.84015 12.505 10.8724C12.505 10.8724 12.4973 10.8801 12.4896 10.8801C9.15399 4.84064 6.21899 4.86375 5.58731 4.94078C5.71057 4.24747 5.94167 3.6389 6.30373 3.1767C6.31144 3.1767 9.57768 3.50024 14.8468 9.35484Z" fill="#FF9300"/>
    <path d="M12.4973 10.8801C11.0336 12.0048 9.1694 13.7689 7.73657 16.2648C7.73657 16.2648 4.85548 9.06211 5.59501 4.94078C6.21899 4.86374 9.16169 4.84834 12.4973 10.8801Z" fill="#FF8300"/>
    <path d="M5.59501 4.9408C5.55649 4.9485 5.51027 4.9562 5.47176 4.9639L5.59501 4.9408Z" fill="#FF8300"/>
    <path d="M33.6355 20.2629C33.6355 20.2629 31.1704 20.4169 31.4785 18.4911C31.7866 16.5652 33.7125 16.3341 34.2517 16.4112C34.791 16.4882 36.9479 17.2585 36.5627 18.8763C36.1776 20.494 35.6383 20.1858 35.3302 20.2629C35.0221 20.3399 33.6355 20.2629 33.6355 20.2629Z" fill="white"/>
    <path d="M15.4554 20.2629C15.4554 20.2629 12.9903 20.4169 13.2984 18.4911C13.6066 16.5652 15.5324 16.3341 16.0717 16.4112C16.6109 16.4882 18.7679 17.2585 18.3827 18.8763C17.9975 20.494 17.4583 20.1858 17.1501 20.2629C16.842 20.3399 15.4554 20.2629 15.4554 20.2629Z" fill="white"/>
</svg>
