<?xml version="1.0" encoding="UTF-8"?>
<svg xmlns="http://www.w3.org/2000/svg" xmlns:xlink="http://www.w3.org/1999/xlink" width="1000px" height="360px" viewBox="220 220 1140 400" version="1.1">
    <!-- Generator: Sketch 64 (93537) - https://sketch.com -->
    <title>Logo/bitpay-logo-blue (1576x840)</title>
    <desc>Created with Sketch.</desc>
    <g id="Logo/bitpay-logo-blue-(1576x840)" stroke="none" stroke-width="1" fill="none" fill-rule="evenodd">
        <g id="bitpay-logo-blue">
            <rect id="Rectangle" fill-opacity="0" fill="#FFFFFF" x="0" y="0" width="1576" height="840"></rect>
            <path d="M1359,313.936877 L1300.13793,313.936877 L1266.12874,457.923588 L1260.89655,477.55814 C1256.97241,478.86711 1254.35632,478.86711 1250.43218,480.17608 C1243.89195,481.48505 1238.65977,481.48505 1232.11954,481.48505 C1224.27126,481.48505 1219.03908,480.17608 1213.8069,477.55814 C1209.88276,474.940199 1205.95862,472.322259 1204.65057,468.395349 C1203.34253,464.468439 1202.03448,459.232558 1202.03448,453.996678 C1202.03448,448.760797 1203.34253,442.215947 1204.65057,436.980066 L1222.96322,362.368771 L1234.73563,312.627907 L1174.56552,312.627907 L1147.09655,427.817276 C1143.17241,442.215947 1141.86437,455.305648 1141.86437,467.086379 C1141.86437,480.17608 1143.17241,490.647841 1147.09655,499.810631 C1151.02069,508.973422 1158.86897,516.827243 1169.33333,522.063123 C1179.7977,527.299003 1194.18621,529.916944 1212.49885,529.916944 C1225.57931,529.916944 1237.35172,528.607973 1246.50805,525.990033 L1247.81609,525.990033 C1245.2,537.770764 1239.96782,546.933555 1230.81149,554.787375 C1221.65517,562.641196 1209.88276,566.568106 1192.87816,566.568106 C1186.33793,566.568106 1178.48966,566.568106 1173.25747,565.259136 L1161.48506,613.69103 C1169.33333,615 1178.48966,615 1187.64598,615 C1205.95862,615 1221.65517,612.38206 1234.73563,608.45515 C1247.81609,604.528239 1259.58851,597.983389 1270.05287,590.129568 C1279.2092,582.275748 1288.36552,571.803987 1294.90575,558.714286 C1301.44598,545.624585 1306.67816,531.225914 1310.6023,514.209302 L1351.15172,342.734219 L1359,313.936877 L1359,313.936877 Z M1111.77931,436.980066 C1107.85517,451.378738 1106.54713,467.086379 1107.85517,482.79402 C1109.16322,498.501661 1115.70345,520.754153 1120.93563,532.534884 L1063.38161,532.534884 C1056.84138,520.754153 1056.84138,515.518272 1055.53333,511.591362 C1047.68506,518.136213 1039.83678,522.063123 1030.68046,525.990033 C1021.52414,529.916944 1012.36782,532.534884 1000.5954,532.534884 C987.514943,532.534884 975.742529,529.916944 966.586207,525.990033 C957.429885,522.063123 949.581609,515.518272 943.041379,507.664452 C936.501149,499.810631 932.577011,490.647841 929.96092,480.17608 C927.344828,469.704319 926.036782,459.232558 926.036782,446.142857 C926.036782,427.817276 929.96092,410.800664 935.193103,395.093023 C941.733333,379.385382 950.889655,364.986711 962.662069,353.20598 C974.434483,341.425249 1001.90345,313.936877 1047.68506,313.936877 L1139.24828,313.936877 L1111.77931,436.980066 L1111.77931,436.980066 Z M1069.92184,363.677741 C1042.45287,363.677741 1037.22069,363.677741 1025.44828,368.913621 C1017.6,372.840532 1011.05977,379.385382 1004.51954,387.239203 C999.287356,393.784053 994.055172,402.946844 990.131034,412.109635 C986.206897,421.272425 984.898851,431.744186 984.898851,442.215947 C984.898851,455.305648 987.514943,464.468439 991.43908,472.322259 C995.363218,480.17608 1003.21149,482.79402 1014.98391,482.79402 C1021.52414,482.79402 1026.75632,481.48505 1031.98851,478.86711 C1037.22069,476.249169 1042.45287,472.322259 1047.68506,467.086379 C1047.68506,460.541528 1048.9931,453.996678 1050.30115,446.142857 C1051.6092,438.289037 1052.91724,431.744186 1054.22529,426.508306 L1069.92184,363.677741 Z M911.648276,400.328904 C911.648276,419.963455 907.724138,436.980066 902.491954,453.996678 C895.951724,469.704319 886.795402,484.10299 876.331034,495.883721 C864.558621,507.664452 851.478161,516.827243 835.781609,523.372093 C820.085057,529.916944 803.08046,533.843854 784.767816,533.843854 C775.611494,533.843854 766.455172,532.534884 757.298851,531.225914 L738.986207,603.219269 L680.124138,603.219269 L748.142529,315.245847 L826.625287,315.245847 C841.013793,315.245847 854.094253,317.863787 864.558621,321.790698 C875.022989,325.717608 884.17931,332.262458 890.71954,340.116279 C897.25977,347.9701 902.491954,357.13289 906.416092,367.604651 C910.34023,376.767442 911.648276,388.548173 911.648276,400.328904 L911.648276,400.328904 Z M766.455172,481.48505 C770.37931,482.79402 776.91954,482.79402 783.45977,482.79402 C793.924138,482.79402 803.08046,481.48505 812.236782,477.55814 C820.085057,473.631229 827.933333,468.395349 834.473563,461.850498 C841.013793,455.305648 844.937931,446.142857 848.862069,436.980066 C852.786207,427.817276 854.094253,416.036545 854.094253,404.255814 C854.094253,392.475083 851.478161,383.312292 846.245977,375.458472 C841.013793,367.604651 831.857471,363.677741 820.085057,363.677741 L796.54023,363.677741 L766.455172,481.48505 L766.455172,481.48505 Z M643.498851,481.48505 C635.650575,481.48505 630.418391,480.17608 625.186207,477.55814 C621.262069,474.940199 617.337931,472.322259 616.029885,468.395349 C614.721839,464.468439 613.413793,459.232558 613.413793,453.996678 C613.413793,448.760797 614.721839,442.215947 616.029885,436.980066 L634.342529,362.368771 L701.052874,362.368771 L712.825287,312.627907 L644.806897,312.627907 L660.503448,249.797342 L597.717241,260.269103 L558.475862,429.126246 C554.551724,443.524917 553.243678,456.614618 553.243678,468.395349 C553.243678,481.48505 554.551724,491.956811 558.475862,501.119601 C562.4,510.282392 570.248276,518.136213 580.712644,523.372093 C591.177011,528.607973 605.565517,531.225914 623.878161,531.225914 C636.958621,531.225914 648.731034,529.916944 657.887356,527.299003 C659.195402,527.299003 660.503448,527.299003 661.811494,525.990033 L673.583908,474.940199 C669.65977,476.249169 665.735632,477.55814 661.811494,477.55814 C655.271264,481.48505 650.03908,481.48505 643.498851,481.48505 L643.498851,481.48505 Z M493.073563,313.936877 L440.751724,532.534884 L499.613793,532.534884 L551.935632,313.936877 L493.073563,313.936877 Z M557.167816,287.757475 L566.324138,249.797342 L507.462069,249.797342 L498.305747,287.757475 L557.167816,287.757475 Z M362.268966,313.936877 C375.349425,313.936877 385.813793,316.554817 394.970115,320.481728 C404.126437,324.408638 411.974713,330.953488 418.514943,338.807309 C425.055172,346.66113 428.97931,355.82392 431.595402,366.295681 C434.211494,376.767442 435.51954,387.239203 435.51954,399.019934 C435.51954,417.345515 431.595402,434.362126 425.055172,451.378738 C418.514943,467.086379 409.358621,481.48505 397.586207,494.574751 C385.813793,507.664452 372.733333,515.518272 355.728736,523.372093 C340.032184,529.916944 323.027586,533.843854 304.714943,533.843854 L291.634483,533.843854 C285.094253,533.843854 278.554023,533.843854 270.705747,532.534884 C262.857471,531.225914 255.009195,529.916944 245.852874,527.299003 C236.696552,524.681063 228.848276,522.063123 221,518.136213 L289.018391,230.162791 L350.496552,221 L325.643678,323.099668 C330.875862,320.481728 336.108046,319.172757 341.34023,317.863787 C350.496552,313.936877 355.728736,313.936877 362.268966,313.936877 Z M309.947126,484.10299 C319.103448,484.10299 328.25977,481.48505 336.108046,477.55814 C343.956322,473.631229 351.804598,467.086379 357.036782,459.232558 C363.577011,451.378738 367.501149,443.524917 371.425287,434.362126 C375.349425,425.199336 376.657471,414.727575 376.657471,404.255814 C376.657471,391.166113 374.041379,382.003322 370.117241,374.149502 C366.193103,367.604651 357.036782,363.677741 345.264368,363.677741 C341.34023,363.677741 337.416092,363.677741 332.183908,364.986711 C325.643678,366.295681 321.71954,368.913621 316.487356,372.840532 L290.326437,481.48505 C298.174713,482.79402 300.790805,482.79402 302.098851,482.79402 C304.714943,484.10299 307.331034,484.10299 309.947126,484.10299 L309.947126,484.10299 Z" id="Shape" fill="#1A3A8B" fill-rule="nonzero"></path>
        </g>
    </g>
</svg>